<svg width="20" height="20" viewBox="0 0 20 20" fill="none" xmlns="http://www.w3.org/2000/svg">
<path d="M13.3333 13.0166C13.8487 13.0166 14.2666 12.5987 14.2666 12.0832C14.2666 11.5678 13.8487 11.1499 13.3333 11.1499C12.8178 11.1499 12.3999 11.5678 12.3999 12.0832C12.3999 12.5987 12.8178 13.0166 13.3333 13.0166Z" fill="#5493F8"/>
<path fill-rule="evenodd" clip-rule="evenodd" d="M13.3333 13.7499C12.7249 13.7499 11.5083 14.0499 11.4666 14.6499C11.8833 15.2416 12.5666 15.6249 13.3333 15.6249C14.0999 15.6249 14.7833 15.2416 15.1999 14.6499C15.1583 14.0499 13.9416 13.7499 13.3333 13.7499Z" fill="#5493F8"/>
<path fill-rule="evenodd" clip-rule="evenodd" d="M14.1666 8.40823V4.39157L7.9166 1.66656L1.6666 4.39157V8.48323C1.6666 12.2666 4.33326 15.8082 7.9166 16.6666C8.37493 16.5582 8.8166 16.3999 9.24993 16.2082C10.1499 17.4916 11.6416 18.3332 13.3333 18.3332C16.0916 18.3332 18.3333 16.0916 18.3333 13.3332C18.3333 10.8582 16.5333 8.80823 14.1666 8.40823ZM8.33326 13.3332C8.33326 13.7999 8.39993 14.2582 8.52493 14.6832C8.32493 14.7749 8.12493 14.8666 7.9166 14.9332C5.27493 14.0999 3.33326 11.3999 3.33326 8.48323V5.48323L7.9166 3.48323L12.4999 5.48323V8.40823C10.1333 8.80823 8.33326 10.8582 8.33326 13.3332ZM13.3333 16.6666C11.4916 16.6666 9.99993 15.1749 9.99993 13.3332C9.99993 11.4916 11.4916 9.9999 13.3333 9.9999C15.1749 9.9999 16.6666 11.4916 16.6666 13.3332C16.6666 15.1749 15.1749 16.6666 13.3333 16.6666Z" fill="#5493F8"/>
</svg>
