<svg width="24" height="25" viewBox="0 0 24 25" fill="none" xmlns="http://www.w3.org/2000/svg">
<g clip-path="url(#clip0_344_29127)">
<path fill-rule="evenodd" clip-rule="evenodd" d="M11.6438 24.4111C11.865 24.5296 12.135 24.5296 12.3562 24.4111C15.9675 22.4743 18.2325 20.8295 19.6687 18.7749C21.81 15.7168 22.125 11.7095 22.125 4.25C22.125 3.84388 21.8025 3.51125 21.3938 3.50038C15.2588 3.33425 12.525 0.714875 12.525 0.714875C12.2325 0.428375 11.7675 0.428375 11.475 0.714875C11.475 0.714875 8.74123 3.33425 2.60623 3.50038C2.19748 3.51125 1.875 3.84388 1.875 4.25C1.875 11.7095 2.19002 15.7168 4.33127 18.7749C5.76752 20.8295 8.03252 22.4743 11.6438 24.4111ZM12 22.8976C8.86125 21.1914 6.84003 19.7472 5.56128 17.9154C3.61878 15.1419 3.39 11.5194 3.375 4.9685C8.1525 4.68988 10.9237 3.02675 12 2.22163C13.0763 3.02675 15.8475 4.68988 20.625 4.9685C20.61 11.5194 20.3812 15.1419 18.4425 17.9154C17.16 19.7472 15.1388 21.1914 12 22.8976ZM5.75629 12.875H5.625C5.2125 12.875 4.875 13.211 4.875 13.625C4.875 14.039 5.2125 14.375 5.625 14.375H6.68628C6.79503 14.5164 6.90749 14.6574 7.02374 14.7973C9.07874 17.2636 11.5538 19.1019 11.5538 19.1019C11.8163 19.2995 12.1837 19.2995 12.4462 19.1019C12.4462 19.1019 14.9175 17.2636 16.9763 14.7973C17.0925 14.6574 17.205 14.5164 17.3137 14.375H18.375C18.7875 14.375 19.125 14.039 19.125 13.625C19.125 13.211 18.7875 12.875 18.375 12.875H18.24C18.5662 12.1869 18.75 11.4793 18.75 10.7476C18.75 9.72125 18.3675 8.73913 17.6962 8.01613C16.2712 6.48688 13.9762 6.48688 12.555 8.01613C12.3562 8.23063 12.165 8.45113 12 8.6525C11.835 8.45113 11.6438 8.23063 11.445 8.01613C10.02 6.48688 7.72502 6.48688 6.30377 8.01613C5.63252 8.73913 5.25 9.72125 5.25 10.7476C5.25 11.4793 5.43379 12.1869 5.75629 12.875ZM15.36 14.375H13.6313L13.0725 15.7786C12.9563 16.0632 12.6825 16.25 12.375 16.25C12.0675 16.25 11.7937 16.0632 11.6775 15.7786L10.875 13.7694L10.8225 13.9036C10.7063 14.1882 10.4325 14.375 10.125 14.375H8.64001C9.93751 15.8308 11.31 16.9951 12 17.5483C12.6862 16.9951 14.0625 15.8308 15.36 14.375ZM16.5375 12.875C16.9725 12.1944 17.25 11.4931 17.25 10.7476C17.25 10.106 17.0175 9.48987 16.5975 9.038C15.7838 8.16237 14.4675 8.162 13.6537 9.03763C13.0837 9.64888 12.6112 10.3115 12.6112 10.3115C12.4687 10.508 12.2437 10.625 12 10.625C11.76 10.625 11.5313 10.5084 11.3888 10.3119C11.3888 10.3119 10.9163 9.64925 10.3463 9.03763C9.53253 8.162 8.21625 8.162 7.4025 9.03763C6.9825 9.4895 6.75 10.106 6.75 10.7476C6.75 11.4931 7.02746 12.1944 7.46246 12.875H9.61871L10.1775 11.4714C10.2937 11.1868 10.5675 11 10.875 11C11.1825 11 11.4563 11.1868 11.5725 11.4714L12.375 13.4806L12.4275 13.3464C12.5437 13.0618 12.8175 12.875 13.125 12.875H16.5375Z" fill="#E10098"/>
</g>
<defs>
<clipPath id="clip0_344_29127">
<rect width="24" height="24" fill="white" transform="translate(0 0.5)"/>
</clipPath>
</defs>
</svg>
