<svg width="15" height="13" viewBox="0 0 15 13" fill="none" xmlns="http://www.w3.org/2000/svg">
<path d="M7.47503 2.87646L2.72439 7.3199C2.7242 7.32934 2.72293 7.33873 2.72062 7.34785C2.7185 7.35701 2.71724 7.36637 2.71686 7.3758V11.8747C2.71461 12.0315 2.77099 12.1829 2.87367 12.2957C2.91997 12.3518 2.97709 12.3967 3.04115 12.4273C3.10521 12.4579 3.17473 12.4736 3.24499 12.4732H5.32656C5.32363 12.4288 5.32196 12.3876 5.32196 12.3441V9.7548C5.32196 9.24129 5.51422 8.7488 5.85644 8.38569C6.19866 8.02258 6.66281 7.81859 7.14678 7.81859H7.70627C7.94594 7.81853 8.18328 7.86857 8.40473 7.96585C8.62617 8.06313 8.82739 8.20574 8.99688 8.38554C9.16638 8.56533 9.30083 8.7788 9.39256 9.01374C9.48429 9.24868 9.53151 9.5005 9.53151 9.7548V12.3472C9.53151 12.3916 9.52942 12.4359 9.52691 12.4763H11.7055C11.7757 12.4765 11.8452 12.4608 11.9092 12.4302C11.9733 12.3996 12.0304 12.3548 12.0768 12.2988C12.1796 12.1857 12.2361 12.0341 12.234 11.8769V7.37802C12.2351 7.35896 12.2322 7.3399 12.2257 7.32211L7.47503 2.87646Z" fill="currentColor"/>
<path d="M14.0983 6.44621L12.2741 4.72853V0.874238C12.277 0.794023 12.2501 0.715804 12.1991 0.65651C12.1746 0.628887 12.1449 0.607075 12.1119 0.592511C12.0789 0.577946 12.0434 0.57096 12.0077 0.572012H10.4086C10.3728 0.570896 10.3372 0.577852 10.3041 0.592418C10.2711 0.606985 10.2413 0.62883 10.2168 0.65651C10.1661 0.715975 10.1393 0.794115 10.1422 0.874238V2.71666L8.1097 0.790188C7.93283 0.631807 7.70881 0.544922 7.47732 0.544922C7.24584 0.544922 7.02182 0.631807 6.84495 0.790188L0.854673 6.44621C0.827013 6.47149 0.804601 6.50259 0.788854 6.53752C0.773107 6.57246 0.764368 6.61048 0.76319 6.64919C0.755759 6.72884 0.776659 6.80857 0.82179 6.87273L1.33781 7.57152C1.38186 7.62791 1.44403 7.66502 1.51234 7.67569C1.58454 7.68025 1.6558 7.65655 1.71259 7.60907L7.47648 2.15826L13.2395 7.60773C13.2872 7.65343 13.3499 7.67736 13.4141 7.67435H13.4394C13.5078 7.66358 13.57 7.6265 13.6143 7.57018L14.1308 6.87094C14.1757 6.8067 14.1964 6.72699 14.1889 6.6474C14.1875 6.60909 14.1787 6.5715 14.1631 6.53691C14.1476 6.50232 14.1255 6.47146 14.0983 6.44621Z" fill="currentColor"/>
</svg>
