<svg width="21" height="21" viewBox="0 0 21 21" fill="none" xmlns="http://www.w3.org/2000/svg">
<path d="M16.4364 7.82716H14.162C14.3006 7.59026 14.425 7.34538 14.5344 7.09379C14.6739 6.81607 14.7514 6.51162 14.7617 6.20128C14.772 5.89095 14.7149 5.58206 14.5941 5.29577C14.2822 4.69352 13.7622 4.22389 13.13 3.97345C12.9953 3.66201 12.7719 3.39674 12.4874 3.21052C12.2029 3.02429 11.8698 2.9253 11.5293 2.92578H9.43967C9.09962 2.92549 8.76695 3.02459 8.48292 3.21083C8.1989 3.39706 7.976 3.66223 7.84187 3.97345C7.20964 4.22389 6.68962 4.69352 6.3777 5.29577C6.25699 5.58206 6.19983 5.89095 6.21013 6.20128C6.22044 6.51162 6.29796 6.81607 6.4374 7.09379C6.54686 7.34538 6.67123 7.59026 6.80984 7.82716H4.55245C4.09073 7.82791 3.64817 8.01111 3.32195 8.33654C2.99573 8.66197 2.8125 9.10303 2.8125 9.56289V11.6441C2.8125 12.1037 2.99582 12.5444 3.32212 12.8694C3.64843 13.1944 4.09099 13.377 4.55245 13.377H7.69972V16.5483C7.69972 17.0079 7.88304 17.4486 8.20934 17.7736C8.53565 18.0986 8.97821 18.2812 9.43967 18.2812H11.5293C11.7581 18.2815 11.9846 18.237 12.196 18.1501C12.4075 18.0631 12.5996 17.9356 12.7615 17.7746C12.9234 17.6137 13.0518 17.4225 13.1394 17.2121C13.227 17.0016 13.2721 16.7761 13.2721 16.5483V15.8432C13.0721 15.73 12.8978 15.5767 12.7602 15.3929C12.6227 15.2092 12.525 14.999 12.4732 14.7757H12.4562L11.8648 14.7899H11.8733C10.321 14.7701 10.1135 13.7819 10.1135 12.8078V10.738H10.0253C8.2001 10.738 7.00601 8.05368 6.95199 7.93192C6.93551 7.89328 6.92589 7.85209 6.92356 7.81017H7.70825C7.48152 7.49132 7.29083 7.14852 7.13964 6.78799C7.04278 6.6043 6.9868 6.40198 6.97552 6.1948C6.96423 5.98763 6.99791 5.78046 7.07424 5.58742C7.21815 5.29162 7.44407 5.04304 7.72531 4.87104V7.81583H7.71109C8.09774 8.59167 9.08713 10.0131 10.1902 9.99894H10.8527C11.9586 9.99894 12.9281 8.58318 13.3119 7.81866H13.2949V4.87388C13.574 5.04713 13.7994 5.29414 13.9459 5.58742C14.0235 5.78477 14.0564 5.99675 14.0421 6.20821C14.0278 6.41968 13.9668 6.62539 13.8635 6.81064C13.7123 7.17117 13.5216 7.51397 13.2949 7.83282H14.0795C14.0772 7.87474 14.0676 7.91594 14.0511 7.95458C13.9971 8.07634 12.803 10.7606 10.9778 10.7606C10.9304 10.7635 10.883 10.7635 10.8356 10.7606V12.8333C10.8356 13.8017 11.046 14.0594 11.862 14.0678H12.4476H12.4789C12.5468 13.7651 12.6992 13.4876 12.9186 13.2674C13.1381 13.0472 13.4155 12.8933 13.719 12.8235C14.0225 12.7536 14.3396 12.7706 14.6338 12.8726C14.928 12.9745 15.1873 13.1572 15.3817 13.3996H16.4364C16.8982 13.3996 17.341 13.2171 17.6678 12.8922C17.9945 12.5673 18.1785 12.1266 18.1792 11.6667V9.58553C18.1819 9.3558 18.1387 9.12782 18.0524 8.91478C17.966 8.70174 17.8381 8.50787 17.676 8.34436C17.514 8.18086 17.321 8.05096 17.1082 7.96218C16.8954 7.87341 16.6671 7.82752 16.4364 7.82716Z" fill="#E10098"/>
</svg>
