<svg width="22" height="24" viewBox="0 0 22 24" fill="none" xmlns="http://www.w3.org/2000/svg">
<path fill-rule="evenodd" clip-rule="evenodd" d="M10.6438 23.9111C10.865 24.0296 11.135 24.0296 11.3562 23.9111C14.9675 21.9743 17.2325 20.3295 18.6687 18.2749C20.81 15.2168 21.125 11.2095 21.125 3.75C21.125 3.34388 20.8025 3.01125 20.3938 3.00038C14.2588 2.83425 11.525 0.214875 11.525 0.214875C11.2325 -0.071625 10.7675 -0.071625 10.475 0.214875C10.475 0.214875 7.74123 2.83425 1.60623 3.00038C1.19748 3.01125 0.875 3.34388 0.875 3.75C0.875 11.2095 1.19002 15.2168 3.33127 18.2749C4.76752 20.3295 7.03252 21.9743 10.6438 23.9111ZM11 22.3976C7.86125 20.6914 5.84003 19.2472 4.56128 17.4154C2.61878 14.6419 2.39 11.0194 2.375 4.4685C7.1525 4.18988 9.92375 2.52675 11 1.72163C12.0763 2.52675 14.8475 4.18988 19.625 4.4685C19.61 11.0194 19.3812 14.6419 17.4425 17.4154C16.16 19.2472 14.1388 20.6914 11 22.3976ZM4.75629 12.375H4.625C4.2125 12.375 3.875 12.711 3.875 13.125C3.875 13.539 4.2125 13.875 4.625 13.875H5.68628C5.79503 14.0164 5.90749 14.1574 6.02374 14.2973C8.07874 16.7636 10.5538 18.6019 10.5538 18.6019C10.8163 18.7995 11.1837 18.7995 11.4462 18.6019C11.4462 18.6019 13.9175 16.7636 15.9763 14.2973C16.0925 14.1574 16.205 14.0164 16.3137 13.875H17.375C17.7875 13.875 18.125 13.539 18.125 13.125C18.125 12.711 17.7875 12.375 17.375 12.375H17.24C17.5662 11.6869 17.75 10.9793 17.75 10.2476C17.75 9.22125 17.3675 8.23913 16.6962 7.51613C15.2712 5.98688 12.9762 5.98688 11.555 7.51613C11.3562 7.73063 11.165 7.95113 11 8.1525C10.835 7.95113 10.6438 7.73063 10.445 7.51613C9.02001 5.98688 6.72502 5.98688 5.30377 7.51613C4.63252 8.23913 4.25 9.22125 4.25 10.2476C4.25 10.9793 4.43379 11.6869 4.75629 12.375ZM14.36 13.875H12.6313L12.0725 15.2786C11.9563 15.5632 11.6825 15.75 11.375 15.75C11.0675 15.75 10.7937 15.5632 10.6775 15.2786L9.875 13.2694L9.82254 13.4036C9.70629 13.6882 9.4325 13.875 9.125 13.875H7.64001C8.93751 15.3308 10.31 16.4951 11 17.0483C11.6862 16.4951 13.0625 15.3308 14.36 13.875ZM15.5375 12.375C15.9725 11.6944 16.25 10.9931 16.25 10.2476C16.25 9.606 16.0175 8.98987 15.5975 8.538C14.7838 7.66237 13.4675 7.662 12.6537 8.53763C12.0837 9.14888 11.6112 9.8115 11.6112 9.8115C11.4687 10.008 11.2437 10.125 11 10.125C10.76 10.125 10.5313 10.0084 10.3888 9.81188C10.3888 9.81188 9.91628 9.14925 9.34628 8.53763C8.53253 7.662 7.21625 7.662 6.4025 8.53763C5.9825 8.9895 5.75 9.606 5.75 10.2476C5.75 10.9931 6.02746 11.6944 6.46246 12.375H8.61871L9.17746 10.9714C9.29371 10.6868 9.5675 10.5 9.875 10.5C10.1825 10.5 10.4563 10.6868 10.5725 10.9714L11.375 12.9806L11.4275 12.8464C11.5437 12.5618 11.8175 12.375 12.125 12.375H15.5375Z" fill="currentColor"/>
</svg>
