<svg width="21" height="21" viewBox="0 0 21 21" fill="none" xmlns="http://www.w3.org/2000/svg">
<path d="M19.1484 12.9951C19.1484 12.5199 19.1539 12.0444 19.1451 11.5688C19.1355 11.0632 18.8054 10.7381 18.3148 10.7359C17.9862 10.7359 17.6572 10.728 17.3294 10.7393C17.1906 10.7441 17.1339 10.6968 17.0942 10.5632C16.8175 9.63723 16.5334 8.71348 16.2496 7.78937C16.0851 7.25374 15.655 6.92606 15.1162 6.92606C14.3697 6.92606 13.6229 6.92606 12.8758 6.92606C12.329 6.92606 12.0129 7.25299 12.0121 7.81527C12.0121 8.55896 12.0121 9.30241 12.0121 10.0456V10.2599C11.9577 10.2663 11.9282 10.2731 11.8992 10.2731H11.8443C11.3291 10.2731 11.0101 10.2731 10.27 10.2674C10.2005 10.2674 10.1074 10.1995 10.0662 10.1361C9.21682 8.83209 8.37043 7.52599 7.52697 6.21777C7.40627 6.03009 7.30838 5.7801 7.13542 5.69227C6.95142 5.60069 6.69051 5.65774 6.46456 5.67538C6.36665 5.68492 6.2758 5.73152 6.20991 5.806C5.31862 6.9746 4.43211 8.14683 3.55038 9.32268C3.40098 9.52124 3.48009 9.69803 3.72481 9.74045C3.96953 9.78286 4.10459 9.93488 4.09649 10.1533C4.09238 10.2516 4.05267 10.3449 3.98503 10.4151C3.91739 10.4852 3.82664 10.5273 3.73033 10.5332C3.50953 10.5463 3.3513 10.4018 3.31302 10.1492C3.288 9.98217 3.19306 9.88984 3.05984 9.90373C2.92663 9.91761 2.83904 10.0426 2.85303 10.213C2.87054 10.3995 2.94578 10.5754 3.06784 10.7154C3.1899 10.8553 3.35246 10.952 3.53198 10.9915C3.71503 11.0295 3.90523 11.0053 4.07358 10.9228C4.24194 10.8403 4.37921 10.7038 4.46449 10.5343C4.55136 10.3656 4.58061 10.1721 4.54762 9.98446C4.51463 9.79685 4.42128 9.6258 4.28233 9.49835C4.23081 9.44993 4.17488 9.40676 4.11048 9.35271L6.29234 6.4625L8.01641 10.2734H7.81512C7.25404 10.2734 6.69297 10.2734 6.13189 10.2734C5.54935 10.2734 5.23471 10.594 5.23434 11.1871C5.23434 12.199 5.23434 13.2107 5.23434 14.2222V14.4158C5.76721 14.4158 6.28019 14.4188 6.79282 14.4091C6.82741 14.4091 6.88334 14.3137 6.8907 14.2589C7.03386 13.1348 7.97188 12.2392 9.08177 12.1746C10.2244 12.1078 11.253 12.8754 11.5198 13.9939C11.5518 14.1291 11.5724 14.2668 11.5985 14.4046C12.1733 14.4046 11.848 14.4098 12.4173 14.4098V14.4046H12.775C13.1102 12.9891 13.84 12.2546 14.9852 12.1765C15.4901 12.136 15.9939 12.2681 16.4171 12.5518C17.0743 12.9891 17.421 13.6235 17.5071 14.417H17.6675C18.3428 14.417 18.4742 14.4203 19.1495 14.4128C19.1498 14.4143 19.1484 13.0255 19.1484 12.9951ZM16.0336 10.1008C16.0336 10.1038 16.0336 10.1072 16.0336 10.1117C16.0288 10.1674 16.0037 10.2194 15.9634 10.2573C15.9231 10.2953 15.8703 10.3166 15.8154 10.317H13.1658C13.1078 10.317 13.0522 10.2935 13.0112 10.2517C12.9703 10.2099 12.9472 10.1532 12.9472 10.094V7.89146C12.9476 7.83775 12.9668 7.78595 13.0014 7.74541C13.0359 7.70487 13.0835 7.67826 13.1356 7.67038L13.1592 7.66663C13.1914 7.66005 13.2242 7.65653 13.2571 7.65612H13.8889C14.2201 7.65612 14.5657 7.65612 14.9035 7.65612H14.9061C15.1582 7.65612 15.3521 7.795 15.4261 8.02809C15.5839 8.52656 15.7385 9.03479 15.8883 9.52612C15.9346 9.67851 15.9806 9.83016 16.027 9.98217C16.0381 10.0207 16.0403 10.0613 16.0336 10.1008Z" fill="currentColor"/>
<path d="M8.78289 12.5371C8.53559 12.5367 8.29063 12.5849 8.06199 12.679C7.83335 12.7731 7.62551 12.9113 7.45035 13.0856C7.27518 13.26 7.13611 13.467 7.04108 13.695C6.94604 13.923 6.89691 14.1675 6.89649 14.4145C6.89606 14.6614 6.94435 14.9061 7.03859 15.1344C7.13284 15.3627 7.27119 15.5703 7.44576 15.7452C7.62033 15.9201 7.82769 16.059 8.056 16.1539C8.28431 16.2488 8.5291 16.2979 8.7764 16.2983C9.81468 16.3021 10.6626 15.4481 10.6577 14.4028C10.6522 13.9086 10.4527 13.4362 10.1021 13.0873C9.75152 12.7384 9.27782 12.5409 8.78289 12.5371ZM8.77068 14.9936C8.6948 14.9937 8.61968 14.9786 8.54968 14.9493C8.47969 14.9201 8.41622 14.8772 8.36297 14.8232C8.30973 14.7692 8.26777 14.7052 8.23953 14.6349C8.2113 14.5645 8.19736 14.4893 8.19853 14.4135C8.19963 14.2606 8.26125 14.1143 8.36993 14.0065C8.47861 13.8988 8.62555 13.8383 8.77869 13.8383C8.93201 13.8415 9.07803 13.9043 9.18567 14.0134C9.29332 14.1224 9.35409 14.2691 9.35505 14.4223C9.35264 14.5752 9.28991 14.721 9.1805 14.8279C9.07108 14.9349 8.92381 14.9945 8.77068 14.9936Z" fill="currentColor"/>
<path d="M14.7432 12.5371C14.371 12.535 14.0065 12.6433 13.6959 12.8484C13.3853 13.0534 13.1426 13.3461 12.9984 13.6892C12.8542 14.0324 12.8151 14.4106 12.886 14.776C12.9569 15.1414 13.1347 15.4775 13.3967 15.7418C13.6588 16.0061 13.9934 16.1867 14.3582 16.2607C14.7229 16.3348 15.1015 16.2989 15.4458 16.1576C15.7902 16.0164 16.0849 15.7761 16.2926 15.4673C16.5004 15.1584 16.6118 14.7949 16.6128 14.4227C16.6124 13.9255 16.4158 13.4485 16.0657 13.0955C15.7156 12.7424 15.2404 12.5418 14.7432 12.5371ZM14.7264 14.9941C14.6506 14.9936 14.5756 14.9781 14.5057 14.9485C14.4359 14.9189 14.3726 14.8757 14.3195 14.8216C14.2664 14.7674 14.2245 14.7033 14.1963 14.6328C14.1681 14.5624 14.1541 14.4871 14.1551 14.4113C14.1543 14.3343 14.1689 14.2579 14.1981 14.1867C14.2272 14.1155 14.2703 14.0508 14.3248 13.9964C14.3793 13.942 14.4441 13.8991 14.5155 13.8702C14.5868 13.8412 14.6632 13.8268 14.7401 13.8277C14.8171 13.8287 14.8931 13.845 14.9637 13.8758C15.0342 13.9065 15.098 13.9511 15.1511 14.0068C15.2042 14.0625 15.2457 14.1282 15.273 14.2002C15.3004 14.2721 15.3131 14.3488 15.3104 14.4257C15.3094 14.5014 15.2935 14.5761 15.2636 14.6457C15.2337 14.7152 15.1904 14.7781 15.1362 14.8309C15.082 14.8837 15.0179 14.9253 14.9476 14.9533C14.8772 14.9813 14.8021 14.9951 14.7264 14.9941Z" fill="currentColor"/>
</svg>
