<svg width="27" height="34" viewBox="0 0 27 34" fill="none" xmlns="http://www.w3.org/2000/svg">
<g clip-path="url(#clip0_7151_127054)">
<path d="M17.2833 10.9845H15.3585C15.3387 10.9845 15.3192 10.98 15.301 10.9714C15.2828 10.9628 15.2663 10.9502 15.2524 10.9342C15.2385 10.9183 15.2275 10.8994 15.2201 10.8787C15.2126 10.8579 15.2088 10.8356 15.209 10.8132V8.58097C15.2084 8.30534 15.1119 8.04119 14.9405 7.8464C14.7692 7.65161 14.5369 7.54206 14.2947 7.54175H13.019C12.7769 7.54206 12.5447 7.65164 12.3735 7.84647C12.2023 8.0413 12.106 8.30545 12.1057 8.58097V10.8132C12.1057 10.8586 12.0899 10.9022 12.0617 10.9343C12.0334 10.9664 11.9952 10.9845 11.9552 10.9845H10.0304C9.78832 10.9848 9.55618 11.0944 9.38497 11.2892C9.21376 11.484 9.11746 11.7482 9.11719 12.0237V13.4753C9.11746 13.751 9.21373 14.0152 9.38491 14.2103C9.55609 14.4053 9.78822 14.5151 10.0304 14.5157H11.9552C11.975 14.5156 11.9945 14.5199 12.0128 14.5283C12.031 14.5368 12.0476 14.5493 12.0616 14.5651C12.0756 14.581 12.0867 14.5998 12.0943 14.6205C12.1018 14.6412 12.1057 14.6634 12.1057 14.6858V16.8761C12.106 17.1516 12.2023 17.4158 12.3735 17.6106C12.5447 17.8055 12.7769 17.915 13.019 17.9153H14.2947C14.5369 17.915 14.7692 17.8055 14.9405 17.6107C15.1119 17.4159 15.2084 17.1518 15.209 16.8761V14.6858C15.209 14.6407 15.2247 14.5975 15.2528 14.5656C15.2808 14.5337 15.3188 14.5157 15.3585 14.5157H17.2833C17.5255 14.5151 17.7576 14.4053 17.9288 14.2103C18.1 14.0152 18.1962 13.751 18.1965 13.4753V12.0237C18.1962 11.7482 18.0999 11.484 17.9287 11.2892C17.7575 11.0944 17.5254 10.9848 17.2833 10.9845Z" fill="currentColor"/>
<path d="M13.8643 0.219555C11.1026 0.234215 8.43222 1.21835 6.3121 3.00281C2.77771 5.99035 -0.0608107 11.8411 3.48459 18.8142C6.05446 23.87 9.21009 28.5084 12.6509 32.9703C13.4877 34.055 14.395 34.0472 15.2406 32.9703C16.0862 31.8934 16.9021 30.831 17.6871 29.7285C20.5884 25.6597 23.3135 21.4987 25.2371 16.8281C28.3476 9.26653 22.3105 0.157384 13.8643 0.219555ZM14.0448 19.87C10.2781 19.8944 7.18635 16.7015 7.22598 12.8325C7.26562 8.89684 10.1746 5.86046 13.9226 5.83825C17.7928 5.81605 20.7701 8.82801 20.78 12.7747C20.791 16.7415 17.8435 19.8456 14.0448 19.87Z" fill="currentColor"/>
</g>
<defs>
<clipPath id="clip0_7151_127054">
<rect width="26.0274" height="33.5616" fill="white" transform="translate(0.644531 0.219238)"/>
</clipPath>
</defs>
</svg>
