<svg width="21" height="21" viewBox="0 0 21 21" fill="none" xmlns="http://www.w3.org/2000/svg">
<path d="M15.0606 6.28255C14.5951 5.79847 13.9686 5.60441 13.4541 5.53182L13.3592 5.52449C13.2851 5.52205 13.2114 5.51786 13.1373 5.5203C12.9903 5.52186 12.8436 5.53505 12.6986 5.55974C12.5543 5.58636 12.4129 5.62656 12.2762 5.6798C12.0022 5.78451 11.7505 5.94121 11.5058 6.11188C11.261 6.28255 11.0222 6.46892 10.7691 6.63889C10.6429 6.7237 10.5128 6.80502 10.3797 6.88041C10.2465 6.9558 10.1221 7.03084 9.99168 7.10762C9.86131 7.1844 9.7285 7.26049 9.58909 7.3275C9.16357 7.53633 8.67547 7.57718 8.22138 7.44197C7.92326 7.35445 7.64951 7.19852 7.42175 6.98651C7.41811 6.98315 7.41517 6.9791 7.41309 6.97459C7.41102 6.97008 7.40985 6.96521 7.40966 6.96025C7.40946 6.95528 7.41025 6.95033 7.41196 6.94568C7.41368 6.94102 7.4163 6.93675 7.41967 6.93311C7.42396 6.92832 7.42943 6.92473 7.43553 6.92271C7.44162 6.92069 7.44814 6.92031 7.45443 6.92159L7.47564 6.92543C7.80975 6.99035 8.09101 7.0078 8.3448 6.97953C8.57166 6.95762 8.79267 6.89447 8.99702 6.79316C9.04279 6.77232 9.08705 6.7483 9.12948 6.72126C9.13991 6.71533 9.15034 6.708 9.16042 6.70102C9.1705 6.69404 9.18163 6.6888 9.19171 6.68147L9.25811 6.6368L9.58387 6.41692C9.64333 6.37608 9.7073 6.3363 9.773 6.29372C9.83871 6.25114 9.90964 6.20995 9.98438 6.16877L10.0703 6.12026C10.0984 6.10525 10.1259 6.08536 10.1544 6.07105L10.1617 6.06686C9.64333 5.74542 8.27075 5.03343 6.85889 5.46132C6.07004 5.70004 5.68934 6.48253 5.50613 7.13659C5.35733 7.56587 5.28258 8.11906 5.35767 8.82826C5.36706 9.02406 5.39244 9.2195 5.41712 9.4139C5.53853 10.3232 5.72738 11.222 5.98208 12.1031C6.19589 12.8503 6.44656 13.585 6.80326 14.2795C7.00942 14.6844 7.24792 15.0683 7.59559 15.373C8.03468 15.7569 8.54366 15.7715 8.99841 15.4047C9.2981 15.1636 9.50044 14.8463 9.68748 14.5217C9.82206 14.279 9.94425 14.0296 10.0536 13.7745C10.1071 13.6537 10.1843 13.5577 10.3296 13.5427C10.508 13.5242 10.6203 13.5888 10.7023 13.7612C10.8007 13.9682 10.8894 14.18 10.9985 14.3814C11.1724 14.7067 11.3632 15.0215 11.6292 15.2847C11.8048 15.4592 12.0029 15.5988 12.2522 15.6497C12.603 15.7241 12.8954 15.6005 13.1544 15.3803C13.4482 15.1304 13.6606 14.8173 13.8462 14.4861C14.2339 13.7947 14.4964 13.0552 14.723 12.3006C14.841 11.9081 14.9453 11.5125 15.0359 11.114H15.0495C15.3972 9.90427 15.643 8.77381 15.669 8.05798C15.6961 7.3275 15.491 6.72964 15.0606 6.28255Z" fill="#E10098"/>
</svg>
