<svg width="24" height="24" viewBox="0 0 24 24" fill="none" xmlns="http://www.w3.org/2000/svg">
<path d="M7.00391 16H14.0039V18H7.00391V16ZM7.00391 12H17.0039V14H7.00391V12ZM7.00391 8H17.0039V10H7.00391V8ZM19.0039 4H14.8239C14.4039 2.84 13.3039 2 12.0039 2C10.7039 2 9.60391 2.84 9.18391 4H5.00391C4.86391 4 4.73391 4.01 4.60391 4.04C4.21391 4.12 3.86391 4.32 3.59391 4.59C3.41391 4.77 3.26391 4.99 3.16391 5.23C3.06391 5.46 3.00391 5.72 3.00391 6V20C3.00391 20.27 3.06391 20.54 3.16391 20.78C3.26391 21.02 3.41391 21.23 3.59391 21.42C3.86391 21.69 4.21391 21.89 4.60391 21.97C4.73391 21.99 4.86391 22 5.00391 22H19.0039C20.1039 22 21.0039 21.1 21.0039 20V6C21.0039 4.9 20.1039 4 19.0039 4ZM12.0039 3.75C12.4139 3.75 12.7539 4.09 12.7539 4.5C12.7539 4.91 12.4139 5.25 12.0039 5.25C11.5939 5.25 11.2539 4.91 11.2539 4.5C11.2539 4.09 11.5939 3.75 12.0039 3.75ZM19.0039 20H5.00391V6H19.0039V20Z" fill="#5493F8"/>
</svg>
