<svg width="30" height="39" viewBox="0 0 30 39" fill="none" xmlns="http://www.w3.org/2000/svg">
<path d="M20.9055 19.4858C20.721 19.4858 20.5407 19.5425 20.3873 19.6486C20.2338 19.7548 20.1143 19.9056 20.0437 20.0821C19.9731 20.2586 19.9546 20.4528 19.9906 20.6402C20.0266 20.8276 20.1154 20.9997 20.2459 21.1348C20.3764 21.2699 20.5426 21.3619 20.7235 21.3991C20.9045 21.4364 21.0921 21.4173 21.2625 21.3442C21.433 21.2711 21.5787 21.1473 21.6812 20.9884C21.7837 20.8296 21.8384 20.6428 21.8384 20.4518C21.8384 20.1956 21.7401 19.9499 21.5652 19.7688C21.3902 19.5876 21.1529 19.4858 20.9055 19.4858Z" fill="currentColor"/>
<path d="M22.141 2.05957H8.82172C7.96457 2.05957 7.14253 2.41214 6.53644 3.03971C5.93034 3.66728 5.58984 4.51846 5.58984 5.40598V33.5939C5.58984 34.4815 5.93034 35.3326 6.53644 35.9602C7.14253 36.5878 7.96457 36.9403 8.82172 36.9403H22.141C22.9982 36.9403 23.8202 36.5878 24.4263 35.9602C25.0324 35.3326 25.3729 34.4815 25.3729 33.5939V5.40598C25.3729 4.51846 25.0324 3.66728 24.4263 3.03971C23.8202 2.41214 22.9982 2.05957 22.141 2.05957ZM12.1811 4.43039H18.7817C19.0242 4.43039 19.2212 4.69441 19.2212 5.02068C19.2212 5.34695 19.0242 5.61097 18.7817 5.61097H12.1811C11.9385 5.61097 11.7416 5.34695 11.7416 5.02068C11.7416 4.69441 11.9385 4.43039 12.1811 4.43039ZM21.4549 22.4772V25.1453C21.4366 26.4175 20.9356 27.6313 20.0603 28.5243C19.1849 29.4173 18.0054 29.9178 16.7765 29.9178C15.5477 29.9178 14.3681 29.4173 13.4928 28.5243C12.6174 27.6313 12.1165 26.4175 12.0982 25.1453V22.8399C11.9973 22.76 11.9143 22.6587 11.8546 22.5426L11.3094 21.4726C10.3142 21.1685 9.44027 20.54 8.81765 19.6805C8.19504 18.821 7.85693 17.7764 7.85361 16.702V13.83C7.85416 13.2079 8.09305 12.6115 8.51786 12.1716C8.94267 11.7318 9.51868 11.4844 10.1194 11.4838C10.2649 11.4838 10.4043 11.5436 10.5072 11.6501C10.61 11.7566 10.6678 11.901 10.6678 12.0516C10.6678 12.2021 10.61 12.3466 10.5072 12.453C10.4043 12.5595 10.2649 12.6193 10.1194 12.6193C9.80935 12.6196 9.51201 12.7472 9.29264 12.9742C9.07326 13.2011 8.94976 13.5089 8.94921 13.83V16.702C8.95258 17.3804 9.1284 18.046 9.45901 18.6317C9.78962 19.2174 10.2634 19.7027 10.8326 20.0387C10.855 19.9498 10.8899 19.8649 10.9362 19.7865C11.0154 19.6482 11.1281 19.5337 11.2632 19.4545C11.3983 19.3752 11.5511 19.3339 11.7064 19.3347H13.6032C13.7584 19.3339 13.911 19.3751 14.0461 19.4542C14.1812 19.5332 14.294 19.6474 14.3733 19.7854C14.42 19.8648 14.4549 19.9509 14.477 20.0409C15.0481 19.7066 15.5233 19.2214 15.8541 18.6348C16.185 18.0482 16.3597 17.3813 16.3604 16.702V13.83C16.3601 13.5088 16.2367 13.2008 16.0172 12.9738C15.7978 12.7468 15.5003 12.6193 15.1901 12.6193C15.0447 12.6193 14.9052 12.5595 14.8024 12.453C14.6996 12.3466 14.6418 12.2021 14.6418 12.0516C14.6418 11.901 14.6996 11.7566 14.8024 11.6501C14.9052 11.5436 15.0447 11.4838 15.1901 11.4838C15.791 11.4844 16.3671 11.7317 16.7921 12.1715C17.217 12.6114 17.4562 13.2078 17.457 13.83V16.702C17.4563 17.7769 17.1192 18.8227 16.4961 19.6826C15.8731 20.5425 14.9978 21.1701 14.0012 21.4715L13.4498 22.5394C13.3898 22.6549 13.3068 22.7559 13.2062 22.8356V25.1453C13.2222 26.1179 13.6066 27.0452 14.2765 27.7272C14.9465 28.4092 15.8484 28.7914 16.7879 28.7914C17.7274 28.7914 18.6293 28.4092 19.2993 27.7272C19.9693 27.0452 20.3536 26.1179 20.3696 25.1453V22.4772C19.8967 22.34 19.4877 22.0301 19.2183 21.6049C18.949 21.1797 18.8374 20.6678 18.9042 20.164C18.9711 19.6602 19.2119 19.1985 19.5821 18.8642C19.9523 18.53 20.4268 18.3459 20.9179 18.3459C21.4091 18.3459 21.8836 18.53 22.2538 18.8642C22.624 19.1985 22.8648 19.6602 22.9316 20.164C22.9985 20.6678 22.8869 21.1797 22.6176 21.6049C22.3482 22.0301 21.9392 22.34 21.4663 22.4772H21.4549Z" fill="currentColor"/>
</svg>
