<svg width="30" height="39" viewBox="0 0 30 39" fill="none" xmlns="http://www.w3.org/2000/svg">
<g clip-path="url(#clip0_7151_150566)">
<path d="M27.9695 25.134L24.1583 22.0957C23.3839 21.5634 22.4477 21.3187 21.5118 21.4041C20.5759 21.4895 19.6994 21.8995 19.0341 22.5632C18.4797 23.1187 17.735 23.4431 16.9506 23.4709C16.1662 23.4987 15.4005 23.2278 14.808 22.713C14.1471 22.1539 13.4985 21.5534 12.88 20.935C12.2616 20.3166 11.6644 19.6681 11.1019 19.0072C10.587 18.4148 10.3161 17.6491 10.344 16.8647C10.3718 16.0804 10.6962 15.3358 11.2518 14.7814C11.9152 14.1162 12.3251 13.24 12.4105 12.3044C12.4958 11.3689 12.2513 10.433 11.7192 9.65874L9.06433 5.79636C8.63185 5.16803 8.0264 4.67862 7.32135 4.38745C6.61629 4.09628 5.84191 4.01585 5.09206 4.15591C3.9574 4.37392 2.9153 4.93022 2.10279 5.75163C0.173691 7.68058 -0.245679 10.8552 0.920728 14.6908C2.05806 18.4268 4.57428 22.3731 8.0064 25.806C11.4385 29.239 15.3873 31.7539 19.1225 32.8912C20.5461 33.3239 21.8792 33.5386 23.0903 33.5386C25.1435 33.5386 26.8501 32.9225 28.0623 31.7092C28.8846 30.8971 29.4418 29.855 29.6604 28.7202C29.9478 27.1915 29.2522 26.0163 27.9695 25.134Z" fill="currentColor"/>
<path d="M21.1278 18.5297H23.0289C23.3898 18.5294 23.7358 18.3859 23.9909 18.1307C24.2461 17.8756 24.3896 17.5296 24.3899 17.1688V14.3005C24.3899 14.2412 24.4135 14.1843 24.4554 14.1424C24.4974 14.1004 24.5542 14.0769 24.6136 14.0769H27.4821C27.843 14.0766 28.1891 13.9331 28.4445 13.678C28.6998 13.4229 28.8436 13.0769 28.8442 12.716V10.815C28.8436 10.454 28.6998 10.108 28.4445 9.85293C28.1891 9.59781 27.843 9.45437 27.4821 9.45407H24.6136C24.5542 9.45407 24.4974 9.43051 24.4554 9.38857C24.4135 9.34663 24.3899 9.28974 24.3899 9.23043V6.31072C24.3905 6.13152 24.3557 5.95396 24.2876 5.78821C24.2195 5.62246 24.1194 5.47176 23.993 5.34474C23.8666 5.21771 23.7164 5.11686 23.5509 5.04794C23.3855 4.97903 23.2081 4.94341 23.0289 4.94312H21.1278C20.9485 4.94326 20.7709 4.97877 20.6054 5.04762C20.4398 5.11647 20.2895 5.2173 20.1629 5.34434C20.0364 5.47138 19.9362 5.62213 19.868 5.78795C19.7998 5.95378 19.7651 6.13142 19.7656 6.31072V9.22931C19.7656 9.28862 19.7421 9.34551 19.7001 9.38745C19.6582 9.42939 19.6013 9.45295 19.542 9.45295H16.6735C16.3126 9.45325 15.9666 9.59672 15.7115 9.85188C15.4563 10.107 15.3128 10.453 15.3125 10.8138V12.7148C15.3128 13.0757 15.4563 13.4217 15.7115 13.6768C15.9666 13.932 16.3126 14.0754 16.6735 14.0757H19.542C19.6013 14.0757 19.6582 14.0993 19.7001 14.1412C19.7421 14.1832 19.7656 14.2401 19.7656 14.2994V17.1688C19.7659 17.5298 19.9096 17.8759 20.165 18.1311C20.4204 18.3863 20.7667 18.5297 21.1278 18.5297Z" fill="currentColor"/>
</g>
<defs>
<clipPath id="clip0_7151_150566">
<rect width="29.4521" height="37.6712" fill="white" transform="translate(0.273438 0.664307)"/>
</clipPath>
</defs>
</svg>
