<svg xmlns="http://www.w3.org/2000/svg" width="50" height="51" viewBox="0 0 50 51" fill="none">
<path fill-rule="evenodd" clip-rule="evenodd" d="M34.8528 29.5895L21.5676 16.3307C21.3344 16.0969 20.9535 16.0969 20.7191 16.3319L18.3476 18.7096C18.1132 18.9446 18.1132 19.3267 18.3476 19.5617L19.1241 20.3414L15.3848 24.0906C12.9677 26.514 12.8475 30.3476 14.9641 32.9482L11.1348 36.7877C10.9004 37.0227 10.9004 37.4047 11.1348 37.6397L13.5387 40.05C13.6565 40.1681 13.8103 40.226 13.9642 40.226C14.118 40.226 14.2718 40.1669 14.3897 40.05L18.2191 36.2105C19.4306 37.2011 20.897 37.7277 22.379 37.7277C24.0713 37.7277 25.7649 37.0818 27.0534 35.7899L30.7926 32.0408L31.5691 32.8193C31.801 33.0518 32.1784 33.0543 32.4128 32.8253L34.8479 30.4476C34.9633 30.3343 35.0282 30.18 35.0294 30.0198C35.0307 29.8595 34.9658 29.7027 34.8528 29.5895Z" fill="currentColor"/>
<path fill-rule="evenodd" clip-rule="evenodd" d="M32.003 12.1303C31.1099 11.2352 29.6538 11.2352 28.7607 12.1303L23.875 17.0202L27.1317 20.2652L32.009 15.3826C32.4423 14.9489 32.6813 14.3734 32.6813 13.7594C32.6813 13.1455 32.4424 12.57 32.003 12.1303Z" fill="currentColor"/>
<path fill-rule="evenodd" clip-rule="evenodd" d="M39.0455 19.1765C38.1508 18.2797 36.6921 18.2797 35.7974 19.1765L30.9199 24.0589L34.1836 27.3102L39.0527 22.4362C39.4868 22.0017 39.7262 21.425 39.7262 20.8099C39.7262 20.1949 39.4868 19.6171 39.0455 19.1765Z" fill="currentColor"/>
</svg>