<svg width="21" height="21" viewBox="0 0 21 21" fill="none" xmlns="http://www.w3.org/2000/svg">
<path d="M8.11335 7.63864H7.26456C7.2408 7.63869 7.21726 7.63394 7.19529 7.62464C7.17332 7.61535 7.15337 7.6017 7.13656 7.58449C7.11976 7.56727 7.10644 7.54682 7.09737 7.52431C7.0883 7.50181 7.08366 7.47769 7.08371 7.45334V6.5668C7.0836 6.48857 7.0532 6.41358 6.99917 6.3583C6.94514 6.30302 6.87191 6.27197 6.79555 6.27197H6.23291C6.15655 6.27197 6.08332 6.30302 6.02929 6.3583C5.97527 6.41358 5.94486 6.48857 5.94475 6.5668V7.45334C5.94481 7.47769 5.94016 7.50181 5.93109 7.52431C5.92202 7.54682 5.9087 7.56727 5.8919 7.58449C5.8751 7.6017 5.85514 7.61535 5.83317 7.62464C5.81121 7.63394 5.78767 7.63869 5.7639 7.63864H4.91511C4.83872 7.63875 4.76549 7.66989 4.71147 7.72523C4.65745 7.78058 4.62706 7.85561 4.62695 7.93388V8.51035C4.62706 8.58862 4.65745 8.66366 4.71147 8.719C4.76549 8.77434 4.83872 8.80548 4.91511 8.80559H5.7635C5.78726 8.80554 5.81081 8.81029 5.83277 8.81959C5.85474 8.82888 5.8747 8.84253 5.8915 8.85975C5.9083 8.87696 5.92162 8.89741 5.93069 8.91992C5.93976 8.94242 5.9444 8.96654 5.94435 8.99089V9.86055C5.94446 9.93882 5.97485 10.0138 6.02887 10.0692C6.08288 10.1245 6.15612 10.1557 6.23251 10.1558H6.79515C6.87154 10.1557 6.94478 10.1245 6.99879 10.0692C7.05281 10.0138 7.0832 9.93882 7.08331 9.86055V8.9913C7.08326 8.96695 7.0879 8.94283 7.09697 8.92033C7.10604 8.89782 7.11936 8.87737 7.13616 8.86016C7.15297 8.84294 7.17292 8.82929 7.19489 8.82C7.21685 8.81071 7.24039 8.80595 7.26416 8.80601H8.11335C8.18975 8.8059 8.26298 8.77476 8.31699 8.71941C8.37101 8.66407 8.4014 8.58904 8.40151 8.51077V7.93429C8.40151 7.85595 8.37116 7.78081 8.31714 7.72538C8.26311 7.66994 8.18982 7.63875 8.11335 7.63864Z" fill="#E10098"/>
<path d="M17.8642 12.5684C17.8642 12.052 17.8703 11.5357 17.8606 11.0197C17.8506 10.4704 17.4937 10.1176 16.9632 10.1138C16.6079 10.1138 16.2523 10.1052 15.8974 10.1176C15.7475 10.1229 15.6864 10.0714 15.6434 9.92608C15.3444 8.92054 15.0373 7.91746 14.7307 6.91398C14.5527 6.33174 14.0877 5.9772 13.5049 5.97638C12.6977 5.97638 11.8901 5.97638 11.0823 5.97638C10.6648 5.97638 10.3718 6.15385 10.2355 6.47298V4.92348C10.2355 4.78151 10.1805 4.64536 10.0825 4.54497C9.98454 4.44458 9.85165 4.38818 9.71309 4.38818H3.36322C3.22465 4.38818 3.09176 4.44458 2.99378 4.54497C2.8958 4.64536 2.84076 4.78151 2.84076 4.92348V10.3642C2.8282 10.4443 2.82202 10.5252 2.82227 10.6063C2.82227 11.7044 2.82227 12.8031 2.82227 13.9025V14.113C3.39858 14.113 3.95279 14.1163 4.507 14.1055C4.54478 14.1055 4.60506 14.0018 4.6127 13.9408C4.76783 12.7195 5.7822 11.7473 6.98184 11.6761C8.21725 11.6036 9.33089 12.4375 9.61784 13.6526C9.6524 13.7992 9.67491 13.9491 9.70304 14.0985C10.3244 14.0985 9.97271 14.1043 10.5872 14.1043V14.0985H10.9738C11.3355 12.5614 12.1252 11.7634 13.3631 11.6786C13.9093 11.6354 14.454 11.7795 14.9115 12.0883C15.6225 12.5631 15.9966 13.2524 16.0903 14.1138H16.2635C16.9937 14.1138 17.136 14.1175 17.8658 14.1097C17.8658 14.1097 17.8642 12.6009 17.8642 12.5684ZM8.76302 8.51083C8.76281 8.68728 8.69433 8.85645 8.57259 8.98125C8.45085 9.10606 8.28578 9.17633 8.11357 9.17666H7.44562V9.86061C7.44541 10.0371 7.37687 10.2064 7.25505 10.3312C7.13322 10.456 6.96805 10.5262 6.79577 10.5264H6.23312C6.14767 10.5265 6.06304 10.5094 5.98406 10.476C5.90508 10.4426 5.83329 10.3936 5.7728 10.3318C5.7123 10.2699 5.66429 10.1965 5.63149 10.1157C5.59869 10.0348 5.58176 9.94815 5.58165 9.86061V9.17666H4.91532C4.74303 9.17644 4.57786 9.10622 4.45604 8.9814C4.33421 8.85658 4.26568 8.68735 4.26546 8.51083V7.93435C4.26568 7.75782 4.33421 7.58859 4.45604 7.46377C4.57786 7.33895 4.74303 7.26873 4.91532 7.26851H5.58165V6.56851C5.58197 6.39205 5.65056 6.22293 5.77237 6.0982C5.89418 5.97347 6.05929 5.9033 6.23151 5.90309H6.79416C6.96638 5.9033 7.13149 5.97347 7.2533 6.0982C7.37511 6.22293 7.4437 6.39205 7.44402 6.56851V7.26851H8.11357C8.28585 7.26873 8.45102 7.33895 8.57285 7.46377C8.69467 7.58859 8.76321 7.75782 8.76342 7.93435L8.76302 8.51083Z" fill="#E50695"/>
<path d="M14.4508 9.29664C14.4007 9.13193 14.3506 8.9664 14.3005 8.80005C14.1397 8.2668 13.9717 7.71544 13.8013 7.17438C13.7209 6.92114 13.5111 6.77002 13.2387 6.77002H13.2358C12.8721 6.77002 12.5024 6.77002 12.1443 6.77002H11.4563C11.4208 6.77056 11.3854 6.77428 11.3506 6.78114L11.3253 6.78567C11.2687 6.79362 11.2169 6.82227 11.1794 6.86632C11.1418 6.91037 11.1211 6.96685 11.1211 7.02532V9.4177C11.1211 9.48192 11.146 9.5435 11.1903 9.58891C11.2346 9.63431 11.2947 9.65982 11.3574 9.65982H14.2217C14.2811 9.65991 14.3385 9.63703 14.3822 9.59574C14.4259 9.55445 14.4528 9.49779 14.4576 9.43705C14.4573 9.43308 14.4573 9.42909 14.4576 9.42511C14.4648 9.38231 14.4625 9.33839 14.4508 9.29664Z" fill="white"/>
<path d="M13.5761 12.2715C13.1873 12.2691 12.8065 12.3849 12.482 12.6044C12.1574 12.8238 11.9038 13.137 11.7531 13.5043C11.6024 13.8716 11.5615 14.2764 11.6356 14.6675C11.7096 15.0586 11.8953 15.4184 12.169 15.7013C12.4428 15.9842 12.7923 16.1775 13.1734 16.2567C13.5545 16.336 13.9499 16.2975 14.3097 16.1463C14.6694 15.9951 14.9772 15.7379 15.1942 15.4073C15.4112 15.0767 15.5275 14.6876 15.5285 14.2892C15.5285 13.7571 15.3234 13.2465 14.9577 12.8686C14.592 12.4907 14.0955 12.2761 13.5761 12.2715ZM13.558 14.9003C13.4789 14.8996 13.4008 14.8829 13.328 14.8511C13.2552 14.8194 13.1893 14.7732 13.134 14.7153C13.0787 14.6574 13.0351 14.5888 13.0057 14.5136C12.9763 14.4383 12.9618 14.3579 12.9628 14.2768C12.9638 14.1957 12.9804 14.1156 13.0116 14.0411C13.0428 13.9665 13.0881 13.899 13.1448 13.8424C13.2015 13.7858 13.2685 13.7411 13.342 13.711C13.4155 13.6809 13.4941 13.666 13.5733 13.667C13.6525 13.668 13.7306 13.685 13.8034 13.717C13.8762 13.749 13.9421 13.7954 13.9973 13.8535C14.0526 13.9115 14.0962 13.9802 14.1255 14.0555C14.1549 14.1309 14.1695 14.2114 14.1685 14.2925C14.166 14.4559 14.1003 14.6117 13.9858 14.7256C13.8714 14.8396 13.7176 14.9024 13.558 14.9003Z" fill="#E10098"/>
<path d="M7.16957 12.2732C6.90929 12.269 6.65077 12.3178 6.40905 12.4168C6.16733 12.5158 5.94722 12.663 5.76153 12.8499C5.57584 13.0369 5.42825 13.2597 5.32736 13.5056C5.22647 13.7515 5.17428 14.0155 5.17383 14.2822C5.17338 14.5489 5.22467 14.8131 5.32473 15.0593C5.42478 15.3055 5.57161 15.5289 5.75666 15.7165C5.94172 15.9041 6.16132 16.0521 6.40271 16.152C6.64409 16.2519 6.90244 16.3016 7.16274 16.2983C8.24584 16.3024 9.13 15.3882 9.12517 14.2699C9.11981 13.7408 8.91184 13.2351 8.54606 12.8616C8.18028 12.4882 7.68595 12.2768 7.16957 12.2732ZM7.15671 14.9024C7.07762 14.9022 6.99935 14.8859 6.92645 14.8545C6.85354 14.8231 6.78746 14.7772 6.73204 14.7193C6.67662 14.6615 6.63297 14.593 6.60363 14.5177C6.57429 14.4425 6.55983 14.362 6.56111 14.281C6.56143 14.1999 6.57733 14.1196 6.60792 14.0448C6.63851 13.97 6.68318 13.9021 6.73938 13.845C6.79558 13.7878 6.86222 13.7426 6.93548 13.7119C7.00874 13.6811 7.08719 13.6655 7.16636 13.6658C7.32605 13.6695 7.47806 13.7367 7.5901 13.8534C7.70214 13.97 7.76538 14.1268 7.76638 14.2905C7.76384 14.4542 7.6984 14.6102 7.58426 14.7248C7.47012 14.8393 7.31649 14.9031 7.15671 14.9024Z" fill="#E10098"/>
</svg>
