<svg xmlns="http://www.w3.org/2000/svg" width="50" height="51" viewBox="0 0 50 51" fill="none">
<path fill-rule="evenodd" clip-rule="evenodd" d="M29.3768 25.1575L31.4075 23.1684C32.8746 23.7389 34.5303 23.7034 35.974 23.062C36.3285 22.9045 36.4133 22.4487 36.1381 22.179L32.5217 18.6368C32.0824 18.2064 32.0824 17.5087 32.5217 17.0783L36.1343 13.5397C36.4113 13.2683 36.3261 12.8091 35.9692 12.6509C33.8208 11.6987 31.2044 12.0874 29.4384 13.8172C27.7797 15.4419 27.3331 17.8185 28.098 19.8484L26.0273 21.8767L29.3768 25.1575Z" fill="currentColor"/>
<path fill-rule="evenodd" clip-rule="evenodd" d="M25.9814 22.4672L23.1922 19.678L19.8633 23.007L22.6525 25.7961L25.9814 29.1251L36.1789 39.3225C36.3245 39.4682 36.5154 39.541 36.7063 39.541C36.8972 39.541 37.088 39.4682 37.2336 39.3225L39.5078 37.0484C39.7991 36.7571 39.7991 36.2849 39.5078 35.9936L29.3104 25.7961L25.9814 22.4672Z" fill="currentColor"/>
<path fill-rule="evenodd" clip-rule="evenodd" d="M37.5178 15.7387L34.4312 18.5656C34.1844 18.7916 34.1844 19.158 34.4312 19.384L36.8102 21.5628C37.0758 21.806 37.5156 21.7866 37.7488 21.517C39.1452 19.9025 39.4094 17.7359 38.5419 15.9122C38.3648 15.5401 37.8312 15.4516 37.5178 15.7387Z" fill="currentColor"/>
<path fill-rule="evenodd" clip-rule="evenodd" d="M15.2289 29.6136L18.7846 33.1178C19.2167 33.5436 19.2167 34.2339 18.7846 34.6596L15.2325 38.1602C14.9602 38.4286 15.0439 38.883 15.3949 39.0394C17.5073 39.9813 20.08 39.5968 21.8164 37.8856C23.4415 36.2841 23.8832 33.9442 23.1424 31.9409L25.3423 29.7729L22.049 26.5273L19.9017 28.6435C18.4539 28.0703 16.8168 28.1025 15.3902 28.7402C15.0416 28.896 14.9583 29.347 15.2289 29.6136Z" fill="currentColor"/>
<path fill-rule="evenodd" clip-rule="evenodd" d="M13.6209 30.853C12.2246 32.4675 11.9603 34.6341 12.8278 36.4577C13.0048 36.8298 13.5385 36.9183 13.8519 36.6313L16.9385 33.8044C17.1853 33.5784 17.1853 33.2119 16.9385 32.986L14.5596 30.8072C14.294 30.5639 13.8541 30.5833 13.6209 30.853Z" fill="currentColor"/>
<path fill-rule="evenodd" clip-rule="evenodd" d="M15.2579 25.5647C15.628 25.9349 16.2282 25.9349 16.5983 25.5647L16.777 25.386C17.1472 25.0159 17.1472 24.4157 16.777 24.0456L16.4196 23.6882L17.1234 22.9844L13.817 19.678L13.1132 20.3817L12.7558 20.0243C12.3856 19.6541 11.7855 19.6541 11.4153 20.0243L11.2366 20.203C10.8664 20.5732 10.8664 21.1733 11.2366 21.5434L15.2579 25.5647Z" fill="currentColor"/>
<path fill-rule="evenodd" clip-rule="evenodd" d="M19.8633 13.9352L23.1035 16.9384C26.8391 14.6314 28.9273 16.5665 26.0555 13.9047C24.0694 12.0638 21.5614 12.9349 19.8633 13.9352Z" fill="currentColor"/>
<path fill-rule="evenodd" clip-rule="evenodd" d="M19.1396 13.7815C18.961 13.603 18.727 13.5137 18.4929 13.5137C18.2588 13.5137 18.0248 13.603 17.8462 13.7815L13.9661 17.6615C13.609 18.0187 13.609 18.5977 13.9661 18.9549L14.311 19.2998L17.5013 22.49L17.8462 22.8348C18.0247 23.0134 18.2588 23.1027 18.4928 23.1027C18.5494 23.1027 18.606 23.0974 18.6618 23.0869C18.7924 23.0625 18.9188 23.0095 19.0308 22.9279C19.0688 22.9001 19.1052 22.8692 19.1395 22.8349L19.3027 22.6717L22.6333 19.3412L22.8973 19.0772L23.0196 18.9549C23.0683 18.9062 23.1101 18.8532 23.1456 18.7973C23.3698 18.4438 23.328 17.97 23.0196 17.6616L22.644 17.286L19.4808 14.1228L19.1396 13.7815Z" fill="currentColor"/>
</svg>