<svg width="21" height="21" viewBox="0 0 21 21" fill="none" xmlns="http://www.w3.org/2000/svg">
<path d="M12.4053 16.4966C13.1463 16.1254 13.7718 15.5462 14.2109 14.8249C14.6499 14.1036 14.8848 13.2692 14.8889 12.4165V11.8731C14.8862 11.165 14.724 10.4674 14.4153 9.83561C14.1066 9.20387 13.6598 8.65548 13.1106 8.23405C13.101 8.2266 13.0901 8.2212 13.0785 8.21815C13.0528 8.21111 13.029 8.19823 13.0087 8.18044C12.9885 8.16265 12.9724 8.14041 12.9615 8.11533C12.807 7.7637 12.5368 7.48055 12.1991 7.31659C12.1765 7.30567 12.1563 7.28998 12.1399 7.27053C12.1234 7.25108 12.111 7.22829 12.1035 7.20362C12.0961 7.17895 12.0936 7.15293 12.0964 7.12723C12.0991 7.10152 12.107 7.07669 12.1195 7.05432L12.435 6.48805C12.4368 6.48517 12.4384 6.48219 12.4398 6.4791L12.7313 5.95009C12.7962 5.8336 12.8138 5.69521 12.7803 5.5653C12.7467 5.43538 12.6648 5.32456 12.5525 5.25715L12.341 5.13098L12.7006 4.48523C12.724 4.44358 12.762 4.41291 12.8067 4.39967C12.8514 4.38643 12.8993 4.39163 12.9404 4.4142C13.0353 4.46848 13.1469 4.48237 13.2515 4.45294C13.3057 4.43803 13.3564 4.41219 13.4008 4.3769C13.4453 4.34161 13.4825 4.29756 13.5105 4.2473L13.5857 4.11219C13.6138 4.06204 13.632 4.00665 13.6393 3.9492C13.6466 3.89175 13.6429 3.83336 13.6284 3.77739C13.6142 3.72133 13.5893 3.66877 13.5552 3.62279C13.5211 3.57682 13.4785 3.53836 13.4299 3.50966L11.5063 2.35774C11.4085 2.29939 11.2923 2.28361 11.1833 2.31387C11.0742 2.34414 10.9812 2.41797 10.9247 2.51918L10.8494 2.65429C10.7945 2.75367 10.7788 2.8712 10.8056 2.9823C10.8324 3.0934 10.8996 3.18946 10.9933 3.25036C11.0332 3.27571 11.062 3.31626 11.0735 3.36333C11.085 3.41039 11.0782 3.46024 11.0546 3.5022L10.6941 4.14795L10.5378 4.05407C10.4253 3.98708 10.2918 3.96901 10.1665 4.00383C10.0412 4.03866 9.93436 4.12353 9.86938 4.23985L7.05442 9.29953C7.02227 9.35719 7.00141 9.42084 6.99302 9.48686C6.98464 9.55287 6.98889 9.61995 7.00555 9.68426C7.0222 9.74857 7.05093 9.80885 7.09008 9.86165C7.12924 9.91445 7.17805 9.95873 7.23374 9.99197L8.97997 11.0351L8.98668 11.0386L9.24511 11.1931C9.3008 11.2264 9.36228 11.248 9.42604 11.2567C9.48979 11.2654 9.55458 11.261 9.61669 11.2437C9.67881 11.2265 9.73703 11.1967 9.78804 11.1562C9.83905 11.1156 9.88184 11.065 9.91397 11.0073L10.3963 10.1415C10.424 10.1019 10.4657 10.0751 10.5123 10.0671C10.5589 10.0591 10.6066 10.0705 10.6452 10.0988C10.9072 10.2904 11.2201 10.3932 11.5408 10.3928C11.5729 10.3928 11.6046 10.3928 11.6367 10.3894C11.6829 10.3868 11.7284 10.4026 11.7638 10.4336C12.3017 10.9065 12.6105 11.5716 12.6105 12.2571V12.572C12.6105 13.559 11.9872 14.4571 11.0196 14.8594C10.9803 14.8757 10.9367 14.8773 10.8964 14.8639C10.6797 14.7905 10.4531 14.7531 10.2251 14.7531C9.10798 14.7531 8.1922 15.6219 8.14137 16.7306C8.1394 16.768 8.12671 16.804 8.10494 16.8339H6.7092C6.59263 16.8341 6.48088 16.8821 6.39845 16.9675C6.31602 17.0529 6.26966 17.1687 6.26953 17.2894V18.3639C6.26966 18.4846 6.31602 18.6004 6.39845 18.6858C6.48088 18.7712 6.59263 18.8192 6.7092 18.8194H13.8614C13.978 18.8192 14.0898 18.7712 14.1722 18.6858C14.2546 18.6004 14.301 18.4846 14.3011 18.3639V17.2914C14.301 17.1706 14.2546 17.0549 14.1722 16.9695C14.0898 16.8841 13.978 16.836 13.8614 16.8359H12.3444C12.3224 16.8063 12.3097 16.7704 12.308 16.7331C12.308 16.7232 12.308 16.7127 12.308 16.7028V16.6789C12.3047 16.642 12.3122 16.6048 12.3295 16.5723C12.3469 16.5398 12.3733 16.5134 12.4053 16.4966ZM9.48053 7.28629L8.267 9.39292C8.25003 9.42524 8.22694 9.45367 8.1991 9.47651C8.17127 9.49936 8.13927 9.51614 8.10503 9.52587C8.07078 9.53559 8.03499 9.53804 7.9998 9.53308C7.96462 9.52813 7.93076 9.51586 7.90027 9.49702C7.86977 9.47817 7.84326 9.45314 7.82233 9.42343C7.80139 9.39371 7.78647 9.35992 7.77845 9.32408C7.77043 9.28825 7.76948 9.2511 7.77565 9.21487C7.78182 9.17865 7.795 9.14408 7.81438 9.11326L9.02647 7.00514C9.06235 6.94307 9.12053 6.89827 9.18825 6.88058C9.25597 6.86289 9.3277 6.87376 9.38769 6.91079C9.44769 6.94782 9.49106 7.00799 9.50828 7.07811C9.52551 7.14823 9.51518 7.22256 9.47957 7.2848L9.48053 7.28629ZM11.5782 9.35815C11.4676 9.35825 11.3595 9.32436 11.2675 9.26078C11.1755 9.1972 11.1037 9.10677 11.0614 9.00095C11.019 8.89513 11.0078 8.77866 11.0293 8.66627C11.0509 8.55389 11.1041 8.45064 11.1822 8.36959C11.2604 8.28854 11.36 8.23333 11.4685 8.21094C11.5769 8.18855 11.6894 8.19999 11.7916 8.24382C11.8937 8.28764 11.9811 8.36187 12.0425 8.45713C12.104 8.55239 12.1368 8.66439 12.1368 8.77896C12.1368 8.85506 12.1223 8.93042 12.0942 9.00072C12.0661 9.07102 12.0248 9.1349 11.9729 9.18868C11.9209 9.24247 11.8592 9.28513 11.7913 9.3142C11.7235 9.34328 11.6507 9.35821 11.5772 9.35815H11.5782Z" fill="#E10098"/>
</svg>
