<svg width="50" height="51" viewBox="0 0 50 51" fill="none" xmlns="http://www.w3.org/2000/svg">
<path fill-rule="evenodd" clip-rule="evenodd" d="M39.3705 35.0111C39.3566 34.8287 39.2757 34.6534 39.143 34.5226L27.6755 22.971C28.1267 21.9003 28.3648 20.7409 28.3648 19.5427C28.3648 17.2009 27.4581 14.9976 25.817 13.3403C24.1735 11.6864 21.9878 10.7739 19.6618 10.7739C17.3346 10.7739 15.1527 11.6867 13.5066 13.3417C10.1102 16.761 10.1095 22.3227 13.506 25.7418C15.152 27.4003 17.3347 28.3136 19.6607 28.3136C20.8505 28.3136 21.9986 28.0718 23.064 27.6167L26.8313 31.4145C26.988 31.5704 27.1947 31.6532 27.4177 31.6458L29.4708 31.5733L29.4038 33.6465C29.3974 33.8652 29.4758 34.0781 29.6331 34.2338C29.7847 34.3894 29.9978 34.474 30.2139 34.4651L32.2745 34.3942L32.2006 36.4652C32.1941 36.6841 32.2776 36.8973 32.4292 37.053C32.5859 37.2087 32.7685 37.2923 33.0156 37.2847L35.0711 37.2143L35.0023 39.2856C34.9902 39.5153 35.0863 39.7363 35.2493 39.8931C35.3997 40.0309 35.5874 40.1051 35.7852 40.1051C35.8136 40.1051 35.8427 40.1039 35.8717 40.1013L39.0236 39.7487C39.4496 39.7019 39.7598 39.319 39.7232 38.8891L39.3705 35.0111ZM18.6108 18.4838C17.6427 19.458 16.0775 19.458 15.1114 18.4838C14.1439 17.5093 14.1439 15.9329 15.1114 14.9593C16.0775 13.9857 17.6421 13.9848 18.6108 14.959C19.577 15.9325 19.5764 17.5099 18.6108 18.4838ZM36.6799 35.2756C36.5649 35.3915 36.4107 35.4493 36.261 35.4493C36.1112 35.4493 35.9569 35.3914 35.842 35.2756L26.085 25.4441C26.3566 25.1491 26.6037 24.8385 26.828 24.5119L36.6798 34.434C36.9099 34.6658 36.9099 35.0439 36.6799 35.2756Z" fill="currentColor"/>
</svg>
