<svg width="21" height="21" viewBox="0 0 21 21" fill="none" xmlns="http://www.w3.org/2000/svg">
<path d="M17.5061 8.54093C17.4573 8.49011 16.6109 7.56267 15.5486 7.22421C15.4427 7.21303 13.2879 7.01179 12.6857 9.33523C12.6709 9.39194 12.6386 9.44201 12.5938 9.47773C12.549 9.51346 12.4941 9.53285 12.4376 9.53292C12.415 9.53288 12.3925 9.5298 12.3707 9.52377C12.3049 9.50531 12.2488 9.46043 12.2147 9.39898C12.1806 9.33753 12.1714 9.26452 12.189 9.19599C12.5656 7.7446 13.4769 7.13985 14.1753 6.88779C14.517 6.76624 14.8741 6.69775 15.2351 6.68452C14.9279 5.5665 14.0014 3.46006 11.348 3.16531C11.2932 3.15993 11.2381 3.17203 11.19 3.19998C11.142 3.22793 11.1032 3.27043 11.0789 3.32183C11.0553 3.37382 11.0476 3.43215 11.0571 3.48883C11.0665 3.5455 11.0926 3.59776 11.1317 3.63843C11.4056 3.92099 12.1148 4.7905 12.1084 5.40134C12.1101 5.47221 12.0971 5.54263 12.0704 5.60786C12.0437 5.67308 12.0039 5.73158 11.9536 5.77943C11.4467 6.27441 11.3392 7.02094 11.349 7.6206C10.1983 6.37249 8.15493 5.23211 4.63512 5.90394C4.58212 5.91418 4.53336 5.94096 4.49533 5.98071C4.4573 6.02047 4.43179 6.07133 4.42219 6.12653C4.41265 6.18204 4.41937 6.23925 4.4415 6.29073C4.46362 6.34221 4.50012 6.38557 4.54624 6.41518C4.55601 6.42128 5.5572 7.09209 5.73058 9.67978C5.90054 12.2248 8.10707 13.5303 9.9102 13.789C9.30118 14.1595 8.14028 14.6433 6.22873 14.6433C6.16087 14.6432 6.09555 14.6701 6.04608 14.7185C5.46294 15.2882 5.18456 15.9066 5.21826 16.5571C5.27638 17.6685 6.23899 18.4344 6.27953 18.4669C6.32603 18.5027 6.38234 18.5221 6.4402 18.5223C6.45908 18.5223 6.4779 18.5202 6.49637 18.5162C8.57202 18.0497 9.39935 16.7477 9.64891 16.2395L11.0071 16.4057C11.3309 16.4495 11.6575 16.4665 11.9839 16.4565C15.1516 16.3299 15.8358 13.8906 15.9618 12.4474C16.016 11.8243 15.9237 11.2069 15.8265 10.6845C15.7523 10.2891 15.808 9.96793 15.996 9.70316C16.4116 9.11823 17.3342 9.00999 17.3435 9.00897C17.3928 9.00339 17.4397 8.98363 17.4789 8.95191C17.5181 8.92018 17.548 8.87775 17.5653 8.82934C17.5826 8.78094 17.5867 8.72847 17.577 8.67781C17.5673 8.62714 17.5443 8.58028 17.5105 8.54246L17.5061 8.54093ZM15.0265 8.45047C14.9666 8.45047 14.9079 8.43196 14.858 8.39729C14.8082 8.36261 14.7693 8.31332 14.7463 8.25566C14.7234 8.19799 14.7174 8.13454 14.7291 8.07332C14.7408 8.0121 14.7697 7.95587 14.8121 7.91174C14.8545 7.8676 14.9085 7.83754 14.9674 7.82537C15.0262 7.81319 15.0872 7.81944 15.1426 7.84333C15.198 7.86721 15.2454 7.90766 15.2787 7.95956C15.312 8.01146 15.3298 8.07247 15.3298 8.13489C15.3298 8.21859 15.2979 8.29886 15.241 8.35804C15.1841 8.41722 15.107 8.45047 15.0265 8.45047Z" fill="#E10098"/>
</svg>
