<svg width="30" height="28" viewBox="0 0 30 28" fill="none" xmlns="http://www.w3.org/2000/svg">
<path d="M14.6373 5.50951C14.8789 5.50951 15.1107 5.41359 15.2816 5.24282C15.4526 5.07204 15.5487 4.8404 15.549 4.59877V1.68421C15.5414 1.44755 15.4421 1.22311 15.2721 1.05837C15.102 0.893631 14.8745 0.801514 14.6378 0.801514C14.401 0.801514 14.1735 0.893631 14.0034 1.05837C13.8334 1.22311 13.7341 1.44755 13.7266 1.68421V4.59877C13.7268 4.84024 13.8228 5.07175 13.9936 5.24249C14.1643 5.41324 14.3958 5.50927 14.6373 5.50951Z" fill="currentColor"/>
<path d="M23.2701 5.50997C23.3897 5.50997 23.5081 5.48641 23.6186 5.44065C23.7291 5.39488 23.8295 5.32779 23.9141 5.24322C23.9987 5.15865 24.0658 5.05825 24.1115 4.94775C24.1573 4.83726 24.1809 4.71883 24.1809 4.59923V1.68467C24.1809 1.44312 24.0849 1.21147 23.9141 1.04068C23.7433 0.869879 23.5117 0.773926 23.2701 0.773926C23.0286 0.773926 22.7969 0.869879 22.6261 1.04068C22.4553 1.21147 22.3594 1.44312 22.3594 1.68467V4.59923C22.3596 4.8407 22.4556 5.07221 22.6264 5.24295C22.7971 5.4137 23.0286 5.50973 23.2701 5.50997Z" fill="currentColor"/>
<path d="M6.0084 5.50997C6.24987 5.50973 6.48138 5.4137 6.65212 5.24295C6.82287 5.07221 6.9189 4.8407 6.91914 4.59923V1.68467C6.91914 1.44312 6.82319 1.21147 6.65239 1.04068C6.48159 0.869879 6.24994 0.773926 6.0084 0.773926C5.76685 0.773926 5.5352 0.869879 5.36441 1.04068C5.19361 1.21147 5.09766 1.44312 5.09766 1.68467V4.59923C5.09766 4.84077 5.19361 5.07242 5.36441 5.24322C5.5352 5.41402 5.76685 5.50997 6.0084 5.50997Z" fill="currentColor"/>
<path d="M3.97461 2.57959V4.59814C3.98593 5.12979 4.20497 5.63631 4.58496 6.0083C4.96483 6.38003 5.47534 6.58827 6.00684 6.58838C6.53851 6.58838 7.04971 6.38018 7.42969 6.0083C7.80968 5.63631 8.02872 5.12979 8.04004 4.59814V2.57959H12.6064V4.59814C12.6178 5.12979 12.8368 5.63631 13.2168 6.0083C13.5968 6.38026 14.1079 6.58838 14.6396 6.58838C15.1712 6.58834 15.6816 6.38001 16.0615 6.0083C16.4415 5.63631 16.6606 5.12979 16.6719 4.59814V2.57959H21.2402V4.59814C21.2516 5.12979 21.4706 5.63631 21.8506 6.0083C22.2305 6.38002 22.7409 6.58832 23.2725 6.58838C23.8042 6.58838 24.3153 6.38024 24.6953 6.0083C25.0753 5.63631 25.2943 5.12979 25.3057 4.59814V2.57959H25.582C26.4988 2.58063 27.378 2.94505 28.0264 3.59326C28.6748 4.2417 29.04 5.12154 29.041 6.03857V24.1128C29.04 25.0298 28.6748 25.9097 28.0264 26.5581C27.378 27.2064 26.4989 27.5707 25.582 27.5718H3.73242C2.81539 27.5708 1.93555 27.2065 1.28711 26.5581C0.638759 25.9097 0.274412 25.0298 0.273438 24.1128V6.03857C0.27441 5.12226 0.638592 4.24353 1.28613 3.59521C1.93377 2.94689 2.81214 2.58155 3.72852 2.57959H3.97461ZM13.7725 9.41064C13.2317 9.41138 12.7134 9.62692 12.3311 10.0093C11.9487 10.3916 11.7332 10.91 11.7324 11.4507V13.6011H9.6377C9.09715 13.6016 8.57852 13.8165 8.19629 14.1987C7.81434 14.5808 7.59923 15.0989 7.59863 15.6392V17.4048C7.59912 17.9453 7.81421 18.4638 8.19629 18.8462C8.57849 19.2286 9.09706 19.4441 9.6377 19.4448H11.7324V21.5396C11.7332 22.0802 11.9487 22.5987 12.3311 22.981C12.7134 23.3631 13.2319 23.5781 13.7725 23.5786H15.5381C16.0789 23.5781 16.5973 23.3626 16.9795 22.98C17.3618 22.5971 17.5764 22.0777 17.5762 21.5366V19.4419H19.6729C20.2134 19.4411 20.7311 19.2255 21.1133 18.8433C21.4955 18.4609 21.7105 17.9425 21.7109 17.4019V15.6372C21.7104 15.0966 21.4955 14.578 21.1133 14.1958C20.7311 13.8137 20.2132 13.5987 19.6729 13.5981H17.5762V11.4507C17.5757 10.91 17.3607 10.3917 16.9785 10.0093C16.5964 9.62704 16.0786 9.41145 15.5381 9.41064H13.7725ZM15.5381 10.5464C15.7777 10.5465 16.0073 10.6417 16.1768 10.811C16.3463 10.9806 16.4424 11.2108 16.4424 11.4507V14.1685C16.4424 14.2428 16.4569 14.3166 16.4854 14.3853C16.5138 14.454 16.5558 14.5162 16.6084 14.5688C16.661 14.6214 16.7233 14.6634 16.792 14.6919C16.8608 14.7204 16.9353 14.7349 17.0098 14.7349H19.6729C19.9125 14.7352 20.1421 14.8311 20.3115 15.0005C20.481 15.1699 20.5768 15.3996 20.5771 15.6392V17.4048C20.5769 17.6445 20.4811 17.8749 20.3115 18.0444C20.1421 18.2137 19.9124 18.3088 19.6729 18.3091H17.0098C16.8594 18.3091 16.7148 18.3688 16.6084 18.4751C16.502 18.5815 16.4424 18.726 16.4424 18.8765V21.5425C16.4424 21.7823 16.3463 22.0126 16.1768 22.1821C16.0073 22.3514 15.7776 22.4467 15.5381 22.4468H13.7725C13.5327 22.4468 13.3024 22.3517 13.1328 22.1821C12.9633 22.0126 12.8682 21.7823 12.8682 21.5425V18.8794C12.8682 18.8051 12.8536 18.7313 12.8252 18.6626C12.7967 18.5938 12.7548 18.5307 12.7021 18.478C12.6495 18.4254 12.5864 18.3835 12.5176 18.355C12.4489 18.3266 12.3751 18.312 12.3008 18.312H9.6377C9.39789 18.312 9.16762 18.2169 8.99805 18.0474C8.82848 17.8778 8.73341 17.6475 8.7334 17.4077V15.6421C8.73346 15.4023 8.82852 15.172 8.99805 15.0024C9.16761 14.8329 9.39793 14.7378 9.6377 14.7378L12.3008 14.7329C12.4512 14.7329 12.5958 14.6723 12.7021 14.5659C12.8083 14.4596 12.8681 14.3157 12.8682 14.1655V11.4507C12.8682 11.2109 12.9633 10.9806 13.1328 10.811C13.3024 10.6415 13.5326 10.5464 13.7725 10.5464H15.5381Z" fill="currentColor"/>
</svg>
