<svg xmlns="http://www.w3.org/2000/svg" width="50" height="51" viewBox="0 0 50 51" fill="none">
<path fill-rule="evenodd" clip-rule="evenodd" d="M25.6768 37.4195H37.6046V25.4917H25.8086L25.6768 37.4195ZM33.3342 30.2517C33.5065 30.3581 33.5574 30.5803 33.4481 30.7479L31.8991 33.1227C31.8284 33.2311 31.7035 33.2946 31.5717 33.2892C31.4398 33.2838 31.3209 33.2103 31.2597 33.0965C31.1986 32.9826 31.2045 32.8457 31.2753 32.7373L32.8243 30.3629C32.8768 30.2823 32.96 30.2254 33.0556 30.2045C33.1513 30.1837 33.2515 30.2006 33.3342 30.2517ZM29.0577 32.306L31.8651 28.393C31.9818 28.2302 32.2122 28.1903 32.3795 28.304C32.5468 28.4176 32.5877 28.6417 32.471 28.8045L29.6634 32.7175C29.5884 32.8241 29.4604 32.8833 29.3281 32.8726C29.1958 32.8619 29.0795 32.7829 29.0236 32.6657C28.9677 32.5486 28.9807 32.4112 29.0576 32.306H29.0577Z" fill="currentColor"/>
<path fill-rule="evenodd" clip-rule="evenodd" d="M37.6046 11.459H25.8228L25.6768 24.7901H37.6046V11.459Z" fill="currentColor"/>
<path fill-rule="evenodd" clip-rule="evenodd" d="M13.0469 37.4195H24.144L24.2731 25.4917H13.0469V37.4195Z" fill="currentColor"/>
<path fill-rule="evenodd" clip-rule="evenodd" d="M13.0469 24.7901H24.1338L24.2731 11.459H13.0469V24.7901ZM19.7246 14.9122C19.8908 15.021 19.94 15.2481 19.8345 15.4194L18.34 17.8469C18.2717 17.9577 18.1513 18.0226 18.0241 18.0171C17.8968 18.0116 17.7821 17.9365 17.7231 17.8201C17.6642 17.7037 17.6699 17.5638 17.7381 17.4529L19.2326 15.0255C19.3381 14.8542 19.5583 14.8035 19.7244 14.9122H19.7246ZM15.5982 17.0123L18.3072 13.012C18.4199 12.8456 18.6421 12.8048 18.8035 12.921C18.965 13.0372 19.0045 13.2664 18.8918 13.4328L16.1828 17.4331C16.1099 17.5407 15.9868 17.6001 15.8599 17.5889C15.733 17.5776 15.6216 17.4974 15.5676 17.3785C15.5137 17.2596 15.5253 17.12 15.5982 17.0123Z" fill="currentColor"/>
<path fill-rule="evenodd" clip-rule="evenodd" d="M24.7779 38.8228H11.6436V40.226H38.3058V38.8228H24.7818H24.7779Z" fill="currentColor"/>
</svg>