<svg width="18" height="22" viewBox="0 0 18 22" fill="none" xmlns="http://www.w3.org/2000/svg">
<path d="M17.8983 7.26181C17.833 7.19696 16.7027 6.01336 15.284 5.58143C15.1425 5.56716 12.2647 5.31034 11.4604 8.27549C11.4407 8.34786 11.3975 8.41176 11.3377 8.45735C11.2778 8.50294 11.2045 8.52769 11.1291 8.52777C11.0989 8.52772 11.0689 8.5238 11.0397 8.5161C10.9518 8.49254 10.8769 8.43527 10.8314 8.35684C10.7859 8.27842 10.7735 8.18525 10.7971 8.09779C11.3 6.24554 12.5171 5.47377 13.4498 5.15209C13.9063 4.99697 14.3832 4.90956 14.8652 4.89267C14.455 3.46587 13.2176 0.777649 9.67386 0.401493C9.60065 0.394634 9.52708 0.410064 9.46289 0.445739C9.3987 0.481414 9.34694 0.535646 9.31447 0.601244C9.28289 0.667597 9.2727 0.742034 9.28531 0.814363C9.29792 0.886692 9.33271 0.953377 9.38491 1.00529C9.75083 1.36588 10.6979 2.47554 10.6894 3.2551C10.6917 3.34554 10.6744 3.43541 10.6387 3.51865C10.603 3.60188 10.5498 3.67655 10.4827 3.73761C9.80562 4.3693 9.66212 5.32201 9.67517 6.08729C8.13843 4.49447 5.40935 3.03913 0.708479 3.89651C0.637688 3.90958 0.572572 3.94375 0.521777 3.99448C0.470981 4.04522 0.436912 4.11012 0.424092 4.18057C0.411349 4.25141 0.420333 4.32443 0.44988 4.39012C0.479427 4.45582 0.528168 4.51116 0.589766 4.54894C0.602811 4.55673 1.93995 5.41281 2.17151 8.7152C2.3985 11.9631 5.34543 13.6292 7.7536 13.9593C6.94022 14.4321 5.38979 15.0496 2.83682 15.0496C2.74618 15.0495 2.65894 15.0838 2.59287 15.1455C1.81407 15.8726 1.44228 16.6618 1.48728 17.492C1.5649 18.9103 2.85052 19.8877 2.90466 19.9292C2.96676 19.9749 3.04196 19.9997 3.11925 19.9999C3.14446 19.9999 3.16959 19.9973 3.19426 19.9921C5.96639 19.3968 7.07133 17.7352 7.40463 17.0866L9.21858 17.2987C9.65102 17.3546 10.0872 17.3763 10.5231 17.3636C14.7537 17.2021 15.6675 14.0891 15.8358 12.2472C15.9082 11.4521 15.7849 10.6641 15.6551 9.99738C15.556 9.49281 15.6303 9.08293 15.8815 8.74504C16.4365 7.99856 17.6687 7.86042 17.6811 7.85912C17.747 7.85199 17.8096 7.82678 17.8619 7.78629C17.9142 7.74581 17.9542 7.69165 17.9774 7.62988C18.0005 7.5681 18.0059 7.50115 17.993 7.43649C17.9801 7.37183 17.9493 7.31203 17.9041 7.26376L17.8983 7.26181ZM14.5867 7.14637C14.5066 7.14637 14.4283 7.12275 14.3617 7.0785C14.2951 7.03424 14.2432 6.97134 14.2125 6.89775C14.1818 6.82415 14.1738 6.74318 14.1895 6.66505C14.2051 6.58692 14.2437 6.51516 14.3003 6.45884C14.357 6.40251 14.4291 6.36415 14.5077 6.34861C14.5863 6.33307 14.6677 6.34105 14.7417 6.37153C14.8157 6.40202 14.879 6.45364 14.9235 6.51987C14.968 6.5861 14.9918 6.66397 14.9918 6.74362C14.9918 6.85044 14.9491 6.95288 14.8731 7.02841C14.7972 7.10394 14.6942 7.14637 14.5867 7.14637Z" fill="#E10098"/>
</svg>
