<svg width="24" height="24" viewBox="0 0 24 24" fill="none" xmlns="http://www.w3.org/2000/svg">
<path d="M6.54391 5C6.60391 5.89 6.75391 6.76 6.99391 7.59L5.79391 8.79C5.38391 7.59 5.12391 6.32 5.03391 5H6.54391ZM16.4039 17.02C17.2539 17.26 18.1239 17.41 19.0039 17.47V18.96C17.6839 18.87 16.4139 18.61 15.2039 18.21L16.4039 17.02ZM7.50391 3H4.00391C3.45391 3 3.00391 3.45 3.00391 4C3.00391 13.39 10.6139 21 20.0039 21C20.5539 21 21.0039 20.55 21.0039 20V16.51C21.0039 15.96 20.5539 15.51 20.0039 15.51C18.7639 15.51 17.5539 15.31 16.4339 14.94C16.3339 14.9 16.2239 14.89 16.1239 14.89C15.8639 14.89 15.6139 14.99 15.4139 15.18L13.2139 17.38C10.3839 15.93 8.06391 13.62 6.62391 10.79L8.82391 8.59C9.10391 8.31 9.18391 7.92 9.07391 7.57C8.70391 6.45 8.50391 5.25 8.50391 4C8.50391 3.45 8.05391 3 7.50391 3Z" fill="currentColor"/>
</svg>
