<svg width="24" height="25" viewBox="0 0 24 25" fill="none" xmlns="http://www.w3.org/2000/svg">
<path d="M20.01 15.7809C18.78 15.7809 17.59 15.5809 16.48 15.2209C16.13 15.1009 15.74 15.1909 15.47 15.4609L13.9 17.4309C11.07 16.0809 8.42 13.5309 7.01 10.6009L8.96 8.94088C9.23 8.66088 9.31 8.27088 9.2 7.92088C8.83 6.81088 8.64 5.62088 8.64 4.39088C8.64 3.85088 8.19 3.40088 7.65 3.40088H4.19C3.65 3.40088 3 3.64088 3 4.39088C3 13.6809 10.73 21.4009 20.01 21.4009C20.72 21.4009 21 20.7709 21 20.2209V16.7709C21 16.2309 20.55 15.7809 20.01 15.7809Z" fill="#3C68B0"/>
</svg>
