<svg width="38" height="25" viewBox="0 0 38 25" fill="none" xmlns="http://www.w3.org/2000/svg">
<g clip-path="url(#clip0_4315_253202)">
<path d="M6.53696 21.69C6.56219 21.6568 6.58053 21.6189 6.59089 21.5785C6.60124 21.5381 6.60341 21.496 6.59726 21.4547C6.54528 21.1101 6.4933 20.7665 6.44027 20.4219C6.31032 19.5724 6.1762 18.6937 6.05041 17.8306C6.01818 17.6047 5.94644 17.2851 5.67093 17.1018C5.463 16.9675 5.20413 16.9467 4.86833 17.0373C4.65 17.0966 4.34331 17.2091 4.20816 17.4954C4.073 17.7817 4.18112 18.0888 4.27469 18.2949C4.51589 18.8332 4.91927 19.6577 5.30186 20.3969C5.76762 21.2944 5.961 21.6296 6.09615 21.7504C6.12666 21.778 6.16352 21.7975 6.20344 21.8074C6.24335 21.8172 6.28508 21.8169 6.32487 21.8066C6.3662 21.8023 6.40624 21.7898 6.44267 21.7697C6.47909 21.7497 6.51115 21.7226 6.53696 21.69Z" fill="currentColor"/>
<path d="M37.4076 19.7691C37.4027 19.7161 37.3808 19.666 37.3452 19.6264C38.1187 17.6483 37.8224 12.6447 36.1392 10.6593C35.1952 9.74525 34.4311 9.49747 34.4311 9.49747L34.4924 9.49122L33.1898 6.87803C31.6428 4.21799 29.6789 0.812517 28.527 0.783366C26.6805 0.731311 13.502 1.94212 11.6961 2.32942C10.6461 2.5543 9.4318 5.79944 8.43166 8.58962L7.45335 11.9982C7.45335 11.9982 6.80669 12.3512 6.07894 13.3215C5.78939 13.8083 5.58708 14.3421 5.48114 14.8988L5.29297 16.5208C5.51774 16.5252 5.73689 16.5919 5.92611 16.7134C6.40643 17.0257 6.48544 17.5817 6.51247 17.7629C6.63619 18.6186 6.76927 19.489 6.89818 20.3313L7.05829 21.3838C7.07405 21.4877 7.06864 21.5936 7.0424 21.6953C7.01616 21.797 6.96962 21.8923 6.9056 21.9755C6.84157 22.0586 6.76139 22.128 6.66988 22.1793C6.57837 22.2306 6.47744 22.2628 6.37316 22.274H6.32845C6.42442 22.46 6.54089 22.6346 6.6757 22.7945C6.54804 22.8429 6.4394 22.9312 6.36596 23.0464C6.29252 23.1616 6.25822 23.2975 6.26816 23.4338L6.28167 23.6254C6.29392 23.7935 6.37229 23.9498 6.49958 24.0601C6.62687 24.1704 6.79267 24.2256 6.96056 24.2136L7.53756 24.1719L8.90885 24.0741L10.7906 23.9387C10.8673 23.9329 10.9424 23.9132 11.0121 23.8804L11.0724 23.8752C11.5059 23.8357 11.8459 23.5952 11.8958 23.3151C13.267 23.2922 14.8317 23.2266 16.4951 23.1267L17.5972 23.0559C22.4523 22.73 27.9427 22.1418 31.8715 21.4942L31.9911 22.8008C32.0208 23.1208 32.1761 23.4159 32.4229 23.6214C32.6696 23.8269 32.9876 23.926 33.3072 23.8971L36.4262 23.6108C36.7776 23.578 37.1016 23.4071 37.3273 23.1354C37.553 22.8637 37.6619 22.5135 37.6301 22.1615L37.4076 19.7691ZM10.3592 19.0674C9.94827 19.1049 9.53547 19.0197 9.17295 18.8224C8.81044 18.625 8.51448 18.3245 8.32249 17.9588C8.1305 17.5931 8.05109 17.1785 8.09432 16.7676C8.13754 16.3567 8.30144 15.9679 8.56532 15.6502C8.82919 15.3326 9.18118 15.1004 9.57679 14.983C9.9724 14.8657 10.3939 14.8684 10.7879 14.9909C11.182 15.1134 11.5309 15.3501 11.7907 15.6712C12.0504 15.9922 12.2093 16.3832 12.2472 16.7946C12.2723 17.068 12.2435 17.3437 12.1622 17.6059C12.0809 17.8681 11.9488 18.1117 11.7735 18.3228C11.5982 18.5339 11.383 18.7083 11.1403 18.836C10.8976 18.9638 10.6322 19.0424 10.3592 19.0674ZM10.7625 10.6344C11.5225 8.52091 12.1754 6.53342 13.0664 4.63652C13.3014 4.13574 13.8139 3.96709 14.3545 3.92336L17.5244 3.66829C17.6762 3.62664 23.3838 3.15814 26.0755 2.93118C26.8032 2.8708 27.4769 2.96345 27.8782 3.63497C28.894 5.3299 29.8743 7.04773 30.9628 8.91653L27.3002 9.22262C27.3064 9.2299 16.3517 10.1648 10.7625 10.6323V10.6344ZM32.8716 17.0018C32.4605 17.0396 32.0473 16.9545 31.6845 16.7571C31.3216 16.5598 31.0254 16.2592 30.8332 15.8932C30.6409 15.5273 30.5614 15.1125 30.6046 14.7013C30.6478 14.2901 30.8118 13.9009 31.0759 13.583C31.3399 13.2652 31.6922 13.0329 32.0881 12.9155C32.484 12.7981 32.9058 12.8009 33.3001 12.9236C33.6944 13.0462 34.0435 13.2832 34.3033 13.6046C34.5631 13.926 34.7219 14.3173 34.7596 14.7291C34.8093 15.2808 34.6385 15.8297 34.2845 16.2554C33.9306 16.681 33.4224 16.9487 32.8716 16.9997V17.0018Z" fill="currentColor"/>
<path d="M4.44917 21.1141C3.70894 20.3176 2.94272 19.4941 2.19626 18.68C2.02056 18.4884 1.74713 18.2344 1.39365 18.2344H1.38118C1.11191 18.2396 0.854077 18.3905 0.593126 18.6956C0.423664 18.8934 0.204299 19.1974 0.25836 19.5399C0.312422 19.8825 0.613919 20.1032 0.836403 20.2385C1.47059 20.6279 2.47904 21.2015 3.40433 21.7013C4.61967 22.3572 5.0033 22.5342 5.17172 22.5342C5.20091 22.5336 5.22968 22.5271 5.2563 22.5152C5.28292 22.5032 5.30685 22.4859 5.32663 22.4644C5.35316 22.4415 5.37482 22.4134 5.39032 22.3819C5.40583 22.3504 5.41487 22.3162 5.41691 22.2811C5.41894 22.2461 5.41393 22.211 5.40217 22.1779C5.39042 22.1448 5.37216 22.1144 5.34846 22.0886L4.44917 21.1141Z" fill="currentColor"/>
<path d="M5.00719 23.1204L3.98729 22.8997C3.1483 22.7185 2.28124 22.5322 1.43081 22.3417C1.20832 22.2917 0.882913 22.248 0.618843 22.4395C0.42131 22.5822 0.30695 22.8206 0.273682 23.1683C0.251849 23.3942 0.24665 23.7201 0.466015 23.9491C0.68538 24.1782 1.01079 24.1855 1.23639 24.1719C1.82379 24.1376 2.7366 24.0532 3.56312 23.9585C4.56534 23.8429 4.94792 23.7815 5.10699 23.6972C5.1439 23.6786 5.17554 23.6511 5.19898 23.6171C5.22242 23.583 5.23691 23.5436 5.24111 23.5025C5.25128 23.4621 5.25327 23.42 5.24696 23.3788C5.24065 23.3376 5.22617 23.2981 5.20437 23.2626C5.18257 23.2271 5.1539 23.1963 5.12003 23.172C5.08616 23.1478 5.0478 23.1306 5.00719 23.1214V23.1204Z" fill="currentColor"/>
</g>
<defs>
<clipPath id="clip0_4315_253202">
<rect width="37.5" height="23.4375" fill="white" transform="translate(0.25 0.78125)"/>
</clipPath>
</defs>
</svg>
