<svg width="56" height="42" viewBox="0 0 56 42" fill="none" xmlns="http://www.w3.org/2000/svg">
<path d="M40.1654 36.7561H22.0074C21.6434 36.7561 21.3214 37.0221 21.2934 37.3861C21.2794 37.7781 21.5874 38.1001 21.9654 38.1001H40.1514C40.5154 38.1001 40.8234 37.8061 40.8234 37.4281C40.8234 37.0641 40.5294 36.7561 40.1514 36.7561H40.1654Z" fill="#E6E6E6"/>
<path d="M31.0659 23.6379L30.2539 26.9279L35.0419 26.6619C35.0419 26.6619 36.5819 26.4099 35.5459 24.7439C35.0699 24.7719 34.4539 24.8279 34.0899 24.5199C33.9639 24.4219 33.9639 24.4219 33.7959 24.4079C32.8579 24.3379 31.9759 23.9459 31.0799 23.6379H31.0659Z" fill="#E6E6E6"/>
<path d="M18.1465 25.346C18.1465 25.346 18.0625 25.304 18.0625 25.262V15.056C18.0625 14.93 18.1745 14.818 18.3005 14.818H19.7985V3.828C19.7985 3.828 19.7985 3.758 19.8265 3.716L21.5625 0.271996C21.6045 0.187996 21.6885 0.145996 21.7725 0.145996C21.8565 0.145996 21.9405 0.201996 21.9825 0.271996L23.7185 3.632C23.7185 3.632 23.7465 3.702 23.7465 3.744V9.19H25.0205V8.728C25.0205 8.602 25.1325 8.49 25.2585 8.49H28.6745C28.8005 8.49 28.9125 8.602 28.9125 8.728V17.002C28.9125 17.002 28.8705 17.086 28.8285 17.086C28.7865 17.086 28.7445 17.044 28.7445 17.002V8.728C28.7445 8.728 28.7165 8.658 28.6745 8.658H25.2585C25.2585 8.658 25.1885 8.686 25.1885 8.728V9.274C25.1885 9.274 25.1465 9.358 25.1045 9.358H23.6485C23.6485 9.358 23.5645 9.316 23.5645 9.274V3.73C23.5645 3.73 23.5645 3.716 23.5645 3.702L21.8285 0.341997C21.8285 0.341997 21.8005 0.299996 21.7725 0.299996C21.7445 0.299996 21.7305 0.299997 21.7165 0.341997L19.9805 3.8C19.9805 3.8 19.9805 3.814 19.9805 3.828V14.902C19.9805 14.902 19.9385 14.986 19.8965 14.986H18.3145C18.3145 14.986 18.2445 15.014 18.2445 15.056V25.262C18.2445 25.262 18.2025 25.346 18.1605 25.346H18.1465Z" fill="#E6E6E6"/>
<path d="M14.5488 27.432C14.5488 27.432 14.4648 27.39 14.4648 27.348V14.902C14.4648 14.902 14.5068 14.818 14.5488 14.818H14.5908V11.528C14.5908 11.402 14.7028 11.29 14.8288 11.29H16.6628C16.7888 11.29 16.9008 11.402 16.9008 11.528V25.878C16.9008 25.878 16.8588 25.962 16.8168 25.962C16.7748 25.962 16.7328 25.92 16.7328 25.878V11.528C16.7328 11.528 16.7048 11.458 16.6628 11.458H14.8288C14.8288 11.458 14.7588 11.486 14.7588 11.528V14.902C14.7588 14.902 14.7168 14.986 14.6748 14.986H14.6328V27.348C14.6328 27.348 14.5908 27.432 14.5488 27.432Z" fill="#E6E6E6"/>
<path d="M30.6778 19.5919C31.2378 19.5919 31.7978 19.5919 32.3438 19.5919C32.7638 19.5919 33.1838 19.5219 33.5898 19.5639C33.8978 19.6059 34.1358 19.7459 34.3318 19.9559C34.4578 19.3259 34.7098 18.7239 35.1718 18.2619C35.8018 17.6319 36.7258 17.4779 37.5938 17.5059V6.33393C37.5938 6.24993 37.5238 6.17993 37.4398 6.17993H33.9258C33.8418 6.17993 33.7718 6.24993 33.7718 6.33393V11.3879H30.4118C30.3278 11.3879 30.2578 11.4579 30.2578 11.5419V19.7459C30.2578 19.7459 30.3698 19.7599 30.4258 19.7739C30.4538 19.6619 30.5238 19.5779 30.6638 19.5779L30.6778 19.5919Z" fill="#E6E6E6"/>
<path d="M34.3322 20.0399C34.3322 20.0399 34.2902 20.0399 34.2622 20.0119C34.0662 19.8019 33.8422 19.6899 33.5762 19.6479C33.3242 19.6199 33.0582 19.6479 32.7922 19.6479C32.6382 19.6479 32.4842 19.6619 32.3302 19.6619C31.9522 19.6619 31.5882 19.6619 31.2102 19.6619H30.6502C30.5382 19.6619 30.5102 19.7459 30.4962 19.7879C30.4962 19.8299 30.4402 19.8579 30.3982 19.8579H30.3422C30.3422 19.8579 30.2722 19.8299 30.2302 19.8299C30.1882 19.8299 30.1602 19.7879 30.1602 19.7459V11.5419C30.1602 11.4159 30.2722 11.3039 30.3982 11.3039H33.6742V6.33395C33.6742 6.20795 33.7862 6.09595 33.9122 6.09595H37.4262C37.5522 6.09595 37.6642 6.20795 37.6642 6.33395V17.5059C37.6642 17.5059 37.6642 17.5479 37.6362 17.5619C37.6082 17.5759 37.5942 17.5899 37.5662 17.5899C36.5302 17.5479 35.7462 17.7859 35.2002 18.3179C34.7942 18.7099 34.5282 19.2699 34.3882 19.9699C34.3882 19.9979 34.3602 20.0259 34.3322 20.0399C34.3322 20.0399 34.3182 20.0399 34.3042 20.0399H34.3322ZM33.2682 19.4659C33.3802 19.4659 33.4922 19.4659 33.6042 19.4799C33.8562 19.5079 34.0802 19.6199 34.2762 19.7879C34.4302 19.1299 34.7102 18.5979 35.1022 18.2059C35.6622 17.6599 36.4602 17.3939 37.4962 17.4219V6.33395C37.4962 6.33395 37.4682 6.26395 37.4262 6.26395H33.9122C33.9122 6.26395 33.8422 6.29195 33.8422 6.33395V11.3879C33.8422 11.3879 33.8002 11.4719 33.7582 11.4719H30.3982C30.3982 11.4719 30.3282 11.4999 30.3282 11.5419V19.6759C30.3282 19.6759 30.3422 19.6759 30.3562 19.6759C30.4122 19.5639 30.5242 19.4939 30.6502 19.4939H31.2102C31.5882 19.4939 31.9522 19.4939 32.3302 19.4939C32.4842 19.4939 32.6242 19.4939 32.7782 19.4799C32.9322 19.4799 33.1002 19.4659 33.2542 19.4659H33.2682Z" fill="#E6E6E6"/>
<path d="M46.1612 20.7681C46.1612 20.7681 46.0772 20.7261 46.0772 20.6841V8.7981C46.0772 8.7981 46.0492 8.7281 46.0072 8.7281H42.6752C42.6752 8.7281 42.6052 8.7561 42.6052 8.7981C42.6052 8.8401 42.5632 8.8821 42.5212 8.8821C42.4792 8.8821 42.4372 8.8401 42.4372 8.7981V8.0701H39.1052C39.1052 8.0701 39.0352 8.0981 39.0352 8.1401V18.2761C39.0352 18.2761 38.9932 18.3601 38.9512 18.3601C38.9092 18.3601 38.8672 18.3181 38.8672 18.2761V8.1401C38.8672 8.0141 38.9792 7.9021 39.1052 7.9021H42.5212C42.5212 7.9021 42.6052 7.9441 42.6052 7.9861V8.5601C42.6052 8.5601 42.6472 8.5601 42.6752 8.5601H46.0072C46.1332 8.5601 46.2452 8.6721 46.2452 8.7981V20.6841C46.2452 20.6841 46.2032 20.7681 46.1612 20.7681Z" fill="#E6E6E6"/>
<path d="M0.783531 32.29L1.18953 32.822L2.21153 32.766C2.51953 32.752 2.79953 32.948 2.89753 33.242L3.49953 35.16C3.52753 35.244 3.52753 35.328 3.49953 35.412C3.44353 35.594 3.27553 35.72 3.07953 35.72H1.49753C1.27353 35.72 1.07753 35.902 1.06353 36.126L1.28753 36.042L3.61153 36.098L4.17153 35.496L3.03753 32.178L0.769531 32.29H0.783531Z" fill="#E6E6E6"/>
<path d="M41.5222 23.862L42.8382 25.794C42.9222 25.92 43.0762 25.976 43.2162 25.948L46.1702 25.388C46.4922 25.332 46.5902 24.898 46.3102 24.716L44.9802 23.778C44.9802 23.778 44.8822 23.722 44.8262 23.708L41.8862 23.274C41.5642 23.232 41.3402 23.582 41.5222 23.862Z" fill="#E10098"/>
<path d="M43.1478 26.0321C42.9938 26.0321 42.8538 25.9621 42.7698 25.8361L41.4538 23.9041C41.3558 23.7501 41.3418 23.5681 41.4538 23.4141C41.5518 23.2601 41.7198 23.1761 41.9018 23.2041L44.8418 23.6381C44.8418 23.6381 44.9818 23.6801 45.0378 23.7221L46.3678 24.6601C46.5218 24.7721 46.5918 24.9401 46.5498 25.1221C46.5078 25.3041 46.3678 25.4301 46.1858 25.4721L43.2318 26.0321C43.2318 26.0321 43.1758 26.0321 43.1478 26.0321ZM41.8178 23.3581C41.7058 23.3581 41.6078 23.4281 41.5658 23.4981C41.5098 23.5821 41.4958 23.7081 41.5658 23.8201L42.8818 25.7521C42.9518 25.8501 43.0638 25.8921 43.1758 25.8781L46.1298 25.3181C46.2698 25.2901 46.3398 25.1781 46.3678 25.0941C46.3818 24.9961 46.3678 24.8701 46.2418 24.7861L44.9118 23.8481C44.9118 23.8481 44.8278 23.8061 44.7858 23.7921L41.8458 23.3581C41.8458 23.3581 41.8178 23.3581 41.8038 23.3581H41.8178Z" fill="white"/>
<path d="M7.96794 29.3639L7.08594 29.6439L16.8019 29.1539L30.0879 28.8739L39.9999 28.5939L44.1299 28.0339L49.4779 27.8519L44.4659 27.5439L39.2579 28.2439L19.5319 28.5939L7.96794 29.3639Z" fill="#E6E6E6"/>
<path d="M41.8053 29.3081C42.6017 29.3081 43.2473 29.1263 43.2473 28.9021C43.2473 28.6779 42.6017 28.4961 41.8053 28.4961C41.0089 28.4961 40.3633 28.6779 40.3633 28.9021C40.3633 29.1263 41.0089 29.3081 41.8053 29.3081Z" fill="#E6E6E6"/>
<path d="M27.9576 29.9519C28.754 29.9519 29.3996 29.7701 29.3996 29.5459C29.3996 29.3217 28.754 29.1399 27.9576 29.1399C27.1612 29.1399 26.5156 29.3217 26.5156 29.5459C26.5156 29.7701 27.1612 29.9519 27.9576 29.9519Z" fill="#E6E6E6"/>
<path d="M30.4087 24.5339V23.8619C30.4087 23.5399 30.1427 23.2739 29.8207 23.2739C29.4987 23.2739 29.2327 23.5399 29.2327 23.8619V24.5339C29.2327 24.8279 29.4427 25.0659 29.7227 25.1079V25.3039H29.6808C29.4288 25.3039 29.2188 25.5139 29.2188 25.7659V27.1519H30.3947V25.7659C30.3947 25.5139 30.1847 25.3039 29.9327 25.3039H29.8907V25.1079C30.1708 25.0659 30.3808 24.8139 30.3808 24.5339H30.4087Z" fill="#E6E6E6"/>
<path d="M17.2227 37.68L17.2927 35.93C17.2927 35.93 18.3567 33.956 20.8767 33.704C23.3967 33.452 39.6787 33.55 39.6787 33.55C39.6787 33.55 38.2227 35.874 38.7127 37.68C27.4287 37.806 17.2227 37.68 17.2227 37.68Z" fill="#E6E6E6"/>
<path d="M4.41213 29.8401L2.57812 30.8481L5.71412 30.5681L6.87612 29.7561L4.41213 29.8401Z" fill="#E10098"/>
<path d="M26.4916 24.884C26.5689 24.884 26.6316 24.8213 26.6316 24.744C26.6316 24.6667 26.5689 24.604 26.4916 24.604C26.4142 24.604 26.3516 24.6667 26.3516 24.744C26.3516 24.8213 26.4142 24.884 26.4916 24.884Z" fill="black"/>
<path d="M22.4441 27.4879C22.4441 27.4879 22.3601 27.4599 22.3601 27.4039V26.1859C22.3601 26.0879 22.2761 26.0039 22.1781 26.0039C22.0801 26.0039 21.9961 26.0879 21.9961 26.1859V27.4039C21.9961 27.4039 21.9681 27.4879 21.9121 27.4879C21.8561 27.4879 21.8281 27.4599 21.8281 27.4039V26.1859C21.8281 26.0039 21.9821 25.8499 22.1641 25.8499C22.3461 25.8499 22.5001 26.0039 22.5001 26.1859V27.4039C22.5001 27.4039 22.4721 27.4879 22.4161 27.4879H22.4441Z" fill="#F61BA3"/>
<path d="M28.1563 25.5701C28.1563 25.5701 28.0722 25.5421 28.0722 25.4861C28.0722 25.4301 28.1003 25.4021 28.1563 25.4021C28.3663 25.4021 28.5342 25.2341 28.5342 25.0241C28.5342 24.8141 28.3663 24.6461 28.1563 24.6461H27.8622C27.8622 24.6461 27.8062 24.6321 27.7922 24.6041L27.7502 24.5201H27.4282C26.8682 24.5201 26.4062 24.0581 26.4062 23.4981C26.4062 23.4561 26.4342 23.4141 26.4902 23.4141C26.5462 23.4141 26.5742 23.4421 26.5742 23.4981C26.5742 23.9741 26.9662 24.3521 27.4422 24.3521H27.8203C27.8203 24.3521 27.8762 24.3661 27.8902 24.3941L27.9323 24.4781H28.1703C28.4643 24.4781 28.7022 24.7161 28.7022 25.0101C28.7022 25.3041 28.4643 25.5421 28.1703 25.5421L28.1563 25.5701Z" fill="#081017"/>
<path d="M27.051 26.4101C26.309 26.4101 25.707 25.8081 25.707 25.0661C25.707 24.6601 25.889 24.2681 26.211 24.0161C26.239 23.9881 26.295 23.9881 26.323 24.0161C26.351 24.0441 26.351 24.1001 26.323 24.1281C26.043 24.3521 25.875 24.7021 25.875 25.0661C25.875 25.8221 26.561 26.4101 27.359 26.2281C27.401 26.2281 27.443 26.2421 27.457 26.2841C27.457 26.3261 27.443 26.3681 27.401 26.3821C27.289 26.4101 27.191 26.4241 27.079 26.4241L27.051 26.4101Z" fill="#081017"/>
<path d="M26.4757 25.9621C26.4757 25.9621 26.4057 25.9481 26.4057 25.9061C26.4057 25.8641 26.4057 25.8221 26.4617 25.8081C26.6577 25.7381 26.7137 25.5421 26.7277 25.4161L26.1957 25.5701C26.1957 25.5701 26.1117 25.5701 26.0977 25.5141C26.0977 25.4721 26.0977 25.4301 26.1537 25.4161L26.7837 25.2341C26.7837 25.2341 26.8257 25.2341 26.8537 25.2341C26.8677 25.2341 26.8817 25.2621 26.8817 25.2901C26.8957 25.4721 26.8397 25.8361 26.5177 25.9341C26.5177 25.9341 26.5037 25.9341 26.4897 25.9341L26.4757 25.9621Z" fill="#081017"/>
<path d="M28.1433 26.3959C28.1433 26.3959 28.0873 26.3819 28.0733 26.3539C28.0593 26.3119 28.0733 26.2699 28.1013 26.2419C28.6473 25.9339 29.1933 25.5279 29.1933 24.2819C29.1933 23.9739 29.1093 23.7219 28.9273 23.5539C28.5353 23.1619 27.7793 23.1759 27.3173 23.1759H27.1773C26.6033 23.1759 26.2813 23.3999 26.2813 23.7779C26.2813 24.1279 26.3933 24.1979 26.3933 24.2119C26.4353 24.2259 26.4493 24.2819 26.4213 24.3099C26.4073 24.3519 26.3513 24.3659 26.3093 24.3379C26.2813 24.3239 26.1133 24.2119 26.1133 23.7779C26.1133 23.3159 26.5053 23.0359 27.1633 23.0359H27.3033C27.7793 23.0359 28.5773 23.0219 29.0253 23.4559C29.2353 23.6659 29.3333 23.9459 29.3333 24.2959C29.3333 25.6259 28.7593 26.0599 28.1713 26.3959C28.1713 26.3959 28.1433 26.3959 28.1293 26.3959H28.1433Z" fill="#F61BA3"/>
<path d="M22.4434 27.4879C22.4434 27.4879 22.3734 27.4599 22.3594 27.4179C22.3594 27.3759 22.3874 27.3339 22.4294 27.3339L25.9994 27.0119L26.7694 26.8859L27.2734 26.6479C27.3994 26.6199 28.3794 26.3959 28.7154 26.5779C29.0374 26.7459 29.2474 26.8719 29.2614 26.8859C29.3034 26.9139 29.3034 26.9559 29.2894 26.9979C29.2614 27.0399 29.2194 27.0399 29.1774 27.0259C29.1774 27.0259 28.9674 26.8859 28.6454 26.7319C28.3934 26.6059 27.6094 26.7459 27.3294 26.8159L26.8394 27.0539C26.8394 27.0539 26.8394 27.0539 26.8254 27.0539L26.0414 27.1799L22.4574 27.5159L22.4434 27.4879Z" fill="#081017"/>
<path d="M54.3466 28.4541L53.5206 27.8521H49.6006C49.3626 27.8521 49.2646 28.1741 49.4746 28.3001L50.9586 29.2521C51.3646 29.5041 51.8266 29.6441 52.3026 29.6441H55.4666" fill="#E10098"/>
<path d="M55.4534 29.7141H52.2894C51.7994 29.7141 51.3234 29.5741 50.9034 29.3081L49.4194 28.3561C49.2934 28.2721 49.2374 28.1321 49.2794 27.9921C49.3214 27.8521 49.4474 27.7681 49.5874 27.7681H53.5074C53.5074 27.7681 53.5354 27.7681 53.5494 27.7821L54.3754 28.3841C54.3754 28.3841 54.4174 28.4541 54.3894 28.4961C54.3614 28.5241 54.3194 28.5381 54.2774 28.5101L53.4654 27.9221H49.5594C49.4614 27.9221 49.4194 27.9781 49.4054 28.0481C49.3914 28.1181 49.4054 28.1881 49.4754 28.2301L50.9594 29.1821C51.3514 29.4341 51.7994 29.5601 52.2614 29.5601H55.4254C55.4254 29.5601 55.5094 29.5881 55.5094 29.6441C55.5094 29.7001 55.4814 29.7281 55.4254 29.7281L55.4534 29.7141Z" fill="white"/>
<path d="M54.7845 36.2241H50.3885C50.0105 32.8781 48.2045 31.2401 44.9985 31.2401C38.7545 31.2401 38.8805 36.994 38.8805 36.994H38.0825L35.6325 36.4761H19.3785L18.0205 36.91H17.2085C17.2085 36.91 17.2365 36.028 16.6625 34.208C16.0885 32.388 14.0025 30.7921 9.90047 31.1421C5.79847 31.4921 5.57447 36.4481 5.57447 36.4481H0.730469L2.50847 37.9741H4.04847L6.49847 39.038V36.1541C6.49847 33.7881 8.41647 31.8841 10.7685 31.8841H11.6505C14.2265 31.8841 16.3125 33.97 16.3125 36.546V38.1981H39.6505V36.546C39.6505 33.97 41.7365 31.8841 44.3125 31.8841H45.1945C47.5605 31.8841 49.4645 33.8021 49.4645 36.1541V37.7921L53.9585 37.12C54.4625 37.05 54.9105 36.742 55.1625 36.308L55.4005 35.9161C55.2465 36.0981 55.0225 36.2241 54.7565 36.2241H54.7845Z" fill="#E10098"/>
<path d="M6.49653 39.122H6.46853L4.03253 38.058H2.50653C2.50653 38.058 2.46453 38.058 2.45053 38.044L0.672531 36.518C0.672531 36.518 0.644531 36.462 0.644531 36.434C0.644531 36.406 0.686531 36.378 0.714531 36.378H5.50253C5.53053 36.084 5.64253 35.006 6.13253 33.9C6.88853 32.192 8.19053 31.212 9.89853 31.072C15.2045 30.61 16.4785 33.34 16.7445 34.194C17.2205 35.734 17.2905 36.588 17.2905 36.84H18.0045L19.3485 36.42C19.3485 36.42 19.3625 36.42 19.3765 36.42H35.6305L38.0945 36.938H38.7945C38.7945 36.504 38.9345 34.362 40.4325 32.836C41.5105 31.73 43.0505 31.184 44.9965 31.184C48.2165 31.184 50.0505 32.864 50.4565 36.168H54.7825C55.0065 36.168 55.2165 36.07 55.3565 35.888C55.3705 35.874 55.3985 35.86 55.4265 35.86C55.4545 35.86 55.4825 35.874 55.4825 35.902C55.4825 35.93 55.4825 35.958 55.4825 35.972L55.2445 36.364C54.9645 36.826 54.5025 37.134 53.9845 37.204L49.4905 37.876C49.4905 37.876 49.4485 37.876 49.4345 37.862C49.4205 37.848 49.4065 37.82 49.4065 37.806V36.168C49.4065 33.858 47.5165 31.968 45.2065 31.968H44.3245C41.7905 31.968 39.7325 34.026 39.7325 36.56V38.212C39.7325 38.212 39.7045 38.296 39.6485 38.296H16.3245C16.3245 38.296 16.2405 38.268 16.2405 38.212V36.56C16.2405 34.026 14.1825 31.968 11.6485 31.968H10.7665C8.45653 31.968 6.56653 33.858 6.56653 36.168V39.052C6.56653 39.052 6.56653 39.108 6.53853 39.122C6.53853 39.122 6.51053 39.122 6.49653 39.122ZM2.53453 37.89H4.04653H4.07453L6.41253 38.912V36.14C6.41253 33.746 8.37253 31.786 10.7665 31.786H11.6485C14.2665 31.786 16.3945 33.914 16.3945 36.532V38.1H39.5785V36.532C39.5785 33.914 41.7065 31.786 44.3245 31.786H45.2065C47.6005 31.786 49.5605 33.732 49.5605 36.14V37.694L53.9705 37.036C54.4465 36.966 54.8665 36.686 55.1185 36.266L55.1465 36.21C55.0345 36.266 54.9085 36.294 54.7825 36.294H50.3865C50.3865 36.294 50.3165 36.266 50.3165 36.224C49.9385 32.92 48.2025 31.31 45.0105 31.31C43.1065 31.31 41.6085 31.856 40.5585 32.92C38.9345 34.572 38.9625 36.966 38.9625 36.994C38.9625 37.008 38.9625 37.036 38.9345 37.05C38.9205 37.064 38.9065 37.078 38.8785 37.078H38.0805L35.6165 36.56H19.3905L18.0465 36.98C18.0465 36.98 18.0325 36.98 18.0185 36.98H17.2065C17.2065 36.98 17.1645 36.98 17.1505 36.952C17.1365 36.938 17.1225 36.91 17.1225 36.896C17.1225 36.896 17.1365 36 16.5765 34.222C16.3245 33.396 15.0785 30.764 9.89853 31.212C8.23253 31.352 7.00053 32.276 6.25853 33.942C5.69853 35.202 5.64253 36.42 5.64253 36.434C5.64253 36.476 5.60053 36.504 5.55853 36.504H0.938531L2.53453 37.876V37.89Z" fill="white"/>
<path d="M6.23091 39.122H6.20291L3.76691 38.058H2.24091C2.24091 38.058 2.19891 38.058 2.18491 38.044L0.406906 36.518C0.406906 36.518 0.378906 36.462 0.378906 36.434C0.378906 36.406 0.420906 36.378 0.448906 36.378H5.23691C5.26491 36.084 5.37691 35.006 5.86691 33.9C6.62291 32.192 7.92491 31.212 9.63291 31.072C14.9389 30.61 16.2129 33.34 16.4789 34.194C16.9549 35.734 17.0249 36.588 17.0249 36.84H17.7389L19.0829 36.42C19.0829 36.42 19.0969 36.42 19.1109 36.42H35.3649L37.8289 36.938H38.5289C38.5289 36.504 38.6689 34.362 40.1669 32.836C41.2449 31.73 42.7849 31.184 44.7309 31.184C47.9509 31.184 49.7849 32.864 50.1909 36.168H54.5169C54.7409 36.168 54.9509 36.07 55.0909 35.888C55.1049 35.874 55.1329 35.86 55.1609 35.86C55.1889 35.86 55.2169 35.874 55.2169 35.902C55.2169 35.93 55.2169 35.958 55.2169 35.972L54.9789 36.364C54.6989 36.826 54.2369 37.134 53.7189 37.204L49.2249 37.876C49.2249 37.876 49.1829 37.876 49.1689 37.862C49.1549 37.848 49.1409 37.82 49.1409 37.806V36.168C49.1409 33.858 47.2509 31.968 44.9409 31.968H44.0589C41.5249 31.968 39.4669 34.026 39.4669 36.56V38.212C39.4669 38.212 39.4389 38.296 39.3829 38.296H16.0589C16.0589 38.296 15.9749 38.268 15.9749 38.212V36.56C15.9749 34.026 13.9169 31.968 11.3829 31.968H10.5009C8.19091 31.968 6.30091 33.858 6.30091 36.168V39.052C6.30091 39.052 6.30091 39.108 6.27291 39.122C6.27291 39.122 6.24491 39.122 6.23091 39.122ZM2.26891 37.89H3.78091H3.80891L6.14691 38.912V36.14C6.14691 33.746 8.10691 31.786 10.5009 31.786H11.3829C14.0009 31.786 16.1289 33.914 16.1289 36.532V38.1H39.3129V36.532C39.3129 33.914 41.4409 31.786 44.0589 31.786H44.9409C47.3349 31.786 49.2949 33.732 49.2949 36.14V37.694L53.7049 37.036C54.1809 36.966 54.6009 36.686 54.8529 36.266L54.8809 36.21C54.7689 36.266 54.6429 36.294 54.5169 36.294H50.1209C50.1209 36.294 50.0509 36.266 50.0509 36.224C49.6729 32.92 47.9369 31.31 44.7449 31.31C42.8409 31.31 41.3429 31.856 40.2929 32.92C38.6689 34.572 38.6969 36.966 38.6969 36.994C38.6969 37.008 38.6969 37.036 38.6689 37.05C38.6549 37.064 38.6409 37.078 38.6129 37.078H37.8149L35.3509 36.56H19.1249L17.7809 36.98C17.7809 36.98 17.7669 36.98 17.7529 36.98H16.9409C16.9409 36.98 16.8989 36.98 16.8849 36.952C16.8709 36.938 16.8569 36.91 16.8569 36.896C16.8569 36.896 16.8709 36 16.3109 34.222C16.0589 33.396 14.8129 30.764 9.63291 31.212C7.96691 31.352 6.73491 32.276 5.99291 33.942C5.43291 35.202 5.37691 36.42 5.37691 36.434C5.37691 36.476 5.33491 36.504 5.29291 36.504H0.672906L2.26891 37.876V37.89Z" fill="#081017"/>
<path d="M39.3987 32.5002C39.1467 32.5002 38.6707 32.1922 38.2927 31.6182C37.9427 31.0862 37.0607 31.0442 37.0467 31.0442H30.9707C30.9707 31.0442 30.8867 31.0162 30.8867 30.9602C30.8867 30.9042 30.9147 30.8762 30.9707 30.8762H37.0467C37.0467 30.8762 38.0127 30.9322 38.4187 31.5202C38.7967 32.0802 39.2307 32.3462 39.3987 32.3462C39.4407 32.3462 39.4827 32.3742 39.4827 32.4302C39.4827 32.4862 39.4547 32.5142 39.3987 32.5142V32.5002Z" fill="#081017"/>
<path d="M27.1463 29.9241C27.1463 29.9241 27.1463 29.9241 27.1323 29.9241L26.3763 29.7281C26.3763 29.7281 26.3343 29.7001 26.3203 29.6861C26.3203 29.6581 26.3203 29.6441 26.3203 29.6161L26.4743 29.3501C26.4743 29.3501 26.4883 29.3221 26.5023 29.3221C27.4543 28.8041 28.8263 29.1121 28.8823 29.1121C28.9243 29.1121 28.9523 29.1681 28.9383 29.2101C28.9383 29.2521 28.8963 29.2801 28.8403 29.2661C28.8403 29.2661 27.4823 28.9721 26.5863 29.4481L26.4883 29.6161L27.1463 29.7841C27.1463 29.7841 27.2163 29.8401 27.2023 29.8821C27.2023 29.9101 27.1603 29.9381 27.1323 29.9381L27.1463 29.9241Z" fill="#081017"/>
<path d="M28.4786 29.8822C28.4786 29.8822 28.4226 29.8682 28.4086 29.8402C28.4086 29.8402 28.3526 29.7422 28.1986 29.7282C27.9746 29.7282 27.4286 29.7282 27.3446 29.7562C27.3026 29.7562 27.2606 29.7562 27.2466 29.7142C27.2326 29.6722 27.2466 29.6302 27.2886 29.6162C27.4006 29.5742 28.0586 29.5742 28.1986 29.5742C28.3666 29.5742 28.4646 29.6722 28.5066 29.7282C28.6046 29.7282 28.8846 29.7002 29.0666 29.6442C29.1926 29.6162 29.2346 29.4902 29.2626 29.4202C29.0946 29.4062 28.7306 29.3642 28.4086 29.3642C27.9746 29.3642 26.5746 29.4622 26.5606 29.4622C26.5186 29.4622 26.4766 29.4342 26.4766 29.3922C26.4766 29.3502 26.5046 29.3082 26.5466 29.3082C26.6026 29.3082 27.9886 29.1962 28.4086 29.2102C28.8426 29.2102 29.3606 29.2802 29.3606 29.2802C29.4026 29.2802 29.4306 29.3222 29.4306 29.3642C29.4306 29.3782 29.4026 29.7282 29.1086 29.7982C28.8566 29.8682 28.4926 29.8822 28.4646 29.8822H28.4786Z" fill="#081017"/>
<path d="M40.9666 29.3221C40.9666 29.3221 40.9666 29.3221 40.9526 29.3221L40.1966 29.1261C40.1966 29.1261 40.1546 29.0981 40.1406 29.0841C40.1406 29.0561 40.1406 29.0421 40.1406 29.0141L40.2946 28.7481C40.2946 28.7481 40.3086 28.7201 40.3226 28.7201C41.2746 28.2021 42.6466 28.5101 42.7026 28.5101C42.7446 28.5101 42.7726 28.5661 42.7586 28.6081C42.7586 28.6501 42.7166 28.6781 42.6606 28.6641C42.6606 28.6641 41.3026 28.3561 40.4066 28.8461L40.3086 29.0141L40.9666 29.1821C40.9666 29.1821 41.0366 29.2381 41.0226 29.2801C41.0226 29.3221 40.9806 29.3361 40.9526 29.3361L40.9666 29.3221Z" fill="#081017"/>
<path d="M42.2793 29.2802C42.2793 29.2802 42.2233 29.2662 42.2093 29.2382C42.2093 29.2382 42.1533 29.1402 41.9993 29.1262C41.7753 29.1262 41.2153 29.1262 41.1453 29.1542C41.1033 29.1542 41.0613 29.1542 41.0473 29.1122C41.0333 29.0702 41.0473 29.0282 41.0893 29.0142C41.2013 28.9722 41.8593 28.9722 41.9993 28.9722C42.1673 28.9722 42.2653 29.0702 42.3073 29.1262C42.4053 29.1262 42.6853 29.0982 42.8673 29.0422C42.9933 29.0142 43.0353 28.8882 43.0633 28.8182C42.8953 28.8042 42.5313 28.7622 42.2093 28.7622C41.7753 28.7622 40.3753 28.8602 40.3613 28.8602C40.3193 28.8602 40.2773 28.8322 40.2773 28.7902C40.2773 28.7482 40.3053 28.7062 40.3473 28.7062C40.4033 28.7062 41.7893 28.6082 42.2093 28.6082C42.6433 28.6082 43.1613 28.6782 43.1613 28.6782C43.2033 28.6782 43.2313 28.7202 43.2313 28.7622C43.2313 28.7762 43.2033 29.1262 42.9093 29.1962C42.6573 29.2662 42.2933 29.2802 42.2653 29.2802H42.2793Z" fill="#081017"/>
<path d="M29.834 38.268C29.834 38.268 29.75 38.24 29.75 38.184V30.848L30.254 26.984L30.646 24.968C30.646 24.968 30.688 24.898 30.73 24.912C30.772 24.912 30.8 24.954 30.786 24.996L30.394 27.012L29.89 30.862V38.198C29.89 38.198 29.862 38.282 29.82 38.282L29.834 38.268Z" fill="#081017"/>
<path d="M11.1488 37.6942C11.3885 37.6942 11.5828 37.4999 11.5828 37.2602C11.5828 37.0205 11.3885 36.8262 11.1488 36.8262C10.9092 36.8262 10.7148 37.0205 10.7148 37.2602C10.7148 37.4999 10.9092 37.6942 11.1488 37.6942Z" fill="black"/>
<path d="M11.1485 37.7641C10.8685 37.7641 10.6445 37.5401 10.6445 37.2601C10.6445 36.9801 10.8685 36.7561 11.1485 36.7561C11.4285 36.7561 11.6525 36.9801 11.6525 37.2601C11.6525 37.5401 11.4285 37.7641 11.1485 37.7641ZM11.1485 36.9101C10.9525 36.9101 10.7985 37.0641 10.7985 37.2601C10.7985 37.4561 10.9525 37.6101 11.1485 37.6101C11.3445 37.6101 11.4985 37.4561 11.4985 37.2601C11.4985 37.0641 11.3445 36.9101 11.1485 36.9101Z" fill="#081017"/>
<path d="M10.6159 34.1943C10.6859 34.0683 10.8259 33.9983 10.9659 33.9983C11.1899 33.9983 11.5119 33.9983 11.7219 34.0543C11.8339 34.0683 11.9039 34.1803 11.8619 34.2783C11.6099 35.1183 11.2739 36.3083 11.2739 36.3083L11.4699 36.1963C11.4699 36.1963 11.4979 36.1683 11.5119 36.1543L12.1279 34.7963C12.1839 34.6843 12.2819 34.5863 12.3939 34.5303C12.5759 34.4463 12.7719 34.4743 12.9259 34.6003L13.2339 34.8523C13.2339 34.8523 13.3039 35.0063 13.2339 35.0483L11.1339 36.6723C10.9239 36.8263 10.6299 36.7003 10.6019 36.4483L10.4479 34.7683C10.4339 34.5723 10.4759 34.3763 10.5739 34.2083L10.6159 34.1943Z" fill="#E6E6E6"/>
<path d="M13.9358 35.8322C14.0758 35.8602 14.1878 35.9722 14.2298 36.1122C14.2858 36.3222 14.3698 36.6302 14.3978 36.8542C14.4118 36.9662 14.3278 37.0642 14.2158 37.0642C13.3478 37.0642 12.1018 37.0922 12.1018 37.0922L12.2698 37.2462C12.2698 37.2462 12.3118 37.2742 12.3258 37.2742L13.7958 37.4702C13.9218 37.4842 14.0478 37.5542 14.1318 37.6522C14.2578 37.8062 14.2858 38.0022 14.2158 38.1842L14.0758 38.5622C14.0478 38.6462 13.9498 38.6742 13.8798 38.6182L11.7098 37.0782C11.4998 36.9242 11.5418 36.6022 11.7798 36.5042L13.3338 35.8742C13.5158 35.8042 13.7118 35.7902 13.9078 35.8322H13.9358Z" fill="#E6E6E6"/>
<path d="M13.3313 39.4862C13.3313 39.6262 13.2753 39.7662 13.1493 39.8502C12.9673 39.9762 12.7013 40.1442 12.4913 40.2282C12.3933 40.2702 12.2813 40.2282 12.2393 40.1162C11.9733 39.2902 11.5953 38.1142 11.5953 38.1142L11.4973 38.3242C11.4973 38.3242 11.4973 38.3662 11.4973 38.3942L11.7353 39.8642C11.7633 39.9902 11.7353 40.1302 11.6653 40.2282C11.5673 40.3962 11.3713 40.4802 11.1753 40.4662L10.7833 40.4382C10.6993 40.4382 10.6433 40.3542 10.6713 40.2702L11.5113 37.7502C11.5953 37.4982 11.9173 37.4422 12.0713 37.6522L13.1353 38.9542C13.2613 39.1082 13.3313 39.2902 13.3453 39.4862H13.3313Z" fill="#E6E6E6"/>
<path d="M9.66424 39.9763C9.52424 40.0323 9.37024 40.0043 9.25824 39.9063C9.09024 39.7663 8.85224 39.5563 8.69824 39.3883C8.62824 39.3043 8.64224 39.1783 8.72624 39.1223C9.44024 38.6323 10.4622 37.9183 10.4622 37.9183L10.2382 37.8903C10.2382 37.8903 10.1962 37.8903 10.1682 37.8903L8.83824 38.5483C8.72624 38.6043 8.58624 38.6183 8.46024 38.5903C8.27824 38.5343 8.12424 38.3803 8.08224 38.1983L7.99824 37.8063C7.98424 37.7223 8.04024 37.6523 8.12424 37.6523L10.7842 37.7083C11.0502 37.7083 11.1902 38.0023 11.0502 38.2263L10.1122 39.6263C10.0002 39.7943 9.84624 39.9063 9.66424 39.9763Z" fill="#E6E6E6"/>
<path d="M8.1242 36.6162C8.0402 36.5042 8.0122 36.3502 8.0682 36.2102C8.1522 36.0142 8.2782 35.7202 8.4042 35.5242C8.4602 35.4262 8.5862 35.4122 8.6702 35.4822C9.3562 36.0282 10.3222 36.7842 10.3222 36.7842L10.2942 36.5602C10.2942 36.5602 10.2942 36.5182 10.2662 36.5042L9.2442 35.4262C9.1602 35.3282 9.1042 35.2022 9.1042 35.0762C9.1042 34.8802 9.2022 34.6982 9.3702 34.6002L9.7202 34.4042C9.7902 34.3622 9.8882 34.4042 9.9022 34.4742L10.6162 37.0362C10.6862 37.2882 10.4482 37.5122 10.2102 37.4422L8.6002 36.9522C8.4182 36.8962 8.2502 36.7842 8.1242 36.6302V36.6162Z" fill="#E6E6E6"/>
<path d="M11.1486 32.7522C8.65663 32.7522 6.64062 34.7682 6.64062 37.2602C6.64062 39.7522 8.65663 41.7682 11.1486 41.7682C13.6406 41.7682 15.6566 39.7522 15.6566 37.2602C15.6566 34.7682 13.6406 32.7522 11.1486 32.7522ZM11.1486 40.6482C9.27263 40.6482 7.76063 39.1362 7.76063 37.2602C7.76063 35.3842 9.27263 33.8722 11.1486 33.8722C13.0246 33.8722 14.5366 35.3842 14.5366 37.2602C14.5366 39.1362 13.0246 40.6482 11.1486 40.6482Z" fill="#E10098"/>
<path d="M11.1467 41.8522C8.61269 41.8522 6.55469 39.7942 6.55469 37.2602C6.55469 34.7262 8.61269 32.6682 11.1467 32.6682C13.6807 32.6682 15.7387 34.7262 15.7387 37.2602C15.7387 39.7942 13.6807 41.8522 11.1467 41.8522ZM11.1467 32.8222C8.69669 32.8222 6.70869 34.8102 6.70869 37.2602C6.70869 39.7102 8.69669 41.6982 11.1467 41.6982C13.5967 41.6982 15.5847 39.7102 15.5847 37.2602C15.5847 34.8102 13.5967 32.8222 11.1467 32.8222ZM11.1467 40.7322C9.22869 40.7322 7.67469 39.1782 7.67469 37.2602C7.67469 35.3422 9.22869 33.7882 11.1467 33.7882C13.0647 33.7882 14.6187 35.3422 14.6187 37.2602C14.6187 39.1782 13.0647 40.7322 11.1467 40.7322ZM11.1467 33.9422C9.31269 33.9422 7.82869 35.4262 7.82869 37.2602C7.82869 39.0942 9.31269 40.5782 11.1467 40.5782C12.9807 40.5782 14.4647 39.0942 14.4647 37.2602C14.4647 35.4262 12.9807 33.9422 11.1467 33.9422Z" fill="#081017"/>
<path d="M16.0577 38.1843V36.5323C16.0577 35.1323 15.4417 33.8863 14.4757 33.0323C13.9857 32.8503 13.4397 32.7383 12.8797 32.7383C12.5857 32.7383 12.2917 32.7663 12.0117 32.8223C14.0837 33.2283 15.6517 35.0623 15.6517 37.2463C15.6517 39.4303 14.0837 41.2643 12.0117 41.6703C12.2917 41.7263 12.5857 41.7543 12.8797 41.7543C15.0497 41.7543 16.8697 40.2143 17.3037 38.1703H16.0577V38.1843Z" fill="black"/>
<path d="M12.8794 41.8522C12.5854 41.8522 12.2914 41.8242 11.9974 41.7682C11.9554 41.7682 11.9414 41.7262 11.9414 41.6982C11.9414 41.6702 11.9694 41.6282 11.9974 41.6282C14.0694 41.2222 15.5814 39.3882 15.5814 37.2742C15.5814 35.1602 14.0694 33.3262 11.9974 32.9202C11.9554 32.9202 11.9414 32.8782 11.9414 32.8502C11.9414 32.8222 11.9694 32.7802 11.9974 32.7802C12.8374 32.6122 13.7054 32.6962 14.5034 32.9902C14.5034 32.9902 14.5174 32.9902 14.5314 33.0042C15.5534 33.9002 16.1414 35.2022 16.1414 36.5602V38.1282H17.3034C17.3034 38.1282 17.3454 38.1282 17.3594 38.1562C17.3734 38.1702 17.3734 38.1982 17.3734 38.2262C16.9254 40.3402 15.0354 41.8662 12.8794 41.8662V41.8522ZM12.4174 41.6702C12.5714 41.6842 12.7254 41.6982 12.8794 41.6982C14.9374 41.6982 16.7434 40.2562 17.2054 38.2682H16.0574C16.0574 38.2682 15.9734 38.2402 15.9734 38.1842V36.5322C15.9734 35.2162 15.4134 33.9702 14.4334 33.1022C13.7894 32.8642 13.1034 32.7662 12.4174 32.8502C14.3634 33.4102 15.7354 35.2022 15.7354 37.2602C15.7354 39.3182 14.3634 41.1102 12.4174 41.6702Z" fill="#081017"/>
<path d="M39.7313 37.26C39.7313 34.964 41.4533 33.06 43.6793 32.78C43.4973 32.752 43.3153 32.738 43.1193 32.738C42.0693 32.738 41.1173 33.088 40.3473 33.69C39.7453 34.474 39.3813 35.454 39.3813 36.532V38.184H38.6953C39.1293 40.228 40.9353 41.768 43.1193 41.768C43.3153 41.768 43.4973 41.768 43.6793 41.726C41.4533 41.446 39.7313 39.556 39.7313 37.246V37.26Z" fill="black"/>
<path d="M43.1346 41.852C40.9786 41.852 39.0886 40.312 38.6406 38.212C38.6406 38.184 38.6406 38.17 38.6546 38.142C38.6686 38.128 38.6966 38.114 38.7106 38.114H39.3126V36.546C39.3126 35.496 39.6486 34.502 40.2926 33.662C41.1046 33.032 42.0846 32.696 43.1066 32.696C43.2886 32.696 43.4846 32.696 43.6806 32.738C43.7226 32.738 43.7506 32.78 43.7506 32.808C43.7506 32.836 43.7226 32.878 43.6806 32.878C41.4686 33.158 39.8026 35.048 39.8026 37.274C39.8026 39.5 41.4686 41.404 43.6806 41.67C43.7226 41.67 43.7506 41.712 43.7506 41.74C43.7506 41.768 43.7226 41.81 43.6806 41.81C43.4846 41.838 43.2886 41.852 43.1066 41.852H43.1346ZM38.8086 38.268C39.2706 40.242 41.0346 41.67 43.0646 41.698C41.0906 41.166 39.6626 39.36 39.6626 37.26C39.6626 35.16 41.0906 33.354 43.0646 32.822C42.0986 32.822 41.1746 33.158 40.4046 33.746C39.7886 34.558 39.4666 35.51 39.4666 36.532V38.184C39.4666 38.184 39.4386 38.268 39.3826 38.268H38.7946H38.8086Z" fill="#081017"/>
<path d="M17.6255 35.5242C17.6255 35.5242 17.5975 35.5242 17.5695 35.5102C17.5415 35.4822 17.5275 35.4402 17.5695 35.3982C17.6255 35.3282 19.0395 33.6342 20.8875 33.6342C22.7355 33.6342 35.2375 33.4802 35.3775 33.4802C35.3775 33.4802 35.4475 33.5082 35.4615 33.5502C35.4615 33.5922 35.4335 33.6342 35.3915 33.6342C35.2655 33.6342 22.7075 33.7882 20.9015 33.7882C19.0955 33.7882 17.7235 35.4822 17.7095 35.4962C17.6955 35.5102 17.6675 35.5242 17.6535 35.5242H17.6255Z" fill="#081017"/>
<path d="M17.2214 36.5462C17.2214 36.5462 17.1514 36.5182 17.1374 36.4762L16.7314 29.1542C16.7174 28.9022 16.7314 28.6502 16.8014 28.3982L16.9554 27.7822C16.9554 27.7822 17.0114 27.7122 17.0534 27.7262C17.0954 27.7262 17.1234 27.7822 17.1094 27.8242L16.9554 28.4402C16.8994 28.6782 16.8714 28.9162 16.8854 29.1542L17.2914 36.4762C17.2914 36.4762 17.2634 36.5602 17.2214 36.5602V36.5462Z" fill="#081017"/>
<path d="M20.7051 27.6702C20.7051 27.6702 20.6351 27.6422 20.6211 27.6002C20.6211 27.5582 20.6491 27.5162 20.6911 27.5162L30.1831 27.0542C30.1831 27.0542 30.2671 27.0822 30.2671 27.1242C30.2671 27.1662 30.2391 27.2082 30.1971 27.2082L20.7051 27.6702Z" fill="#081017"/>
<path d="M31.1934 27.2081C31.1934 27.2081 31.1234 27.1801 31.1094 27.1381C31.1094 27.0961 31.1374 27.0541 31.1794 27.0541L40.5314 26.5081L46.6634 25.3041L44.6334 23.7781C44.6334 23.7781 44.1994 23.6241 43.6114 23.4841C43.5694 23.4841 43.5414 23.4281 43.5554 23.3861C43.5554 23.3441 43.6114 23.3161 43.6534 23.3301C44.3114 23.4841 44.7034 23.6241 44.7034 23.6241C44.7034 23.6241 44.7034 23.6241 44.7174 23.6241L46.8874 25.2621C46.8874 25.2621 46.9294 25.3181 46.9154 25.3461C46.9154 25.3741 46.8874 25.4021 46.8594 25.4021L40.5454 26.6341L31.1934 27.1801V27.2081Z" fill="#081017"/>
<path d="M41.5249 23.1341C41.2729 23.1061 41.2589 23.1061 41.1189 23.0921C41.0629 23.0921 40.9929 23.0921 40.8669 23.0781C40.8249 23.0781 40.7969 23.0361 40.7969 22.9941C40.7969 22.9521 40.8389 22.9101 40.8809 22.9241C40.9929 22.9241 41.0769 22.9241 41.1329 22.9241C41.2729 22.9241 41.3009 22.9241 41.5529 22.9661C41.5949 22.9661 41.6229 23.0081 41.6229 23.0501C41.6229 23.0921 41.5809 23.1201 41.5529 23.1201L41.5249 23.1341Z" fill="#081017"/>
<path d="M20.1753 25.668C20.1753 25.668 20.1193 25.668 20.1053 25.626C20.0773 25.584 20.1053 25.542 20.1333 25.514C20.1613 25.514 22.4293 24.114 24.8093 23.26C25.6493 22.952 26.5453 22.742 27.4973 22.616L29.7093 22.406C29.7093 22.406 29.7934 22.434 29.7934 22.476C29.7934 22.518 29.7653 22.56 29.7233 22.56L27.5113 22.77C26.5733 22.896 25.6773 23.106 24.8513 23.414C22.4993 24.268 20.2313 25.64 20.2033 25.654C20.2033 25.654 20.1753 25.654 20.1613 25.654L20.1753 25.668Z" fill="#081017"/>
<path d="M42.4209 25.934C42.4209 25.934 42.3649 25.92 42.3509 25.892L40.7969 23.05C40.7969 23.05 40.7969 22.966 40.8249 22.952C40.8669 22.938 40.9089 22.952 40.9229 22.98L42.4769 25.822C42.4769 25.822 42.4769 25.906 42.4489 25.92C42.4489 25.92 42.4209 25.92 42.4069 25.92L42.4209 25.934Z" fill="#081017"/>
<path d="M43.2731 30.4422C43.2731 30.4422 43.2591 30.4422 43.2451 30.4422C43.2031 30.4282 43.1891 30.3862 43.2031 30.3442C43.2031 30.3302 43.9171 28.5802 44.0571 28.0202C44.1691 27.6002 43.2731 26.9142 42.9231 26.6762C42.8811 26.6482 42.8811 26.6062 42.8951 26.5642C42.9231 26.5222 42.9651 26.5222 43.0071 26.5362C43.1471 26.6202 44.3511 27.4322 44.1971 28.0482C44.0571 28.6222 43.3711 30.3162 43.3431 30.3862C43.3431 30.4142 43.3011 30.4282 43.2731 30.4282V30.4422Z" fill="#081017"/>
<path d="M6.834 29.6161C6.834 29.6161 6.764 29.5881 6.75 29.5461C6.75 29.5041 6.778 29.4621 6.82 29.4621C6.904 29.4621 14.716 28.8881 18.398 28.6361C22.094 28.3841 33.196 28.2441 33.308 28.2441C33.308 28.2441 33.378 28.2721 33.392 28.3141C33.392 28.3561 33.364 28.3981 33.322 28.3981C33.21 28.3981 22.108 28.5381 18.426 28.7901C14.73 29.0421 6.918 29.6021 6.848 29.6161H6.834Z" fill="#081017"/>
<path d="M35.6309 28.3141C35.6309 28.3141 35.5469 28.2861 35.5469 28.2301C35.5469 28.1741 35.5749 28.1461 35.6309 28.1461H39.2569L43.4009 27.7261C43.4009 27.7261 43.4849 27.7541 43.4849 27.7961C43.4849 27.8381 43.4569 27.8801 43.4149 27.8801L39.2709 28.3141H35.6449H35.6309Z" fill="#081017"/>
<path d="M3.74041 31.1701C3.74041 31.1701 3.68441 31.1561 3.67041 31.1141C3.67041 31.0861 3.67041 31.0441 3.69841 31.0161L3.82441 30.9321L1.45841 31.1561C1.45841 31.1561 1.44441 31.1561 1.43041 31.1561L1.12241 31.1001C1.12241 31.1001 1.06641 31.0721 1.06641 31.0441C1.06641 31.0161 1.06641 30.9881 1.09441 30.9601C1.73841 30.4561 2.45241 30.0501 3.20841 29.7561L3.34841 29.7001C3.34841 29.7001 3.36241 29.7001 3.37641 29.7001L6.56841 29.5181C6.56841 29.5181 6.63841 29.5321 6.65241 29.5741C6.65241 29.6021 6.65241 29.6441 6.62441 29.6581L4.72041 31.0301C4.72041 31.0301 4.69241 31.0301 4.67841 31.0301L3.76841 31.1421L3.74041 31.1701ZM1.33241 30.9881L1.45841 31.0161L4.11841 30.7641C4.11841 30.7641 4.18841 30.7781 4.20241 30.8201C4.20241 30.8481 4.20241 30.8901 4.17441 30.9041L4.06241 30.9741L4.63641 30.9041L6.31641 29.7001L3.39041 29.8681L3.26441 29.9241C2.57841 30.1901 1.93441 30.5541 1.33241 31.0021V30.9881Z" fill="#081017"/>
<path d="M3.63953 36.182H1.13353C1.13353 36.182 1.04953 36.154 1.04953 36.098C1.04953 36.042 1.07753 36.014 1.13353 36.014H3.59753L4.08753 35.468L2.99553 32.248L0.853531 32.36C0.853531 32.36 0.783531 32.332 0.769531 32.29C0.769531 32.248 0.797531 32.206 0.839531 32.206L3.05153 32.094C3.05153 32.094 3.12153 32.108 3.13553 32.15L4.26953 35.468C4.26953 35.468 4.26953 35.524 4.25553 35.538L3.70953 36.14C3.70953 36.14 3.66753 36.168 3.65353 36.168L3.63953 36.182Z" fill="#081017"/>
<path d="M3.41794 33.718H1.91994C1.91994 33.718 1.83594 33.69 1.83594 33.634V33.312C1.83594 33.312 1.86394 33.228 1.91994 33.228C1.97594 33.228 2.00394 33.256 2.00394 33.312V33.55H3.41794C3.41794 33.55 3.50194 33.578 3.50194 33.634C3.50194 33.69 3.47394 33.718 3.41794 33.718Z" fill="#081017"/>
<path d="M3.79359 34.4181H2.26759C2.26759 34.4181 2.18359 34.3901 2.18359 34.3341V34.0681C2.18359 34.0681 2.21159 33.9841 2.26759 33.9841C2.32359 33.9841 2.35159 34.0121 2.35159 34.0681V34.2641H3.80759C3.80759 34.2641 3.89159 34.2921 3.89159 34.3481C3.89159 34.4041 3.86359 34.4321 3.80759 34.4321L3.79359 34.4181Z" fill="#081017"/>
<path d="M19.9368 27.7262H16.5488C16.5488 27.7262 16.4648 27.6982 16.4648 27.6422C16.4648 27.5862 16.4928 27.5582 16.5488 27.5582H19.8668V27.5302H19.0128C18.6488 27.5302 18.3548 27.2362 18.3548 26.8722C18.3548 26.5082 18.5788 26.1442 18.9288 25.9902L19.3488 25.8082C19.7828 25.6122 20.2728 25.5842 20.7348 25.7242C21.0708 25.8222 21.2948 26.1302 21.2948 26.4802V26.7322C21.2948 27.1102 20.9868 27.4182 20.6088 27.4182C20.5668 27.4182 20.5248 27.3902 20.5248 27.3342C20.5248 27.2782 20.5528 27.2502 20.6088 27.2502C20.9028 27.2502 21.1408 27.0122 21.1408 26.7182V26.4662C21.1408 26.1862 20.9588 25.9342 20.6928 25.8502C20.2728 25.7242 19.8248 25.7382 19.4188 25.9202L18.9988 26.1022C18.7048 26.2282 18.5088 26.5222 18.5088 26.8442C18.5088 27.1242 18.7328 27.3482 19.0128 27.3482H19.9508C19.9508 27.3482 20.0348 27.3762 20.0348 27.4322V27.6142C20.0348 27.6142 20.0068 27.6982 19.9508 27.6982L19.9368 27.7262Z" fill="#081017"/>
<path d="M54.9947 29.6722H52.1947C51.2007 29.6722 50.2347 29.2662 49.5347 28.5522L49.2687 28.2722C49.1847 28.1882 49.1567 28.0622 49.2127 27.9642C49.2547 27.8522 49.3667 27.7822 49.4787 27.7822H52.7127C52.7127 27.7822 52.7687 27.7822 52.7827 27.8102L52.8807 27.9502H54.2667C54.2667 27.9502 54.3507 27.9782 54.3507 28.0342C54.3507 28.0902 54.3227 28.1182 54.2667 28.1182H52.8387C52.8387 28.1182 52.7827 28.1182 52.7687 28.0902L52.6707 27.9502H49.4787C49.4787 27.9502 49.3807 27.9782 49.3527 28.0342C49.3247 28.0902 49.3527 28.1462 49.3807 28.1742L49.6467 28.4542C50.3187 29.1402 51.2427 29.5322 52.1947 29.5322H54.9947C54.9947 29.5322 55.0787 29.5602 55.0787 29.6162C55.0787 29.6722 55.0507 29.7002 54.9947 29.7002V29.6722Z" fill="#081017"/>
<path d="M54.8242 29.3082H53.3822C53.3822 29.3082 53.3402 29.3082 53.3262 29.2802L52.3462 28.2442H49.8262C49.8262 28.2442 49.7422 28.2162 49.7422 28.1602C49.7422 28.1042 49.7702 28.0762 49.8262 28.0762H52.3742C52.3742 28.0762 52.4162 28.0762 52.4302 28.1042L53.4102 29.1402H54.8242C54.8242 29.1402 54.9082 29.1682 54.9082 29.2242C54.9082 29.2802 54.8802 29.3082 54.8242 29.3082Z" fill="#081017"/>
<path d="M38.6285 37.0781H37.8305L35.3665 36.5601H19.1405L17.7965 36.9801C17.7965 36.9801 17.7825 36.9801 17.7685 36.9801H16.9565C16.9565 36.9801 16.9145 36.9801 16.9005 36.9521C16.8865 36.9381 16.8725 36.9101 16.8725 36.8961C16.8725 36.8961 16.8865 36.0001 16.3265 34.2221C16.0745 33.3961 14.8285 30.7641 9.64853 31.2121C5.65853 31.5621 5.39253 36.3921 5.39253 36.4341C5.39253 36.4761 5.35053 36.5041 5.30853 36.5041H0.478531C0.478531 36.5041 0.394531 36.4761 0.394531 36.4201V31.5901C0.394531 31.5901 0.394531 31.5481 0.422531 31.5341L0.688531 31.2961C1.43053 30.6381 2.27053 30.1201 3.19453 29.7561L6.75053 28.3701C6.75053 28.3701 6.75053 28.3701 6.76453 28.3701L14.7725 27.5441L22.4305 23.4841C23.2425 23.0501 24.1105 22.6861 24.9925 22.3921C25.4685 22.2381 26.0005 22.1121 26.5605 22.0281L27.6105 21.8601C27.6105 21.8601 27.6945 21.8881 27.6945 21.9301C27.6945 21.9721 27.6665 22.0141 27.6245 22.0141L26.5745 22.1821C26.0285 22.2661 25.5105 22.3921 25.0345 22.5461C24.1665 22.8401 23.3125 23.2041 22.5005 23.6241L14.8285 27.6841C14.8285 27.6841 14.8145 27.6841 14.8005 27.6841L6.79253 28.5101L3.25053 29.8961C2.34053 30.2461 1.51453 30.7641 0.786531 31.4081L0.534531 31.6321V36.3501H5.25253C5.28053 36.0561 5.39253 34.9781 5.88253 33.8721C6.63853 32.1641 7.94053 31.1841 9.64853 31.0441C14.9545 30.5821 16.2285 33.3121 16.4945 34.1661C16.9705 35.7061 17.0405 36.5601 17.0405 36.8121H17.7545L19.0985 36.3921C19.0985 36.3921 19.1125 36.3921 19.1265 36.3921H35.3805L37.8445 36.9101H38.5445C38.5445 36.4761 38.6845 34.3341 40.1825 32.8081C41.2605 31.7021 42.8005 31.1561 44.7465 31.1561C47.9665 31.1561 49.8005 32.8361 50.2065 36.1401H54.5325C54.9525 36.1401 55.2885 35.8041 55.2885 35.3841V29.8401C55.2885 29.6581 55.2325 29.4761 55.1205 29.3361L54.5045 28.5381C54.4205 28.4261 54.3785 28.2721 54.3925 28.1321L54.4345 27.6701C54.4625 27.3481 54.3085 27.0401 54.0285 26.8721L49.3665 24.1001C49.3665 24.1001 49.3245 24.0581 49.3245 24.0301C49.3245 24.0021 49.3525 23.9741 49.3805 23.9601L50.1645 23.7501C50.2905 23.7221 50.3745 23.6101 50.4025 23.4841V23.3861L48.1905 23.1061C48.1485 23.1061 48.1205 23.0641 48.1205 23.0221C48.1205 22.9801 48.1625 22.9521 48.2045 22.9521L50.5145 23.2321C50.5145 23.2321 50.5565 23.2321 50.5705 23.2601C50.5845 23.2881 50.5845 23.3021 50.5845 23.3161L50.5565 23.4981C50.5285 23.6941 50.3885 23.8481 50.2065 23.8901L49.5905 24.0581L54.0985 26.7321C54.4205 26.9281 54.6165 27.3061 54.5745 27.6841L54.5325 28.1461C54.5325 28.2581 54.5465 28.3561 54.6165 28.4401L55.2325 29.2381C55.3585 29.4061 55.4425 29.6301 55.4425 29.8401V35.3841C55.4425 35.8881 55.0365 36.2941 54.5325 36.2941H50.1365C50.1365 36.2941 50.0665 36.2661 50.0665 36.2241C49.6885 32.9201 47.9525 31.3101 44.7605 31.3101C42.8565 31.3101 41.3585 31.8561 40.3085 32.9201C38.6845 34.5721 38.7125 36.9661 38.7125 36.9941C38.7125 37.0081 38.7125 37.0361 38.6845 37.0501C38.6705 37.0641 38.6565 37.0781 38.6285 37.0781Z" fill="#081017"/>
<path d="M44.2582 37.6942C44.4979 37.6942 44.6922 37.4999 44.6922 37.2602C44.6922 37.0205 44.4979 36.8262 44.2582 36.8262C44.0185 36.8262 43.8242 37.0205 43.8242 37.2602C43.8242 37.4999 44.0185 37.6942 44.2582 37.6942Z" fill="black"/>
<path d="M44.2579 37.7641C43.9779 37.7641 43.7539 37.5401 43.7539 37.2601C43.7539 36.9801 43.9779 36.7561 44.2579 36.7561C44.5379 36.7561 44.7619 36.9801 44.7619 37.2601C44.7619 37.5401 44.5379 37.7641 44.2579 37.7641ZM44.2579 36.9101C44.0619 36.9101 43.9079 37.0641 43.9079 37.2601C43.9079 37.4561 44.0619 37.6101 44.2579 37.6101C44.4539 37.6101 44.6079 37.4561 44.6079 37.2601C44.6079 37.0641 44.4539 36.9101 44.2579 36.9101Z" fill="#081017"/>
<path d="M43.7253 34.1943C43.7953 34.0683 43.9353 33.9983 44.0753 33.9983C44.2993 33.9983 44.6213 33.9983 44.8313 34.0543C44.9433 34.0683 45.0133 34.1803 44.9713 34.2783C44.7193 35.1183 44.3833 36.3083 44.3833 36.3083L44.5793 36.1963C44.5793 36.1963 44.6073 36.1683 44.6213 36.1543L45.2373 34.7963C45.2933 34.6843 45.3913 34.5863 45.5033 34.5303C45.6853 34.4463 45.8813 34.4743 46.0353 34.6003L46.3433 34.8523C46.3433 34.8523 46.4133 35.0063 46.3433 35.0483L44.2433 36.6723C44.0333 36.8263 43.7393 36.7003 43.7113 36.4483L43.5573 34.7683C43.5433 34.5723 43.5853 34.3763 43.6833 34.2083L43.7253 34.1943Z" fill="#E6E6E6"/>
<path d="M47.0452 35.8322C47.1852 35.8602 47.2972 35.9722 47.3392 36.1122C47.3952 36.3222 47.4792 36.6302 47.5072 36.8542C47.5212 36.9662 47.4372 37.0642 47.3252 37.0642C46.4572 37.0642 45.2112 37.0922 45.2112 37.0922L45.3792 37.2462C45.3792 37.2462 45.4212 37.2742 45.4352 37.2742L46.9052 37.4702C47.0312 37.4842 47.1572 37.5542 47.2412 37.6522C47.3672 37.8062 47.3952 38.0022 47.3252 38.1842L47.1852 38.5622C47.1572 38.6462 47.0592 38.6742 46.9892 38.6182L44.8192 37.0782C44.6092 36.9242 44.6512 36.6022 44.8892 36.5042L46.4432 35.8742C46.6252 35.8042 46.8212 35.7902 47.0172 35.8322H47.0452Z" fill="#E6E6E6"/>
<path d="M46.4407 39.4862C46.4407 39.6262 46.3847 39.7662 46.2587 39.8502C46.0767 39.9762 45.8107 40.1442 45.6007 40.2282C45.5027 40.2702 45.3907 40.2282 45.3487 40.1162C45.0827 39.2902 44.7047 38.1142 44.7047 38.1142L44.6067 38.3242C44.6067 38.3242 44.6067 38.3662 44.6067 38.3942L44.8447 39.8642C44.8727 39.9902 44.8447 40.1302 44.7747 40.2282C44.6767 40.3962 44.4807 40.4802 44.2847 40.4662L43.8927 40.4382C43.8087 40.4382 43.7527 40.3542 43.7807 40.2702L44.6207 37.7502C44.7047 37.4982 45.0267 37.4422 45.1807 37.6522L46.2447 38.9542C46.3707 39.1082 46.4407 39.2902 46.4547 39.4862H46.4407Z" fill="#E6E6E6"/>
<path d="M42.7736 39.9763C42.6336 40.0323 42.4796 40.0043 42.3676 39.9063C42.1996 39.7663 41.9616 39.5563 41.8076 39.3883C41.7376 39.3043 41.7516 39.1783 41.8356 39.1223C42.5496 38.6323 43.5716 37.9183 43.5716 37.9183L43.3476 37.8903C43.3476 37.8903 43.3056 37.8903 43.2776 37.8903L41.9476 38.5483C41.8356 38.6043 41.6956 38.6183 41.5696 38.5903C41.3876 38.5343 41.2336 38.3803 41.1916 38.1983L41.1076 37.8063C41.0936 37.7223 41.1496 37.6523 41.2336 37.6523L43.8936 37.7083C44.1596 37.7083 44.2996 38.0023 44.1596 38.2263L43.2216 39.6263C43.1096 39.7943 42.9556 39.9063 42.7736 39.9763Z" fill="#E6E6E6"/>
<path d="M41.2336 36.6162C41.1496 36.5042 41.1216 36.3502 41.1776 36.2102C41.2616 36.0142 41.3876 35.7202 41.5136 35.5242C41.5696 35.4262 41.6956 35.4122 41.7796 35.4822C42.4656 36.0282 43.4316 36.7842 43.4316 36.7842L43.4036 36.5602C43.4036 36.5602 43.4036 36.5182 43.3756 36.5042L42.3536 35.4262C42.2696 35.3282 42.2136 35.2022 42.2136 35.0762C42.2136 34.8802 42.3116 34.6982 42.4796 34.6002L42.8296 34.4042C42.8996 34.3622 42.9976 34.4042 43.0116 34.4742L43.7256 37.0362C43.7956 37.2882 43.5576 37.5122 43.3196 37.4422L41.7096 36.9522C41.5276 36.8962 41.3596 36.7842 41.2336 36.6302V36.6162Z" fill="#E6E6E6"/>
<path d="M44.258 32.7522C41.766 32.7522 39.75 34.7682 39.75 37.2602C39.75 39.7522 41.766 41.7682 44.258 41.7682C46.75 41.7682 48.766 39.7522 48.766 37.2602C48.766 34.7682 46.75 32.7522 44.258 32.7522ZM44.258 40.6482C42.382 40.6482 40.87 39.1362 40.87 37.2602C40.87 35.3842 42.382 33.8722 44.258 33.8722C46.134 33.8722 47.646 35.3842 47.646 37.2602C47.646 39.1362 46.134 40.6482 44.258 40.6482Z" fill="#E10098"/>
<path d="M44.2561 41.8522C41.7221 41.8522 39.6641 39.7942 39.6641 37.2602C39.6641 34.7262 41.7221 32.6682 44.2561 32.6682C46.7901 32.6682 48.8481 34.7262 48.8481 37.2602C48.8481 39.7942 46.7901 41.8522 44.2561 41.8522ZM44.2561 32.8222C41.8061 32.8222 39.8181 34.8102 39.8181 37.2602C39.8181 39.7102 41.8061 41.6982 44.2561 41.6982C46.7061 41.6982 48.6941 39.7102 48.6941 37.2602C48.6941 34.8102 46.7061 32.8222 44.2561 32.8222ZM44.2561 40.7322C42.3381 40.7322 40.7841 39.1782 40.7841 37.2602C40.7841 35.3422 42.3381 33.7882 44.2561 33.7882C46.1741 33.7882 47.7281 35.3422 47.7281 37.2602C47.7281 39.1782 46.1741 40.7322 44.2561 40.7322ZM44.2561 33.9422C42.4221 33.9422 40.9381 35.4262 40.9381 37.2602C40.9381 39.0942 42.4221 40.5782 44.2561 40.5782C46.0901 40.5782 47.5741 39.0942 47.5741 37.2602C47.5741 35.4262 46.0901 33.9422 44.2561 33.9422Z" fill="#081017"/>
<path d="M35.0733 22.9102C34.4013 22.9102 33.4073 22.8542 32.5253 22.5882C31.8393 22.3922 31.2233 21.9722 30.7333 21.3842C30.0333 20.5582 29.6553 19.9982 29.6133 19.7322C29.6133 19.6902 29.6413 19.6482 29.6833 19.6482C29.7253 19.6482 29.7673 19.6762 29.7673 19.7182C29.8093 19.9422 30.1873 20.5022 30.8453 21.2862C31.3213 21.8462 31.9093 22.2382 32.5673 22.4342C34.0233 22.8682 35.8013 22.7142 35.8293 22.7142C35.8713 22.7142 35.9133 22.7422 35.9133 22.7842C35.9133 22.8262 35.8853 22.8682 35.8433 22.8682C35.8433 22.8682 35.5353 22.8962 35.0873 22.8962L35.0733 22.9102Z" fill="#081017"/>
<path d="M37.3965 23.862C37.3965 23.862 37.3265 23.834 37.3125 23.792C37.3125 23.75 37.3405 23.708 37.3825 23.708C37.7465 23.694 37.9985 23.582 38.1245 23.4C38.2925 23.162 38.2225 22.868 38.2225 22.868C38.2225 22.826 38.2365 22.784 38.2785 22.77C38.3205 22.77 38.3625 22.77 38.3765 22.826C38.3765 22.84 38.4745 23.19 38.2505 23.484C38.0825 23.708 37.7885 23.834 37.3825 23.862H37.3965Z" fill="#081017"/>
<path d="M35.7591 26.942C35.7591 26.942 35.7031 26.928 35.6891 26.9C35.6751 26.858 35.6891 26.816 35.7171 26.788C35.7171 26.788 36.5851 26.298 36.5011 25.528C36.4171 24.758 35.9551 24.464 35.9551 24.464C35.9131 24.436 35.9131 24.394 35.9271 24.352C35.9551 24.31 35.9971 24.31 36.0391 24.324C36.0671 24.324 36.5711 24.646 36.6691 25.5C36.7671 26.368 35.8571 26.886 35.8151 26.914C35.8151 26.914 35.7871 26.914 35.7731 26.914L35.7591 26.942Z" fill="#081017"/>
<path d="M41.4571 26.3821C41.4571 26.3821 41.3871 26.3541 41.3871 26.3261C40.9531 24.0581 38.9651 23.0361 38.9371 23.0221C38.8951 23.0081 38.8811 22.9521 38.9091 22.9241C38.9371 22.8961 38.9791 22.8681 39.0071 22.8961C39.0211 22.8961 41.0791 23.9741 41.5271 26.3121C41.5271 26.3541 41.5131 26.3961 41.4711 26.3961C41.4711 26.3961 41.4711 26.3961 41.4571 26.3961V26.3821Z" fill="#081017"/>
<path d="M40.1806 23.9742C40.1806 23.9742 40.1526 23.9742 40.1386 23.9742C40.1106 23.9462 40.0966 23.9042 40.1246 23.8622C40.1246 23.8482 40.4186 23.4422 41.0206 23.2742C41.0626 23.2742 41.1046 23.2742 41.1186 23.3302C41.1186 23.3722 41.1186 23.4142 41.0626 23.4282C40.5026 23.5822 40.2506 23.9602 40.2506 23.9602C40.2366 23.9882 40.2086 23.9882 40.1806 23.9882V23.9742Z" fill="#081017"/>
<path d="M34.8917 24.8281C34.4857 24.8281 34.2617 24.7861 34.2337 24.7861C34.2057 24.7861 34.1917 24.7581 34.1777 24.7441C34.1777 24.7161 34.1777 24.6881 34.1777 24.6741C34.5557 24.0441 33.9117 22.8261 33.9117 22.8261C33.8977 22.7841 33.9117 22.7421 33.9397 22.7281C33.9817 22.7141 34.0237 22.7281 34.0377 22.7561C34.0657 22.8121 34.6537 23.9461 34.3597 24.6601C34.5977 24.6881 35.2417 24.7301 36.2077 24.5621C36.2497 24.5621 36.2917 24.5901 36.2917 24.6181C36.2917 24.6601 36.2777 24.7021 36.2217 24.7021C35.6617 24.8001 35.2137 24.8281 34.8777 24.8281H34.8917Z" fill="#081017"/>
<path d="M33.9929 24.478C31.5709 24.184 30.1849 22.714 29.4569 21.524C29.4289 21.482 29.4569 21.44 29.4849 21.412C29.5269 21.384 29.5689 21.412 29.5969 21.44C30.3109 22.602 31.6689 24.03 34.0209 24.324C34.0629 24.324 34.0909 24.366 34.0909 24.408C34.0909 24.45 34.0489 24.478 34.0209 24.478H33.9929Z" fill="#081017"/>
<path d="M37.593 20.698L37.481 20.656C37.369 20.614 37.243 20.614 37.131 20.656L36.627 20.894C36.473 20.964 36.375 21.118 36.375 21.286V21.314C36.375 21.426 36.417 21.524 36.487 21.608L36.543 21.678C36.669 21.804 36.851 21.846 37.019 21.776L37.551 21.566C37.663 21.524 37.747 21.44 37.789 21.328L37.817 21.258C37.873 21.132 37.859 20.992 37.789 20.88C37.747 20.796 37.677 20.74 37.579 20.698H37.593Z" fill="#E10098"/>
<path d="M36.3735 21.3561H35.9255C35.9255 21.3561 35.8555 21.3141 35.8555 21.2721C35.8555 21.2301 35.8975 21.2021 35.9395 21.2021H36.3875C36.3875 21.2021 36.4575 21.2441 36.4575 21.2861C36.4575 21.3281 36.4155 21.3561 36.3735 21.3561Z" fill="#081017"/>
<path d="M37.7856 21.0061C37.7856 21.0061 37.7436 21.0061 37.7296 20.9921C37.7016 20.9641 37.6876 20.9221 37.7296 20.8801C37.9536 20.6281 38.1356 20.6701 38.1636 20.6701C38.2056 20.6701 38.2336 20.7261 38.2196 20.7681C38.2196 20.8101 38.1636 20.8381 38.1216 20.8241C38.1216 20.8241 37.9956 20.8101 37.8416 20.9781C37.8276 20.9921 37.7996 21.0061 37.7856 21.0061Z" fill="#081017"/>
<path d="M38.2907 20.2081C38.1927 20.2921 38.1367 20.4041 38.1367 20.5441V20.5721C38.1367 20.6841 38.1787 20.7821 38.2487 20.8661L38.3047 20.9361C38.4307 21.0621 38.6127 21.1041 38.7807 21.0341L39.3127 20.8241C39.4247 20.7821 39.5087 20.6981 39.5507 20.5861L39.5787 20.5161C39.6347 20.3901 39.6207 20.2501 39.5507 20.1381C39.5087 20.0541 39.4387 19.9981 39.3407 19.9561L39.2287 19.9141C39.1167 19.8721 38.9907 19.8721 38.8787 19.9141L38.3747 20.1521C38.3747 20.1521 38.3187 20.1801 38.2907 20.2081Z" fill="#E10098"/>
<path d="M37.7717 22.7001C37.0017 22.7001 36.8477 22.0561 36.8477 22.0561C36.8477 22.0421 36.8477 22.0141 36.8477 22.0001C36.8477 21.9861 36.8757 21.9721 36.9037 21.9721L37.9537 21.7761C37.9537 21.7761 38.0377 21.7901 38.0377 21.8321C38.0377 21.8741 38.0237 21.9161 37.9817 21.9161L37.0297 22.0841C37.0997 22.2381 37.2957 22.5321 37.7997 22.5321C37.7997 22.5321 37.8697 22.5601 37.8837 22.6021C37.8837 22.6441 37.8557 22.6861 37.8137 22.6861C37.8137 22.6861 37.8137 22.6861 37.7997 22.6861L37.7717 22.7001Z" fill="#081017"/>
<path d="M35.8273 22.0841C35.4353 22.0841 35.1133 21.7621 35.1133 21.3701C35.1133 20.9781 35.4353 20.6561 35.8273 20.6561H36.1913L36.2613 20.5161C36.2613 20.5161 36.3033 20.4741 36.3313 20.4741H36.8633C37.5493 20.4741 38.1233 19.9141 38.1233 19.2141C38.1233 19.1721 38.1513 19.1301 38.2073 19.1301C38.2633 19.1301 38.2913 19.1581 38.2913 19.2141C38.2913 19.9981 37.6613 20.6281 36.8773 20.6281H36.3873L36.3173 20.7681C36.3173 20.7681 36.2753 20.8101 36.2473 20.8101H35.8273C35.5193 20.8101 35.2673 21.0621 35.2673 21.3701C35.2673 21.6781 35.5193 21.9301 35.8273 21.9301C35.8693 21.9301 35.9113 21.9581 35.9113 22.0141C35.9113 22.0701 35.8833 22.0981 35.8273 22.0981V22.0841Z" fill="#081017"/>
<path d="M47.2927 23.3442H42.5047C42.1407 23.3442 41.8327 23.0502 41.8327 22.6722C41.8327 22.3502 41.5667 22.0982 41.2587 22.0982H38.8227C38.8227 22.0982 38.7387 22.0702 38.7387 22.0142C38.7387 21.9582 38.7667 21.9302 38.8227 21.9302H41.2587C41.6647 21.9302 41.9867 22.2522 41.9867 22.6582C41.9867 22.9382 42.2247 23.1762 42.5047 23.1762H47.2927C47.7827 23.1762 48.1747 22.7842 48.1747 22.2942C48.1747 21.8042 47.7827 21.4122 47.2927 21.4122H45.0387C44.6607 21.4122 44.3387 21.1042 44.3387 20.7122C44.3387 20.2782 43.9747 19.9142 43.5407 19.9142H41.1327C40.3207 19.9142 39.5227 19.6342 38.8927 19.1022C38.8927 19.1022 38.8927 19.1022 38.8927 19.0882C38.5287 18.5702 37.9267 18.2622 37.2827 18.2622H37.1847C35.9527 18.2622 34.9587 19.2702 34.9587 20.4882V21.0062C34.9587 21.7482 35.5607 22.3642 36.3167 22.3642C36.3587 22.3642 36.4007 22.3922 36.4007 22.4482C36.4007 22.5042 36.3727 22.5322 36.3167 22.5322C35.4907 22.5322 34.8047 21.8602 34.8047 21.0202V20.5022C34.8047 19.1862 35.8827 18.1082 37.1987 18.1082H37.2967C37.9827 18.1082 38.6267 18.4442 39.0187 18.9902C39.6207 19.4802 40.3767 19.7602 41.1467 19.7602H43.5547C44.0867 19.7602 44.5067 20.1942 44.5067 20.7122C44.5067 21.0062 44.7447 21.2582 45.0527 21.2582H47.3067C47.8807 21.2582 48.3427 21.7202 48.3427 22.2942C48.3427 22.8682 47.8807 23.3302 47.3067 23.3302L47.2927 23.3442Z" fill="#F61BA3"/>
<path d="M29.6965 19.8162C29.6545 19.8162 29.6265 19.7742 29.6265 19.7322L29.7385 18.2762C29.7385 18.2762 29.7105 18.2062 29.6545 18.1922C29.6265 18.1922 29.6125 18.1922 29.5845 18.2062C29.5705 18.2202 29.5565 18.2482 29.5565 18.2622L29.5285 18.5562C29.5285 18.6682 29.4305 18.7662 29.3185 18.7942C29.2625 18.8082 29.2205 18.8502 29.2065 18.9062L29.1225 19.2702C29.1225 19.2702 29.0665 19.3402 29.0245 19.3262C28.9825 19.3262 28.9545 19.2702 28.9685 19.2282L29.0525 18.8642C29.0805 18.7522 29.1645 18.6682 29.2765 18.6402C29.3185 18.6402 29.3605 18.5842 29.3605 18.5422L29.3885 18.2482C29.3885 18.2482 29.4305 18.1222 29.4725 18.0802C29.5285 18.0382 29.5845 18.0242 29.6545 18.0242C29.7805 18.0382 29.8645 18.1362 29.8645 18.2622L29.7525 19.7322C29.7525 19.7322 29.7105 19.8022 29.6685 19.8022L29.6965 19.8162Z" fill="#081017"/>
<path d="M29.2471 18.8081C29.2471 18.8081 29.1771 18.7801 29.1771 18.7521L28.8131 17.5061C28.8131 17.5061 28.7291 17.4221 28.6731 17.4361C28.6171 17.4501 28.5751 17.5201 28.5891 17.5761L28.8271 18.5981C28.8271 18.5981 28.8131 18.6821 28.7711 18.6961C28.7291 18.6961 28.6871 18.6821 28.6731 18.6401L28.4351 17.6181C28.4071 17.4781 28.4911 17.3381 28.6311 17.2961C28.7711 17.2541 28.9111 17.3381 28.9531 17.4641L29.3171 18.7101C29.3171 18.7101 29.3171 18.7941 29.2611 18.8081C29.2611 18.8081 29.2471 18.8081 29.2331 18.8081H29.2471Z" fill="#081017"/>
<path d="M28.4076 18.906C28.4076 18.906 28.3516 18.892 28.3376 18.85L27.9316 17.716C27.8756 17.576 27.9316 17.422 28.0716 17.366C28.1416 17.338 28.2116 17.338 28.2816 17.366C28.3516 17.394 28.4076 17.45 28.4356 17.52L28.7856 18.458C28.7856 18.458 28.7856 18.542 28.7436 18.556C28.7016 18.57 28.6596 18.556 28.6456 18.514L28.2956 17.576C28.2956 17.576 28.2676 17.52 28.2256 17.52C28.1976 17.52 28.1556 17.52 28.1276 17.52C28.0716 17.548 28.0436 17.618 28.0716 17.674L28.4776 18.808C28.4776 18.808 28.4776 18.892 28.4356 18.906C28.4356 18.906 28.4216 18.906 28.4076 18.906Z" fill="#081017"/>
<path d="M28.1977 19.2701C28.1977 19.2701 28.1417 19.2561 28.1277 19.2281L27.6937 18.2481C27.6937 18.2481 27.6657 18.1221 27.6797 18.0661C27.6937 18.0101 27.7357 17.9541 27.8057 17.9261C27.9177 17.8701 28.0577 17.9121 28.1277 18.0241L28.4917 18.8081C28.4917 18.8081 28.4917 18.8921 28.4497 18.9061C28.4077 18.9201 28.3657 18.9061 28.3517 18.8641L28.0017 18.0941C28.0017 18.0941 27.9317 18.0521 27.8897 18.0661C27.8617 18.0661 27.8477 18.0941 27.8477 18.1221C27.8477 18.1501 27.8477 18.1641 27.8477 18.1921L28.2817 19.1861C28.2817 19.1861 28.2817 19.2701 28.2397 19.2841C28.2397 19.2841 28.2257 19.2841 28.2117 19.2841L28.1977 19.2701Z" fill="#081017"/>
<path d="M29.5144 21.5522C29.5144 21.5522 29.4584 21.5522 29.4444 21.5102L28.7164 20.3762C28.7164 20.3762 28.5904 20.2782 28.4924 20.1942C28.2544 19.9982 28.0584 19.7462 27.9324 19.4662L27.6384 18.8082C27.5824 18.7102 27.6244 18.5702 27.7224 18.5142C27.7504 18.5002 27.7784 18.5002 27.8064 18.5142C27.8904 18.5422 27.9744 18.6542 28.1144 18.9062L28.1984 19.0742C28.1984 19.0742 28.1984 19.1582 28.1704 19.1722C28.1284 19.1862 28.0864 19.1722 28.0724 19.1442L27.9884 18.9762C27.8764 18.7662 27.8204 18.6962 27.7924 18.6682C27.7784 18.6962 27.7644 18.7242 27.7924 18.7522L28.0864 19.4102C28.1984 19.6762 28.3804 19.9002 28.6044 20.0822C28.7304 20.1802 28.8424 20.2782 28.8424 20.2782C28.8424 20.2782 28.8424 20.2782 28.8564 20.2922L29.5844 21.4402C29.5844 21.4402 29.5844 21.5242 29.5564 21.5522C29.5564 21.5522 29.5284 21.5522 29.5144 21.5522Z" fill="#081017"/>
<path d="M37.4105 23.1482C36.4865 23.1482 35.7305 22.3922 35.7305 21.4682C35.7305 21.4262 35.7585 21.3842 35.8145 21.3842C35.8705 21.3842 35.8985 21.4122 35.8985 21.4682C35.8985 22.3082 36.5845 22.9942 37.4245 22.9942C38.2645 22.9942 38.9505 22.3082 38.9505 21.4682C38.9505 21.3422 38.9365 21.2022 38.9085 21.0902C38.9085 21.0482 38.9225 21.0062 38.9645 20.9922C39.0065 20.9922 39.0485 21.0062 39.0625 21.0482C39.1045 21.1882 39.1185 21.3282 39.1185 21.4682C39.1185 22.3922 38.3625 23.1482 37.4385 23.1482H37.4105Z" fill="#081017"/>
</svg>
