<svg width="34" height="33" viewBox="0 0 34 33" fill="none" xmlns="http://www.w3.org/2000/svg">
<g clip-path="url(#clip0_4315_253237)">
<path d="M12.9961 0.484375C10.7272 0.484375 8.99219 2.2194 8.99219 4.48828C8.99219 6.75716 10.7272 8.49219 12.9961 8.49219C14.7311 8.49219 16.1992 7.42448 16.7331 5.82292H19.6693V8.49219H22.3385V5.82292H25.0078V3.15365H16.7331C16.1992 1.55208 14.7311 0.484375 12.9961 0.484375ZM12.9961 3.15365C13.7969 3.15365 14.3307 3.6875 14.3307 4.48828C14.3307 5.28906 13.7969 5.82292 12.9961 5.82292C12.1953 5.82292 11.6615 5.28906 11.6615 4.48828C11.6615 3.6875 12.1953 3.15365 12.9961 3.15365ZM9.6595 11.1615C8.72526 11.1615 8.05794 11.6953 7.79102 12.4961L4.98828 20.5039V31.181C4.98828 31.9818 5.52214 32.5156 6.32292 32.5156H7.65755C8.45833 32.5156 8.99219 31.9818 8.99219 31.181V29.8464H25.0078V31.181C25.0078 31.9818 25.5417 32.5156 26.3424 32.5156H27.6771C28.4779 32.5156 29.0117 31.9818 29.0117 31.181V20.5039L26.209 12.4961C25.9421 11.6953 25.1413 11.1615 24.3405 11.1615H9.6595ZM9.6595 13.1634H24.3405L26.3424 19.1693H7.65755L9.6595 13.1634ZM9.6595 21.8385C10.7272 21.8385 11.6615 22.7728 11.6615 23.8405C11.6615 24.9082 10.7272 25.8424 9.6595 25.8424C8.5918 25.8424 7.65755 24.9082 7.65755 23.8405C7.65755 22.7728 8.5918 21.8385 9.6595 21.8385ZM24.3405 21.8385C25.4082 21.8385 26.3424 22.7728 26.3424 23.8405C26.3424 24.9082 25.4082 25.8424 24.3405 25.8424C23.2728 25.8424 22.3385 24.9082 22.3385 23.8405C22.3385 22.7728 23.2728 21.8385 24.3405 21.8385Z" fill="currentColor"/>
</g>
<defs>
<clipPath id="clip0_4315_253237">
<rect width="32.0312" height="32.0312" fill="white" transform="translate(0.984375 0.484375)"/>
</clipPath>
</defs>
</svg>
