<svg width="26" height="16" viewBox="0 0 26 16" fill="none" xmlns="http://www.w3.org/2000/svg">
<path d="M10.3539 10.5044C9.99533 10.5038 9.64014 10.5742 9.30862 10.7118C8.97709 10.8493 8.67574 11.0512 8.42174 11.3059C8.16775 11.5606 7.9661 11.8632 7.82831 12.1964C7.69051 12.5295 7.61927 12.8867 7.61866 13.2476C7.61804 13.6085 7.68806 13.9659 7.82471 14.2995C7.96136 14.6332 8.16198 14.9364 8.41509 15.192C8.66821 15.4477 8.96888 15.6506 9.29993 15.7893C9.63098 15.9279 9.98593 15.9996 10.3445 16.0002C11.85 16.0058 13.0795 14.7579 13.0723 13.2306C13.0644 12.5084 12.7751 11.8182 12.2668 11.3084C11.7584 10.7986 11.0716 10.5099 10.3539 10.5044ZM10.3362 14.0939C10.2262 14.0939 10.1173 14.0719 10.0158 14.0291C9.91427 13.9864 9.82225 13.9237 9.74504 13.8449C9.66784 13.766 9.60699 13.6724 9.56606 13.5696C9.52512 13.4669 9.50491 13.3569 9.5066 13.2462C9.5082 13.0227 9.59754 12.809 9.75513 12.6515C9.91272 12.4941 10.1258 12.4057 10.3478 12.4057C10.5701 12.4104 10.7819 12.5021 10.9379 12.6615C11.094 12.8209 11.1821 13.0352 11.1835 13.259C11.18 13.4824 11.0891 13.6954 10.9304 13.8518C10.7718 14.0081 10.5582 14.0951 10.3362 14.0939Z" fill="#E10098"/>
<path d="M19.2422 10.5035C18.7018 10.5003 18.1726 10.6585 17.7216 10.9582C17.2706 11.2579 16.9181 11.6855 16.7088 12.1869C16.4994 12.6883 16.4427 13.241 16.5456 13.7749C16.6486 14.3088 16.9067 14.7999 17.2872 15.1861C17.6677 15.5723 18.1535 15.8362 18.6831 15.9444C19.2128 16.0525 19.7624 16.0001 20.2624 15.7937C20.7624 15.5873 21.1903 15.2363 21.4919 14.785C21.7935 14.3337 21.9553 13.8025 21.9567 13.2586C21.9562 12.5321 21.6707 11.8352 21.1624 11.3193C20.6541 10.8034 19.9641 10.5102 19.2422 10.5035ZM19.2179 14.0935C19.1077 14.0928 18.9988 14.0702 18.8974 14.0269C18.796 13.9836 18.7041 13.9206 18.627 13.8415C18.5498 13.7623 18.4891 13.6686 18.4481 13.5657C18.4071 13.4628 18.3868 13.3528 18.3882 13.2419C18.3871 13.1295 18.4084 13.0179 18.4507 12.9138C18.493 12.8097 18.5556 12.7152 18.6347 12.6357C18.7139 12.5563 18.808 12.4936 18.9115 12.4513C19.0151 12.409 19.126 12.3879 19.2377 12.3893C19.3495 12.3907 19.4598 12.4146 19.5623 12.4595C19.6648 12.5044 19.7573 12.5695 19.8344 12.6509C19.9115 12.7323 19.9717 12.8283 20.0115 12.9335C20.0512 13.0386 20.0696 13.1507 20.0657 13.2631C20.0643 13.3736 20.0412 13.4828 19.9978 13.5844C19.9544 13.686 19.8915 13.778 19.8128 13.8551C19.7341 13.9322 19.641 13.993 19.5389 14.0339C19.4368 14.0748 19.3277 14.0951 19.2179 14.0935Z" fill="#E10098"/>
<path d="M25.2451 10.9043C25.2451 10.1996 25.2534 9.49444 25.2401 8.78923C25.2257 8.03949 24.7296 7.55748 23.9924 7.55414C23.4985 7.55414 23.004 7.54245 22.5112 7.55915C22.3027 7.56638 22.2175 7.49625 22.1578 7.2981C21.7419 5.92498 21.3149 4.55519 20.8885 3.18485C20.6413 2.39058 19.9947 1.90467 19.185 1.90467C18.063 1.90467 16.9406 1.90467 15.8178 1.90467C14.996 1.90467 14.5209 2.38947 14.5198 3.22325C14.5198 4.32606 14.5198 5.42849 14.5198 6.53056V6.84837C14.4379 6.85783 14.3937 6.86785 14.35 6.86785H14.2676C13.4932 6.86785 13.0137 6.86785 11.9015 6.8595C11.7969 6.8595 11.657 6.75876 11.5951 6.6647C10.3186 4.73108 9.04648 2.7943 7.77882 0.854374C7.59741 0.576076 7.45029 0.205382 7.19034 0.0751379C6.9138 -0.0606719 6.52167 0.0239311 6.18208 0.0500912C6.03493 0.0642369 5.89838 0.133342 5.79935 0.243787C4.45979 1.97666 3.12742 3.71491 1.80224 5.45855C1.57769 5.75299 1.6966 6.01515 2.0644 6.07804C2.4322 6.14094 2.63518 6.36636 2.62301 6.6903C2.61683 6.83608 2.55714 6.97438 2.45548 7.07843C2.35383 7.18248 2.21743 7.24489 2.07269 7.25357C1.74085 7.27306 1.50302 7.05877 1.4455 6.68418C1.40789 6.43649 1.2652 6.29957 1.06498 6.32016C0.864768 6.34076 0.733135 6.5261 0.754152 6.7788C0.780477 7.0553 0.89355 7.3162 1.077 7.52373C1.26045 7.73126 1.50477 7.87466 1.77458 7.93318C2.04969 7.98947 2.33555 7.9537 2.58858 7.8313C2.8416 7.70891 3.04792 7.50661 3.17609 7.25525C3.30665 7.00499 3.35061 6.71809 3.30103 6.43988C3.25145 6.16168 3.11115 5.90803 2.90231 5.71904C2.82488 5.64724 2.74082 5.58323 2.64403 5.50308L5.92324 1.21728L8.51442 6.86841H8.21188C7.36862 6.86841 6.52536 6.86841 5.68209 6.86841C4.80657 6.86841 4.33369 7.34374 4.33313 8.22317C4.33313 9.72375 4.33313 11.224 4.33313 12.7238V13.011C5.13399 13.011 5.90499 13.0155 6.67543 13.001C6.72742 13.001 6.81148 12.8596 6.82255 12.7784C7.03769 11.1114 8.44749 9.78331 10.1156 9.68758C11.8329 9.5885 13.3788 10.7267 13.7797 12.3854C13.8279 12.5858 13.8588 12.7901 13.8981 12.9943C14.762 12.9943 14.2731 13.0021 15.1287 13.0021V12.9943H15.6663C16.1702 10.8954 17.2669 9.80613 18.9881 9.69036C19.7469 9.63038 20.5041 9.8262 21.1401 10.247C22.1279 10.8954 22.6489 11.836 22.7784 13.0127H23.0195C24.0344 13.0127 24.2318 13.0177 25.2467 13.0066C25.2473 13.0088 25.2451 10.9494 25.2451 10.9043ZM20.5638 6.61238C20.5638 6.61683 20.5638 6.62184 20.5638 6.62852C20.5565 6.71121 20.5189 6.78821 20.4583 6.8445C20.3976 6.90079 20.3183 6.93233 20.2358 6.93298H16.2537C16.1665 6.93298 16.083 6.89814 16.0214 6.83614C15.9598 6.77414 15.9251 6.69004 15.9251 6.60236V3.33624C15.9257 3.25659 15.9546 3.17978 16.0065 3.11966C16.0585 3.05955 16.13 3.02009 16.2083 3.00841L16.2437 3.00284C16.2922 2.99309 16.3414 2.98787 16.3908 2.98726H17.3405C17.8382 2.98726 18.3576 2.98726 18.8653 2.98726H18.8692C19.248 2.98726 19.5395 3.1932 19.6507 3.53884C19.888 4.27801 20.1202 5.03164 20.3454 5.76022C20.415 5.9862 20.4842 6.21107 20.5539 6.43649C20.5705 6.49358 20.5739 6.55375 20.5638 6.61238Z" fill="#E10098"/>
</svg>
