<svg width="29" height="28" viewBox="0 0 29 28" fill="none" xmlns="http://www.w3.org/2000/svg">
<path fill-rule="evenodd" clip-rule="evenodd" d="M27.0961 2.03516H26.1513V2.97989C26.1513 4.02341 25.3054 4.86936 24.2619 4.86936C23.2184 4.86936 22.3724 4.02341 22.3724 2.97989V2.03516H19.5382V2.97989C19.5382 4.02341 18.6923 4.86936 17.6488 4.86936C16.6052 4.86936 15.7593 4.02341 15.7593 2.97989V2.03516H12.9251V2.97989C12.9251 4.02341 12.0791 4.86936 11.0356 4.86936C9.99209 4.86936 9.14615 4.02341 9.14615 2.97989V2.03516H6.31195V2.97989C6.31195 4.02341 5.46601 4.86936 4.42249 4.86936C3.37896 4.86936 2.53302 4.02341 2.53302 2.97989V2.03516H1.58829C1.06653 2.03516 0.643555 2.45813 0.643555 2.97989V6.75882H28.0408V2.97989C28.0408 2.45813 27.6178 2.03516 27.0961 2.03516Z" fill="currentColor"/>
<path fill-rule="evenodd" clip-rule="evenodd" d="M4.42325 3.92346C4.94501 3.92346 5.36798 3.50049 5.36798 2.97873V1.08926C5.36798 0.567503 4.94501 0.144531 4.42325 0.144531C3.90149 0.144531 3.47852 0.567503 3.47852 1.08926V2.97873C3.47852 3.50049 3.90149 3.92346 4.42325 3.92346Z" fill="currentColor"/>
<path fill-rule="evenodd" clip-rule="evenodd" d="M17.6488 3.92346C18.1706 3.92346 18.5936 3.50049 18.5936 2.97873V1.08926C18.5936 0.567503 18.1706 0.144531 17.6488 0.144531C17.1271 0.144531 16.7041 0.567503 16.7041 1.08926V2.97873C16.7041 3.50049 17.1271 3.92346 17.6488 3.92346Z" fill="currentColor"/>
<path fill-rule="evenodd" clip-rule="evenodd" d="M11.0356 3.92346C11.5573 3.92346 11.9803 3.50049 11.9803 2.97873V1.08926C11.9803 0.567503 11.5573 0.144531 11.0356 0.144531C10.5138 0.144531 10.0908 0.567503 10.0908 1.08926V2.97873C10.0908 3.50049 10.5138 3.92346 11.0356 3.92346Z" fill="currentColor"/>
<path fill-rule="evenodd" clip-rule="evenodd" d="M24.2621 3.92346C24.7839 3.92346 25.2068 3.50049 25.2068 2.97873V1.08926C25.2068 0.567503 24.7839 0.144531 24.2621 0.144531C23.7404 0.144531 23.3174 0.567503 23.3174 1.08926V2.97873C23.3174 3.50049 23.7404 3.92346 24.2621 3.92346Z" fill="currentColor"/>
<path fill-rule="evenodd" clip-rule="evenodd" d="M21.8999 17.6204C21.8999 13.4463 18.5161 10.0625 14.342 10.0625C10.168 10.0625 6.78418 13.4463 6.78418 17.6204C6.78893 21.7925 10.1699 25.1735 14.342 25.1782C18.5161 25.1782 21.8999 21.7945 21.8999 17.6204ZM14.2779 13.549C13.4889 13.549 13.164 13.1565 12.0185 13.1565C10.6559 13.1565 9.54752 14.2064 9.54752 15.497C9.54752 16.2505 9.67059 16.9974 9.91352 17.7166L11.1253 21.3034C11.2781 21.7563 11.7136 22.0606 12.2094 22.0606C12.6155 22.0606 12.9913 21.8491 13.19 21.5086L13.961 20.1868C14.0206 20.0849 14.1449 20.019 14.2778 20.019C14.4106 20.019 14.535 20.0849 14.5943 20.1865L15.3658 21.509C15.5649 21.8492 15.9405 22.0606 16.3463 22.0606C16.8419 22.0606 17.2776 21.7563 17.4304 21.3035L18.6421 17.7168C18.8849 16.9974 19.0081 16.2505 19.0081 15.497C19.0081 14.2064 17.8996 13.1565 16.5369 13.1565C15.3933 13.1565 15.0665 13.549 14.2779 13.549Z" fill="currentColor"/>
<path fill-rule="evenodd" clip-rule="evenodd" d="M0.643555 26.5978C0.643555 27.1195 1.06653 27.5425 1.58829 27.5425H27.0961C27.6178 27.5425 28.0408 27.1195 28.0408 26.5978V7.70312H0.643555V26.5978ZM14.3422 9.12023C19.0304 9.12023 22.8448 12.9346 22.8448 17.6228C22.8448 22.3111 19.0304 26.1254 14.3422 26.1254C9.65395 26.1254 5.83959 22.3111 5.83959 17.6228C5.83959 12.9346 9.65395 9.12023 14.3422 9.12023Z" fill="currentColor"/>
</svg>
