<svg width="154" height="165" viewBox="0 0 154 165" fill="none" xmlns="http://www.w3.org/2000/svg">
<path d="M131.964 66.6222C131.934 66.4173 131.898 66.2177 131.827 66.0216C131.818 66.0002 131.809 65.9789 131.802 65.9575C131.445 65.1127 131.088 64.2679 130.732 63.4231C130.707 63.3714 130.684 63.3215 130.653 63.2734C130.131 62.4215 129.526 61.5874 128.8 60.8959C128.784 60.8834 128.768 60.8692 128.75 60.8567C128.034 60.3042 127.318 59.7499 126.602 59.1974C126.559 59.1689 126.516 59.1386 126.47 59.1137C126.421 59.0887 126.373 59.0638 126.325 59.0388C126.236 59.1244 126.133 59.1974 126.015 59.2473C122.059 60.9013 117.76 61.6676 113.498 61.9563C109.817 62.2059 106.098 62.074 102.45 61.509C102.364 61.3682 102.248 61.2452 102.093 61.165C101.547 60.8763 100.984 61.0599 100.64 61.5464C100.577 61.6338 100.515 61.7229 100.454 61.8102C100.401 61.8654 100.347 61.9189 100.29 61.9706C100.274 61.9849 100.256 61.9991 100.24 62.0134C99.987 62.1845 99.7248 62.3324 99.4537 62.4696C99.3824 62.27 99.2576 62.0882 99.0971 61.9653C98.6905 61.6516 98.0717 61.6641 97.7025 62.049C96.5933 63.2075 95.855 64.6226 95.1791 66.0591C94.5085 67.4831 93.8113 68.8714 92.9392 70.1849C92.727 70.5057 92.5076 70.8212 92.2812 71.1349C92.1688 71.2917 92.0547 71.4468 91.9387 71.6018C91.8852 71.6731 91.8317 71.7462 91.7765 71.8175C91.7461 71.8585 91.714 71.8995 91.6837 71.9404C91.6784 71.9476 91.525 72.1436 91.6249 72.0171C91.7158 71.9012 91.6124 72.0331 91.5892 72.0616C91.5571 72.1026 91.525 72.1436 91.4947 72.1828C91.4394 72.2541 91.3823 72.3236 91.3271 72.3949C91.1987 72.5571 91.0685 72.7175 90.9383 72.8761C90.6851 73.1862 90.4283 73.4928 90.1697 73.7975C89.1389 75.0112 88.0689 76.1893 87.0185 77.3852C86.0341 78.5062 84.6324 79.9178 84.6377 81.4683C84.627 81.4719 84.6181 81.4736 84.6074 81.4772C84.5397 81.495 84.4683 81.5057 84.4006 81.5218C84.3881 81.5218 84.3738 81.5253 84.3613 81.5253C84.2401 81.5343 84.1206 81.5289 84.0011 81.5236C83.9761 81.52 83.9512 81.5164 83.9315 81.5111C83.8638 81.495 83.7978 81.4701 83.7318 81.4523C83.7086 81.4416 83.689 81.4344 83.6908 81.4344C83.6301 81.4024 83.5695 81.3685 83.5124 81.3293C83.5071 81.3257 83.5018 81.3222 83.4964 81.3186C83.4625 81.2598 83.3484 81.1867 83.3038 81.1404C83.2663 81.1012 83.2307 81.0602 83.195 81.0174C83.1808 80.9924 83.154 80.9657 83.1415 80.9461C83.047 80.8107 82.9632 80.6681 82.8811 80.5255C82.7171 80.2314 82.5708 79.9249 82.4317 79.6183C82.3604 79.4633 82.2926 79.3064 82.2249 79.1496C82.2213 79.1425 82.2213 79.1407 82.2195 79.1353C82.216 79.1229 82.2124 79.114 82.2106 79.1122C82.1749 79.0266 82.1411 78.9429 82.1072 78.8573C81.977 78.5276 81.8539 78.1961 81.738 77.8611C81.5062 77.1909 81.3029 76.5119 81.1192 75.8275C80.3791 73.0793 79.9475 70.2598 79.2645 67.4973C79.0987 66.8272 78.9239 66.1571 78.7135 65.4994C78.4638 64.717 78.0608 63.956 77.2957 63.5675C76.5752 63.2021 75.7496 63.1077 74.956 63.0203C74.2908 62.9455 73.6203 62.9259 72.9515 62.9526C70.0518 63.0738 67.2609 64.0273 64.7035 65.3586C63.4552 66.0092 62.2604 66.7559 61.1119 67.5686C60.4663 68.0267 59.8243 68.4989 59.2073 69.0015C58.5706 69.4507 57.9482 69.9194 57.3455 70.4131C56.2844 71.2775 55.2786 72.2131 54.3352 73.2112C53.8804 73.6443 53.4667 74.1112 53.0904 74.6067C51.596 76.38 50.2906 78.3155 49.2223 80.3651C49.0048 80.7839 48.7979 81.2081 48.5982 81.6376C48.4876 81.7196 48.3877 81.823 48.3093 81.9495C47.8955 82.6107 47.5852 83.3236 47.2874 84.0419C47.1501 84.3716 47.0199 84.7049 46.8879 85.0364C46.8344 85.17 46.7881 85.4035 46.6936 85.514C46.7489 85.3821 46.7542 85.3714 46.7078 85.4801C46.6918 85.5158 46.6757 85.5532 46.6597 85.5888C46.6222 85.6744 46.5848 85.7582 46.5456 85.8419C46.2531 86.4764 45.9142 87.0877 45.529 87.6705C45.4434 87.8006 45.3561 87.9271 45.2669 88.0537C45.2063 88.1374 45.1456 88.2212 45.085 88.305C45.0796 88.3139 45.0654 88.3317 45.0529 88.3513C44.8496 88.6383 44.5999 88.9056 44.3627 89.164C44.1898 89.3547 44.0845 89.6042 44.0631 89.8573C43.8313 89.9767 43.5995 90.0943 43.3694 90.2138C42.8754 90.4686 42.6882 91.2011 42.9878 91.6663C43.3123 92.1689 43.9116 92.3204 44.4412 92.0477C45.7841 91.3526 47.1305 90.6575 48.5161 90.0534C48.6071 90.0141 48.6963 89.9714 48.789 89.9357C48.7587 89.9482 48.7408 89.9536 48.7284 89.9589C48.7569 89.9482 48.8086 89.9268 48.8478 89.9108C49.0297 89.8359 49.2134 89.7611 49.3989 89.6898C49.7556 89.5508 50.1158 89.4207 50.476 89.2959C51.1858 89.0482 51.9009 88.8165 52.6018 88.5438C54.0445 87.9842 55.366 87.2196 56.7052 86.4514C57.0637 86.2465 57.4239 86.0451 57.7877 85.8526C58.0517 85.8562 58.3156 85.8615 58.5795 85.8776C58.6919 85.8847 58.8042 85.8918 58.9166 85.9043C58.9219 85.9043 58.9291 85.9043 58.938 85.9061C58.9737 85.9114 59.0878 85.9257 59.0931 85.9275C59.3321 85.9685 59.5675 86.0291 59.7994 86.1039C59.9081 86.1396 60.0169 86.1805 60.1239 86.2215C60.1239 86.2215 60.1275 86.2215 60.1311 86.2233C60.1114 86.2162 60.2737 86.2821 60.2969 86.2928C60.5198 86.3909 60.741 86.496 60.9639 86.5958C61.2599 86.7277 61.5595 86.8578 61.8645 86.9665C62.1355 87.1661 62.469 87.2731 62.8007 87.2552C62.8828 87.3836 62.9969 87.4887 63.1467 87.5546C66.3086 88.9359 69.49 90.2708 72.6929 91.554C75.8369 92.814 79.0006 94.0277 82.1821 95.1898C82.9846 95.4838 83.7871 95.7726 84.5914 96.0595C84.9659 96.1932 85.3386 96.3251 85.7131 96.4605C85.7345 96.4694 85.7577 96.4783 85.7737 96.4872C85.8504 96.5247 85.9253 96.5639 85.9966 96.6084C86.0002 96.6102 86.0163 96.6191 86.0359 96.6316C86.0377 96.6334 86.0377 96.6352 86.0412 96.6369C86.068 96.669 86.1019 96.7029 86.134 96.7314C86.3194 97.0326 86.455 97.357 86.5923 97.6831C86.5994 97.7009 86.6083 97.7205 86.6155 97.7384C86.6208 97.7508 86.6262 97.7633 86.6297 97.7704C86.6672 97.8596 86.7046 97.9487 86.7403 98.0378C86.8188 98.2303 86.8955 98.4227 86.9686 98.6152C87.0399 98.8006 87.1077 98.9877 87.1719 99.1749C87.0774 99.3388 87.0346 99.517 87.006 99.7274C86.7243 101.841 86.7242 103.983 86.9793 106.095C86.9721 106.995 86.9668 107.895 86.9543 108.795C86.9543 108.893 86.9507 108.99 86.9507 109.088C86.9311 109.177 86.9133 109.266 86.8937 109.353C86.8348 111.643 86.6886 113.932 86.3854 116.206C85.6471 121.733 83.8709 126.947 81.0693 131.77C78.7491 135.766 75.9743 139.609 72.6269 142.829C75.1022 142.847 77.5258 143.308 79.985 143.624C80.1152 143.533 80.281 143.476 80.4826 143.476C83.4732 143.469 86.4603 143.198 89.4492 143.226C91.5963 143.248 93.7399 143.371 95.8853 143.408C96.4773 143.364 97.0712 143.339 97.6633 143.349C97.7132 143.364 97.7631 143.376 97.8131 143.392C97.8273 143.399 97.8434 143.406 97.8577 143.412C97.9629 143.412 98.0681 143.412 98.1751 143.408C101.082 143.344 103.989 143.15 106.892 143.005C109.121 142.895 111.413 142.711 113.619 143.141C114.682 143.13 115.743 143.082 116.802 142.998C117.136 143.141 117.556 143.109 117.849 142.902C117.888 142.899 117.927 142.895 117.968 142.89C118.245 142.861 118.521 142.795 118.719 142.58C118.896 142.387 119.065 142.1 119.029 141.829C118.728 139.489 118.209 137.194 117.419 134.968C117.414 134.955 117.408 134.943 117.403 134.93C117.383 134.493 117.359 134.059 117.321 133.622C117.216 132.428 117.052 131.239 116.866 130.056C116.513 127.808 116.089 125.572 115.689 123.333C115.286 121.077 114.885 118.819 114.482 116.562C114.138 114.636 113.795 112.709 113.451 110.781C113.392 110.166 113.291 109.556 113.127 108.961C113.095 108.847 113.041 108.74 112.973 108.644C112.982 108.59 112.993 108.537 113.002 108.483C113.132 107.765 113.292 107.052 113.487 106.348C113.58 106.012 113.483 105.634 113.26 105.366C113.658 103.802 114.063 102.239 114.478 100.677C114.318 100.492 114.238 100.223 114.316 99.886C114.505 99.0697 114.557 98.2374 114.55 97.398C114.544 97.3766 114.537 97.3552 114.532 97.332C114.457 96.9827 114.393 96.6298 114.336 96.2734C114.773 94.4448 115.158 92.6055 115.345 90.7306C115.445 89.7379 115.477 88.7398 115.427 87.7436C115.427 87.7418 115.431 87.74 115.432 87.7382C115.431 87.7364 115.429 87.7347 115.427 87.7329C115.413 87.4709 115.395 87.2089 115.37 86.9469C115.359 86.8293 115.333 86.717 115.295 86.6118C115.367 86.5227 115.463 86.4425 115.591 86.3784C119.969 84.1933 124.437 82.0475 129.212 80.8837C129.344 80.6948 129.473 80.5041 129.598 80.3099C129.813 79.973 130.006 79.6237 130.174 79.2601C130.716 78.0927 131.267 76.904 131.652 75.6689C131.771 75.2893 131.864 74.9007 131.927 74.5087C132.105 73.4072 132.262 72.3005 132.371 71.1901C132.39 70.9816 132.403 70.7731 132.406 70.5646C132.43 69.2671 132.137 67.8128 131.962 66.6151L131.964 66.6222ZM56.518 82.1652C56.5305 82.1545 56.543 82.142 56.5555 82.1313C56.5751 82.1384 56.5947 82.1456 56.6143 82.1509C56.5822 82.1563 56.5501 82.1598 56.518 82.1652ZM75.3002 88.3638C74.009 90.2173 70.9863 90.4882 69.1458 89.2834C68.272 88.7113 67.7013 87.5101 67.8262 86.455C67.5979 86.2322 67.4053 85.9845 67.2733 85.7118C66.4512 83.9973 69.0852 81.3792 70.7972 81.6929C71.0148 81.6127 71.2448 81.5503 71.4892 81.5111C71.6604 81.4826 71.8155 81.4986 71.9546 81.5467C72.6572 81.4505 73.4098 81.5538 73.8895 81.8426C74.9203 82.4592 75.976 83.9028 76.2685 85.0666C76.5628 86.2322 75.9546 87.4263 75.3019 88.3638H75.3002ZM114.254 127.325C114.234 127.284 114.214 127.242 114.193 127.201C114.186 127.09 114.179 126.98 114.172 126.869C114.198 127.021 114.225 127.174 114.254 127.325Z" fill="#F0F0F0"/>
<path d="M82.2188 79.1504C82.2335 79.1836 82.2538 79.2297 82.252 79.2297C82.2483 79.2297 82.2298 79.1836 82.2188 79.1504Z" fill="#E50695"/>
<path d="M83.164 80.982C83.0674 80.8693 83.1443 80.9534 83.1819 81.0034C83.1765 80.9963 83.1694 80.9891 83.164 80.982Z" fill="#E50695"/>
<path d="M85.7461 96.4812C85.7909 96.498 85.819 96.5073 85.7461 96.4812V96.4812Z" fill="#E50695"/>
<path d="M86.0781 96.6646C86.0781 96.6646 86.0888 96.6717 86.0924 96.6752C86.0924 96.6752 86.0942 96.6788 86.096 96.6806C86.0906 96.6753 86.0853 96.6699 86.0781 96.6646Z" fill="#E50695"/>
<path d="M84.0813 160.212C83.6087 160.169 83.7924 160.203 83.7282 160.479C83.5624 161.19 83.1487 164.357 82.9275 164.673C82.6707 165.04 81.9271 164.888 81.9378 164.397C81.9164 162.108 83.2628 159.23 83.302 157.064C83.3163 156.323 82.1749 153.249 83.4589 153.252C83.8281 153.252 83.9547 153.651 84.035 153.931C84.9302 157.05 84.973 160.871 85.87 164.054C85.9735 164.614 85.6507 165.029 85.08 164.831C84.6395 164.68 84.142 160.918 84.0813 160.212Z" fill="#070707"/>
<path d="M31.2963 113.16C30.6169 112.82 29.1777 113.565 30.0391 114.149C30.2049 114.261 33.4167 114.511 34.0302 114.614C35.1519 114.803 38.2317 115.297 39.0111 116.003C40.1025 116.992 38.3922 117.379 37.6325 117.443C35.1555 117.653 32.5554 117.042 30.1585 117.143C29.4185 117.175 29.5825 117.887 30.0462 118.239C32.7943 118.64 35.8064 118.277 38.5153 118.509C39.423 118.587 41.9357 119.25 40.6678 120.476C39.8599 121.257 35.0057 121.624 33.702 121.711C33.1171 121.75 29.5558 121.31 30.4813 122.617C30.6721 122.886 32.846 122.806 33.3543 122.789C34.7934 122.745 39.2536 121.875 40.1399 122.945C41.0048 123.989 39.8867 124.276 39.061 124.57C37.0512 125.288 34.9219 125.372 32.8353 125.655C32.2736 125.732 30.9557 125.875 31.5531 126.716C31.949 127.272 36.9763 126.176 37.9036 126.067C39.4997 127.013 38.1729 127.81 37.0512 128.265C34.797 129.177 31.5816 129.646 29.7109 127.842C25.4148 123.7 25.8696 115.236 28.525 110.298L30.5812 107.099L31.2981 113.158L31.2963 113.16Z" fill="#FDFDFD"/>
<path d="M53.5886 101.75C53.9149 101.668 54.2181 101.589 54.5605 101.562C56.7076 101.393 61.0322 101.345 63.1312 101.571C63.4879 101.611 64.1085 101.751 64.1085 102.195V110.126H72.2227C72.5419 110.126 72.6525 110.832 72.6792 111.096C72.8594 112.89 72.9093 117.945 72.6775 119.67C72.6454 119.905 72.4492 120.463 72.2227 120.463H64.1085V128.572C64.1085 128.891 63.4023 129.002 63.1384 129.029C61.3069 129.212 56.1405 129.264 54.3804 129.027C54.145 128.995 53.5868 128.799 53.5868 128.572V120.463H45.2942C44.975 120.463 44.8645 119.757 44.8377 119.494C44.6576 117.699 44.6077 112.644 44.8395 110.919C44.8716 110.684 45.0678 110.126 45.2942 110.126H53.5868V101.75H53.5886Z" fill="#E50695"/>
<path d="M88.3099 46.721C89.6634 46.721 88.0994 49.5922 87.6447 50.1518C85.5885 52.688 81.5563 52.9927 79.6535 50.1269C79.3539 49.676 78.5157 47.7832 78.8064 47.3822C79.1292 46.9385 80.44 47.3858 80.9536 47.4001C82.1662 47.4375 83.7017 47.4856 84.8912 47.4001C85.913 47.327 87.5377 46.7192 88.3099 46.7192V46.721ZM87.4681 48.1076C85.214 48.8294 82.6388 48.1735 80.4221 48.4623C79.8515 48.5371 80.4774 49.3373 80.6932 49.6207C82.7565 52.3244 86.5123 51.0251 87.4681 48.1076Z" fill="black"/>
<path d="M82.0476 38.6705C82.2705 38.5938 82.5898 38.6241 82.752 38.8255C83.3281 39.6596 81.3646 42.5486 81.4324 43.2063C81.4966 43.8265 83.7471 43.2294 83.353 44.4307C83.073 45.2844 79.608 44.3736 80.3766 42.889C80.76 42.3829 81.8104 38.7542 82.0476 38.6723V38.6705Z" fill="black"/>
<path d="M89.2155 32.8159C89.9859 32.7393 92.5807 33.4557 92.2829 34.4645C92.0314 35.3182 90.6672 34.2007 90.3283 34.108C89.3422 33.8407 87.9298 34.5108 87.6373 34.3023C86.6796 33.6197 88.6074 32.8747 89.2138 32.8141L89.2155 32.8159Z" fill="black"/>
<path d="M76.5427 31.7482C77.3291 31.586 80.3965 31.873 79.9649 33.2007C79.7188 33.9582 78.7879 33.1152 78.4277 32.9922C76.7905 32.429 75.9007 33.4841 75.2801 33.297C74.1548 32.9566 76.0576 31.8498 76.5427 31.7482Z" fill="black"/>
<path d="M89.564 38.3489C90.4771 39.2062 89.646 41.3716 88.1855 40.7051C86.4556 39.9155 88.2122 37.0782 89.564 38.3489Z" fill="black"/>
<path d="M76.6452 39.3155C76.0086 38.8004 76.1049 37.1875 76.9341 36.9522C79.6359 36.1823 78.5908 40.8927 76.6452 39.3155Z" fill="black"/>
<path d="M71.8908 83.2794C74.9172 83.1582 75.058 87.4534 72.5667 87.8365C68.9394 88.398 68.9162 83.397 71.8908 83.2794ZM73.2355 85.5998C73.2355 84.9368 72.6969 84.4004 72.0353 84.4004C71.3737 84.4004 70.8351 84.9386 70.8351 85.5998C70.8351 86.2611 71.3737 86.7993 72.0353 86.7993C72.6969 86.7993 73.2355 86.2611 73.2355 85.5998Z" fill="black"/>
<path d="M51.9843 157.178L53.3307 148.267C46.126 143.63 39.952 137.547 36.1125 129.808C32.6831 130.307 30.6341 130.696 28.2694 127.855C23.0299 121.56 25.5177 111.195 30.4005 105.401C30.3719 102.513 29.9903 99.6243 30.1294 96.7532C33.9565 95.2953 38.0278 94.3257 41.6427 92.3974C47.9432 80.1783 54.456 63.0652 70.4632 61.6733C71.5315 61.5806 73.0206 61.8266 73.9693 61.6127C74.4758 61.4987 75.6528 60.2582 76.3554 59.8982C76.7121 59.7164 78.2368 59.2513 78.2975 59.1657C78.3777 59.0534 78.5989 56.6331 78.5257 56.4193C78.4705 56.2589 77.6412 55.742 77.4736 55.6886C76.5248 55.3802 74.1102 55.5674 72.803 55.366C70.0228 54.9364 66.4935 53.5641 64.0539 52.1686C63.4868 51.8443 60.942 50.2688 60.8956 49.7929C63.6687 42.0366 66.1279 34.127 69.099 26.4456C71.1855 21.0561 73.3755 17.529 79.0447 15.3547C90.6311 10.9133 103.897 17.1904 106.469 29.5609C107.073 32.4695 107.029 36.2568 107.095 39.2723C107.198 44.0095 107.031 48.7663 107.054 53.5035C106.852 54.1683 103.243 55.2733 102.451 55.4978C100.425 56.0717 98.3119 56.4852 96.2094 56.6563C96.286 57.0537 96.097 58.8039 96.229 58.9572C96.2646 58.9982 97.019 59.1336 97.2794 59.2459C99.5085 60.2083 98.9825 60.4828 101.827 60.399C104.042 60.3349 106.39 60.0746 108.605 59.8661C117.584 59.0196 126.334 57.0787 135.09 55.0541L130.227 26.4955C127.414 23.3391 123.898 20.7798 120.991 17.7251C120.054 16.7413 119.348 15.3975 120.73 14.419C122.918 12.8702 125.305 15.5026 127.414 15.9375C126.474 12.7793 124.787 9.51963 123.983 6.35794C123.803 5.65217 123.596 5.13354 123.687 4.36895C123.899 2.60276 125.984 2.67048 127.072 3.62576C127.322 3.84498 127.311 4.2335 127.594 4.26024C126.601 1.21795 129.654 -0.742509 131.379 2.35859C131.5 2.57602 131.553 3.47071 131.874 2.8897C132.356 2.0164 132.643 1.52094 133.89 1.80431C134.979 2.05204 135.725 4.07845 135.889 4.08023C136.024 4.0838 136.77 3.1303 137.991 3.40833C139.616 3.77725 140.509 8.41999 140.921 9.92776C142.23 14.722 143.272 19.5911 143.37 24.5903C145.949 35.011 149.925 45.3569 152.513 55.7313C153.845 61.0763 153.651 65.9703 148.875 69.4599C145.05 72.2563 140.042 74.2506 135.8 76.3572C135.354 76.6887 136.456 77.9505 135.8 78.4941C129.258 81.4152 122.767 84.4753 116.479 87.8883C115.509 95.1402 114.503 102.396 113.857 109.689L119.753 142.484C119.967 144.22 118.018 143.498 116.894 143.633L119.124 157.178H146.409C146.762 157.178 146.764 158.248 146.409 158.248H119.213L120.108 164.386C120.029 164.988 119.404 165.198 119.036 164.706L115.621 143.656L70.4739 143.669C66.9572 146.652 63.0285 149.105 58.9357 151.222C58.2045 151.324 54.5826 148.679 54.299 148.98L51.8559 164.624C51.6294 165.111 50.6521 164.945 50.793 164.252L51.8024 158.248H1.06628C0.713175 158.248 0.711392 157.178 1.06628 157.178H51.9807H51.9843ZM134.018 11.7474L133.034 11.5728C132.695 10.0169 130.949 2.59028 129.736 2.036C127.71 1.10924 128.935 5.54702 129.112 6.40249C129.472 8.15087 130.407 10.4339 130.594 12.0647C130.66 12.6332 130.469 13.0128 129.849 12.8007C129.542 12.6956 128.345 8.40751 128.042 7.65184C127.68 6.74646 126.77 4.46698 125.825 4.164C124.77 3.82537 124.559 4.39747 124.827 5.34206L128.65 16.2761C129.918 16.645 131.275 16.6896 132.472 17.3062C132.814 17.4827 134.225 18.5092 134.385 18.7801C134.753 19.4021 134.516 19.9511 133.788 19.7426C133.513 19.6641 132.222 18.3702 131.523 18.0779C130.191 17.5201 128.383 17.5736 126.967 17.1066C125.421 16.5987 122.986 14.5242 121.396 15.2602C120.985 15.4491 121.13 16.1139 121.349 16.4846L131.07 25.6596C132.952 35.4726 134.665 45.4371 136.17 55.3375C136.167 55.4889 136.165 55.6493 136.078 55.7794C135.803 56.1947 131.058 56.913 130.195 57.2052C130.016 57.2658 129.836 57.2534 129.749 57.4761L135.364 75.3805C138.355 73.9494 141.417 72.5824 144.306 70.9499C150.828 67.2642 153.483 64.4857 151.587 56.4817C149.093 45.9504 144.802 35.3657 142.303 24.7685C141.797 18.8657 140.855 11.325 138.615 5.8197C138.309 5.06581 137.132 3.65428 136.771 4.96066C136.228 6.94073 137.661 9.59805 137.601 11.4837C137.576 12.2803 136.738 12.4051 136.524 11.6512C136.06 10.0151 135.27 3.70061 133.795 2.96633C132.556 2.34968 132.721 4.2638 132.793 5.04264C132.88 5.99258 134.344 11.4248 134.02 11.7492L134.018 11.7474ZM105.839 36.6988C106.497 27.3367 102.184 19.1099 93.0475 16.0676C86.137 13.7667 77.2792 15.319 72.7763 21.3876C70.688 24.2017 69.4343 28.791 68.2109 32.1523C66.1065 37.9321 64.127 43.7689 62.1386 49.5897C66.1493 52.436 70.9091 54.3465 75.8828 54.5212C68.5586 48.3475 71.2979 38.6699 71.9934 30.4075C72.0772 30.1223 72.3268 30.019 72.5712 29.9156C73.5449 29.5092 75.075 29.3684 76.2359 28.9443C78.8646 27.9854 82.0942 25.8859 83.8026 23.6742C84.1005 23.2892 84.8174 21.8171 85.0974 21.7458C85.8374 21.5569 86.0122 22.8971 86.2512 23.3961C87.8455 26.7307 90.0426 29.5128 93.4166 31.2059C94.1978 31.598 97.4399 32.5177 97.6396 32.6887C97.8572 32.8741 98.262 34.8488 98.731 35.2605C101.354 34.2714 103.928 34.553 105.841 36.7006L105.839 36.6988ZM98.2245 36.4653C97.6164 35.9271 96.9156 33.7011 96.7461 33.5799C96.418 33.3464 93.9945 32.7012 93.2026 32.3091C89.4077 30.4396 86.8967 27.4418 85.0652 23.6884C83.0305 26.7931 79.4085 29.0369 75.9185 30.2293C75.3871 30.411 73.1436 30.8281 73.0527 31.1079C72.309 39.2688 69.6251 48.499 77.3238 54.2378C81.322 57.2177 85.5788 57.3229 90.1442 55.4978C90.7042 55.2733 92.6462 53.7869 92.607 55.0006C92.5767 55.9737 87.767 58.4385 86.763 58.713C84.4464 59.3457 81.7304 59.0748 79.4495 58.4421C79.4263 59.0231 79.3924 60.0319 79.1374 60.538C78.9591 60.8945 78.4598 61.0032 78.4062 61.2188C78.3795 61.3293 78.5436 63.1757 78.5792 63.4983C79.1731 69.0464 81.8445 75.1061 84.7104 79.8272L96.9227 61.7357C97.0939 61.2973 96.0043 61.5503 95.6173 61.3062C95.4354 61.1921 95.1839 60.5291 95.1518 60.301C94.9878 59.1247 94.9396 53.5499 95.1447 52.4752C95.2018 52.1722 96.5963 50.6805 96.928 50.1583C97.9142 48.6113 98.599 46.7399 98.92 44.9345C100.313 44.7705 101.395 44.8686 102.685 44.1485C104.645 43.0543 106.151 39.4149 104.851 37.4188C103.806 35.8148 101.495 35.4797 99.7814 36.0786C99.2018 36.2817 98.7738 36.9537 98.2245 36.4653ZM106.02 53.0954V41.8673C105.552 42.3503 105.383 42.9865 104.946 43.5568C103.71 45.1662 101.829 46.0555 99.785 45.9736C99.6031 47.394 98.9628 48.8341 98.2656 50.0691C97.9196 50.6822 96.2111 52.657 96.2111 52.8281V55.5905C99.5924 55.2305 102.874 54.3358 106.02 53.0954ZM71.7794 142.564H118.681L112.819 110.371C113.085 102.806 114.569 95.3095 115.305 87.7724C115.359 87.2395 115.657 87.015 116.06 86.7441C118.756 84.928 123.889 82.7804 126.999 81.2797C129.602 80.0233 132.274 78.8719 134.91 77.6867L128.664 57.5492C119.414 59.9196 109.861 61.1083 100.311 61.4737C103.409 64.3485 103.352 68.4672 102.629 72.3436C106.114 72.7963 108.937 76.1184 109.235 79.5563C109.34 80.7682 109.303 83.725 109.048 84.8781C108.766 86.1524 108.816 86.5766 108.702 87.9471C108.409 91.467 107.551 96.5624 103.878 98.0969C103.453 98.2752 101.859 98.8241 101.458 98.8847C100.447 99.0362 99.2303 98.9703 99.0681 97.7263C98.8808 96.2826 100.054 95.8478 101.285 96.0599C102.196 96.2167 102.517 97.2237 102.713 97.254C103.403 97.3627 105.024 95.9725 105.454 95.3951C107.958 92.0195 107.482 86.3662 107.439 82.4079C107.434 81.9071 107.642 81.3938 107.639 80.8074C107.591 72.7517 97.4898 71.4186 94.6293 78.6937C94.1157 79.9983 94.1656 81.335 93.7769 82.4756C93.6378 82.8838 93.3257 83.0923 93.183 83.4862C92.6534 84.9618 92.1772 89.7204 92.311 91.3013C92.4358 92.7805 93.3453 95.7159 94.9592 96.1597C95.4122 96.2844 95.4657 95.8656 95.8063 95.7301C97.3382 95.1224 98.9165 95.6517 98.492 97.5231C98.1603 98.9934 95.8884 98.6566 95.0823 97.8368C94.9164 97.6674 95.011 97.4161 94.8487 97.2825C94.492 96.9884 93.7145 96.7888 93.1991 96.2933C89.9195 93.1441 91.5655 84.9725 92.3395 80.8591C93.2187 76.1807 95.9829 72.5111 101.026 72.1636C101.349 69.0785 101.98 66.0933 99.7725 63.5251C99.5175 63.2292 98.5384 62.2543 98.2281 62.208C97.9856 62.1706 97.8643 62.3969 97.7216 62.5359C96.7212 63.5055 95.2624 65.9935 94.4242 67.2589C91.9026 71.0604 88.4911 77.7402 85.5147 80.811C84.5499 81.8073 84.4607 81.6237 83.7634 80.5936C83.1 79.6133 82.2708 78.004 81.734 76.9186C79.3853 72.1707 77.7001 66.9559 77.3059 61.6484C76.1896 62.1314 75.2248 62.9476 74.4847 63.9065C71.9274 67.2232 72.0629 71.8713 72.1342 75.819C72.1646 77.4604 72.177 79.0858 72.3126 80.7183C78.9181 81.1782 78.4722 90.6721 71.7794 90.608C74.4419 91.8698 77.19 92.9766 79.9381 94.0388C82.0746 94.8658 85.1633 95.6 87.0644 96.5411C88.0916 97.049 87.4906 97.6835 87.4728 98.4534C87.191 110.482 85.6805 123.456 79.1642 133.813C77.1276 137.05 74.5881 139.981 71.7776 142.56L71.7794 142.564ZM73.206 62.7213C56.357 62.5359 49.5589 79.0573 43.2459 91.7682C48.5406 89.7204 53.6249 87.1665 58.7164 84.6696C59.378 84.4646 62.6486 86.6407 62.8609 86.4233C63.0089 85.6605 63.7026 80.2496 64.0379 80.1747C64.1948 80.1391 64.5265 80.1712 64.6585 80.2621C65.3112 80.7201 63.74 86.0544 63.9612 87.1077L68.3892 89.0931C66.0263 86.3181 66.8948 81.9124 70.5381 80.7789C70.424 74.812 69.395 67.7775 73.2042 62.7195L73.206 62.7213ZM75.9435 85.6106C75.9435 83.4576 74.1976 81.7128 72.0433 81.7128C69.889 81.7128 68.1431 83.4576 68.1431 85.6106C68.1431 87.7635 69.889 89.5083 72.0433 89.5083C74.1976 89.5083 75.9435 87.7635 75.9435 85.6106ZM86.3778 97.4981C76.9439 94.4059 67.8863 90.305 59.0142 85.8904C49.8567 90.0555 40.8419 94.7107 31.1174 97.4732C31.433 101.276 31.4081 105.139 31.8539 108.945C32.0197 110.371 32.2765 111.817 32.5244 113.23L36.7349 114.048C36.9507 114.057 36.3497 110.861 36.314 110.548C36.0198 107.947 35.845 105.34 35.7541 102.731C35.7327 102.112 35.3064 101.38 35.7398 100.752C43.4973 97.7886 51.2852 94.7677 58.5791 90.7791L59.2068 90.8664C66.4044 94.6055 73.9051 97.7138 81.5378 100.462C82.1834 100.847 81.9676 102.487 81.9408 103.264C81.6912 110.419 80.063 119.566 77.1597 126.11C73.4967 134.362 66.7218 140.815 58.8198 145.022C51.5598 141.179 45.3948 135.506 41.4322 128.249C41.0773 127.598 40.4496 125.809 40.1215 125.445C39.9075 125.207 39.5704 125.519 39.3243 125.458C40.3801 127.666 39.1139 128.712 37.1861 129.464C41.8174 138.607 49.7569 145.444 58.8216 150.012C65.7802 146.424 72.2359 141.63 76.844 135.239C80.8084 129.739 83.1731 123.351 84.5338 116.725C85.816 110.476 86.3403 103.873 86.3796 97.4999L86.3778 97.4981ZM40.3925 121.713C41.2271 122.432 41.6587 122.924 41.4536 124.109C41.3983 124.422 41.0791 124.583 41.1308 124.962C41.195 125.442 42.0439 126.996 42.3239 127.534C45.3627 133.384 50.3614 138.418 55.8523 141.995C56.3927 142.348 58.1635 143.576 58.5933 143.726C58.7182 143.77 58.8145 143.82 58.9429 143.742C63.7722 140.938 68.2626 137.374 71.7758 133.022C77.0491 126.488 79.371 117.154 80.318 108.944C80.4321 107.951 81.0509 101.77 80.7942 101.383C73.3219 98.6102 65.9246 95.6375 58.8537 91.9518C51.7596 95.5965 44.4033 98.8401 36.8455 101.408C36.7813 105.664 37.3823 109.892 37.9333 114.098C38.1277 114.74 40.3087 114.818 40.4068 116.454C40.4282 116.816 40.1767 117.429 40.2909 117.611C40.3908 117.768 41.0738 118.012 41.3805 118.316C42.6502 119.582 42.1438 121.348 40.3943 121.712L40.3925 121.713ZM31.2975 113.157L30.5806 107.097L28.5244 110.296C25.869 115.235 25.4142 123.699 29.7103 127.841C31.5793 129.643 34.7964 129.176 37.0506 128.263C38.1723 127.809 39.4991 127.012 37.903 126.066C36.9756 126.174 31.9484 127.272 31.5525 126.714C30.9551 125.873 32.273 125.731 32.8347 125.654C34.9212 125.371 37.0505 125.287 39.0604 124.569C39.8861 124.273 41.006 123.988 40.1393 122.943C39.2548 121.876 34.7928 122.744 33.3537 122.788C32.8454 122.804 30.6698 122.884 30.4807 122.615C29.5552 121.309 33.1165 121.749 33.7014 121.71C35.0068 121.623 39.8593 121.255 40.6672 120.475C41.9351 119.249 39.4224 118.584 38.5147 118.507C35.8058 118.275 32.7955 118.639 30.0456 118.238C29.5819 117.885 29.4178 117.174 30.1579 117.142C32.5547 117.04 35.1531 117.652 37.6319 117.441C38.3916 117.377 40.1019 116.989 39.0104 116.001C38.2311 115.296 35.1513 114.802 34.0296 114.613C33.4143 114.51 30.2043 114.26 30.0385 114.148C29.1789 113.563 30.618 112.818 31.2957 113.159L31.2975 113.157Z" fill="black"/>
</svg>
