<svg width="28" height="28" viewBox="0 0 28 28" fill="none" xmlns="http://www.w3.org/2000/svg">
<path d="M21.4468 5.67908C21.2201 5.01028 20.5853 4.53418 19.8371 4.53418H7.36788C6.61972 4.53418 5.99626 5.01028 5.75821 5.67908L3.40039 12.4692V21.5377C3.40039 22.1612 3.9105 22.6713 4.53396 22.6713H5.66753C6.29099 22.6713 6.80109 22.1612 6.80109 21.5377V20.4041H20.4039V21.5377C20.4039 22.1612 20.914 22.6713 21.5375 22.6713H22.671C23.2945 22.6713 23.8046 22.1612 23.8046 21.5377V12.4692L21.4468 5.67908ZM7.76463 6.80131H19.429L20.6533 10.3267H6.54037L7.76463 6.80131ZM21.5375 18.137H5.66753V12.4692H21.5375V18.137Z" fill="currentColor"/>
<path d="M8.50144 17.0034C9.44052 17.0034 10.2018 16.2421 10.2018 15.3031C10.2018 14.364 9.44052 13.6027 8.50144 13.6027C7.56237 13.6027 6.80109 14.364 6.80109 15.3031C6.80109 16.2421 7.56237 17.0034 8.50144 17.0034Z" fill="currentColor"/>
<path d="M18.7036 17.0034C19.6426 17.0034 20.4039 16.2421 20.4039 15.3031C20.4039 14.364 19.6426 13.6027 18.7036 13.6027C17.7645 13.6027 17.0032 14.364 17.0032 15.3031C17.0032 16.2421 17.7645 17.0034 18.7036 17.0034Z" fill="currentColor"/>
</svg>
