<svg width="33" height="32" viewBox="0 0 33 32" fill="none" xmlns="http://www.w3.org/2000/svg">
<path d="M25.7267 6.67992C25.46 5.89325 24.7133 5.33325 23.8333 5.33325H9.16667C8.28667 5.33325 7.55333 5.89325 7.27333 6.67992L4.5 14.6666V25.3333C4.5 26.0666 5.1 26.6666 5.83333 26.6666H7.16667C7.9 26.6666 8.5 26.0666 8.5 25.3333V23.9999H24.5V25.3333C24.5 26.0666 25.1 26.6666 25.8333 26.6666H27.1667C27.9 26.6666 28.5 26.0666 28.5 25.3333V14.6666L25.7267 6.67992ZM9.63333 7.99992H23.3533L24.7933 12.1466H8.19333L9.63333 7.99992ZM25.8333 21.3333H7.16667V14.6666H25.8333V21.3333Z" fill="#767676"/>
<path d="M10.5 19.9999C11.6046 19.9999 12.5 19.1045 12.5 17.9999C12.5 16.8953 11.6046 15.9999 10.5 15.9999C9.39543 15.9999 8.5 16.8953 8.5 17.9999C8.5 19.1045 9.39543 19.9999 10.5 19.9999Z" fill="#767676"/>
<path d="M22.5 19.9999C23.6046 19.9999 24.5 19.1045 24.5 17.9999C24.5 16.8953 23.6046 15.9999 22.5 15.9999C21.3954 15.9999 20.5 16.8953 20.5 17.9999C20.5 19.1045 21.3954 19.9999 22.5 19.9999Z" fill="#767676"/>
</svg>
