<svg width="20" height="20" viewBox="0 0 20 20" fill="none" xmlns="http://www.w3.org/2000/svg">
<path fill-rule="evenodd" clip-rule="evenodd" d="M6.78775 4.16667C5.03874 4.16667 3.69465 5.50884 3.69465 7.2081C3.69465 8.26225 4.16746 9.28571 5.17611 10.5026C6.19398 11.7307 7.66561 13.0499 9.52084 14.71L9.52204 14.7111L10.0024 15.1426L10.4791 14.7177C10.4794 14.7174 10.4797 14.7171 10.48 14.7169C12.3349 13.0533 13.8064 11.7327 14.8243 10.5037C15.8331 9.28575 16.3059 8.26226 16.3059 7.2081C16.3059 5.50884 14.9618 4.16667 13.2128 4.16667C12.2189 4.16667 11.2549 4.62732 10.6312 5.35017L10.0003 6.08131L9.36937 5.35017C8.74561 4.62732 7.7817 4.16667 6.78775 4.16667ZM2.02798 7.2081C2.02798 4.56762 4.13915 2.5 6.78775 2.5C7.97285 2.5 9.11376 2.93035 10.0003 3.64998C10.8868 2.93035 12.0277 2.5 13.2128 2.5C15.8614 2.5 17.9726 4.56762 17.9726 7.2081C17.9726 8.81696 17.2318 10.2099 16.1078 11.5669C15.0072 12.8957 13.4528 14.2896 11.6607 15.8967L11.5918 15.9585L11.59 15.9601L9.99817 17.3793L8.40822 15.9509L8.35823 15.9062C6.55847 14.2957 4.99735 12.8987 3.89291 11.5662C2.7688 10.21 2.02798 8.81698 2.02798 7.2081Z" fill="#5493F8"/>
</svg>
