<svg width="36" height="29" viewBox="0 0 36 29" fill="none" xmlns="http://www.w3.org/2000/svg">
<g clip-path="url(#clip0_4315_253221)">
<path d="M3.85498 6.52319C3.82061 6.52335 3.78669 6.53082 3.75557 6.54508C3.72445 6.55933 3.69688 6.58005 3.67477 6.60577C3.55737 6.73971 0.813015 9.92905 0.813015 11.9281C0.805579 12.3233 0.878752 12.7159 1.02826 13.0832C1.17777 13.4504 1.40061 13.7848 1.68377 14.0669C1.96694 14.3489 2.30474 14.573 2.67744 14.7259C3.05014 14.8788 3.45028 14.9576 3.85446 14.9576C4.25865 14.9576 4.65878 14.8788 5.03149 14.7259C5.40419 14.573 5.74199 14.3489 6.02515 14.0669C6.30831 13.7848 6.53116 13.4504 6.68066 13.0832C6.83017 12.7159 6.90335 12.3233 6.89591 11.9281C6.89591 9.96832 4.15361 6.74273 4.03622 6.60678C4.01405 6.58079 3.98634 6.55985 3.95504 6.54541C3.92374 6.53098 3.88959 6.52339 3.85498 6.52319Z" fill="currentColor"/>
<path d="M34.7856 19.8333C34.5307 19.5845 34.1861 19.4436 33.826 19.4412C33.4659 19.4387 33.1193 19.5749 32.8609 19.8202L23.4179 10.5855C23.6842 10.1379 23.7915 9.61666 23.7232 9.10312C23.6548 8.58958 23.4146 8.11261 23.0399 7.74661L21.5128 6.25315C21.2897 6.03488 21.0248 5.86174 20.7332 5.74361C20.4417 5.62548 20.1292 5.56468 19.8136 5.56468C19.4981 5.56468 19.1856 5.62548 18.894 5.74361C18.6025 5.86174 18.3376 6.03488 18.1145 6.25315L18.0434 6.32263L14.0458 2.40217C13.2096 1.58554 12.106 1.08285 10.9287 0.982226L4.42876 0.441439C4.31079 0.432129 4.19213 0.446793 4.08024 0.484508C3.96835 0.522222 3.86565 0.582171 3.7786 0.660584C3.69155 0.738997 3.62203 0.834177 3.57442 0.940138C3.52681 1.0461 3.50214 1.16055 3.50196 1.27629V3.89463C3.50134 4.10338 3.58072 4.30479 3.72445 4.45914C3.86817 4.61349 4.06582 4.70958 4.27841 4.72847L10.1595 5.27328C10.5462 5.30973 10.908 5.47631 11.1831 5.74458L14.9067 9.39717L11.8174 12.4183C11.1452 13.0756 10.612 13.8558 10.2482 14.7146C9.88444 15.5734 9.69719 16.4938 9.69719 17.4234C9.69719 18.3529 9.88444 19.2734 10.2482 20.1322C10.612 20.9909 11.1452 21.7712 11.8174 22.4284L15.9736 26.4929C17.331 27.8199 19.1717 28.5654 21.0911 28.5654C23.0104 28.5654 24.8512 27.8199 26.2085 26.4929L28.3587 24.3902C28.2448 24.6769 28.2352 24.9932 28.3315 25.286C28.4278 25.5788 28.6241 25.8303 28.8876 25.9984C29.151 26.1664 29.4656 26.2407 29.7784 26.2088C30.0912 26.1769 30.3833 26.0408 30.6057 25.8232L34.7887 21.7316C34.916 21.6068 35.017 21.4587 35.0858 21.2957C35.1545 21.1327 35.1898 20.9581 35.1895 20.7818C35.1892 20.6055 35.1534 20.431 35.0841 20.2682C35.0148 20.1054 34.9133 19.9577 34.7856 19.8333ZM23.458 23.3066C23.0525 23.7026 22.5029 23.9251 21.9298 23.9251C21.3568 23.9251 20.8071 23.7026 20.4016 23.3066L16.9941 19.9743C16.5891 19.5777 16.3617 19.0402 16.3617 18.4798C16.3617 17.9194 16.5891 17.3818 16.9941 16.9853L17.9714 16.0296C17.9823 16.0648 18.0017 16.097 18.028 16.1233L21.3562 19.3781C21.678 19.6904 22.1064 19.8757 22.5592 19.8984C23.012 19.9211 23.4575 19.7795 23.8102 19.5009L25.5763 21.2341L23.458 23.3066ZM30.063 20.227C29.9533 20.333 29.8053 20.3925 29.6511 20.3925C29.4969 20.3925 29.3489 20.333 29.2392 20.227L22.6847 13.7627C22.5754 13.655 22.5144 13.5092 22.5151 13.3574C22.5158 13.2057 22.5781 13.0604 22.6883 12.9536C22.7985 12.8467 22.9475 12.7871 23.1027 12.7878C23.2579 12.7884 23.4064 12.8493 23.5157 12.9571L30.0661 19.4214C30.1741 19.529 30.2344 19.674 30.2338 19.8248C30.2332 19.9756 30.1718 20.1202 30.063 20.227Z" fill="currentColor"/>
</g>
<defs>
<clipPath id="clip0_4315_253221">
<rect width="34.375" height="28.125" fill="white" transform="translate(0.8125 0.4375)"/>
</clipPath>
</defs>
</svg>
