<svg width="58" height="47" viewBox="0 0 58 47" fill="none" xmlns="http://www.w3.org/2000/svg">
<path d="M20.8828 8.63003L20.9278 10.79C20.8528 14.045 19.4728 14.87 17.5528 14.87C15.4528 14.87 13.8928 14.27 13.8928 10.985H13.7878C13.3678 10.985 13.0228 10.655 13.0078 10.235C13.0078 9.81503 13.3378 9.47003 13.7578 9.45503H13.9378C13.9378 9.45503 14.2078 8.70503 14.3128 8.13503C14.3128 8.13503 17.3728 6.99503 16.3678 7.94003C15.2578 8.99003 19.5178 6.77003 18.8428 7.64003C18.1678 8.51003 18.7528 8.57003 19.7728 8.27003L20.7928 7.97003" fill="white"/>
<path d="M17.509 14.96C16.189 14.96 15.334 14.69 14.734 14.105C14.104 13.49 13.804 12.485 13.789 11.075C13.564 11.075 13.339 11 13.174 10.835C13.009 10.67 12.919 10.46 12.904 10.235C12.889 10.01 12.979 9.78502 13.144 9.62002C13.309 9.45502 13.519 9.36502 13.744 9.35002H13.864C13.924 9.15502 14.119 8.57002 14.209 8.10502C14.209 8.07502 14.239 8.04502 14.269 8.03002C15.079 7.73002 16.459 7.26502 16.624 7.55002C16.714 7.68502 16.564 7.85002 16.414 7.98502C16.354 8.04502 16.324 8.07502 16.294 8.10502C16.504 8.07502 17.014 7.88002 17.389 7.74502C18.409 7.37002 18.829 7.22002 18.949 7.38502C19.024 7.49002 18.919 7.62502 18.889 7.68502C18.574 8.09002 18.619 8.22502 18.634 8.25502C18.664 8.30002 18.829 8.42002 19.714 8.16502L20.734 7.86502C20.734 7.86502 20.839 7.86502 20.854 7.92502C20.854 7.97002 20.854 8.03002 20.794 8.04502L19.774 8.34502C19.039 8.57002 18.634 8.57002 18.484 8.36002C18.364 8.19502 18.454 7.94002 18.739 7.56502C18.754 7.53502 18.769 7.52002 18.784 7.50502C18.589 7.50502 17.914 7.74502 17.464 7.92502C16.444 8.30002 16.174 8.37502 16.084 8.24002C16.024 8.13502 16.114 8.01502 16.279 7.85002C16.444 7.70002 16.444 7.64002 16.444 7.64002C16.309 7.56502 15.274 7.85002 14.359 8.19502C14.239 8.76502 13.999 9.44002 13.984 9.47002C13.984 9.50002 13.939 9.53002 13.894 9.53002H13.714C13.534 9.53002 13.369 9.60502 13.249 9.74002C13.129 9.87502 13.054 10.04 13.069 10.22C13.069 10.4 13.144 10.565 13.279 10.685C13.414 10.805 13.564 10.865 13.759 10.88H13.864C13.864 10.88 13.909 10.88 13.939 10.91C13.954 10.925 13.969 10.955 13.969 10.985C13.969 12.395 14.254 13.37 14.869 13.97C15.424 14.525 16.234 14.765 17.509 14.765H17.539C19.774 14.765 20.749 13.565 20.809 10.775L20.764 8.61502C20.764 8.61502 20.809 8.52502 20.854 8.52502C20.854 8.52502 20.944 8.57002 20.944 8.61502L20.989 10.775C20.929 13.655 19.864 14.945 17.524 14.96H17.494H17.509Z" fill="#081017"/>
<path d="M17.2095 10.85C17.3835 10.85 17.5245 10.7089 17.5245 10.535C17.5245 10.361 17.3835 10.22 17.2095 10.22C17.0356 10.22 16.8945 10.361 16.8945 10.535C16.8945 10.7089 17.0356 10.85 17.2095 10.85Z" fill="black"/>
<path d="M19.4009 10.67C19.5749 10.67 19.7159 10.529 19.7159 10.355C19.7159 10.1811 19.5749 10.04 19.4009 10.04C19.227 10.04 19.0859 10.1811 19.0859 10.355C19.0859 10.529 19.227 10.67 19.4009 10.67Z" fill="black"/>
<path d="M13.0409 11.735L11.7359 10.175L11.5859 8.96L12.1559 7.01L13.5059 5.42L15.6959 4.28L17.2259 4.25L16.6109 5.6L14.7059 7.325L13.5809 8.75L12.9509 9.89L12.6509 10.1L13.0409 11.735Z" fill="white"/>
<path d="M13.8941 12.86C12.4691 12.86 11.5391 10.715 11.5391 9.29003C11.5391 6.48503 13.7891 4.23503 16.6691 4.16003H17.7191C19.8191 4.16003 21.5291 5.87003 21.5291 7.97003V9.56003C21.5291 9.92003 21.2441 10.205 20.8841 10.205C20.8241 10.205 20.7791 10.16 20.7791 10.1C20.7791 10.04 20.8241 9.99503 20.8841 9.99503C21.1241 9.99503 21.3341 9.80003 21.3341 9.54503V7.95504C21.3341 5.96003 19.7141 4.34003 17.7191 4.34003H16.6691C13.8941 4.41503 11.7341 6.59004 11.7341 9.27504C11.7341 10.625 12.5891 12.65 13.8941 12.65C13.9541 12.65 13.9991 12.695 13.9991 12.755C13.9991 12.815 13.9541 12.86 13.8941 12.86Z" fill="#E10098"/>
<path d="M18.4258 11.8699C18.4258 11.8699 18.9208 11.4949 19.3108 11.7949L18.4258 11.8699Z" fill="white"/>
<path d="M18.424 11.945C18.424 11.945 18.379 11.945 18.364 11.915C18.334 11.885 18.349 11.825 18.379 11.795C18.394 11.78 18.919 11.39 19.354 11.72C19.384 11.75 19.399 11.795 19.369 11.84C19.339 11.87 19.294 11.885 19.249 11.855C18.919 11.6 18.469 11.93 18.469 11.93C18.454 11.93 18.439 11.945 18.424 11.945Z" fill="#081017"/>
<path d="M16.5195 10.3999C16.5195 10.3999 16.5645 9.91994 16.8345 9.81494L16.5195 10.3999Z" fill="white"/>
<path d="M16.5203 10.49C16.4753 10.49 16.4453 10.445 16.4453 10.4C16.4453 10.385 16.4903 9.875 16.8203 9.74C16.8653 9.725 16.9103 9.74 16.9253 9.785C16.9403 9.83 16.9253 9.875 16.8803 9.89C16.6853 9.965 16.6253 10.295 16.6103 10.415C16.6103 10.46 16.5653 10.49 16.5203 10.49Z" fill="#081017"/>
<path d="M19.4883 9.55994C19.4883 9.55994 19.8633 9.75494 19.8933 9.99494L19.4883 9.55994Z" fill="white"/>
<path d="M19.8784 10.085C19.8784 10.085 19.8034 10.055 19.7884 10.01C19.7734 9.84497 19.5184 9.67997 19.4284 9.63497C19.3834 9.61997 19.3684 9.55997 19.3984 9.51497C19.4134 9.46997 19.4734 9.45497 19.5184 9.48497C19.5634 9.51497 19.9234 9.70997 19.9534 9.97997C19.9534 10.025 19.9234 10.07 19.8784 10.07V10.085Z" fill="#081017"/>
<path d="M17.4336 12.575C17.4336 12.89 17.8986 13.145 18.2136 13.145C18.5286 13.145 18.9936 12.89 18.9936 12.575" fill="white"/>
<path d="M18.2294 13.22C17.8844 13.22 17.3594 12.935 17.3594 12.56C17.3594 12.515 17.3894 12.47 17.4494 12.47C17.5094 12.47 17.5394 12.5 17.5394 12.56C17.5394 12.83 17.9744 13.04 18.2444 13.04C18.5144 13.04 18.9494 12.815 18.9494 12.56C18.9494 12.515 18.9794 12.47 19.0394 12.47C19.0994 12.47 19.1294 12.5 19.1294 12.56C19.1294 12.935 18.6044 13.22 18.2594 13.22H18.2294Z" fill="#081017"/>
<g style="mix-blend-mode:multiply">
<path d="M31.5814 45.2L31.8064 37.37C31.8214 36.695 32.2414 36.11 32.8564 35.855L35.1364 34.91L32.8864 36.665L32.4514 45.905L31.5664 45.2H31.5814Z" fill="#E6E6E6"/>
</g>
<path d="M55.2656 22.73L55.7756 22.865C56.5856 23.075 57.1406 23.81 57.1256 24.65L56.9156 36.14C56.8556 39.095 54.8456 41.66 51.9806 42.41L43.2656 44.795" fill="white"/>
<path d="M43.2502 44.9C43.2502 44.9 43.1752 44.87 43.1602 44.825C43.1602 44.78 43.1752 44.72 43.2202 44.705L51.9352 42.32C54.7552 41.585 56.7502 39.05 56.8102 36.14L57.0202 24.65C57.0202 23.855 56.5102 23.165 55.7452 22.955L55.2352 22.82C55.2352 22.82 55.1602 22.76 55.1602 22.7C55.1602 22.655 55.2202 22.625 55.2802 22.625L55.7902 22.76C56.6452 22.985 57.2302 23.765 57.2152 24.635L57.0052 36.125C56.9452 39.11 54.8902 41.735 51.9952 42.485L43.2802 44.87C43.2802 44.87 43.2652 44.87 43.2502 44.87V44.9Z" fill="#081017"/>
<path d="M9.36328 18.0649C10.8033 20.1649 11.5383 22.6699 11.4633 25.2199L11.3733 28.6699" fill="white"/>
<path d="M11.374 28.76C11.374 28.76 11.284 28.715 11.284 28.67L11.374 25.22C11.449 22.67 10.714 20.225 9.28905 18.125C9.25905 18.08 9.27405 18.02 9.31905 17.99C9.36405 17.96 9.42404 17.975 9.45404 18.02C10.909 20.15 11.644 22.64 11.569 25.22L11.479 28.67C11.479 28.67 11.434 28.76 11.389 28.76H11.374Z" fill="#081017"/>
<path d="M11.0469 28.61L16.9869 29.6C16.9869 29.6 15.9369 30.98 16.2219 32.96" fill="white"/>
<path d="M16.2204 33.0649C16.2204 33.0649 16.1304 33.0349 16.1304 32.9899C15.8904 31.3099 16.5804 30.0649 16.8354 29.6749L11.0454 28.7149C11.0454 28.7149 10.9554 28.6549 10.9704 28.6099C10.9704 28.5649 11.0304 28.5199 11.0754 28.5349L17.0154 29.5249C17.0154 29.5249 17.0754 29.5549 17.0904 29.5849C17.0904 29.6149 17.0904 29.6449 17.0904 29.6749C17.0904 29.6749 16.0554 31.0549 16.3404 32.9749C16.3404 33.0199 16.3104 33.0799 16.2654 33.0799L16.2204 33.0649Z" fill="#081017"/>
<path d="M12.3945 32.6899L15.0195 32.9749L17.5545 33.1249C17.5545 33.1249 17.7045 33.0349 17.8245 32.7499" fill="white"/>
<path d="M17.5391 33.215L15.0041 33.065L12.3791 32.78C12.3791 32.78 12.2891 32.72 12.2891 32.675C12.2891 32.63 12.3491 32.585 12.3941 32.585L15.0191 32.87L17.5091 33.02C17.5091 33.02 17.6441 32.9 17.7191 32.705C17.7341 32.66 17.7941 32.63 17.8391 32.645C17.8841 32.66 17.9141 32.72 17.8991 32.765C17.7791 33.08 17.6141 33.17 17.5991 33.185C17.5991 33.185 17.5691 33.185 17.5541 33.185L17.5391 33.215Z" fill="#081017"/>
<path d="M16.8164 29.855L18.0014 30.065C18.0014 30.065 17.2814 31.145 17.4464 32.645C17.4614 32.795 17.4914 32.96 17.5364 33.125" fill="white"/>
<path d="M17.5382 33.215C17.5382 33.215 17.4632 33.185 17.4482 33.14C17.4032 32.975 17.3732 32.81 17.3582 32.66C17.2082 31.415 17.6732 30.47 17.8532 30.14L16.8032 29.945C16.8032 29.945 16.7132 29.885 16.7282 29.84C16.7432 29.795 16.7882 29.75 16.8332 29.765L18.0182 29.975C18.0182 29.975 18.0782 30.005 18.0932 30.035C18.0932 30.065 18.0932 30.095 18.0932 30.125C18.0932 30.125 17.3882 31.205 17.5532 32.645C17.5682 32.795 17.5982 32.96 17.6432 33.11C17.6432 33.155 17.6282 33.215 17.5682 33.23C17.5682 33.23 17.5682 33.23 17.5532 33.23L17.5382 33.215Z" fill="#081017"/>
<path d="M24.2898 32.33L24.3498 32.45C24.4248 32.6 24.6198 32.63 24.7548 32.525C24.8448 32.45 24.8748 32.315 24.8298 32.21L24.4848 31.445C24.3798 31.22 24.2148 31.04 24.0198 30.905L22.3998 29.885C22.3998 29.885 21.4248 29.66 20.6148 29.9C19.5948 30.215 17.8398 30.035 17.8398 30.035" fill="white"/>
<path d="M24.59 32.69C24.59 32.69 24.545 32.69 24.515 32.69C24.41 32.675 24.32 32.6 24.26 32.51L24.2 32.39C24.2 32.39 24.2 32.285 24.245 32.255C24.29 32.225 24.35 32.255 24.38 32.3L24.44 32.42C24.44 32.42 24.5 32.495 24.56 32.51C24.605 32.51 24.665 32.51 24.695 32.48C24.755 32.435 24.77 32.345 24.74 32.285L24.395 31.52C24.305 31.31 24.155 31.145 23.96 31.025L22.355 30.02C22.235 29.99 21.365 29.825 20.645 30.035C19.61 30.35 17.915 30.185 17.84 30.17C17.795 30.17 17.75 30.125 17.75 30.065C17.75 30.005 17.81 29.975 17.855 29.975C17.87 29.975 19.595 30.155 20.585 29.84C21.41 29.585 22.37 29.81 22.415 29.825C22.415 29.825 22.43 29.825 22.445 29.825L24.065 30.845C24.29 30.98 24.47 31.19 24.575 31.43L24.92 32.195C24.98 32.345 24.95 32.51 24.83 32.615C24.77 32.675 24.68 32.705 24.605 32.705L24.59 32.69Z" fill="#081017"/>
<path d="M6.30469 27.035L6.70969 20.825C6.81469 19.115 7.80469 17.57 9.31969 16.76L13.1147 14.72" fill="white"/>
<path d="M6.30484 27.14C6.25984 27.14 6.21484 27.095 6.21484 27.035L6.61984 20.825C6.73984 19.07 7.72984 17.525 9.27484 16.685L13.0698 14.645C13.0698 14.645 13.1748 14.645 13.2048 14.69C13.2348 14.735 13.2048 14.795 13.1598 14.825L9.36484 16.865C7.86484 17.675 6.91984 19.16 6.79984 20.855L6.39484 27.065C6.39484 27.065 6.34984 27.155 6.30484 27.155V27.14Z" fill="#081017"/>
<path d="M14.3467 13.4449C13.5367 13.8049 13.0117 14.6149 13.0117 15.4999V22.0699" fill="white"/>
<path d="M12.9962 22.16C12.9962 22.16 12.9062 22.115 12.9062 22.07V15.5C12.9062 14.57 13.4612 13.73 14.3012 13.355C14.3462 13.34 14.4062 13.355 14.4212 13.4C14.4362 13.445 14.4212 13.505 14.3762 13.52C13.5962 13.865 13.0862 14.645 13.0862 15.5V22.07C13.0862 22.07 13.0412 22.16 12.9962 22.16Z" fill="#081017"/>
<path d="M13.3256 23.705C13.773 23.705 14.1356 23.3423 14.1356 22.895C14.1356 22.4476 13.773 22.085 13.3256 22.085C12.8783 22.085 12.5156 22.4476 12.5156 22.895C12.5156 23.3423 12.8783 23.705 13.3256 23.705Z" fill="white"/>
<path d="M13.3258 23.795C12.8308 23.795 12.4258 23.39 12.4258 22.895C12.4258 22.4 12.8308 21.995 13.3258 21.995C13.8208 21.995 14.2258 22.4 14.2258 22.895C14.2258 23.39 13.8208 23.795 13.3258 23.795ZM13.3258 22.19C12.9358 22.19 12.6208 22.505 12.6208 22.895C12.6208 23.285 12.9358 23.6 13.3258 23.6C13.7158 23.6 14.0308 23.285 14.0308 22.895C14.0308 22.505 13.7158 22.19 13.3258 22.19Z" fill="#081017"/>
<path d="M13.3228 24.23C13.911 24.23 14.3878 23.7532 14.3878 23.165C14.3878 22.5768 13.911 22.1 13.3228 22.1C12.7346 22.1 12.2578 22.5768 12.2578 23.165C12.2578 23.7532 12.7346 24.23 13.3228 24.23Z" fill="white"/>
<path d="M13.323 24.32C12.678 24.32 12.168 23.795 12.168 23.165C12.168 22.535 12.693 22.01 13.323 22.01C13.953 22.01 14.478 22.535 14.478 23.165C14.478 23.795 13.953 24.32 13.323 24.32ZM13.323 22.19C12.783 22.19 12.363 22.625 12.363 23.15C12.363 23.675 12.798 24.11 13.323 24.11C13.848 24.11 14.283 23.675 14.283 23.15C14.283 22.625 13.848 22.19 13.323 22.19Z" fill="#081017"/>
<path d="M14.1478 23.075C14.1561 23.075 14.1628 23.0683 14.1628 23.06C14.1628 23.0518 14.1561 23.045 14.1478 23.045C14.1395 23.045 14.1328 23.0518 14.1328 23.06C14.1328 23.0683 14.1395 23.075 14.1478 23.075Z" fill="white"/>
<path d="M14.148 23.165C14.148 23.165 14.043 23.12 14.043 23.045C14.043 22.97 14.088 22.925 14.148 22.925C14.208 22.925 14.253 22.985 14.253 23.045C14.253 23.105 14.208 23.165 14.148 23.165ZM14.148 22.985C14.148 22.985 14.073 23.015 14.073 23.06C14.073 23.105 14.103 23.135 14.148 23.135C14.193 23.135 14.223 23.105 14.223 23.06C14.223 23.015 14.193 22.985 14.148 22.985Z" fill="#081017"/>
<path d="M19.5352 15.1399L21.6352 16.0849C23.1502 16.5649 24.3652 17.7049 24.9652 19.1749L26.5252 23.0899" fill="white"/>
<path d="M26.5246 23.1799C26.5246 23.1799 26.4496 23.1499 26.4346 23.1199L24.8746 19.2049C24.2896 17.7499 23.1046 16.6399 21.6046 16.1749L19.4896 15.2299C19.4896 15.2299 19.4146 15.1549 19.4446 15.1099C19.4596 15.0649 19.5196 15.0349 19.5646 15.0649L21.6646 16.0099C23.2096 16.4899 24.4396 17.6449 25.0396 19.1449L26.5996 23.0599C26.5996 23.0599 26.5996 23.1649 26.5396 23.1799H26.5096H26.5246Z" fill="#081017"/>
<path d="M23.3595 30.5C23.3595 30.5 23.2695 30.455 23.2695 30.41V20.21C23.2695 20.21 23.3145 20.12 23.3595 20.12C23.4045 20.12 23.4495 20.165 23.4495 20.21V30.41C23.4495 30.41 23.4045 30.5 23.3595 30.5Z" fill="#081017"/>
<path d="M18.9627 14.8099L19.3827 19.8649L18.5127 25.3849C18.4077 26.0749 18.3477 26.7649 18.3477 27.4549V30.0799" fill="white"/>
<path d="M18.3634 30.2C18.3634 30.2 18.2734 30.155 18.2734 30.11V27.485C18.2734 26.795 18.3334 26.09 18.4384 25.4L19.3084 19.88L18.8884 14.84C18.8884 14.84 18.9184 14.735 18.9784 14.735C19.0234 14.735 19.0834 14.765 19.0834 14.825L19.5034 19.88L18.6334 25.43C18.5284 26.105 18.4684 26.81 18.4684 27.485V30.11C18.4684 30.11 18.4234 30.2 18.3784 30.2H18.3634Z" fill="#081017"/>
<path d="M17.3309 29.8999L17.3909 29.3449C17.6909 26.5999 17.3159 23.8399 16.3259 21.2599L14.5559 16.6549C14.1959 15.7099 14.1209 14.6749 14.3309 13.6849" fill="white"/>
<path d="M17.3305 30.005C17.2855 30.005 17.2405 29.945 17.2405 29.9L17.3005 29.345C17.5855 26.63 17.2255 23.855 16.2505 21.305L14.4805 16.7C14.1055 15.74 14.0305 14.69 14.2555 13.67C14.2555 13.625 14.3155 13.58 14.3755 13.595C14.4205 13.595 14.4655 13.655 14.4505 13.715C14.2405 14.69 14.3155 15.695 14.6755 16.625L16.4455 21.23C17.4355 23.81 17.7955 26.615 17.5105 29.36L17.4505 29.915C17.4505 29.915 17.4055 30.005 17.3605 30.005H17.3305Z" fill="#081017"/>
<path d="M19.25 14.6749L20.705 17.1199C21.44 18.4699 21.83 19.9849 21.83 21.5299V23.3899" fill="white"/>
<path d="M21.8308 23.4799C21.8308 23.4799 21.7408 23.4349 21.7408 23.3899V21.5299C21.7408 20.0149 21.3508 18.4999 20.6308 17.1649L19.1758 14.7199C19.1758 14.7199 19.1758 14.6149 19.2058 14.5849C19.2508 14.5549 19.3108 14.5849 19.3408 14.6149L20.7958 17.0599C21.5308 18.4249 21.9208 19.9699 21.9208 21.5149V23.3749C21.9208 23.3749 21.8758 23.4649 21.8308 23.4649V23.4799Z" fill="#081017"/>
<path d="M18.4375 26.09L21.2125 20.015L20.0425 18.71L20.9875 17.765" fill="white"/>
<path d="M18.438 26.195C18.438 26.195 18.408 26.195 18.393 26.195C18.348 26.18 18.318 26.12 18.348 26.075L21.093 20.045L19.968 18.8C19.968 18.8 19.938 18.71 19.968 18.665L20.913 17.72C20.913 17.72 21.003 17.69 21.048 17.72C21.078 17.75 21.078 17.81 21.048 17.855L20.163 18.74L21.273 19.97C21.273 19.97 21.303 20.045 21.288 20.075L18.528 26.15C18.528 26.15 18.483 26.21 18.438 26.21V26.195Z" fill="#081017"/>
<path d="M13.0078 18.455L13.9678 19.04L13.2028 20.24L17.4028 25.97" fill="white"/>
<path d="M17.4042 26.075C17.4042 26.075 17.3442 26.075 17.3292 26.03L13.1292 20.285C13.1292 20.285 13.0992 20.21 13.1292 20.18L13.8492 19.07L12.9642 18.53C12.9642 18.53 12.9042 18.44 12.9342 18.395C12.9642 18.35 13.0242 18.335 13.0692 18.365L14.0442 18.965C14.0442 18.965 14.0742 18.995 14.0892 19.025C14.0892 19.055 14.0892 19.07 14.0892 19.1L13.3542 20.24L17.5242 25.925C17.5242 25.925 17.5392 26.03 17.5092 26.06C17.4942 26.06 17.4792 26.075 17.4492 26.075H17.4042Z" fill="#081017"/>
<path d="M17.8402 17.1949C17.5552 17.1949 17.2852 17.105 17.0602 16.94L15.6652 15.935C15.0052 15.455 14.4802 14.81 14.1502 14.06C14.1352 14.015 14.1502 13.955 14.1952 13.94C14.2402 13.925 14.3002 13.94 14.3152 13.985C14.6302 14.705 15.1402 15.32 15.7702 15.785L17.1652 16.79C17.5852 17.09 18.1852 17.06 18.5752 16.73L18.7552 16.565C18.7552 16.565 18.8752 16.475 18.9202 16.445C19.0102 16.385 19.0402 16.37 19.0402 16.235L18.9352 15.485C18.9352 15.485 18.9652 15.38 19.0102 15.38C19.0552 15.38 19.1152 15.41 19.1152 15.455L19.2202 16.2199C19.2202 16.4749 19.1452 16.535 19.0252 16.61C18.9802 16.64 18.9352 16.67 18.8752 16.715L18.6952 16.88C18.4552 17.09 18.1402 17.2099 17.8252 17.2099L17.8402 17.1949Z" fill="#081017"/>
<path d="M14.5703 16.655L16.6553 18.875L17.5553 17.12" fill="white"/>
<path d="M16.6538 18.965C16.6538 18.965 16.6088 18.965 16.5788 18.935L14.4938 16.715C14.4938 16.715 14.4638 16.61 14.4938 16.58C14.5388 16.55 14.5988 16.55 14.6288 16.58L16.6238 18.695L17.4638 17.06C17.4638 17.06 17.5388 17 17.5988 17.015C17.6438 17.045 17.6588 17.09 17.6438 17.15L16.7288 18.905C16.7288 18.905 16.6838 18.95 16.6538 18.95V18.965Z" fill="#081017"/>
<path d="M18.1562 17.0601L18.8612 18.8151L19.3862 18.2151" fill="white"/>
<path d="M18.8608 18.92C18.8608 18.92 18.8608 18.92 18.8458 18.92C18.8158 18.92 18.7858 18.89 18.7708 18.86L18.0508 17.105C18.0508 17.105 18.0508 17 18.0958 16.985C18.1408 16.97 18.2008 16.985 18.2158 17.03L18.8758 18.65L19.2958 18.17C19.2958 18.17 19.3858 18.125 19.4308 18.17C19.4758 18.2 19.4758 18.26 19.4308 18.305L18.9208 18.905C18.9208 18.905 18.8758 18.935 18.8458 18.935L18.8608 18.92Z" fill="#081017"/>
<path d="M17.0742 18.0499L17.6142 18.7549L18.0492 18.7399L18.5442 18.0499" fill="white"/>
<path d="M17.6131 18.8449C17.6131 18.8449 17.5531 18.8449 17.5381 18.8149L16.9981 18.1099C16.9981 18.1099 16.9681 18.0049 17.0131 17.9749C17.0581 17.9449 17.1181 17.9449 17.1481 17.9899L17.6581 18.6499H18.0031L18.4681 17.9899C18.4981 17.9449 18.5581 17.9299 18.6031 17.9749C18.6481 18.0049 18.6631 18.0649 18.6181 18.1099L18.1231 18.7999C18.1231 18.7999 18.0781 18.8449 18.0481 18.8449H17.6131Z" fill="#081017"/>
<path d="M17.1056 23.93C17.0606 23.93 17.0156 23.885 17.0156 23.825L17.5106 18.74C17.5106 18.74 17.5556 18.65 17.6156 18.65C17.6606 18.65 17.7056 18.695 17.7056 18.755L17.2106 23.84C17.2106 23.84 17.1656 23.93 17.1206 23.93H17.1056Z" fill="#081017"/>
<path d="M18.8159 23.51C18.8159 23.51 18.7259 23.48 18.7259 23.435L17.9609 18.77C17.9609 18.77 17.9909 18.665 18.0359 18.665C18.0809 18.665 18.1409 18.695 18.1409 18.74L18.9059 23.405C18.9059 23.405 18.8759 23.51 18.8309 23.51C18.8309 23.51 18.8309 23.51 18.8159 23.51Z" fill="#081017"/>
<path d="M0.363281 26.375L10.4883 27.365L13.5333 36.14L3.22828 34.79L0.363281 26.375Z" fill="#F41BA2"/>
<path d="M13.5347 36.2449L3.24469 34.895C3.24469 34.895 3.18469 34.8649 3.16969 34.8349L0.304688 26.42C0.304688 26.42 0.304687 26.36 0.319687 26.33C0.334687 26.3 0.364687 26.285 0.409687 26.3L10.5347 27.29C10.5347 27.29 10.6097 27.32 10.6097 27.35L13.6397 36.1249C13.6397 36.1249 13.6397 36.1849 13.6247 36.2149C13.6097 36.2299 13.5797 36.2449 13.5497 36.2449H13.5347ZM3.30469 34.7149L13.3847 36.035L10.4147 27.4549L0.484688 26.48L3.28969 34.6999L3.30469 34.7149Z" fill="#081017"/>
<path d="M12.6797 33.455L18.3947 34.4V34.895L13.5347 36.14" fill="#E4E4E4"/>
<path d="M13.5332 36.245C13.5332 36.245 13.4582 36.215 13.4432 36.17C13.4432 36.125 13.4582 36.065 13.5182 36.05L18.3182 34.82V34.475L12.6782 33.545C12.6782 33.545 12.5882 33.485 12.6032 33.44C12.6032 33.395 12.6632 33.35 12.7082 33.365L18.4232 34.31C18.4232 34.31 18.4982 34.355 18.4982 34.4V34.895C18.4982 34.895 18.4682 34.97 18.4232 34.985L13.5482 36.245C13.5482 36.245 13.5332 36.245 13.5182 36.245H13.5332Z" fill="#081017"/>
<path d="M13.3986 35.66C13.3986 35.66 13.3236 35.63 13.3086 35.585C13.3086 35.54 13.3236 35.48 13.3836 35.465L18.3936 34.295C18.3936 34.295 18.4986 34.31 18.5136 34.37C18.5136 34.415 18.4986 34.475 18.4386 34.49L13.4286 35.66C13.4286 35.66 13.4286 35.66 13.4136 35.66H13.3986Z" fill="#081017"/>
<path d="M30.0958 38.315H2.76578C2.76578 38.315 2.67578 38.27 2.67578 38.225C2.67578 38.18 2.72078 38.135 2.76578 38.135H30.0958C30.0958 38.135 30.1858 38.18 30.1858 38.225C30.1858 38.27 30.1408 38.315 30.0958 38.315Z" fill="#081017"/>
<path d="M36.7544 32.24L34.6694 31.49H24.4844" fill="white"/>
<path d="M36.7545 32.33C36.7545 32.33 36.7395 32.33 36.7245 32.33L34.6545 31.58H24.4845C24.4845 31.58 24.3945 31.535 24.3945 31.49C24.3945 31.445 24.4395 31.4 24.4845 31.4H34.6695C34.6695 31.4 34.6845 31.4 34.6995 31.4L36.7845 32.15C36.7845 32.15 36.8595 32.225 36.8445 32.27C36.8445 32.315 36.7995 32.33 36.7545 32.33Z" fill="#081017"/>
<path d="M23.332 27.0949L24.892 28.9999C25.807 30.1099 27.592 29.8549 28.147 28.5199L30.457 22.9849L30.082 22.7899" fill="white"/>
<path d="M26.3761 29.7799C25.7761 29.7799 25.2211 29.5099 24.8311 29.0449L23.2711 27.1399C23.2711 27.1399 23.2411 27.0349 23.2711 27.0049C23.3161 26.9749 23.3761 26.9749 23.4061 27.0049L24.9661 28.9099C25.3711 29.4049 26.0011 29.6449 26.6461 29.5549C27.2911 29.4649 27.8161 29.0449 28.0561 28.4599L30.3361 22.9999L30.0361 22.8499C30.0361 22.8499 29.9761 22.7749 29.9911 22.7149C30.0211 22.6699 30.0661 22.6549 30.1261 22.6699L30.5011 22.8649C30.5011 22.8649 30.5611 22.9399 30.5461 22.9849L28.2361 28.5199C27.9661 29.1799 27.3811 29.6299 26.6761 29.7349C26.5711 29.7349 26.4811 29.7499 26.3761 29.7499V29.7799Z" fill="#081017"/>
<path d="M25.7736 25.2499H25.7436C25.6986 25.2349 25.6686 25.1749 25.6836 25.1299L27.1536 21.4699C27.1536 21.4699 27.2286 21.3949 27.2736 21.4099C27.3186 21.4249 27.3486 21.4849 27.3336 21.5299L25.8636 25.1899C25.8636 25.1899 25.8186 25.2499 25.7736 25.2499Z" fill="#081017"/>
<path d="M29.523 19.265C29.523 19.265 29.628 18.275 29.088 17.72C28.548 17.165 28.143 17 28.143 17L27.723 15.695C27.648 15.485 27.423 15.365 27.213 15.44C27.018 15.5 26.898 15.71 26.943 15.905L27.198 17.12V18.1551C27.228 18.7101 27.438 19.2201 27.753 19.6701C27.843 19.7901 27.903 19.94 27.948 20.105" fill="white"/>
<path d="M27.948 20.195C27.948 20.195 27.858 20.165 27.858 20.12C27.828 19.985 27.768 19.85 27.693 19.73C27.333 19.235 27.153 18.695 27.138 18.155V17.12L26.868 15.92C26.823 15.665 26.958 15.425 27.198 15.35C27.318 15.305 27.453 15.32 27.573 15.38C27.693 15.44 27.783 15.545 27.828 15.665L28.233 16.94C28.353 17 28.698 17.21 29.163 17.66C29.733 18.23 29.628 19.235 29.628 19.28C29.628 19.325 29.568 19.37 29.523 19.37C29.478 19.37 29.433 19.31 29.433 19.265C29.433 19.265 29.538 18.32 29.013 17.795C28.488 17.27 28.098 17.09 28.098 17.09C28.068 17.09 28.053 17.06 28.053 17.03L27.633 15.725C27.603 15.65 27.558 15.59 27.483 15.545C27.408 15.5 27.333 15.5 27.243 15.53C27.093 15.575 27.003 15.725 27.033 15.89L27.288 17.105L27.318 18.155C27.318 18.65 27.513 19.16 27.843 19.625C27.948 19.775 28.023 19.925 28.053 20.09C28.053 20.135 28.023 20.195 27.978 20.195C27.978 20.195 27.978 20.195 27.963 20.195H27.948Z" fill="#081017"/>
<path d="M28.4883 16.595L28.7733 16.01L29.1183 13.43C29.1483 13.205 29.3583 13.055 29.5683 13.1C29.7783 13.13 29.9133 13.34 29.8833 13.55L29.8083 14.03" fill="white"/>
<path d="M28.4902 16.7C28.4902 16.7 28.4602 16.7 28.4452 16.7C28.4002 16.67 28.3852 16.625 28.4002 16.58L28.6702 16.01L29.0152 13.445C29.0302 13.31 29.1052 13.19 29.2102 13.115C29.3152 13.04 29.4502 13.01 29.5852 13.025C29.8402 13.07 30.0202 13.31 29.9752 13.58L29.9002 14.06C29.9002 14.06 29.8402 14.15 29.7952 14.135C29.7502 14.135 29.7052 14.075 29.7202 14.03L29.7952 13.55C29.8252 13.385 29.7052 13.235 29.5552 13.22C29.4802 13.22 29.3902 13.22 29.3302 13.28C29.2702 13.325 29.2252 13.4 29.2102 13.475L28.8652 16.055C28.8652 16.055 28.8652 16.07 28.8652 16.085L28.5802 16.67C28.5802 16.67 28.5352 16.73 28.4902 16.73V16.7Z" fill="#081017"/>
<path d="M29.418 16.1299L29.898 13.2499C29.928 13.0549 30.108 12.9349 30.303 12.9799C30.558 13.0399 30.708 13.2799 30.663 13.5349L30.093 16.5499" fill="white"/>
<path d="M30.0928 16.64C30.0928 16.64 30.0928 16.64 30.0778 16.64C30.0328 16.64 29.9878 16.58 30.0028 16.535L30.5728 13.52C30.6178 13.325 30.4828 13.13 30.2878 13.085C30.2278 13.07 30.1528 13.085 30.1078 13.115C30.0478 13.145 30.0178 13.205 30.0028 13.28L29.5228 16.16C29.5228 16.16 29.4628 16.25 29.4178 16.235C29.3728 16.235 29.3278 16.175 29.3428 16.13L29.8228 13.25C29.8378 13.13 29.9128 13.025 30.0028 12.965C30.1078 12.905 30.2278 12.875 30.3328 12.905C30.6328 12.98 30.8278 13.265 30.7678 13.565L30.1978 16.58C30.1978 16.58 30.1528 16.655 30.1078 16.655L30.0928 16.64Z" fill="#081017"/>
<path d="M30.7856 17.6L31.2206 14.735V13.685C31.2056 13.565 31.1306 13.475 31.0256 13.43C30.8756 13.37 30.6956 13.46 30.6506 13.61C30.5606 13.94 30.5156 14.435 30.5156 14.435" fill="white"/>
<path d="M30.7858 17.705C30.7408 17.705 30.6958 17.66 30.6958 17.615C30.6958 17.57 30.9658 15.785 31.1308 14.735V13.7C31.1308 13.7 31.0708 13.565 30.9958 13.535C30.9508 13.52 30.8908 13.52 30.8458 13.535C30.8008 13.565 30.7708 13.595 30.7558 13.655C30.6658 13.97 30.6208 14.465 30.6208 14.465C30.6208 14.51 30.5608 14.555 30.5158 14.555C30.4708 14.555 30.4258 14.51 30.4258 14.45C30.4258 14.435 30.4858 13.94 30.5608 13.61C30.5908 13.505 30.6508 13.415 30.7558 13.37C30.8458 13.325 30.9658 13.31 31.0558 13.37C31.1908 13.43 31.2958 13.565 31.2958 13.715V14.765C31.1458 15.89 30.8908 17.57 30.8758 17.645C30.8758 17.69 30.8308 17.735 30.7858 17.735V17.705Z" fill="#081017"/>
<path d="M27.5881 20.075L27.0781 21.23C27.0781 21.23 27.7531 22.805 30.2131 22.73C30.3331 22.265 30.4681 21.695 30.4681 21.695C30.4681 21.695 28.2181 21.755 27.6031 20.075H27.5881Z" fill="white"/>
<path d="M30.0633 22.82C27.6933 22.82 27.0183 21.32 26.9883 21.26C26.9883 21.23 26.9883 21.215 26.9883 21.185L27.4983 20.03C27.4983 20.03 27.5433 19.97 27.5883 19.97C27.6333 19.97 27.6633 20 27.6783 20.03C28.2783 21.635 30.4383 21.59 30.4533 21.59C30.4833 21.59 30.5133 21.59 30.5283 21.62C30.5433 21.65 30.5583 21.68 30.5433 21.695C30.5433 21.695 30.4083 22.28 30.2883 22.73C30.2883 22.775 30.2433 22.805 30.1983 22.805C30.1533 22.805 30.0933 22.805 30.0483 22.805L30.0633 22.82ZM27.1833 21.23C27.3033 21.47 28.0083 22.67 30.1383 22.64C30.2133 22.325 30.3033 21.965 30.3483 21.785C29.8833 21.77 28.2333 21.62 27.5883 20.315L27.1833 21.23Z" fill="#081017"/>
<path d="M27.59 20.165C27.59 20.165 27.5 20.135 27.5 20.09C27.5 20.045 27.515 19.985 27.575 19.97L27.905 19.895C27.905 19.895 28.01 19.91 28.025 19.97C28.025 20.015 28.01 20.075 27.95 20.09L27.62 20.165C27.62 20.165 27.62 20.165 27.605 20.165H27.59Z" fill="#081017"/>
<path d="M30.2617 21.56L30.2167 20.99C30.2017 20.705 30.2767 20.435 30.4567 20.195L31.0417 19.415L31.2517 18.935L31.7017 18.155" fill="white"/>
<path d="M30.2616 21.65C30.2616 21.65 30.1716 21.605 30.1716 21.56L30.1266 20.99C30.1116 20.69 30.2016 20.39 30.3816 20.135L30.9666 19.355L31.1616 18.89L31.6116 18.095C31.6116 18.095 31.7016 18.035 31.7466 18.065C31.7916 18.095 31.8066 18.155 31.7766 18.2L31.3266 18.98L31.1316 19.46L30.5316 20.27C30.3816 20.48 30.3066 20.735 30.3216 20.99L30.3666 21.56C30.3666 21.56 30.3366 21.665 30.2766 21.665L30.2616 21.65Z" fill="#081017"/>
<path d="M21.4705 27.6499C20.9305 27.6499 20.4805 27.1999 20.4805 26.6599V25.3099C20.4805 24.2599 21.0355 23.4049 21.7255 23.4049C22.4155 23.4049 22.9705 24.2599 22.9705 25.3099V26.6599C22.9705 27.1999 22.5205 27.6499 21.9805 27.6499" fill="white"/>
<path d="M21.9656 27.7399C21.9656 27.7399 21.8756 27.6949 21.8756 27.6499C21.8756 27.6049 21.9206 27.5599 21.9656 27.5599C22.4606 27.5599 22.8656 27.1549 22.8656 26.6599V25.3099C22.8656 24.3199 22.3556 23.4949 21.7106 23.4949C21.0656 23.4949 20.5556 24.3049 20.5556 25.3099V26.6599C20.5556 27.1549 20.9606 27.5599 21.4556 27.5599C21.5156 27.5599 21.5606 27.6049 21.5606 27.6499C21.5606 27.6949 21.5156 27.7399 21.4706 27.7399C20.8706 27.7399 20.3906 27.2599 20.3906 26.6599V25.3099C20.3906 24.2149 20.9906 23.3149 21.7256 23.3149C22.4606 23.3149 23.0606 24.2149 23.0606 25.3099V26.6599C23.0606 27.2599 22.5806 27.7399 21.9806 27.7399H21.9656Z" fill="#081017"/>
<path d="M21.5008 27.5299H21.4258V27.7549H21.5008V27.5299Z" fill="white"/>
<path d="M21.5003 27.4399H21.4103C21.3606 27.4399 21.3203 27.4802 21.3203 27.5299V27.7699C21.3203 27.8196 21.3606 27.8599 21.4103 27.8599H21.5003C21.55 27.8599 21.5903 27.8196 21.5903 27.7699V27.5299C21.5903 27.4802 21.55 27.4399 21.5003 27.4399Z" fill="#081017"/>
<path d="M22.0242 27.5299H21.9492V27.7549H22.0242V27.5299Z" fill="white"/>
<path d="M22.0238 27.4399H21.9338C21.884 27.4399 21.8438 27.4802 21.8438 27.5299V27.7699C21.8438 27.8196 21.884 27.8599 21.9338 27.8599H22.0238C22.0735 27.8599 22.1138 27.8196 22.1138 27.7699V27.5299C22.1138 27.4802 22.0735 27.4399 22.0238 27.4399Z" fill="#081017"/>
<path d="M32.0464 20.45L31.9414 18.515H32.1514C32.2414 18.515 32.3314 18.575 32.3464 18.665L32.6164 20.72C32.6314 20.87 32.6164 21.035 32.5714 21.185L32.2114 22.4C32.1514 22.595 32.1964 22.82 32.3164 22.985L34.4614 25.94" fill="white"/>
<path d="M34.4453 26.045C34.4453 26.045 34.3853 26.045 34.3703 26L32.2253 23.045C32.0903 22.85 32.0453 22.61 32.1053 22.37L32.4653 21.155C32.5103 21.02 32.5253 20.87 32.4953 20.735L32.2253 18.68C32.2253 18.68 32.1803 18.605 32.1353 18.605H32.0303L32.1203 20.45C32.1203 20.51 32.0753 20.54 32.0303 20.555C31.9703 20.555 31.9403 20.51 31.9253 20.465L31.8203 18.53C31.8203 18.53 31.8203 18.485 31.8503 18.455C31.8653 18.44 31.8953 18.425 31.9103 18.425H32.1203C32.2703 18.425 32.3903 18.515 32.4053 18.665L32.6753 20.72C32.7053 20.885 32.6753 21.065 32.6303 21.23L32.2703 22.445C32.2253 22.625 32.2553 22.805 32.3603 22.955L34.5053 25.91C34.5053 25.91 34.5203 26.015 34.4903 26.045C34.4753 26.045 34.4603 26.06 34.4303 26.06L34.4453 26.045Z" fill="#081017"/>
<path d="M30.9822 21.245C30.9822 21.245 30.9372 20.84 31.1022 20.51C31.2672 20.18 31.2072 19.085 31.2072 19.085" fill="white"/>
<path d="M30.9815 21.335C30.9815 21.335 30.8915 21.305 30.8915 21.245C30.8915 21.23 30.8315 20.81 31.0265 20.45C31.1615 20.195 31.1315 19.37 31.1165 19.07C31.1165 19.025 31.1465 18.965 31.2065 18.965C31.2665 18.965 31.3115 18.995 31.3115 19.055C31.3115 19.175 31.3865 20.195 31.2065 20.54C31.0415 20.84 31.0865 21.215 31.0865 21.215C31.0865 21.26 31.0565 21.32 31.0115 21.32L30.9815 21.335Z" fill="#081017"/>
<path d="M31.4414 18.635C31.4414 18.635 31.5314 18.77 31.6214 19.25C31.7114 19.73 31.6664 20.465 31.6664 20.465" fill="white"/>
<path d="M31.6829 20.555C31.6379 20.555 31.5929 20.51 31.5929 20.45C31.5929 20.45 31.6529 19.73 31.5479 19.265C31.4579 18.815 31.3679 18.68 31.3679 18.68C31.3379 18.635 31.3679 18.575 31.3979 18.545C31.4429 18.515 31.5029 18.53 31.5329 18.575C31.5329 18.59 31.6379 18.74 31.7279 19.22C31.8329 19.715 31.7729 20.42 31.7729 20.45C31.7729 20.495 31.7279 20.54 31.6829 20.54V20.555Z" fill="#081017"/>
<path d="M32.017 18.5C32.017 18.5 31.882 18.395 31.702 18.305L31.897 15.41C31.912 15.08 31.897 14.75 31.822 14.435C31.792 14.315 31.687 14.225 31.567 14.225C31.387 14.225 31.252 14.36 31.237 14.525L31.207 14.825" fill="white"/>
<path d="M32.0166 18.59C32.0166 18.59 31.9716 18.59 31.9566 18.575C31.9566 18.575 31.8216 18.47 31.6566 18.38C31.6266 18.365 31.5966 18.32 31.6116 18.29L31.8066 15.395C31.8216 15.08 31.8066 14.765 31.7316 14.45C31.7166 14.375 31.6416 14.315 31.5666 14.315C31.4466 14.315 31.3416 14.405 31.3266 14.525L31.2966 14.825C31.2966 14.825 31.2516 14.915 31.1916 14.915C31.1466 14.915 31.1016 14.87 31.1016 14.81L31.1316 14.51C31.1466 14.285 31.3416 14.12 31.5516 14.12C31.7166 14.12 31.8516 14.24 31.8966 14.405C31.9716 14.735 32.0016 15.065 31.9716 15.41L31.7766 18.245C31.9266 18.335 32.0466 18.425 32.0466 18.425C32.0916 18.455 32.0916 18.515 32.0616 18.56C32.0466 18.59 32.0166 18.59 31.9866 18.59H32.0166Z" fill="#081017"/>
<path d="M34.2204 28.4C33.6504 28.4 33.0954 28.1 32.8104 27.56L31.7904 25.385C31.5954 24.98 31.4304 24.575 31.2954 24.155C30.8904 22.97 30.6204 22.235 30.5754 22.145C30.4554 21.935 30.3804 21.725 30.3804 21.71C30.3804 21.71 30.3804 21.695 30.3804 21.68C30.3804 21.65 30.3504 20.96 30.5604 20.525C30.7404 20.135 30.7704 19.745 30.7704 19.73C30.7704 19.685 30.8154 19.64 30.8754 19.64C30.9204 19.64 30.9654 19.685 30.9654 19.745C30.9654 19.76 30.9504 20.18 30.7404 20.6C30.5754 20.96 30.5754 21.545 30.5754 21.65C30.5904 21.695 30.6654 21.875 30.7404 22.04C30.8154 22.175 31.1904 23.225 31.4754 24.08C31.6254 24.485 31.7904 24.905 31.9704 25.295L32.9904 27.455C33.3504 28.13 34.1904 28.385 34.8654 28.025L36.4404 27.215C36.4404 27.215 36.5454 27.215 36.5754 27.26C36.6054 27.305 36.5754 27.365 36.5304 27.395L34.9554 28.205C34.7304 28.325 34.4754 28.385 34.2354 28.385L34.2204 28.4Z" fill="#081017"/>
<path d="M34.1297 26.18C34.1297 26.18 34.0697 26.18 34.0547 26.135C34.0247 26.09 34.0397 26.03 34.0847 26L35.2097 25.25C35.2097 25.25 35.3147 25.235 35.3447 25.28C35.3747 25.325 35.3597 25.385 35.3147 25.415L34.1897 26.165C34.1897 26.165 34.1597 26.18 34.1297 26.18Z" fill="#081017"/>
<path d="M36.8722 27.32L36.5422 27.59L35.1172 25.1L36.9022 23.345C37.3372 22.91 37.8772 22.61 38.4772 22.445L38.7322 22.37" fill="white"/>
<path d="M36.5428 27.68C36.5428 27.68 36.5428 27.68 36.5278 27.68C36.4978 27.68 36.4828 27.665 36.4678 27.635L35.0428 25.145C35.0428 25.145 35.0278 25.055 35.0578 25.025L36.8428 23.27C37.2928 22.82 37.8478 22.505 38.4478 22.355L38.7028 22.28C38.7028 22.28 38.8078 22.295 38.8228 22.355C38.8228 22.4 38.8078 22.46 38.7478 22.475L38.4928 22.55C37.9228 22.7 37.3828 23 36.9628 23.42L35.2378 25.13L36.5728 27.455L36.8128 27.26C36.8128 27.26 36.9178 27.23 36.9478 27.26C36.9778 27.305 36.9778 27.365 36.9478 27.395L36.6178 27.665C36.6178 27.665 36.5728 27.68 36.5578 27.68H36.5428Z" fill="#081017"/>
<path d="M37.0995 25.085L36.7695 26.6L37.0995 32.165" fill="white"/>
<path d="M37.0997 32.255C37.0997 32.255 37.0097 32.21 37.0097 32.165L36.6797 26.6C36.6797 26.6 36.6797 26.585 36.6797 26.57L37.0097 25.055C37.0097 25.055 37.0697 24.965 37.1297 24.98C37.1747 24.98 37.2197 25.04 37.2047 25.1L36.8747 26.6L37.2047 32.15C37.2047 32.15 37.1747 32.24 37.1147 32.255H37.0997Z" fill="#081017"/>
<path d="M41.3137 25.385L40.5938 28.37L42.5438 28.82C42.9488 28.91 43.3538 28.91 43.7438 28.82L43.8488 28.79L44.1788 27.755" fill="white"/>
<path d="M43.1284 29C42.9184 29 42.7234 28.97 42.5284 28.925L40.5784 28.475C40.5784 28.475 40.5334 28.46 40.5184 28.43C40.5184 28.415 40.5034 28.385 40.5184 28.355L41.2384 25.37C41.2384 25.37 41.2984 25.295 41.3584 25.295C41.4034 25.295 41.4334 25.355 41.4334 25.415L40.7284 28.31L42.5884 28.745C42.9634 28.835 43.3684 28.835 43.7584 28.745H43.8034L44.1184 27.755C44.1334 27.71 44.1934 27.68 44.2384 27.695C44.2834 27.71 44.3134 27.77 44.2984 27.815L43.9684 28.85C43.9684 28.85 43.9384 28.91 43.8934 28.91L43.7884 28.94C43.5784 29 43.3534 29.015 43.1434 29.015L43.1284 29Z" fill="#081017"/>
<path d="M31.9697 34.475L31.9097 34.505C30.8597 34.925 30.1697 35.93 30.1397 37.07L29.9297 45.065" fill="white"/>
<path d="M29.9298 45.14C29.9298 45.14 29.8398 45.095 29.8398 45.05L30.0498 37.055C30.0798 35.885 30.7998 34.85 31.8798 34.415L31.9398 34.385C31.9398 34.385 32.0448 34.385 32.0598 34.43C32.0748 34.475 32.0598 34.535 32.0148 34.55L31.9548 34.58C30.9498 34.985 30.2748 35.96 30.2448 37.055L30.0348 45.05C30.0348 45.05 29.9898 45.14 29.9448 45.14H29.9298Z" fill="#081017"/>
<path d="M36.2755 34.355L33.9655 35.645C33.2455 36.065 32.7805 36.815 32.7505 37.655L32.4805 45.32" fill="white"/>
<path d="M32.4806 45.41C32.4806 45.41 32.3906 45.365 32.3906 45.305L32.6606 37.64C32.7056 36.77 33.1706 35.99 33.9206 35.555L36.2306 34.265C36.2306 34.265 36.3356 34.265 36.3656 34.295C36.3956 34.34 36.3656 34.4 36.3356 34.43L34.0256 35.72C33.3356 36.125 32.8856 36.845 32.8556 37.64L32.5856 45.305C32.5856 45.305 32.5406 45.395 32.4956 45.395L32.4806 45.41Z" fill="#081017"/>
<path d="M44.5394 34.6699L44.4044 35.2849C44.1944 36.1849 43.4894 36.9049 42.5894 37.0999L36.5444 38.4799C36.4394 38.5099 36.3644 38.5849 36.3494 38.6899L34.9844 46.4899" fill="white"/>
<path d="M34.9836 46.5949C34.9836 46.5949 34.9836 46.5949 34.9686 46.5949C34.9236 46.5949 34.8786 46.5349 34.8936 46.4899L36.2586 38.6899C36.2886 38.5549 36.3936 38.4349 36.5286 38.4049L42.5736 37.0249C43.4436 36.8299 44.1186 36.1399 44.3136 35.2699L44.4486 34.6549C44.4486 34.6549 44.5086 34.5649 44.5686 34.5799C44.6136 34.5799 44.6586 34.6399 44.6436 34.6999L44.5086 35.3149C44.2986 36.2449 43.5486 36.9949 42.6186 37.2049L36.5736 38.5849C36.5736 38.5849 36.4536 38.6449 36.4536 38.7199L35.0886 46.5199C35.0886 46.5199 35.0436 46.5949 34.9986 46.5949H34.9836Z" fill="#081017"/>
<path d="M40.9092 28.505L40.3692 30.74C40.3692 30.74 40.3092 30.86 40.2492 30.875L36.3042 32.48C36.0492 32.585 35.7792 32.63 35.4942 32.6L33.8592 32.48C33.8592 32.48 33.7992 32.48 33.7842 32.48L32.4942 32.915C32.4942 32.915 32.4492 32.93 32.4342 32.945L32.0442 33.26C32.0442 33.26 31.9092 33.545 32.0742 33.605" fill="white"/>
<path d="M32.0729 33.755H32.0429C31.9529 33.71 31.8929 33.635 31.8779 33.545C31.8629 33.44 31.9079 33.305 31.9829 33.245L32.3729 32.915C32.3729 32.915 32.4329 32.87 32.4629 32.855L33.7529 32.42C33.7529 32.42 33.8279 32.405 33.8729 32.405L35.5079 32.525C35.7629 32.54 36.0329 32.51 36.2729 32.405L40.2179 30.8C40.2179 30.8 40.2779 30.755 40.2779 30.725L40.8179 28.49C40.8179 28.49 40.8779 28.415 40.9379 28.415C40.9829 28.415 41.0129 28.475 41.0129 28.535L40.4729 30.77C40.4429 30.86 40.3829 30.935 40.2929 30.98L36.3479 32.585C36.0779 32.69 35.7929 32.735 35.5079 32.72L33.8729 32.6C33.8729 32.6 33.8429 32.6 33.8279 32.6L32.5379 33.035C32.5379 33.035 32.5079 33.035 32.5079 33.05L32.1179 33.38C32.1179 33.38 32.0729 33.455 32.0879 33.5C32.0879 33.53 32.1029 33.545 32.1329 33.56C32.1779 33.575 32.2079 33.635 32.1779 33.68C32.1629 33.71 32.1329 33.74 32.0879 33.74L32.0729 33.755Z" fill="#081017"/>
<path d="M33.8328 33.1849L32.5578 33.4399L32.0328 33.7699C32.0328 33.7699 31.8528 33.8899 31.8978 34.0699C31.9428 34.2499 32.2578 34.0849 32.2578 34.0849" fill="white"/>
<path d="M32.0165 34.235C32.0165 34.235 31.9415 34.235 31.8965 34.205C31.8515 34.175 31.8065 34.13 31.7915 34.07C31.7465 33.845 31.9565 33.68 31.9715 33.68L32.5115 33.35C32.5115 33.35 32.5265 33.35 32.5415 33.35L33.8165 33.095C33.8165 33.095 33.9215 33.11 33.9215 33.17C33.9215 33.215 33.8915 33.275 33.8465 33.275L32.5865 33.53L32.0765 33.845C32.0765 33.845 31.9565 33.935 31.9865 34.04C32.0015 34.055 32.1215 34.04 32.2115 33.995C32.2565 33.98 32.3165 33.995 32.3315 34.04C32.3465 34.085 32.3315 34.145 32.2865 34.16C32.2565 34.16 32.1365 34.235 32.0165 34.235Z" fill="#081017"/>
<path d="M34.0396 33.5599L32.7496 33.7849L31.9696 34.2349C31.9696 34.2349 31.8496 34.4899 32.1046 34.5349C32.3596 34.5799 32.7496 34.3399 32.7496 34.3399C32.7496 34.3399 33.6346 34.0849 33.8296 34.0699" fill="white"/>
<path d="M32.1632 34.655C32.1632 34.655 32.1032 34.655 32.0732 34.655C31.9532 34.625 31.8932 34.565 31.8782 34.505C31.8182 34.37 31.8782 34.235 31.8782 34.205C31.8782 34.19 31.8932 34.175 31.9232 34.16L32.7032 33.71C32.7032 33.71 32.7182 33.71 32.7332 33.71L34.0232 33.485C34.0232 33.485 34.1282 33.515 34.1282 33.56C34.1282 33.605 34.0982 33.665 34.0532 33.665L32.7782 33.89L32.0432 34.325C32.0432 34.325 32.0282 34.4 32.0432 34.43C32.0432 34.43 32.0582 34.46 32.1182 34.475C32.2832 34.505 32.5982 34.355 32.7032 34.295C32.7032 34.295 32.7182 34.295 32.7332 34.295C32.7632 34.295 33.6182 34.04 33.8282 34.01C33.8732 34.01 33.9332 34.04 33.9332 34.1C33.9332 34.145 33.9032 34.205 33.8432 34.205C33.6932 34.22 33.0482 34.4 32.7932 34.475C32.7182 34.52 32.4182 34.685 32.1782 34.685L32.1632 34.655Z" fill="#081017"/>
<path d="M35.9756 34.5051L34.2656 34.7001C34.2656 34.7001 32.7206 34.9101 32.5706 34.7451C32.4206 34.5801 32.5706 34.4451 32.5706 34.4451" fill="white"/>
<path d="M32.9756 34.91C32.7356 34.91 32.5556 34.88 32.4956 34.82C32.4056 34.745 32.3906 34.655 32.3906 34.595C32.3906 34.475 32.4806 34.385 32.4956 34.37C32.5406 34.34 32.6006 34.34 32.6306 34.37C32.6606 34.415 32.6606 34.475 32.6306 34.505C32.6306 34.505 32.5856 34.55 32.5856 34.58C32.5856 34.61 32.5856 34.625 32.6306 34.655C32.7356 34.73 33.5606 34.655 34.2506 34.58L35.9606 34.385C35.9606 34.385 36.0656 34.415 36.0656 34.475C36.0656 34.52 36.0356 34.58 35.9756 34.58L34.2656 34.775C33.8906 34.82 33.3656 34.88 32.9756 34.88V34.91Z" fill="#081017"/>
<path d="M40.2517 33.5299L37.6717 33.9799C37.4167 34.0249 37.1617 34.0849 36.9067 34.1599L36.2617 34.3549" fill="white"/>
<path d="M36.2751 34.4449C36.2751 34.4449 36.2001 34.4149 36.1851 34.3849C36.1701 34.3399 36.1851 34.2799 36.2451 34.2649L36.8901 34.0699C37.1451 33.9949 37.4001 33.9199 37.6701 33.8899L40.2501 33.4399C40.2501 33.4399 40.3551 33.4699 40.3551 33.5149C40.3551 33.5599 40.3251 33.6199 40.2801 33.6199L37.7001 34.0699C37.4451 34.1149 37.1901 34.1749 36.9501 34.2499L36.3051 34.4449C36.3051 34.4449 36.2901 34.4449 36.2751 34.4449Z" fill="#081017"/>
<path d="M42.4995 31.8199C42.4995 31.8199 42.4845 31.8199 42.4695 31.8199C42.4245 31.8199 42.3945 31.7599 42.3945 31.6999L43.1145 28.8799C43.1145 28.8799 43.1745 28.8049 43.2345 28.8049C43.2795 28.8049 43.3095 28.8649 43.3095 28.9249L42.5895 31.7449C42.5895 31.7449 42.5445 31.8199 42.4995 31.8199Z" fill="#081017"/>
<path d="M44.5838 31.5349V26.3299C44.5838 26.3299 44.8388 23.6449 42.0938 22.0399" fill="white"/>
<path d="M44.5845 31.6249C44.5845 31.6249 44.4945 31.5799 44.4945 31.5349V26.3299C44.4945 26.3299 44.7195 23.6749 42.0495 22.1149C42.0045 22.0849 41.9895 22.0249 42.0195 21.9799C42.0495 21.9349 42.1095 21.9199 42.1545 21.9499C43.5945 22.7899 44.2095 23.9449 44.4795 24.7549C44.7645 25.6399 44.7045 26.3149 44.7045 26.3299V31.5349C44.7045 31.5349 44.6595 31.6249 44.6145 31.6249H44.5845Z" fill="#081017"/>
<path d="M38.827 22.745L38.467 23.435C38.272 23.825 38.512 24.29 38.947 24.335C40.102 24.47 41.227 23.885 41.767 22.865L42.172 22.1" fill="white"/>
<path d="M39.2763 24.455C39.1563 24.455 39.0513 24.455 38.9313 24.44C38.6913 24.41 38.4962 24.275 38.3912 24.065C38.2863 23.855 38.2863 23.615 38.3912 23.405L38.7512 22.715C38.7512 22.715 38.8262 22.655 38.8862 22.67C38.9312 22.7 38.9463 22.745 38.9313 22.805L38.5712 23.495C38.4962 23.645 38.4962 23.825 38.5712 23.975C38.6462 24.125 38.7962 24.23 38.9762 24.245C40.0862 24.38 41.1812 23.81 41.7062 22.82L42.1112 22.055C42.1112 22.055 42.1862 21.995 42.2462 22.01C42.2912 22.04 42.3063 22.085 42.2913 22.145L41.8862 22.91C41.3762 23.855 40.3712 24.455 39.3212 24.455H39.2763Z" fill="#081017"/>
<path d="M45.5285 31.22L44.9135 31.595L43.6385 31.505C43.2635 31.475 42.8735 31.565 42.5435 31.745L40.2035 33.035C40.0835 33.095 40.0385 33.245 40.0835 33.365C40.1435 33.5 40.2935 33.56 40.4285 33.5L42.6485 32.555" fill="white"/>
<path d="M40.3399 33.62C40.2049 33.62 40.0699 33.545 40.0099 33.41C39.9349 33.245 40.0099 33.05 40.1599 32.96L42.4999 31.67C42.8449 31.475 43.2499 31.385 43.6549 31.415L44.8999 31.505L45.4849 31.145C45.4849 31.145 45.5899 31.145 45.6199 31.175C45.6499 31.205 45.6199 31.28 45.5899 31.31L44.9749 31.685C44.9749 31.685 44.9449 31.685 44.9149 31.685L43.6399 31.595C43.2799 31.565 42.9199 31.655 42.5899 31.82L40.2499 33.11C40.1749 33.155 40.1449 33.245 40.1749 33.32C40.2049 33.41 40.3099 33.44 40.3999 33.41L42.6199 32.465C42.6199 32.465 42.7249 32.465 42.7399 32.51C42.7549 32.555 42.7399 32.615 42.6949 32.63L40.4749 33.575C40.4749 33.575 40.3849 33.605 40.3399 33.605V33.62Z" fill="#081017"/>
<path d="M42.967 33.2899L40.042 34.2649C39.922 34.3099 39.787 34.2649 39.727 34.1449C39.652 34.0099 39.697 33.8299 39.847 33.7699L40.447 33.4999" fill="white"/>
<path d="M39.9663 34.3849C39.8463 34.3849 39.7263 34.3249 39.6513 34.2049C39.5913 34.1149 39.5913 34.0099 39.6213 33.9049C39.6513 33.7999 39.7263 33.7249 39.8163 33.6799L40.4163 33.4099C40.4163 33.4099 40.5213 33.4099 40.5363 33.4549C40.5513 33.4999 40.5363 33.5599 40.4913 33.5749L39.8913 33.8449C39.8913 33.8449 39.8163 33.9049 39.8013 33.9499C39.8013 33.9949 39.8013 34.0399 39.8163 34.0849C39.8613 34.1599 39.9363 34.1899 40.0113 34.1599L42.9363 33.1849C42.9363 33.1849 43.0413 33.1849 43.0563 33.2449C43.0713 33.3049 43.0563 33.3499 42.9963 33.3649L40.0713 34.3399C40.0713 34.3399 39.9963 34.3549 39.9513 34.3549L39.9663 34.3849Z" fill="#081017"/>
<path d="M40.4327 34.2049C40.4327 34.2049 40.2527 34.7599 40.7177 34.7149C41.1827 34.6699 43.1777 33.9949 43.1777 33.9949" fill="white"/>
<path d="M40.6712 34.8049C40.5212 34.8049 40.4312 34.7449 40.3862 34.6849C40.2362 34.5049 40.3262 34.2049 40.3412 34.1749C40.3562 34.1299 40.4162 34.0999 40.4612 34.1149C40.5062 34.1299 40.5362 34.1899 40.5212 34.2349C40.5062 34.2949 40.4612 34.4899 40.5212 34.5649C40.5512 34.6099 40.6112 34.6099 40.7012 34.6099C41.1512 34.5649 43.1312 33.9049 43.1462 33.8899C43.1912 33.8749 43.2512 33.8899 43.2662 33.9499C43.2812 33.9949 43.2662 34.0549 43.2062 34.0699C43.1312 34.0999 41.1812 34.7449 40.7162 34.7899C40.6862 34.7899 40.6712 34.7899 40.6562 34.7899L40.6712 34.8049Z" fill="#081017"/>
<path d="M41.4518 34.595C41.4518 34.595 41.2118 34.76 41.3618 35.045C41.4518 35.21 41.7368 35.18 42.1268 35.105C42.5168 35.03 43.8818 34.715 43.8818 34.715L44.4968 34.625C45.0818 34.535 45.6368 34.31 46.1018 33.95L46.8068 33.41" fill="white"/>
<path d="M41.6449 35.27C41.4799 35.27 41.3449 35.225 41.2699 35.105C41.1199 34.805 41.2699 34.595 41.3899 34.535C41.4349 34.505 41.4949 34.52 41.5249 34.565C41.5549 34.61 41.5399 34.67 41.4949 34.7C41.4649 34.715 41.3299 34.82 41.4349 35.03C41.4949 35.135 41.7949 35.09 42.0949 35.03C42.4699 34.955 43.8349 34.64 43.8499 34.64L44.4799 34.55C45.0499 34.475 45.5899 34.235 46.0399 33.89L46.7449 33.35C46.7449 33.35 46.8499 33.32 46.8799 33.365C46.9099 33.41 46.9099 33.47 46.8649 33.5L46.1599 34.04C45.6799 34.415 45.1099 34.655 44.5099 34.73L43.8949 34.82C43.8949 34.82 42.5299 35.135 42.1399 35.21C41.9599 35.24 41.7949 35.27 41.6449 35.27Z" fill="#081017"/>
<path d="M44.0431 14.99C44.0431 14.99 43.9531 14.96 43.9531 14.915C43.9531 14.87 43.9831 14.81 44.0281 14.81L46.3831 14.36C46.3831 14.36 46.4881 14.39 46.4881 14.435C46.4881 14.48 46.4581 14.54 46.4131 14.54L44.0581 14.99C44.0581 14.99 44.0581 14.99 44.0431 14.99Z" fill="#081017"/>
<path d="M51.2931 14.2699L53.4231 15.5299C54.7281 16.2949 55.4931 17.7349 55.4181 19.2499L54.9231 27.8599C54.8481 29.1799 54.0681 30.3499 52.8831 30.9199L48.3681 33.1249C48.3681 33.1249 49.0281 31.8049 47.0781 30.2899C49.0281 28.9699 51.2631 27.1849 51.2631 27.1849L51.6231 19.4899" fill="white"/>
<path d="M48.3514 33.1999C48.3514 33.1999 48.3064 33.1999 48.2914 33.1699C48.2614 33.1399 48.2614 33.0949 48.2764 33.0649C48.3064 33.0199 48.8764 31.7899 47.0164 30.3499C46.9864 30.3349 46.9714 30.3049 46.9864 30.2749C46.9864 30.2449 47.0014 30.2149 47.0314 30.1999C48.8314 28.9849 50.9014 27.3499 51.1864 27.1249L51.5464 19.4749C51.5464 19.4749 51.6064 19.3849 51.6514 19.3849C51.7114 19.3849 51.7414 19.4299 51.7414 19.4899L51.3814 27.1849C51.3814 27.1849 51.3814 27.2449 51.3514 27.2599C51.3364 27.2749 49.1614 28.9999 47.2564 30.2899C48.6814 31.4599 48.6514 32.4949 48.5464 32.9449L52.8664 30.8449C54.0214 30.2899 54.7714 29.1499 54.8464 27.8599L55.3414 19.2499C55.4314 17.7649 54.6814 16.3699 53.4064 15.6199L51.2764 14.3599C51.2764 14.3599 51.2164 14.2699 51.2464 14.2249C51.2764 14.1799 51.3364 14.1649 51.3814 14.1949L53.5114 15.4549C54.8614 16.2499 55.6414 17.7049 55.5514 19.2649L55.0564 27.8749C54.9814 29.2249 54.1714 30.4249 52.9714 31.0099L48.4564 33.2149C48.4564 33.2149 48.4264 33.2149 48.4114 33.2149L48.3514 33.1999Z" fill="#081017"/>
<path d="M51.6814 14.5699C51.6814 14.5699 48.7714 18.0499 48.0814 18.4399L47.4514 18.7999C47.0914 19.0099 46.6564 19.0699 46.2364 19.0399L44.6914 18.9349" fill="white"/>
<path d="M46.4309 19.1449C46.4309 19.1449 46.2959 19.1449 46.2209 19.1449L44.6759 19.0399C44.6759 19.0399 44.5859 18.9949 44.5859 18.9349C44.5859 18.8749 44.6309 18.8449 44.6909 18.8449L46.2359 18.9499C46.6709 18.9799 47.0759 18.9049 47.3909 18.7249L48.0209 18.3649C48.6959 17.9899 51.5759 14.5399 51.6059 14.5099C51.6359 14.4649 51.6959 14.4649 51.7409 14.5099C51.7859 14.5399 51.7859 14.5999 51.7409 14.6449C51.6209 14.7949 48.8159 18.1399 48.1109 18.5449L47.4809 18.9049C47.1659 19.0849 46.8059 19.1749 46.4159 19.1749L46.4309 19.1449Z" fill="#081017"/>
<path d="M49.9109 34.565C49.7159 34.565 49.5209 34.565 49.3259 34.55L45.8009 34.31C45.8009 34.31 45.7109 34.265 45.7109 34.205C45.7109 34.16 45.7559 34.115 45.8159 34.115L49.3409 34.355C50.2109 34.415 51.0959 34.34 51.9509 34.115L53.5259 33.71L52.7759 30.92C52.7759 30.92 52.7909 30.815 52.8359 30.8C52.8809 30.8 52.9409 30.815 52.9559 30.86L53.7209 33.755C53.7209 33.755 53.7209 33.8 53.7209 33.83C53.7209 33.845 53.6909 33.875 53.6609 33.875L51.9959 34.295C51.3059 34.46 50.6159 34.55 49.9109 34.55V34.565Z" fill="#081017"/>
<path d="M51.4133 35.78L50.6333 35.315C50.5133 35.24 50.3783 35.18 50.2433 35.135L48.1133 34.385" fill="white"/>
<path d="M51.4115 35.87C51.4115 35.87 51.3815 35.87 51.3665 35.87L50.5865 35.405C50.4665 35.33 50.3465 35.27 50.2115 35.225L48.0815 34.475C48.0815 34.475 48.0065 34.4 48.0215 34.355C48.0365 34.31 48.0965 34.28 48.1415 34.295L50.2715 35.045C50.4065 35.09 50.5565 35.165 50.6765 35.24L51.4565 35.705C51.4565 35.705 51.5165 35.795 51.4865 35.84C51.4715 35.87 51.4415 35.885 51.4115 35.885V35.87Z" fill="#081017"/>
<path d="M47.1183 30.3199L45.3633 31.1149L45.3933 31.2649C45.3933 31.2649 45.7683 31.2199 46.0233 31.4599C46.2783 31.6999 46.8033 32.5549 46.8033 33.5299C46.9083 33.5899 46.9533 33.5299 46.9533 33.5299L48.4233 32.8999" fill="white"/>
<path d="M46.8778 33.665C46.8778 33.665 46.7878 33.665 46.7428 33.62C46.7128 33.605 46.6978 33.575 46.6978 33.53C46.6978 32.615 46.2178 31.775 45.9478 31.535C45.7228 31.325 45.3928 31.355 45.3928 31.355C45.3478 31.355 45.3028 31.325 45.2878 31.28L45.2578 31.13C45.2578 31.13 45.2728 31.04 45.3178 31.025L47.0728 30.23C47.0728 30.23 47.1778 30.23 47.1928 30.275C47.2078 30.32 47.1928 30.38 47.1478 30.395L45.4678 31.16C45.6028 31.16 45.8728 31.19 46.0828 31.385C46.3228 31.61 46.8628 32.45 46.8928 33.455C46.8928 33.455 46.8928 33.455 46.9078 33.455L48.3778 32.825C48.3778 32.825 48.4828 32.825 48.4978 32.87C48.5128 32.915 48.4978 32.975 48.4528 32.99L46.9828 33.62C46.9828 33.62 46.9228 33.65 46.8778 33.65V33.665Z" fill="#081017"/>
<path d="M53.4503 33.86L53.7053 35.99C53.7503 36.365 53.7353 36.74 53.6903 37.115C53.4353 38.735 52.1303 39.965 50.5253 40.28L40.6253 42.23C39.6803 42.41 38.9453 43.13 38.7203 44.075L38.1953 46.34" fill="white"/>
<path d="M38.2101 46.445C38.2101 46.445 38.2101 46.445 38.1951 46.445C38.1501 46.445 38.1051 46.385 38.1201 46.325L38.6451 44.06C38.8701 43.085 39.6351 42.335 40.6101 42.14L50.5101 40.19C52.1151 39.875 53.3601 38.63 53.6001 37.1C53.6601 36.74 53.6601 36.365 53.6151 36.005L53.3601 33.875C53.3601 33.875 53.3901 33.77 53.4501 33.77C53.4951 33.77 53.5551 33.8 53.5551 33.86L53.8101 35.99C53.8551 36.38 53.8551 36.755 53.7951 37.13C53.5401 38.75 52.2351 40.055 50.5551 40.385L40.6551 42.335C39.7551 42.515 39.0351 43.205 38.8251 44.105L38.3001 46.37C38.3001 46.37 38.2551 46.445 38.2101 46.445Z" fill="#081017"/>
<path d="M43.8356 7.75985C45.6356 6.97985 47.0606 6.60485 46.8356 7.24985C46.6106 7.89485 48.3056 7.98485 49.8206 6.72485C50.0156 8.41985 51.2006 8.92985 51.2006 8.92985H51.4106C51.8906 8.92985 52.2656 9.31985 52.2656 9.78485C52.2656 10.2649 51.8756 10.6399 51.4106 10.6399H51.2906C51.2906 12.9949 49.4606 14.4499 47.1206 14.4799C44.9756 14.5099 43.2656 12.6799 43.2656 10.5349V8.11985" fill="white"/>
<path d="M47.077 14.5699C46.087 14.5699 45.142 14.1799 44.422 13.4599C43.642 12.6949 43.207 11.6299 43.207 10.5349V8.1199C43.207 8.1199 43.237 8.0299 43.297 8.0299C43.357 8.0299 43.387 8.0599 43.387 8.1199V10.5349C43.387 11.5849 43.807 12.6049 44.557 13.3399C45.262 14.0299 46.192 14.4049 47.152 14.4049C49.597 14.3749 51.232 12.8599 51.232 10.6549C51.232 10.6099 51.262 10.5649 51.322 10.5649H51.442C51.862 10.5649 52.222 10.2199 52.222 9.7999C52.222 9.3799 51.877 9.0199 51.442 9.0199H51.232C51.232 9.0199 51.217 9.0199 51.202 9.0199C51.157 9.0049 50.032 8.5099 49.792 6.8899C48.622 7.8049 47.347 7.9699 46.927 7.6699C46.777 7.5649 46.732 7.3999 46.792 7.2349C46.837 7.1149 46.792 7.0849 46.792 7.0699C46.627 6.9199 45.787 7.0399 43.912 7.8499C43.867 7.8649 43.822 7.8499 43.807 7.8049C43.792 7.7599 43.807 7.7149 43.852 7.6999C45.052 7.1749 46.567 6.6349 46.912 6.9499C46.972 7.0099 47.032 7.1149 46.957 7.2949C46.927 7.3999 46.957 7.4749 47.032 7.5349C47.422 7.8049 48.697 7.5949 49.807 6.6649C49.837 6.6499 49.867 6.6349 49.897 6.6649C49.927 6.6649 49.942 6.7099 49.942 6.7399C50.107 8.2699 51.127 8.8099 51.262 8.8699H51.442C51.967 8.8699 52.387 9.2899 52.387 9.8149C52.387 10.3399 51.967 10.7599 51.442 10.7599H51.412C51.367 12.9799 49.627 14.5549 47.167 14.5999C47.152 14.5999 47.137 14.5999 47.107 14.5999L47.077 14.5699Z" fill="#081017"/>
<path d="M53.9309 15.7099C53.9309 15.7099 53.8409 15.6799 53.8409 15.6199V9.43994C53.8409 6.00494 51.0509 3.21494 47.6159 3.21494H47.3909C44.4959 3.21494 42.1259 5.56994 42.1259 8.47994V9.67994C42.1259 10.7599 42.6659 11.7649 43.5509 12.3649C43.5959 12.3949 43.5959 12.4399 43.5809 12.4849C43.5509 12.5299 43.5059 12.5299 43.4609 12.5149C42.5159 11.8849 41.9609 10.8349 41.9609 9.69494V8.49494C41.9609 5.49494 44.3909 3.06494 47.3909 3.06494H47.6159C51.1409 3.06494 54.0059 5.92994 54.0059 9.45494V15.6349C54.0059 15.6349 53.9759 15.7249 53.9159 15.7249L53.9309 15.7099Z" fill="#F61BA3"/>
<path d="M44.7227 11.9899L47.0627 11.8999C47.0627 11.8999 47.0177 13.1449 45.6377 13.4449" fill="white"/>
<path d="M45.6228 13.5199C45.6228 13.5199 45.5478 13.4899 45.5478 13.4599C45.5478 13.4149 45.5628 13.3699 45.6078 13.3549C46.7178 13.1149 46.9278 12.2599 46.9578 11.9749L44.7228 12.0649C44.7228 12.0649 44.6328 12.0349 44.6328 11.9899C44.6328 11.9449 44.6628 11.8999 44.7078 11.8999L47.0478 11.8099C47.0478 11.8099 47.0928 11.8099 47.1078 11.8399C47.1228 11.8699 47.1378 11.8849 47.1378 11.8999C47.1378 11.8999 47.0778 13.2049 45.6528 13.5199C45.6528 13.5199 45.6528 13.5199 45.6378 13.5199H45.6228Z" fill="#081017"/>
<path d="M44.3892 9.59C44.3892 9.77 44.2392 9.935 44.0442 9.935C43.8492 9.935 43.6992 9.785 43.6992 9.59C43.6992 9.395 43.8492 9.245 44.0442 9.245C44.2392 9.245 44.3892 9.395 44.3892 9.59Z" fill="black"/>
<path d="M46.8645 10.0999C47.0551 10.0999 47.2095 9.94545 47.2095 9.75491C47.2095 9.56437 47.0551 9.40991 46.8645 9.40991C46.674 9.40991 46.5195 9.56437 46.5195 9.75491C46.5195 9.94545 46.674 10.0999 46.8645 10.0999Z" fill="black"/>
<path d="M45.037 10.5049C45.037 10.5049 44.662 11.3449 45.577 11.1199L45.037 10.5049Z" fill="white"/>
<path d="M45.2923 11.2399C45.1423 11.2399 45.0223 11.1949 44.9623 11.1049C44.7823 10.8949 44.9473 10.5049 44.9623 10.4749C44.9773 10.4299 45.0373 10.4149 45.0673 10.4299C45.1123 10.4449 45.1273 10.5049 45.1123 10.5349C45.0673 10.6249 44.9923 10.8799 45.0823 10.9999C45.1573 11.0749 45.3073 11.0899 45.5473 11.0299C45.5923 11.0299 45.6373 11.0449 45.6523 11.0899C45.6523 11.1349 45.6373 11.1799 45.5923 11.1949C45.4873 11.2249 45.3823 11.2399 45.2923 11.2399Z" fill="#081017"/>
<path d="M46.8359 8.59994C46.8359 8.59994 47.4059 8.56994 47.5259 8.94494L46.8359 8.59994Z" fill="white"/>
<path d="M47.5261 9.03496C47.5261 9.03496 47.4511 9.00496 47.4511 8.97496C47.3461 8.65996 46.8511 8.68996 46.8361 8.67496C46.7911 8.67496 46.7461 8.64496 46.7461 8.59996C46.7461 8.55496 46.7761 8.50996 46.8211 8.50996C46.8511 8.50996 47.4661 8.47996 47.6011 8.91496C47.6011 8.95996 47.6011 9.00496 47.5411 9.01996C47.5411 9.01996 47.5261 9.01996 47.5111 9.01996L47.5261 9.03496Z" fill="#081017"/>
<path d="M43.3398 8.92994C43.3398 8.92994 43.7598 8.52494 44.0898 8.74994L43.3398 8.92994Z" fill="white"/>
<path d="M43.3403 9.00497C43.3403 9.00497 43.2953 9.00497 43.2803 8.97497C43.2503 8.94497 43.2503 8.88497 43.2803 8.85497C43.2953 8.83997 43.7453 8.41997 44.1353 8.65997C44.1803 8.68997 44.1803 8.73497 44.1653 8.77997C44.1353 8.82497 44.0903 8.82497 44.0453 8.80997C43.7603 8.62997 43.4003 8.97497 43.3853 8.98997C43.3703 9.00497 43.3553 9.01997 43.3253 9.01997L43.3403 9.00497Z" fill="#081017"/>
<g style="mix-blend-mode:multiply">
<path d="M33.8008 45.095L35.0908 39.26C35.2108 38.75 35.6158 38.345 36.1408 38.255L41.1808 37.37C41.1808 37.37 36.4258 38.42 36.2158 38.87C36.0058 39.32 35.3308 45.23 35.3308 45.23L33.8158 45.095H33.8008Z" fill="#E6E6E6"/>
</g>
<g style="mix-blend-mode:multiply">
<path d="M42.9784 34.91L42.5434 35.81C42.2734 36.365 41.8234 36.815 41.2534 37.07L40.0234 37.625L42.9184 37.01C42.9184 37.01 44.1934 36.635 44.5084 34.82L44.6584 34.55L42.9934 34.895L42.9784 34.91Z" fill="#E6E6E6"/>
</g>
<g style="mix-blend-mode:multiply">
<path d="M54.5437 16.5649L53.3588 29.0749L48.8438 32.8999L52.8787 30.9799C54.0787 30.4099 54.8738 29.2399 54.9638 27.9049L55.5637 18.7999C55.6237 17.9299 55.2488 17.0899 54.5588 16.5649H54.5437Z" fill="#E6E6E6"/>
</g>
<g style="mix-blend-mode:multiply">
<path d="M51.5586 31.535L52.0236 34.205L52.2636 34.145L52.5486 34.07L53.6436 33.8L53.0136 30.86L51.5586 31.535Z" fill="#E6E6E6"/>
</g>
<g style="mix-blend-mode:multiply">
<path d="M52.2492 34.235L52.2942 35.33C52.3542 36.905 51.4992 38.39 50.1042 39.125L48.4392 39.995L40.6992 42.26L50.5692 40.385C52.6992 39.98 54.1092 37.97 53.7792 35.84L53.4792 33.95L52.2342 34.25L52.2492 34.235Z" fill="#E6E6E6"/>
</g>
<g style="mix-blend-mode:multiply">
<path d="M43.6406 31.49L43.5356 26.21C43.5356 25.64 43.4156 25.085 43.2056 24.56L42.5156 22.79L43.0106 22.655C43.0106 22.655 44.6006 24.53 44.6006 25.925C44.6006 27.32 44.5706 31.385 44.5706 31.385L43.6256 31.49H43.6406Z" fill="#E6E6E6"/>
</g>
<g style="mix-blend-mode:multiply">
<path d="M29.3744 22.745L28.9094 22.64L26.7344 29.63C26.7344 29.63 27.4544 29.885 28.4744 27.86C29.6444 25.205 30.4694 22.955 30.4694 22.955C30.4694 22.955 29.8544 22.58 29.3744 22.73V22.745Z" fill="#E6E6E6"/>
</g>
<g style="mix-blend-mode:multiply">
<path d="M26.3447 22.685L26.5547 23.255L26.0747 24.485L25.7447 25.235L25.0547 19.415L26.3447 22.685Z" fill="#E6E6E6"/>
</g>
<path d="M22.3086 30.71L23.8986 31.67L24.5436 32.855C24.6186 33.005 24.5586 33.185 24.4086 33.245C24.2886 33.305 24.1386 33.245 24.0636 33.155L23.8686 32.885" fill="white"/>
<path d="M24.305 33.365C24.185 33.365 24.065 33.305 23.99 33.2L23.795 32.93C23.795 32.93 23.78 32.825 23.81 32.795C23.855 32.765 23.915 32.78 23.945 32.81L24.14 33.08C24.14 33.08 24.29 33.185 24.365 33.14C24.41 33.125 24.455 33.08 24.47 33.035C24.485 32.99 24.47 32.93 24.47 32.885L23.84 31.73L22.265 30.785C22.265 30.785 22.205 30.695 22.235 30.65C22.265 30.605 22.325 30.59 22.37 30.62L23.96 31.58C23.96 31.58 23.99 31.595 23.99 31.61L24.635 32.795C24.68 32.885 24.695 33.005 24.665 33.095C24.635 33.2 24.56 33.275 24.455 33.32C24.41 33.335 24.35 33.35 24.305 33.35V33.365Z" fill="#081017"/>
<path d="M21.7539 31.34L22.9389 32.03L23.8689 32.87C23.8689 32.87 23.9439 32.99 23.9439 33.065C23.9139 33.26 23.7639 33.395 23.5689 33.395H23.2689" fill="white"/>
<path d="M23.2703 33.5C23.2703 33.5 23.1803 33.455 23.1803 33.41C23.1803 33.35 23.2253 33.32 23.2703 33.32H23.5703C23.7053 33.32 23.8403 33.2 23.8553 33.065C23.8553 33.02 23.8553 32.975 23.8103 32.945L22.8803 32.105L21.7103 31.43C21.7103 31.43 21.6503 31.34 21.6803 31.295C21.7103 31.25 21.7703 31.235 21.8153 31.265L23.0003 31.955L23.9453 32.81C24.0203 32.885 24.0653 32.99 24.0503 33.095C24.0203 33.335 23.8253 33.515 23.5853 33.515H23.2853L23.2703 33.5Z" fill="#081017"/>
<path d="M17.5234 32.69C17.5234 32.69 18.3934 32.735 18.7084 32.9C19.0234 33.065 19.6234 33.155 19.6234 33.155H21.6634L22.8784 33.68C22.9984 33.74 23.1484 33.695 23.2234 33.59C23.3134 33.47 23.2984 33.29 23.1784 33.2L22.2934 32.465C22.2934 32.465 21.3484 32.12 21.3184 32.12" fill="white"/>
<path d="M22.9836 33.815C22.9836 33.815 22.8786 33.815 22.8336 33.785L21.6336 33.245H19.6236C19.6236 33.245 18.9936 33.17 18.6636 33.005C18.3636 32.855 17.5236 32.795 17.5236 32.795C17.4786 32.795 17.4336 32.75 17.4336 32.69C17.4336 32.63 17.4786 32.6 17.5386 32.6C17.5686 32.6 18.4236 32.66 18.7536 32.825C19.0536 32.975 19.6386 33.065 19.6386 33.065L21.6636 33.035C21.6636 33.035 21.6936 33.035 21.7086 33.035L22.9236 33.59C22.9986 33.62 23.1036 33.59 23.1636 33.53C23.2236 33.455 23.2086 33.335 23.1336 33.275L22.2636 32.555C21.9186 32.435 21.3786 32.24 21.3186 32.225C21.2586 32.225 21.2286 32.18 21.2286 32.135C21.2286 32.09 21.2736 32.045 21.3336 32.045C21.3486 32.045 21.3786 32.045 22.3386 32.39C22.3386 32.39 22.3536 32.39 22.3686 32.405L23.2536 33.14C23.4036 33.275 23.4336 33.5 23.3136 33.665C23.2386 33.77 23.1186 33.815 22.9986 33.815H22.9836Z" fill="#081017"/>
<g style="mix-blend-mode:multiply">
<path d="M22.3242 29.915L23.2842 30.35V20.12L22.7742 22.085C22.4742 23.225 22.3242 24.41 22.3242 25.595V29.915Z" fill="#E6E6E6"/>
</g>
<g style="mix-blend-mode:multiply">
<path d="M16.2195 29.45L16.0845 24.305L16.5495 24.14C16.5495 24.14 14.4045 17.675 14.2695 15.83C16.8795 22.655 17.7645 24.515 17.5095 28.475C17.4795 29.93 17.2845 29.96 17.2845 29.96L16.9245 29.825V29.66L16.2345 29.465L16.2195 29.45Z" fill="#E6E6E6"/>
</g>
<g style="mix-blend-mode:multiply">
<path d="M10.1733 23.18C10.2183 24.11 10.2333 26.435 9.36328 27.215C9.91828 27.395 10.5033 27.365 10.5033 27.365L10.9383 28.64C10.9383 28.64 11.3283 28.835 11.4033 28.385C11.4783 27.935 11.5533 24.485 11.5533 24.485C11.5533 24.485 10.8483 20.075 9.93328 18.92C9.69328 19.655 9.99328 21.755 10.1133 22.505C10.1433 22.73 10.1733 22.94 10.1883 23.165L10.1733 23.18Z" fill="#E6E6E6"/>
</g>
<path d="M18.8283 16.745C18.7833 16.745 18.7383 16.7 18.7383 16.64L18.8583 14.72C18.8583 14.72 18.9033 14.63 18.9633 14.63C19.0083 14.63 19.0533 14.675 19.0533 14.735L18.9333 16.655C18.9333 16.655 18.8883 16.745 18.8433 16.745H18.8283Z" fill="#081017"/>
<path d="M37.2664 0.964966H27.0664V10.76H37.2664V0.964966Z" fill="white"/>
<path d="M37.2666 10.835H27.0666C27.0666 10.835 26.9766 10.805 26.9766 10.745V0.949986C26.9766 0.949986 27.0066 0.859985 27.0666 0.859985H37.2666C37.2666 0.859985 37.3566 0.889986 37.3566 0.949986V10.745C37.3566 10.745 37.3266 10.835 37.2666 10.835ZM27.1566 10.67H37.1766V1.03999H27.1566V10.67Z" fill="black"/>
<path d="M35.9017 3.37995H32.9767C32.9767 3.37995 32.8867 3.34995 32.8867 3.28995C32.8867 3.22995 32.9167 3.19995 32.9767 3.19995H35.9017C35.9017 3.19995 35.9917 3.22995 35.9917 3.28995C35.9917 3.34995 35.9617 3.37995 35.9017 3.37995Z" fill="black"/>
<path d="M35.9017 4.62495H32.9767C32.9767 4.62495 32.8867 4.59495 32.8867 4.53495C32.8867 4.47495 32.9167 4.44495 32.9767 4.44495H35.9017C35.9017 4.44495 35.9917 4.47495 35.9917 4.53495C35.9917 4.59495 35.9617 4.62495 35.9017 4.62495Z" fill="black"/>
<path d="M35.9017 5.82502H32.9767C32.9767 5.82502 32.8867 5.79502 32.8867 5.73502C32.8867 5.67502 32.9167 5.64502 32.9767 5.64502H35.9017C35.9017 5.64502 35.9917 5.67502 35.9917 5.73502C35.9917 5.79502 35.9617 5.82502 35.9017 5.82502Z" fill="black"/>
<path d="M35.9006 7.35493H28.3556C28.3556 7.35493 28.2656 7.32493 28.2656 7.26493C28.2656 7.20493 28.2956 7.17493 28.3556 7.17493H35.9006C35.9006 7.17493 35.9906 7.20493 35.9906 7.26493C35.9906 7.32493 35.9606 7.35493 35.9006 7.35493Z" fill="black"/>
<path d="M35.9006 8.38996H28.3556C28.3556 8.38996 28.2656 8.35996 28.2656 8.29996C28.2656 8.23996 28.2956 8.20996 28.3556 8.20996H35.9006C35.9006 8.20996 35.9906 8.23996 35.9906 8.29996C35.9906 8.35996 35.9606 8.38996 35.9006 8.38996Z" fill="black"/>
<path d="M35.9006 9.60493H28.3556C28.3556 9.60493 28.2656 9.57493 28.2656 9.51493C28.2656 9.45493 28.2956 9.42493 28.3556 9.42493H35.9006C35.9006 9.42493 35.9906 9.45493 35.9906 9.51493C35.9906 9.57493 35.9606 9.60493 35.9006 9.60493Z" fill="black"/>
<path d="M32.0447 3.57503H30.9197V2.40503H29.5997V3.57503H28.4297V4.82003H29.5997V5.94503H30.9197V4.82003H32.0447V3.57503Z" fill="#E10098"/>
<path d="M37.2666 10.835H27.0666C27.0666 10.835 26.9766 10.805 26.9766 10.745V0.949986C26.9766 0.949986 27.0066 0.859985 27.0666 0.859985H37.2666C37.2666 0.859985 37.3566 0.889986 37.3566 0.949986V10.745C37.3566 10.745 37.3266 10.835 37.2666 10.835ZM27.1566 10.67H37.1766V1.03999H27.1566V10.67Z" fill="#E4E4E4"/>
<path d="M35.9017 3.37995H32.9767C32.9767 3.37995 32.8867 3.34995 32.8867 3.28995C32.8867 3.22995 32.9167 3.19995 32.9767 3.19995H35.9017C35.9017 3.19995 35.9917 3.22995 35.9917 3.28995C35.9917 3.34995 35.9617 3.37995 35.9017 3.37995Z" fill="#E4E4E4"/>
<path d="M35.9017 4.62495H32.9767C32.9767 4.62495 32.8867 4.59495 32.8867 4.53495C32.8867 4.47495 32.9167 4.44495 32.9767 4.44495H35.9017C35.9017 4.44495 35.9917 4.47495 35.9917 4.53495C35.9917 4.59495 35.9617 4.62495 35.9017 4.62495Z" fill="#E4E4E4"/>
<path d="M35.9017 5.82502H32.9767C32.9767 5.82502 32.8867 5.79502 32.8867 5.73502C32.8867 5.67502 32.9167 5.64502 32.9767 5.64502H35.9017C35.9017 5.64502 35.9917 5.67502 35.9917 5.73502C35.9917 5.79502 35.9617 5.82502 35.9017 5.82502Z" fill="#E4E4E4"/>
<path d="M35.9006 7.35493H28.3556C28.3556 7.35493 28.2656 7.32493 28.2656 7.26493C28.2656 7.20493 28.2956 7.17493 28.3556 7.17493H35.9006C35.9006 7.17493 35.9906 7.20493 35.9906 7.26493C35.9906 7.32493 35.9606 7.35493 35.9006 7.35493Z" fill="#E4E4E4"/>
<path d="M35.9006 8.38996H28.3556C28.3556 8.38996 28.2656 8.35996 28.2656 8.29996C28.2656 8.23996 28.2956 8.20996 28.3556 8.20996H35.9006C35.9006 8.20996 35.9906 8.23996 35.9906 8.29996C35.9906 8.35996 35.9606 8.38996 35.9006 8.38996Z" fill="#E4E4E4"/>
<path d="M35.9006 9.60493H28.3556C28.3556 9.60493 28.2656 9.57493 28.2656 9.51493C28.2656 9.45493 28.2956 9.42493 28.3556 9.42493H35.9006C35.9006 9.42493 35.9906 9.45493 35.9906 9.51493C35.9906 9.57493 35.9606 9.60493 35.9006 9.60493Z" fill="#E4E4E4"/>
<path d="M30.9198 6.01993H29.5998C29.5998 6.01993 29.5098 5.98993 29.5098 5.92993V4.89493H28.4298C28.4298 4.89493 28.3398 4.86493 28.3398 4.80493V3.55993C28.3398 3.55993 28.3698 3.46993 28.4298 3.46993H29.5098V2.38993C29.5098 2.38993 29.5398 2.29993 29.5998 2.29993H30.9198C30.9198 2.29993 31.0098 2.32993 31.0098 2.38993V3.46993H32.0448C32.0448 3.46993 32.1348 3.49993 32.1348 3.55993V4.80493C32.1348 4.80493 32.1048 4.89493 32.0448 4.89493H31.0098V5.92993C31.0098 5.92993 30.9798 6.01993 30.9198 6.01993ZM29.6898 5.85493H30.8448V4.81993C30.8448 4.81993 30.8748 4.72993 30.9348 4.72993H31.9698V3.64993H30.9348C30.9348 3.64993 30.8448 3.61993 30.8448 3.55993V2.47993H29.6898V3.55993C29.6898 3.55993 29.6598 3.64993 29.5998 3.64993H28.5198V4.72993H29.5998C29.5998 4.72993 29.6898 4.75993 29.6898 4.81993V5.85493Z" fill="#E4E4E4"/>
<path d="M44.5705 24.9499C44.5705 24.9499 44.4805 24.9199 44.4805 24.8599V20.2849C44.4805 20.2849 44.5105 20.1949 44.5705 20.1949C44.6305 20.1949 44.6605 20.2249 44.6605 20.2849V24.8599C44.6605 24.8599 44.6305 24.9499 44.5705 24.9499Z" fill="#F61BA3"/>
<path d="M40.1897 13.685L38.7047 14.06L37.5947 14.825L36.5597 16.31L36.3047 18.455L36.5147 19.73L37.3247 20.795H37.6097L37.3547 20.165L37.2197 18.74L37.3097 17.87C37.3097 17.87 37.0247 17.45 38.1047 17.06C39.1847 16.67 39.7997 16.49 39.9197 16.565C40.0397 16.64 40.0847 17.255 40.3997 17.255C40.7147 17.255 42.0947 16.85 42.2147 16.64C42.3347 16.43 42.4547 16.625 42.4847 17C42.5147 17.375 43.1147 17.765 44.1197 17.825L44.2097 16.535L43.7897 15.62L40.2197 13.655L40.1897 13.685Z" fill="white"/>
<path d="M37.2812 17.5249V19.3999C37.2812 21.0649 38.6163 22.4899 40.2813 22.4599C42.1113 22.4299 43.5662 20.9449 43.5662 19.1149H43.6563C44.0313 19.1149 44.3162 18.8149 44.3162 18.4549C44.3162 18.0799 44.0163 17.7949 43.6563 17.7949H43.4913C43.4913 17.7949 42.5163 17.7649 42.3663 16.4299C41.1962 17.4049 39.8613 17.3449 40.0413 16.8349C40.2213 16.3249 39.1112 16.6249 37.7012 17.2249" fill="white"/>
<path d="M40.2208 22.565C39.4408 22.565 38.7058 22.265 38.1358 21.695C37.5358 21.095 37.1758 20.27 37.1758 19.415V17.54C37.1758 17.54 37.2058 17.45 37.2658 17.45C37.3258 17.45 37.3558 17.48 37.3558 17.54V19.415C37.3558 20.225 37.6858 21.02 38.2558 21.575C38.7958 22.115 39.5158 22.415 40.2658 22.4C42.0358 22.37 43.4758 20.915 43.4758 19.145C43.4758 19.1 43.5058 19.055 43.5658 19.055H43.6558C43.9708 19.055 44.2408 18.8 44.2408 18.47C44.2408 18.14 43.9858 17.885 43.6558 17.885H43.4908C43.4908 17.885 42.5158 17.84 42.3058 16.595C41.3758 17.315 40.4008 17.405 40.0858 17.18C39.9658 17.09 39.9208 16.955 39.9658 16.82C39.9808 16.76 39.9808 16.73 39.9658 16.715C39.8458 16.61 39.2008 16.7 37.7458 17.315C37.7008 17.33 37.6558 17.315 37.6408 17.27C37.6258 17.225 37.6408 17.18 37.6858 17.165C39.0508 16.58 39.8608 16.385 40.0858 16.595C40.1308 16.64 40.1908 16.73 40.1308 16.88C40.1008 16.955 40.1308 17 40.1908 17.045C40.4458 17.225 41.4058 17.15 42.3358 16.37C42.3658 16.355 42.3958 16.34 42.4258 16.37C42.4558 16.37 42.4708 16.415 42.4708 16.445C42.6058 17.675 43.4758 17.735 43.5208 17.735H43.6708C44.0908 17.735 44.4208 18.065 44.4208 18.485C44.4208 18.905 44.0908 19.235 43.6708 19.235C43.6258 21.065 42.1258 22.55 40.2958 22.58C40.2958 22.58 40.2658 22.58 40.2508 22.58L40.2208 22.565Z" fill="#081017"/>
<path d="M37.4605 20.96C37.4605 20.96 37.4305 20.96 37.4155 20.96C36.6805 20.465 36.2305 19.64 36.2305 18.755V17.825C36.2305 15.485 38.1355 13.58 40.4755 13.58H40.6555C41.8705 13.58 43.0255 14.18 43.7305 15.17C43.7605 15.215 43.7455 15.26 43.7155 15.29C43.6705 15.32 43.6255 15.305 43.5955 15.275C42.9205 14.33 41.8255 13.76 40.6555 13.76H40.4755C38.2255 13.76 36.3955 15.59 36.3955 17.84V18.77C36.3955 19.595 36.8155 20.375 37.5055 20.84C37.5505 20.87 37.5505 20.915 37.5355 20.96C37.5205 20.99 37.4905 20.99 37.4605 20.99V20.96Z" fill="#F61BA3"/>
<path d="M38.3906 20.525L40.2056 20.45C40.2056 20.45 40.1756 21.41 39.0956 21.65" fill="white"/>
<path d="M39.0958 21.755C39.0958 21.755 39.0208 21.725 39.0208 21.695C39.0208 21.65 39.0358 21.605 39.0808 21.59C39.9058 21.41 40.0708 20.795 40.1158 20.555L38.3908 20.615C38.3908 20.615 38.3008 20.585 38.3008 20.54C38.3008 20.495 38.3308 20.45 38.3758 20.45L40.1908 20.375C40.1908 20.375 40.2358 20.375 40.2508 20.405C40.2658 20.435 40.2808 20.45 40.2808 20.465C40.2808 20.465 40.2358 21.5 39.1108 21.755C39.1108 21.755 39.1108 21.755 39.0958 21.755Z" fill="#081017"/>
<path d="M37.8794 18.95C38.0285 18.95 38.1494 18.8292 38.1494 18.68C38.1494 18.5309 38.0285 18.41 37.8794 18.41C37.7303 18.41 37.6094 18.5309 37.6094 18.68C37.6094 18.8292 37.7303 18.95 37.8794 18.95Z" fill="black"/>
<path d="M40.0708 19.07C40.2199 19.07 40.3408 18.9491 40.3408 18.8C40.3408 18.6509 40.2199 18.53 40.0708 18.53C39.9217 18.53 39.8008 18.6509 39.8008 18.8C39.8008 18.9491 39.9217 19.07 40.0708 19.07Z" fill="black"/>
<path d="M38.644 19.3849C38.644 19.3849 38.344 20.0299 39.064 19.8649L38.644 19.3849Z" fill="white"/>
<path d="M38.8558 19.9699C38.7358 19.9699 38.6458 19.9399 38.5858 19.8649C38.4358 19.6849 38.5708 19.3849 38.5858 19.3549C38.6008 19.3099 38.6608 19.2949 38.6908 19.3099C38.7358 19.3249 38.7508 19.3849 38.7358 19.4149C38.7058 19.4749 38.6458 19.6699 38.7058 19.7599C38.7508 19.8199 38.8708 19.8199 39.0508 19.7749C39.0958 19.7749 39.1408 19.7899 39.1558 19.8349C39.1558 19.8799 39.1408 19.9249 39.0958 19.9399C39.0058 19.9549 38.9308 19.9699 38.8558 19.9699Z" fill="#081017"/>
<path d="M43.1292 18.275C43.1292 18.275 43.7292 18.845 42.9492 19.235L43.1292 18.275Z" fill="white"/>
<path d="M42.9478 19.325C42.9478 19.325 42.8878 19.31 42.8728 19.28C42.8578 19.235 42.8728 19.19 42.9178 19.175C43.1278 19.07 43.2478 18.95 43.2628 18.8C43.2928 18.575 43.0678 18.35 43.0678 18.35C43.0378 18.32 43.0378 18.26 43.0678 18.23C43.0978 18.2 43.1578 18.2 43.1878 18.23C43.1878 18.23 43.4728 18.515 43.4278 18.83C43.3978 19.025 43.2478 19.19 42.9928 19.325H42.9628H42.9478Z" fill="#081017"/>
<path d="M40.0391 17.9C40.0391 17.9 40.4891 17.87 40.5791 18.17L40.0391 17.9Z" fill="white"/>
<path d="M40.5798 18.26C40.5798 18.26 40.5048 18.23 40.5048 18.2C40.4298 17.96 40.0548 17.99 40.0548 17.99C40.0098 17.99 39.9648 17.96 39.9648 17.915C39.9648 17.87 39.9948 17.825 40.0398 17.825C40.0548 17.825 40.5498 17.795 40.6698 18.155C40.6698 18.2 40.6698 18.245 40.6098 18.26C40.6098 18.26 40.5948 18.26 40.5798 18.26Z" fill="#081017"/>
<path d="M37.3242 18.1551C37.3242 18.1551 37.6392 17.8401 37.9092 18.0051L37.3242 18.1551Z" fill="white"/>
<path d="M37.3247 18.23C37.3247 18.23 37.2797 18.23 37.2647 18.2C37.2347 18.17 37.2347 18.11 37.2647 18.08C37.2647 18.08 37.6397 17.72 37.9547 17.93C37.9997 17.96 37.9997 18.005 37.9847 18.05C37.9547 18.095 37.9097 18.095 37.8647 18.08C37.6547 17.945 37.3847 18.215 37.3847 18.215C37.3697 18.23 37.3547 18.245 37.3247 18.245V18.23Z" fill="#081017"/>
<path d="M44.57 20.33C44.57 20.33 44.48 20.3 44.48 20.24V18.02C44.48 17.015 44.15 16.025 43.535 15.23L43.16 14.735C43.16 14.735 43.145 14.645 43.175 14.615C43.205 14.585 43.265 14.6 43.295 14.63L43.67 15.125C44.3 15.95 44.645 16.985 44.645 18.02V20.24C44.645 20.24 44.615 20.33 44.555 20.33H44.57Z" fill="#F61BA3"/>
<g style="mix-blend-mode:multiply">
<path d="M41.3156 25.34L40.6856 28.205C40.6856 28.205 40.6706 28.37 40.7756 28.415C40.8806 28.46 40.3406 30.875 40.3406 30.875L39.1406 31.22L40.2656 26.615C40.4606 25.82 40.5206 25.55 41.3156 25.355V25.34Z" fill="#E6E6E6"/>
</g>
<g style="mix-blend-mode:multiply">
<path d="M51.5591 19.925C51.5591 19.925 51.5291 19.46 51.3641 19.49C51.1991 19.52 50.6441 20.345 49.9091 21.575C49.1741 22.805 48.3941 23.555 47.2091 23.945C46.0241 24.335 47.6441 25.925 48.9191 26.15C50.1941 26.375 49.3841 28.49 49.3841 28.49L51.2591 27.155L51.5591 19.91V19.925Z" fill="#E6E6E6"/>
</g>
<path d="M44.5234 16.715C44.5234 16.715 44.4784 16.715 44.4634 16.7C44.4184 16.67 44.4184 16.61 44.4634 16.565L45.7684 15.005C45.7684 15.005 45.8584 14.96 45.9034 15.005C45.9484 15.035 45.9484 15.095 45.9034 15.14L44.5984 16.7C44.5984 16.7 44.5534 16.73 44.5234 16.73V16.715Z" fill="#081017"/>
<g style="mix-blend-mode:multiply">
<path d="M17.6448 18.7999L17.0898 23.7649C17.0898 23.7649 17.5698 26.5399 17.5248 27.3499C17.4798 28.1599 17.3448 29.9299 17.3898 29.9749C17.4348 30.0199 18.4398 30.0949 18.4398 30.0949C18.4398 30.0949 18.2898 27.2299 18.3798 26.4199C18.4698 25.6099 18.8598 23.3299 18.8598 23.3299L18.0648 18.6799" fill="#E6E6E6"/>
</g>
<g style="mix-blend-mode:multiply">
<path d="M17.5555 17.0749L17.1055 18.1249L17.6305 18.7699L18.1105 18.7249L18.5605 18.1399L18.2155 17.0599L17.5555 17.0749Z" fill="#E6E6E6"/>
</g>
</svg>
