<svg width="28" height="28" viewBox="0 0 28 28" fill="none" xmlns="http://www.w3.org/2000/svg">
<path d="M5.28923 14.0752C6.43224 14.0752 7.36743 13.14 7.36743 11.997C7.36743 10.854 6.43224 9.91882 5.28923 9.91882C4.14621 9.91882 3.21102 10.854 3.21102 11.997C3.21102 13.14 4.14621 14.0752 5.28923 14.0752ZM6.46341 15.2183C6.07895 15.1559 5.69448 15.1143 5.28923 15.1143C4.26051 15.1143 3.28376 15.3326 2.40052 15.717C1.63158 16.0495 1.13281 16.7977 1.13281 17.6394V19.2708H5.80878V17.5978C5.80878 16.7353 6.04777 15.9248 6.46341 15.2183ZM21.9149 14.0752C23.0579 14.0752 23.9931 13.14 23.9931 11.997C23.9931 10.854 23.0579 9.91882 21.9149 9.91882C20.7719 9.91882 19.8367 10.854 19.8367 11.997C19.8367 13.14 20.7719 14.0752 21.9149 14.0752ZM26.0713 17.6394C26.0713 16.7977 25.5725 16.0495 24.8036 15.717C23.9204 15.3326 22.9436 15.1143 21.9149 15.1143C21.5096 15.1143 21.1252 15.1559 20.7407 15.2183C21.1563 15.9248 21.3953 16.7353 21.3953 17.5978V19.2708H26.0713V17.6394ZM18.0079 14.7507C16.7921 14.2103 15.2958 13.8155 13.6021 13.8155C11.9083 13.8155 10.412 14.2207 9.19626 14.7507C8.07402 15.2494 7.36743 16.3717 7.36743 17.5978V19.2708H19.8367V17.5978C19.8367 16.3717 19.1301 15.2494 18.0079 14.7507ZM9.51838 17.1925C9.6119 16.9536 9.65346 16.7873 10.464 16.4756C11.4719 16.0807 12.5318 15.8937 13.6021 15.8937C14.6723 15.8937 15.7322 16.0807 16.7401 16.4756C17.5403 16.7873 17.5818 16.9536 17.6857 17.1925H9.51838ZM13.6021 8.87972C14.1736 8.87972 14.6412 9.34732 14.6412 9.91882C14.6412 10.4903 14.1736 10.9579 13.6021 10.9579C13.0305 10.9579 12.563 10.4903 12.563 9.91882C12.563 9.34732 13.0305 8.87972 13.6021 8.87972ZM13.6021 6.80151C11.8771 6.80151 10.4847 8.19391 10.4847 9.91882C10.4847 11.6437 11.8771 13.0361 13.6021 13.0361C15.327 13.0361 16.7194 11.6437 16.7194 9.91882C16.7194 8.19391 15.327 6.80151 13.6021 6.80151Z" fill="#E10098"/>
</svg>
