<svg width="70" height="71" viewBox="0 0 70 71" fill="none" xmlns="http://www.w3.org/2000/svg">
<path d="M50.2078 53.5952H27.5103C27.0553 53.5952 26.6528 53.9277 26.6178 54.3827C26.6003 54.8727 26.9853 55.2752 27.4578 55.2752H50.1903C50.6453 55.2752 51.0303 54.9077 51.0303 54.4352C51.0303 53.9802 50.6628 53.5952 50.1903 53.5952H50.2078Z" fill="#E6E6E6"/>
<path d="M38.8334 37.1977L37.8184 41.3102L43.8034 40.9777C43.8034 40.9777 45.7284 40.6627 44.4334 38.5802C43.8384 38.6152 43.0684 38.6852 42.6134 38.3002C42.4559 38.1777 42.4559 38.1777 42.2459 38.1602C41.0734 38.0727 39.9709 37.5827 38.8509 37.1977H38.8334Z" fill="#E6E6E6"/>
<path d="M22.6812 39.3327C22.6812 39.3327 22.5762 39.2802 22.5762 39.2277V26.4702C22.5762 26.3127 22.7162 26.1727 22.8737 26.1727H24.7462V12.4352C24.7462 12.4352 24.7462 12.3477 24.7812 12.2952L26.9512 7.9902C27.0037 7.8852 27.1087 7.8327 27.2137 7.8327C27.3187 7.8327 27.4237 7.9027 27.4762 7.9902L29.6462 12.1902C29.6462 12.1902 29.6812 12.2777 29.6812 12.3302V19.1377H31.2737V18.5602C31.2737 18.4027 31.4137 18.2627 31.5712 18.2627H35.8412C35.9987 18.2627 36.1387 18.4027 36.1387 18.5602V28.9027C36.1387 28.9027 36.0862 29.0077 36.0337 29.0077C35.9812 29.0077 35.9287 28.9552 35.9287 28.9027V18.5602C35.9287 18.5602 35.8937 18.4727 35.8412 18.4727H31.5712C31.5712 18.4727 31.4837 18.5077 31.4837 18.5602V19.2427C31.4837 19.2427 31.4312 19.3477 31.3787 19.3477H29.5587C29.5587 19.3477 29.4537 19.2952 29.4537 19.2427V12.3127C29.4537 12.3127 29.4537 12.2952 29.4537 12.2777L27.2837 8.0777C27.2837 8.0777 27.2487 8.0252 27.2137 8.0252C27.1787 8.0252 27.1612 8.0252 27.1437 8.0777L24.9737 12.4002C24.9737 12.4002 24.9737 12.4177 24.9737 12.4352V26.2777C24.9737 26.2777 24.9212 26.3827 24.8687 26.3827H22.8912C22.8912 26.3827 22.8037 26.4177 22.8037 26.4702V39.2277C22.8037 39.2277 22.7512 39.3327 22.6987 39.3327H22.6812Z" fill="#E6E6E6"/>
<path d="M18.1831 41.9402C18.1831 41.9402 18.0781 41.8877 18.0781 41.8352V26.2777C18.0781 26.2777 18.1306 26.1727 18.1831 26.1727H18.2356V22.0602C18.2356 21.9027 18.3756 21.7627 18.5331 21.7627H20.8256C20.9831 21.7627 21.1231 21.9027 21.1231 22.0602V39.9977C21.1231 39.9977 21.0706 40.1027 21.0181 40.1027C20.9656 40.1027 20.9131 40.0502 20.9131 39.9977V22.0602C20.9131 22.0602 20.8781 21.9727 20.8256 21.9727H18.5331C18.5331 21.9727 18.4456 22.0077 18.4456 22.0602V26.2777C18.4456 26.2777 18.3931 26.3827 18.3406 26.3827H18.2881V41.8352C18.2881 41.8352 18.2356 41.9402 18.1831 41.9402Z" fill="#E6E6E6"/>
<path d="M38.3434 32.1402C39.0434 32.1402 39.7434 32.1402 40.4259 32.1402C40.9509 32.1402 41.4759 32.0527 41.9834 32.1052C42.3684 32.1577 42.6659 32.3327 42.9109 32.5952C43.0684 31.8077 43.3834 31.0552 43.9609 30.4777C44.7484 29.6902 45.9034 29.4977 46.9884 29.5327V15.5677C46.9884 15.4627 46.9009 15.3752 46.7959 15.3752H42.4034C42.2984 15.3752 42.2109 15.4627 42.2109 15.5677V21.8852H38.0109C37.9059 21.8852 37.8184 21.9727 37.8184 22.0777V32.3327C37.8184 32.3327 37.9584 32.3502 38.0284 32.3677C38.0634 32.2277 38.1509 32.1227 38.3259 32.1227L38.3434 32.1402Z" fill="#E6E6E6"/>
<path d="M42.9103 32.7002C42.9103 32.7002 42.8578 32.7002 42.8228 32.6652C42.5778 32.4027 42.2978 32.2627 41.9653 32.2102C41.6503 32.1752 41.3178 32.2102 40.9853 32.2102C40.7928 32.2102 40.6003 32.2277 40.4078 32.2277C39.9353 32.2277 39.4803 32.2277 39.0078 32.2277H38.3078C38.1678 32.2277 38.1328 32.3327 38.1153 32.3852C38.1153 32.4377 38.0453 32.4727 37.9928 32.4727H37.9228C37.9228 32.4727 37.8353 32.4377 37.7828 32.4377C37.7303 32.4377 37.6953 32.3852 37.6953 32.3327V22.0777C37.6953 21.9202 37.8353 21.7802 37.9928 21.7802H42.0878V15.5677C42.0878 15.4102 42.2278 15.2702 42.3853 15.2702H46.7778C46.9353 15.2702 47.0753 15.4102 47.0753 15.5677V29.5327C47.0753 29.5327 47.0753 29.5852 47.0403 29.6027C47.0053 29.6202 46.9878 29.6377 46.9528 29.6377C45.6578 29.5852 44.6778 29.8827 43.9953 30.5477C43.4878 31.0377 43.1553 31.7377 42.9803 32.6127C42.9803 32.6477 42.9453 32.6827 42.9103 32.7002C42.9103 32.7002 42.8928 32.7002 42.8753 32.7002H42.9103ZM41.5803 31.9827C41.7203 31.9827 41.8603 31.9827 42.0003 32.0002C42.3153 32.0352 42.5953 32.1752 42.8403 32.3852C43.0328 31.5627 43.3828 30.8977 43.8728 30.4077C44.5728 29.7252 45.5703 29.3927 46.8653 29.4277V15.5677C46.8653 15.5677 46.8303 15.4802 46.7778 15.4802H42.3853C42.3853 15.4802 42.2978 15.5152 42.2978 15.5677V21.8852C42.2978 21.8852 42.2453 21.9902 42.1928 21.9902H37.9928C37.9928 21.9902 37.9053 22.0252 37.9053 22.0777V32.2452C37.9053 32.2452 37.9228 32.2452 37.9403 32.2452C38.0103 32.1052 38.1503 32.0177 38.3078 32.0177H39.0078C39.4803 32.0177 39.9353 32.0177 40.4078 32.0177C40.6003 32.0177 40.7753 32.0177 40.9678 32.0002C41.1603 32.0002 41.3703 31.9827 41.5628 31.9827H41.5803Z" fill="#E6E6E6"/>
<path d="M57.6976 33.6102C57.6976 33.6102 57.5926 33.5577 57.5926 33.5052V18.6477C57.5926 18.6477 57.5576 18.5602 57.5051 18.5602H53.3401C53.3401 18.5602 53.2526 18.5952 53.2526 18.6477C53.2526 18.7002 53.2001 18.7527 53.1476 18.7527C53.0951 18.7527 53.0426 18.7002 53.0426 18.6477V17.7377H48.8776C48.8776 17.7377 48.7901 17.7727 48.7901 17.8252V30.4952C48.7901 30.4952 48.7376 30.6002 48.6851 30.6002C48.6326 30.6002 48.5801 30.5477 48.5801 30.4952V17.8252C48.5801 17.6677 48.7201 17.5277 48.8776 17.5277H53.1476C53.1476 17.5277 53.2526 17.5802 53.2526 17.6327V18.3502C53.2526 18.3502 53.3051 18.3502 53.3401 18.3502H57.5051C57.6626 18.3502 57.8026 18.4902 57.8026 18.6477V33.5052C57.8026 33.5052 57.7501 33.6102 57.6976 33.6102Z" fill="#E6E6E6"/>
<path d="M0.980391 48.0127L1.48789 48.6777L2.76539 48.6077C3.15039 48.5902 3.50039 48.8352 3.62289 49.2027L4.37539 51.6002C4.41039 51.7052 4.41039 51.8102 4.37539 51.9152C4.30539 52.1427 4.09539 52.3002 3.85039 52.3002H1.87289C1.59289 52.3002 1.34789 52.5277 1.33039 52.8077L1.61039 52.7027L4.51539 52.7727L5.21539 52.0202L3.79789 47.8727L0.962891 48.0127H0.980391Z" fill="#E6E6E6"/>
<path d="M51.9057 37.4777L53.5507 39.8927C53.6557 40.0502 53.8482 40.1202 54.0232 40.0852L57.7157 39.3852C58.1182 39.3152 58.2407 38.7727 57.8907 38.5452L56.2282 37.3727C56.2282 37.3727 56.1057 37.3027 56.0357 37.2852L52.3607 36.7427C51.9582 36.6902 51.6782 37.1277 51.9057 37.4777Z" fill="#E10098"/>
<path d="M53.9348 40.1902C53.7423 40.1902 53.5673 40.1027 53.4623 39.9452L51.8173 37.5302C51.6948 37.3377 51.6773 37.1102 51.8173 36.9177C51.9398 36.7252 52.1498 36.6202 52.3773 36.6552L56.0523 37.1977C56.0523 37.1977 56.2273 37.2502 56.2973 37.3027L57.9598 38.4752C58.1523 38.6152 58.2398 38.8252 58.1873 39.0527C58.1348 39.2802 57.9598 39.4377 57.7323 39.4902L54.0398 40.1902C54.0398 40.1902 53.9698 40.1902 53.9348 40.1902ZM52.2723 36.8477C52.1323 36.8477 52.0098 36.9352 51.9573 37.0227C51.8873 37.1277 51.8698 37.2852 51.9573 37.4252L53.6023 39.8402C53.6898 39.9627 53.8298 40.0152 53.9698 39.9977L57.6623 39.2977C57.8373 39.2627 57.9248 39.1227 57.9598 39.0177C57.9773 38.8952 57.9598 38.7377 57.8023 38.6327L56.1398 37.4602C56.1398 37.4602 56.0348 37.4077 55.9823 37.3902L52.3073 36.8477C52.3073 36.8477 52.2723 36.8477 52.2548 36.8477H52.2723Z" fill="white"/>
<path d="M9.95797 44.3552L8.85547 44.7052L21.0005 44.0927L37.608 43.7427L49.998 43.3927L55.1605 42.6927L61.8455 42.4652L55.5805 42.0802L49.0705 42.9552L24.413 43.3927L9.95797 44.3552Z" fill="#E6E6E6"/>
<path d="M52.2556 44.2852C53.2511 44.2852 54.0581 44.058 54.0581 43.7777C54.0581 43.4974 53.2511 43.2702 52.2556 43.2702C51.2601 43.2702 50.4531 43.4974 50.4531 43.7777C50.4531 44.058 51.2601 44.2852 52.2556 44.2852Z" fill="#E6E6E6"/>
<path d="M34.947 45.0902C35.9425 45.0902 36.7495 44.863 36.7495 44.5827C36.7495 44.3024 35.9425 44.0752 34.947 44.0752C33.9515 44.0752 33.1445 44.3024 33.1445 44.5827C33.1445 44.863 33.9515 45.0902 34.947 45.0902Z" fill="#E6E6E6"/>
<path d="M38.0109 38.3177V37.4777C38.0109 37.0752 37.6784 36.7427 37.2759 36.7427C36.8734 36.7427 36.5409 37.0752 36.5409 37.4777V38.3177C36.5409 38.6852 36.8034 38.9827 37.1534 39.0352V39.2802H37.1009C36.7859 39.2802 36.5234 39.5427 36.5234 39.8577V41.5902H37.9934V39.8577C37.9934 39.5427 37.7309 39.2802 37.4159 39.2802H37.3634V39.0352C37.7134 38.9827 37.9759 38.6677 37.9759 38.3177H38.0109Z" fill="#E6E6E6"/>
<path d="M21.5254 54.7502L21.6129 52.5627C21.6129 52.5627 22.9429 50.0952 26.0929 49.7802C29.2429 49.4652 49.5954 49.5877 49.5954 49.5877C49.5954 49.5877 47.7754 52.4927 48.3879 54.7502C34.2829 54.9077 21.5254 54.7502 21.5254 54.7502Z" fill="#E6E6E6"/>
<path d="M5.5132 44.9502L3.2207 46.2102L7.1407 45.8602L8.5932 44.8452L5.5132 44.9502Z" fill="#E10098"/>
<path d="M33.1105 38.7552C33.2072 38.7552 33.2855 38.6768 33.2855 38.5802C33.2855 38.4835 33.2072 38.4052 33.1105 38.4052C33.0139 38.4052 32.9355 38.4835 32.9355 38.5802C32.9355 38.6768 33.0139 38.7552 33.1105 38.7552Z" fill="black"/>
<path d="M28.0532 42.0102C28.0532 42.0102 27.9482 41.9752 27.9482 41.9052V40.3827C27.9482 40.2602 27.8432 40.1552 27.7207 40.1552C27.5982 40.1552 27.4932 40.2602 27.4932 40.3827V41.9052C27.4932 41.9052 27.4582 42.0102 27.3882 42.0102C27.3182 42.0102 27.2832 41.9752 27.2832 41.9052V40.3827C27.2832 40.1552 27.4757 39.9627 27.7032 39.9627C27.9307 39.9627 28.1232 40.1552 28.1232 40.3827V41.9052C28.1232 41.9052 28.0882 42.0102 28.0182 42.0102H28.0532Z" fill="#F61BA3"/>
<path d="M35.1934 39.6127C35.1934 39.6127 35.0884 39.5777 35.0884 39.5077C35.0884 39.4377 35.1234 39.4027 35.1934 39.4027C35.4559 39.4027 35.6659 39.1927 35.6659 38.9302C35.6659 38.6677 35.4559 38.4577 35.1934 38.4577H34.8259C34.8259 38.4577 34.7559 38.4402 34.7384 38.4052L34.6859 38.3002H34.2834C33.5834 38.3002 33.0059 37.7227 33.0059 37.0227C33.0059 36.9702 33.0409 36.9177 33.1109 36.9177C33.1809 36.9177 33.2159 36.9527 33.2159 37.0227C33.2159 37.6177 33.7059 38.0902 34.3009 38.0902H34.7734C34.7734 38.0902 34.8434 38.1077 34.8609 38.1427L34.9134 38.2477H35.2109C35.5784 38.2477 35.8759 38.5452 35.8759 38.9127C35.8759 39.2802 35.5784 39.5777 35.2109 39.5777L35.1934 39.6127Z" fill="#081017"/>
<path d="M33.8109 40.6627C32.8834 40.6627 32.1309 39.9102 32.1309 38.9827C32.1309 38.4752 32.3584 37.9852 32.7609 37.6702C32.7959 37.6352 32.8659 37.6352 32.9009 37.6702C32.9359 37.7052 32.9359 37.7752 32.9009 37.8102C32.5509 38.0902 32.3409 38.5277 32.3409 38.9827C32.3409 39.9277 33.1984 40.6627 34.1959 40.4352C34.2484 40.4352 34.3009 40.4527 34.3184 40.5052C34.3184 40.5577 34.3009 40.6102 34.2484 40.6277C34.1084 40.6627 33.9859 40.6802 33.8459 40.6802L33.8109 40.6627Z" fill="#081017"/>
<path d="M33.0936 40.1027C33.0936 40.1027 33.0061 40.0852 33.0061 40.0327C33.0061 39.9802 33.0061 39.9277 33.0761 39.9102C33.3211 39.8227 33.3911 39.5777 33.4086 39.4202L32.7436 39.6127C32.7436 39.6127 32.6386 39.6127 32.6211 39.5427C32.6211 39.4902 32.6211 39.4377 32.6911 39.4202L33.4786 39.1927C33.4786 39.1927 33.5311 39.1927 33.5661 39.1927C33.5836 39.1927 33.6011 39.2277 33.6011 39.2627C33.6186 39.4902 33.5486 39.9452 33.1461 40.0677C33.1461 40.0677 33.1286 40.0677 33.1111 40.0677L33.0936 40.1027Z" fill="#081017"/>
<path d="M35.1762 40.6452C35.1762 40.6452 35.1062 40.6277 35.0887 40.5927C35.0712 40.5402 35.0887 40.4877 35.1237 40.4527C35.8062 40.0677 36.4887 39.5602 36.4887 38.0027C36.4887 37.6177 36.3837 37.3027 36.1562 37.0927C35.6662 36.6027 34.7212 36.6202 34.1437 36.6202H33.9687C33.2512 36.6202 32.8487 36.9002 32.8487 37.3727C32.8487 37.8102 32.9887 37.8977 32.9887 37.9152C33.0412 37.9327 33.0587 38.0027 33.0237 38.0377C33.0062 38.0902 32.9362 38.1077 32.8837 38.0727C32.8487 38.0552 32.6387 37.9152 32.6387 37.3727C32.6387 36.7952 33.1287 36.4452 33.9512 36.4452H34.1262C34.7212 36.4452 35.7187 36.4277 36.2787 36.9702C36.5412 37.2327 36.6637 37.5827 36.6637 38.0202C36.6637 39.6827 35.9462 40.2252 35.2112 40.6452C35.2112 40.6452 35.1762 40.6452 35.1587 40.6452H35.1762Z" fill="#F61BA3"/>
<path d="M28.0523 42.0102C28.0523 42.0102 27.9648 41.9752 27.9473 41.9227C27.9473 41.8702 27.9823 41.8177 28.0348 41.8177L32.4973 41.4152L33.4598 41.2577L34.0898 40.9602C34.2473 40.9252 35.4723 40.6452 35.8923 40.8727C36.2948 41.0827 36.5573 41.2402 36.5748 41.2577C36.6273 41.2927 36.6273 41.3452 36.6098 41.3977C36.5748 41.4502 36.5223 41.4502 36.4698 41.4327C36.4698 41.4327 36.2073 41.2577 35.8048 41.0652C35.4898 40.9077 34.5098 41.0827 34.1598 41.1702L33.5473 41.4677C33.5473 41.4677 33.5473 41.4677 33.5298 41.4677L32.5498 41.6252L28.0698 42.0452L28.0523 42.0102Z" fill="#081017"/>
<path d="M67.9352 43.2177L66.9027 42.4652H62.0027C61.7052 42.4652 61.5827 42.8677 61.8452 43.0252L63.7002 44.2152C64.2077 44.5302 64.7852 44.7052 65.3802 44.7052H69.3352" fill="#E10098"/>
<path d="M69.3168 44.7927H65.3618C64.7493 44.7927 64.1543 44.6177 63.6293 44.2852L61.7743 43.0952C61.6168 42.9902 61.5468 42.8152 61.5993 42.6402C61.6518 42.4652 61.8093 42.3602 61.9843 42.3602H66.8843C66.8843 42.3602 66.9193 42.3602 66.9368 42.3777L67.9693 43.1302C67.9693 43.1302 68.0218 43.2177 67.9868 43.2702C67.9518 43.3052 67.8993 43.3227 67.8468 43.2877L66.8318 42.5527H61.9493C61.8268 42.5527 61.7743 42.6227 61.7568 42.7102C61.7393 42.7977 61.7568 42.8852 61.8443 42.9377L63.6993 44.1277C64.1893 44.4427 64.7493 44.6002 65.3268 44.6002H69.2818C69.2818 44.6002 69.3868 44.6352 69.3868 44.7052C69.3868 44.7752 69.3518 44.8102 69.2818 44.8102L69.3168 44.7927Z" fill="white"/>
<path d="M68.4777 52.9302H62.9827C62.5102 48.7477 60.2527 46.7002 56.2452 46.7002C48.4402 46.7002 48.5977 53.8927 48.5977 53.8927H47.6002L44.5377 53.2452H24.2202L22.5227 53.7877H21.5077C21.5077 53.7877 21.5427 52.6852 20.8252 50.4102C20.1077 48.1352 17.5002 46.1402 12.3727 46.5777C7.24516 47.0152 6.96516 53.2102 6.96516 53.2102H0.910156L3.13266 55.1177H5.05766L8.12016 56.4477V52.8427C8.12016 49.8852 10.5177 47.5052 13.4577 47.5052H14.5602C17.7802 47.5052 20.3877 50.1127 20.3877 53.3327V55.3977H49.5602V53.3327C49.5602 50.1127 52.1677 47.5052 55.3876 47.5052H56.4902C59.4477 47.5052 61.8277 49.9027 61.8277 52.8427V54.8902L67.4452 54.0502C68.0751 53.9627 68.6352 53.5777 68.9502 53.0352L69.2477 52.5452C69.0552 52.7727 68.7752 52.9302 68.4426 52.9302H68.4777Z" fill="#E10098"/>
<path d="M8.11969 56.5527H8.08469L5.03969 55.2227H3.13219C3.13219 55.2227 3.07969 55.2227 3.06219 55.2052L0.839687 53.2977C0.839687 53.2977 0.804688 53.2277 0.804688 53.1927C0.804688 53.1577 0.857187 53.1227 0.892187 53.1227H6.87719C6.91219 52.7552 7.05219 51.4077 7.66469 50.0252C8.60969 47.8902 10.2372 46.6652 12.3722 46.4902C19.0047 45.9127 20.5972 49.3252 20.9297 50.3927C21.5247 52.3177 21.6122 53.3852 21.6122 53.7002H22.5047L24.1847 53.1752C24.1847 53.1752 24.2022 53.1752 24.2197 53.1752H44.5372L47.6172 53.8227H48.4922C48.4922 53.2802 48.6672 50.6027 50.5397 48.6952C51.8872 47.3127 53.8122 46.6302 56.2447 46.6302C60.2697 46.6302 62.5622 48.7302 63.0697 52.8602H68.4772C68.7572 52.8602 69.0197 52.7377 69.1947 52.5102C69.2122 52.4927 69.2472 52.4752 69.2822 52.4752C69.3172 52.4752 69.3522 52.4927 69.3522 52.5277C69.3522 52.5627 69.3522 52.5977 69.3522 52.6152L69.0547 53.1052C68.7047 53.6827 68.1272 54.0677 67.4797 54.1552L61.8622 54.9952C61.8622 54.9952 61.8097 54.9952 61.7922 54.9777C61.7747 54.9602 61.7572 54.9252 61.7572 54.9077V52.8602C61.7572 49.9727 59.3947 47.6102 56.5072 47.6102H55.4047C52.2372 47.6102 49.6647 50.1827 49.6647 53.3502V55.4152C49.6647 55.4152 49.6297 55.5202 49.5597 55.5202H20.4047C20.4047 55.5202 20.2997 55.4852 20.2997 55.4152V53.3502C20.2997 50.1827 17.7272 47.6102 14.5597 47.6102H13.4572C10.5697 47.6102 8.20719 49.9727 8.20719 52.8602V56.4652C8.20719 56.4652 8.20719 56.5352 8.17219 56.5527C8.17219 56.5527 8.13719 56.5527 8.11969 56.5527ZM3.16719 55.0127H5.05719H5.09219L8.01469 56.2902V52.8252C8.01469 49.8327 10.4647 47.3827 13.4572 47.3827H14.5597C17.8322 47.3827 20.4922 50.0427 20.4922 53.3152V55.2752H49.4722V53.3152C49.4722 50.0427 52.1322 47.3827 55.4047 47.3827H56.5072C59.4997 47.3827 61.9497 49.8152 61.9497 52.8252V54.7677L67.4622 53.9452C68.0572 53.8577 68.5822 53.5077 68.8972 52.9827L68.9322 52.9127C68.7922 52.9827 68.6347 53.0177 68.4772 53.0177H62.9822C62.9822 53.0177 62.8947 52.9827 62.8947 52.9302C62.4222 48.8002 60.2522 46.7877 56.2622 46.7877C53.8822 46.7877 52.0097 47.4702 50.6972 48.8002C48.6672 50.8652 48.7022 53.8577 48.7022 53.8927C48.7022 53.9102 48.7022 53.9452 48.6672 53.9627C48.6497 53.9802 48.6322 53.9977 48.5972 53.9977H47.5997L44.5197 53.3502H24.2372L22.5572 53.8752C22.5572 53.8752 22.5397 53.8752 22.5222 53.8752H21.5072C21.5072 53.8752 21.4547 53.8752 21.4372 53.8402C21.4197 53.8227 21.4022 53.7877 21.4022 53.7702C21.4022 53.7702 21.4197 52.6502 20.7197 50.4277C20.4047 49.3952 18.8472 46.1052 12.3722 46.6652C10.2897 46.8402 8.74969 47.9952 7.82219 50.0777C7.12219 51.6527 7.05219 53.1752 7.05219 53.1927C7.05219 53.2452 6.99969 53.2802 6.94719 53.2802H1.17219L3.16719 54.9952V55.0127Z" fill="white"/>
<path d="M7.78766 56.5527H7.75266L4.70766 55.2227H2.80016C2.80016 55.2227 2.74766 55.2227 2.73016 55.2052L0.507656 53.2977C0.507656 53.2977 0.472656 53.2277 0.472656 53.1927C0.472656 53.1577 0.525156 53.1227 0.560156 53.1227H6.54516C6.58016 52.7552 6.72016 51.4077 7.33266 50.0252C8.27766 47.8902 9.90516 46.6652 12.0402 46.4902C18.6727 45.9127 20.2652 49.3252 20.5977 50.3927C21.1927 52.3177 21.2802 53.3852 21.2802 53.7002H22.1727L23.8527 53.1752C23.8527 53.1752 23.8702 53.1752 23.8877 53.1752H44.2052L47.2852 53.8227H48.1602C48.1602 53.2802 48.3352 50.6027 50.2077 48.6952C51.5552 47.3127 53.4802 46.6302 55.9127 46.6302C59.9377 46.6302 62.2301 48.7302 62.7376 52.8602H68.1451C68.4251 52.8602 68.6876 52.7377 68.8626 52.5102C68.8801 52.4927 68.9152 52.4752 68.9502 52.4752C68.9852 52.4752 69.0201 52.4927 69.0201 52.5277C69.0201 52.5627 69.0201 52.5977 69.0201 52.6152L68.7226 53.1052C68.3727 53.6827 67.7952 54.0677 67.1477 54.1552L61.5302 54.9952C61.5302 54.9952 61.4776 54.9952 61.4601 54.9777C61.4426 54.9602 61.4251 54.9252 61.4251 54.9077V52.8602C61.4251 49.9727 59.0626 47.6102 56.1751 47.6102H55.0727C51.9052 47.6102 49.3327 50.1827 49.3327 53.3502V55.4152C49.3327 55.4152 49.2976 55.5202 49.2276 55.5202H20.0727C20.0727 55.5202 19.9677 55.4852 19.9677 55.4152V53.3502C19.9677 50.1827 17.3952 47.6102 14.2277 47.6102H13.1252C10.2377 47.6102 7.87516 49.9727 7.87516 52.8602V56.4652C7.87516 56.4652 7.87516 56.5352 7.84016 56.5527C7.84016 56.5527 7.80516 56.5527 7.78766 56.5527ZM2.83516 55.0127H4.72516H4.76016L7.68266 56.2902V52.8252C7.68266 49.8327 10.1327 47.3827 13.1252 47.3827H14.2277C17.5002 47.3827 20.1602 50.0427 20.1602 53.3152V55.2752H49.1402V53.3152C49.1402 50.0427 51.8002 47.3827 55.0727 47.3827H56.1751C59.1676 47.3827 61.6176 49.8152 61.6176 52.8252V54.7677L67.1301 53.9452C67.7252 53.8577 68.2502 53.5077 68.5652 52.9827L68.6002 52.9127C68.4602 52.9827 68.3027 53.0177 68.1451 53.0177H62.6502C62.6502 53.0177 62.5627 52.9827 62.5627 52.9302C62.0902 48.8002 59.9202 46.7877 55.9301 46.7877C53.5502 46.7877 51.6777 47.4702 50.3652 48.8002C48.3352 50.8652 48.3702 53.8577 48.3702 53.8927C48.3702 53.9102 48.3702 53.9452 48.3352 53.9627C48.3177 53.9802 48.3002 53.9977 48.2652 53.9977H47.2677L44.1877 53.3502H23.9052L22.2252 53.8752C22.2252 53.8752 22.2077 53.8752 22.1902 53.8752H21.1752C21.1752 53.8752 21.1227 53.8752 21.1052 53.8402C21.0877 53.8227 21.0702 53.7877 21.0702 53.7702C21.0702 53.7702 21.0877 52.6502 20.3877 50.4277C20.0727 49.3952 18.5152 46.1052 12.0402 46.6652C9.95766 46.8402 8.41766 47.9952 7.49016 50.0777C6.79016 51.6527 6.72016 53.1752 6.72016 53.1927C6.72016 53.2452 6.66766 53.2802 6.61516 53.2802H0.840156L2.83516 54.9952V55.0127Z" fill="#081017"/>
<path d="M49.2455 48.2752C48.9305 48.2752 48.3355 47.8902 47.863 47.1727C47.4255 46.5077 46.323 46.4552 46.3055 46.4552H38.7105C38.7105 46.4552 38.6055 46.4202 38.6055 46.3502C38.6055 46.2802 38.6405 46.2452 38.7105 46.2452H46.3055C46.3055 46.2452 47.513 46.3152 48.0205 47.0502C48.493 47.7502 49.0355 48.0827 49.2455 48.0827C49.298 48.0827 49.3505 48.1177 49.3505 48.1877C49.3505 48.2577 49.3155 48.2927 49.2455 48.2927V48.2752Z" fill="#081017"/>
<path d="M33.9329 45.0552C33.9329 45.0552 33.9329 45.0552 33.9154 45.0552L32.9704 44.8102C32.9704 44.8102 32.9179 44.7752 32.9004 44.7577C32.9004 44.7227 32.9004 44.7052 32.9004 44.6702L33.0929 44.3377C33.0929 44.3377 33.1104 44.3027 33.1279 44.3027C34.3179 43.6552 36.0329 44.0402 36.1029 44.0402C36.1554 44.0402 36.1904 44.1102 36.1729 44.1627C36.1729 44.2152 36.1204 44.2502 36.0504 44.2327C36.0504 44.2327 34.3529 43.8652 33.2329 44.4602L33.1104 44.6702L33.9329 44.8802C33.9329 44.8802 34.0204 44.9502 34.0029 45.0027C34.0029 45.0377 33.9504 45.0727 33.9154 45.0727L33.9329 45.0552Z" fill="#081017"/>
<path d="M35.5943 45.0027C35.5943 45.0027 35.5243 44.9852 35.5068 44.9502C35.5068 44.9502 35.4368 44.8277 35.2443 44.8102C34.9643 44.8102 34.2818 44.8102 34.1768 44.8452C34.1243 44.8452 34.0718 44.8452 34.0543 44.7927C34.0368 44.7402 34.0543 44.6877 34.1068 44.6702C34.2468 44.6177 35.0693 44.6177 35.2443 44.6177C35.4543 44.6177 35.5768 44.7402 35.6293 44.8102C35.7518 44.8102 36.1018 44.7752 36.3293 44.7052C36.4868 44.6702 36.5393 44.5127 36.5743 44.4252C36.3643 44.4077 35.9093 44.3552 35.5068 44.3552C34.9643 44.3552 33.2143 44.4777 33.1968 44.4777C33.1443 44.4777 33.0918 44.4427 33.0918 44.3902C33.0918 44.3377 33.1268 44.2852 33.1793 44.2852C33.2493 44.2852 34.9818 44.1452 35.5068 44.1627C36.0493 44.1627 36.6968 44.2502 36.6968 44.2502C36.7493 44.2502 36.7843 44.3027 36.7843 44.3552C36.7843 44.3727 36.7493 44.8102 36.3818 44.8977C36.0668 44.9852 35.6118 45.0027 35.5768 45.0027H35.5943Z" fill="#081017"/>
<path d="M51.2044 44.3027C51.2044 44.3027 51.2044 44.3027 51.1869 44.3027L50.2419 44.0577C50.2419 44.0577 50.1894 44.0227 50.1719 44.0052C50.1719 43.9702 50.1719 43.9527 50.1719 43.9177L50.3644 43.5852C50.3644 43.5852 50.3819 43.5502 50.3994 43.5502C51.5894 42.9027 53.3044 43.2877 53.3744 43.2877C53.4269 43.2877 53.4619 43.3577 53.4444 43.4102C53.4444 43.4627 53.3919 43.4977 53.3219 43.4802C53.3219 43.4802 51.6244 43.0952 50.5044 43.7077L50.3819 43.9177L51.2044 44.1277C51.2044 44.1277 51.2919 44.1977 51.2744 44.2502C51.2744 44.3027 51.2219 44.3202 51.1869 44.3202L51.2044 44.3027Z" fill="#081017"/>
<path d="M52.8502 44.2502C52.8502 44.2502 52.7802 44.2327 52.7627 44.1977C52.7627 44.1977 52.6927 44.0752 52.5002 44.0577C52.2202 44.0577 51.5202 44.0577 51.4327 44.0927C51.3802 44.0927 51.3277 44.0927 51.3102 44.0402C51.2927 43.9877 51.3102 43.9352 51.3627 43.9177C51.5027 43.8652 52.3252 43.8652 52.5002 43.8652C52.7102 43.8652 52.8327 43.9877 52.8852 44.0577C53.0077 44.0577 53.3577 44.0227 53.5852 43.9527C53.7427 43.9177 53.7952 43.7602 53.8302 43.6727C53.6202 43.6552 53.1652 43.6027 52.7627 43.6027C52.2202 43.6027 50.4702 43.7252 50.4527 43.7252C50.4002 43.7252 50.3477 43.6902 50.3477 43.6377C50.3477 43.5852 50.3827 43.5327 50.4352 43.5327C50.5052 43.5327 52.2377 43.4102 52.7627 43.4102C53.3052 43.4102 53.9527 43.4977 53.9527 43.4977C54.0052 43.4977 54.0402 43.5502 54.0402 43.6027C54.0402 43.6202 54.0052 44.0577 53.6377 44.1452C53.3227 44.2327 52.8677 44.2502 52.8327 44.2502H52.8502Z" fill="#081017"/>
<path d="M37.2925 55.4852C37.2925 55.4852 37.1875 55.4502 37.1875 55.3802V46.2102L37.8175 41.3802L38.3075 38.8602C38.3075 38.8602 38.36 38.7727 38.4125 38.7902C38.465 38.7902 38.5 38.8427 38.4825 38.8952L37.9925 41.4152L37.3625 46.2277V55.3977C37.3625 55.3977 37.3275 55.5027 37.275 55.5027L37.2925 55.4852Z" fill="#081017"/>
<path d="M13.9292 54.7677C14.2288 54.7677 14.4717 54.5248 14.4717 54.2252C14.4717 53.9256 14.2288 53.6827 13.9292 53.6827C13.6296 53.6827 13.3867 53.9256 13.3867 54.2252C13.3867 54.5248 13.6296 54.7677 13.9292 54.7677Z" fill="black"/>
<path d="M13.9288 54.8552C13.5788 54.8552 13.2988 54.5752 13.2988 54.2252C13.2988 53.8752 13.5788 53.5952 13.9288 53.5952C14.2788 53.5952 14.5588 53.8752 14.5588 54.2252C14.5588 54.5752 14.2788 54.8552 13.9288 54.8552ZM13.9288 53.7877C13.6838 53.7877 13.4913 53.9802 13.4913 54.2252C13.4913 54.4702 13.6838 54.6627 13.9288 54.6627C14.1738 54.6627 14.3663 54.4702 14.3663 54.2252C14.3663 53.9802 14.1738 53.7877 13.9288 53.7877Z" fill="#081017"/>
<path d="M13.266 50.3927C13.3535 50.2352 13.5285 50.1477 13.7035 50.1477C13.9835 50.1477 14.386 50.1477 14.6485 50.2177C14.7885 50.2352 14.876 50.3752 14.8235 50.4977C14.5085 51.5477 14.0885 53.0352 14.0885 53.0352L14.3335 52.8952C14.3335 52.8952 14.3685 52.8602 14.386 52.8427L15.156 51.1452C15.226 51.0052 15.3485 50.8827 15.4885 50.8127C15.716 50.7077 15.961 50.7427 16.1535 50.9002L16.5385 51.2152C16.5385 51.2152 16.626 51.4077 16.5385 51.4602L13.9135 53.4902C13.651 53.6827 13.2835 53.5252 13.2485 53.2102L13.056 51.1102C13.0385 50.8652 13.091 50.6202 13.2135 50.4102L13.266 50.3927Z" fill="#E6E6E6"/>
<path d="M17.413 52.4402C17.588 52.4752 17.728 52.6152 17.7805 52.7902C17.8505 53.0527 17.9555 53.4377 17.9905 53.7177C18.008 53.8577 17.903 53.9802 17.763 53.9802C16.678 53.9802 15.1205 54.0152 15.1205 54.0152L15.3305 54.2077C15.3305 54.2077 15.383 54.2427 15.4005 54.2427L17.238 54.4877C17.3955 54.5052 17.553 54.5927 17.658 54.7152C17.8155 54.9077 17.8505 55.1527 17.763 55.3802L17.588 55.8527C17.553 55.9577 17.4305 55.9927 17.343 55.9227L14.6305 53.9977C14.368 53.8052 14.4205 53.4027 14.718 53.2802L16.6605 52.4927C16.888 52.4052 17.133 52.3877 17.378 52.4402H17.413Z" fill="#E6E6E6"/>
<path d="M16.6603 57.0077C16.6603 57.1827 16.5903 57.3577 16.4328 57.4627C16.2053 57.6202 15.8728 57.8302 15.6103 57.9352C15.4878 57.9877 15.3478 57.9352 15.2953 57.7952C14.9628 56.7627 14.4903 55.2927 14.4903 55.2927L14.3678 55.5552C14.3678 55.5552 14.3678 55.6077 14.3678 55.6427L14.6653 57.4802C14.7003 57.6377 14.6653 57.8127 14.5778 57.9352C14.4553 58.1452 14.2103 58.2502 13.9653 58.2327L13.4753 58.1977C13.3703 58.1977 13.3003 58.0927 13.3353 57.9877L14.3853 54.8377C14.4903 54.5227 14.8928 54.4527 15.0853 54.7152L16.4153 56.3427C16.5728 56.5352 16.6603 56.7627 16.6778 57.0077H16.6603Z" fill="#E6E6E6"/>
<path d="M12.0754 57.6202C11.9004 57.6902 11.7079 57.6552 11.5679 57.5327C11.3579 57.3577 11.0604 57.0952 10.8679 56.8852C10.7804 56.7802 10.7979 56.6227 10.9029 56.5527C11.7954 55.9402 13.0729 55.0477 13.0729 55.0477L12.7929 55.0127C12.7929 55.0127 12.7404 55.0127 12.7054 55.0127L11.0429 55.8352C10.9029 55.9052 10.7279 55.9227 10.5704 55.8877C10.3429 55.8177 10.1504 55.6252 10.0979 55.3977L9.99291 54.9077C9.97541 54.8027 10.0454 54.7152 10.1504 54.7152L13.4754 54.7852C13.8079 54.7852 13.9829 55.1527 13.8079 55.4327L12.6354 57.1827C12.4954 57.3927 12.3029 57.5327 12.0754 57.6202Z" fill="#E6E6E6"/>
<path d="M10.1513 53.4202C10.0463 53.2802 10.0113 53.0877 10.0813 52.9127C10.1863 52.6677 10.3438 52.3002 10.5013 52.0552C10.5713 51.9327 10.7288 51.9152 10.8338 52.0027C11.6913 52.6852 12.8988 53.6302 12.8988 53.6302L12.8638 53.3502C12.8638 53.3502 12.8638 53.2977 12.8288 53.2802L11.5513 51.9327C11.4463 51.8102 11.3763 51.6527 11.3763 51.4952C11.3763 51.2502 11.4988 51.0227 11.7088 50.9002L12.1463 50.6552C12.2338 50.6027 12.3563 50.6552 12.3738 50.7427L13.2663 53.9452C13.3538 54.2602 13.0563 54.5402 12.7588 54.4527L10.7463 53.8402C10.5188 53.7702 10.3088 53.6302 10.1513 53.4377V53.4202Z" fill="#E6E6E6"/>
<path d="M13.9299 48.5902C10.8149 48.5902 8.29492 51.1102 8.29492 54.2252C8.29492 57.3402 10.8149 59.8602 13.9299 59.8602C17.0449 59.8602 19.5649 57.3402 19.5649 54.2252C19.5649 51.1102 17.0449 48.5902 13.9299 48.5902ZM13.9299 58.4602C11.5849 58.4602 9.69492 56.5702 9.69492 54.2252C9.69492 51.8802 11.5849 49.9902 13.9299 49.9902C16.2749 49.9902 18.1649 51.8802 18.1649 54.2252C18.1649 56.5702 16.2749 58.4602 13.9299 58.4602Z" fill="#E10098"/>
<path d="M13.9295 59.9652C10.762 59.9652 8.18945 57.3927 8.18945 54.2252C8.18945 51.0577 10.762 48.4852 13.9295 48.4852C17.097 48.4852 19.6695 51.0577 19.6695 54.2252C19.6695 57.3927 17.097 59.9652 13.9295 59.9652ZM13.9295 48.6777C10.867 48.6777 8.38195 51.1627 8.38195 54.2252C8.38195 57.2877 10.867 59.7727 13.9295 59.7727C16.992 59.7727 19.477 57.2877 19.477 54.2252C19.477 51.1627 16.992 48.6777 13.9295 48.6777ZM13.9295 58.5652C11.532 58.5652 9.58945 56.6227 9.58945 54.2252C9.58945 51.8277 11.532 49.8852 13.9295 49.8852C16.327 49.8852 18.2695 51.8277 18.2695 54.2252C18.2695 56.6227 16.327 58.5652 13.9295 58.5652ZM13.9295 50.0777C11.637 50.0777 9.78195 51.9327 9.78195 54.2252C9.78195 56.5177 11.637 58.3727 13.9295 58.3727C16.222 58.3727 18.077 56.5177 18.077 54.2252C18.077 51.9327 16.222 50.0777 13.9295 50.0777Z" fill="#081017"/>
<path d="M20.0731 55.3802V53.3152C20.0731 51.5652 19.3031 50.0077 18.0956 48.9402C17.4831 48.7127 16.8006 48.5727 16.1006 48.5727C15.7331 48.5727 15.3656 48.6077 15.0156 48.6777C17.6056 49.1852 19.5656 51.4777 19.5656 54.2077C19.5656 56.9377 17.6056 59.2302 15.0156 59.7377C15.3656 59.8077 15.7331 59.8427 16.1006 59.8427C18.8131 59.8427 21.0881 57.9177 21.6306 55.3627H20.0731V55.3802Z" fill="black"/>
<path d="M16.1002 59.9652C15.7327 59.9652 15.3652 59.9302 14.9977 59.8602C14.9452 59.8602 14.9277 59.8077 14.9277 59.7727C14.9277 59.7377 14.9627 59.6852 14.9977 59.6852C17.5877 59.1777 19.4777 56.8852 19.4777 54.2427C19.4777 51.6002 17.5877 49.3077 14.9977 48.8002C14.9452 48.8002 14.9277 48.7477 14.9277 48.7127C14.9277 48.6777 14.9627 48.6252 14.9977 48.6252C16.0477 48.4152 17.1327 48.5202 18.1302 48.8877C18.1302 48.8877 18.1477 48.8877 18.1652 48.9052C19.4427 50.0252 20.1777 51.6527 20.1777 53.3502V55.3102H21.6302C21.6302 55.3102 21.6827 55.3102 21.7002 55.3452C21.7177 55.3627 21.7177 55.3977 21.7177 55.4327C21.1577 58.0752 18.7952 59.9827 16.1002 59.9827V59.9652ZM15.5227 59.7377C15.7152 59.7552 15.9077 59.7727 16.1002 59.7727C18.6727 59.7727 20.9302 57.9702 21.5077 55.4852H20.0727C20.0727 55.4852 19.9677 55.4502 19.9677 55.3802V53.3152C19.9677 51.6702 19.2677 50.1127 18.0427 49.0277C17.2377 48.7302 16.3802 48.6077 15.5227 48.7127C17.9552 49.4127 19.6702 51.6527 19.6702 54.2252C19.6702 56.7977 17.9552 59.0377 15.5227 59.7377Z" fill="#081017"/>
<path d="M49.6661 54.2252C49.6661 51.3552 51.8186 48.9752 54.6011 48.6252C54.3736 48.5902 54.1461 48.5727 53.9011 48.5727C52.5886 48.5727 51.3986 49.0102 50.4361 49.7627C49.6836 50.7427 49.2286 51.9677 49.2286 53.3152V55.3802H48.3711C48.9136 57.9352 51.1711 59.8602 53.9011 59.8602C54.1461 59.8602 54.3736 59.8602 54.6011 59.8077C51.8186 59.4577 49.6661 57.0952 49.6661 54.2077V54.2252Z" fill="black"/>
<path d="M53.9183 59.9652C51.2233 59.9652 48.8608 58.0402 48.3008 55.4152C48.3008 55.3802 48.3008 55.3627 48.3183 55.3277C48.3358 55.3102 48.3708 55.2927 48.3883 55.2927H49.1408V53.3327C49.1408 52.0202 49.5608 50.7777 50.3658 49.7277C51.3808 48.9402 52.6058 48.5202 53.8833 48.5202C54.1108 48.5202 54.3558 48.5202 54.6008 48.5727C54.6533 48.5727 54.6883 48.6252 54.6883 48.6602C54.6883 48.6952 54.6533 48.7477 54.6008 48.7477C51.8358 49.0977 49.7533 51.4602 49.7533 54.2427C49.7533 57.0252 51.8358 59.4052 54.6008 59.7377C54.6533 59.7377 54.6883 59.7902 54.6883 59.8252C54.6883 59.8602 54.6533 59.9127 54.6008 59.9127C54.3558 59.9477 54.1108 59.9652 53.8833 59.9652H53.9183ZM48.5108 55.4852C49.0883 57.9527 51.2933 59.7377 53.8308 59.7727C51.3633 59.1077 49.5783 56.8502 49.5783 54.2252C49.5783 51.6002 51.3633 49.3427 53.8308 48.6777C52.6233 48.6777 51.4683 49.0977 50.5058 49.8327C49.7358 50.8477 49.3333 52.0377 49.3333 53.3152V55.3802C49.3333 55.3802 49.2983 55.4852 49.2283 55.4852H48.4933H48.5108Z" fill="#081017"/>
<path d="M22.0328 52.0552C22.0328 52.0552 21.9978 52.0552 21.9628 52.0377C21.9278 52.0027 21.9103 51.9502 21.9628 51.8977C22.0328 51.8102 23.8003 49.6927 26.1103 49.6927C28.4203 49.6927 44.0478 49.5002 44.2228 49.5002C44.2228 49.5002 44.3103 49.5352 44.3278 49.5877C44.3278 49.6402 44.2928 49.6927 44.2403 49.6927C44.0828 49.6927 28.3853 49.8852 26.1278 49.8852C23.8703 49.8852 22.1553 52.0027 22.1378 52.0202C22.1203 52.0377 22.0853 52.0552 22.0678 52.0552H22.0328Z" fill="#081017"/>
<path d="M21.5248 53.3327C21.5248 53.3327 21.4373 53.2977 21.4198 53.2452L20.9123 44.0927C20.8948 43.7777 20.9123 43.4627 20.9998 43.1477L21.1923 42.3777C21.1923 42.3777 21.2623 42.2902 21.3148 42.3077C21.3673 42.3077 21.4023 42.3777 21.3848 42.4302L21.1923 43.2002C21.1223 43.4977 21.0873 43.7952 21.1048 44.0927L21.6123 53.2452C21.6123 53.2452 21.5773 53.3502 21.5248 53.3502V53.3327Z" fill="#081017"/>
<path d="M25.8823 42.2377C25.8823 42.2377 25.7948 42.2027 25.7773 42.1502C25.7773 42.0977 25.8123 42.0452 25.8648 42.0452L37.7298 41.4677C37.7298 41.4677 37.8348 41.5027 37.8348 41.5552C37.8348 41.6077 37.7998 41.6602 37.7473 41.6602L25.8823 42.2377Z" fill="#081017"/>
<path d="M38.9898 41.6602C38.9898 41.6602 38.9023 41.6252 38.8848 41.5727C38.8848 41.5202 38.9198 41.4677 38.9723 41.4677L50.6623 40.7852L58.3273 39.2802L55.7898 37.3727C55.7898 37.3727 55.2473 37.1802 54.5123 37.0052C54.4598 37.0052 54.4248 36.9352 54.4423 36.8827C54.4423 36.8302 54.5123 36.7952 54.5648 36.8127C55.3873 37.0052 55.8773 37.1802 55.8773 37.1802C55.8773 37.1802 55.8773 37.1802 55.8948 37.1802L58.6073 39.2277C58.6073 39.2277 58.6598 39.2977 58.6423 39.3327C58.6423 39.3677 58.6073 39.4027 58.5723 39.4027L50.6798 40.9427L38.9898 41.6252V41.6602Z" fill="#081017"/>
<path d="M51.9061 36.5677C51.5911 36.5327 51.5736 36.5327 51.3986 36.5152C51.3286 36.5152 51.2411 36.5152 51.0836 36.4977C51.0311 36.4977 50.9961 36.4452 50.9961 36.3927C50.9961 36.3402 51.0486 36.2877 51.1011 36.3052C51.2411 36.3052 51.3461 36.3052 51.4161 36.3052C51.5911 36.3052 51.6261 36.3052 51.9411 36.3577C51.9936 36.3577 52.0286 36.4102 52.0286 36.4627C52.0286 36.5152 51.9761 36.5502 51.9411 36.5502L51.9061 36.5677Z" fill="#081017"/>
<path d="M25.2172 39.7352C25.2172 39.7352 25.1472 39.7352 25.1297 39.6827C25.0947 39.6302 25.1297 39.5777 25.1647 39.5427C25.1997 39.5427 28.0347 37.7927 31.0097 36.7252C32.0597 36.3402 33.1797 36.0777 34.3697 35.9202L37.1347 35.6577C37.1347 35.6577 37.2397 35.6927 37.2397 35.7452C37.2397 35.7977 37.2047 35.8502 37.1522 35.8502L34.3872 36.1127C33.2147 36.2702 32.0947 36.5327 31.0622 36.9177C28.1222 37.9852 25.2872 39.7002 25.2522 39.7177C25.2522 39.7177 25.2172 39.7177 25.1997 39.7177L25.2172 39.7352Z" fill="#081017"/>
<path d="M53.0261 40.0677C53.0261 40.0677 52.9561 40.0502 52.9386 40.0152L50.9961 36.4627C50.9961 36.4627 50.9961 36.3577 51.0311 36.3402C51.0836 36.3227 51.1361 36.3402 51.1536 36.3752L53.0961 39.9277C53.0961 39.9277 53.0961 40.0327 53.0611 40.0502C53.0611 40.0502 53.0261 40.0502 53.0086 40.0502L53.0261 40.0677Z" fill="#081017"/>
<path d="M54.0923 45.7027C54.0923 45.7027 54.0748 45.7027 54.0573 45.7027C54.0048 45.6852 53.9873 45.6327 54.0048 45.5802C54.0048 45.5627 54.8973 43.3752 55.0723 42.6752C55.2123 42.1502 54.0923 41.2927 53.6548 40.9952C53.6023 40.9602 53.6023 40.9077 53.6198 40.8552C53.6548 40.8027 53.7073 40.8027 53.7598 40.8202C53.9348 40.9252 55.4398 41.9402 55.2473 42.7102C55.0723 43.4277 54.2148 45.5452 54.1798 45.6327C54.1798 45.6677 54.1273 45.6852 54.0923 45.6852V45.7027Z" fill="#081017"/>
<path d="M8.54055 44.6702C8.54055 44.6702 8.45305 44.6352 8.43555 44.5827C8.43555 44.5302 8.47055 44.4777 8.52305 44.4777C8.62805 44.4777 18.393 43.7602 22.9955 43.4452C27.6155 43.1302 41.493 42.9552 41.633 42.9552C41.633 42.9552 41.7205 42.9902 41.738 43.0427C41.738 43.0952 41.703 43.1477 41.6505 43.1477C41.5105 43.1477 27.633 43.3227 23.0305 43.6377C18.4105 43.9527 8.64555 44.6527 8.55805 44.6702H8.54055Z" fill="#081017"/>
<path d="M44.5386 43.0427C44.5386 43.0427 44.4336 43.0077 44.4336 42.9377C44.4336 42.8677 44.4686 42.8327 44.5386 42.8327H49.0711L54.2511 42.3077C54.2511 42.3077 54.3561 42.3427 54.3561 42.3952C54.3561 42.4477 54.3211 42.5002 54.2686 42.5002L49.0886 43.0427H44.5561H44.5386Z" fill="#081017"/>
<path d="M4.67258 46.6127C4.67258 46.6127 4.60258 46.5952 4.58508 46.5427C4.58508 46.5077 4.58508 46.4552 4.62008 46.4202L4.77758 46.3152L1.82008 46.5952C1.82008 46.5952 1.80258 46.5952 1.78508 46.5952L1.40008 46.5252C1.40008 46.5252 1.33008 46.4902 1.33008 46.4552C1.33008 46.4202 1.33008 46.3852 1.36508 46.3502C2.17008 45.7202 3.06258 45.2127 4.00758 44.8452L4.18258 44.7752C4.18258 44.7752 4.20008 44.7752 4.21758 44.7752L8.20758 44.5477C8.20758 44.5477 8.29508 44.5652 8.31258 44.6177C8.31258 44.6527 8.31258 44.7052 8.27758 44.7227L5.89758 46.4377C5.89758 46.4377 5.86258 46.4377 5.84508 46.4377L4.70758 46.5777L4.67258 46.6127ZM1.66258 46.3852L1.82008 46.4202L5.14508 46.1052C5.14508 46.1052 5.23258 46.1227 5.25008 46.1752C5.25008 46.2102 5.25008 46.2627 5.21508 46.2802L5.07508 46.3677L5.79258 46.2802L7.89258 44.7752L4.23508 44.9852L4.07758 45.0552C3.22008 45.3877 2.41508 45.8427 1.66258 46.4027V46.3852Z" fill="#081017"/>
<path d="M4.55039 52.8777H1.41789C1.41789 52.8777 1.31289 52.8427 1.31289 52.7727C1.31289 52.7027 1.34789 52.6677 1.41789 52.6677H4.49789L5.11039 51.9852L3.74539 47.9602L1.06789 48.1002C1.06789 48.1002 0.980391 48.0652 0.962891 48.0127C0.962891 47.9602 0.997891 47.9077 1.05039 47.9077L3.81539 47.7677C3.81539 47.7677 3.90289 47.7852 3.92039 47.8377L5.33789 51.9852C5.33789 51.9852 5.33789 52.0552 5.32039 52.0727L4.63789 52.8252C4.63789 52.8252 4.58539 52.8602 4.56789 52.8602L4.55039 52.8777Z" fill="#081017"/>
<path d="M4.27047 49.7977H2.39797C2.39797 49.7977 2.29297 49.7627 2.29297 49.6927V49.2902C2.29297 49.2902 2.32797 49.1852 2.39797 49.1852C2.46797 49.1852 2.50297 49.2202 2.50297 49.2902V49.5877H4.27047C4.27047 49.5877 4.37547 49.6227 4.37547 49.6927C4.37547 49.7627 4.34047 49.7977 4.27047 49.7977Z" fill="#081017"/>
<path d="M4.74297 50.6727H2.83547C2.83547 50.6727 2.73047 50.6377 2.73047 50.5677V50.2352C2.73047 50.2352 2.76547 50.1302 2.83547 50.1302C2.90547 50.1302 2.94047 50.1652 2.94047 50.2352V50.4802H4.76047C4.76047 50.4802 4.86547 50.5152 4.86547 50.5852C4.86547 50.6552 4.83047 50.6902 4.76047 50.6902L4.74297 50.6727Z" fill="#081017"/>
<path d="M24.9201 42.3077H20.6851C20.6851 42.3077 20.5801 42.2727 20.5801 42.2027C20.5801 42.1327 20.6151 42.0977 20.6851 42.0977H24.8326V42.0627H23.7651C23.3101 42.0627 22.9426 41.6952 22.9426 41.2402C22.9426 40.7852 23.2226 40.3302 23.6601 40.1377L24.1851 39.9102C24.7276 39.6652 25.3401 39.6302 25.9176 39.8052C26.3376 39.9277 26.6176 40.3127 26.6176 40.7502V41.0652C26.6176 41.5377 26.2326 41.9227 25.7601 41.9227C25.7076 41.9227 25.6551 41.8877 25.6551 41.8177C25.6551 41.7477 25.6901 41.7127 25.7601 41.7127C26.1276 41.7127 26.4251 41.4152 26.4251 41.0477V40.7327C26.4251 40.3827 26.1976 40.0677 25.8651 39.9627C25.3401 39.8052 24.7801 39.8227 24.2726 40.0502L23.7476 40.2777C23.3801 40.4352 23.1351 40.8027 23.1351 41.2052C23.1351 41.5552 23.4151 41.8352 23.7651 41.8352H24.9376C24.9376 41.8352 25.0426 41.8702 25.0426 41.9402V42.1677C25.0426 42.1677 25.0076 42.2727 24.9376 42.2727L24.9201 42.3077Z" fill="#081017"/>
<path d="M68.7405 44.7402H65.2405C63.998 44.7402 62.7905 44.2327 61.9155 43.3402L61.583 42.9902C61.478 42.8852 61.443 42.7277 61.513 42.6052C61.5655 42.4652 61.7055 42.3777 61.8455 42.3777H65.888C65.888 42.3777 65.958 42.3777 65.9755 42.4127L66.098 42.5877H67.8305C67.8305 42.5877 67.9355 42.6227 67.9355 42.6927C67.9355 42.7627 67.9005 42.7977 67.8305 42.7977H66.0455C66.0455 42.7977 65.9755 42.7977 65.958 42.7627L65.8355 42.5877H61.8455C61.8455 42.5877 61.723 42.6227 61.688 42.6927C61.653 42.7627 61.688 42.8327 61.723 42.8677L62.0555 43.2177C62.8955 44.0752 64.0505 44.5652 65.2405 44.5652H68.7405C68.7405 44.5652 68.8455 44.6002 68.8455 44.6702C68.8455 44.7402 68.8105 44.7752 68.7405 44.7752V44.7402Z" fill="#081017"/>
<path d="M68.5302 44.2852H66.7277C66.7277 44.2852 66.6752 44.2852 66.6577 44.2502L65.4327 42.9552H62.2827C62.2827 42.9552 62.1777 42.9202 62.1777 42.8502C62.1777 42.7802 62.2127 42.7452 62.2827 42.7452H65.4677C65.4677 42.7452 65.5202 42.7452 65.5377 42.7802L66.7627 44.0752H68.5302C68.5302 44.0752 68.6352 44.1102 68.6352 44.1802C68.6352 44.2502 68.6002 44.2852 68.5302 44.2852Z" fill="#081017"/>
<path d="M48.2827 53.9977H47.2852L44.2052 53.3502H23.9227L22.2427 53.8752C22.2427 53.8752 22.2252 53.8752 22.2077 53.8752H21.1927C21.1927 53.8752 21.1402 53.8752 21.1227 53.8402C21.1052 53.8227 21.0877 53.7877 21.0877 53.7702C21.0877 53.7702 21.1052 52.6502 20.4052 50.4277C20.0902 49.3952 18.5327 46.1052 12.0577 46.6652C7.07023 47.1027 6.73773 53.1402 6.73773 53.1927C6.73773 53.2452 6.68523 53.2802 6.63273 53.2802H0.595234C0.595234 53.2802 0.490234 53.2452 0.490234 53.1752V47.1377C0.490234 47.1377 0.490234 47.0852 0.525234 47.0677L0.857734 46.7702C1.78523 45.9477 2.83523 45.3002 3.99023 44.8452L8.43524 43.1127C8.43524 43.1127 8.43523 43.1127 8.45273 43.1127L18.4627 42.0802L28.0352 37.0052C29.0502 36.4627 30.1352 36.0077 31.2377 35.6402C31.8327 35.4477 32.4977 35.2902 33.1977 35.1852L34.5102 34.9752C34.5102 34.9752 34.6152 35.0102 34.6152 35.0627C34.6152 35.1152 34.5802 35.1677 34.5277 35.1677L33.2152 35.3777C32.5327 35.4827 31.8852 35.6402 31.2902 35.8327C30.2052 36.2002 29.1377 36.6552 28.1227 37.1802L18.5327 42.2552C18.5327 42.2552 18.5152 42.2552 18.4977 42.2552L8.48773 43.2877L4.06023 45.0202C2.92273 45.4577 1.89023 46.1052 0.980234 46.9102L0.665234 47.1902V53.0877H6.56273C6.59773 52.7202 6.73773 51.3727 7.35023 49.9902C8.29523 47.8552 9.92273 46.6302 12.0577 46.4552C18.6902 45.8777 20.2827 49.2902 20.6152 50.3577C21.2102 52.2827 21.2977 53.3502 21.2977 53.6652H22.1902L23.8702 53.1402C23.8702 53.1402 23.8877 53.1402 23.9052 53.1402H44.2227L47.3027 53.7877H48.1777C48.1777 53.2452 48.3527 50.5677 50.2252 48.6602C51.5727 47.2777 53.4977 46.5952 55.9302 46.5952C59.9552 46.5952 62.2477 48.6952 62.7552 52.8252H68.1627C68.6877 52.8252 69.1077 52.4052 69.1077 51.8802V44.9502C69.1077 44.7227 69.0377 44.4952 68.8977 44.3202L68.1277 43.3227C68.0227 43.1827 67.9702 42.9902 67.9877 42.8152L68.0402 42.2377C68.0752 41.8352 67.8827 41.4502 67.5327 41.2402L61.7052 37.7752C61.7052 37.7752 61.6527 37.7227 61.6527 37.6877C61.6527 37.6527 61.6877 37.6177 61.7227 37.6002L62.7027 37.3377C62.8602 37.3027 62.9652 37.1627 63.0002 37.0052V36.8827L60.2352 36.5327C60.1827 36.5327 60.1477 36.4802 60.1477 36.4277C60.1477 36.3752 60.2002 36.3402 60.2527 36.3402L63.1402 36.6902C63.1402 36.6902 63.1927 36.6902 63.2102 36.7252C63.2277 36.7602 63.2277 36.7777 63.2277 36.7952L63.1927 37.0227C63.1577 37.2677 62.9827 37.4602 62.7552 37.5127L61.9852 37.7227L67.6202 41.0652C68.0227 41.3102 68.2677 41.7827 68.2152 42.2552L68.1627 42.8327C68.1627 42.9727 68.1802 43.0952 68.2677 43.2002L69.0377 44.1977C69.1952 44.4077 69.3002 44.6877 69.3002 44.9502V51.8802C69.3002 52.5102 68.7927 53.0177 68.1627 53.0177H62.6677C62.6677 53.0177 62.5802 52.9827 62.5802 52.9302C62.1077 48.8002 59.9377 46.7877 55.9477 46.7877C53.5677 46.7877 51.6952 47.4702 50.3827 48.8002C48.3527 50.8652 48.3877 53.8577 48.3877 53.8927C48.3877 53.9102 48.3877 53.9452 48.3527 53.9627C48.3352 53.9802 48.3177 53.9977 48.2827 53.9977Z" fill="#081017"/>
<path d="M55.3179 54.7677C55.6175 54.7677 55.8604 54.5248 55.8604 54.2252C55.8604 53.9256 55.6175 53.6827 55.3179 53.6827C55.0183 53.6827 54.7754 53.9256 54.7754 54.2252C54.7754 54.5248 55.0183 54.7677 55.3179 54.7677Z" fill="black"/>
<path d="M55.3175 54.8552C54.9675 54.8552 54.6875 54.5752 54.6875 54.2252C54.6875 53.8752 54.9675 53.5952 55.3175 53.5952C55.6675 53.5952 55.9475 53.8752 55.9475 54.2252C55.9475 54.5752 55.6675 54.8552 55.3175 54.8552ZM55.3175 53.7877C55.0725 53.7877 54.88 53.9802 54.88 54.2252C54.88 54.4702 55.0725 54.6627 55.3175 54.6627C55.5625 54.6627 55.755 54.4702 55.755 54.2252C55.755 53.9802 55.5625 53.7877 55.3175 53.7877Z" fill="#081017"/>
<path d="M54.6547 50.3927C54.7422 50.2352 54.9172 50.1477 55.0922 50.1477C55.3722 50.1477 55.7747 50.1477 56.0372 50.2177C56.1772 50.2352 56.2647 50.3752 56.2122 50.4977C55.8972 51.5477 55.4772 53.0352 55.4772 53.0352L55.7222 52.8952C55.7222 52.8952 55.7572 52.8602 55.7747 52.8427L56.5447 51.1452C56.6147 51.0052 56.7372 50.8827 56.8772 50.8127C57.1047 50.7077 57.3497 50.7427 57.5422 50.9002L57.9272 51.2152C57.9272 51.2152 58.0147 51.4077 57.9272 51.4602L55.3022 53.4902C55.0397 53.6827 54.6722 53.5252 54.6372 53.2102L54.4447 51.1102C54.4272 50.8652 54.4797 50.6202 54.6022 50.4102L54.6547 50.3927Z" fill="#E6E6E6"/>
<path d="M58.8016 52.4402C58.9766 52.4752 59.1166 52.6152 59.1691 52.7902C59.2391 53.0527 59.3441 53.4377 59.3791 53.7177C59.3966 53.8577 59.2916 53.9802 59.1516 53.9802C58.0666 53.9802 56.5091 54.0152 56.5091 54.0152L56.7191 54.2077C56.7191 54.2077 56.7716 54.2427 56.7891 54.2427L58.6266 54.4877C58.7841 54.5052 58.9416 54.5927 59.0466 54.7152C59.2041 54.9077 59.2391 55.1527 59.1516 55.3802L58.9766 55.8527C58.9416 55.9577 58.8191 55.9927 58.7316 55.9227L56.0191 53.9977C55.7566 53.8052 55.8091 53.4027 56.1066 53.2802L58.0491 52.4927C58.2766 52.4052 58.5216 52.3877 58.7666 52.4402H58.8016Z" fill="#E6E6E6"/>
<path d="M58.0489 57.0077C58.0489 57.1827 57.9789 57.3577 57.8214 57.4627C57.5939 57.6202 57.2614 57.8302 56.9989 57.9352C56.8764 57.9877 56.7364 57.9352 56.6839 57.7952C56.3514 56.7627 55.8789 55.2927 55.8789 55.2927L55.7564 55.5552C55.7564 55.5552 55.7564 55.6077 55.7564 55.6427L56.0539 57.4802C56.0889 57.6377 56.0539 57.8127 55.9664 57.9352C55.8439 58.1452 55.5989 58.2502 55.3539 58.2327L54.8639 58.1977C54.7589 58.1977 54.6889 58.0927 54.7239 57.9877L55.7739 54.8377C55.8789 54.5227 56.2814 54.4527 56.4739 54.7152L57.8039 56.3427C57.9614 56.5352 58.0489 56.7627 58.0664 57.0077H58.0489Z" fill="#E6E6E6"/>
<path d="M53.4641 57.6202C53.2891 57.6902 53.0966 57.6552 52.9566 57.5327C52.7466 57.3577 52.4491 57.0952 52.2566 56.8852C52.1691 56.7802 52.1866 56.6227 52.2916 56.5527C53.1841 55.9402 54.4616 55.0477 54.4616 55.0477L54.1816 55.0127C54.1816 55.0127 54.1291 55.0127 54.0941 55.0127L52.4316 55.8352C52.2916 55.9052 52.1166 55.9227 51.9591 55.8877C51.7316 55.8177 51.5391 55.6252 51.4866 55.3977L51.3816 54.9077C51.3641 54.8027 51.4341 54.7152 51.5391 54.7152L54.8641 54.7852C55.1966 54.7852 55.3716 55.1527 55.1966 55.4327L54.0241 57.1827C53.8841 57.3927 53.6916 57.5327 53.4641 57.6202Z" fill="#E6E6E6"/>
<path d="M51.54 53.4202C51.435 53.2802 51.4 53.0877 51.47 52.9127C51.575 52.6677 51.7325 52.3002 51.89 52.0552C51.96 51.9327 52.1175 51.9152 52.2225 52.0027C53.08 52.6852 54.2875 53.6302 54.2875 53.6302L54.2525 53.3502C54.2525 53.3502 54.2525 53.2977 54.2175 53.2802L52.94 51.9327C52.835 51.8102 52.765 51.6527 52.765 51.4952C52.765 51.2502 52.8875 51.0227 53.0975 50.9002L53.535 50.6552C53.6225 50.6027 53.745 50.6552 53.7625 50.7427L54.655 53.9452C54.7425 54.2602 54.445 54.5402 54.1475 54.4527L52.135 53.8402C51.9075 53.7702 51.6975 53.6302 51.54 53.4377V53.4202Z" fill="#E6E6E6"/>
<path d="M55.3186 48.5902C52.2036 48.5902 49.6836 51.1102 49.6836 54.2252C49.6836 57.3402 52.2036 59.8602 55.3186 59.8602C58.4336 59.8602 60.9536 57.3402 60.9536 54.2252C60.9536 51.1102 58.4336 48.5902 55.3186 48.5902ZM55.3186 58.4602C52.9736 58.4602 51.0836 56.5702 51.0836 54.2252C51.0836 51.8802 52.9736 49.9902 55.3186 49.9902C57.6636 49.9902 59.5536 51.8802 59.5536 54.2252C59.5536 56.5702 57.6636 58.4602 55.3186 58.4602Z" fill="#E10098"/>
<path d="M55.3181 59.9652C52.1506 59.9652 49.5781 57.3927 49.5781 54.2252C49.5781 51.0577 52.1506 48.4852 55.3181 48.4852C58.4856 48.4852 61.0581 51.0577 61.0581 54.2252C61.0581 57.3927 58.4856 59.9652 55.3181 59.9652ZM55.3181 48.6777C52.2556 48.6777 49.7706 51.1627 49.7706 54.2252C49.7706 57.2877 52.2556 59.7727 55.3181 59.7727C58.3806 59.7727 60.8656 57.2877 60.8656 54.2252C60.8656 51.1627 58.3806 48.6777 55.3181 48.6777ZM55.3181 58.5652C52.9206 58.5652 50.9781 56.6227 50.9781 54.2252C50.9781 51.8277 52.9206 49.8852 55.3181 49.8852C57.7156 49.8852 59.6581 51.8277 59.6581 54.2252C59.6581 56.6227 57.7156 58.5652 55.3181 58.5652ZM55.3181 50.0777C53.0256 50.0777 51.1706 51.9327 51.1706 54.2252C51.1706 56.5177 53.0256 58.3727 55.3181 58.3727C57.6106 58.3727 59.4656 56.5177 59.4656 54.2252C59.4656 51.9327 57.6106 50.0777 55.3181 50.0777Z" fill="#081017"/>
<path d="M43.8367 36.2877C42.9967 36.2877 41.7542 36.2177 40.6517 35.8852C39.7942 35.6402 39.0242 35.1152 38.4117 34.3802C37.5367 33.3477 37.0642 32.6477 37.0117 32.3152C37.0117 32.2627 37.0467 32.2102 37.0992 32.2102C37.1517 32.2102 37.2042 32.2452 37.2042 32.2977C37.2567 32.5777 37.7292 33.2777 38.5517 34.2577C39.1467 34.9577 39.8817 35.4477 40.7042 35.6927C42.5242 36.2352 44.7467 36.0427 44.7817 36.0427C44.8342 36.0427 44.8867 36.0777 44.8867 36.1302C44.8867 36.1827 44.8517 36.2352 44.7992 36.2352C44.7992 36.2352 44.4142 36.2702 43.8542 36.2702L43.8367 36.2877Z" fill="#081017"/>
<path d="M46.7417 37.4777C46.7417 37.4777 46.6542 37.4427 46.6367 37.3902C46.6367 37.3377 46.6717 37.2852 46.7242 37.2852C47.1792 37.2677 47.4942 37.1277 47.6517 36.9002C47.8617 36.6027 47.7742 36.2352 47.7742 36.2352C47.7742 36.1827 47.7917 36.1302 47.8442 36.1127C47.8967 36.1127 47.9492 36.1127 47.9667 36.1827C47.9667 36.2002 48.0892 36.6377 47.8092 37.0052C47.5992 37.2852 47.2317 37.4427 46.7242 37.4777H46.7417Z" fill="#081017"/>
<path d="M44.6959 41.3277C44.6959 41.3277 44.6259 41.3102 44.6084 41.2752C44.5909 41.2227 44.6084 41.1702 44.6434 41.1352C44.6434 41.1352 45.7284 40.5227 45.6234 39.5602C45.5184 38.5977 44.9409 38.2302 44.9409 38.2302C44.8884 38.1952 44.8884 38.1427 44.9059 38.0902C44.9409 38.0377 44.9934 38.0377 45.0459 38.0552C45.0809 38.0552 45.7109 38.4577 45.8334 39.5252C45.9559 40.6102 44.8184 41.2577 44.7659 41.2927C44.7659 41.2927 44.7309 41.2927 44.7134 41.2927L44.6959 41.3277Z" fill="#081017"/>
<path d="M51.8184 40.6277C51.8184 40.6277 51.7309 40.5927 51.7309 40.5577C51.1884 37.7227 48.7034 36.4452 48.6684 36.4277C48.6159 36.4102 48.5984 36.3402 48.6334 36.3052C48.6684 36.2702 48.7209 36.2352 48.7559 36.2702C48.7734 36.2702 51.3459 37.6177 51.9059 40.5402C51.9059 40.5927 51.8884 40.6452 51.8359 40.6452C51.8359 40.6452 51.8359 40.6452 51.8184 40.6452V40.6277Z" fill="#081017"/>
<path d="M50.2258 37.6177C50.2258 37.6177 50.1908 37.6177 50.1733 37.6177C50.1383 37.5827 50.1208 37.5302 50.1558 37.4777C50.1558 37.4602 50.5233 36.9527 51.2758 36.7427C51.3283 36.7427 51.3808 36.7427 51.3983 36.8127C51.3983 36.8652 51.3983 36.9177 51.3283 36.9352C50.6283 37.1277 50.3133 37.6002 50.3133 37.6002C50.2958 37.6352 50.2608 37.6352 50.2258 37.6352V37.6177Z" fill="#081017"/>
<path d="M43.6108 38.6852C43.1033 38.6852 42.8233 38.6327 42.7883 38.6327C42.7533 38.6327 42.7358 38.5977 42.7183 38.5802C42.7183 38.5452 42.7183 38.5102 42.7183 38.4927C43.1908 37.7052 42.3858 36.1827 42.3858 36.1827C42.3683 36.1302 42.3858 36.0777 42.4208 36.0602C42.4733 36.0427 42.5258 36.0602 42.5433 36.0952C42.5783 36.1652 43.3133 37.5827 42.9458 38.4752C43.2433 38.5102 44.0483 38.5627 45.2558 38.3527C45.3083 38.3527 45.3608 38.3877 45.3608 38.4227C45.3608 38.4752 45.3433 38.5277 45.2733 38.5277C44.5733 38.6502 44.0133 38.6852 43.5933 38.6852H43.6108Z" fill="#081017"/>
<path d="M42.4892 38.2477C39.4617 37.8802 37.7292 36.0427 36.8192 34.5552C36.7842 34.5027 36.8192 34.4502 36.8542 34.4152C36.9067 34.3802 36.9592 34.4152 36.9942 34.4502C37.8867 35.9027 39.5842 37.6877 42.5242 38.0552C42.5767 38.0552 42.6117 38.1077 42.6117 38.1602C42.6117 38.2127 42.5592 38.2477 42.5242 38.2477H42.4892Z" fill="#081017"/>
<path d="M46.9893 33.5227L46.8493 33.4702C46.7093 33.4177 46.5518 33.4177 46.4118 33.4702L45.7818 33.7677C45.5893 33.8552 45.4668 34.0477 45.4668 34.2577V34.2927C45.4668 34.4327 45.5193 34.5552 45.6068 34.6602L45.6768 34.7477C45.8343 34.9052 46.0618 34.9577 46.2718 34.8702L46.9368 34.6077C47.0768 34.5552 47.1818 34.4502 47.2343 34.3102L47.2693 34.2227C47.3393 34.0652 47.3218 33.8902 47.2343 33.7502C47.1818 33.6452 47.0943 33.5752 46.9718 33.5227H46.9893Z" fill="#E10098"/>
<path d="M45.4659 34.3452H44.9059C44.9059 34.3452 44.8184 34.2927 44.8184 34.2402C44.8184 34.1877 44.8709 34.1527 44.9234 34.1527H45.4834C45.4834 34.1527 45.5709 34.2052 45.5709 34.2577C45.5709 34.3102 45.5184 34.3452 45.4659 34.3452Z" fill="#081017"/>
<path d="M47.234 33.9077C47.234 33.9077 47.1815 33.9077 47.164 33.8902C47.129 33.8552 47.1115 33.8027 47.164 33.7502C47.444 33.4352 47.6715 33.4877 47.7065 33.4877C47.759 33.4877 47.794 33.5577 47.7765 33.6102C47.7765 33.6627 47.7065 33.6977 47.654 33.6802C47.654 33.6802 47.4965 33.6627 47.304 33.8727C47.2865 33.8902 47.2515 33.9077 47.234 33.9077Z" fill="#081017"/>
<path d="M47.8624 32.9102C47.7399 33.0152 47.6699 33.1552 47.6699 33.3302V33.3652C47.6699 33.5052 47.7224 33.6277 47.8099 33.7327L47.8799 33.8202C48.0374 33.9777 48.2649 34.0302 48.4749 33.9427L49.1399 33.6802C49.2799 33.6277 49.3849 33.5227 49.4374 33.3827L49.4724 33.2952C49.5424 33.1377 49.5249 32.9627 49.4374 32.8227C49.3849 32.7177 49.2974 32.6477 49.1749 32.5952L49.0349 32.5427C48.8949 32.4902 48.7374 32.4902 48.5974 32.5427L47.9674 32.8402C47.9674 32.8402 47.8974 32.8752 47.8624 32.9102Z" fill="#E10098"/>
<path d="M47.2155 36.0252C46.253 36.0252 46.0605 35.2202 46.0605 35.2202C46.0605 35.2027 46.0605 35.1677 46.0605 35.1502C46.0605 35.1327 46.0955 35.1152 46.1305 35.1152L47.4431 34.8702C47.4431 34.8702 47.548 34.8877 47.548 34.9402C47.548 34.9927 47.5305 35.0452 47.478 35.0452L46.288 35.2552C46.3755 35.4477 46.6205 35.8152 47.2505 35.8152C47.2505 35.8152 47.338 35.8502 47.3555 35.9027C47.3555 35.9552 47.3205 36.0077 47.268 36.0077C47.268 36.0077 47.268 36.0077 47.2505 36.0077L47.2155 36.0252Z" fill="#081017"/>
<path d="M44.7831 35.2552C44.2931 35.2552 43.8906 34.8527 43.8906 34.3627C43.8906 33.8727 44.2931 33.4702 44.7831 33.4702H45.2381L45.3256 33.2952C45.3256 33.2952 45.3781 33.2427 45.4131 33.2427H46.0781C46.9356 33.2427 47.6531 32.5427 47.6531 31.6677C47.6531 31.6152 47.6881 31.5627 47.7581 31.5627C47.8281 31.5627 47.8631 31.5977 47.8631 31.6677C47.8631 32.6477 47.0756 33.4352 46.0956 33.4352H45.4831L45.3956 33.6102C45.3956 33.6102 45.3431 33.6627 45.3081 33.6627H44.7831C44.3981 33.6627 44.0831 33.9777 44.0831 34.3627C44.0831 34.7477 44.3981 35.0627 44.7831 35.0627C44.8356 35.0627 44.8881 35.0977 44.8881 35.1677C44.8881 35.2377 44.8531 35.2727 44.7831 35.2727V35.2552Z" fill="#081017"/>
<path d="M59.1159 36.8302H53.1309C52.6759 36.8302 52.2909 36.4627 52.2909 35.9902C52.2909 35.5877 51.9584 35.2727 51.5734 35.2727H48.5284C48.5284 35.2727 48.4234 35.2377 48.4234 35.1677C48.4234 35.0977 48.4584 35.0627 48.5284 35.0627H51.5734C52.0809 35.0627 52.4834 35.4652 52.4834 35.9727C52.4834 36.3227 52.7809 36.6202 53.1309 36.6202H59.1159C59.7284 36.6202 60.2184 36.1302 60.2184 35.5177C60.2184 34.9052 59.7284 34.4152 59.1159 34.4152H56.2984C55.8259 34.4152 55.4234 34.0302 55.4234 33.5402C55.4234 32.9977 54.9684 32.5427 54.4259 32.5427H51.4159C50.4009 32.5427 49.4034 32.1927 48.6159 31.5277C48.6159 31.5277 48.6159 31.5277 48.6159 31.5102C48.1609 30.8627 47.4084 30.4777 46.6034 30.4777H46.4809C44.9409 30.4777 43.6984 31.7377 43.6984 33.2602V33.9077C43.6984 34.8352 44.4509 35.6052 45.3959 35.6052C45.4484 35.6052 45.5009 35.6402 45.5009 35.7102C45.5009 35.7802 45.4659 35.8152 45.3959 35.8152C44.3634 35.8152 43.5059 34.9752 43.5059 33.9252V33.2777C43.5059 31.6327 44.8534 30.2852 46.4984 30.2852H46.6209C47.4784 30.2852 48.2834 30.7052 48.7734 31.3877C49.5259 32.0002 50.4709 32.3502 51.4334 32.3502H54.4434C55.1084 32.3502 55.6334 32.8927 55.6334 33.5402C55.6334 33.9077 55.9309 34.2227 56.3159 34.2227H59.1334C59.8509 34.2227 60.4284 34.8002 60.4284 35.5177C60.4284 36.2352 59.8509 36.8127 59.1334 36.8127L59.1159 36.8302Z" fill="#F61BA3"/>
<path d="M37.1177 32.4202C37.0652 32.4202 37.0302 32.3677 37.0302 32.3152L37.1702 30.4952C37.1702 30.4952 37.1352 30.4077 37.0652 30.3902C37.0302 30.3902 37.0127 30.3902 36.9777 30.4077C36.9602 30.4252 36.9427 30.4602 36.9427 30.4777L36.9077 30.8452C36.9077 30.9852 36.7852 31.1077 36.6452 31.1427C36.5752 31.1602 36.5227 31.2127 36.5052 31.2827L36.4002 31.7377C36.4002 31.7377 36.3302 31.8252 36.2777 31.8077C36.2252 31.8077 36.1902 31.7377 36.2077 31.6852L36.3127 31.2302C36.3477 31.0902 36.4527 30.9852 36.5927 30.9502C36.6452 30.9502 36.6977 30.8802 36.6977 30.8277L36.7327 30.4602C36.7327 30.4602 36.7852 30.3027 36.8377 30.2502C36.9077 30.1977 36.9777 30.1802 37.0652 30.1802C37.2227 30.1977 37.3277 30.3202 37.3277 30.4777L37.1877 32.3152C37.1877 32.3152 37.1352 32.4027 37.0827 32.4027L37.1177 32.4202Z" fill="#081017"/>
<path d="M36.5569 31.1602C36.5569 31.1602 36.4694 31.1252 36.4694 31.0902L36.0144 29.5327C36.0144 29.5327 35.9094 29.4277 35.8394 29.4452C35.7694 29.4627 35.7169 29.5502 35.7344 29.6202L36.0319 30.8977C36.0319 30.8977 36.0144 31.0027 35.9619 31.0202C35.9094 31.0202 35.8569 31.0027 35.8394 30.9502L35.5419 29.6727C35.5069 29.4977 35.6119 29.3227 35.7869 29.2702C35.9619 29.2177 36.1369 29.3227 36.1894 29.4802L36.6444 31.0377C36.6444 31.0377 36.6444 31.1427 36.5744 31.1602C36.5744 31.1602 36.5569 31.1602 36.5394 31.1602H36.5569Z" fill="#081017"/>
<path d="M35.5066 31.2827C35.5066 31.2827 35.4366 31.2652 35.4191 31.2127L34.9116 29.7952C34.8416 29.6202 34.9116 29.4277 35.0866 29.3577C35.1741 29.3227 35.2616 29.3227 35.3491 29.3577C35.4366 29.3927 35.5066 29.4627 35.5416 29.5502L35.9791 30.7227C35.9791 30.7227 35.9791 30.8277 35.9266 30.8452C35.8741 30.8627 35.8216 30.8452 35.8041 30.7927L35.3666 29.6202C35.3666 29.6202 35.3316 29.5502 35.2791 29.5502C35.2441 29.5502 35.1916 29.5502 35.1566 29.5502C35.0866 29.5852 35.0516 29.6727 35.0866 29.7427L35.5941 31.1602C35.5941 31.1602 35.5941 31.2652 35.5416 31.2827C35.5416 31.2827 35.5241 31.2827 35.5066 31.2827Z" fill="#081017"/>
<path d="M35.2442 31.7377C35.2442 31.7377 35.1742 31.7202 35.1567 31.6852L34.6142 30.4602C34.6142 30.4602 34.5792 30.3027 34.5967 30.2327C34.6142 30.1627 34.6667 30.0927 34.7542 30.0577C34.8942 29.9877 35.0692 30.0402 35.1567 30.1802L35.6117 31.1602C35.6117 31.1602 35.6117 31.2652 35.5592 31.2827C35.5067 31.3002 35.4542 31.2827 35.4367 31.2302L34.9992 30.2677C34.9992 30.2677 34.9117 30.2152 34.8592 30.2327C34.8242 30.2327 34.8067 30.2677 34.8067 30.3027C34.8067 30.3377 34.8067 30.3552 34.8067 30.3902L35.3492 31.6327C35.3492 31.6327 35.3492 31.7377 35.2967 31.7552C35.2967 31.7552 35.2792 31.7552 35.2617 31.7552L35.2442 31.7377Z" fill="#081017"/>
<path d="M36.89 34.5902C36.89 34.5902 36.82 34.5902 36.8025 34.5377L35.8925 33.1202C35.8925 33.1202 35.735 32.9977 35.6125 32.8927C35.315 32.6477 35.07 32.3327 34.9125 31.9827L34.545 31.1602C34.475 31.0377 34.5275 30.8627 34.65 30.7927C34.685 30.7752 34.72 30.7752 34.755 30.7927C34.86 30.8277 34.965 30.9677 35.14 31.2827L35.245 31.4927C35.245 31.4927 35.245 31.5977 35.21 31.6152C35.1575 31.6327 35.105 31.6152 35.0875 31.5802L34.9825 31.3702C34.8425 31.1077 34.7725 31.0202 34.7375 30.9852C34.72 31.0202 34.7025 31.0552 34.7375 31.0902L35.105 31.9127C35.245 32.2452 35.4725 32.5252 35.7525 32.7527C35.91 32.8752 36.05 32.9977 36.05 32.9977C36.05 32.9977 36.05 32.9977 36.0675 33.0152L36.9775 34.4502C36.9775 34.4502 36.9775 34.5552 36.9425 34.5902C36.9425 34.5902 36.9075 34.5902 36.89 34.5902Z" fill="#081017"/>
<path d="M46.7602 36.5852C45.6052 36.5852 44.6602 35.6402 44.6602 34.4852C44.6602 34.4327 44.6952 34.3802 44.7652 34.3802C44.8352 34.3802 44.8702 34.4152 44.8702 34.4852C44.8702 35.5352 45.7277 36.3927 46.7777 36.3927C47.8277 36.3927 48.6852 35.5352 48.6852 34.4852C48.6852 34.3277 48.6677 34.1527 48.6327 34.0127C48.6327 33.9602 48.6502 33.9077 48.7027 33.8902C48.7552 33.8902 48.8077 33.9077 48.8252 33.9602C48.8777 34.1352 48.8952 34.3102 48.8952 34.4852C48.8952 35.6402 47.9502 36.5852 46.7952 36.5852H46.7602Z" fill="#081017"/>
<path d="M37.7832 32.4202C37.7832 32.4202 39.4982 35.6927 42.6657 35.4652H42.9632C42.9632 35.4652 42.7707 33.4527 42.9807 32.5777L41.9657 31.1077L39.2182 31.2477L37.7832 32.4202Z" fill="#E6E6E6"/>
<path d="M42.3506 35.5177C39.3931 35.5177 37.7656 32.4727 37.7656 32.4377V32.4027L39.2181 31.2127L42.0006 31.0727L43.0156 32.5602C42.7881 33.4352 42.9981 35.4302 42.9981 35.4477V35.5002H42.6656C42.5606 35.5002 42.4556 35.5002 42.3506 35.5002V35.5177ZM37.8356 32.4377C38.0106 32.7527 39.5856 35.4477 42.3506 35.4477C42.4556 35.4477 42.5606 35.4477 42.6656 35.4477H42.9281C42.8931 35.1502 42.7531 33.4352 42.9456 32.6127L41.9656 31.1777L39.2531 31.3177L37.8531 32.4552L37.8356 32.4377Z" fill="#E6E6E6"/>
</svg>
