<svg width="18" height="18" viewBox="0 0 18 18" fill="none" xmlns="http://www.w3.org/2000/svg">
<g clip-path="url(#clip0_344_29147)">
<path d="M13.2119 12.2158C12.9653 12.2152 12.7241 12.2874 12.5187 12.4234C12.3133 12.5594 12.1531 12.753 12.0582 12.9797C11.9634 13.2064 11.9382 13.4561 11.9859 13.6971C12.0337 13.9381 12.1521 14.1595 12.3262 14.3334C12.5004 14.5073 12.7224 14.6259 12.9643 14.674C13.2061 14.7222 13.4568 14.6978 13.6847 14.604C13.9126 14.5101 14.1075 14.351 14.2446 14.1469C14.3816 13.9427 14.4548 13.7026 14.4548 13.457C14.4539 13.1286 14.3228 12.814 14.09 12.5815C13.8572 12.349 13.5416 12.2176 13.2119 12.2158Z" fill="#E10098"/>
<path d="M15.9576 5.74447H13.292C13.4544 5.46682 13.6002 5.17982 13.7285 4.88496C13.8919 4.55947 13.9828 4.20265 13.9948 3.83893C14.0069 3.47521 13.9399 3.11319 13.7985 2.77766C13.4329 2.07182 12.8234 1.5214 12.0824 1.22788C11.9246 0.862869 11.6628 0.55197 11.3293 0.333714C10.9959 0.115458 10.6055 -0.000568518 10.2065 2.0946e-06H7.75736C7.35881 -0.000347103 6.96892 0.11581 6.63604 0.334078C6.30315 0.552347 6.04192 0.863132 5.88472 1.22788C5.14373 1.5214 4.53427 2.07182 4.16869 2.77766C4.02721 3.11319 3.96022 3.47521 3.9723 3.83893C3.98438 4.20265 4.07524 4.55947 4.23866 4.88496C4.36695 5.17982 4.51271 5.46682 4.67516 5.74447H2.02948C1.48833 5.74535 0.96965 5.96007 0.587313 6.34148C0.204976 6.72289 -0.00976635 7.23981 -0.00976562 7.77876V10.2179C-0.00976562 10.7566 0.205084 11.2732 0.587517 11.654C0.969949 12.0349 1.48864 12.2489 2.02948 12.2489H5.71811V15.9657C5.71811 16.5044 5.93296 17.0209 6.3154 17.4018C6.69783 17.7827 7.21652 17.9967 7.75736 17.9967H10.2065C10.4745 17.9971 10.7401 17.9449 10.9879 17.843C11.2357 17.7412 11.4609 17.5916 11.6506 17.403C11.8403 17.2144 11.9908 16.9903 12.0935 16.7437C12.1962 16.4971 12.249 16.2327 12.249 15.9657V15.1394C12.0146 15.0067 11.8103 14.827 11.6491 14.6116C11.4879 14.3963 11.3734 14.15 11.3127 13.8883H11.2927L10.5996 13.9049H10.6096C8.79031 13.8816 8.54706 12.7235 8.54706 11.5819V9.15597H8.44377C6.30456 9.15597 4.90508 6.00996 4.84177 5.86726C4.82245 5.82197 4.81117 5.77369 4.80845 5.72456H5.72811C5.46238 5.35086 5.23889 4.9491 5.06169 4.52656C4.94817 4.31127 4.88256 4.07414 4.86934 3.83133C4.85611 3.58852 4.89558 3.34572 4.98505 3.11947C5.15371 2.77279 5.41849 2.48145 5.7481 2.27987V5.73119H5.73143C6.1846 6.64049 7.34417 8.30642 8.63702 8.28983H9.41341C10.7096 8.28983 11.8458 6.63053 12.2957 5.73452H12.2757V2.28319C12.6028 2.48624 12.867 2.77575 13.0387 3.11947C13.1297 3.35076 13.1682 3.59921 13.1515 3.84705C13.1348 4.09489 13.0633 4.33599 12.9421 4.5531C12.7649 4.97564 12.5414 5.37741 12.2757 5.7511H13.1953C13.1926 5.80023 13.1813 5.84853 13.162 5.89381C13.0987 6.03651 11.6992 9.18253 9.56002 9.18253C9.50454 9.18584 9.4489 9.18584 9.39342 9.18253V11.6117C9.39342 12.7467 9.63999 13.0487 10.5963 13.0586H11.2827H11.3194C11.3989 12.7038 11.5776 12.3786 11.8348 12.1205C12.0919 11.8625 12.4171 11.6821 12.7728 11.6002C13.1285 11.5183 13.5002 11.5383 13.845 11.6577C14.1898 11.7772 14.4936 11.9914 14.7214 12.2754H15.9576C16.4988 12.2754 17.0178 12.0616 17.4008 11.6808C17.7838 11.3 17.9993 10.7834 18.0002 10.2445V7.80531C18.0033 7.53606 17.9528 7.26886 17.8515 7.01918C17.7503 6.7695 17.6004 6.54228 17.4105 6.35064C17.2205 6.15901 16.9944 6.00677 16.745 5.90272C16.4956 5.79868 16.228 5.74489 15.9576 5.74447Z" fill="#E10098"/>
</g>
<defs>
<clipPath id="clip0_344_29147">
<rect width="18" height="18" fill="white"/>
</clipPath>
</defs>
</svg>
