<svg width="47" height="53" viewBox="0 0 47 53" fill="none" xmlns="http://www.w3.org/2000/svg">
<g style="mix-blend-mode:multiply" opacity="0.5">
<path d="M45.3425 8.29651H17.9375V47.896H45.3425V8.29651Z" fill="#E6E6E6"/>
</g>
<path d="M38.9614 36.5859H24.3164V37.6299H38.9614V36.5859Z" fill="white"/>
<path d="M31.6404 12.255C34.8677 12.255 37.4839 9.63877 37.4839 6.41149C37.4839 3.18422 34.8677 0.567993 31.6404 0.567993C28.4131 0.567993 25.7969 3.18422 25.7969 6.41149C25.7969 9.63877 28.4131 12.255 31.6404 12.255Z" fill="white"/>
<path d="M35.6992 17.7069H27.5938V19.6064H35.6992V17.7069Z" fill="white"/>
<path d="M33.9018 17.7069H29.3633V19.6064H33.9018V17.7069Z" fill="white"/>
<path d="M33.9018 21.2885H29.3633V23.188H33.9018V21.2885Z" fill="white"/>
<path d="M33.9018 24.8844H29.3633V26.7839H33.9018V24.8844Z" fill="white"/>
<path d="M33.9018 28.4659H29.3633V30.3654H33.9018V28.4659Z" fill="white"/>
<path d="M33.9018 32.0619H29.3633V33.9614H33.9018V32.0619Z" fill="white"/>
<path d="M39.2667 17.7069H37.3672V19.6064H39.2667V17.7069Z" fill="white"/>
<path d="M42.7745 17.7069H40.875V19.6064H42.7745V17.7069Z" fill="white"/>
<path d="M22.3878 17.7069H20.4883V19.6064H22.3878V17.7069Z" fill="white"/>
<path d="M25.8956 17.7069H23.9961V19.6064H25.8956V17.7069Z" fill="white"/>
<path d="M35.6992 21.2885H27.5938V23.188H35.6992V21.2885Z" fill="white"/>
<path d="M39.2667 21.2885H37.3672V23.188H39.2667V21.2885Z" fill="white"/>
<path d="M42.7745 21.2885H40.875V23.188H42.7745V21.2885Z" fill="white"/>
<path d="M22.3878 21.2885H20.4883V23.188H22.3878V21.2885Z" fill="white"/>
<path d="M25.8956 21.2885H23.9961V23.188H25.8956V21.2885Z" fill="white"/>
<path d="M35.6992 24.8844H27.5938V26.7839H35.6992V24.8844Z" fill="white"/>
<path d="M39.2667 24.8844H37.3672V26.7839H39.2667V24.8844Z" fill="white"/>
<path d="M42.7745 24.8844H40.875V26.7839H42.7745V24.8844Z" fill="white"/>
<path d="M22.3878 24.8844H20.4883V26.7839H22.3878V24.8844Z" fill="white"/>
<path d="M25.8956 24.8844H23.9961V26.7839H25.8956V24.8844Z" fill="white"/>
<path d="M35.6992 28.4659H27.5938V30.3654H35.6992V28.4659Z" fill="white"/>
<path d="M39.2667 28.4659H37.3672V30.3654H39.2667V28.4659Z" fill="white"/>
<path d="M42.7745 28.4659H40.875V30.3654H42.7745V28.4659Z" fill="white"/>
<path d="M22.3878 28.4659H20.4883V30.3654H22.3878V28.4659Z" fill="white"/>
<path d="M25.8956 28.4659H23.9961V30.3654H25.8956V28.4659Z" fill="white"/>
<path d="M35.6992 32.0619H27.5938V33.9614H35.6992V32.0619Z" fill="white"/>
<path d="M39.2667 32.0619H37.3672V33.9614H39.2667V32.0619Z" fill="white"/>
<path d="M42.7745 32.0619H40.875V33.9614H42.7745V32.0619Z" fill="white"/>
<path d="M22.3878 32.0619H20.4883V33.9614H22.3878V32.0619Z" fill="white"/>
<path d="M25.8956 32.0619H23.9961V33.9614H25.8956V32.0619Z" fill="white"/>
<path d="M38.2948 37.63H25.0273V47.9105H38.2948V37.63Z" fill="white"/>
<path d="M45.4306 47.9975H17.8516V8.29651H18.0256V47.8235H45.2566V8.29651H45.4306V47.9975Z" fill="#081017"/>
<path d="M46.6036 8.38346H37.1641V8.20946H46.4296V6.49846H37.4686V6.32446H46.6036V8.38346Z" fill="#081017"/>
<path d="M26.1153 8.38346H16.6758V6.32446H25.7963V6.49846H16.8353V8.20946H26.1153V8.38346Z" fill="#081017"/>
<path d="M45.6466 6.49845H37.4686V6.32445H45.4726V4.61345H37.1641V4.43945H45.6466V6.49845Z" fill="#081017"/>
<path d="M25.7952 6.49845H17.6172V4.43945H26.1142V4.61345H17.7912V6.32445H25.7952V6.49845Z" fill="#081017"/>
<path d="M31.6414 12.342C28.3789 12.342 25.7109 9.68846 25.7109 6.41146C25.7109 3.13446 28.3644 0.480957 31.6414 0.480957C34.9184 0.480957 37.5719 3.13446 37.5719 6.41146C37.5719 9.68846 34.9184 12.342 31.6414 12.342ZM31.6414 0.654957C28.4659 0.654957 25.8849 3.23596 25.8849 6.41146C25.8849 9.58696 28.4659 12.168 31.6414 12.168C34.8169 12.168 37.3979 9.58696 37.3979 6.41146C37.3979 3.23596 34.8169 0.654957 31.6414 0.654957Z" fill="#081017"/>
<path d="M35.7728 19.6935H27.5078V17.62H35.7728V19.6935ZM27.6673 19.534H35.5988V17.794H27.6673V19.534Z" fill="#081017"/>
<path d="M33.9898 19.6935H29.2773V17.62H33.9898V19.6935ZM29.4513 19.534H33.8158V17.794H29.4513V19.534Z" fill="#081017"/>
<path d="M33.9898 23.2894H29.2773V21.2159H33.9898V23.2894ZM29.4513 23.1154H33.8158V21.3754H29.4513V23.1154Z" fill="#081017"/>
<path d="M33.9898 26.871H29.2773V24.7975H33.9898V26.871ZM29.4513 26.697H33.8158V24.957H29.4513V26.697Z" fill="#081017"/>
<path d="M33.9898 30.4524H29.2773V28.3789H33.9898V30.4524ZM29.4513 30.2929H33.8158V28.5529H29.4513V30.2929Z" fill="#081017"/>
<path d="M33.9898 34.0485H29.2773V31.975H33.9898V34.0485ZM29.4513 33.8745H33.8158V32.1345H29.4513V33.8745Z" fill="#081017"/>
<path d="M39.3548 19.6935H37.2812V17.62H39.3548V19.6935ZM37.4553 19.534H39.1953V17.794H37.4553V19.534Z" fill="#081017"/>
<path d="M42.8782 19.6935H40.8047V17.62H42.8782V19.6935ZM40.9642 19.534H42.7042V17.794H40.9642V19.534Z" fill="#081017"/>
<path d="M22.4758 19.6935H20.4023V17.62H22.4758V19.6935ZM20.5763 19.534H22.3163V17.794H20.5763V19.534Z" fill="#081017"/>
<path d="M25.9837 19.6935H23.9102V17.62H25.9837V19.6935ZM24.0842 19.534H25.8242V17.794H24.0842V19.534Z" fill="#081017"/>
<path d="M35.7728 23.2894H27.5078V21.2159H35.7728V23.2894ZM27.6673 23.1154H35.5988V21.3754H27.6673V23.1154Z" fill="#081017"/>
<path d="M39.3548 23.2894H37.2812V21.2159H39.3548V23.2894ZM37.4553 23.1154H39.1953V21.3754H37.4553V23.1154Z" fill="#081017"/>
<path d="M42.8782 23.2894H40.8047V21.2159H42.8782V23.2894ZM40.9642 23.1154H42.7042V21.3754H40.9642V23.1154Z" fill="#081017"/>
<path d="M22.4758 23.2894H20.4023V21.2159H22.4758V23.2894ZM20.5763 23.1154H22.3163V21.3754H20.5763V23.1154Z" fill="#081017"/>
<path d="M25.9837 23.2894H23.9102V21.2159H25.9837V23.2894ZM24.0842 23.1154H25.8242V21.3754H24.0842V23.1154Z" fill="#081017"/>
<path d="M35.7728 26.871H27.5078V24.7975H35.7728V26.871ZM27.6673 26.697H35.5988V24.957H27.6673V26.697Z" fill="#081017"/>
<path d="M39.3548 26.871H37.2812V24.7975H39.3548V26.871ZM37.4553 26.697H39.1953V24.957H37.4553V26.697Z" fill="#081017"/>
<path d="M42.8782 26.871H40.8047V24.7975H42.8782V26.871ZM40.9642 26.697H42.7042V24.957H40.9642V26.697Z" fill="#081017"/>
<path d="M22.4758 26.871H20.4023V24.7975H22.4758V26.871ZM20.5763 26.697H22.3163V24.957H20.5763V26.697Z" fill="#081017"/>
<path d="M25.9837 26.871H23.9102V24.7975H25.9837V26.871ZM24.0842 26.697H25.8242V24.957H24.0842V26.697Z" fill="#081017"/>
<path d="M35.7728 30.4524H27.5078V28.3789H35.7728V30.4524ZM27.6673 30.2929H35.5988V28.5529H27.6673V30.2929Z" fill="#081017"/>
<path d="M39.3548 30.4524H37.2812V28.3789H39.3548V30.4524ZM37.4553 30.2929H39.1953V28.5529H37.4553V30.2929Z" fill="#081017"/>
<path d="M42.8782 30.4524H40.8047V28.3789H42.8782V30.4524ZM40.9642 30.2929H42.7042V28.5529H40.9642V30.2929Z" fill="#081017"/>
<path d="M22.4758 30.4524H20.4023V28.3789H22.4758V30.4524ZM20.5763 30.2929H22.3163V28.5529H20.5763V30.2929Z" fill="#081017"/>
<path d="M25.9837 30.4524H23.9102V28.3789H25.9837V30.4524ZM24.0842 30.2929H25.8242V28.5529H24.0842V30.2929Z" fill="#081017"/>
<path d="M35.7728 34.0485H27.5078V31.975H35.7728V34.0485ZM27.6673 33.8745H35.5988V32.1345H27.6673V33.8745Z" fill="#081017"/>
<path d="M39.3548 34.0485H37.2812V31.975H39.3548V34.0485ZM37.4553 33.8745H39.1953V32.1345H37.4553V33.8745Z" fill="#081017"/>
<path d="M42.8782 34.0485H40.8047V31.975H42.8782V34.0485ZM40.9642 33.8745H42.7042V32.1345H40.9642V33.8745Z" fill="#081017"/>
<path d="M22.4758 34.0485H20.4023V31.975H22.4758V34.0485ZM20.5763 33.8745H22.3163V32.1345H20.5763V33.8745Z" fill="#081017"/>
<path d="M25.9837 34.0485H23.9102V31.975H25.9837V34.0485ZM24.0842 33.8745H25.8242V32.1345H24.0842V33.8745Z" fill="#081017"/>
<path d="M39.0495 37.7169H24.2305V36.4989H39.0495V37.7169ZM24.39 37.5429H38.8755V36.6729H24.39V37.5429Z" fill="#081017"/>
<path d="M38.3383 47.9975H24.9258V37.5575H38.3383V47.9975ZM25.0998 47.8235H38.1643V37.717H25.0998V47.8235Z" fill="#081017"/>
<path d="M31.7287 37.63H31.5547V47.9105H31.7287V37.63Z" fill="#081017"/>
<path d="M30.2756 42.1105H30.1016V43.517H30.2756V42.1105Z" fill="#081017"/>
<path d="M33.1623 42.1105H32.9883V43.517H33.1623V42.1105Z" fill="#081017"/>
<path d="M23.8398 15.6915V13.444H24.3183V14.3285H25.3188V13.444H25.7973V15.6915H25.3188V14.7635H24.3183V15.6915H23.8398Z" fill="#E10098"/>
<path d="M28.2326 15.4015C28.0151 15.619 27.7396 15.735 27.4061 15.735C27.0726 15.735 26.7971 15.619 26.5796 15.4015C26.3621 15.184 26.2461 14.894 26.2461 14.5605C26.2461 14.227 26.3621 13.937 26.5796 13.7195C26.7971 13.502 27.0726 13.386 27.4061 13.386C27.7396 13.386 28.0151 13.502 28.2326 13.7195C28.4501 13.937 28.5661 14.227 28.5661 14.5605C28.5661 14.894 28.4501 15.184 28.2326 15.4015ZM27.4061 15.3C27.5946 15.3 27.7541 15.2275 27.8701 15.097C27.9861 14.9665 28.0586 14.7925 28.0586 14.575C28.0586 14.3575 28.0006 14.1835 27.8701 14.0385C27.7396 13.8935 27.5946 13.8355 27.4061 13.8355C27.2176 13.8355 27.0581 13.908 26.9421 14.0385C26.8261 14.169 26.7536 14.3575 26.7536 14.575C26.7536 14.7925 26.8116 14.9665 26.9421 15.097C27.0581 15.2275 27.2176 15.3 27.4061 15.3Z" fill="#E10098"/>
<path d="M29.8582 15.735C29.5537 15.735 29.3217 15.677 29.1477 15.5465C28.9737 15.416 28.8867 15.2565 28.8867 15.039C28.8867 14.952 28.9012 14.865 28.9302 14.7635L29.3942 14.865C29.3942 14.865 29.3652 14.952 29.3652 15.01C29.3652 15.1115 29.4087 15.184 29.4957 15.242C29.5827 15.3 29.6987 15.329 29.8582 15.329C29.9887 15.329 30.1047 15.3 30.1772 15.2565C30.2497 15.1985 30.2932 15.1405 30.2932 15.0535C30.2932 14.923 30.1917 14.836 29.9887 14.7925L29.6842 14.7345C29.4232 14.691 29.2347 14.6185 29.1187 14.5025C29.0027 14.3865 28.9447 14.2415 28.9447 14.0675C28.9447 13.879 29.0172 13.705 29.1767 13.589C29.3362 13.4585 29.5392 13.4005 29.8002 13.4005C30.0902 13.4005 30.3222 13.473 30.4817 13.6035C30.6412 13.734 30.7282 13.9225 30.7427 14.169L30.2642 14.227C30.2352 13.937 30.0757 13.8065 29.7857 13.8065C29.6842 13.8065 29.5972 13.8355 29.5247 13.879C29.4522 13.9225 29.4232 13.9805 29.4232 14.0675C29.4232 14.2125 29.5392 14.2995 29.7712 14.343L30.0757 14.401C30.3222 14.4445 30.4962 14.517 30.6122 14.6185C30.7282 14.72 30.7717 14.865 30.7717 15.039C30.7717 15.2565 30.6847 15.4305 30.5107 15.561C30.3367 15.6915 30.1192 15.764 29.8437 15.764L29.8582 15.735Z" fill="#E10098"/>
<path d="M31.2188 15.6915V13.444H32.1758C32.4223 13.444 32.6253 13.5165 32.7703 13.647C32.9298 13.7775 33.0023 13.9515 33.0023 14.1835C33.0023 14.4155 32.9298 14.5895 32.7703 14.72C32.6108 14.8505 32.4223 14.923 32.1758 14.923H31.7117V15.706H31.2332L31.2188 15.6915ZM31.6973 14.488H32.1177C32.2337 14.488 32.3353 14.459 32.3933 14.401C32.4513 14.343 32.4947 14.2705 32.4947 14.169C32.4947 14.0675 32.4658 13.995 32.3933 13.937C32.3208 13.879 32.2337 13.85 32.1032 13.85H31.6973V14.488Z" fill="#E10098"/>
<path d="M33.4102 15.6915V13.444H33.8887V15.6915H33.4102Z" fill="#E10098"/>
<path d="M34.9616 15.6915V13.879H34.2656V13.444H36.1361V13.879H35.4401V15.6915H34.9616Z" fill="#E10098"/>
<path d="M37.8338 15.6915L37.6452 15.155H36.7897L36.6013 15.6915H36.0938L36.8913 13.444H37.5292L38.3268 15.6915H37.8193H37.8338ZM36.9202 14.7635H37.5147L37.2103 13.879L36.9202 14.7635Z" fill="#E10098"/>
<path d="M38.6602 15.6915V13.444H39.1387V15.2565H40.1682V15.6915H38.6602Z" fill="#E10098"/>
<path d="M34.8025 5.64299H32.41V3.25049H30.873V5.64299H28.4805V7.17999H30.873V9.57249H32.41V7.17999H34.8025V5.64299Z" fill="#E10098"/>
<g style="mix-blend-mode:multiply">
<path d="M17.8633 33.367C17.8633 33.367 18.9943 35.426 19.0088 35.4115C19.0233 35.397 19.5018 35.1215 19.5018 35.1215L18.5158 33.1785L17.8633 33.367Z" fill="#E6E6E6"/>
</g>
<path d="M5.51003 52.6665L6.00303 45.054C6.00303 45.054 6.24953 43.7635 6.35103 43.749C6.20603 43.6185 6.14803 43.6185 6.14803 43.3575C6.14803 43.0965 6.55403 39.1815 6.55403 39.1815C6.55403 39.1815 2.10253 39.1235 1.60953 37.891C0.913529 36.6005 0.696029 36.122 1.10203 34.6285C1.50803 33.135 1.85603 31.569 1.85603 31.569C1.85603 31.569 1.24703 31.627 1.43553 31.1775C1.62403 30.728 2.82753 27.219 3.20453 26.668C3.58153 26.117 4.20503 25.2905 6.45253 24.638C8.20703 24.1595 8.59853 24.1305 8.59853 24.1305C8.59853 24.1305 8.54053 20.81 8.72903 20.752C8.93203 20.752 9.32353 20.375 9.32353 20.375L15.7615 21.1725C15.7615 21.1725 16.008 21.7235 15.95 22.376C15.892 23.0285 15.7325 24.1595 15.834 24.203C15.9355 24.2465 18.9805 25.218 19.5025 25.856C19.5025 25.856 20.4015 26.7405 20.619 27.277C20.8365 27.8135 21.2715 29.6115 21.2715 29.6115L21.6485 31.279L21.228 31.453L21.286 31.627C21.286 31.627 21.9385 33.2945 22.069 33.251C22.1995 33.2075 23.0985 32.4825 23.171 32.062C23.229 31.4385 23.258 29.9015 23.5335 29.3505C23.809 28.7995 23.8525 28.4805 23.8525 28.3355C23.8525 28.1905 23.5915 26.668 24.1135 26.4795C24.6355 26.291 24.853 26.3925 24.94 26.842C25.027 27.2915 24.7515 29.4955 25.781 29.365C26.651 29.452 26.622 29.597 26.6945 29.974C26.767 30.351 26.6365 30.5685 26.8395 30.7425C27.028 31.0615 27.0425 31.395 26.8975 31.656C26.7525 31.917 26.5495 31.6995 26.6655 31.975C26.7815 32.2505 26.7815 33.8165 26.4045 32.903C27.492 33.802 25.172 33.7875 25.172 33.7875L24.1135 35.281L22.127 38.0505C22.127 38.0505 21.547 38.471 20.9235 38.3985C20.3 38.326 19.923 37.891 19.314 36.528C18.705 35.1215 18.038 33.9905 18.038 33.9905L17.9075 36.4555L18.27 40.9215L18.4585 43.662C18.4585 43.662 18.4875 44.3725 18.56 44.7785C18.6325 45.1845 19.4735 52.884 19.4735 52.884" fill="white"/>
<path d="M10.3391 15.155L8.38157 16.3005C8.38157 16.3005 7.25057 18.5915 7.91757 20.0125C8.58457 21.4335 11.3686 23.623 13.2391 23.391C15.1096 23.159 16.6176 21.5785 16.7916 19.128C16.9656 16.6775 10.3391 15.155 10.3391 15.155Z" fill="white"/>
<path d="M13.125 27.335C13.009 27.335 12.9075 27.335 12.7915 27.3205C10.9935 27.074 9.93497 26.262 9.36947 25.6095C8.74597 24.9135 8.55747 24.2755 8.54297 24.2465C8.54297 24.2465 8.54297 24.232 8.54297 24.2175V20.781C8.54297 20.781 8.55747 20.723 8.58647 20.7085C8.61547 20.7085 8.64447 20.7085 8.67347 20.723L8.93447 20.9695C8.93447 20.9695 8.96347 21.0565 8.93447 21.0855C8.90547 21.1145 8.84747 21.1145 8.81847 21.0855L8.68797 20.9695V24.203C8.74597 24.377 9.57247 26.7115 12.7915 27.1465C14.1835 27.3205 15.329 26.3055 15.4885 25.305C15.6625 24.2465 15.9235 21.506 15.9235 21.477C15.9235 21.4335 15.967 21.4045 16.0105 21.4045C16.054 21.4045 16.083 21.448 16.083 21.4915C16.083 21.5205 15.822 24.261 15.648 25.3195C15.4885 26.32 14.43 27.3205 13.096 27.3205L13.125 27.335Z" fill="#081017"/>
<path d="M6.26481 32.671C6.26481 32.671 6.26481 32.671 6.25031 32.671L1.37831 31.5255C1.37831 31.5255 1.33481 31.511 1.32031 31.482C1.32031 31.4675 1.32031 31.4385 1.32031 31.424L2.55281 27.8135C3.03131 26.3925 4.17681 25.276 5.61231 24.8265L8.61381 23.942C8.61381 23.942 8.70081 23.942 8.71531 24C8.71531 24.0435 8.71531 24.087 8.65731 24.1015L5.65581 24.986C4.27831 25.421 3.17631 26.494 2.69781 27.8715L1.49431 31.395L6.27931 32.5115C6.27931 32.5115 6.35181 32.5695 6.33731 32.613C6.33731 32.6565 6.29381 32.671 6.26481 32.671Z" fill="#081017"/>
<path d="M18.2563 32.526C18.2563 32.526 18.1983 32.5115 18.1838 32.468C18.1838 32.4245 18.1838 32.381 18.2273 32.3665L21.5043 31.25L20.8663 28.292C20.5618 26.9 19.5903 25.769 18.2708 25.276L15.7333 24.3045C15.7333 24.3045 15.6753 24.2465 15.6898 24.203C15.7043 24.1595 15.7478 24.145 15.7913 24.1595L18.3288 25.131C19.7063 25.653 20.7068 26.8275 21.0258 28.263L21.6783 31.279C21.6783 31.279 21.6783 31.3515 21.6203 31.366L18.2708 32.5115C18.2708 32.5115 18.2563 32.5115 18.2418 32.5115L18.2563 32.526Z" fill="#081017"/>
<path d="M6.17731 33.28C6.17731 33.28 6.17731 33.28 6.16281 33.28C6.11931 33.28 6.09031 33.222 6.10481 33.1785L6.97481 29.597C7.07631 29.017 6.97481 28.408 6.69931 27.886L5.94531 26.465C5.94531 26.465 5.94531 26.378 5.97431 26.3635C6.01781 26.349 6.06131 26.3635 6.07581 26.3925L6.82981 27.8135C7.11981 28.3645 7.23581 29.017 7.11981 29.6405L6.24981 33.222C6.24981 33.222 6.20631 33.28 6.17731 33.28Z" fill="#081017"/>
<path d="M21.0673 38.5145C21.0673 38.5145 20.9803 38.5145 20.9368 38.5145C20.3858 38.471 19.9218 38.1375 19.6898 37.6445L17.9062 33.8455C17.9062 33.8455 17.9063 33.7585 17.9498 33.744C17.9933 33.7295 18.0368 33.744 18.0513 33.7875L19.8348 37.5865C20.0378 38.036 20.4582 38.326 20.9512 38.3695C21.4442 38.413 21.9082 38.1955 22.1837 37.7895L25.0258 33.7875C25.0258 33.7875 25.0983 33.744 25.1418 33.773C25.1708 33.802 25.1853 33.8455 25.1563 33.889L22.3142 37.891C22.0242 38.3115 21.5603 38.5435 21.0673 38.5435V38.5145Z" fill="#081017"/>
<path d="M20.0115 35.745H19.9825C19.939 35.7305 19.9245 35.687 19.939 35.6435L20.055 35.368C20.403 34.585 20.983 33.918 21.708 33.454C22.346 33.048 22.81 32.613 23.1 32.149C23.129 32.1055 23.1725 32.1055 23.216 32.12C23.2595 32.149 23.2595 32.1925 23.245 32.236C22.9405 32.7145 22.462 33.164 21.8095 33.5845C21.099 34.034 20.548 34.672 20.2145 35.426L20.0985 35.7015C20.0985 35.7015 20.055 35.745 20.026 35.745H20.0115Z" fill="#081017"/>
<path d="M12.0655 44.8655C10.4415 44.8655 8.629 44.648 6.7585 44.01L6.106 43.7345C6.106 43.7345 6.0625 43.691 6.0625 43.662L6.4395 39.3845C6.4395 39.3845 6.483 39.312 6.5265 39.312C6.57 39.312 6.599 39.3555 6.599 39.399L6.222 43.6185L6.8165 43.8795C12.5005 45.8225 17.764 43.8505 18.344 43.6185L17.851 37.456C17.7495 36.1945 17.7785 34.904 17.9235 33.6425L18.518 28.6255C18.518 28.6255 18.5615 28.553 18.605 28.553C18.6485 28.553 18.6775 28.5965 18.6775 28.64L18.083 33.657C17.938 34.904 17.909 36.18 18.0105 37.4415L18.5035 43.662C18.5035 43.662 18.489 43.7345 18.46 43.7345C18.4165 43.749 15.734 44.8655 12.0655 44.8655Z" fill="#081017"/>
<path d="M5.55297 52.913C5.50947 52.913 5.48047 52.8695 5.48047 52.826L5.84297 45.895C5.87197 45.431 5.92997 44.967 6.03147 44.5175L6.19097 43.7345C6.19097 43.7345 6.24897 43.662 6.27797 43.6765C6.32147 43.6765 6.35047 43.7345 6.33597 43.7635L6.17647 44.5465C6.08947 44.996 6.01697 45.4455 6.00247 45.895L5.63997 52.826C5.63997 52.826 5.59647 52.8985 5.56747 52.8985L5.55297 52.913Z" fill="#081017"/>
<path d="M12.9328 32.7C12.9328 32.7 12.9183 32.7 12.9038 32.7L11.7583 32.265C11.7583 32.265 11.7293 32.236 11.7148 32.2215C11.7148 32.207 11.7148 32.178 11.7148 32.1635L13.6433 27.19C13.6433 27.19 13.7013 27.132 13.7448 27.1465C13.7883 27.161 13.8028 27.2045 13.7883 27.248L11.8888 32.149L12.8893 32.526L15.3833 25.8705C15.3833 25.8705 15.4413 25.8125 15.4848 25.827C15.5283 25.8415 15.5428 25.885 15.5283 25.9285L13.0053 32.6565C13.0053 32.6565 12.9763 32.6855 12.9618 32.7C12.9618 32.7 12.9473 32.7 12.9328 32.7Z" fill="#081017"/>
<path d="M12.8752 33.483C12.8752 33.483 12.7447 33.4685 12.6867 33.4395L11.3382 32.7725C11.1352 32.671 11.0482 32.439 11.1352 32.236L11.4397 31.4675C11.4832 31.3515 11.5702 31.279 11.6717 31.221C11.7732 31.1775 11.9037 31.1775 12.0052 31.221L12.1357 31.279C12.1357 31.279 12.1937 31.337 12.1792 31.3805C12.1647 31.424 12.1212 31.4385 12.0777 31.424L11.9472 31.366C11.9472 31.366 11.8022 31.337 11.7297 31.366C11.6572 31.395 11.6137 31.453 11.5847 31.511L11.2802 32.2795C11.2367 32.41 11.2802 32.555 11.4107 32.613L12.7592 33.28C12.7592 33.28 12.9042 33.3235 12.9622 33.28C13.0347 33.251 13.0927 33.2075 13.1217 33.135L13.4987 32.2795C13.4987 32.2795 13.5277 32.1345 13.4987 32.0765C13.4697 32.004 13.4262 31.9605 13.3537 31.9315L13.1652 31.8445C13.1652 31.8445 13.1072 31.7865 13.1217 31.743C13.1362 31.6995 13.1797 31.685 13.2232 31.6995L13.4117 31.7865C13.5132 31.83 13.6002 31.917 13.6437 32.0185C13.6872 32.12 13.6872 32.236 13.6437 32.352L13.2667 33.2075C13.2232 33.309 13.1362 33.396 13.0202 33.4395C12.9767 33.454 12.9187 33.4685 12.8752 33.4685V33.483Z" fill="#081017"/>
<path d="M12.2531 39.95C12.2531 39.95 12.1661 39.95 12.1226 39.95L3.43712 38.9785C2.62512 38.8915 1.87112 38.4565 1.39262 37.7895C0.914118 37.1225 0.725618 36.2815 0.899618 35.4695L1.72612 31.54C1.72612 31.54 1.78412 31.4675 1.81312 31.482C1.85662 31.482 1.88562 31.54 1.87112 31.569L1.04462 35.4985C0.885118 36.267 1.04462 37.0645 1.50862 37.688C1.97262 38.326 2.66862 38.732 3.45162 38.819L12.1371 39.7905C12.4271 39.8195 12.7171 39.718 12.9346 39.515C13.1521 39.312 13.2536 39.022 13.2246 38.7175L12.8911 34.8605C12.8621 34.556 12.6301 34.295 12.3256 34.2515C12.2821 34.2515 12.2531 34.208 12.2531 34.1645C12.2531 34.121 12.2966 34.092 12.3401 34.092C12.7171 34.15 13.0071 34.4545 13.0506 34.846L13.3841 38.703C13.4131 39.051 13.2826 39.3845 13.0361 39.6165C12.8186 39.834 12.5286 39.9355 12.2386 39.9355L12.2531 39.95Z" fill="#081017"/>
<path d="M9.04704 39.6455C9.04704 39.6455 8.97454 39.6165 8.97454 39.573L8.93104 38.152C8.91654 37.659 9.01804 37.166 9.25004 36.731L10.7145 33.889L11.3235 32.671C11.3235 32.671 11.396 32.613 11.425 32.642C11.4685 32.6565 11.483 32.7145 11.454 32.7435L10.845 33.9615L9.38054 36.8035C9.16304 37.224 9.06154 37.688 9.07604 38.152L9.11954 39.573C9.11954 39.573 9.09054 39.66 9.04704 39.66V39.6455Z" fill="#081017"/>
<path d="M10.788 39.8195C10.788 39.8195 10.7155 39.7905 10.7155 39.747L10.585 38.3985C10.5415 37.8765 10.6285 37.3545 10.8605 36.876L12.557 33.3235C12.557 33.3235 12.6295 33.2655 12.6585 33.28C12.702 33.2945 12.7165 33.3525 12.702 33.3815L11.0055 36.934C10.788 37.3835 10.701 37.8765 10.7445 38.3695L10.875 39.718C10.875 39.718 10.846 39.805 10.8025 39.805L10.788 39.8195Z" fill="#081017"/>
<path d="M10.7307 34.0485L1.65367 32.4535C1.65367 32.4535 1.58117 32.41 1.59567 32.3665C1.59567 32.323 1.63917 32.294 1.68267 32.3085L10.7597 33.9035C10.7597 33.9035 10.8322 33.947 10.8177 33.9905C10.8177 34.034 10.7742 34.063 10.7452 34.063L10.7307 34.0485Z" fill="#081017"/>
<path d="M19.4306 52.8695C19.4306 52.8695 19.3581 52.8405 19.3581 52.797C19.3581 52.739 18.6911 46.3735 18.6041 45.6195C18.5171 44.8655 18.1981 43.836 18.1836 43.836C18.1836 43.7925 18.1836 43.749 18.2416 43.7345C18.2851 43.7345 18.3286 43.7345 18.3431 43.7925C18.3431 43.7925 18.6766 44.8365 18.7636 45.605C18.8506 46.3735 19.5031 52.7245 19.5176 52.7825C19.5176 52.826 19.4886 52.8695 19.4451 52.8695H19.4306Z" fill="#081017"/>
<path d="M15.1967 37.34C15.1967 37.34 15.1532 37.34 15.1387 37.311L14.0947 36.296C14.0947 36.296 14.0657 36.209 14.0947 36.18C14.1237 36.151 14.1817 36.151 14.2107 36.18L15.1822 37.137L15.2692 37.021C15.3707 36.876 15.3707 36.6875 15.2692 36.557L14.7617 35.9335C14.5297 35.658 14.1962 35.4985 13.8337 35.4985H13.0217C13.0217 35.4985 12.9492 35.4695 12.9492 35.426C12.9492 35.3825 12.9782 35.3535 13.0217 35.3535H13.8337C14.2397 35.3535 14.6312 35.542 14.8922 35.8465L15.3997 36.47C15.5592 36.6585 15.5592 36.934 15.3997 37.137L15.2547 37.3255C15.2547 37.3255 15.2257 37.3545 15.1967 37.3545V37.34Z" fill="#081017"/>
<path d="M15.0221 38.2245C14.9206 38.2245 14.8191 38.181 14.7466 38.094L14.1666 37.34C14.1666 37.34 14.1521 37.253 14.1666 37.224C14.1956 37.195 14.2536 37.2095 14.2826 37.224L14.8626 37.978C14.8626 37.978 14.9641 38.0505 15.0221 38.0505C15.0801 38.0505 15.1381 38.0215 15.1671 37.9635L15.2976 37.746C15.2976 37.746 15.3411 37.6155 15.2976 37.5575L15.0801 37.1805C15.0801 37.1805 15.0801 37.0935 15.1091 37.079C15.1526 37.05 15.1961 37.079 15.2106 37.108L15.4281 37.485C15.5006 37.601 15.4861 37.7315 15.4281 37.8475L15.2976 38.065C15.2396 38.1665 15.1381 38.21 15.0221 38.2245C15.0221 38.2245 15.0221 38.2245 15.0076 38.2245H15.0221Z" fill="#081017"/>
<path d="M14.7478 39.167C14.7478 39.167 14.7188 39.167 14.7043 39.167C14.5883 39.167 14.4868 39.0945 14.4288 38.993L13.9648 38.181C13.9648 38.181 13.9648 38.094 13.9938 38.0795C14.0373 38.0505 14.0808 38.0795 14.0953 38.1085L14.5593 38.9205C14.5593 38.9205 14.6463 39.0075 14.7043 39.022C14.7623 39.022 14.8348 39.0075 14.8783 38.9495L15.0378 38.7755C15.0378 38.7755 15.1103 38.6015 15.0523 38.529L14.7913 38.1665C14.7913 38.1665 14.7768 38.0795 14.8058 38.0505C14.8348 38.0215 14.8928 38.036 14.9218 38.065L15.1828 38.4275C15.2698 38.558 15.2698 38.7465 15.1538 38.8625L14.9943 39.0365C14.9218 39.109 14.8348 39.1525 14.7333 39.1525L14.7478 39.167Z" fill="#081017"/>
<path d="M14.0816 39.486C13.6756 39.486 13.2841 39.1815 13.2696 39.167C13.2406 39.138 13.2261 39.0945 13.2696 39.051C13.2986 39.022 13.3421 39.0075 13.3856 39.051C13.3856 39.051 13.7916 39.37 14.1686 39.3265C14.3281 39.312 14.4586 39.225 14.5601 39.0945C14.5891 39.0655 14.6326 39.051 14.6761 39.0945C14.7051 39.1235 14.7196 39.167 14.6761 39.2105C14.5456 39.3845 14.3716 39.4715 14.1686 39.5005C14.1396 39.5005 14.1106 39.5005 14.0816 39.5005V39.486Z" fill="#081017"/>
<path d="M13.7177 35.513C13.7177 35.513 13.6452 35.484 13.6452 35.455L13.5582 35.0925C13.5147 34.904 13.3552 34.7735 13.1522 34.7735H12.9202C12.9202 34.7735 12.8477 34.7445 12.8477 34.701C12.8477 34.6575 12.8767 34.6285 12.9202 34.6285H13.1522C13.4132 34.6285 13.6452 34.817 13.7032 35.078L13.7902 35.4405C13.7902 35.4405 13.7757 35.5275 13.7322 35.542C13.7322 35.542 13.7322 35.542 13.7177 35.542V35.513Z" fill="#081017"/>
<path d="M23.1702 33.0046C23.1702 33.0046 23.0977 32.9756 23.0977 32.9176V31.0036C23.1267 30.4236 23.2282 29.8581 23.4457 29.3216L23.7067 28.6546V26.9726C23.7067 26.6101 24.0112 26.3201 24.3737 26.3201C24.7362 26.3201 25.0407 26.6101 25.0407 26.9871V28.3066C25.0407 28.7126 25.2147 29.1186 25.5337 29.3941C25.5627 29.4231 25.5627 29.4666 25.5337 29.5101C25.5047 29.5391 25.4612 29.5391 25.4177 29.5101C25.0697 29.2056 24.8812 28.7706 24.8812 28.3066V26.9871C24.8812 26.7116 24.6492 26.4796 24.3737 26.4796C24.0982 26.4796 23.8807 26.6971 23.8662 26.9726V28.6836C23.8662 28.6836 23.8662 28.6981 23.8517 28.7126L23.5762 29.3941C23.3732 29.9161 23.2572 30.4526 23.2572 31.0181V32.9321C23.2572 32.9321 23.1992 33.0046 23.1557 33.0046H23.1702Z" fill="#081017"/>
<path d="M26.2752 33.0335C26.2752 33.0335 26.2027 33.0045 26.2027 32.961C26.2027 32.9175 26.2317 32.874 26.2607 32.874L26.4202 32.845C26.5507 32.816 26.6522 32.7 26.6667 32.5695V32.265C26.6812 32.12 26.5942 31.9895 26.4492 31.9605C26.4057 31.9605 26.3767 31.917 26.3912 31.8735C26.3912 31.83 26.4347 31.801 26.4637 31.801C26.6667 31.801 26.8262 31.6415 26.8262 31.4385L26.8552 31.192C26.8842 31.0035 26.7972 30.815 26.6232 30.7135C26.5942 30.699 26.5797 30.67 26.5797 30.641V29.9885C26.5797 29.6985 26.3477 29.4665 26.0577 29.4665H25.0427L24.1147 29.8435C23.9407 29.916 23.8247 30.0755 23.8247 30.264V30.3075C23.8247 30.438 23.8827 30.5685 23.9842 30.6555C24.0857 30.7425 24.2162 30.786 24.3612 30.757L25.6662 30.5395C25.6662 30.5395 25.7532 30.5685 25.7532 30.5975C25.7532 30.641 25.7242 30.6845 25.6952 30.6845L24.3902 30.902C24.2162 30.931 24.0277 30.8875 23.8972 30.7715C23.7522 30.6555 23.6797 30.4815 23.6797 30.3075V30.264C23.6797 30.0175 23.8247 29.7855 24.0712 29.6985L25.0137 29.3215C25.0137 29.3215 25.0282 29.3215 25.0427 29.3215H26.0722C26.4492 29.3215 26.7537 29.626 26.7537 30.003V30.612C26.9422 30.757 27.0437 30.989 27.0147 31.221L26.9857 31.4675C26.9857 31.6705 26.8697 31.8445 26.6957 31.9315C26.7972 32.0185 26.8552 32.149 26.8407 32.294V32.5985C26.8117 32.816 26.6522 32.99 26.4492 33.019L26.2897 33.048L26.2752 33.0335Z" fill="#081017"/>
<path d="M24.8088 32.1345H24.2868C23.9823 32.12 23.7358 31.8735 23.7213 31.5835V31.4095C23.6923 31.105 23.9098 30.844 24.1998 30.8005L24.6348 30.728C24.6348 30.728 24.7218 30.757 24.7218 30.8005C24.7218 30.844 24.6928 30.8875 24.6493 30.8875L24.2143 30.96C23.9968 30.989 23.8518 31.1775 23.8663 31.395V31.569C23.8953 31.7865 24.0693 31.9605 24.2868 31.9605H24.7943L25.7078 31.7285C25.7513 31.7285 25.7948 31.7285 25.8093 31.7865C25.8238 31.8445 25.8093 31.8735 25.7513 31.888L24.8233 32.1345C24.8233 32.1345 24.8233 32.1345 24.8088 32.1345Z" fill="#081017"/>
<path d="M24.3596 33.0914C24.0551 33.0914 23.8086 32.8449 23.8086 32.5404V32.5115C23.8086 32.3665 23.8666 32.2214 23.9681 32.12C24.0696 32.0185 24.2146 31.9604 24.3596 31.9604H24.8091C24.8091 31.9604 24.8816 32.0039 24.8816 32.0474C24.8816 32.0909 24.8381 32.12 24.7946 32.12H24.3451C24.2436 32.12 24.1421 32.1489 24.0696 32.2214C23.9971 32.2939 23.9536 32.3955 23.9536 32.497V32.5259C23.9536 32.7434 24.1276 32.9174 24.3451 32.9174H25.0556L25.6356 32.8595C25.6356 32.8595 25.7226 32.8884 25.7226 32.9319C25.7226 32.9754 25.6936 33.0189 25.6501 33.0189L25.0556 33.0769H24.3451L24.3596 33.0914Z" fill="#081017"/>
<path d="M13.7158 23.681C12.9183 23.681 12.1353 23.42 11.5118 22.927C11.4828 22.898 11.4683 22.8545 11.5118 22.811C11.5408 22.782 11.5843 22.7675 11.6278 22.811C12.2223 23.275 12.9763 23.536 13.7448 23.536C14.1798 23.536 14.6148 23.3475 14.9048 23.0285C15.1368 22.782 15.2963 22.492 15.3978 22.173C15.3978 22.1295 15.4558 22.1005 15.4993 22.115C15.5428 22.115 15.5718 22.173 15.5573 22.2165C15.4558 22.5645 15.2818 22.8835 15.0353 23.1445C14.7018 23.507 14.2378 23.71 13.7593 23.71L13.7158 23.681Z" fill="#081017"/>
<path d="M13.8205 24.2755C12.936 24.2755 12.0805 23.9855 11.3845 23.4345L8.99199 21.593C8.99199 21.593 8.94849 21.5205 8.99199 21.477C9.02099 21.448 9.06449 21.4335 9.10799 21.477L11.5005 23.3185C12.1675 23.8405 13.0085 24.116 13.8495 24.116C14.3425 24.116 14.8065 23.913 15.14 23.5505C15.3865 23.275 15.575 22.9415 15.6765 22.5935L15.9375 21.68C15.9375 21.68 15.9955 21.6075 16.039 21.622C16.0825 21.622 16.1115 21.68 16.097 21.7235L15.836 22.637C15.72 23.014 15.5315 23.362 15.256 23.652C14.8935 24.0435 14.386 24.2755 13.8495 24.2755H13.8205Z" fill="#081017"/>
<path d="M13.1795 25.943C12.5995 25.943 12.0195 25.7835 11.512 25.45L8.98899 23.8115C8.98899 23.8115 8.94549 23.739 8.95999 23.6955C8.98899 23.652 9.03249 23.652 9.07599 23.6665L11.599 25.305C12.4835 25.885 13.6145 25.9285 14.5425 25.4355L14.8325 25.276L14.8615 23.8115C14.8615 23.8115 14.905 23.739 14.9485 23.739C14.992 23.739 15.021 23.7825 15.021 23.826L14.992 25.334C14.992 25.334 14.9775 25.392 14.9485 25.4065L14.615 25.5805C14.1655 25.8125 13.6725 25.9285 13.1795 25.9285V25.943Z" fill="#081017"/>
<path d="M11.1233 25.131C11.1233 25.131 11.0508 25.102 11.0508 25.0585V23.1735C11.0508 23.1735 11.0943 23.101 11.1378 23.101C11.1378 23.101 11.2103 23.13 11.2103 23.1735V25.0585C11.2103 25.0585 11.1668 25.131 11.1233 25.131Z" fill="#081017"/>
<path d="M22.0708 33.4395C22.0708 33.4395 22.0128 33.425 21.9983 33.396L21.0703 31.4965C21.0703 31.4965 21.0703 31.4095 21.1138 31.395C21.1573 31.3805 21.2008 31.395 21.2153 31.4385L22.1433 33.338C22.1433 33.338 22.1433 33.425 22.0998 33.4395H22.0708Z" fill="#081017"/>
<path d="M25.0424 33.889C24.5639 33.889 24.1724 33.5265 24.1289 33.048C24.1289 33.0335 24.1289 33.0045 24.1434 32.99C24.1434 32.9755 24.1724 32.961 24.2014 32.961H24.5494C24.5494 32.961 24.6364 32.9755 24.6364 33.019C24.6364 33.0625 24.6074 33.106 24.5639 33.106H24.3029C24.3754 33.483 24.7089 33.7585 25.0859 33.7295L26.2024 33.6715C26.3184 33.6715 26.4199 33.6135 26.4924 33.5265C26.5649 33.4395 26.6084 33.3235 26.5939 33.2075L26.5649 32.961L26.3909 32.99C26.3909 32.99 26.3039 32.961 26.3039 32.9175C26.3039 32.874 26.3329 32.8305 26.3764 32.8305L26.6374 32.787C26.6374 32.787 26.6809 32.787 26.6954 32.8015C26.7099 32.8015 26.7244 32.8305 26.7244 32.8595L26.7534 33.1785C26.7679 33.338 26.7244 33.4975 26.6229 33.6135C26.5214 33.7295 26.3764 33.802 26.2169 33.8165L25.1004 33.8745C25.1004 33.8745 25.0714 33.8745 25.0569 33.8745L25.0424 33.889Z" fill="#081017"/>
<path d="M12.9644 23.159C12.9644 23.159 12.8919 23.159 12.8484 23.159C11.5289 23.1155 10.3689 22.521 9.60039 21.593C9.58589 21.593 9.55689 21.593 9.54239 21.593C9.46989 21.5495 7.75889 20.578 7.38189 18.78C7.03389 17.0835 7.38189 15.387 8.33889 14.2125C9.26689 13.067 10.7314 12.458 12.5584 12.458C16.8794 12.458 17.0969 15.764 17.1114 15.793C17.1114 16.083 17.0244 16.286 16.8649 16.3875C16.6039 16.5615 16.2414 16.3875 16.2269 16.3875C14.3274 15.5755 13.4864 15.445 13.3124 15.6045C13.3124 15.6045 13.2544 15.648 13.3124 15.7785C13.3704 15.9235 13.3414 16.054 13.2399 16.1555C13.0079 16.402 12.3844 16.4165 11.7174 16.199C11.0214 15.967 10.2384 16.1555 9.70189 16.6775C9.28139 17.098 8.78839 17.1125 8.77389 17.1125H8.57089C8.13589 17.1125 7.78789 17.4605 7.78789 17.8955C7.78789 18.3305 8.13589 18.6785 8.57089 18.6785H8.68689C8.68689 18.6785 8.75939 18.7075 8.75939 18.751C8.75939 21.071 10.5719 22.927 12.8774 22.9995C13.8779 23.0285 14.8204 22.6515 15.5454 21.941C16.2994 21.2015 16.7489 20.172 16.7489 19.128V16.663C16.7489 16.663 16.7779 16.5905 16.8214 16.5905C16.8649 16.5905 16.8939 16.6195 16.8939 16.663V19.128C16.8939 20.23 16.4444 21.2885 15.6469 22.057C14.9074 22.7675 13.9649 23.159 12.9789 23.159H12.9644ZM12.5294 12.603C10.7604 12.603 9.33939 13.1975 8.44039 14.2995C7.52689 15.4305 7.17889 17.098 7.52689 18.7365C7.80239 20.056 8.87539 20.926 9.36839 21.274C8.88989 20.578 8.59989 19.737 8.58539 18.8235H8.54189C8.01989 18.8235 7.59939 18.403 7.59939 17.881C7.59939 17.359 8.01989 16.9385 8.54189 16.9385H8.74489C8.74489 16.9385 9.19439 16.9095 9.57139 16.547C10.1514 15.9815 10.9779 15.793 11.7464 16.025C12.4279 16.2425 12.9499 16.199 13.1094 16.025C13.1674 15.967 13.1819 15.8945 13.1529 15.8075C13.0804 15.619 13.1529 15.5175 13.1964 15.4595C13.5444 15.1405 15.0669 15.6915 16.2849 16.2135C16.2849 16.2135 16.5894 16.344 16.7779 16.2135C16.8939 16.141 16.9519 15.996 16.9519 15.764C16.9519 15.6335 16.7344 12.574 12.5584 12.574L12.5294 12.603Z" fill="#081017"/>
<path d="M9.57027 21.593C9.57027 21.593 9.54127 21.593 9.52677 21.593C9.45427 21.5495 7.74327 20.578 7.36627 18.78C7.01827 17.0835 7.36627 15.387 8.32327 14.2125C9.25127 13.067 10.7158 12.458 12.5428 12.458C16.8638 12.458 17.0813 15.764 17.0958 15.793C17.0958 16.083 17.0088 16.286 16.8493 16.3875C16.5883 16.5615 16.2258 16.3875 16.2113 16.3875C14.3118 15.5755 13.4708 15.445 13.2968 15.6045C13.2968 15.6045 13.2388 15.648 13.2968 15.7785C13.3548 15.9235 13.3258 16.054 13.2243 16.1555C12.9923 16.402 12.3688 16.4165 11.7018 16.199C11.0058 15.967 10.2228 16.1555 9.68627 16.6775C9.26577 17.098 8.77277 17.1125 8.75827 17.1125H8.55527C8.55527 17.1125 8.48277 17.0835 8.48277 17.04C8.48277 16.9965 8.51177 16.9675 8.55527 16.9675H8.75827C8.75827 16.9675 9.20777 16.9385 9.58477 16.576C10.1648 16.0105 10.9913 15.822 11.7598 16.054C12.4413 16.2715 12.9633 16.228 13.1228 16.054C13.1808 15.996 13.1953 15.9235 13.1663 15.8365C13.0938 15.648 13.1663 15.5465 13.2098 15.4885C13.5578 15.1695 15.0803 15.7205 16.2983 16.2425C16.2983 16.2425 16.6028 16.373 16.7913 16.2425C16.9073 16.17 16.9653 16.025 16.9653 15.793C16.9653 15.6625 16.7478 12.603 12.5718 12.603C10.8028 12.603 9.38177 13.1975 8.48277 14.2995C7.56927 15.4305 7.22127 17.098 7.56927 18.7365C7.93177 20.462 9.64277 21.4335 9.65727 21.4335C9.70077 21.448 9.71527 21.506 9.68627 21.535C9.68627 21.564 9.64277 21.5785 9.61377 21.5785L9.57027 21.593Z" fill="#E10098"/>
<path d="M13.3383 17.9245L13.1643 17.736C12.9903 17.5475 12.7293 17.446 12.4683 17.446L11.2648 17.475C10.9023 17.475 10.5978 17.707 10.4528 18.026V18.0695C10.3368 18.287 10.3368 18.519 10.4093 18.751L10.4818 18.9395C10.6123 19.302 10.9458 19.534 11.3228 19.5485L12.5408 19.5775C12.7873 19.5775 13.0338 19.4905 13.2078 19.3165L13.3238 19.2005C13.5268 18.9975 13.6283 18.722 13.5993 18.432C13.5703 18.229 13.4833 18.055 13.3528 17.91L13.3383 17.9245Z" fill="#F41BA2"/>
<path d="M10.4538 18.113C10.4538 18.113 10.4248 18.113 10.4103 18.113L8.64133 16.982C8.64133 16.982 8.59783 16.9095 8.61233 16.866C8.64133 16.8225 8.68483 16.8225 8.72833 16.837L10.4973 17.968C10.4973 17.968 10.5408 18.0405 10.5263 18.084C10.5118 18.113 10.4828 18.1275 10.4538 18.1275V18.113Z" fill="#081017"/>
<path d="M13.5272 18.635C13.5272 18.635 13.4692 18.6205 13.4547 18.5915C13.4402 18.548 13.4547 18.5045 13.4982 18.49C14.1072 18.1855 14.4262 18.432 14.4407 18.4465C14.4697 18.4755 14.4842 18.519 14.4407 18.5625C14.4117 18.5915 14.3682 18.606 14.3247 18.5625C14.3247 18.5625 14.0637 18.374 13.5562 18.635H13.5272Z" fill="#081017"/>
<path d="M15.1371 17.5765C14.8761 17.649 14.6586 17.8375 14.5426 18.0985V18.142C14.4266 18.3595 14.4266 18.5915 14.4991 18.8235L14.5716 19.012C14.7021 19.3745 15.0356 19.6065 15.4126 19.621L16.6306 19.65C16.8771 19.65 17.1236 19.563 17.2976 19.389L17.4136 19.273C17.6166 19.07 17.7181 18.7945 17.6891 18.5045C17.6601 18.3015 17.5731 18.1275 17.4426 17.9825L17.2686 17.794C17.0946 17.6055 16.8336 17.504 16.5726 17.504L15.3691 17.533C15.2966 17.533 15.2241 17.533 15.1516 17.562" fill="#F41BA2"/>
<path d="M13.629 22.1006C12.0485 21.8686 11.918 20.5056 11.918 20.4911C11.918 20.4621 11.918 20.4476 11.9325 20.4331C11.947 20.4186 11.9615 20.4041 11.9905 20.4041L14.9485 20.3606C14.9485 20.3606 15.021 20.3896 15.0355 20.4331C15.0355 20.4766 15.0065 20.5201 14.963 20.5201L12.092 20.5636C12.1355 20.8536 12.3965 21.7671 13.658 21.9411C13.7015 21.9411 13.7305 21.9846 13.7305 22.0281C13.7305 22.0716 13.687 22.1006 13.658 22.1006H13.629Z" fill="#081017"/>
<path d="M13.6005 52.7389L11.9475 52.5069C11.9475 52.5069 11.875 52.4634 11.875 52.4199L12.4115 47.6059C12.4115 47.6059 12.4405 47.5334 12.484 47.5334C12.5275 47.5334 12.5565 47.5624 12.571 47.5914L13.673 52.6374C13.673 52.6374 13.673 52.6954 13.6585 52.7099C13.644 52.7244 13.6295 52.7389 13.6005 52.7389ZM12.0345 52.362L13.499 52.565L12.513 48.0989L12.0345 52.362Z" fill="#081017"/>
<g style="mix-blend-mode:multiply">
<path d="M16.8368 44.155L16.4453 35.194L17.6488 31.1485L18.5333 28.7705L17.8808 35.3535L18.3303 42.85L18.4028 43.604L16.8368 44.155Z" fill="#E6E6E6"/>
</g>
<g style="mix-blend-mode:multiply">
<path d="M18.1094 25.1746C18.1094 25.1746 20.0959 26.7261 20.0959 28.3066C20.0959 29.8871 20.2409 31.7576 20.2409 31.7576L21.6039 31.2356L20.9079 28.0021C20.9079 28.0021 19.9944 25.4501 18.1094 25.1746Z" fill="#E6E6E6"/>
</g>
<g style="mix-blend-mode:multiply">
<path d="M12.8049 27.2481L11.7609 31.2791C11.7609 31.2791 11.3694 31.3371 11.1809 31.3951C10.9924 31.4531 10.9344 32.6711 10.9344 32.6711L10.4414 33.8891C10.4414 33.8891 10.7169 34.0776 10.8474 33.8601C10.9779 33.6426 11.4419 32.7291 11.4419 32.7291C11.4419 32.7291 11.2389 32.5696 11.2534 32.3666C11.2679 32.1636 11.5724 31.2356 11.9059 31.2936C12.1669 31.3516 13.8199 27.1901 13.8199 27.1901C13.8199 27.1901 12.9644 27.3641 12.8339 27.2481H12.8049Z" fill="#E6E6E6"/>
</g>
<g style="mix-blend-mode:multiply">
<path d="M10.7295 34.0195L9.5405 33.7585C9.5405 33.7585 8.2935 37.224 8.3225 37.601C8.3515 37.978 8.25 39.4135 8.25 39.4135L9.062 39.486C9.062 39.486 8.192 38.007 10.715 34.0195H10.7295Z" fill="#E6E6E6"/>
</g>
<g style="mix-blend-mode:multiply">
<path d="M6.43931 27.2045L5.75781 33.135C5.75781 33.135 6.14931 33.2655 6.22181 33.0625C6.29431 32.8595 7.12081 29.2345 7.12081 29.2345C7.12081 29.2345 7.17881 28.437 6.45381 27.2045H6.43931Z" fill="#E6E6E6"/>
</g>
<g style="mix-blend-mode:multiply">
<path d="M17.5039 44.0245L18.3304 53L19.4469 52.8695L18.5914 45.083L18.2579 43.691L17.5039 44.0245Z" fill="#E6E6E6"/>
</g>
<g style="mix-blend-mode:multiply">
<path d="M15.8041 23.7536L15.9636 22.2891L15.8476 22.4486C15.8476 22.4486 15.4851 23.3476 14.9051 23.9131C14.9341 24.8121 14.8906 26.5811 14.8906 26.5811C14.8906 26.5811 15.8476 25.7981 15.8041 23.7391V23.7536Z" fill="#E6E6E6"/>
</g>
<g style="mix-blend-mode:multiply">
<path d="M12.2964 48.9835L11.8904 52.4345H10.6289L12.2529 48.9545C12.3109 48.7225 12.2964 49.201 12.2964 48.998" fill="#E6E6E6"/>
</g>
</svg>
