<svg width="24" height="25" viewBox="0 0 24 25" fill="none" xmlns="http://www.w3.org/2000/svg">
<mask id="mask0_1286_102636" style="mask-type:alpha" maskUnits="userSpaceOnUse" x="0" y="0" width="24" height="25">
<rect y="0.400879" width="24" height="24" fill="#D9D9D9"/>
</mask>
<g mask="url(#mask0_1286_102636)">
<path d="M11.95 18.4009C12.3 18.4009 12.5958 18.28 12.8375 18.0384C13.0792 17.7967 13.2 17.5009 13.2 17.1509C13.2 16.8009 13.0792 16.505 12.8375 16.2634C12.5958 16.0217 12.3 15.9009 11.95 15.9009C11.6 15.9009 11.3042 16.0217 11.0625 16.2634C10.8208 16.505 10.7 16.8009 10.7 17.1509C10.7 17.5009 10.8208 17.7967 11.0625 18.0384C11.3042 18.28 11.6 18.4009 11.95 18.4009ZM11.05 14.5509H12.9C12.9 14.0009 12.9625 13.5675 13.0875 13.2509C13.2125 12.9342 13.5667 12.5009 14.15 11.9509C14.5833 11.5175 14.925 11.105 15.175 10.7134C15.425 10.3217 15.55 9.85088 15.55 9.30088C15.55 8.36755 15.2083 7.65088 14.525 7.15088C13.8417 6.65088 13.0333 6.40088 12.1 6.40088C11.15 6.40088 10.3792 6.65088 9.7875 7.15088C9.19583 7.65088 8.78333 8.25088 8.55 8.95088L10.2 9.60088C10.2833 9.30088 10.4708 8.97588 10.7625 8.62588C11.0542 8.27588 11.5 8.10088 12.1 8.10088C12.6333 8.10088 13.0333 8.24671 13.3 8.53838C13.5667 8.83005 13.7 9.15088 13.7 9.50088C13.7 9.83421 13.6 10.1467 13.4 10.4384C13.2 10.73 12.95 11.0009 12.65 11.2509C11.9167 11.9009 11.4667 12.3925 11.3 12.7259C11.1333 13.0592 11.05 13.6675 11.05 14.5509ZM12 22.4009C10.6167 22.4009 9.31667 22.1384 8.1 21.6134C6.88333 21.0884 5.825 20.3759 4.925 19.4759C4.025 18.5759 3.3125 17.5175 2.7875 16.3009C2.2625 15.0842 2 13.7842 2 12.4009C2 11.0175 2.2625 9.71755 2.7875 8.50088C3.3125 7.28421 4.025 6.22588 4.925 5.32588C5.825 4.42588 6.88333 3.71338 8.1 3.18838C9.31667 2.66338 10.6167 2.40088 12 2.40088C13.3833 2.40088 14.6833 2.66338 15.9 3.18838C17.1167 3.71338 18.175 4.42588 19.075 5.32588C19.975 6.22588 20.6875 7.28421 21.2125 8.50088C21.7375 9.71755 22 11.0175 22 12.4009C22 13.7842 21.7375 15.0842 21.2125 16.3009C20.6875 17.5175 19.975 18.5759 19.075 19.4759C18.175 20.3759 17.1167 21.0884 15.9 21.6134C14.6833 22.1384 13.3833 22.4009 12 22.4009Z" fill="#3C68B0"/>
</g>
</svg>
