<svg width="188" height="194" viewBox="0 0 188 194" fill="none" xmlns="http://www.w3.org/2000/svg">
<rect width="184" height="194" fill="white"/>
<path d="M67 162.347L69.1787 153L103 162.347L100.925 173L67 162.347Z" fill="white"/>
<g style="mix-blend-mode:multiply">
<path d="M29.3538 110.655L21.3168 111.082L20.6328 74.3599L28.7981 75.5996L29.3538 110.655Z" fill="#E6E6E6"/>
</g>
<path d="M87.6652 71.582L77.5762 67.5208V109.972L79.3717 110.014L79.8419 107.364L87.6224 106.594V105.312L82.4069 105.654L82.6207 93.8548L87.4942 93.47" fill="#E6E6E6"/>
<path d="M86.8528 120.957L86.7245 157.038L86.81 159.432L85.1855 160.758L112.546 161.912L129.218 162.297V119.162L86.81 120.915L86.8528 120.957ZM98.7373 159.219V127.797L126.311 127.156L126.867 159.689L98.7373 159.219Z" fill="#F41BA2"/>
<path d="M77.3189 164.734H21.3164V114.802H21.9577V164.135H77.3189V164.734Z" fill="#081017"/>
<path d="M74.5391 113.605V47.3L131.14 39.6477V111.254H130.841L74.5391 113.605ZM75.1803 47.8557V112.964L130.499 110.655V40.3745L75.1803 47.8557Z" fill="#081017"/>
<path d="M20.6328 115.144V74.1037L24.9078 69.7004V59.9534L73.3008 54.9517L73.3863 55.5929L25.5491 60.5092V69.9569L21.2741 74.3602V114.46L74.8398 112.279L74.8826 112.921L20.6328 115.144Z" fill="#081017"/>
<path d="M77.2773 110.272V67.2232L127.637 62.136V108.178L77.2773 110.315V110.272ZM77.9186 67.779V109.631L127.038 107.536V62.7772L77.9186 67.779Z" fill="#081017"/>
<path d="M88.0065 93.6837H87.3652V71.2827L127.593 67.1787L127.636 67.82L88.0065 71.8385V93.6837Z" fill="#081017"/>
<path d="M94.5905 93.128H93.9492V73.9333L127.166 70.8125L127.209 71.4538L94.5905 74.5317V93.128Z" fill="#081017"/>
<path d="M99.6354 106.039H98.9941V76.883L127.166 74.0188L127.252 74.6173L99.6354 77.4388V106.039Z" fill="#081017"/>
<path d="M127.06 90.9015L80.8027 93.6902L80.8413 94.3303L127.098 91.5416L127.06 90.9015Z" fill="#081017"/>
<path d="M127.165 103.06L80.9609 105.239L80.9911 105.879L127.195 103.7L127.165 103.06Z" fill="#081017"/>
<path d="M140.248 113.733L130.757 111.254L130.886 110.655L139.649 112.921V45.8037L130.672 40.2889L130.971 39.7332L140.248 45.4617V113.733Z" fill="#081017"/>
<path d="M78.0455 113.176H77.4043V160.8H78.0455V113.176Z" fill="#081017"/>
<path d="M84.7148 161.23V118.907L128.833 117.24V110.656H129.474V117.838L85.3133 119.506V160.161L86.3821 159.52L86.4248 120.617H87.0233V159.904L84.7148 161.23Z" fill="#081017"/>
<path d="M182.997 163.664H182.356V74.7869L139.691 47.3414L140.033 46.8284L182.997 74.4449V163.664Z" fill="#081017"/>
<path d="M136.143 112.022H135.502V162.296H136.143V112.022Z" fill="#081017"/>
<path d="M139.906 161.954H139.265V119.204L135.717 118.135L135.888 117.537L139.906 118.734V161.954Z" fill="#081017"/>
<path d="M140.025 63.9731L139.727 64.5405L182.928 87.2796L183.227 86.7122L140.025 63.9731Z" fill="#081017"/>
<path d="M132.64 170.036L76.7656 168.112V160.332L132.683 162.256L140.506 161.785V159.562L169.191 157.168L168.721 156.869V116.556L139.608 110.186L139.736 109.588L169.362 116.086V156.57L170.132 157.04V164.65L132.64 170.079V170.036ZM77.4069 167.514L132.64 169.438L169.533 164.051V157.767L141.19 160.118V162.384L132.725 162.897L77.4069 160.973V167.514Z" fill="#081017"/>
<path d="M169.234 113.435L139.993 106.424L140.164 105.825L168.593 112.665V83.809L139.736 69.787L139.993 69.2312L169.234 83.4242V113.435Z" fill="#081017"/>
<path d="M170.258 164.519V116.212L182.698 119.204L182.57 119.845L170.856 117.024V163.835L182.826 163.023L182.869 163.621L170.258 164.519Z" fill="#081017"/>
<path d="M29.4813 111.082H28.8828V75.5135H29.1393L74.8391 70.4263L74.8818 71.0675L29.4813 76.112V111.082Z" fill="#081017"/>
<path d="M74.6428 108.877L21.1641 111.053L21.1901 111.694L74.6689 109.518L74.6428 108.877Z" fill="#081017"/>
<path d="M51.7129 106.509L51.9266 81.0297L74.7551 79.106L74.7979 79.7472L52.5251 81.6282L52.3541 105.825L74.3704 104.371V104.97L51.7129 106.509Z" fill="#081017"/>
<path d="M68.4264 80.0891H67.7852V104.756H68.4264V80.0891Z" fill="#081017"/>
<path d="M74.8341 96.1336L52.127 98.0244L52.1802 98.6635L74.8873 96.7726L74.8341 96.1336Z" fill="#081017"/>
<path d="M60.4323 80.8169H59.791V97.3611H60.4323V80.8169Z" fill="#081017"/>
<path d="M29.1403 76.1148L20.9323 74.5331C20.9323 74.5331 20.6758 74.3621 20.6758 74.2338C20.6758 74.1056 20.804 73.9346 20.9323 73.9346L74.7973 67.7358L74.8828 68.3343L23.0698 74.2766L29.2685 75.4736L29.1403 76.0721V76.1148Z" fill="#081017"/>
<path d="M86.6818 121.045C86.6818 121.045 86.5108 121.045 86.468 120.96L84.8008 119.421L85.2283 118.95L86.7673 120.404L128.962 118.95V119.592L86.639 121.088L86.6818 121.045Z" fill="#081017"/>
<path d="M129.473 117.537H128.832V162.51H129.473V117.537Z" fill="#081017"/>
<path d="M127.208 159.99L98.4375 159.519V127.5L126.653 126.858L127.208 160.032V159.99ZM99.036 158.878L126.524 159.306L125.969 127.414L98.9933 128.055V158.878H99.036Z" fill="#081017"/>
<path d="M112.88 127.833L112.678 159.125L113.319 159.129L113.521 127.837L112.88 127.833Z" fill="#081017"/>
<path d="M76.7654 162.641L56.1172 162.512V124.08L77.5349 123.396L77.5777 123.995L56.7584 124.679V161.871L76.7654 161.999V162.641Z" fill="#081017"/>
<path d="M58.9811 161.957H58.3398V125.192L77.7056 124.465V125.106L58.9811 125.79V161.957Z" fill="#081017"/>
<path d="M56.5653 124.096L56.2773 124.669L58.4928 125.783L58.7808 125.21L56.5653 124.096Z" fill="#081017"/>
<path d="M153.628 145.498H146.531V127.671L153.628 128.654V145.498ZM147.13 144.857H152.987V129.167L147.13 128.355V144.814V144.857Z" fill="#081017"/>
<path d="M152.516 129.508H151.875V145.069H152.516V129.508Z" fill="#081017"/>
<path d="M152.304 130.023L146.789 129.296L146.875 128.697L152.133 129.381L153.159 128.655L153.501 129.168L152.304 130.023Z" fill="#081017"/>
<path d="M149.909 129.166H149.268V145.027H149.909V129.166Z" fill="#081017"/>
<path d="M82.7506 93.9832H82.1094V105.397H82.7506V93.9832Z" fill="#081017"/>
<path d="M95.9596 93.3005H95.3184V104.715H95.9596V93.3005Z" fill="#081017"/>
<path d="M113.059 92.061H112.418V104.031H113.059V92.061Z" fill="#081017"/>
<path d="M113.829 75.6846H113.188V91.8013H113.829V75.6846Z" fill="#081017"/>
<path d="M114.641 91.8013H114V103.771H114.641V91.8013Z" fill="#081017"/>
<path d="M101.132 106.165H100.491V78.4631L99.123 77.3943L99.5078 76.9241L101.132 78.1638V106.165Z" fill="#081017"/>
<path d="M127.138 75.3937L100.764 78.0261L100.827 78.6642L127.201 76.0317L127.138 75.3937Z" fill="#081017"/>
<path d="M79.8854 109.843H79.2441V106.894L127.21 104.756L127.252 105.397L79.8854 107.492V109.843Z" fill="#081017"/>
<path d="M74.8379 47.5558V113.263L130.798 110.911V39.989L74.8379 47.5558ZM127.335 107.833L77.5739 109.928V67.4773L127.335 62.4328V107.833Z" fill="#F41BA2"/>
<path d="M74.5391 113.605V47.3L131.14 39.6477V111.254H130.841L74.5391 113.605ZM75.1803 47.8557V112.964L130.499 110.655V40.3745L75.1803 47.8557ZM77.2751 110.271V67.2215L127.635 62.1342V108.176L77.2751 110.313V110.271ZM77.9163 67.7772V109.629L127.036 107.535V62.7755L77.9163 67.7772Z" fill="#081017"/>
<g style="mix-blend-mode:multiply">
<path d="M99.2934 92.6997L94.5482 92.9134L94.4199 74.2744L99.3362 77.2242L99.2934 92.6997Z" fill="#E6E6E6"/>
</g>
<g style="mix-blend-mode:multiply">
<path d="M100.831 106.126H99.5059V77.2693L100.831 78.2953V106.126Z" fill="#E6E6E6"/>
</g>
<g style="mix-blend-mode:multiply">
<path d="M86.5959 159.604L85.0996 160.502V119.633L86.4676 120.616L86.5959 159.604Z" fill="#E6E6E6"/>
</g>
<g style="mix-blend-mode:multiply">
<path d="M58.8102 162.169L56.5017 162.126L56.459 124.335L58.8102 125.618V162.169Z" fill="#E6E6E6"/>
</g>
<g style="mix-blend-mode:multiply">
<path d="M53.7198 105.908H52.3945V81.2844L53.7198 82.3104V105.908Z" fill="#E6E6E6"/>
</g>
<path d="M54.0204 105.91H53.4219V82.013L74.7541 80.2603L74.7969 80.8588L54.0204 82.5688V105.91Z" fill="#081017"/>
<g style="mix-blend-mode:multiply">
<path d="M140.033 45.506L130.885 39.863V110.828L139.691 113.265L140.033 45.506Z" fill="#E6E6E6"/>
</g>
<g style="mix-blend-mode:multiply">
<path d="M140.162 105.782L168.762 113.007V83.4238L140.333 69.8293L140.162 105.782Z" fill="#E6E6E6"/>
</g>
<g style="mix-blend-mode:multiply">
<path d="M139.736 119.036L135.803 117.882V162.513H139.736V119.036Z" fill="#E6E6E6"/>
</g>
<g style="mix-blend-mode:multiply">
<path d="M76.763 123.48L77.8745 123.523V113.092L74.8392 113.306L74.6682 112.494L21.6582 115.016V164.435L77.1477 164.392L77.1905 162.255L56.414 162.169L56.4567 124.677L57.6537 124.25L76.763 123.48Z" fill="#E6E6E6"/>
</g>
</svg>
