<svg width="58" height="46" viewBox="0 0 58 46" fill="none" xmlns="http://www.w3.org/2000/svg">
<g style="mix-blend-mode:multiply">
<path d="M3.33344 25.16L0.513437 25.31L0.273438 12.425L3.13844 12.86L3.33344 25.16Z" fill="#E6E6E6"/>
</g>
<path d="M23.7939 11.45L20.2539 10.025V24.92L20.8839 24.935L21.0489 24.005L23.7789 23.735V23.285L21.9489 23.405L22.0239 19.265L23.7339 19.13" fill="#E6E6E6"/>
<path d="M23.5069 28.775L23.4619 41.435L23.4919 42.275L22.9219 42.74L32.5219 43.145L38.3719 43.28V28.145L23.4919 28.76L23.5069 28.775ZM27.6769 42.2V31.175L37.3519 30.95L37.5469 42.365L27.6769 42.2Z" fill="#F41BA2"/>
<path d="M20.1617 44.135H0.511719V26.615H0.736719V43.925H20.1617V44.135Z" fill="#081017"/>
<path d="M19.1875 26.195V2.93L39.0475 0.245003V25.37H38.9425L19.1875 26.195ZM19.4125 3.125V25.97L38.8225 25.16V0.500003L19.4125 3.125Z" fill="#081017"/>
<path d="M0.273438 26.735V12.335L1.77344 10.79V7.37001L18.7534 5.61501L18.7834 5.84001L1.99844 7.56501V10.88L0.498437 12.425V26.495L19.2934 25.73L19.3084 25.955L0.273438 26.735Z" fill="#081017"/>
<path d="M20.1484 25.025V9.92L37.8184 8.135V24.29L20.1484 25.04V25.025ZM20.3734 10.115V24.8L37.6084 24.065V8.36L20.3734 10.115Z" fill="#081017"/>
<path d="M23.9125 19.205H23.6875V11.345L37.8025 9.90501L37.8175 10.13L23.9125 11.54V19.205Z" fill="#081017"/>
<path d="M26.225 19.01H26V12.275L37.655 11.18L37.67 11.405L26.225 12.485V19.01Z" fill="#081017"/>
<path d="M27.9945 23.54H27.7695V13.31L37.6545 12.305L37.6845 12.515L27.9945 13.505V23.54Z" fill="#081017"/>
<path d="M37.6173 18.2281L21.3867 19.2066L21.4003 19.4312L37.6308 18.4527L37.6173 18.2281Z" fill="#081017"/>
<path d="M37.6534 22.4952L21.4414 23.2598L21.452 23.4845L37.664 22.72L37.6534 22.4952Z" fill="#081017"/>
<path d="M42.2428 26.24L38.9128 25.37L38.9578 25.16L42.0328 25.955V2.405L38.8828 0.470002L38.9878 0.275002L42.2428 2.285V26.24Z" fill="#081017"/>
<path d="M20.4203 26.045H20.1953V42.755H20.4203V26.045Z" fill="#081017"/>
<path d="M22.7578 42.905V28.055L38.2378 27.47V25.16H38.4628V27.68L22.9678 28.265V42.53L23.3428 42.305L23.3578 28.655H23.5678V42.44L22.7578 42.905Z" fill="#081017"/>
<path d="M57.2419 43.76H57.0169V12.575L42.0469 2.945L42.1669 2.765L57.2419 12.455V43.76Z" fill="#081017"/>
<path d="M40.8031 25.64H40.5781V43.28H40.8031V25.64Z" fill="#081017"/>
<path d="M42.1223 43.16H41.8973V28.16L40.6523 27.785L40.7123 27.575L42.1223 27.995V43.16Z" fill="#081017"/>
<path d="M42.1634 8.78019L42.0586 8.97929L57.217 16.9579L57.3218 16.7588L42.1634 8.78019Z" fill="#081017"/>
<path d="M39.5738 45.995L19.9688 45.32V42.59L39.5888 43.265L42.3338 43.1V42.32L52.3988 41.48L52.2338 41.375V27.23L42.0188 24.995L42.0638 24.785L52.4588 27.065V41.27L52.7288 41.435V44.105L39.5738 46.01V45.995ZM20.1938 45.11L39.5738 45.785L52.5188 43.895V41.69L42.5738 42.515V43.31L39.6038 43.49L20.1938 42.815V45.11Z" fill="#081017"/>
<path d="M52.4125 26.135L42.1525 23.675L42.2125 23.465L52.1875 25.865V15.74L42.0625 10.82L42.1525 10.625L52.4125 15.605V26.135Z" fill="#081017"/>
<path d="M52.7734 44.06V27.11L57.1384 28.16L57.0934 28.385L52.9834 27.395V43.82L57.1834 43.535L57.1984 43.745L52.7734 44.06Z" fill="#081017"/>
<path d="M3.37797 25.31H3.16797V12.83H3.25797L19.293 11.045L19.308 11.27L3.37797 13.04V25.31Z" fill="#081017"/>
<path d="M19.2254 24.536L0.460938 25.2995L0.470085 25.5243L19.2346 24.7608L19.2254 24.536Z" fill="#081017"/>
<path d="M11.1797 23.705L11.2547 14.765L19.2647 14.09L19.2797 14.315L11.4647 14.975L11.4047 23.465L19.1297 22.955V23.165L11.1797 23.705Z" fill="#081017"/>
<path d="M17.0453 14.435H16.8203V23.09H17.0453V14.435Z" fill="#081017"/>
<path d="M19.2916 20.0652L11.3242 20.7286L11.3429 20.9528L19.3103 20.2894L19.2916 20.0652Z" fill="#081017"/>
<path d="M14.2367 14.69H14.0117V20.495H14.2367V14.69Z" fill="#081017"/>
<path d="M3.25906 13.04L0.379063 12.485C0.379063 12.485 0.289062 12.425 0.289062 12.38C0.289062 12.335 0.334063 12.275 0.379063 12.275L19.2791 10.1L19.3091 10.31L1.12906 12.395L3.30406 12.815L3.25906 13.025V13.04Z" fill="#081017"/>
<path d="M23.4491 28.805C23.4491 28.805 23.3891 28.805 23.3741 28.775L22.7891 28.235L22.9391 28.07L23.4791 28.58L38.2841 28.07V28.295L23.4341 28.82L23.4491 28.805Z" fill="#081017"/>
<path d="M38.4633 27.575H38.2383V43.355H38.4633V27.575Z" fill="#081017"/>
<path d="M37.6692 42.47L27.5742 42.305V31.07L37.4742 30.845L37.6692 42.485V42.47ZM27.7842 42.08L37.4292 42.23L37.2342 31.04L27.7692 31.265V42.08H27.7842Z" fill="#081017"/>
<path d="M32.6412 31.1871L32.5703 42.1669L32.7953 42.1683L32.8662 31.1886L32.6412 31.1871Z" fill="#081017"/>
<path d="M19.9677 43.4L12.7227 43.355V29.87L20.2377 29.63L20.2527 29.84L12.9477 30.08V43.13L19.9677 43.175V43.4Z" fill="#081017"/>
<path d="M13.7289 43.16H13.5039V30.26L20.2989 30.005V30.23L13.7289 30.47V43.16Z" fill="#081017"/>
<path d="M12.8823 29.8761L12.7812 30.0771L13.5586 30.4678L13.6596 30.2667L12.8823 29.8761Z" fill="#081017"/>
<path d="M46.9392 37.385H44.4492V31.13L46.9392 31.475V37.385ZM44.6592 37.16H46.7142V31.655L44.6592 31.37V37.145V37.16Z" fill="#081017"/>
<path d="M46.5492 31.775H46.3242V37.235H46.5492V31.775Z" fill="#081017"/>
<path d="M46.4741 31.955L44.5391 31.7L44.5691 31.49L46.4141 31.73L46.7741 31.475L46.8941 31.655L46.4741 31.955Z" fill="#081017"/>
<path d="M45.6352 31.655H45.4102V37.22H45.6352V31.655Z" fill="#081017"/>
<path d="M22.0688 19.31H21.8438V23.315H22.0688V19.31Z" fill="#081017"/>
<path d="M26.7016 19.07H26.4766V23.075H26.7016V19.07Z" fill="#081017"/>
<path d="M32.7016 18.635H32.4766V22.835H32.7016V18.635Z" fill="#081017"/>
<path d="M32.975 12.89H32.75V18.545H32.975V12.89Z" fill="#081017"/>
<path d="M33.2602 18.545H33.0352V22.745H33.2602V18.545Z" fill="#081017"/>
<path d="M28.5175 23.585H28.2925V13.865L27.8125 13.49L27.9475 13.325L28.5175 13.76V23.585Z" fill="#081017"/>
<path d="M37.6446 12.7877L28.3906 13.7114L28.413 13.9353L37.667 13.0116L37.6446 12.7877Z" fill="#081017"/>
<path d="M21.0648 24.875H20.8398V23.84L37.6698 23.09L37.6848 23.315L21.0648 24.05V24.875Z" fill="#081017"/>
<path d="M19.293 3.02001V26.075L38.928 25.25V0.365005L19.293 3.02001ZM37.713 24.17L20.253 24.905V10.01L37.713 8.24001V24.17Z" fill="#F41BA2"/>
<path d="M19.1875 26.195V2.93L39.0475 0.245003V25.37H38.9425L19.1875 26.195ZM19.4125 3.125V25.97L38.8225 25.16V0.500003L19.4125 3.125ZM20.1475 25.025V9.92L37.8175 8.135V24.29L20.1475 25.04V25.025ZM20.3725 10.115V24.8L37.6075 24.065V8.36L20.3725 10.115Z" fill="#081017"/>
<g style="mix-blend-mode:multiply">
<path d="M27.8741 18.86L26.2091 18.935L26.1641 12.395L27.8891 13.43L27.8741 18.86Z" fill="#E6E6E6"/>
</g>
<g style="mix-blend-mode:multiply">
<path d="M28.4142 23.57H27.9492V13.445L28.4142 13.805V23.57Z" fill="#E6E6E6"/>
</g>
<g style="mix-blend-mode:multiply">
<path d="M23.4195 42.335L22.8945 42.65V28.31L23.3745 28.655L23.4195 42.335Z" fill="#E6E6E6"/>
</g>
<g style="mix-blend-mode:multiply">
<path d="M13.6688 43.235L12.8588 43.22L12.8438 29.96L13.6688 30.41V43.235Z" fill="#E6E6E6"/>
</g>
<g style="mix-blend-mode:multiply">
<path d="M11.883 23.495H11.418V14.855L11.883 15.215V23.495Z" fill="#E6E6E6"/>
</g>
<path d="M11.9873 23.495H11.7773V15.11L19.2623 14.495L19.2773 14.705L11.9873 15.305V23.495Z" fill="#081017"/>
<g style="mix-blend-mode:multiply">
<path d="M42.167 2.3L38.957 0.32V25.22L42.047 26.075L42.167 2.3Z" fill="#E6E6E6"/>
</g>
<g style="mix-blend-mode:multiply">
<path d="M42.2148 23.45L52.2498 25.985V15.605L42.2748 10.835L42.2148 23.45Z" fill="#E6E6E6"/>
</g>
<g style="mix-blend-mode:multiply">
<path d="M42.0636 28.1L40.6836 27.695V43.355H42.0636V28.1Z" fill="#E6E6E6"/>
</g>
<g style="mix-blend-mode:multiply">
<path d="M19.9678 29.66L20.3578 29.675V26.015L19.2928 26.09L19.2328 25.805L0.632812 26.69V44.03L20.1028 44.015L20.1178 43.265L12.8278 43.235L12.8428 30.08L13.2628 29.93L19.9678 29.66Z" fill="#E6E6E6"/>
</g>
</svg>
