<svg width="120" height="108" viewBox="0 0 120 108" fill="none" xmlns="http://www.w3.org/2000/svg">
<path d="M54.4375 24.6644V9.19414C54.4375 9.14124 54.4493 9.08834 54.4728 9.03544L58.438 1.1651C58.4969 1.04754 58.6145 0.977008 58.744 0.97113C58.8734 0.97113 58.9969 1.04166 59.0558 1.15921L63.021 8.80621C63.0446 8.85323 63.0622 8.91201 63.0622 8.96491V21.5904H66.3686V20.3502C66.3686 20.1562 66.5215 20.0034 66.7157 20.0034H72.6635V22.0371" stroke="#E6E6E6" stroke-width="0.49691" stroke-linecap="round" stroke-linejoin="round"/>
<path d="M114.398 79.2513V20.5323C114.398 20.3383 114.246 20.1855 114.051 20.1855H106.45C106.256 20.1855 106.103 20.3383 106.103 20.5323V18.6866H98.308C98.1139 18.6866 97.9609 18.8395 97.9609 19.0334V37.4897" stroke="#E6E6E6" stroke-width="0.49691" stroke-linecap="round" stroke-linejoin="round"/>
<path d="M91.3129 3.4339C91.6188 1.74698 93.0955 0.471497 94.8722 0.471497C96.2312 0.471497 97.4137 1.21798 98.0315 2.32888C98.2668 2.28773 98.508 2.26422 98.7551 2.26422C100.967 2.26422 102.773 4.00992 102.867 6.20233C103.315 5.77913 103.915 5.52051 104.579 5.52051C105.956 5.52051 107.068 6.63141 107.068 8.00681C107.068 9.38221 105.956 10.4931 104.579 10.4931H92.4189C90.4245 10.4931 88.8008 8.87672 88.8008 6.87828C88.8008 5.26777 89.8598 3.90412 91.3129 3.4339Z" fill="#E6E6E6" stroke="#E6E6E6" stroke-width="0.423835" stroke-linecap="round" stroke-linejoin="round"/>
<path d="M28.3739 39.1649H2.64683C1.79966 39.1649 1.11133 38.4772 1.11133 37.6308C1.11133 36.7844 1.79966 36.0967 2.64683 36.0967H15.8781" stroke="#F6B4DD" stroke-width="0.43845" stroke-linecap="round" stroke-linejoin="round"/>
<g style="mix-blend-mode:multiply">
<path d="M17.6078 61.7649L13.0484 62.0177L12.6719 41.2691L17.2902 41.9627L17.6078 61.7649Z" fill="#E6E6E6"/>
</g>
<path d="M50.5914 39.6763L44.8906 37.3781V61.3711L45.8849 61.3947L46.1673 59.9076L50.5561 59.4726V58.7379L47.6145 58.9319L47.7263 52.2665L50.4914 52.049" fill="#E6E6E6"/>
<path d="M13.4304 95.862C13.4304 95.862 13.6305 93.9517 14.0305 93.8518C14.4306 93.7519 13.1304 94.657 12.7303 95.3624C12.3303 96.0677 10.8301 94.3573 10.8301 94.3573C10.8301 94.3573 11.6302 95.5622 11.8302 95.9678" stroke="#E6E6E6" stroke-width="0.49691" stroke-linecap="round" stroke-linejoin="round"/>
<path d="M116.735 98.7655C116.735 98.7655 116.935 96.8553 117.341 96.7553C117.747 96.6554 116.435 97.5606 116.029 98.2659C115.629 98.9713 114.117 97.2608 114.117 97.2608C114.117 97.2608 114.923 98.4658 115.123 98.8714" stroke="#E6E6E6" stroke-width="0.49691" stroke-linecap="round" stroke-linejoin="round"/>
<path d="M104.815 99.8118C104.815 99.8118 104.98 98.2659 105.304 98.1837C105.627 98.1014 104.568 98.8361 104.245 99.4062C103.921 99.9764 102.697 98.5892 102.697 98.5892C102.697 98.5892 103.35 99.5649 103.515 99.8941" stroke="#E6E6E6" stroke-width="0.49691" stroke-linecap="round" stroke-linejoin="round"/>
<path d="M52.1024 97.1492C52.1024 97.1492 52.3024 95.2389 52.7083 95.139C53.1143 95.0391 51.8023 95.9443 51.3964 96.6496C50.9963 97.3549 49.4844 95.6445 49.4844 95.6445C49.4844 95.6445 50.2904 96.8495 50.4904 97.255" stroke="#E6E6E6" stroke-width="0.49691" stroke-linecap="round" stroke-linejoin="round"/>
<path d="M32.2098 101.781C32.2098 101.781 32.4098 99.8705 32.8158 99.7705C33.2217 99.6706 31.9098 100.576 31.5038 101.281C31.1038 101.986 29.5918 100.276 29.5918 100.276C29.5918 100.276 30.3978 101.481 30.5978 101.887" stroke="#F6B4DD" stroke-width="0.43845" stroke-linecap="round" stroke-linejoin="round"/>
<path d="M6.33668 101.593C6.33668 101.593 6.53671 99.6825 6.93677 99.5826C7.33682 99.4826 6.03664 100.388 5.63659 101.093C5.23653 101.798 3.73633 100.088 3.73633 100.088C3.73633 100.088 4.53644 101.293 4.73647 101.699" stroke="#F6B4DD" stroke-width="0.43845" stroke-linecap="round" stroke-linejoin="round"/>
<path d="M45.7256 106.383C45.7256 106.383 45.8551 105.125 46.1198 105.061C46.3846 104.996 45.5315 105.59 45.2668 106.054C45.002 106.518 44.0195 105.396 44.0195 105.396C44.0195 105.396 44.5431 106.189 44.6784 106.454" stroke="#E6E6E6" stroke-width="0.49691" stroke-linecap="round" stroke-linejoin="round"/>
<path d="M118.857 91.4594C118.857 91.4594 118.986 90.2016 119.251 90.1369C119.515 90.0723 118.657 90.6659 118.392 91.1303C118.127 91.5946 117.133 90.472 117.133 90.472C117.133 90.472 117.662 91.2655 117.792 91.53" stroke="#E6E6E6" stroke-width="0.49691" stroke-linecap="round" stroke-linejoin="round"/>
<path d="M76.2882 107.041C76.2882 107.041 76.4177 105.784 76.6824 105.719C76.9471 105.654 76.0882 106.248 75.8234 106.712C75.5587 107.177 74.5645 106.054 74.5645 106.054C74.5645 106.054 75.0939 106.848 75.2234 107.112" stroke="#E6E6E6" stroke-width="0.49691" stroke-linecap="round" stroke-linejoin="round"/>
<path d="M92.6847 95.3798C92.6847 95.3798 92.8141 94.122 93.0789 94.0574C93.3436 93.9927 92.4847 94.5864 92.2199 95.0507C91.9552 95.515 90.9609 94.3924 90.9609 94.3924C90.9609 94.3924 91.4904 95.1859 91.6199 95.4504" stroke="#F6B4DD" stroke-width="0.43845" stroke-linecap="round" stroke-linejoin="round"/>
<path d="M50.117 67.5841L50.0523 87.98L50.1053 89.326L49.1875 90.0725L64.6543 90.7308L74.0968 90.9482L74.1262 66.579L50.117 67.5782V67.5841ZM56.8474 89.1967V71.4399L72.4495 71.0814L72.7613 89.4553L56.8474 89.1967Z" fill="#F41BA2"/>
<path d="M13.248 64.1102V92.1531H44.7406" stroke="#081017" stroke-width="0.43845" stroke-miterlimit="10"/>
<path d="M43.3418 63.2521V26.1163L74.9873 21.8431V61.9296L43.3418 63.2521Z" stroke="#081017" stroke-width="0.43845" stroke-miterlimit="10"/>
<path d="M42.4811 30.4657L15.2656 33.2635V38.7005L12.8594 41.1868V64.1101L43.34 62.864" stroke="#081017" stroke-width="0.43845" stroke-miterlimit="10"/>
<path d="M44.8867 37.3781V61.3712L73.0141 60.1839V34.5333L44.8867 37.3781Z" stroke="#081017" stroke-width="0.43845" stroke-miterlimit="10"/>
<path d="M73.1753 37.3779L50.5898 39.6761V52.1841" stroke="#081017" stroke-width="0.43845" stroke-miterlimit="10"/>
<path d="M54.3184 51.8668V41.181L72.9386 39.4412" stroke="#081017" stroke-width="0.43845" stroke-miterlimit="10"/>
<path d="M72.9525 41.2281L57.168 42.8445V59.1553" stroke="#081017" stroke-width="0.43845" stroke-miterlimit="10"/>
<path d="M46.707 52.3429L72.8577 50.7618" stroke="#081017" stroke-width="0.43845" stroke-miterlimit="10"/>
<path d="M46.7949 58.879L72.9397 57.6506" stroke="#081017" stroke-width="0.43845" stroke-miterlimit="10"/>
<path d="M74.9863 21.8431L80.1517 25.0289V63.2697L74.9863 61.9296" stroke="#081017" stroke-width="0.43845" stroke-miterlimit="10"/>
<path d="M44.9648 63.1934V90.1077" stroke="#081017" stroke-width="0.43845" stroke-miterlimit="10"/>
<path d="M74.0443 61.765V65.6444L49.0879 66.5965V90.0371L50.0351 89.4787L50.0527 67.3959" stroke="#081017" stroke-width="0.43845" stroke-miterlimit="10"/>
<path d="M80.0918 25.8459L104.319 41.4103V87.7448" stroke="#081017" stroke-width="0.43845" stroke-miterlimit="10"/>
<path d="M77.8086 62.5409V65.8266V90.9541" stroke="#081017" stroke-width="0.43845" stroke-miterlimit="10"/>
<path d="M79.9501 90.7424V66.4613L77.8086 65.8265" stroke="#081017" stroke-width="0.43845" stroke-miterlimit="10"/>
<path d="M80.0918 35.5561L104.53 48.4049" stroke="#081017" stroke-width="0.43845" stroke-miterlimit="10"/>
<path d="M80.0104 61.295L96.6185 64.9275V87.7626L97.0421 88.033V92.0828L75.998 95.1392L44.5996 94.0577V90.0079L76.0451 91.0953L80.6575 90.8132V89.5377L97.1362 88.1741" stroke="#081017" stroke-width="0.43845" stroke-miterlimit="10"/>
<path d="M80.1113 38.5126L96.5312 46.4828V63.117L80.229 59.2082" stroke="#081017" stroke-width="0.43845" stroke-miterlimit="10"/>
<path d="M104.291 66.7787L97.4668 65.1329V87.9622L104.421 87.4861" stroke="#081017" stroke-width="0.43845" stroke-miterlimit="10"/>
<path d="M97.5293 89.3612V92.0591H106.042L110.272 91.2597V90.6367H103.789V88.9203L97.5293 89.3612Z" stroke="#081017" stroke-width="0.43845" stroke-miterlimit="10"/>
<path d="M43.3408 39.2237L17.5078 42.0803V62.006" stroke="#081017" stroke-width="0.43845" stroke-miterlimit="10"/>
<path d="M12.9766 62.1764L43.2337 60.9304" stroke="#081017" stroke-width="0.43845" stroke-miterlimit="10"/>
<path d="M43.0628 58.3794L30.4258 59.2317L30.5376 45.1896L39.4976 44.4373L43.2864 44.114" stroke="#081017" stroke-width="0.43845" stroke-miterlimit="10"/>
<path d="M39.5176 58.4441V44.4962" stroke="#081017" stroke-width="0.43845" stroke-miterlimit="10"/>
<path d="M30.4844 54.788L43.3332 53.7241" stroke="#081017" stroke-width="0.43845" stroke-miterlimit="10"/>
<path d="M34.998 44.9076V54.2591" stroke="#081017" stroke-width="0.43845" stroke-miterlimit="10"/>
<path d="M17.5071 42.0802L12.8594 41.1868L43.3165 37.7012" stroke="#081017" stroke-width="0.43845" stroke-linejoin="round"/>
<path d="M73.956 66.6318L50.0174 67.4664L49.0879 66.5965" stroke="#081017" stroke-width="0.43845" stroke-linejoin="round"/>
<path d="M74.0449 65.6443V91.0539" stroke="#081017" stroke-width="0.43845" stroke-miterlimit="10"/>
<path d="M56.8496 89.1966V71.4398L72.4518 71.0813L72.7636 89.4552L56.8496 89.1966Z" stroke="#081017" stroke-width="0.43845" stroke-miterlimit="10"/>
<path d="M65.0376 71.4691L64.9082 89.1436" stroke="#081017" stroke-width="0.43845" stroke-miterlimit="10"/>
<path d="M44.4117 90.9541L32.916 90.8777V69.5119L44.8647 69.1357" stroke="#081017" stroke-width="0.43845" stroke-miterlimit="10"/>
<path d="M44.9537 69.7529L34.1816 70.1467V90.7601" stroke="#081017" stroke-width="0.43845" stroke-miterlimit="10"/>
<path d="M32.916 69.5118L34.1809 70.1466" stroke="#081017" stroke-width="0.43845" stroke-miterlimit="10"/>
<path d="M87.7101 72.0863V81.2851L84.0449 81.2792V71.5867L87.7101 72.0863Z" stroke="#081017" stroke-width="0.43845" stroke-miterlimit="10"/>
<path d="M87.0781 81.2204V72.4214" stroke="#081017" stroke-width="0.43845" stroke-miterlimit="10"/>
<path d="M84.0449 72.1333L87.0865 72.533L87.7101 72.0863" stroke="#081017" stroke-width="0.43845" stroke-miterlimit="10"/>
<path d="M85.5918 72.2216V81.197" stroke="#081017" stroke-width="0.43845" stroke-miterlimit="10"/>
<path d="M47.6113 52.3489V58.8086" stroke="#081017" stroke-width="0.43845" stroke-miterlimit="10"/>
<path d="M55.082 51.955V58.4147" stroke="#081017" stroke-width="0.43845" stroke-miterlimit="10"/>
<path d="M64.7598 51.2615V58.021" stroke="#081017" stroke-width="0.43845" stroke-miterlimit="10"/>
<path d="M65.2031 41.9921V51.0909" stroke="#081017" stroke-width="0.43845" stroke-miterlimit="10"/>
<path d="M65.6504 51.1146V57.8682" stroke="#081017" stroke-width="0.43845" stroke-miterlimit="10"/>
<path d="M58.0269 59.2257V43.4968L57.168 42.8444" stroke="#081017" stroke-width="0.43845" stroke-miterlimit="10"/>
<path d="M72.949 42.0157L58.0234 43.497" stroke="#081017" stroke-width="0.43845" stroke-miterlimit="10"/>
<path d="M46.0059 61.3124V59.8136L72.9507 58.6086" stroke="#081017" stroke-width="0.43845" stroke-miterlimit="10"/>
<path d="M43.3418 26.1163V63.2521L74.9873 61.9296V21.8431L43.3418 26.1163ZM73.0165 60.1839L44.8832 61.3712V37.384L73.0165 34.5333V60.1839Z" fill="#F41BA2" stroke="#081017" stroke-width="0.43845" stroke-miterlimit="10"/>
<mask id="mask0_2634_10507" style="mask-type:luminance" maskUnits="userSpaceOnUse" x="2" y="54" width="10" height="23">
<path d="M8.72434 54.9938H5.42977C4.08461 54.9938 2.99414 56.0833 2.99414 57.4272V73.9203C2.99414 75.2642 4.08461 76.3537 5.42977 76.3537H8.72434C10.0695 76.3537 11.16 75.2642 11.16 73.9203V57.4272C11.16 56.0833 10.0695 54.9938 8.72434 54.9938Z" fill="white"/>
</mask>
<g mask="url(#mask0_2634_10507)">
<path d="M7.19765 50.3664L-19.959 77.4982L7.19765 104.63L34.3543 77.4982L7.19765 50.3664Z" fill="white" stroke="#F6B4DD" stroke-width="0.43845" stroke-miterlimit="10"/>
<path d="M7.19375 53.6291L-16.6973 77.4982L7.19375 101.367L31.0848 77.4982L7.19375 53.6291Z" fill="white" stroke="#F6B4DD" stroke-width="0.43845" stroke-miterlimit="10"/>
<path d="M7.19792 56.8833L-13.4316 77.494L7.19792 98.1047L27.8275 77.494L7.19792 56.8833Z" fill="white" stroke="#F6B4DD" stroke-width="0.43845" stroke-miterlimit="10"/>
<path d="M7.19402 60.146L-10.1699 77.494L7.19403 94.8421L24.558 77.494L7.19402 60.146Z" fill="white" stroke="#F6B4DD" stroke-width="0.43845" stroke-miterlimit="10"/>
<path d="M7.19233 63.4044L-6.91016 77.494L7.19232 91.5836L21.2948 77.494L7.19233 63.4044Z" fill="white" stroke="#F6B4DD" stroke-width="0.43845" stroke-miterlimit="10"/>
<path d="M7.19454 66.6629L-3.64648 77.494L7.19454 88.3251L18.0356 77.494L7.19454 66.6629Z" fill="white" stroke="#F6B4DD" stroke-width="0.43845" stroke-miterlimit="10"/>
<path d="M7.19259 69.9298L-0.382812 77.4982L7.19259 85.0667L14.768 77.4982L7.19259 69.9298Z" fill="white" stroke="#F6B4DD" stroke-width="0.43845" stroke-miterlimit="10"/>
<path d="M7.1948 73.1882L2.88086 77.4982L7.1948 81.8082L11.5087 77.4982L7.1948 73.1882Z" fill="white" stroke="#F6B4DD" stroke-width="0.43845" stroke-miterlimit="10"/>
<path d="M7.19702 76.4425L6.14453 77.494L7.19702 78.5455L8.2495 77.494L7.19702 76.4425Z" fill="white" stroke="#F6B4DD" stroke-width="0.43845" stroke-miterlimit="10"/>
</g>
<g style="mix-blend-mode:multiply">
<path d="M7.28125 54.8176V93.129" stroke="#E6E6E6" stroke-width="1.89995" stroke-miterlimit="10"/>
</g>
<g style="mix-blend-mode:multiply">
<path d="M57.1615 51.626L54.467 51.7494L54.4082 41.2164L57.1909 42.8622L57.1615 51.626Z" fill="#E6E6E6"/>
</g>
<g style="mix-blend-mode:multiply">
<path d="M58.0245 59.2141H57.2715V42.9092L58.0245 43.4734V59.2141Z" fill="#E6E6E6"/>
</g>
<g style="mix-blend-mode:multiply">
<path d="M49.9819 89.4318L49.1406 89.9373V66.8376L49.8996 67.4019L49.9819 89.4318Z" fill="#E6E6E6"/>
</g>
<g style="mix-blend-mode:multiply">
<path d="M34.2573 90.8718L32.9689 90.8483L32.9277 69.5002L34.2691 70.2115L34.2573 90.8718Z" fill="#E6E6E6"/>
</g>
<g style="mix-blend-mode:multiply">
<path d="M31.3859 59.079H30.6328V45.178L31.3859 45.7423V59.079Z" fill="#E6E6E6"/>
</g>
<path d="M31.3867 59.0791V45.7424L43.2942 44.7549" stroke="#081017" stroke-width="0.43845" stroke-miterlimit="10"/>
<g style="mix-blend-mode:multiply">
<path d="M80.1927 24.9642L75.0332 21.7549V61.8531L80.0045 63.2403L80.1927 24.9642Z" fill="#E6E6E6"/>
</g>
<g style="mix-blend-mode:multiply">
<path d="M80.2617 59.0142L96.4463 63.0993V46.3711L80.3735 38.7006L80.2617 59.0142Z" fill="#E6E6E6"/>
</g>
<path d="M105.318 79.7041V95.3507" stroke="#E6E6E6" stroke-width="1.89995" stroke-miterlimit="10"/>
<mask id="mask1_2634_10507" style="mask-type:luminance" maskUnits="userSpaceOnUse" x="92" y="52" width="27" height="27">
<path d="M105.225 78.6695C112.467 78.6695 118.338 72.8037 118.338 65.5679C118.338 58.3321 112.467 52.4664 105.225 52.4664C97.9825 52.4664 92.1113 58.3321 92.1113 65.5679C92.1113 72.8037 97.9825 78.6695 105.225 78.6695Z" fill="white"/>
</mask>
<g mask="url(#mask1_2634_10507)">
<path d="M110.807 90.4135C125.864 90.4135 138.07 79.5162 138.07 66.0736C138.07 52.6311 125.864 41.7338 110.807 41.7338C95.7508 41.7338 83.5449 52.6311 83.5449 66.0736C83.5449 79.5162 95.7508 90.4135 110.807 90.4135Z" fill="white" stroke="#29ABE2" stroke-width="0.43845" stroke-miterlimit="10"/>
<path d="M105.227 46.1385L72.666 78.6692L105.227 111.2L137.787 78.6692L105.227 46.1385Z" stroke="#F6B4DD" stroke-width="0.43845" stroke-miterlimit="10"/>
<path d="M105.225 49.6131L76.1426 78.6692L105.225 107.725L134.308 78.6692L105.225 49.6131Z" stroke="#F6B4DD" stroke-width="0.43845" stroke-miterlimit="10"/>
<path d="M105.228 53.0877L79.623 78.6692L105.228 104.251L130.833 78.6692L105.228 53.0877Z" stroke="#F6B4DD" stroke-width="0.43845" stroke-miterlimit="10"/>
<path d="M105.227 56.5623L83.0996 78.6692L105.227 100.776L127.354 78.6692L105.227 56.5623Z" stroke="#F6B4DD" stroke-width="0.43845" stroke-miterlimit="10"/>
<path d="M105.226 60.0369L86.5762 78.6692L105.226 97.3015L123.875 78.6692L105.226 60.0369Z" stroke="#F6B4DD" stroke-width="0.43845" stroke-miterlimit="10"/>
<path d="M105.228 63.5115L90.0566 78.6692L105.228 93.8269L120.4 78.6692L105.228 63.5115Z" stroke="#F6B4DD" stroke-width="0.43845" stroke-miterlimit="10"/>
<path d="M105.227 66.9861L93.5332 78.6692L105.227 90.3523L116.921 78.6692L105.227 66.9861Z" stroke="#F6B4DD" stroke-width="0.43845" stroke-miterlimit="10"/>
<path d="M105.226 70.4607L97.0098 78.6692L105.226 86.8777L113.442 78.6692L105.226 70.4607Z" stroke="#F6B4DD" stroke-width="0.43845" stroke-miterlimit="10"/>
<path d="M105.229 73.9353L100.49 78.6692L105.229 83.4031L109.967 78.6692L105.229 73.9353Z" stroke="#F6B4DD" stroke-width="0.43845" stroke-miterlimit="10"/>
<path d="M105.227 77.4099L103.967 78.6692L105.227 79.9285L106.488 78.6692L105.227 77.4099Z" stroke="#F6B4DD" stroke-width="0.43845" stroke-miterlimit="10"/>
</g>
<g style="mix-blend-mode:multiply">
<path d="M80.0226 66.5024L77.8164 65.8323V91.0715H80.0226V66.5024Z" fill="#E6E6E6"/>
</g>
<g style="mix-blend-mode:multiply">
<path d="M44.4288 69.0064L45.0348 69.03L45.0465 63.1463L43.3404 63.2521L43.2345 62.7936L13.2598 64.2278L13.248 92.1531L44.6347 92.1179L44.6465 90.9306L32.9155 90.8777L32.9272 69.6883L33.6038 69.4414L44.4288 69.0064Z" fill="#E6E6E6"/>
</g>
</svg>
