<svg width="80" height="91" viewBox="0 0 80 91" fill="none" xmlns="http://www.w3.org/2000/svg">
<path d="M22.8125 72.6957H77.6474C78.6377 72.6957 79.4338 71.8748 79.4338 70.8685C79.4338 69.8556 78.6312 69.0413 77.6474 69.0413H40.56" stroke="#F41BA2" stroke-width="0.439785" stroke-linecap="round" stroke-linejoin="round"/>
<path d="M49.1428 88.9877C49.2269 89.001 49.3111 89.001 49.3887 88.9877C50.2302 88.8421 50.2302 87.6041 49.3887 87.4585C49.3046 87.4452 49.2205 87.4452 49.1428 87.4585C48.3014 87.6041 48.3014 88.8421 49.1428 88.9877Z" stroke="#F6B4DD" stroke-width="0.439785" stroke-linecap="round" stroke-linejoin="round"/>
<path d="M45.66 82.5265L46.0807 82.4007C46.0807 82.4007 45.8607 83.7843 45.7959 83.824C46.6827 83.3937 46.7409 83.6386 46.9869 84.0689C47.2328 84.4993 48.5403 85.6777 51.0775 86.8693C52.0678 87.5909 52.2684 87.8822 52.0872 88.5574C51.1811 89.2194 47.8801 89.2393 45.2199 89.0738C42.5597 88.9083 40.5273 87.6703 40.5273 87.6703C40.5273 87.6703 40.7086 84.6383 41.1487 84.5191C41.3105 83.8836 41.1681 82.1491 41.1681 82.1491C41.1681 82.1491 44.5921 82.5 45.66 82.5198V82.5265Z" fill="white"/>
<path d="M47.5069 62.5997C47.2092 73.0662 47.2092 82.0166 47.2092 82.0166C47.2092 82.0166 45.7982 83.2281 40.2383 82.0166C39.9406 78.1504 38.9762 61.236 39.4228 58.8858" fill="white"/>
<path d="M47.5069 62.5997C47.2092 73.0662 47.2092 82.0166 47.2092 82.0166C47.2092 82.0166 45.7982 83.2281 40.2383 82.0166C39.9406 78.1504 38.9762 61.236 39.4228 58.8858" stroke="black" stroke-width="0.439785" stroke-linecap="round" stroke-linejoin="round"/>
<path d="M61.5113 84.976L65.1747 87.1606C65.1747 87.1606 66.165 87.8624 65.233 88.2927C64.3009 88.723 56.2686 88.0014 56.2686 88.0014C56.2686 88.0014 52.5792 88.1073 52.7022 86.5781C52.8252 85.0554 52.8835 84.1087 53.4854 84.1485C54.0873 84.1882 56.6051 84.3537 56.9093 84.2279C57.2135 84.1021 58.5404 83.0098 59.2459 83.1753C59.9514 83.3408 60.6181 84.8039 61.5048 84.9694L61.5113 84.976Z" fill="white"/>
<path d="M46.4486 55.6157C47.1282 57.1582 47.5878 59.3892 47.4972 62.5933C47.1994 73.0598 47.1994 82.0102 47.1994 82.0102C47.1994 82.0102 45.7884 83.2217 40.2286 82.0102C39.9308 78.1441 38.9664 61.2296 39.413 58.8794" stroke="black" stroke-width="0.439785" stroke-linecap="round" stroke-linejoin="round"/>
<path d="M52.1692 87.8558C52.1692 87.8558 52.2921 89.3784 51.9879 89.5704C51.6837 89.7624 49.1142 90.954 43.3019 89.438C41.3019 89.16 40.674 88.915 40.674 88.915L40.4863 87.4652L47.7808 88.9547C47.7808 88.9547 51.6125 89.4049 52.1692 87.8492V87.8558Z" fill="#E10098"/>
<path d="M64.4365 89.2393C64.4365 89.2393 66.0222 88.3059 65.5821 88.2264C64.7277 88.3324 52.8054 87.0878 52.8054 87.0878C52.8054 87.0878 52.0546 88.7031 54.8766 88.7561C57.6986 88.809 64.307 89.4445 64.4365 89.2327V89.2393Z" fill="#E10098"/>
<path d="M53.498 84.2874L53.6922 82.2087C53.6922 82.2087 57.3298 82.1624 58.0547 82.0631C58.7796 81.9638 57.8605 84.0491 57.8605 84.0491L53.498 84.2941V84.2874Z" fill="white"/>
<path d="M38.9685 63.4141C37.2274 63.4141 35.4799 63.4141 33.7388 63.4141C30.1983 63.4141 26.6579 63.4141 23.1174 63.4208C22.7032 63.4208 22.3472 63.3082 22.1595 62.964C21.8359 62.3748 21.8682 61.726 22.0495 61.0971C22.2048 60.5476 22.7032 60.4616 23.1757 60.3755C23.6935 60.1967 23.1174 59.9386 23.1174 59.9386C22.3278 59.4619 22.0818 58.694 21.9912 57.8334L21.7129 55.5428" stroke="black" stroke-width="0.439785" stroke-linecap="round" stroke-linejoin="round"/>
<path d="M23.8153 63.5201C23.6535 64.4204 23.4787 65.3208 23.3299 66.2211C23.1551 67.287 23.0127 68.3528 22.838 69.4186C22.5985 70.8751 22.3461 72.3249 22.0807 73.7747C21.9124 74.7148 21.7182 75.6482 21.5435 76.5883C21.2652 78.0977 20.9998 79.6004 20.7344 81.1098C20.7344 81.1098 19.7894 86.6244 19.7182 87.1739C19.7053 87.2798 19.783 87.4917 19.8218 87.4917C20.3784 87.4917 20.9351 87.4718 21.4917 87.4387C21.5305 87.4387 21.5758 87.2666 21.5953 87.1739C21.6923 86.7171 22.2943 83.1488 22.2943 83.1488C22.5791 81.8116 23.5241 76.4426 23.7571 75.0987C24.0224 73.5761 24.2943 72.0468 24.5661 70.5242C24.7991 69.1803 25.0386 67.843 25.2652 66.4991C25.4334 65.5061 25.5888 64.5131 25.7506 63.5201" fill="white"/>
<path d="M23.8153 63.5201C23.6535 64.4204 23.4787 65.3208 23.3299 66.2211C23.1551 67.287 23.0127 68.3528 22.838 69.4186C22.5985 70.8751 22.3461 72.3249 22.0807 73.7747C21.9124 74.7148 21.7182 75.6482 21.5435 76.5883C21.2652 78.0977 20.9998 79.6004 20.7344 81.1098C20.7344 81.1098 19.7894 86.6244 19.7182 87.1739C19.7053 87.2798 19.783 87.4917 19.8218 87.4917C20.3784 87.4917 20.9351 87.4718 21.4917 87.4387C21.5305 87.4387 21.5758 87.2666 21.5953 87.1739C21.6923 86.7171 22.2943 83.1488 22.2943 83.1488C22.5791 81.8116 23.5241 76.4426 23.7571 75.0987C24.0224 73.5761 24.2943 72.0468 24.5661 70.5242C24.7991 69.1803 25.0386 67.843 25.2652 66.4991C25.4334 65.5061 25.5888 64.5131 25.7506 63.5201" stroke="black" stroke-width="0.439785" stroke-linecap="round" stroke-linejoin="round"/>
<path d="M36.3259 63.5201C36.4359 65.7974 36.5395 68.0814 36.6495 70.3587C36.6884 71.1465 36.7272 71.9409 36.7596 72.7287C36.8372 74.6949 36.8955 76.6611 36.9796 78.6273C37.0573 80.3353 37.1609 82.0433 37.245 83.7579C37.3097 85.1746 37.3421 86.5913 37.4197 88.0014C37.4392 88.3721 37.2515 88.4781 36.9796 88.4913C36.6042 88.5045 36.2223 88.4582 35.8469 88.445C35.5363 88.4317 35.5816 88.2066 35.5751 88.0014C35.5427 86.9157 34.9796 75.2841 34.9278 74.2712C34.8308 72.4308 34.7142 70.597 34.6107 68.7566C34.5654 67.9821 34.533 67.2141 34.5007 66.4396C34.4618 65.4664 34.4295 64.4932 34.3906 63.5201" fill="white"/>
<path d="M36.3259 63.5201C36.4359 65.7974 36.5395 68.0814 36.6495 70.3587C36.6884 71.1465 36.7272 71.9409 36.7596 72.7287C36.8372 74.6949 36.8955 76.6611 36.9796 78.6273C37.0573 80.3353 37.1609 82.0433 37.245 83.7579C37.3097 85.1746 37.3421 86.5913 37.4197 88.0014C37.4392 88.3721 37.2515 88.4781 36.9796 88.4913C36.6042 88.5045 36.2223 88.4582 35.8469 88.445C35.5363 88.4317 35.5816 88.2066 35.5751 88.0014C35.5427 86.9157 34.9796 75.2841 34.9278 74.2712C34.8308 72.4308 34.7142 70.597 34.6107 68.7566C34.5654 67.9821 34.533 67.2141 34.5007 66.4396C34.4618 65.4664 34.4295 64.4932 34.3906 63.5201" stroke="black" stroke-width="0.439785" stroke-linecap="round" stroke-linejoin="round"/>
<path d="M60.3589 55.5228C60.5078 55.8803 60.579 56.2709 60.5531 56.688C60.333 60.0245 59.5887 81.7188 59.5887 81.7188C59.5887 81.7188 55.511 82.7052 52.5466 81.7188C52.4301 78.4815 52.3589 66.7969 52.333 62.3614C52.333 61.4015 51.5693 60.6336 50.6308 60.6336H47.7246" fill="white"/>
<path d="M60.3589 55.5228C60.5078 55.8803 60.579 56.2709 60.5531 56.688C60.333 60.0245 59.5887 81.7188 59.5887 81.7188C59.5887 81.7188 55.511 82.7052 52.5466 81.7188C52.4301 78.4815 52.3589 66.7969 52.333 62.3614C52.333 61.4015 51.5693 60.6336 50.6308 60.6336H47.7246" stroke="black" stroke-width="0.439785" stroke-linecap="round" stroke-linejoin="round"/>
<path d="M53.1359 84.2147C53.1359 84.2147 52.0226 88.3126 53.4336 88.6105C54.8446 88.9084 63.8155 89.3718 63.8155 89.3718C63.8155 89.3718 66.042 89.299 65.5954 87.3262C63.8155 86.1875 60.7022 84.5986 60.7022 84.5986C60.7022 84.5986 59.8155 83.5394 59.5177 83.3872C59.22 83.2349 58.9223 82.9304 58.0355 83.46C57.1488 83.9896 56.9999 84.2941 56.7022 84.367C56.4045 84.4398 53.5889 84.2147 53.1423 84.2147H53.1359Z" stroke="black" stroke-width="0.439785" stroke-linecap="round" stroke-linejoin="round"/>
<path d="M46.6129 83.5328C46.6129 83.5328 47.7261 85.2739 48.8394 85.8101C49.9527 86.3463 51.9527 87.1739 52.1792 87.8557C52.4057 88.5376 52.2504 89.2989 52.2504 89.2989C52.2504 89.2989 51.2148 91.5763 40.6841 88.9216C40.2375 87.2533 40.9041 84.8237 40.9818 84.4464C42.0174 84.7509 44.1727 84.9032 44.1727 84.9032C44.1727 84.9032 45.1371 83.7645 46.6193 83.5394L46.6129 83.5328Z" stroke="black" stroke-width="0.439785" stroke-linecap="round" stroke-linejoin="round"/>
<path d="M41.3359 82.3278L41.3489 84.4396" stroke="black" stroke-width="0.439785" stroke-linecap="round" stroke-linejoin="round"/>
<path d="M46.0801 83.6451L46.093 82.6984" stroke="black" stroke-width="0.439785" stroke-linecap="round" stroke-linejoin="round"/>
<path d="M53.4258 83.9896L53.4322 81.9373" stroke="black" stroke-width="0.439785" stroke-linecap="round" stroke-linejoin="round"/>
<path d="M58.3848 83.1356L58.4042 81.9373" stroke="black" stroke-width="0.439785" stroke-linecap="round" stroke-linejoin="round"/>
<path d="M52.0209 63.6591H47.4707" stroke="black" stroke-width="0.439785" stroke-linecap="round" stroke-linejoin="round"/>
<g style="mix-blend-mode:multiply">
<path d="M41.7885 62.6462C41.7626 61.6068 40.9083 60.7925 39.8986 60.7925H38.7012L39.1995 60.8124C39.1995 60.8124 40.2481 80.7589 40.3193 81.7718C40.4487 82.2352 42.6882 82.2948 42.6882 82.2948C42.6882 82.2948 41.8597 65.9232 41.7885 62.6727C41.7885 62.666 41.7885 62.6594 41.7885 62.6462Z" fill="#E6E6E6"/>
</g>
<path d="M18.8707 30.6247L17.8027 20.3436L25.0843 19.8802L27.738 19.7081L28.2493 18.3775L32.9937 16.9343L49.9904 18.6025L51.9516 22.045L48.7542 22.5415L49.259 23.6934V25.6596L37.7962 26.176L18.8707 30.6247Z" fill="white"/>
<path d="M69.2661 36.3443H73.9845C75.2467 36.3443 76.3081 35.3844 76.4635 34.1133L78.8971 14.6435C79.0201 13.6505 78.2434 12.7766 77.2661 12.8031H52.457C51.1884 12.8031 50.114 13.7762 49.9716 15.0738L47.9069 33.544C47.7386 35.06 48.8972 36.3907 50.3923 36.3907H64.0752" fill="white"/>
<g style="mix-blend-mode:multiply">
<path d="M0.857895 31.1804C0.916148 31.2797 0.961459 31.3989 1.03913 31.4717C1.98411 32.3125 2.72197 33.3452 3.55045 34.2919C4.06825 34.8877 4.68313 35.3379 5.47925 35.4703C6.243 35.5961 6.96145 35.2386 6.78022 34.2588C6.6896 33.7755 6.50838 33.3717 6.23653 32.9745C5.33686 31.6571 4.04236 31.1341 2.54075 31.0414C2.11356 31.0149 1.6799 31.0348 1.25272 31.0414C1.03913 31.0414 0.825533 31.0745 0.605469 31.0944" fill="#E6E6E6"/>
<path d="M5.76978 35.7152C5.66622 35.7152 5.55619 35.7085 5.44616 35.6887C4.68241 35.5629 4.00927 35.1524 3.38791 34.4375C3.14195 34.1528 2.90895 33.8681 2.66946 33.5768C2.1193 32.9082 1.54972 32.2131 0.902473 31.6371C0.818331 31.5577 0.766552 31.465 0.721245 31.379C0.7083 31.3525 0.695356 31.326 0.682411 31.3061H0.63063L0.591797 30.8692L0.785968 30.8493C0.941308 30.8361 1.09665 30.8162 1.25199 30.8162H1.46558C1.82157 30.803 2.1905 30.7964 2.55943 30.8162C4.29406 30.9222 5.56266 31.5842 6.42351 32.842C6.72771 33.2856 6.90894 33.7225 6.99956 34.2124C7.10959 34.8082 6.91541 35.1591 6.73418 35.3444C6.50764 35.5828 6.1646 35.7085 5.76978 35.7085V35.7152ZM1.14843 31.2598C1.14843 31.2598 1.16785 31.2929 1.18079 31.2995C1.8604 31.902 2.43646 32.6103 2.99956 33.2922C3.23257 33.5769 3.46558 33.8615 3.71153 34.1396C4.26169 34.7751 4.85069 35.1392 5.51736 35.2451C5.89923 35.3113 6.2358 35.2319 6.42351 35.0333C6.57884 34.8678 6.63062 34.6162 6.57237 34.2918C6.4947 33.8615 6.33289 33.4842 6.06752 33.0936C5.28435 31.9549 4.13224 31.3525 2.53354 31.2532C2.18403 31.2333 1.82804 31.2399 1.47852 31.2532H1.26494C1.23257 31.2532 1.19374 31.2532 1.16137 31.2598H1.14843Z" fill="#F6B4DD"/>
<path d="M12.9679 24.838C12.5731 24.7321 12.2495 24.9572 11.9323 25.1028C10.6184 25.7119 9.56339 26.6255 8.99381 28.0223C8.67666 28.7969 8.65077 29.6045 8.89025 30.399C9.00676 30.7829 9.13621 31.008 9.70579 30.8425C10.7996 30.5247 11.5763 29.8164 12.0682 28.7903C12.5278 27.8303 12.7414 26.791 12.9291 25.7516C12.9809 25.4603 12.9809 25.169 13.0068 24.8711" fill="#E6E6E6"/>
<path d="M9.37623 31.1273C8.92315 31.1273 8.78076 30.7963 8.6772 30.4719C8.4183 29.6113 8.45713 28.7573 8.78723 27.943C9.33739 26.5991 10.3342 25.6061 11.8358 24.9044C11.8875 24.8779 11.9393 24.8514 11.9976 24.8249C12.2759 24.6859 12.6189 24.5138 13.0202 24.6263L12.9555 24.8713L13.2144 24.8911C13.2079 24.9838 13.2015 25.0699 13.195 25.1625C13.182 25.3678 13.1691 25.5796 13.1367 25.7915C12.9555 26.8043 12.7419 27.8768 12.2565 28.8897C11.7257 30.0019 10.8843 30.7301 9.7581 31.0611C9.60923 31.1075 9.47978 31.1273 9.36975 31.1273H9.37623ZM12.7613 25.0301C12.5736 25.0301 12.3859 25.1228 12.1918 25.2221C12.1335 25.2486 12.0753 25.2817 12.017 25.3082C10.6189 25.957 9.69338 26.8772 9.18852 28.1151C8.89726 28.8367 8.8649 29.5848 9.09143 30.3461C9.18205 30.6507 9.22088 30.7632 9.64159 30.6374C10.6448 30.3461 11.3892 29.6907 11.8681 28.6977C12.3277 27.7378 12.5348 26.6984 12.7096 25.712C12.7419 25.5267 12.7549 25.3347 12.7613 25.1361C12.7613 25.103 12.7613 25.0632 12.7613 25.0301Z" fill="#F6B4DD"/>
<path d="M6.83734 30.3331C7.36808 29.9491 7.34219 29.3798 7.27747 28.8303C7.18038 28.0028 6.73377 27.3474 6.15772 26.7781C5.27747 25.9108 4.17714 25.4408 3.03799 25.0568C2.77262 24.9708 2.66905 25.0701 2.7532 25.3481C3.13507 26.5067 3.42634 27.6917 4.02828 28.7641C4.57844 29.7439 5.40045 30.2404 6.44251 30.439C6.55255 30.4589 6.68199 30.3728 6.7985 30.3397" fill="#E6E6E6"/>
<path d="M6.48295 30.6641C6.48295 30.6641 6.43764 30.6641 6.41175 30.6641C5.24023 30.4456 4.39881 29.8631 3.84865 28.8833C3.36321 28.0227 3.07842 27.0892 2.79363 26.1889C2.71596 25.9373 2.63829 25.6791 2.55415 25.4276C2.46354 25.1495 2.53473 24.9973 2.6124 24.9178C2.69007 24.8384 2.83894 24.7655 3.11078 24.8516C4.15933 25.2025 5.35674 25.6857 6.30819 26.6258C7.01369 27.3209 7.40204 28.0359 7.49265 28.8105C7.54443 29.2672 7.63505 30.0352 6.96191 30.5185L6.77421 30.247L6.86483 30.5516C6.86483 30.5516 6.8001 30.5714 6.76774 30.5913C6.68359 30.6244 6.5865 30.6707 6.47647 30.6707L6.48295 30.6641ZM2.96191 25.2687C2.96191 25.2687 2.96191 25.2687 2.96191 25.2819C3.04606 25.5335 3.12373 25.7917 3.2014 26.0499C3.47324 26.9303 3.75803 27.8439 4.21758 28.6582C4.70301 29.5188 5.44088 30.0286 6.47647 30.2206C6.49589 30.2206 6.55414 30.1941 6.59298 30.1742C6.63828 30.1543 6.68359 30.1345 6.7289 30.1213C7.12372 29.8233 7.10431 29.3732 7.04605 28.8568C6.96838 28.1749 6.63181 27.5659 5.99104 26.9369C5.09783 26.0631 3.95868 25.5997 2.95545 25.2687C2.95545 25.2687 2.94897 25.2687 2.9425 25.2687H2.96191Z" fill="#F6B4DD"/>
<path d="M14.1128 31.1275C12.4753 31.0149 10.4235 31.5313 9.56911 33.3386C9.34258 33.8219 9.22607 34.3581 9.27138 34.9142C9.31022 35.3975 9.56264 35.6424 10.0222 35.649C11.1484 35.6623 11.938 35.0731 12.5659 34.1793C13.1937 33.2922 13.6662 32.3125 14.0999 31.3194" fill="#E6E6E6"/>
<path d="M10.0747 35.874C10.0747 35.874 10.0424 35.874 10.0294 35.874C9.45336 35.8674 9.11031 35.5298 9.06501 34.934C9.0197 34.358 9.12326 33.7887 9.38216 33.2458C10.2754 31.3458 12.4242 30.7897 14.133 30.9089L14.1071 31.3194L14.3142 31.412C13.9194 32.3124 13.4275 33.3584 12.7543 34.3117C12.0165 35.3643 11.1427 35.874 10.0747 35.874ZM13.6928 31.3392C12.2042 31.3392 10.5019 31.8821 9.77051 33.4444C9.55045 33.9144 9.45336 34.4043 9.49867 34.9008C9.53103 35.265 9.69284 35.4238 10.0424 35.4305C10.9679 35.4503 11.7381 35.0068 12.4048 34.0535C13.0262 33.173 13.4922 32.1932 13.8741 31.3392C13.8158 31.3392 13.7576 31.3392 13.6993 31.3392H13.6928Z" fill="#F6B4DD"/>
<path d="M5.15039 38.9656C5.99829 38.9524 6.6779 38.9656 7.52579 38.9458C7.72644 38.9458 7.93356 38.9061 8.13421 38.9127C8.55492 38.9259 8.96915 38.9656 9.38987 38.9789C9.85589 38.9921 10.3219 38.9789 10.7879 38.9789C10.9109 38.9789 11.0274 39.0252 11.1439 39.0517L11.2151 38.9987C11.118 39.5085 11.0209 40.0116 10.9303 40.5214C10.8203 41.1437 10.7103 41.766 10.6067 42.3882C10.5549 42.6928 10.5096 42.9973 10.4643 43.3018L5.75233 43.3548L5.27336 40.2566L5.15039 38.959V38.9656Z" fill="#E6E6E6"/>
<path d="M5.56193 43.5931L5.0506 40.3028L4.9082 38.7471H5.14121C5.53603 38.7405 5.89202 38.7339 6.24801 38.7339C6.65577 38.7339 7.06354 38.7339 7.51661 38.7206C7.60076 38.7206 7.6849 38.714 7.76904 38.7074C7.89202 38.6941 8.02147 38.6875 8.13797 38.6941C8.33862 38.7008 8.53926 38.714 8.73991 38.7273C8.9535 38.7405 9.17357 38.7537 9.38716 38.7603C9.63959 38.7603 9.88554 38.7603 10.138 38.7603C10.3516 38.7603 10.5716 38.7603 10.7852 38.7603C10.8888 38.7603 10.9923 38.7868 11.0765 38.8067C11.0765 38.8067 11.083 38.8067 11.0894 38.8067L11.5296 38.4691L11.3354 39.4819C11.2642 39.8394 11.1995 40.1969 11.1347 40.5544C11.0247 41.1767 10.9147 41.799 10.8111 42.4213C10.7787 42.6265 10.7464 42.8251 10.714 43.0303L10.6363 43.5202L5.55545 43.5798L5.56193 43.5931ZM5.38717 39.184L5.48425 40.2433L5.93086 43.1363L10.2739 43.0833L10.2933 42.9641C10.3257 42.7589 10.358 42.5537 10.3904 42.3485C10.494 41.7262 10.604 41.0973 10.714 40.475C10.7787 40.1175 10.8499 39.7534 10.9147 39.3959L10.947 39.2304C10.8888 39.2171 10.8305 39.2039 10.7787 39.2039C10.5652 39.2039 10.3516 39.2039 10.138 39.2039C9.88554 39.2039 9.63312 39.2039 9.37422 39.2039C9.15415 39.2039 8.92762 39.184 8.70755 39.1708C8.51338 39.1576 8.31273 39.1443 8.11855 39.1377C8.01499 39.1377 7.90496 39.1377 7.79493 39.1509C7.70431 39.1576 7.60723 39.1642 7.51661 39.1708C7.06354 39.1774 6.65577 39.1774 6.24153 39.184C5.96322 39.184 5.67843 39.184 5.37422 39.184H5.38717Z" fill="#F6B4DD"/>
<path d="M0.857895 31.1801C0.916148 31.2794 0.961459 31.3986 1.03913 31.4714C1.98411 32.3122 2.72197 33.3449 3.55045 34.2916C4.06825 34.8874 4.68313 35.3376 5.47925 35.47C6.243 35.5958 6.96145 35.2383 6.78022 34.2585C6.6896 33.7752 6.50838 33.3714 6.23653 32.9742C5.33686 31.6568 4.04236 31.1338 2.54075 31.0411C2.11356 31.0146 1.6799 31.0345 1.25272 31.0411C1.03913 31.0411 0.825533 31.0742 0.605469 31.094" fill="#F6B4DD"/>
<path d="M12.9679 24.838C12.5731 24.732 12.2495 24.9571 11.9323 25.1028C10.6184 25.7118 9.56339 26.6254 8.99381 28.0223C8.67666 28.7968 8.65077 29.6045 8.89026 30.3989C9.00676 30.7829 9.13621 31.008 9.70579 30.8424C10.7996 30.5247 11.5763 29.8163 12.0682 28.7902C12.5278 27.8303 12.7414 26.7909 12.9291 25.7515C12.9809 25.4603 12.9809 25.169 13.0068 24.8711" fill="#F6B4DD"/>
<path d="M6.83734 30.3327C7.36808 29.9488 7.34219 29.3794 7.27747 28.83C7.18038 28.0024 6.73378 27.3471 6.15773 26.7777C5.27747 25.9105 4.17715 25.4404 3.03799 25.0565C2.77262 24.9704 2.66905 25.0697 2.7532 25.3478C3.13507 26.5063 3.42634 27.6913 4.02828 28.7638C4.57844 29.7436 5.40045 30.2401 6.44252 30.4387C6.55255 30.4585 6.682 30.3725 6.7985 30.3394" fill="#F6B4DD"/>
<path d="M14.1128 31.1271C12.4753 31.0146 10.4235 31.531 9.56911 33.3383C9.34258 33.8215 9.22607 34.3578 9.27138 34.9139C9.31022 35.3971 9.56264 35.6421 10.0222 35.6487C11.1484 35.662 11.938 35.0728 12.5659 34.179C13.1937 33.2919 13.6662 32.3122 14.0999 31.3191" fill="#F6B4DD"/>
<path d="M5.14648 38.9653C5.99438 38.9521 6.67399 38.9653 7.52188 38.9455C7.72253 38.9455 7.92965 38.9057 8.1303 38.9124C8.55101 38.9256 8.96525 38.9653 9.38596 38.9786C9.85198 38.9918 10.318 38.9786 10.784 38.9786C10.907 38.9786 11.0235 39.0249 11.14 39.0514L11.2112 38.9984C11.1141 39.5082 11.017 40.0113 10.9264 40.5211C10.8164 41.1434 10.7063 41.7657 10.6028 42.3879C10.551 42.6925 10.5057 42.997 10.4604 43.3015L5.74843 43.3545L5.26946 40.2563L5.14648 38.9587V38.9653Z" fill="#F6B4DD"/>
<path d="M7.99607 35.6288C7.95077 35.311 7.8731 34.9072 7.80837 34.5299C7.77601 34.3511 7.74365 34.1724 7.71776 34.0201C7.41355 32.2856 7.03167 31.0079 6.48151 29.8759C5.87957 28.6379 5.17407 27.6714 4.32617 26.9167L4.50093 26.7181C5.38119 27.4993 6.10611 28.4989 6.72099 29.7634C7.2841 30.9219 7.67245 32.2194 7.98313 33.9804C8.00902 34.1327 8.04138 34.3114 8.07374 34.4901C8.14494 34.8675 8.21614 35.2713 8.26792 35.5957L8.00902 35.6354L7.99607 35.6288Z" fill="#F6B4DD"/>
<path d="M8.22179 38.8796H7.96289C7.96289 38.6347 7.97583 37.9462 7.98231 37.251C7.98231 36.5361 7.99525 35.8145 8.00172 35.5695H8.26063C8.26063 35.8145 8.24768 36.5361 8.24121 37.251C8.24121 37.9462 8.22826 38.6413 8.22179 38.873V38.8796Z" fill="#F6B4DD"/>
<path d="M8.22263 35.6886L7.99609 35.5562C8.02198 35.5165 8.06729 35.4503 8.11259 35.3775C8.17085 35.2981 8.27441 35.1524 8.28735 35.1061C8.31324 34.9538 8.33266 34.8015 8.35208 34.6427C8.37797 34.4441 8.39738 34.2388 8.44269 34.0402C8.61745 33.2723 8.79868 32.511 8.98638 31.7497L9.1935 30.889L9.44593 30.9552L9.23881 31.8159C9.05758 32.5772 8.86988 33.3385 8.70159 34.1064C8.66276 34.2918 8.63687 34.4838 8.61745 34.6824C8.59803 34.8413 8.57861 35.0068 8.55272 35.159C8.5333 35.2583 8.45564 35.3709 8.33266 35.543C8.29383 35.6026 8.24852 35.6555 8.2291 35.6886H8.22263Z" fill="#F6B4DD"/>
<path d="M7.46367 38.893C7.44425 38.7341 7.42484 38.5686 7.40542 38.4097C7.36659 38.0654 7.32775 37.708 7.24361 37.3703C7.06885 36.6686 6.88762 35.9735 6.48633 35.3975L6.69992 35.2386C7.13358 35.8543 7.3148 36.5759 7.48956 37.271C7.58665 37.655 7.62549 38.0191 7.67079 38.3766C7.69021 38.5355 7.70963 38.6944 7.72904 38.8532L7.47014 38.893H7.46367Z" fill="#F6B4DD"/>
<path d="M8.79796 38.8995L8.53906 38.8465L8.66851 38.1845C8.77854 37.6086 8.88858 37.0326 9.00508 36.4633L9.0245 36.3507C9.08275 36.0462 9.14748 35.7284 9.39343 35.4769L9.57466 35.6688C9.38048 35.8608 9.3287 36.1256 9.27692 36.4037L9.25751 36.5162C9.141 37.0856 9.03097 37.6615 8.92094 38.2375L8.79149 38.8995H8.79796Z" fill="#F6B4DD"/>
<path d="M0.857895 31.1804C0.916148 31.2797 0.961459 31.3989 1.03913 31.4717C1.98411 32.3125 2.72197 33.3452 3.55045 34.2919C4.06825 34.8877 4.68313 35.3379 5.47925 35.4703C6.243 35.5961 6.96145 35.2386 6.78022 34.2588C6.6896 33.7755 6.50838 33.3717 6.23653 32.9745C5.33686 31.6571 4.04236 31.1341 2.54075 31.0414C2.11356 31.0149 1.6799 31.0348 1.25272 31.0414C1.03913 31.0414 0.825533 31.0745 0.605469 31.0944" fill="#E6E6E6"/>
<path d="M5.76978 35.7152C5.66622 35.7152 5.55619 35.7085 5.44616 35.6887C4.68241 35.5629 4.00927 35.1524 3.38791 34.4375C3.14195 34.1528 2.90895 33.8681 2.66946 33.5768C2.1193 32.9082 1.54972 32.2131 0.902473 31.6371C0.818331 31.5577 0.766552 31.465 0.721245 31.379C0.7083 31.3525 0.695356 31.326 0.682411 31.3061H0.63063L0.591797 30.8692L0.785968 30.8493C0.941308 30.8361 1.09665 30.8162 1.25199 30.8162H1.46558C1.82157 30.803 2.1905 30.7964 2.55943 30.8162C4.29406 30.9222 5.56266 31.5842 6.42351 32.842C6.72771 33.2856 6.90894 33.7225 6.99956 34.2124C7.10959 34.8082 6.91541 35.1591 6.73418 35.3444C6.50764 35.5828 6.1646 35.7085 5.76978 35.7085V35.7152ZM1.14843 31.2598C1.14843 31.2598 1.16785 31.2929 1.18079 31.2995C1.8604 31.902 2.43646 32.6103 2.99956 33.2922C3.23257 33.5769 3.46558 33.8615 3.71153 34.1396C4.26169 34.7751 4.85069 35.1392 5.51736 35.2451C5.89923 35.3113 6.2358 35.2319 6.42351 35.0333C6.57884 34.8678 6.63062 34.6162 6.57237 34.2918C6.4947 33.8615 6.33289 33.4842 6.06752 33.0936C5.28435 31.9549 4.13224 31.3525 2.53354 31.2532C2.18403 31.2333 1.82804 31.2399 1.47852 31.2532H1.26494C1.23257 31.2532 1.19374 31.2532 1.16137 31.2598H1.14843Z" fill="#E6E6E6"/>
<path d="M12.9679 24.838C12.5731 24.7321 12.2495 24.9572 11.9323 25.1028C10.6184 25.7119 9.56339 26.6255 8.99381 28.0223C8.67666 28.7969 8.65077 29.6045 8.89025 30.399C9.00676 30.7829 9.13621 31.008 9.70579 30.8425C10.7996 30.5247 11.5763 29.8164 12.0682 28.7903C12.5278 27.8303 12.7414 26.791 12.9291 25.7516C12.9809 25.4603 12.9809 25.169 13.0068 24.8711" fill="#E6E6E6"/>
<path d="M9.37623 31.1273C8.92315 31.1273 8.78076 30.7963 8.6772 30.4719C8.4183 29.6113 8.45713 28.7573 8.78723 27.943C9.33739 26.5991 10.3342 25.6061 11.8358 24.9044C11.8875 24.8779 11.9393 24.8514 11.9976 24.8249C12.2759 24.6859 12.6189 24.5138 13.0202 24.6263L12.9555 24.8713L13.2144 24.8911C13.2079 24.9838 13.2015 25.0699 13.195 25.1625C13.182 25.3678 13.1691 25.5796 13.1367 25.7915C12.9555 26.8043 12.7419 27.8768 12.2565 28.8897C11.7257 30.0019 10.8843 30.7301 9.7581 31.0611C9.60923 31.1075 9.47978 31.1273 9.36975 31.1273H9.37623ZM12.7613 25.0301C12.5736 25.0301 12.3859 25.1228 12.1918 25.2221C12.1335 25.2486 12.0753 25.2817 12.017 25.3082C10.6189 25.957 9.69338 26.8772 9.18852 28.1151C8.89726 28.8367 8.8649 29.5848 9.09143 30.3461C9.18205 30.6507 9.22088 30.7632 9.64159 30.6374C10.6448 30.3461 11.3892 29.6907 11.8681 28.6977C12.3277 27.7378 12.5348 26.6984 12.7096 25.712C12.7419 25.5267 12.7549 25.3347 12.7613 25.1361C12.7613 25.103 12.7613 25.0632 12.7613 25.0301Z" fill="#E6E6E6"/>
<path d="M6.83734 30.3331C7.36808 29.9491 7.34219 29.3798 7.27747 28.8303C7.18038 28.0028 6.73377 27.3474 6.15772 26.7781C5.27747 25.9108 4.17714 25.4408 3.03799 25.0568C2.77262 24.9708 2.66905 25.0701 2.7532 25.3481C3.13507 26.5067 3.42634 27.6917 4.02828 28.7641C4.57844 29.7439 5.40045 30.2404 6.44251 30.439C6.55255 30.4589 6.68199 30.3728 6.7985 30.3397" fill="#E6E6E6"/>
<path d="M6.48295 30.6641C6.48295 30.6641 6.43764 30.6641 6.41175 30.6641C5.24023 30.4456 4.39881 29.8631 3.84865 28.8833C3.36321 28.0227 3.07842 27.0892 2.79363 26.1889C2.71596 25.9373 2.63829 25.6791 2.55415 25.4276C2.46354 25.1495 2.53473 24.9973 2.6124 24.9178C2.69007 24.8384 2.83894 24.7655 3.11078 24.8516C4.15933 25.2025 5.35674 25.6857 6.30819 26.6258C7.01369 27.3209 7.40204 28.0359 7.49265 28.8105C7.54443 29.2672 7.63505 30.0352 6.96191 30.5185L6.77421 30.247L6.86483 30.5516C6.86483 30.5516 6.8001 30.5714 6.76774 30.5913C6.68359 30.6244 6.5865 30.6707 6.47647 30.6707L6.48295 30.6641ZM2.96191 25.2687C2.96191 25.2687 2.96191 25.2687 2.96191 25.2819C3.04606 25.5335 3.12373 25.7917 3.2014 26.0499C3.47324 26.9303 3.75803 27.8439 4.21758 28.6582C4.70301 29.5188 5.44088 30.0286 6.47647 30.2206C6.49589 30.2206 6.55414 30.1941 6.59298 30.1742C6.63828 30.1543 6.68359 30.1345 6.7289 30.1213C7.12372 29.8233 7.10431 29.3732 7.04605 28.8568C6.96838 28.1749 6.63181 27.5659 5.99104 26.9369C5.09783 26.0631 3.95868 25.5997 2.95545 25.2687C2.95545 25.2687 2.94897 25.2687 2.9425 25.2687H2.96191Z" fill="#E6E6E6"/>
<path d="M14.1128 31.1275C12.4753 31.0149 10.4235 31.5313 9.56911 33.3386C9.34258 33.8219 9.22607 34.3581 9.27138 34.9142C9.31022 35.3975 9.56264 35.6424 10.0222 35.649C11.1484 35.6623 11.938 35.0731 12.5659 34.1793C13.1937 33.2922 13.6662 32.3125 14.0999 31.3194" fill="#E6E6E6"/>
<path d="M10.0747 35.874C10.0747 35.874 10.0424 35.874 10.0294 35.874C9.45336 35.8674 9.11031 35.5298 9.06501 34.934C9.0197 34.358 9.12326 33.7887 9.38216 33.2458C10.2754 31.3458 12.4242 30.7897 14.133 30.9089L14.1071 31.3194L14.3142 31.412C13.9194 32.3124 13.4275 33.3584 12.7543 34.3117C12.0165 35.3643 11.1427 35.874 10.0747 35.874ZM13.6928 31.3392C12.2042 31.3392 10.5019 31.8821 9.77051 33.4444C9.55045 33.9144 9.45336 34.4043 9.49867 34.9008C9.53103 35.265 9.69284 35.4238 10.0424 35.4305C10.9679 35.4503 11.7381 35.0068 12.4048 34.0535C13.0262 33.173 13.4922 32.1932 13.8741 31.3392C13.8158 31.3392 13.7576 31.3392 13.6993 31.3392H13.6928Z" fill="#E6E6E6"/>
<path d="M5.15039 38.9656C5.99829 38.9524 6.6779 38.9656 7.52579 38.9458C7.72644 38.9458 7.93356 38.9061 8.13421 38.9127C8.55492 38.9259 8.96915 38.9656 9.38987 38.9789C9.85589 38.9921 10.3219 38.9789 10.7879 38.9789C10.9109 38.9789 11.0274 39.0252 11.1439 39.0517L11.2151 38.9987C11.118 39.5085 11.0209 40.0116 10.9303 40.5214C10.8203 41.1437 10.7103 41.766 10.6067 42.3882C10.5549 42.6928 10.5096 42.9973 10.4643 43.3018L5.75233 43.3548L5.27336 40.2566L5.15039 38.959V38.9656Z" fill="#E6E6E6"/>
<path d="M5.56193 43.5931L5.0506 40.3028L4.9082 38.7471H5.14121C5.53603 38.7405 5.89202 38.7339 6.24801 38.7339C6.65577 38.7339 7.06354 38.7339 7.51661 38.7206C7.60076 38.7206 7.6849 38.714 7.76904 38.7074C7.89202 38.6941 8.02147 38.6875 8.13797 38.6941C8.33862 38.7008 8.53926 38.714 8.73991 38.7273C8.9535 38.7405 9.17357 38.7537 9.38716 38.7603C9.63959 38.7603 9.88554 38.7603 10.138 38.7603C10.3516 38.7603 10.5716 38.7603 10.7852 38.7603C10.8888 38.7603 10.9923 38.7868 11.0765 38.8067C11.0765 38.8067 11.083 38.8067 11.0894 38.8067L11.5296 38.4691L11.3354 39.4819C11.2642 39.8394 11.1995 40.1969 11.1347 40.5544C11.0247 41.1767 10.9147 41.799 10.8111 42.4213C10.7787 42.6265 10.7464 42.8251 10.714 43.0303L10.6363 43.5202L5.55545 43.5798L5.56193 43.5931ZM5.38717 39.184L5.48425 40.2433L5.93086 43.1363L10.2739 43.0833L10.2933 42.9641C10.3257 42.7589 10.358 42.5537 10.3904 42.3485C10.494 41.7262 10.604 41.0973 10.714 40.475C10.7787 40.1175 10.8499 39.7534 10.9147 39.3959L10.947 39.2304C10.8888 39.2171 10.8305 39.2039 10.7787 39.2039C10.5652 39.2039 10.3516 39.2039 10.138 39.2039C9.88554 39.2039 9.63312 39.2039 9.37422 39.2039C9.15415 39.2039 8.92762 39.184 8.70755 39.1708C8.51338 39.1576 8.31273 39.1443 8.11855 39.1377C8.01499 39.1377 7.90496 39.1377 7.79493 39.1509C7.70431 39.1576 7.60723 39.1642 7.51661 39.1708C7.06354 39.1774 6.65577 39.1774 6.24153 39.184C5.96322 39.184 5.67843 39.184 5.37422 39.184H5.38717Z" fill="#E6E6E6"/>
<path d="M0.857895 31.1801C0.916148 31.2794 0.961459 31.3986 1.03913 31.4714C1.98411 32.3122 2.72197 33.3449 3.55045 34.2916C4.06825 34.8874 4.68313 35.3376 5.47925 35.47C6.243 35.5958 6.96145 35.2383 6.78022 34.2585C6.6896 33.7752 6.50838 33.3714 6.23653 32.9742C5.33686 31.6568 4.04236 31.1338 2.54075 31.0411C2.11356 31.0146 1.6799 31.0345 1.25272 31.0411C1.03913 31.0411 0.825533 31.0742 0.605469 31.094" fill="#E6E6E6"/>
<path d="M12.9679 24.838C12.5731 24.732 12.2495 24.9571 11.9323 25.1028C10.6184 25.7118 9.56339 26.6254 8.99381 28.0223C8.67666 28.7968 8.65077 29.6045 8.89026 30.3989C9.00676 30.7829 9.13621 31.008 9.70579 30.8424C10.7996 30.5247 11.5763 29.8163 12.0682 28.7902C12.5278 27.8303 12.7414 26.7909 12.9291 25.7515C12.9809 25.4603 12.9809 25.169 13.0068 24.8711" fill="#E6E6E6"/>
<path d="M6.83734 30.3327C7.36808 29.9488 7.34219 29.3794 7.27747 28.83C7.18038 28.0024 6.73378 27.3471 6.15773 26.7777C5.27747 25.9105 4.17715 25.4404 3.03799 25.0565C2.77262 24.9704 2.66905 25.0697 2.7532 25.3478C3.13507 26.5063 3.42634 27.6913 4.02828 28.7638C4.57844 29.7436 5.40045 30.2401 6.44252 30.4387C6.55255 30.4585 6.682 30.3725 6.7985 30.3394" fill="#E6E6E6"/>
<path d="M14.1128 31.1271C12.4753 31.0146 10.4235 31.531 9.56911 33.3383C9.34258 33.8215 9.22607 34.3578 9.27138 34.9139C9.31022 35.3971 9.56264 35.6421 10.0222 35.6487C11.1484 35.662 11.938 35.0728 12.5659 34.179C13.1937 33.2919 13.6662 32.3122 14.0999 31.3191" fill="#E6E6E6"/>
<path d="M5.14648 38.9653C5.99438 38.9521 6.67399 38.9653 7.52188 38.9455C7.72253 38.9455 7.92965 38.9057 8.1303 38.9124C8.55101 38.9256 8.96525 38.9653 9.38596 38.9786C9.85198 38.9918 10.318 38.9786 10.784 38.9786C10.907 38.9786 11.0235 39.0249 11.14 39.0514L11.2112 38.9984C11.1141 39.5082 11.017 40.0113 10.9264 40.5211C10.8164 41.1434 10.7063 41.7657 10.6028 42.3879C10.551 42.6925 10.5057 42.997 10.4604 43.3015L5.74843 43.3545L5.26946 40.2563L5.14648 38.9587V38.9653Z" fill="#E6E6E6"/>
<path d="M7.99607 35.6288C7.95077 35.311 7.8731 34.9072 7.80837 34.5299C7.77601 34.3511 7.74365 34.1724 7.71776 34.0201C7.41355 32.2856 7.03167 31.0079 6.48151 29.8759C5.87957 28.6379 5.17407 27.6714 4.32617 26.9167L4.50093 26.7181C5.38119 27.4993 6.10611 28.4989 6.72099 29.7634C7.2841 30.9219 7.67245 32.2194 7.98313 33.9804C8.00902 34.1327 8.04138 34.3114 8.07374 34.4901C8.14494 34.8675 8.21614 35.2713 8.26792 35.5957L8.00902 35.6354L7.99607 35.6288Z" fill="#E6E6E6"/>
<path d="M8.22179 38.8796H7.96289C7.96289 38.6347 7.97583 37.9462 7.98231 37.251C7.98231 36.5361 7.99525 35.8145 8.00172 35.5695H8.26063C8.26063 35.8145 8.24768 36.5361 8.24121 37.251C8.24121 37.9462 8.22826 38.6413 8.22179 38.873V38.8796Z" fill="#E6E6E6"/>
<path d="M8.22263 35.6886L7.99609 35.5562C8.02198 35.5165 8.06729 35.4503 8.11259 35.3775C8.17085 35.2981 8.27441 35.1524 8.28735 35.1061C8.31324 34.9538 8.33266 34.8015 8.35208 34.6427C8.37797 34.4441 8.39738 34.2388 8.44269 34.0402C8.61745 33.2723 8.79868 32.511 8.98638 31.7497L9.1935 30.889L9.44593 30.9552L9.23881 31.8159C9.05758 32.5772 8.86988 33.3385 8.70159 34.1064C8.66276 34.2918 8.63687 34.4838 8.61745 34.6824C8.59803 34.8413 8.57861 35.0068 8.55272 35.159C8.5333 35.2583 8.45564 35.3709 8.33266 35.543C8.29383 35.6026 8.24852 35.6555 8.2291 35.6886H8.22263Z" fill="#E6E6E6"/>
<path d="M7.46367 38.893C7.44425 38.7341 7.42484 38.5686 7.40542 38.4097C7.36659 38.0654 7.32775 37.708 7.24361 37.3703C7.06885 36.6686 6.88762 35.9735 6.48633 35.3975L6.69992 35.2386C7.13358 35.8543 7.3148 36.5759 7.48956 37.271C7.58665 37.655 7.62549 38.0191 7.67079 38.3766C7.69021 38.5355 7.70963 38.6944 7.72904 38.8532L7.47014 38.893H7.46367Z" fill="#E6E6E6"/>
<path d="M8.79796 38.8995L8.53906 38.8465L8.66851 38.1845C8.77854 37.6086 8.88858 37.0326 9.00508 36.4633L9.0245 36.3507C9.08275 36.0462 9.14748 35.7284 9.39343 35.4769L9.57466 35.6688C9.38048 35.8608 9.3287 36.1256 9.27692 36.4037L9.25751 36.5162C9.141 37.0856 9.03097 37.6615 8.92094 38.2375L8.79149 38.8995H8.79796Z" fill="#E6E6E6"/>
<path d="M0.857895 31.1804C0.916148 31.2797 0.961459 31.3989 1.03913 31.4717C1.98411 32.3125 2.72197 33.3452 3.55045 34.2919C4.06825 34.8877 4.68313 35.3379 5.47925 35.4703C6.243 35.5961 6.96145 35.2386 6.78022 34.2588C6.6896 33.7755 6.50838 33.3717 6.23653 32.9745C5.33686 31.6571 4.04236 31.1341 2.54074 31.0414C2.11356 31.0149 1.6799 31.0348 1.25272 31.0414C1.03913 31.0414 0.825533 31.0745 0.605469 31.0944" stroke="#E6E6E6" stroke-width="0.373817" stroke-linecap="round" stroke-linejoin="round"/>
<path d="M5.76978 35.7152C5.66622 35.7152 5.55619 35.7085 5.44616 35.6887C4.68241 35.5629 4.00927 35.1524 3.38791 34.4375C3.14195 34.1528 2.90895 33.8681 2.66946 33.5768C2.1193 32.9082 1.54972 32.2131 0.902473 31.6371C0.818331 31.5577 0.766552 31.465 0.721245 31.379C0.7083 31.3525 0.695356 31.326 0.682411 31.3061H0.63063L0.591797 30.8692L0.785968 30.8493C0.941308 30.8361 1.09665 30.8162 1.25199 30.8162H1.46558C1.82157 30.803 2.1905 30.7964 2.55943 30.8162C4.29406 30.9222 5.56266 31.5842 6.42351 32.842C6.72771 33.2856 6.90894 33.7225 6.99956 34.2124C7.10959 34.8082 6.91541 35.1591 6.73418 35.3444C6.50764 35.5828 6.1646 35.7085 5.76978 35.7085V35.7152ZM1.14843 31.2598C1.14843 31.2598 1.16785 31.2929 1.18079 31.2995C1.8604 31.902 2.43646 32.6103 2.99956 33.2922C3.23257 33.5769 3.46558 33.8615 3.71153 34.1396C4.26169 34.7751 4.85069 35.1392 5.51736 35.2451C5.89923 35.3113 6.2358 35.2319 6.42351 35.0333C6.57884 34.8678 6.63062 34.6162 6.57237 34.2918C6.4947 33.8615 6.33289 33.4842 6.06752 33.0936C5.28435 31.9549 4.13224 31.3525 2.53354 31.2532C2.18403 31.2333 1.82804 31.2399 1.47852 31.2532H1.26494C1.23257 31.2532 1.19374 31.2532 1.16137 31.2598H1.14843Z" stroke="#E6E6E6" stroke-width="0.373817" stroke-linecap="round" stroke-linejoin="round"/>
<path d="M12.9679 24.838C12.5731 24.7321 12.2495 24.9572 11.9323 25.1028C10.6184 25.7119 9.56339 26.6255 8.99381 28.0223C8.67666 28.7969 8.65077 29.6045 8.89025 30.399C9.00676 30.7829 9.13621 31.008 9.70579 30.8425C10.7996 30.5247 11.5763 29.8164 12.0682 28.7903C12.5278 27.8303 12.7414 26.791 12.9291 25.7516C12.9809 25.4603 12.9809 25.169 13.0068 24.8711" stroke="#E6E6E6" stroke-width="0.373817" stroke-linecap="round" stroke-linejoin="round"/>
<path d="M12.7613 25.0301C12.5736 25.0301 12.3859 25.1228 12.1918 25.2221C12.1335 25.2486 12.0753 25.2817 12.017 25.3082C10.6189 25.957 9.69338 26.8772 9.18852 28.1151C8.89726 28.8367 8.8649 29.5848 9.09143 30.3461C9.18205 30.6507 9.22088 30.7632 9.64159 30.6374C10.6448 30.3461 11.3892 29.6907 11.8681 28.6977C12.3277 27.7378 12.5348 26.6984 12.7096 25.712C12.7419 25.5267 12.7549 25.3347 12.7613 25.1361C12.7613 25.103 12.7613 25.0632 12.7613 25.0301ZM12.7613 25.0301H12.7484M9.37623 31.1273C8.92315 31.1273 8.78076 30.7963 8.6772 30.4719C8.4183 29.6113 8.45713 28.7573 8.78723 27.943C9.33739 26.5991 10.3342 25.6061 11.8358 24.9044C11.8875 24.8779 11.9393 24.8514 11.9976 24.8249C12.2759 24.6859 12.6189 24.5138 13.0202 24.6263L12.9555 24.8713L13.2144 24.8911C13.2079 24.9838 13.2015 25.0699 13.195 25.1625C13.182 25.3678 13.1691 25.5796 13.1367 25.7915C12.9555 26.8043 12.7419 27.8768 12.2565 28.8897C11.7257 30.0019 10.8843 30.7301 9.7581 31.0611C9.60923 31.1075 9.47978 31.1273 9.36975 31.1273H9.37623Z" stroke="#E6E6E6" stroke-width="0.373817" stroke-linecap="round" stroke-linejoin="round"/>
<path d="M6.83734 30.3331C7.36808 29.9491 7.34219 29.3798 7.27747 28.8303C7.18038 28.0028 6.73377 27.3474 6.15772 26.7781C5.27747 25.9108 4.17714 25.4408 3.03799 25.0568C2.77262 24.9708 2.66905 25.0701 2.7532 25.3481C3.13507 26.5067 3.42634 27.6917 4.02828 28.7641C4.57844 29.7439 5.40045 30.2404 6.44251 30.439C6.55255 30.4589 6.68199 30.3728 6.7985 30.3397" stroke="#E6E6E6" stroke-width="0.373817" stroke-linecap="round" stroke-linejoin="round"/>
<path d="M6.48295 30.6641C6.48295 30.6641 6.43764 30.6641 6.41175 30.6641C5.24023 30.4456 4.39881 29.8631 3.84865 28.8833C3.36321 28.0227 3.07842 27.0892 2.79363 26.1889C2.71596 25.9373 2.63829 25.6791 2.55415 25.4276C2.46354 25.1495 2.53473 24.9973 2.6124 24.9178C2.69007 24.8384 2.83894 24.7655 3.11078 24.8516C4.15933 25.2025 5.35674 25.6857 6.30819 26.6258C7.01369 27.3209 7.40204 28.0359 7.49265 28.8105C7.54443 29.2672 7.63505 30.0352 6.96191 30.5185L6.77421 30.247L6.86483 30.5516C6.86483 30.5516 6.8001 30.5714 6.76774 30.5913C6.68359 30.6244 6.5865 30.6707 6.47647 30.6707L6.48295 30.6641ZM2.96191 25.2687C2.96191 25.2687 2.96191 25.2687 2.96191 25.2819C3.04606 25.5335 3.12373 25.7917 3.2014 26.0499C3.47324 26.9303 3.75803 27.8439 4.21758 28.6582C4.70301 29.5188 5.44088 30.0286 6.47647 30.2206C6.49589 30.2206 6.55414 30.1941 6.59298 30.1742C6.63828 30.1543 6.68359 30.1345 6.7289 30.1213C7.12372 29.8233 7.10431 29.3732 7.04605 28.8568C6.96838 28.1749 6.63181 27.5659 5.99104 26.9369C5.09783 26.0631 3.95868 25.5997 2.95545 25.2687C2.95545 25.2687 2.94897 25.2687 2.9425 25.2687H2.96191Z" stroke="#E6E6E6" stroke-width="0.373817" stroke-linecap="round" stroke-linejoin="round"/>
<path d="M14.1128 31.1275C12.4753 31.0149 10.4235 31.5313 9.56911 33.3386C9.34258 33.8219 9.22607 34.3581 9.27138 34.9142C9.31022 35.3975 9.56264 35.6424 10.0222 35.649C11.1484 35.6623 11.938 35.0731 12.5659 34.1793C13.1937 33.2922 13.6662 32.3125 14.0999 31.3194" stroke="#E6E6E6" stroke-width="0.373817" stroke-linecap="round" stroke-linejoin="round"/>
<path d="M10.0747 35.874C10.0747 35.874 10.0424 35.874 10.0294 35.874C9.45336 35.8674 9.11031 35.5298 9.06501 34.934C9.0197 34.358 9.12326 33.7887 9.38216 33.2458C10.2754 31.3458 12.4242 30.7897 14.133 30.9089L14.1071 31.3194L14.3142 31.412C13.9194 32.3124 13.4275 33.3584 12.7543 34.3117C12.0165 35.3643 11.1427 35.874 10.0747 35.874ZM13.6928 31.3392C12.2042 31.3392 10.5019 31.8821 9.77051 33.4444C9.55045 33.9144 9.45336 34.4043 9.49867 34.9008C9.53103 35.265 9.69284 35.4238 10.0424 35.4305C10.9679 35.4503 11.7381 35.0068 12.4048 34.0535C13.0262 33.173 13.4922 32.1932 13.8741 31.3392C13.8158 31.3392 13.7576 31.3392 13.6993 31.3392H13.6928Z" stroke="#E6E6E6" stroke-width="0.373817" stroke-linecap="round" stroke-linejoin="round"/>
<path d="M5.15039 38.9656C5.99829 38.9524 6.6779 38.9656 7.52579 38.9458C7.72644 38.9458 7.93356 38.9061 8.13421 38.9127C8.55492 38.9259 8.96915 38.9656 9.38987 38.9789C9.85589 38.9921 10.3219 38.9789 10.7879 38.9789C10.9109 38.9789 11.0274 39.0252 11.1439 39.0517L11.2151 38.9987C11.118 39.5085 11.0209 40.0116 10.9303 40.5214C10.8203 41.1437 10.7103 41.766 10.6067 42.3882C10.5549 42.6928 10.5096 42.9973 10.4643 43.3018L5.75233 43.3548L5.27336 40.2566L5.15039 38.959V38.9656Z" stroke="#E6E6E6" stroke-width="0.373817" stroke-linecap="round" stroke-linejoin="round"/>
<path d="M5.56193 43.5931L5.0506 40.3028L4.9082 38.7471H5.14121C5.53603 38.7405 5.89202 38.7339 6.24801 38.7339C6.65577 38.7339 7.06354 38.7339 7.51661 38.7206C7.60076 38.7206 7.6849 38.714 7.76904 38.7074C7.89202 38.6941 8.02147 38.6875 8.13797 38.6941C8.33862 38.7008 8.53926 38.714 8.73991 38.7273C8.9535 38.7405 9.17357 38.7537 9.38716 38.7603C9.63959 38.7603 9.88554 38.7603 10.138 38.7603C10.3516 38.7603 10.5716 38.7603 10.7852 38.7603C10.8888 38.7603 10.9923 38.7868 11.0765 38.8067C11.0765 38.8067 11.083 38.8067 11.0894 38.8067L11.5296 38.4691L11.3354 39.4819C11.2642 39.8394 11.1995 40.1969 11.1347 40.5544C11.0247 41.1767 10.9147 41.799 10.8111 42.4213C10.7787 42.6265 10.7464 42.8251 10.714 43.0303L10.6363 43.5202L5.55545 43.5798L5.56193 43.5931ZM5.38717 39.184L5.48425 40.2433L5.93086 43.1363L10.2739 43.0833L10.2933 42.9641C10.3257 42.7589 10.358 42.5537 10.3904 42.3485C10.494 41.7262 10.604 41.0973 10.714 40.475C10.7787 40.1175 10.8499 39.7534 10.9147 39.3959L10.947 39.2304C10.8888 39.2171 10.8305 39.2039 10.7787 39.2039C10.5652 39.2039 10.3516 39.2039 10.138 39.2039C9.88554 39.2039 9.63312 39.2039 9.37422 39.2039C9.15415 39.2039 8.92762 39.184 8.70755 39.1708C8.51338 39.1576 8.31273 39.1443 8.11855 39.1377C8.01499 39.1377 7.90496 39.1377 7.79493 39.1509C7.70432 39.1576 7.60723 39.1642 7.51661 39.1708C7.06354 39.1774 6.65577 39.1774 6.24153 39.184C5.96322 39.184 5.67843 39.184 5.37422 39.184H5.38717Z" stroke="#E6E6E6" stroke-width="0.373817" stroke-linecap="round" stroke-linejoin="round"/>
<path d="M0.857895 31.1801C0.916148 31.2794 0.961459 31.3986 1.03913 31.4714C1.98411 32.3122 2.72197 33.3449 3.55045 34.2916C4.06825 34.8874 4.68313 35.3376 5.47925 35.47C6.243 35.5958 6.96145 35.2383 6.78022 34.2585C6.6896 33.7752 6.50838 33.3714 6.23653 32.9742C5.33686 31.6568 4.04236 31.1338 2.54074 31.0411C2.11356 31.0146 1.6799 31.0345 1.25272 31.0411C1.03913 31.0411 0.825533 31.0742 0.605469 31.094" stroke="#E6E6E6" stroke-width="0.373817" stroke-linecap="round" stroke-linejoin="round"/>
<path d="M12.9679 24.838C12.5731 24.732 12.2495 24.9571 11.9323 25.1028C10.6184 25.7118 9.56339 26.6254 8.99381 28.0223C8.67666 28.7968 8.65077 29.6045 8.89026 30.3989C9.00676 30.7829 9.13621 31.008 9.70579 30.8424C10.7996 30.5247 11.5763 29.8163 12.0682 28.7902C12.5278 27.8303 12.7414 26.7909 12.9291 25.7515C12.9809 25.4603 12.9809 25.169 13.0068 24.8711" stroke="#E6E6E6" stroke-width="0.373817" stroke-linecap="round" stroke-linejoin="round"/>
<path d="M6.83734 30.3327C7.36808 29.9488 7.34219 29.3794 7.27747 28.83C7.18038 28.0024 6.73378 27.3471 6.15773 26.7777C5.27747 25.9105 4.17715 25.4404 3.03799 25.0565C2.77262 24.9704 2.66905 25.0697 2.7532 25.3478C3.13507 26.5063 3.42634 27.6913 4.02828 28.7638C4.57844 29.7436 5.40045 30.2401 6.44252 30.4387C6.55255 30.4585 6.682 30.3725 6.7985 30.3394" stroke="#E6E6E6" stroke-width="0.373817" stroke-linecap="round" stroke-linejoin="round"/>
<path d="M14.1128 31.1271C12.4753 31.0146 10.4235 31.531 9.56911 33.3383C9.34258 33.8215 9.22607 34.3578 9.27138 34.9139C9.31022 35.3971 9.56264 35.6421 10.0222 35.6487C11.1484 35.662 11.938 35.0728 12.5659 34.179C13.1937 33.2919 13.6662 32.3122 14.0999 31.3191" stroke="#E6E6E6" stroke-width="0.373817" stroke-linecap="round" stroke-linejoin="round"/>
<path d="M5.14648 38.9653C5.99438 38.9521 6.67399 38.9653 7.52188 38.9455C7.72253 38.9455 7.92965 38.9057 8.1303 38.9124C8.55101 38.9256 8.96525 38.9653 9.38596 38.9786C9.85198 38.9918 10.318 38.9786 10.784 38.9786C10.907 38.9786 11.0235 39.0249 11.14 39.0514L11.2112 38.9984C11.1141 39.5082 11.017 40.0113 10.9264 40.5211C10.8164 41.1434 10.7063 41.7657 10.6028 42.3879C10.551 42.6925 10.5057 42.997 10.4604 43.3015L5.74843 43.3545L5.26946 40.2563L5.14648 38.9587V38.9653Z" stroke="#E6E6E6" stroke-width="0.373817" stroke-linecap="round" stroke-linejoin="round"/>
<path d="M7.99607 35.6288C7.95077 35.311 7.8731 34.9072 7.80837 34.5299C7.77601 34.3511 7.74365 34.1724 7.71776 34.0201C7.41355 32.2856 7.03167 31.0079 6.48151 29.8759C5.87957 28.6379 5.17407 27.6714 4.32617 26.9167L4.50093 26.7181C5.38119 27.4993 6.10611 28.4989 6.72099 29.7634C7.2841 30.9219 7.67245 32.2194 7.98313 33.9804C8.00902 34.1327 8.04138 34.3114 8.07374 34.4901C8.14494 34.8675 8.21614 35.2713 8.26792 35.5957L8.00902 35.6354L7.99607 35.6288Z" stroke="#E6E6E6" stroke-width="0.373817" stroke-linecap="round" stroke-linejoin="round"/>
<path d="M8.22179 38.8796H7.96289C7.96289 38.6347 7.97583 37.9462 7.98231 37.251C7.98231 36.5361 7.99525 35.8145 8.00172 35.5695H8.26063C8.26063 35.8145 8.24768 36.5361 8.24121 37.251C8.24121 37.9462 8.22826 38.6413 8.22179 38.873V38.8796Z" stroke="#E6E6E6" stroke-width="0.373817" stroke-linecap="round" stroke-linejoin="round"/>
<path d="M8.22263 35.6886L7.99609 35.5562C8.02198 35.5165 8.06729 35.4503 8.11259 35.3775C8.17085 35.2981 8.27441 35.1524 8.28735 35.1061C8.31324 34.9538 8.33266 34.8015 8.35208 34.6427C8.37797 34.4441 8.39738 34.2388 8.44269 34.0402C8.61745 33.2723 8.79868 32.511 8.98638 31.7497L9.1935 30.889L9.44593 30.9552L9.23881 31.8159C9.05758 32.5772 8.86988 33.3385 8.70159 34.1064C8.66276 34.2918 8.63687 34.4838 8.61745 34.6824C8.59803 34.8413 8.57861 35.0068 8.55272 35.159C8.5333 35.2583 8.45564 35.3709 8.33266 35.543C8.29383 35.6026 8.24852 35.6555 8.2291 35.6886H8.22263Z" stroke="#E6E6E6" stroke-width="0.373817" stroke-linecap="round" stroke-linejoin="round"/>
<path d="M7.46367 38.893C7.44425 38.7341 7.42484 38.5686 7.40542 38.4097C7.36659 38.0654 7.32775 37.708 7.24361 37.3703C7.06885 36.6686 6.88762 35.9735 6.48633 35.3975L6.69992 35.2386C7.13358 35.8543 7.3148 36.5759 7.48956 37.271C7.58665 37.655 7.62549 38.0191 7.67079 38.3766C7.69021 38.5355 7.70963 38.6944 7.72904 38.8532L7.47014 38.893H7.46367Z" stroke="#E6E6E6" stroke-width="0.373817" stroke-linecap="round" stroke-linejoin="round"/>
<path d="M8.79796 38.8995L8.53906 38.8465L8.66851 38.1845C8.77854 37.6086 8.88858 37.0326 9.00508 36.4633L9.0245 36.3507C9.08275 36.0462 9.14748 35.7284 9.39343 35.4769L9.57466 35.6688C9.38048 35.8608 9.3287 36.1256 9.27692 36.4037L9.25751 36.5162C9.141 37.0856 9.03097 37.6615 8.92094 38.2375L8.79149 38.8995H8.79796Z" stroke="#E6E6E6" stroke-width="0.373817" stroke-linecap="round" stroke-linejoin="round"/>
</g>
<path d="M41.3756 17.9271C41.3756 17.9271 42.8514 20.6546 37.8546 20.595C35.0197 20.5354 33.7705 17.5762 33.7705 16.6494L28.6443 18.2382C26.4436 18.9201 24.6896 20.6347 23.9258 22.8591L20.9355 31.5779L28.6572 33.7824L30.8708 26.1162" stroke="#081017" stroke-width="0.439785" stroke-miterlimit="10"/>
<path d="M21.6254 31.9155L19.5866 38.4827C18.8875 40.7335 20.5574 43.0175 22.8616 42.9711L29.7419 42.8321C29.7419 42.8321 30.9328 42.6004 31.5024 42.9513C32.072 43.3021 33.7742 42.8917 34.3373 42.4283" stroke="#081017" stroke-width="0.439785" stroke-miterlimit="10"/>
<path d="M27.6719 33.4512L26.5586 37.1188" stroke="#081017" stroke-width="0.439785" stroke-miterlimit="10"/>
<path d="M24.0547 36.0995L31.7958 38.7475C32.7925 39.0918 33.8864 38.9528 34.7796 38.3768C36.0935 37.5294 37.8022 37.7148 38.909 38.827L41.388 41.3095C41.388 41.3095 40.3589 41.9914 40.0223 41.5677" stroke="#081017" stroke-width="0.439785" stroke-miterlimit="10"/>
<path d="M37.1895 38.8601C37.1895 38.8601 39.2218 40.257 39.7202 40.9388C40.2186 41.6207 40.4127 43.1036 39.3836 42.6468" stroke="#081017" stroke-width="0.439785" stroke-miterlimit="10"/>
<path d="M36.3516 39.7935C36.3516 39.7935 39.303 41.6141 39.1347 43.6663" stroke="#081017" stroke-width="0.439785" stroke-miterlimit="10"/>
<path d="M35.0781 41.0779C35.0781 41.0779 37.8354 42.2761 37.9454 43.7259" stroke="#081017" stroke-width="0.439785" stroke-miterlimit="10"/>
<path d="M33.6523 41.8987L35.374 42.7527C35.374 42.7527 36.7656 43.8649 37.1281 43.8649" stroke="#081017" stroke-width="0.439785" stroke-miterlimit="10"/>
<path d="M33.7969 42.6732C33.7969 42.6732 34.1593 43.7258 34.3276 43.7522" stroke="#081017" stroke-width="0.439785" stroke-miterlimit="10"/>
<path d="M41.3848 41.3028L42.6663 43.6662" stroke="#081017" stroke-width="0.439785" stroke-miterlimit="10"/>
<path d="M20.1969 43.2625L19.9121 41.5743" stroke="#081017" stroke-width="0.439785" stroke-miterlimit="10"/>
<path d="M19.6919 37.8273L18.378 25.6992C18.0738 22.8989 20.0932 20.3898 22.8375 20.1581L25.6401 19.9198" stroke="#081017" stroke-width="0.439785" stroke-miterlimit="10"/>
<path d="M46.2939 25.9442L46.1191 42.1371" stroke="#081017" stroke-width="0.439785" stroke-miterlimit="10"/>
<path d="M46.0332 37.7147L49.0429 42.1899L52.1626 43.6993" stroke="#081017" stroke-width="0.439785" stroke-miterlimit="10"/>
<path d="M49.1483 23.1505C49.1483 23.1505 46.7276 18.5031 41.2324 17.53" stroke="#081017" stroke-width="0.439785" stroke-miterlimit="10"/>
<path d="M69.2641 36.3444H73.9826C75.2447 36.3444 76.3062 35.3845 76.4615 34.1134L78.8952 14.6435C79.0182 13.6505 78.2415 12.7767 77.2641 12.8031H52.4551C51.1865 12.8031 50.112 13.7763 49.9697 15.0738L47.9049 33.5441C47.7367 35.0601 48.8952 36.3907 50.3904 36.3907H64.0732" fill="#F41BA2"/>
<path d="M69.2641 36.3444H73.9826C75.2447 36.3444 76.3062 35.3845 76.4615 34.1134L78.8952 14.6435C79.0182 13.6505 78.2415 12.7767 77.2641 12.8031H52.4551C51.1865 12.8031 50.112 13.7763 49.9697 15.0738L47.9049 33.5441C47.7367 35.0601 48.8952 36.3907 50.3904 36.3907H64.0732" stroke="#081017" stroke-width="0.439785" stroke-miterlimit="10"/>
<path d="M71.0831 12.7966H54.2676C52.999 12.7966 51.9246 13.7698 51.7822 15.0673L49.7174 33.5376C49.5492 35.0536 50.7077 36.3842 52.2029 36.3842H57.8857" stroke="#081017" stroke-width="0.439785" stroke-miterlimit="10"/>
<path d="M51.1426 36.4105L51.6151 38.5091" stroke="#081017" stroke-width="0.439785" stroke-miterlimit="10"/>
<path d="M50.7988 39.2109C50.7988 39.2109 51.3102 38.2047 52.4234 38.3371C53.5367 38.4695 60.404 42.0444 60.404 42.0444" stroke="#081017" stroke-width="0.439785" stroke-miterlimit="10"/>
<path d="M78.7597 43.5934H3.54297V55.6156H78.7597V43.5934Z" stroke="#081017" stroke-width="0.439785" stroke-miterlimit="10"/>
<path d="M56.6309 43.6464C56.6309 42.8652 57.2522 42.2297 58.016 42.2297H62.7603C63.9253 42.2297 64.825 41.1638 64.6438 39.9855L62.7538 27.2615C62.6503 26.5664 63.1681 25.9309 63.8606 25.9176L66.3978 25.8713C66.9545 25.858 67.4399 26.2619 67.537 26.8246L70.1648 41.3823C70.3719 42.5342 69.5046 43.6001 68.359 43.6001" fill="white"/>
<path d="M56.6309 43.6464C56.6309 42.8652 57.2522 42.2297 58.016 42.2297H62.7603C63.9253 42.2297 64.825 41.1638 64.6438 39.9855L62.7538 27.2615C62.6503 26.5664 63.1681 25.9309 63.8606 25.9176L66.3978 25.8713C66.9545 25.858 67.4399 26.2619 67.537 26.8246L70.1648 41.3823C70.3719 42.5342 69.5046 43.6001 68.359 43.6001" stroke="#081017" stroke-width="0.439785" stroke-miterlimit="10"/>
<g style="mix-blend-mode:multiply">
<path d="M31.162 60.5477C31.162 60.5477 27.4209 61.8784 26.0811 57.3369C25.9452 56.6484 25.8481 56.0328 25.7769 55.4767H21.6992C21.6992 55.5296 21.7057 55.5627 21.7057 55.5627C21.7057 55.5627 22.2041 59.6275 22.7736 59.8658C23.3432 60.1042 23.5439 60.4815 22.6766 60.6536C21.8092 60.8258 21.7769 62.1895 21.9063 62.7059C22.0423 63.2156 23.3756 63.4209 24.3465 63.4209H39.3108V60.7529L31.162 60.5477Z" fill="#E6E6E6"/>
</g>
<path d="M43.4135 6.70571C40.7986 5.5538 38.7274 4.98447 39.0639 5.95764C39.4005 6.9308 36.9216 7.04334 34.7339 5.17645C34.462 7.69873 32.6303 7.77155 32.6303 7.77155H32.3326C31.6465 7.77155 31.0898 8.34088 31.0898 9.04262C31.0898 9.74436 31.6465 10.3137 32.3326 10.3137L32.5073 11.5119C32.5073 15.0008 35.2452 17.8342 38.6497 17.8871C41.7565 17.9335 44.2355 15.2126 44.2355 12.0349V7.24856" fill="white"/>
<path d="M39.2447 9.08914L38.9923 8.81771C38.7334 8.53966 38.3709 8.3874 37.9955 8.40064L36.2738 8.4536C35.7625 8.46684 35.3029 8.78462 35.1023 9.26789L35.0699 9.3407C34.934 9.65847 34.9275 10.0093 35.0376 10.3337L35.1346 10.6051C35.3159 11.1281 35.7948 11.4856 36.3385 11.4989L38.0861 11.5518C38.4421 11.5651 38.7916 11.4261 39.0505 11.1679L39.2188 10.9957C39.51 10.7044 39.6524 10.2874 39.6071 9.87031C39.5748 9.57903 39.4518 9.3076 39.2512 9.09576L39.2447 9.08914Z" fill="#F41BA2"/>
<path d="M35.097 9.26126L32.5469 7.59961" stroke="#081017" stroke-width="0.439785" stroke-linecap="round" stroke-linejoin="round"/>
<path d="M40.7395 9.93633C40.7395 9.93633 40.3382 9.61195 39.5098 10.0224" stroke="#081017" stroke-width="0.439785" stroke-linecap="round" stroke-linejoin="round"/>
<path d="M41.8395 8.58609C41.4641 8.69202 41.1469 8.97007 40.9851 9.34742L40.9527 9.42024C40.8168 9.73801 40.8103 10.0889 40.9204 10.4133L41.0175 10.6847C41.1987 11.2077 41.6777 11.5652 42.2213 11.5784L43.9689 11.6314C44.3249 11.6446 44.6744 11.5056 44.9333 11.2474L45.1016 11.0753C45.3929 10.784 45.5353 10.3669 45.49 9.95647C45.4576 9.66518 45.3346 9.39376 45.134 9.18191L44.8815 8.91048C44.6226 8.63244 44.2602 8.48017 43.8848 8.49341L42.1631 8.54637C42.0531 8.54637 41.943 8.56624 41.8395 8.59934" fill="#F41BA2"/>
<path d="M41.5571 13.6768L37.3047 13.7496C37.3047 13.7496 37.4471 15.6761 39.6607 16.0137" stroke="#081017" stroke-width="0.439785" stroke-linecap="round" stroke-linejoin="round"/>
<path d="M39.2447 9.08914L38.9923 8.81771C38.7334 8.53966 38.3709 8.3874 37.9955 8.40064L36.2738 8.4536C35.7625 8.46684 35.3029 8.78462 35.1023 9.26789L35.0699 9.3407C34.934 9.65847 34.9275 10.0093 35.0376 10.3337L35.1346 10.6051C35.3159 11.1281 35.7948 11.4856 36.3385 11.4989L38.0861 11.5518C38.4421 11.5651 38.7916 11.4261 39.0505 11.1679L39.2188 10.9957C39.51 10.7044 39.6524 10.2874 39.6071 9.87031C39.5748 9.57903 39.4518 9.3076 39.2512 9.09576L39.2447 9.08914Z" fill="white"/>
<path d="M40.7395 9.93633C40.7395 9.93633 40.3382 9.61195 39.5098 10.0224L40.7395 9.93633Z" fill="white"/>
<path d="M41.8395 8.58609C41.4641 8.69202 41.1469 8.97007 40.9851 9.34742L40.9527 9.42024C40.8168 9.73801 40.8103 10.0889 40.9204 10.4133L41.0175 10.6847C41.1987 11.2077 41.6777 11.5652 42.2213 11.5784L43.9689 11.6314C44.3249 11.6446 44.6744 11.5056 44.9333 11.2474L45.1016 11.0753C45.3929 10.784 45.5353 10.3669 45.49 9.95647C45.4576 9.66518 45.3346 9.39376 45.134 9.18191L44.8815 8.91048C44.6226 8.63244 44.2602 8.48017 43.8848 8.49341L42.1631 8.54637C42.0531 8.54637 41.943 8.56624 41.8395 8.59934" fill="white"/>
<path d="M41.5571 13.6768L37.3047 13.7496C37.3047 13.7496 37.4471 15.6761 39.6607 16.0137" fill="white"/>
<path d="M39.4727 12.5579C39.4727 12.5579 40.217 11.876 41.1231 12.6374L39.4727 12.5579Z" fill="white"/>
<path d="M45.3414 10.221C45.9692 10.221 46.4741 9.70464 46.4741 9.06249V8.68514C46.4741 4.13048 42.8689 0.443054 38.4159 0.443054H37.678C32.9142 0.443054 29.8722 4.80574 30.6424 9.61859L31.1861 13.0213C31.2961 13.6966 32.2994 14.4248 32.856 14.8088" fill="white"/>
<path d="M43.4135 6.70571C40.7986 5.5538 38.7274 4.98447 39.0639 5.95764C39.4005 6.9308 36.9216 7.04334 34.7339 5.17645C34.462 7.69873 32.6303 7.77155 32.6303 7.77155H32.3326C31.6465 7.77155 31.0898 8.34088 31.0898 9.04262C31.0898 9.74436 31.6465 10.3137 32.3326 10.3137L32.5073 11.5119C32.5073 15.0008 35.2452 17.8342 38.6497 17.8871C41.7565 17.9335 44.2355 15.2126 44.2355 12.0349V7.24856" fill="white"/>
<path d="M43.4135 6.70571C40.7986 5.5538 38.7274 4.98447 39.0639 5.95764C39.4005 6.9308 36.9216 7.04334 34.7339 5.17645C34.462 7.69873 32.6303 7.77155 32.6303 7.77155H32.3326C31.6465 7.77155 31.0898 8.34088 31.0898 9.04262C31.0898 9.74436 31.6465 10.3137 32.3326 10.3137L32.5073 11.5119C32.5073 15.0008 35.2452 17.8342 38.6497 17.8871C41.7565 17.9335 44.2355 15.2126 44.2355 12.0349V7.24856" stroke="#081017" stroke-width="0.439785" stroke-linecap="round" stroke-linejoin="round"/>
<path d="M39.2447 9.08914L38.9923 8.81771C38.7334 8.53966 38.3709 8.3874 37.9955 8.40064L36.2738 8.4536C35.7625 8.46684 35.3029 8.78462 35.1023 9.26789L35.0699 9.3407C34.934 9.65847 34.9275 10.0093 35.0376 10.3337L35.1346 10.6051C35.3159 11.1281 35.7948 11.4856 36.3385 11.4989L38.0861 11.5518C38.4421 11.5651 38.7916 11.4261 39.0505 11.1679L39.2188 10.9957C39.51 10.7044 39.6524 10.2874 39.6071 9.87031C39.5748 9.57903 39.4518 9.3076 39.2512 9.09576L39.2447 9.08914Z" fill="#F41BA2"/>
<path d="M35.097 9.26126L32.5469 7.59961" stroke="#081017" stroke-width="0.439785" stroke-linecap="round" stroke-linejoin="round"/>
<path d="M40.7395 9.93633C40.7395 9.93633 40.3382 9.61195 39.5098 10.0224" stroke="#081017" stroke-width="0.439785" stroke-linecap="round" stroke-linejoin="round"/>
<path d="M41.8395 8.58609C41.4641 8.69202 41.1469 8.97007 40.9851 9.34742L40.9527 9.42024C40.8168 9.73801 40.8103 10.0889 40.9204 10.4133L41.0175 10.6847C41.1987 11.2077 41.6777 11.5652 42.2213 11.5784L43.9689 11.6314C44.3249 11.6446 44.6744 11.5056 44.9333 11.2474L45.1016 11.0753C45.3929 10.784 45.5353 10.3669 45.49 9.95647C45.4576 9.66518 45.3346 9.39376 45.134 9.18191L44.8815 8.91048C44.6226 8.63244 44.2602 8.48017 43.8848 8.49341L42.1631 8.54637C42.0531 8.54637 41.943 8.56624 41.8395 8.59934" fill="#F41BA2"/>
<path d="M41.0066 13.6373L37.1426 13.6968C37.1426 13.6968 37.2591 15.2923 39.0908 15.5704" stroke="#081017" stroke-width="0.439785" stroke-linecap="round" stroke-linejoin="round"/>
<path d="M39.2447 9.08914L38.9923 8.81771C38.7334 8.53966 38.3709 8.3874 37.9955 8.40064L36.2738 8.4536C35.7625 8.46684 35.3029 8.78462 35.1023 9.26789L35.0699 9.3407C34.934 9.65847 34.9275 10.0093 35.0376 10.3337L35.1346 10.6051C35.3159 11.1281 35.7948 11.4856 36.3385 11.4989L38.0861 11.5518C38.4421 11.5651 38.7916 11.4261 39.0505 11.1679L39.2188 10.9957C39.51 10.7044 39.6524 10.2874 39.6071 9.87031C39.5748 9.57903 39.4518 9.3076 39.2512 9.09576L39.2447 9.08914Z" fill="white"/>
<path d="M40.7395 9.93633C40.7395 9.93633 40.3382 9.61195 39.5098 10.0224L40.7395 9.93633Z" fill="white"/>
<path d="M41.8395 8.58609C41.4641 8.69202 41.1469 8.97007 40.9851 9.34742L40.9527 9.42024C40.8168 9.73801 40.8103 10.0889 40.9204 10.4133L41.0175 10.6847C41.1987 11.2077 41.6777 11.5652 42.2213 11.5784L43.9689 11.6314C44.3249 11.6446 44.6744 11.5056 44.9333 11.2474L45.1016 11.0753C45.3929 10.784 45.5353 10.3669 45.49 9.95647C45.4576 9.66518 45.3346 9.39376 45.134 9.18191L44.8815 8.91048C44.6226 8.63244 44.2602 8.48017 43.8848 8.49341L42.1631 8.54637C42.0531 8.54637 41.943 8.56624 41.8395 8.59934" fill="white"/>
<path d="M41.0066 13.6373L37.1426 13.6968C37.1426 13.6968 37.2591 15.2923 39.0908 15.5704" fill="white"/>
<path d="M39.2447 9.08914L38.9923 8.81771C38.7334 8.53966 38.3709 8.3874 37.9955 8.40064L36.2738 8.4536C35.7625 8.46684 35.3029 8.78462 35.1023 9.26789L35.0699 9.3407C34.934 9.65847 34.9275 10.0093 35.0376 10.3337L35.1346 10.6051C35.3159 11.1281 35.7948 11.4856 36.3385 11.4989L38.0861 11.5518C38.4421 11.5651 38.7916 11.4261 39.0505 11.1679L39.2188 10.9957C39.51 10.7044 39.6524 10.2874 39.6071 9.87031C39.5748 9.57903 39.4518 9.3076 39.2512 9.09576L39.2447 9.08914Z" stroke="#081017" stroke-width="0.439785" stroke-linecap="round" stroke-linejoin="round"/>
<path d="M35.097 9.26126L32.5469 7.59961" stroke="#081017" stroke-width="0.439785" stroke-linecap="round" stroke-linejoin="round"/>
<path d="M40.7395 9.93633C40.7395 9.93633 40.3382 9.61195 39.5098 10.0224" stroke="#081017" stroke-width="0.439785" stroke-linecap="round" stroke-linejoin="round"/>
<path d="M41.8395 8.58609C41.4641 8.69202 41.1469 8.97007 40.9851 9.34742L40.9527 9.42024C40.8168 9.73801 40.8103 10.0889 40.9204 10.4133L41.0175 10.6847C41.1987 11.2077 41.6777 11.5652 42.2213 11.5784L43.9689 11.6314C44.3249 11.6446 44.6744 11.5056 44.9333 11.2474L45.1016 11.0753C45.3929 10.784 45.5353 10.3669 45.49 9.95647C45.4576 9.66518 45.3346 9.39376 45.134 9.18191L44.8815 8.91048C44.6226 8.63244 44.2602 8.48017 43.8848 8.49341L42.1631 8.54637C42.0531 8.54637 41.943 8.56624 41.8395 8.59934" stroke="#081017" stroke-width="0.439785" stroke-linecap="round" stroke-linejoin="round"/>
<path d="M41.0066 13.6373L37.1426 13.6968C37.1426 13.6968 37.2591 15.2923 39.0908 15.5704" stroke="#081017" stroke-width="0.439785" stroke-linecap="round" stroke-linejoin="round"/>
<path d="M39.4473 12.174C39.4473 12.174 40.1916 11.4921 41.0977 12.2535L39.4473 12.174Z" fill="white"/>
<path d="M39.4473 12.174C39.4473 12.174 40.1916 11.4921 41.0977 12.2535" stroke="#081017" stroke-width="0.439785" stroke-linecap="round" stroke-linejoin="round"/>
<path d="M45.3414 10.221C45.9692 10.221 46.4741 9.70464 46.4741 9.06249V8.68514C46.4741 4.13048 42.8689 0.443054 38.4159 0.443054H37.678C32.9142 0.443054 29.8722 4.80574 30.6424 9.61859L31.1861 13.0213C31.2961 13.6966 32.2994 14.4248 32.856 14.8088" stroke="#E10098" stroke-width="0.439785" stroke-linecap="round" stroke-linejoin="round"/>
<path d="M42.1269 10.559C42.4344 10.559 42.6836 10.3041 42.6836 9.98968C42.6836 9.67525 42.4344 9.42035 42.1269 9.42035C41.8195 9.42035 41.5703 9.67525 41.5703 9.98968C41.5703 10.3041 41.8195 10.559 42.1269 10.559Z" fill="black"/>
<path d="M37.207 10.6316C37.5144 10.6316 37.7636 10.3767 37.7636 10.0623C37.7636 9.74788 37.5144 9.49298 37.207 9.49298C36.8996 9.49298 36.6504 9.74788 36.6504 10.0623C36.6504 10.3767 36.8996 10.6316 37.207 10.6316Z" fill="black"/>
<path d="M25.7773 55.4698C25.7773 55.4698 25.7579 60.713 30.3663 60.713H36.8518" fill="white"/>
<path d="M25.7773 55.4698C25.7773 55.4698 25.7579 60.713 30.3663 60.713H36.8518" stroke="#081017" stroke-width="0.439785" stroke-linecap="round" stroke-linejoin="round"/>
<g style="mix-blend-mode:multiply">
<path d="M27.2973 20.3036L23.4785 29.83C23.1743 30.5847 23.5174 31.4519 24.2488 31.7829L28.3135 33.6233L21.8604 31.538L19.7245 37.8669L18.3264 26.0168C17.9769 23.051 20.1193 20.3897 23.0255 20.1712L25.841 19.9594" fill="#E6E6E6"/>
</g>
<g style="mix-blend-mode:multiply">
<path d="M31.2923 26.6194L29.4217 35.5235C29.4217 35.5235 31.6418 38.2708 32.6321 38.8071C28.5415 37.7346 26.2891 36.8078 26.2891 36.8078C26.2891 36.8078 26.6968 36.9336 26.7162 36.4635C26.7357 35.9935 27.823 33.4977 27.823 33.4977L28.6645 33.7691L30.8651 26.3678L31.2923 26.6194Z" fill="#E6E6E6"/>
</g>
<g style="mix-blend-mode:multiply">
<path d="M47.2715 58.7205L51.5433 58.8595C53.1226 58.9125 54.3977 60.2034 54.4624 61.8187L55.2262 81.8447L52.5466 81.7056L52.1388 62.1365C52.1194 61.1368 51.2715 60.3556 50.3006 60.4417L47.5433 60.68L47.278 58.7205H47.2715Z" fill="#E6E6E6"/>
</g>
<g style="mix-blend-mode:multiply">
<path d="M46.2148 26.1692L47.0951 27.6058L48.1177 40.7335L46.4284 38.2443L46.2148 26.1692Z" fill="#E6E6E6"/>
</g>
<path d="M78.7597 43.5935H3.54297" stroke="#081017" stroke-width="0.439785" stroke-miterlimit="10"/>
<g style="mix-blend-mode:multiply">
<path d="M64.1728 25.8514L66.9883 43.6597L56.6388 43.6398C56.6388 43.6398 56.4511 41.6471 59.6226 42.3356C61.0142 42.2628 62.1793 42.2429 63.0725 42.2429C64.2052 42.2429 65.066 41.2036 64.8718 40.0583L62.7877 27.533C62.6453 26.6723 63.2796 25.8779 64.134 25.8581H64.1663L64.1728 25.8514Z" fill="#E6E6E6"/>
</g>
<path d="M9.02811 55.6157L4.9375 90.5834H6.42617L11.6689 55.6091L9.02811 55.6157Z" fill="white" stroke="#081017" stroke-width="0.439785" stroke-miterlimit="10"/>
<path d="M72.172 55.6157L76.2626 90.5834H74.774L69.5312 55.6091L72.172 55.6157Z" fill="white" stroke="#081017" stroke-width="0.439785" stroke-miterlimit="10"/>
</svg>
