<svg width="48" height="41" viewBox="0 0 48 41" fill="none" xmlns="http://www.w3.org/2000/svg">
<path d="M30.6933 7.8286L28.6484 5.7407L29.5062 4.67114L31.3287 4.68821C31.3287 4.68821 31.9179 4.57158 32.5128 5.34246C33.1078 6.11333 33.258 6.82162 33.0818 7.92815C32.9056 9.03468 32.6659 9.79418 32.6659 9.79418L31.4413 10.4911L30.6962 7.8286H30.6933Z" fill="white"/>
<g style="mix-blend-mode:multiply">
<path d="M14.457 12.5876C14.457 12.5876 16.3315 12.7241 16.8225 14.4337C17.3135 16.1433 18.0557 20.0318 18.0557 20.814C18.0557 21.5963 16.5799 22.9588 16.5799 22.9588L17.0795 23.5846C17.0795 23.5846 19.1446 21.619 19.1446 20.9705C19.1446 20.3219 17.4203 14.6669 17.4203 14.6669C17.4203 14.6669 16.4903 12.3629 14.4599 12.5876H14.457Z" fill="#E6E6E6"/>
</g>
<path d="M27.6002 35.3553C27.5309 35.3553 26.4738 35.2017 26.4738 35.2017C26.4738 35.2017 25.7027 36.0977 25.4456 36.2598C25.1886 36.422 24.1604 36.604 24.2066 37.7561C24.4405 38.0092 25.4456 38.3079 26.3323 38.1003C27.219 37.8926 27.9901 37.4318 27.9901 37.4318L28.1548 37.1786C28.1548 37.1786 28.8133 37.0535 28.9519 36.9852" stroke="black" stroke-width="0.336377" stroke-linecap="round" stroke-linejoin="round"/>
<path d="M14.2035 35.4464C14.2035 35.4464 14.7639 36.0807 15.6332 36.2428C16.5026 36.405 17.1813 36.5671 17.6405 36.5074C18.0997 36.4476 18.816 36.3452 18.816 36.3452C18.816 36.3452 18.8304 36.8004 18.6254 36.8743C18.4203 36.9483 17.2477 37.0962 16.8549 36.9341C16.4621 36.7719 15.7487 36.6553 15.1191 36.5074C14.4895 36.3595 13.9609 36.1546 13.9609 35.9185C13.9609 35.6825 14.0794 35.4037 14.0794 35.4037" fill="#E10098"/>
<path d="M37.5 20.5267C37.5924 20.4442 37.682 20.3617 37.7744 20.2792C37.8957 20.1739 38.0141 20.0658 38.1383 19.9663C38.3982 19.7615 38.6986 19.8497 38.9788 19.8923C39.4842 19.972 39.981 20.0858 40.4806 20.191C40.5528 20.2052 40.6192 20.2621 40.6857 20.2991" fill="white"/>
<path d="M37.5 20.5267C37.5924 20.4442 37.682 20.3617 37.7744 20.2792C37.8957 20.1739 38.0141 20.0658 38.1383 19.9663C38.3982 19.7615 38.6986 19.8497 38.9788 19.8923C39.4842 19.972 39.981 20.0858 40.4806 20.191C40.5528 20.2052 40.6192 20.2621 40.6857 20.2991" stroke="black" stroke-width="0.336377" stroke-linecap="round" stroke-linejoin="round"/>
<path d="M40.8125 20.3304C42.2393 20.376 42.583 21.2635 42.5512 21.8494C42.5108 22.5748 42.4588 23.3002 42.4154 24.0227C42.3952 24.3441 42.3923 24.6655 42.3663 24.987C42.3259 25.5331 42.2739 26.0764 42.2335 26.6226C42.2133 26.8758 42.2017 27.1318 42.1873 27.3849C42.1555 27.9595 42.1266 28.537 42.0949 29.1116C42.066 29.6207 42.04 30.1271 42.0024 30.6363C41.9764 30.9947 41.9273 31.3531 41.8898 31.7115" fill="white"/>
<path d="M40.8125 20.3304C42.2393 20.376 42.583 21.2635 42.5512 21.8494C42.5108 22.5748 42.4588 23.3002 42.4154 24.0227C42.3952 24.3441 42.3923 24.6655 42.3663 24.987C42.3259 25.5331 42.2739 26.0764 42.2335 26.6226C42.2133 26.8758 42.2017 27.1318 42.1873 27.3849C42.1555 27.9595 42.1266 28.537 42.0949 29.1116C42.066 29.6207 42.04 30.1271 42.0024 30.6363C41.9764 30.9947 41.9273 31.3531 41.8898 31.7115" stroke="black" stroke-width="0.336377" stroke-linecap="round" stroke-linejoin="round"/>
<path d="M4.77201 27.2512C4.7258 27.0351 4.65648 26.8189 4.63915 26.5998C4.58139 25.846 4.54095 25.0922 4.50052 24.3356C4.46586 23.7012 4.45142 23.0641 4.40521 22.4297C4.35322 21.6987 4.12216 21.0444 3.44921 20.6434C3.22682 20.5097 2.95244 20.4585 2.70117 20.3674" fill="white"/>
<path d="M4.77201 27.2512C4.7258 27.0351 4.65648 26.8189 4.63915 26.5998C4.58139 25.846 4.54095 25.0922 4.50052 24.3356C4.46586 23.7012 4.45142 23.0641 4.40521 22.4297C4.35322 21.6987 4.12216 21.0444 3.44921 20.6434C3.22682 20.5097 2.95244 20.4585 2.70117 20.3674" stroke="black" stroke-width="0.336377" stroke-linecap="round" stroke-linejoin="round"/>
<path d="M2.6843 20.3304C2.63809 20.3447 2.22219 20.3617 2.17598 20.3703C1.38172 20.5068 1.09579 21.0188 1.05247 21.6958C1.01492 22.296 1.09868 22.9048 1.13045 23.5107C1.142 23.7496 1.16222 23.9885 1.17666 24.2275C1.20843 24.7793 1.23442 25.334 1.26908 25.8859C1.30952 26.5429 1.35861 27.2 1.40483 27.8571C1.44815 28.4772 1.48281 29.1002 1.54635 29.7175C1.60989 30.3376 1.58101 30.9719 1.77163 31.5778C1.93914 32.1126 2.27417 32.4994 2.84315 32.6246C3.08287 32.6786 3.34281 32.6502 3.59119 32.653C3.8569 32.6587 3.89156 32.7099 3.84535 32.9688C3.79625 33.2504 3.77026 33.5377 3.72694 33.8193C3.66917 34.2147 3.60274 34.6101 3.54498 35.0083C3.49588 35.3525 3.45256 35.6967 3.40635 36.0381C3.38613 36.1973 3.44967 36.2514 3.61141 36.2429C3.83958 36.2315 4.06774 36.2372 4.29302 36.2429C4.41144 36.2429 4.4692 36.223 4.50386 36.0864C4.77824 35.0368 5.06706 33.9928 5.3501 32.946C5.42808 32.6559 5.4252 32.6559 5.72557 32.6559C5.99995 32.6559 6.27144 32.653 6.54582 32.6559C6.62957 32.6559 6.71333 32.6843 6.79709 32.6986" stroke="black" stroke-width="0.336377" stroke-linecap="round" stroke-linejoin="round"/>
<path d="M44.6914 19.1584V31.7342V19.1584Z" fill="white"/>
<path d="M44.6914 19.1584V31.7342" stroke="black" stroke-width="0.336377" stroke-linecap="round" stroke-linejoin="round"/>
<path d="M16.3321 6.9895C16.4072 6.97527 16.4823 6.95252 16.5603 6.94683C16.8549 6.92123 17.1524 6.89278 17.447 6.8814C17.5452 6.87856 17.6434 6.94114 17.7416 6.94114C18.712 6.94683 19.6825 6.94114 20.6558 6.94683C20.7915 6.94683 20.8695 6.92123 20.8608 6.76478C20.8406 6.33809 20.8262 5.91426 20.8175 5.48757C20.8175 5.40508 20.8579 5.32259 20.8579 5.2401C20.8608 4.25304 20.8579 3.26882 20.8637 2.28176C20.8637 2.10825 20.8088 2.0542 20.6327 2.0542C18.5849 2.05989 16.5372 2.05989 14.4866 2.0542C14.3104 2.0542 14.2526 2.10825 14.2555 2.28176C14.2642 3.0441 14.2613 3.80644 14.2555 4.56878C14.2555 4.77928 14.2411 4.98693 14.2324 5.19743" fill="white"/>
<path d="M16.3321 6.9895C16.4072 6.97527 16.4823 6.95252 16.5603 6.94683C16.8549 6.92123 17.1524 6.89278 17.447 6.8814C17.5452 6.87856 17.6434 6.94114 17.7416 6.94114C18.712 6.94683 19.6825 6.94114 20.6558 6.94683C20.7915 6.94683 20.8695 6.92123 20.8608 6.76478C20.8406 6.33809 20.8262 5.91426 20.8175 5.48757C20.8175 5.40508 20.8579 5.32259 20.8579 5.2401C20.8608 4.25304 20.8579 3.26882 20.8637 2.28176C20.8637 2.10825 20.8088 2.0542 20.6327 2.0542C18.5849 2.05989 16.5372 2.05989 14.4866 2.0542C14.3104 2.0542 14.2526 2.10825 14.2555 2.28176C14.2642 3.0441 14.2613 3.80644 14.2555 4.56878C14.2555 4.77928 14.2411 4.98693 14.2324 5.19743" stroke="black" stroke-width="0.336377" stroke-linecap="round" stroke-linejoin="round"/>
<path d="M43.666 19.1584V31.7115V19.1584Z" fill="white"/>
<path d="M43.666 19.1584V31.7115" stroke="black" stroke-width="0.336377" stroke-linecap="round" stroke-linejoin="round"/>
<path d="M13.0801 5.57861C13.0801 4.36683 13.0801 2.43822 13.0801 1.22929C13.0801 0.984659 13.0801 0.981812 13.3313 0.981812C16.1387 0.981812 18.946 0.981812 21.7533 0.981812C22.0017 0.981812 22.0046 0.981814 22.0046 1.22929C22.0046 3.41106 22.0046 5.59283 22.0046 7.7746C22.0046 8.01923 22.0046 8.02208 21.7533 8.02208C20.1302 8.02208 17.681 8.02208 16.0578 8.02208" fill="white"/>
<path d="M13.0801 5.57861C13.0801 4.36683 13.0801 2.43822 13.0801 1.22929C13.0801 0.984659 13.0801 0.981812 13.3313 0.981812C16.1387 0.981812 18.946 0.981812 21.7533 0.981812C22.0017 0.981812 22.0046 0.981814 22.0046 1.22929C22.0046 3.41106 22.0046 5.59283 22.0046 7.7746C22.0046 8.01923 22.0046 8.02208 21.7533 8.02208C20.1302 8.02208 17.681 8.02208 16.0578 8.02208" stroke="black" stroke-width="0.336377" stroke-linecap="round" stroke-linejoin="round"/>
<path d="M47.2816 35.5885V36.6865C46.8946 36.7007 45.5083 36.7292 45.1213 36.7292C40.7226 36.7178 36.3209 36.7007 31.9222 36.6893C31.489 36.6893 28.2918 36.695 27.8672 36.6922V35.5885" fill="white"/>
<path d="M47.2816 35.5885V36.6865C46.8946 36.7007 45.5083 36.7292 45.1213 36.7292C40.7226 36.7178 36.3209 36.7007 31.9222 36.6893C31.489 36.6893 28.2918 36.695 27.8672 36.6922V35.5885" stroke="black" stroke-width="0.336377" stroke-linecap="round" stroke-linejoin="round"/>
<path d="M3.31641 9.47559C3.31641 12.8834 3.31641 16.2911 3.31641 19.6961C3.31641 19.7785 3.33085 19.861 3.33951 19.9435" fill="white"/>
<path d="M3.31641 9.47559C3.31641 12.8834 3.31641 16.2911 3.31641 19.6961C3.31641 19.7785 3.33085 19.861 3.33951 19.9435" stroke="black" stroke-width="0.336377" stroke-linecap="round" stroke-linejoin="round"/>
<path d="M3.95508 9.47559C3.95508 12.8009 3.95508 16.1261 3.95508 19.4514C3.95508 19.5481 3.98396 19.6449 3.9984 19.7416" fill="white"/>
<path d="M3.95508 9.47559C3.95508 12.8009 3.95508 16.1261 3.95508 19.4514C3.95508 19.5481 3.98396 19.6449 3.9984 19.7416" stroke="black" stroke-width="0.336377" stroke-linecap="round" stroke-linejoin="round"/>
<path d="M38.4317 19.8098C38.4231 19.7643 38.4115 19.7216 38.4086 19.6761C38.3913 19.167 38.3884 18.6606 38.3595 18.1515C38.3277 17.6337 38.2642 17.1217 38.2295 16.604C38.2036 16.2314 38.2151 15.8559 38.1776 15.4833C38.1227 14.957 38.1256 14.4279 37.9609 13.9131C37.7299 13.1906 37.0223 12.5164 36.1356 12.5022C35.5522 12.4936 34.9659 12.4851 34.3825 12.4851C34.3074 12.4851 34.2294 12.542 34.1543 12.5704" fill="white"/>
<path d="M38.4317 19.8098C38.4231 19.7643 38.4115 19.7216 38.4086 19.6761C38.3913 19.167 38.3884 18.6606 38.3595 18.1515C38.3277 17.6337 38.2642 17.1217 38.2295 16.604C38.2036 16.2314 38.2151 15.8559 38.1776 15.4833C38.1227 14.957 38.1256 14.4279 37.9609 13.9131C37.7299 13.1906 37.0223 12.5164 36.1356 12.5022C35.5522 12.4936 34.9659 12.4851 34.3825 12.4851C34.3074 12.4851 34.2294 12.542 34.1543 12.5704" stroke="black" stroke-width="0.336377" stroke-linecap="round" stroke-linejoin="round"/>
<path d="M6.16228 12.8635C5.46911 13.1537 5.08209 13.7112 4.91747 14.4081C4.82215 14.8092 4.80483 15.2273 4.77594 15.6398C4.72107 16.4164 4.67774 17.1929 4.63731 17.9695C4.6142 18.4559 4.60843 18.9395 4.58821 19.4259C4.58243 19.5937 4.65464 19.6506 4.81638 19.6535C5.0561 19.6535 5.03299 19.6592 5.00411 19.8981C4.92902 20.5154 4.80194 21.1326 4.86837 21.7584C4.91458 22.1965 5.13408 22.5578 5.49799 22.8394C5.97455 23.212 6.51464 23.4566 7.06917 23.6927C7.51684 23.8805 7.98473 24.0085 8.43818 24.1791C8.57392 24.2304 8.72988 24.2275 8.86852 24.2759C9.40283 24.4636 9.92849 24.6684 10.4628 24.8533C10.7603 24.9557 11.3004 24.8818 11.6036 24.9699" stroke="black" stroke-width="0.336377" stroke-linecap="round" stroke-linejoin="round"/>
<path d="M34.1753 12.7041C34.4179 12.8093 34.6634 12.9061 34.9031 13.0198C35.5905 13.3441 36.1854 13.7765 36.5869 14.4307C36.9133 14.9655 37.1241 15.543 37.2194 16.1574C37.3263 16.8287 37.4071 17.5 37.4938 18.1742C37.5313 18.4586 37.5573 18.7402 37.5862 19.0247C37.6007 19.1868 37.5025 19.2836 37.3378 19.2949C36.4338 19.3604 35.5327 19.4315 34.6287 19.494C34.3948 19.5111 34.1579 19.5054 33.924 19.5196C33.7998 19.5253 33.7709 19.4713 33.7622 19.3603C33.7391 19.0617 33.7016 18.763 33.6756 18.4643C33.6034 17.6565 33.5312 16.8515 33.459 16.0436" fill="white"/>
<path d="M34.1753 12.7041C34.4179 12.8093 34.6634 12.9061 34.9031 13.0198C35.5905 13.3441 36.1854 13.7765 36.5869 14.4307C36.9133 14.9655 37.1241 15.543 37.2194 16.1574C37.3263 16.8287 37.4071 17.5 37.4938 18.1742C37.5313 18.4586 37.5573 18.7402 37.5862 19.0247C37.6007 19.1868 37.5025 19.2836 37.3378 19.2949C36.4338 19.3604 35.5327 19.4315 34.6287 19.494C34.3948 19.5111 34.1579 19.5054 33.924 19.5196C33.7998 19.5253 33.7709 19.4713 33.7622 19.3603C33.7391 19.0617 33.7016 18.763 33.6756 18.4643C33.6034 17.6565 33.5312 16.8515 33.459 16.0436" stroke="black" stroke-width="0.336377" stroke-linecap="round" stroke-linejoin="round"/>
<path d="M15.7617 12.3914C15.8455 12.4056 15.9292 12.434 16.013 12.434C16.8563 12.4454 17.6968 12.4539 18.5402 12.4568C19.5337 12.4596 20.5272 12.4483 21.5208 12.4596C22.0753 12.4653 22.5721 12.6445 22.9793 13.0371C23.0544 13.111 23.0775 13.1537 23.0284 13.2646C22.8147 13.7397 22.7512 14.246 22.7454 14.7637C22.7454 14.8917 22.6761 15.0169 22.6356 15.1449" fill="white"/>
<path d="M15.7617 12.3914C15.8455 12.4056 15.9292 12.434 16.013 12.434C16.8563 12.4454 17.6968 12.4539 18.5402 12.4568C19.5337 12.4596 20.5272 12.4483 21.5208 12.4596C22.0753 12.4653 22.5721 12.6445 22.9793 13.0371C23.0544 13.111 23.0775 13.1537 23.0284 13.2646C22.8147 13.7397 22.7512 14.246 22.7454 14.7637C22.7454 14.8917 22.6761 15.0169 22.6356 15.1449" stroke="black" stroke-width="0.336377" stroke-linecap="round" stroke-linejoin="round"/>
<path d="M40.7081 20.3163C40.6013 20.3533 40.4713 20.467 40.3645 20.5069C39.9457 20.6605 39.6453 20.9279 39.4489 21.3346C39.2265 21.7869 39.1861 22.2648 39.1572 22.7484C39.1341 23.158 39.1139 23.5704 39.0879 23.9801C39.0445 24.6599 38.9983 25.3398 38.9492 26.0196C38.9348 26.2159 38.9059 26.4093 38.8828 26.6027" fill="white"/>
<path d="M40.7081 20.3163C40.6013 20.3533 40.4713 20.467 40.3645 20.5069C39.9457 20.6605 39.6453 20.9279 39.4489 21.3346C39.2265 21.7869 39.1861 22.2648 39.1572 22.7484C39.1341 23.158 39.1139 23.5704 39.0879 23.9801C39.0445 24.6599 38.9983 25.3398 38.9492 26.0196C38.9348 26.2159 38.9059 26.4093 38.8828 26.6027" stroke="black" stroke-width="0.336377" stroke-linecap="round" stroke-linejoin="round"/>
<path d="M36.291 25.4592C36.4816 25.4592 36.6723 25.4507 36.86 25.4621C37.0044 25.4735 37.1604 25.4849 37.2903 25.5417C37.79 25.7665 38.2405 26.0623 38.59 26.489" fill="white"/>
<path d="M36.291 25.4592C36.4816 25.4592 36.6723 25.4507 36.86 25.4621C37.0044 25.4735 37.1604 25.4849 37.2903 25.5417C37.79 25.7665 38.2405 26.0623 38.59 26.489" stroke="black" stroke-width="0.336377" stroke-linecap="round" stroke-linejoin="round"/>
<path d="M38.9336 26.6453C39.1618 26.7363 39.3928 26.8188 39.6152 26.9155C40.6203 27.3507 41.2239 28.1074 41.4579 29.157C41.6052 29.8141 41.4608 30.4484 41.3048 31.0856C41.2528 31.3018 41.0969 31.518 41.2297 31.7569" fill="white"/>
<path d="M38.9336 26.6453C39.1618 26.7363 39.3928 26.8188 39.6152 26.9155C40.6203 27.3507 41.2239 28.1074 41.4579 29.157C41.6052 29.8141 41.4608 30.4484 41.3048 31.0856C41.2528 31.3018 41.0969 31.518 41.2297 31.7569" stroke="black" stroke-width="0.336377" stroke-linecap="round" stroke-linejoin="round"/>
<path d="M39.0918 7.90833C39.6897 8.42034 40.1316 9.04899 40.481 9.74591C40.8911 10.5566 41.1135 11.4185 41.2753 12.3032C41.3273 12.5933 41.3677 12.8863 41.4139 13.1764" fill="white"/>
<path d="M39.0918 7.90833C39.6897 8.42034 40.1316 9.04899 40.481 9.74591C40.8911 10.5566 41.1135 11.4185 41.2753 12.3032C41.3273 12.5933 41.3677 12.8863 41.4139 13.1764" stroke="black" stroke-width="0.336377" stroke-linecap="round" stroke-linejoin="round"/>
<path d="M41.4587 13.2645C41.45 13.5547 41.4442 14.9912 41.4355 15.2813L41.4587 13.2645Z" fill="white"/>
<path d="M41.4587 13.2645C41.45 13.5547 41.4442 14.9912 41.4355 15.2813" stroke="black" stroke-width="0.336377" stroke-linecap="round" stroke-linejoin="round"/>
<path d="M38.4102 18.0832C38.5026 18.0747 38.5921 18.0605 38.6845 18.0605C40.0044 18.0605 41.3243 18.0605 42.6443 18.0605C43.554 18.0605 44.4638 18.0662 45.3765 18.0576C45.5584 18.0576 45.6133 18.1202 45.6047 18.2852C45.596 18.4786 45.596 18.6749 45.6047 18.8683C45.6104 19.0333 45.5584 19.1016 45.3736 19.0959C44.9201 19.0845 44.4638 19.093 44.0075 19.093H38.4535" fill="#E6E6E6"/>
<path d="M38.4102 18.0832C38.5026 18.0747 38.5921 18.0605 38.6845 18.0605C40.0044 18.0605 41.3243 18.0605 42.6443 18.0605C43.554 18.0605 44.4638 18.0662 45.3765 18.0576C45.5584 18.0576 45.6133 18.1202 45.6047 18.2852C45.596 18.4786 45.596 18.6749 45.6047 18.8683C45.6104 19.0333 45.5584 19.1016 45.3736 19.0959C44.9201 19.0845 44.4638 19.093 44.0075 19.093H38.4535" stroke="black" stroke-width="0.336377" stroke-linecap="round" stroke-linejoin="round"/>
<path d="M36.8385 10.5736C36.8761 10.6334 36.9021 10.7073 36.9541 10.75C37.5548 11.2649 38.0227 11.8935 38.5484 12.4766C38.8776 12.8407 39.2675 13.1167 39.7758 13.1963C40.2582 13.2731 40.7174 13.0541 40.6019 12.4539C40.5441 12.1581 40.4286 11.9106 40.2582 11.6688C39.6834 10.8638 38.8661 10.5423 37.9101 10.4855C37.6386 10.4684 37.3642 10.4798 37.0898 10.4855C36.9541 10.4855 36.8154 10.5054 36.6797 10.5167" fill="white"/>
<path d="M36.8385 10.5736C36.8761 10.6334 36.9021 10.7073 36.9541 10.75C37.5548 11.2649 38.0227 11.8935 38.5484 12.4766C38.8776 12.8407 39.2675 13.1167 39.7758 13.1963C40.2582 13.2731 40.7174 13.0541 40.6019 12.4539C40.5441 12.1581 40.4286 11.9106 40.2582 11.6688C39.6834 10.8638 38.8661 10.5423 37.9101 10.4855C37.6386 10.4684 37.3642 10.4798 37.0898 10.4855C36.9541 10.4855 36.8154 10.5054 36.6797 10.5167" stroke="black" stroke-width="0.336377" stroke-linecap="round" stroke-linejoin="round"/>
<path d="M22.5014 19.2949C22.4032 19.5424 22.2963 19.7842 22.2068 20.0345C22.1201 20.2848 22.0479 20.5408 21.9786 20.7968C21.9497 20.8992 21.9006 20.9362 21.7937 20.9561C21.1583 21.087 20.5547 21.2804 19.9886 21.6161C19.6103 21.8408 19.1799 21.9688 18.7207 21.8721" fill="white"/>
<path d="M22.5014 19.2949C22.4032 19.5424 22.2963 19.7842 22.2068 20.0345C22.1201 20.2848 22.0479 20.5408 21.9786 20.7968C21.9497 20.8992 21.9006 20.9362 21.7937 20.9561C21.1583 21.087 20.5547 21.2804 19.9886 21.6161C19.6103 21.8408 19.1799 21.9688 18.7207 21.8721" stroke="black" stroke-width="0.336377" stroke-linecap="round" stroke-linejoin="round"/>
<path d="M44.5334 6.69646C44.285 6.63104 44.0771 6.77042 43.8778 6.86144C43.0431 7.23408 42.3731 7.79162 42.0091 8.64783C41.8099 9.12287 41.7896 9.61497 41.9427 10.1042C42.0149 10.3375 42.0987 10.4769 42.4626 10.3745C43.1558 10.181 43.6496 9.74867 43.9616 9.11718C44.2533 8.5312 44.3919 7.89402 44.5074 7.25684C44.5392 7.08048 44.5392 6.89842 44.5565 6.71922" fill="white"/>
<path d="M44.5334 6.69646C44.285 6.63104 44.0771 6.77042 43.8778 6.86144C43.0431 7.23408 42.3731 7.79162 42.0091 8.64783C41.8099 9.12287 41.7896 9.61497 41.9427 10.1042C42.0149 10.3375 42.0987 10.4769 42.4626 10.3745C43.1558 10.181 43.6496 9.74867 43.9616 9.11718C44.2533 8.5312 44.3919 7.89402 44.5074 7.25684C44.5392 7.08048 44.5392 6.89842 44.5565 6.71922" stroke="black" stroke-width="0.336377" stroke-linecap="round" stroke-linejoin="round"/>
<path d="M40.6401 10.0587C40.978 9.82548 40.9606 9.4756 40.9173 9.13995C40.8538 8.63362 40.5707 8.22969 40.2068 7.8855C39.6465 7.35357 38.9505 7.06627 38.2284 6.83302C38.0609 6.77897 37.9916 6.84155 38.0493 7.00938C38.292 7.71483 38.4768 8.44018 38.8609 9.09728C39.2104 9.69463 39.7303 10.0018 40.3917 10.1213C40.461 10.1327 40.5419 10.0815 40.6198 10.0587" fill="#E10098"/>
<path d="M40.6401 10.0587C40.978 9.82548 40.9606 9.4756 40.9173 9.13995C40.8538 8.63362 40.5707 8.22969 40.2068 7.8855C39.6465 7.35357 38.9505 7.06627 38.2284 6.83302C38.0609 6.77897 37.9916 6.84155 38.0493 7.00938C38.292 7.71483 38.4768 8.44018 38.8609 9.09728C39.2104 9.69463 39.7303 10.0018 40.3917 10.1213C40.461 10.1327 40.5419 10.0815 40.6198 10.0587" stroke="black" stroke-width="0.336377" stroke-linecap="round" stroke-linejoin="round"/>
<path d="M5.52148 26.6908C5.60524 26.7818 5.69478 26.8672 5.76987 26.961C6.09335 27.3564 6.53235 27.5043 7.02335 27.5413C7.24863 27.5584 7.47968 27.5442 7.70496 27.5442" fill="white"/>
<path d="M5.52148 26.6908C5.60524 26.7818 5.69478 26.8672 5.76987 26.961C6.09335 27.3564 6.53235 27.5043 7.02335 27.5413C7.24863 27.5584 7.47968 27.5442 7.70496 27.5442" stroke="black" stroke-width="0.336377" stroke-linecap="round" stroke-linejoin="round"/>
<path d="M27.5992 12.5506C27.3103 12.5592 26.545 12.4511 26.2562 12.4568C25.641 12.4653 25.0258 12.4568 24.4135 12.4852C23.9543 12.5051 23.547 12.6701 23.2293 13.0171C23.1918 13.057 23.1311 13.0797 23.082 13.1082" fill="white"/>
<path d="M27.5992 12.5506C27.3103 12.5592 26.545 12.4511 26.2562 12.4568C25.641 12.4653 25.0258 12.4568 24.4135 12.4852C23.9543 12.5051 23.547 12.6701 23.2293 13.0171C23.1918 13.057 23.1311 13.0797 23.082 13.1082" stroke="black" stroke-width="0.336377" stroke-linecap="round" stroke-linejoin="round"/>
<path d="M45.259 10.5451C44.2193 10.4768 42.9138 10.7926 42.3737 11.8991C42.2293 12.1949 42.1571 12.5221 42.186 12.8606C42.212 13.1564 42.3708 13.3043 42.6654 13.31C43.3817 13.3214 43.8842 12.9573 44.2828 12.414C44.6814 11.8706 44.9817 11.2733 45.259 10.6646" fill="#E10098"/>
<path d="M45.259 10.5451C44.2193 10.4768 42.9138 10.7926 42.3737 11.8991C42.2293 12.1949 42.1571 12.5221 42.186 12.8606C42.212 13.1564 42.3708 13.3043 42.6654 13.31C43.3817 13.3214 43.8842 12.9573 44.2828 12.414C44.6814 11.8706 44.9817 11.2733 45.259 10.6646" stroke="black" stroke-width="0.336377" stroke-linecap="round" stroke-linejoin="round"/>
<path d="M9.30657 29.7373C8.91955 29.743 8.25238 29.7373 7.86536 29.7373C7.16064 29.7373 6.45303 29.7458 5.74831 29.7316C5.46527 29.7259 5.17356 29.6775 5.00316 29.4187C4.90207 29.2651 4.80098 29.083 4.78077 28.9038C4.73167 28.4572 4.72011 28.0078 4.70567 27.5612C4.6999 27.419 4.73456 27.2967 4.87897 27.1971C5.08692 27.052 5.25732 26.8529 5.45372 26.6908C5.59235 26.577 5.50859 26.4347 5.48837 26.3323C5.35552 25.6468 5.41617 24.9812 5.63856 24.3269C5.66456 24.253 5.73965 24.1989 5.79453 24.1364" fill="white"/>
<path d="M9.30657 29.7373C8.91955 29.743 8.25238 29.7373 7.86536 29.7373C7.16064 29.7373 6.45303 29.7458 5.74831 29.7316C5.46527 29.7259 5.17356 29.6775 5.00316 29.4187C4.90207 29.2651 4.80098 29.083 4.78077 28.9038C4.73167 28.4572 4.72011 28.0078 4.70567 27.5612C4.6999 27.419 4.73456 27.2967 4.87897 27.1971C5.08692 27.052 5.25732 26.8529 5.45372 26.6908C5.59235 26.577 5.50859 26.4347 5.48837 26.3323C5.35552 25.6468 5.41617 24.9812 5.63856 24.3269C5.66456 24.253 5.73965 24.1989 5.79453 24.1364" stroke="black" stroke-width="0.336377" stroke-linecap="round" stroke-linejoin="round"/>
<path d="M14.0129 33.3926C13.9667 33.4978 13.9032 33.5974 13.8801 33.7083C13.8194 33.9928 13.7963 34.0383 13.5335 34.0866C12.849 34.209 12.1674 34.1862 11.4857 34.0525C11.2634 34.0098 11.041 33.9672 10.8272 33.9017C10.7117 33.8676 10.6597 33.9018 10.6453 33.9956C10.5789 34.4451 10.5991 34.5987 10.4258 35.014" fill="white"/>
<path d="M14.0129 33.3926C13.9667 33.4978 13.9032 33.5974 13.8801 33.7083C13.8194 33.9928 13.7963 34.0383 13.5335 34.0866C12.849 34.209 12.1674 34.1862 11.4857 34.0525C11.2634 34.0098 11.041 33.9672 10.8272 33.9017C10.7117 33.8676 10.6597 33.9018 10.6453 33.9956C10.5789 34.4451 10.5991 34.5987 10.4258 35.014" stroke="black" stroke-width="0.336377" stroke-linecap="round" stroke-linejoin="round"/>
<path d="M30.0075 36.4108C29.9411 36.7948 29.8746 37.1788 29.814 37.5628C29.7678 37.8501 29.736 38.1403 29.6956 38.4276C29.6725 38.5868 29.6494 38.749 29.6147 38.9083C29.606 38.9481 29.5425 38.9993 29.5021 39.0022C29.2999 39.005 29.0977 38.9936 28.8984 38.9879" fill="white"/>
<path d="M30.0075 36.4108C29.9411 36.7948 29.8746 37.1788 29.814 37.5628C29.7678 37.8501 29.736 38.1403 29.6956 38.4276C29.6725 38.5868 29.6494 38.749 29.6147 38.9083C29.606 38.9481 29.5425 38.9993 29.5021 39.0022C29.2999 39.005 29.0977 38.9936 28.8984 38.9879" stroke="black" stroke-width="0.336377" stroke-linecap="round" stroke-linejoin="round"/>
<path d="M27.8566 36.4049C27.8566 36.4049 27.6805 40.0033 27.666 40.4072L28.6422 40.3645C28.6942 40.0943 29.0581 37.4545 29.1303 36.8913C29.1506 36.732 29.1708 36.5699 29.1881 36.4106" fill="white"/>
<path d="M27.8566 36.4049C27.8566 36.4049 27.6805 40.0033 27.666 40.4072L28.6422 40.3645C28.6942 40.0943 29.0581 37.4545 29.1303 36.8913C29.1506 36.732 29.1708 36.5699 29.1881 36.4106" stroke="black" stroke-width="0.336377" stroke-linecap="round" stroke-linejoin="round"/>
<path d="M47.2729 36.4049C47.2729 36.4049 47.449 40.0033 47.4635 40.4072L46.4873 40.3645C46.4353 40.0943 46.0714 37.4545 45.9992 36.8913C45.979 36.732 45.9587 36.5699 45.9414 36.4106" fill="white"/>
<path d="M47.2729 36.4049C47.2729 36.4049 47.449 40.0033 47.4635 40.4072L46.4873 40.3645C46.4353 40.0943 46.0714 37.4545 45.9992 36.8913C45.979 36.732 45.9587 36.5699 45.9414 36.4106" stroke="black" stroke-width="0.336377" stroke-linecap="round" stroke-linejoin="round"/>
<path d="M45.1211 36.4105C45.1875 36.7945 45.254 37.1785 45.3146 37.5626C45.3608 37.8499 45.3926 38.14 45.433 38.4273C45.4561 38.5866 45.4792 38.7487 45.5139 38.908C45.5226 38.9479 45.5861 38.9991 45.6265 39.0019C45.8287 39.0048 46.0309 38.9934 46.2302 38.9877" fill="white"/>
<path d="M45.1211 36.4105C45.1875 36.7945 45.254 37.1785 45.3146 37.5626C45.3608 37.8499 45.3926 38.14 45.433 38.4273C45.4561 38.5866 45.4792 38.7487 45.5139 38.908C45.5226 38.9479 45.5861 38.9991 45.6265 39.0019C45.8287 39.0048 46.0309 38.9934 46.2302 38.9877" stroke="black" stroke-width="0.336377" stroke-linecap="round" stroke-linejoin="round"/>
<path d="M6.1808 23.2574C6.19524 23.3855 5.91797 24.3924 5.90353 24.5176C5.85154 25.0324 5.93819 25.516 6.12881 25.9996C6.32521 26.5059 6.67757 26.8359 7.13679 27.0976L8.27763 27.5869C8.42204 27.6381 8.57222 27.6807 8.70797 27.7461C8.95924 27.8656 9.0199 28.0363 8.91303 28.2809C8.85238 28.4175 8.80328 28.5426 8.86105 28.7104C8.99679 29.1115 9.41847 29.2594 9.7535 28.9977C10.0683 28.7531 10.1954 28.4175 10.2329 28.0334C10.2705 27.6807 10.155 27.382 9.93545 27.1147C9.68707 26.8131 9.35493 26.6481 8.97946 26.5543C8.61266 26.4604 8.21986 26.4433 7.88772 26.2385C7.12813 25.772 6.95195 25.223 7.14834 24.5403C7.21188 24.3185 7.41117 24.1336 7.54691 23.9316" fill="white"/>
<path d="M6.1808 23.2574C6.19524 23.3855 5.91797 24.3924 5.90353 24.5176C5.85154 25.0324 5.93819 25.516 6.12881 25.9996C6.32521 26.5059 6.67757 26.8359 7.13679 27.0976L8.27763 27.5869C8.42204 27.6381 8.57222 27.6807 8.70797 27.7461C8.95924 27.8656 9.0199 28.0363 8.91303 28.2809C8.85238 28.4175 8.80328 28.5426 8.86105 28.7104C8.99679 29.1115 9.41847 29.2594 9.7535 28.9977C10.0683 28.7531 10.1954 28.4175 10.2329 28.0334C10.2705 27.6807 10.155 27.382 9.93545 27.1147C9.68707 26.8131 9.35493 26.6481 8.97946 26.5543C8.61266 26.4604 8.21986 26.4433 7.88772 26.2385C7.12813 25.772 6.95195 25.223 7.14834 24.5403C7.21188 24.3185 7.41117 24.1336 7.54691 23.9316" stroke="black" stroke-width="0.336377" stroke-linecap="round" stroke-linejoin="round"/>
<path d="M20.8175 32.6302C20.7655 32.6388 20.7107 32.653 20.6587 32.653C19.7547 32.653 18.8535 32.653 17.9495 32.653C17.8889 32.653 17.8282 32.6388 17.7676 32.6302" fill="white"/>
<path d="M20.8175 32.6302C20.7655 32.6388 20.7107 32.653 20.6587 32.653C19.7547 32.653 18.8535 32.653 17.9495 32.653C17.8889 32.653 17.8282 32.6388 17.7676 32.6302" stroke="black" stroke-width="0.336377" stroke-linecap="round" stroke-linejoin="round"/>
<path d="M6.95703 20.9078C7.35849 21.0188 7.76573 21.1212 8.14119 21.3089C8.37802 21.4284 8.64663 21.4654 8.87191 21.6218C9.21271 21.8579 9.56796 22.0741 9.91743 22.296C9.9752 22.333 10.0359 22.3756 10.0994 22.3842C10.394 22.4211 10.6915 22.4354 10.9861 22.4809C11.4973 22.5577 11.9652 22.7369 12.3522 23.0839C12.6526 23.3541 12.6381 23.5504 12.3089 23.8008" fill="white"/>
<path d="M6.95703 20.9078C7.35849 21.0188 7.76573 21.1212 8.14119 21.3089C8.37802 21.4284 8.64663 21.4654 8.87191 21.6218C9.21271 21.8579 9.56796 22.0741 9.91743 22.296C9.9752 22.333 10.0359 22.3756 10.0994 22.3842C10.394 22.4211 10.6915 22.4354 10.9861 22.4809C11.4973 22.5577 11.9652 22.7369 12.3522 23.0839C12.6526 23.3541 12.6381 23.5504 12.3089 23.8007" stroke="black" stroke-width="0.336377" stroke-linecap="round" stroke-linejoin="round"/>
<path d="M7.73047 21.0872C7.97308 20.0489 8.20702 19.0078 8.46985 17.9752L7.73047 21.0872Z" fill="white"/>
<path d="M7.73047 21.0872C7.97308 20.0489 8.20702 19.0078 8.46985 17.9752" stroke="black" stroke-width="0.336377" stroke-linecap="round" stroke-linejoin="round"/>
<path d="M10.7476 33.8819C10.635 33.8222 10.4415 33.7824 10.3231 33.7312C10.1816 33.6714 10.0978 33.6231 10.1787 33.4353C10.2538 33.259 10.2538 33.0513 10.2769 32.855C10.2942 32.6957 10.1989 32.6502 10.0516 32.6531C9.71079 32.6588 9.36998 32.6531 9.02628 32.6531C8.36489 32.6531 7.70638 32.6559 7.04498 32.6531C6.86013 32.6531 6.78216 32.6929 6.76483 32.9006C6.73017 33.313 6.6493 33.7226 6.59153 34.1351C6.56843 34.3143 6.55976 34.4935 6.54532 34.6727H5.53734L5.34961 32.9461" fill="white"/>
<path d="M10.7476 33.8819C10.635 33.8222 10.4415 33.7824 10.3231 33.7312C10.1816 33.6714 10.0978 33.6231 10.1787 33.4353C10.2538 33.259 10.2538 33.0513 10.2769 32.855C10.2942 32.6957 10.1989 32.6502 10.0516 32.6531C9.71079 32.6588 9.36998 32.6531 9.02628 32.6531C8.36489 32.6531 7.70638 32.6559 7.04498 32.6531C6.86013 32.6531 6.78216 32.6929 6.76483 32.9006C6.73017 33.313 6.6493 33.7226 6.59153 34.1351C6.56843 34.3143 6.55976 34.4935 6.54532 34.6727H5.53734L5.34961 32.9461" stroke="black" stroke-width="0.336377" stroke-linecap="round" stroke-linejoin="round"/>
<path d="M14.535 33.5945C14.4513 33.8562 14.3704 34.1179 14.2838 34.3796C14.2289 34.5446 14.1625 34.7095 14.1018 34.8717C14.1018 34.8717 13.8274 35.4804 13.9921 35.8275C14.1567 36.1745 13.9921 36.22 14.6708 36.4248C15.3495 36.6325 17.146 37.0677 17.5676 37.0677C17.9893 37.0677 19.7251 36.8202 18.2926 35.9412C18.2319 35.89 18.1771 35.8303 18.1106 35.7848C17.7178 35.5259 17.0449 35.2785 16.7214 34.94C16.5135 34.7238 16.4586 34.482 16.5279 34.1975C16.5597 34.0724 16.5712 33.9813 16.5914 33.8562" stroke="black" stroke-width="0.336377" stroke-linecap="round" stroke-linejoin="round"/>
<path d="M11.7368 16.3566C11.5837 16.3964 11.5058 16.496 11.5115 16.6467C11.5231 16.9909 11.526 17.3351 11.5606 17.6764C11.5895 17.9666 11.6386 18.2397 11.5202 18.5326C11.3873 18.8541 11.3931 19.2125 11.4422 19.5595C11.4913 19.898 11.2631 20.0317 11.009 20.1398C10.7404 20.2536 10.466 20.356 10.1887 20.4556C9.60532 20.6632 9.16054 21.0444 8.7793 21.5109" fill="white"/>
<path d="M11.7368 16.3566C11.5837 16.3964 11.5058 16.496 11.5115 16.6467C11.5231 16.9909 11.526 17.3351 11.5606 17.6764C11.5895 17.9666 11.6386 18.2397 11.5202 18.5326C11.3873 18.8541 11.3931 19.2125 11.4422 19.5595C11.4913 19.898 11.2631 20.0317 11.009 20.1398C10.7404 20.2536 10.466 20.356 10.1887 20.4556C9.60532 20.6632 9.16054 21.0444 8.7793 21.5109" stroke="black" stroke-width="0.336377" stroke-linecap="round" stroke-linejoin="round"/>
<path d="M5.18132 29.6492C5.16688 29.7402 5.138 29.8284 5.138 29.9194C5.13511 30.8154 5.138 31.7115 5.138 32.6103" fill="white"/>
<path d="M5.18132 29.6492C5.16688 29.7402 5.138 29.8284 5.138 29.9194C5.13511 30.8154 5.138 31.7115 5.138 32.6103" stroke="black" stroke-width="0.336377" stroke-linecap="round" stroke-linejoin="round"/>
<path d="M10.2786 27.655C10.553 27.6465 10.8245 27.6408 11.0989 27.6323C11.2606 27.6266 11.2548 27.7432 11.2317 27.8342C11.0873 28.4544 10.9227 29.0745 10.7841 29.6974C10.7176 29.9989 10.6945 30.309 10.6425 30.6162C10.5559 31.1311 10.4519 31.6459 10.3739 32.1637C10.3479 32.3429 10.3682 32.5306 10.2324 32.6785" fill="white"/>
<path d="M10.2786 27.655C10.553 27.6465 10.8245 27.6408 11.0989 27.6323C11.2606 27.6266 11.2548 27.7432 11.2317 27.8342C11.0873 28.4544 10.9227 29.0745 10.7841 29.6974C10.7176 29.9989 10.6945 30.309 10.6425 30.6162C10.5559 31.1311 10.4519 31.6459 10.3739 32.1636C10.3479 32.3429 10.3682 32.5306 10.2324 32.6785" stroke="black" stroke-width="0.336377" stroke-linecap="round" stroke-linejoin="round"/>
<path d="M14.3301 4.79058C14.4514 4.77636 14.5727 4.76214 14.694 4.74507C15.6586 4.61991 16.4587 4.99824 17.1952 5.55293C17.4176 5.72075 17.6168 5.91418 17.8363 6.0877C17.9779 6.20148 17.9721 6.30104 17.8595 6.4262C17.7324 6.56274 17.6168 6.70781 17.4955 6.85004" fill="white"/>
<path d="M14.3301 4.79058C14.4514 4.77636 14.5727 4.76214 14.694 4.74507C15.6586 4.61991 16.4587 4.99824 17.1952 5.55293C17.4176 5.72075 17.6168 5.91418 17.8363 6.0877C17.9779 6.20148 17.9721 6.30104 17.8595 6.4262C17.7324 6.56274 17.6168 6.70781 17.4955 6.85004" stroke="black" stroke-width="0.336377" stroke-linecap="round" stroke-linejoin="round"/>
<path d="M25.7343 27.3422C25.3935 27.3507 25.0527 27.3592 24.709 27.3649C24.5501 27.3649 24.3913 27.3649 24.2324 27.3649" fill="white"/>
<path d="M25.7343 27.3422C25.3935 27.3507 25.0527 27.3592 24.709 27.3649C24.5501 27.3649 24.3913 27.3649 24.2324 27.3649" stroke="black" stroke-width="0.336377" stroke-linecap="round" stroke-linejoin="round"/>
<path d="M25.9817 32.653C25.5484 32.653 25.1181 32.653 24.6849 32.653C24.6011 32.653 24.5174 32.6672 24.4336 32.6757" fill="white"/>
<path d="M25.9817 32.653C25.5484 32.653 25.1181 32.653 24.6849 32.653C24.6011 32.653 24.5174 32.6672 24.4336 32.6757" stroke="black" stroke-width="0.336377" stroke-linecap="round" stroke-linejoin="round"/>
<path d="M25.8707 29.7175C25.4548 29.7261 25.036 29.7317 24.6201 29.7403C24.5277 29.7403 24.4381 29.7545 24.3457 29.763" fill="white"/>
<path d="M25.8707 29.7175C25.4548 29.7261 25.036 29.7317 24.6201 29.7403C24.5277 29.7403 24.4381 29.7545 24.3457 29.763" stroke="black" stroke-width="0.336377" stroke-linecap="round" stroke-linejoin="round"/>
<path d="M20.7944 5.46477C20.5663 5.45054 20.3381 5.43063 20.1128 5.41925C19.3821 5.38512 18.7698 5.67242 18.2008 6.09057C18.1315 6.14177 18.0506 6.18159 17.9727 6.2271" fill="white"/>
<path d="M20.7944 5.46477C20.5663 5.45054 20.3381 5.43063 20.1128 5.41925C19.3821 5.38512 18.7698 5.67242 18.2008 6.09057C18.1315 6.14177 18.0506 6.18159 17.9727 6.2271" stroke="black" stroke-width="0.336377" stroke-linecap="round" stroke-linejoin="round"/>
<path d="M42.2109 10.4172C42.0521 11.0601 41.8874 11.7001 41.7372 12.3458C41.6881 12.5592 41.6795 12.7811 41.639 12.9944C41.6246 13.0655 41.5668 13.1309 41.5293 13.1964" fill="white"/>
<path d="M42.2109 10.4172C42.0521 11.0601 41.8874 11.7001 41.7372 12.3458C41.6881 12.5592 41.6795 12.7811 41.639 12.9944C41.6246 13.0655 41.5668 13.1309 41.5293 13.1964" stroke="black" stroke-width="0.336377" stroke-linecap="round" stroke-linejoin="round"/>
<path d="M20.4068 29.7175C20.141 29.7261 19.8753 29.7403 19.6096 29.7374C19.2081 29.7374 18.8067 29.7232 18.4023 29.7175" fill="white"/>
<path d="M20.4068 29.7175C20.141 29.7261 19.8753 29.7403 19.6096 29.7374C19.2081 29.7374 18.8067 29.7232 18.4023 29.7175" stroke="black" stroke-width="0.336377" stroke-linecap="round" stroke-linejoin="round"/>
<path d="M20.3143 24.0682C20.193 24.0312 20.0716 23.9601 19.9503 23.9629C19.3438 23.9657 18.7315 23.9515 18.1308 24.0169C17.8391 24.0482 17.6369 23.9771 17.4203 23.8292C17.3394 23.7723 17.2123 23.778 17.1055 23.7552" fill="white"/>
<path d="M20.3143 24.0682C20.193 24.0312 20.0716 23.9601 19.9503 23.9629C19.3438 23.9657 18.7315 23.9515 18.1308 24.0169C17.8391 24.0482 17.6369 23.9771 17.4203 23.8292C17.3394 23.7723 17.2123 23.778 17.1055 23.7552" stroke="black" stroke-width="0.336377" stroke-linecap="round" stroke-linejoin="round"/>
<path d="M29.9877 33.5945C29.9213 33.805 30.0109 33.9956 30.2852 34.0325C30.652 34.0781 31.0304 34.0752 31.3972 34.0325C31.66 34.0013 31.7784 33.7879 31.7178 33.5945" fill="#E10098"/>
<path d="M29.9877 33.5945C29.9213 33.805 30.0109 33.9956 30.2852 34.0325C30.652 34.0781 31.0304 34.0752 31.3972 34.0325C31.66 34.0013 31.7784 33.7879 31.7178 33.5945" stroke="black" stroke-width="0.336377" stroke-linecap="round" stroke-linejoin="round"/>
<path d="M26.8431 34.5276C26.8344 34.6186 26.8344 34.7068 26.82 34.795C26.7969 34.9315 26.7622 35.0652 26.7305 35.1989" fill="white"/>
<path d="M26.8431 34.5276C26.8344 34.6186 26.8344 34.7068 26.82 34.795C26.7969 34.9315 26.7622 35.0652 26.7305 35.1989" stroke="black" stroke-width="0.336377" stroke-linecap="round" stroke-linejoin="round"/>
<path d="M40.4805 13.1082C40.7491 13.4779 40.8617 13.9132 40.9743 14.3427C41.0552 14.6471 41.0725 14.9685 41.1188 15.2814" fill="white"/>
<path d="M40.4805 13.1082C40.7491 13.4779 40.8617 13.9132 40.9743 14.3427C41.0552 14.6471 41.0725 14.9685 41.1188 15.2814" stroke="black" stroke-width="0.336377" stroke-linecap="round" stroke-linejoin="round"/>
<path d="M36.9961 23.2604C37.0105 23.3286 37.0394 23.3941 37.0394 23.4623C37.0423 24.0739 37.0394 24.6883 37.0394 25.2999C37.0394 25.3369 37.025 25.3739 37.0163 25.4109" fill="white"/>
<path d="M36.9961 23.2604C37.0105 23.3286 37.0394 23.3941 37.0394 23.4623C37.0423 24.0739 37.0394 24.6883 37.0394 25.2999C37.0394 25.3369 37.025 25.3739 37.0163 25.4109" stroke="black" stroke-width="0.336377" stroke-linecap="round" stroke-linejoin="round"/>
<path d="M9.52717 22.1168C9.43475 22.1993 9.34233 22.279 9.25568 22.3643C8.85134 22.7597 8.68382 23.249 8.6896 23.798C8.6896 23.926 8.73292 24.0511 8.75603 24.1791" fill="white"/>
<path d="M9.52717 22.1168C9.43475 22.1993 9.34233 22.279 9.25568 22.3643C8.85134 22.7597 8.68382 23.249 8.6896 23.798C8.6896 23.926 8.73292 24.0511 8.75603 24.1791" stroke="black" stroke-width="0.336377" stroke-linecap="round" stroke-linejoin="round"/>
<path d="M24.0625 33.9872C24.0943 34.1749 24.1232 34.3598 24.1549 34.5476L24.0625 33.9872Z" fill="white"/>
<path d="M24.0625 33.9872C24.0943 34.1749 24.1232 34.3598 24.1549 34.5476" stroke="black" stroke-width="0.336377" stroke-linecap="round" stroke-linejoin="round"/>
<path d="M42.3235 13.2645C42.1647 13.4181 42.1387 13.6258 42.0983 13.8249C41.9972 14.3085 41.899 14.7949 41.8008 15.2813" fill="white"/>
<path d="M42.3235 13.2645C42.1647 13.4181 42.1387 13.6258 42.0983 13.8249C41.9972 14.3085 41.899 14.7949 41.8008 15.2813" stroke="black" stroke-width="0.336377" stroke-linecap="round" stroke-linejoin="round"/>
<path d="M21.9791 34.0354C21.9474 34.2516 21.9185 34.4678 21.8867 34.6868L21.9791 34.0354Z" fill="white"/>
<path d="M21.9791 34.0354C21.9474 34.2516 21.9185 34.4678 21.8867 34.6868" stroke="black" stroke-width="0.336377" stroke-linecap="round" stroke-linejoin="round"/>
<path d="M43.1673 8.35486C42.8236 8.93799 42.503 9.5325 42.2806 10.1697C42.2575 10.2351 42.2488 10.3034 42.2344 10.3716" fill="white"/>
<path d="M43.1673 8.35486C42.8236 8.93799 42.503 9.5325 42.2806 10.1697C42.2575 10.2351 42.2488 10.3034 42.2344 10.3716" stroke="black" stroke-width="0.336377" stroke-linecap="round" stroke-linejoin="round"/>
<path d="M40.4348 12.9289C40.2673 12.7269 40.1084 12.5193 39.9322 12.3258C39.6261 11.9902 39.2766 11.7029 38.8636 11.4952C38.8087 11.4668 38.7423 11.4639 38.6816 11.4497" fill="white"/>
<path d="M40.4348 12.9289C40.2673 12.7269 40.1084 12.5193 39.9322 12.3258C39.6261 11.9902 39.2766 11.7029 38.8636 11.4952C38.8087 11.4668 38.7423 11.4639 38.6816 11.4497" stroke="black" stroke-width="0.336377" stroke-linecap="round" stroke-linejoin="round"/>
<path d="M35.7695 26.5344C35.8908 26.6766 36.0584 26.6681 36.2259 26.6709C36.3934 26.6738 36.5638 26.6823 36.7255 26.7193C36.8642 26.7506 36.9797 26.7534 37.1154 26.6965C37.3032 26.6169 37.5082 26.5685 37.7046 26.5116C37.9559 26.4405 38.1754 26.5913 38.1812 26.8473C38.1927 27.3678 38.2014 27.8884 38.0483 28.3947C38.0368 28.4289 38.0397 28.4687 38.0368 28.5057" fill="white"/>
<path d="M35.7695 26.5344C35.8908 26.6766 36.0584 26.6681 36.2259 26.6709C36.3934 26.6738 36.5638 26.6823 36.7255 26.7193C36.8642 26.7506 36.9797 26.7534 37.1154 26.6965C37.3032 26.6169 37.5082 26.5685 37.7046 26.5116C37.9559 26.4405 38.1754 26.5913 38.1812 26.8473C38.1927 27.3678 38.2014 27.8884 38.0483 28.3947C38.0368 28.4289 38.0397 28.4687 38.0368 28.5057" stroke="black" stroke-width="0.336377" stroke-linecap="round" stroke-linejoin="round"/>
<path d="M43.8472 11.4923C43.4891 11.6601 43.2292 11.9417 42.9837 12.2347C42.7526 12.5107 42.5418 12.8008 42.3223 13.0853" stroke="black" stroke-width="0.336377" stroke-linecap="round" stroke-linejoin="round"/>
<path d="M34.2227 19.5852C34.2689 20.1598 34.3151 20.7373 34.3584 21.3118L34.2227 19.5852Z" fill="white"/>
<path d="M34.2227 19.5852C34.2689 20.1598 34.3151 20.7373 34.3584 21.3118" stroke="black" stroke-width="0.336377" stroke-linecap="round" stroke-linejoin="round"/>
<path d="M20.0872 27.3422H18.9492H20.0872Z" fill="white"/>
<path d="M20.0872 27.3422H18.9492" stroke="black" stroke-width="0.336377" stroke-linecap="round" stroke-linejoin="round"/>
<g style="mix-blend-mode:multiply">
<path d="M18.9941 25.6811C19.2887 25.6725 19.5862 25.6669 19.8808 25.6583L18.9941 25.6811Z" fill="#E6E6E6"/>
</g>
<path d="M33.1734 28.2383C32.8529 28.6507 32.694 29.1286 32.5814 29.6293C32.5698 29.6748 32.5525 29.7203 32.5352 29.763" fill="white"/>
<path d="M33.1734 28.2383C32.8529 28.6507 32.694 29.1286 32.5814 29.6293C32.5698 29.6748 32.5525 29.7203 32.5352 29.763" stroke="black" stroke-width="0.336377" stroke-linecap="round" stroke-linejoin="round"/>
<path d="M39.5645 15.3382C40.1017 15.3296 40.532 15.3382 41.0721 15.3268C41.2021 15.3268 41.3291 15.304 41.4591 15.3069C41.7248 15.3154 41.9905 15.341 42.2563 15.3467C42.5508 15.3552 42.8483 15.3467 43.1429 15.3496C43.218 15.3496 43.296 15.378 43.3711 15.3922L43.4173 15.3581C43.3567 15.6681 43.2931 15.9782 43.2354 16.2883C43.1631 16.6694 43.0967 17.0506 43.0303 17.4318C42.9985 17.6195 42.9696 17.8044 42.9379 17.9921L39.9457 18.0263L39.6424 16.1318L39.5673 15.3353L39.5645 15.3382Z" fill="#E6E6E6" stroke="black" stroke-width="0.336377" stroke-linecap="round" stroke-linejoin="round"/>
<path d="M9.20898 29.7289C9.64221 29.7261 10.0726 29.7204 10.5058 29.7175C10.5809 29.7175 10.6589 29.7318 10.734 29.7374" fill="white"/>
<path d="M9.20898 29.7289C9.64221 29.7261 10.0726 29.7204 10.5058 29.7175C10.5809 29.7175 10.6589 29.7318 10.734 29.7374" stroke="black" stroke-width="0.336377" stroke-linecap="round" stroke-linejoin="round"/>
<path d="M34.199 27.4077C34.1586 27.2398 33.8582 26.9981 33.6994 27.035C33.6474 27.0464 33.5954 27.1574 33.5896 27.2285C33.5723 27.3991 33.5838 27.5727 33.5838 27.7433" fill="white"/>
<path d="M34.199 27.4077C34.1586 27.2398 33.8582 26.9981 33.6994 27.035C33.6474 27.0464 33.5954 27.1574 33.5896 27.2285C33.5723 27.3991 33.5838 27.5727 33.5838 27.7433" stroke="black" stroke-width="0.336377" stroke-linecap="round" stroke-linejoin="round"/>
<path d="M5.3863 32.6986C5.25633 32.6843 5.12925 32.6587 4.99928 32.6559C4.70468 32.6502 4.4072 32.6502 4.1126 32.6559C4.02884 32.6559 3.94509 32.6843 3.86133 32.6986" fill="white"/>
<path d="M5.3863 32.6986C5.25633 32.6843 5.12925 32.6587 4.99928 32.6559C4.70468 32.6502 4.4072 32.6502 4.1126 32.6559C4.02884 32.6559 3.94509 32.6843 3.86133 32.6986" stroke="black" stroke-width="0.336377" stroke-linecap="round" stroke-linejoin="round"/>
<path d="M15.6031 20.8169C15.6493 21.0416 15.6897 21.2663 15.7417 21.4882C15.8226 21.8552 15.7186 22.205 15.5944 22.5379C15.5078 22.7711 15.3691 23.0157 15.1843 23.1807C14.9446 23.3969 14.9128 23.6131 15.011 23.8862" fill="white"/>
<path d="M15.6031 20.8169C15.6493 21.0416 15.6897 21.2663 15.7417 21.4882C15.8226 21.8552 15.7186 22.205 15.5944 22.5379C15.5078 22.7711 15.3691 23.0157 15.1843 23.1807C14.9446 23.3969 14.9128 23.6131 15.011 23.8862" stroke="black" stroke-width="0.336377" stroke-linecap="round" stroke-linejoin="round"/>
<path d="M12.5086 19.5623C12.1678 19.5396 11.3389 19.4855 10.998 19.4628L12.5086 19.5623Z" fill="white"/>
<path d="M12.5086 19.5623C12.1678 19.5396 11.3389 19.4855 10.998 19.4628" stroke="black" stroke-width="0.336377" stroke-linecap="round" stroke-linejoin="round"/>
<path d="M11.4395 19.8981C11.7225 20.3646 12.1182 20.6917 12.6467 20.8624L11.4395 19.8981Z" fill="white"/>
<path d="M11.4395 19.8981C11.7225 20.3646 12.1182 20.6917 12.6467 20.8624" stroke="black" stroke-width="0.336377" stroke-linecap="round" stroke-linejoin="round"/>
<path d="M11.418 26.9611C11.3689 27.1972 11.3689 27.4503 11.2129 27.6551L11.418 26.9611Z" fill="white"/>
<path d="M11.418 26.9611C11.3689 27.1972 11.3689 27.4503 11.2129 27.6551" stroke="black" stroke-width="0.336377" stroke-linecap="round" stroke-linejoin="round"/>
<path d="M36.8157 26.7819C36.5962 26.9696 36.3767 27.1545 36.1543 27.3422L36.8157 26.7819Z" fill="white"/>
<path d="M36.8157 26.7819C36.5962 26.9696 36.3767 27.1545 36.1543 27.3422" stroke="black" stroke-width="0.336377" stroke-linecap="round" stroke-linejoin="round"/>
<path d="M4.6125 19.6079C4.18793 19.7274 3.76048 19.8355 3.3388 19.9692C3.10486 20.0431 2.88246 20.1598 2.6543 20.2565" fill="white"/>
<path d="M4.6125 19.6079C4.18793 19.7274 3.76048 19.8355 3.3388 19.9692C3.10486 20.0431 2.88246 20.1598 2.6543 20.2565" stroke="black" stroke-width="0.336377" stroke-linecap="round" stroke-linejoin="round"/>
<path d="M17.1054 18.9564C16.6953 19.0389 16.2851 19.1186 15.8779 19.2039C15.8519 19.2096 15.8317 19.2466 15.8086 19.2693" fill="white"/>
<path d="M17.1054 18.9564C16.6953 19.0389 16.2851 19.1186 15.8779 19.2039C15.8519 19.2096 15.8317 19.2466 15.8086 19.2693" stroke="black" stroke-width="0.336377" stroke-linecap="round" stroke-linejoin="round"/>
<path d="M15.7402 19.7188C16.1735 19.5879 16.6154 19.605 17.0601 19.6505L15.7402 19.7188Z" fill="white"/>
<path d="M15.7402 19.7188C16.1735 19.5879 16.6154 19.605 17.0601 19.6505" stroke="black" stroke-width="0.336377" stroke-linecap="round" stroke-linejoin="round"/>
<path d="M18.6773 3.04419C18.2932 3.13522 18.0072 3.46519 18.0823 3.94023C18.1286 4.23606 18.3076 4.42664 18.5676 4.51482C18.8333 4.60585 19.0845 4.5518 19.3214 4.34984C19.7344 3.99427 19.6015 3.26607 19.0412 3.06979C18.9372 3.03281 18.8159 3.04988 18.7004 3.04419" fill="#E6E6E6"/>
<path d="M18.6773 3.04419C18.2932 3.13522 18.0072 3.46519 18.0823 3.94023C18.1286 4.23606 18.3076 4.42664 18.5676 4.51482C18.8333 4.60585 19.0845 4.5518 19.3214 4.34984C19.7344 3.99427 19.6015 3.26607 19.0412 3.06979C18.9372 3.03281 18.8159 3.04988 18.7004 3.04419" stroke="#E6E6E6" stroke-width="0.381228" stroke-linecap="round" stroke-linejoin="round"/>
<path d="M10.4121 35.1648C10.4121 35.1648 11.1486 36.698 14.2101 36.3538L10.4121 35.1648Z" fill="white"/>
<path d="M10.4121 35.1648C10.4121 35.1648 11.1486 36.698 14.2101 36.3538" stroke="black" stroke-width="0.336377" stroke-linecap="round" stroke-linejoin="round"/>
<path d="M14.2109 34.7239C14.2109 34.7239 15.7937 36.058 17.9887 35.8048L14.2109 34.7239Z" fill="white"/>
<path d="M14.2109 34.7239C14.2109 34.7239 15.7937 36.058 17.9887 35.8048" stroke="black" stroke-width="0.336377" stroke-linecap="round" stroke-linejoin="round"/>
<path d="M21.1406 18.1798L21.8656 18.2936" stroke="black" stroke-width="0.336377" stroke-linecap="round" stroke-linejoin="round"/>
<path d="M23.1986 22.7596C23.1986 22.7596 21.2375 22.6202 20.2786 23.7722C19.9984 24.233 19.5999 24.5772 20.0216 27.1544C20.4432 29.7316 21.0498 33.805 21.0498 33.805C21.0498 33.805 22.4967 34.4734 24.5069 33.7594C24.4145 31.2989 24.2499 26.6509 24.2499 26.6509L25.5582 26.5371" fill="white"/>
<path d="M23.1986 22.7596C23.1986 22.7596 21.2375 22.6202 20.2786 23.7722C19.9984 24.233 19.5999 24.5772 20.0216 27.1544C20.4432 29.7316 21.0498 33.805 21.0498 33.805C21.0498 33.805 22.4967 34.4734 24.5069 33.7594C24.4145 31.2989 24.2499 26.6509 24.2499 26.6509L25.5582 26.5371" stroke="black" stroke-width="0.336377" stroke-linecap="round" stroke-linejoin="round"/>
<path d="M26.8892 24.8304C26.8892 24.8304 25.4654 24.6 25.5809 27.0406C25.6964 29.4784 25.9795 34.4734 25.9795 34.4734L27.7557 34.5872" fill="white"/>
<path d="M26.8892 24.8304C26.8892 24.8304 25.4654 24.6 25.5809 27.0406C25.6964 29.4784 25.9795 34.4734 25.9795 34.4734L27.7557 34.5872" stroke="black" stroke-width="0.336377" stroke-linecap="round" stroke-linejoin="round"/>
<path d="M35.6719 26.3695C35.6719 26.3695 36.3015 25.1719 35.952 23.9545L35.6719 26.3695Z" fill="white"/>
<path d="M35.6719 26.3695C35.6719 26.3695 36.3015 25.1719 35.952 23.9545" stroke="black" stroke-width="0.336377" stroke-linecap="round" stroke-linejoin="round"/>
<path d="M32.6325 27.4304L29.6895 27.658" stroke="black" stroke-width="0.336377" stroke-linecap="round" stroke-linejoin="round"/>
<path d="M29.6211 26.8986L29.6442 31.4328" stroke="black" stroke-width="0.336377" stroke-linecap="round" stroke-linejoin="round"/>
<path d="M35.9734 26.6453C35.8579 26.6226 35.0867 26.5998 34.4542 26.944C34.1279 26.6567 33.8939 26.449 33.6975 26.3239C33.4347 26.1532 33.0852 26.2556 32.9639 26.5429C32.8599 26.7932 32.831 27.072 32.9206 27.4759C33.0043 27.6921 33.0852 27.9111 33.1719 28.1245C33.1863 28.1615 33.2296 28.1842 33.2614 28.2155" fill="white"/>
<path d="M35.9734 26.6453C35.8579 26.6226 35.0867 26.5998 34.4542 26.944C34.1279 26.6567 33.8939 26.449 33.6975 26.3239C33.4347 26.1532 33.0852 26.2556 32.9639 26.5429C32.8599 26.7932 32.831 27.072 32.9206 27.4759C33.0043 27.6921 33.0852 27.9111 33.1719 28.1245C33.1863 28.1615 33.2296 28.1842 33.2614 28.2155" stroke="black" stroke-width="0.336377" stroke-linecap="round" stroke-linejoin="round"/>
<path d="M21.6783 34.5617C21.6783 34.5617 21.4443 34.8604 20.884 35.1818C20.3237 35.5032 19.154 36.1717 19.154 36.1717C19.154 36.1717 17.9381 37.0933 19.4573 37.2981C20.393 37.2981 21.8169 37.2071 22.7267 36.6069L22.8422 36.4931L22.9115 36.7691C22.9115 36.7691 24.3354 36.7008 24.5232 36.5386C24.6387 36.331 24.7571 35.3894 24.6387 35.1135C24.5203 34.8376 24.2661 34.3995 24.2661 34.3995C24.2661 34.3995 23.8444 34.8604 23.495 34.8376C23.1455 34.8148 21.9527 34.7466 21.6725 34.5617H21.6783Z" fill="white" stroke="black" stroke-width="0.336377" stroke-linecap="round" stroke-linejoin="round"/>
<path d="M30.8547 33.7453C31.3333 33.7453 31.7212 33.6434 31.7212 33.5177C31.7212 33.3921 31.3333 33.2902 30.8547 33.2902C30.3762 33.2902 29.9883 33.3921 29.9883 33.5177C29.9883 33.6434 30.3762 33.7453 30.8547 33.7453Z" fill="#E10098" stroke="black" stroke-width="0.336377" stroke-linecap="round" stroke-linejoin="round"/>
<path d="M31.9858 34.2517C31.9194 34.4622 32.0089 34.6528 32.2833 34.6898C32.6501 34.7353 33.0284 34.7324 33.3952 34.6898C33.6581 34.6585 33.7765 34.4451 33.7158 34.2517" fill="#E10098"/>
<path d="M31.9858 34.2517C31.9194 34.4622 32.0089 34.6528 32.2833 34.6898C32.6501 34.7353 33.0284 34.7324 33.3952 34.6898C33.6581 34.6585 33.7765 34.4451 33.7158 34.2517" stroke="black" stroke-width="0.336377" stroke-linecap="round" stroke-linejoin="round"/>
<path d="M32.8528 34.4025C33.3313 34.4025 33.7192 34.3006 33.7192 34.175C33.7192 34.0493 33.3313 33.9474 32.8528 33.9474C32.3743 33.9474 31.9863 34.0493 31.9863 34.175C31.9863 34.3006 32.3743 34.4025 32.8528 34.4025Z" fill="#E10098" stroke="black" stroke-width="0.336377" stroke-linecap="round" stroke-linejoin="round"/>
<path d="M31.3061 22.4439C31.2079 22.4781 31.0664 22.3927 30.9451 22.3643C31.7307 19.6477 30.6736 19.0305 30.018 18.3392C29.2468 17.4887 29.5963 17.1644 29.8072 16.4988C30.018 15.8304 29.8765 15.7621 29.6194 15.7166C28.1955 16.3594 28.4526 17.3038 28.4988 17.8784C28.545 18.453 28.9898 18.7062 29.8303 19.7189C30.6707 20.7315 30.1104 21.6048 29.8765 22.0201C29.527 20.1797 28.0771 19.5112 27.3291 19.258C26.581 19.0049 26.6504 18.6152 26.6504 18.6152C26.6504 18.6152 27.0489 17.6025 26.5088 16.8203C26.4857 16.0835 26.5781 14.9798 26.1363 14.6812C25.8561 14.7267 25.3189 14.8433 24.8972 15.7621C23.9152 15.6938 23.5889 15.6938 23.5889 15.6938C23.5889 15.6938 22.7946 14.7978 22.2574 14.7978C22.0697 14.9372 21.931 15.4662 22.0004 15.8332C22.0697 16.2001 22.1419 16.9141 22.1419 16.9141C22.1419 16.9141 21.6047 17.5826 21.9773 18.5241C22.2112 18.985 22.2343 19.2609 22.9823 19.6733C22.8899 20.0659 22.5145 20.777 22.8899 21.5138C23.2625 22.2505 23.4733 22.4582 23.5918 23.2632C23.7073 24.0682 23.5686 24.7139 23.5686 24.7139C23.5686 24.7139 22.939 24.9443 22.9852 25.4734C23.0546 25.7265 23.2423 26.0707 24.1059 25.8176" fill="#E10098"/>
<path d="M31.3061 22.4439C31.2079 22.4781 31.0664 22.3927 30.9451 22.3643C31.7307 19.6477 30.6736 19.0305 30.018 18.3392C29.2468 17.4887 29.5963 17.1644 29.8072 16.4988C30.018 15.8304 29.8765 15.7621 29.6194 15.7166C28.1955 16.3594 28.4526 17.3038 28.4988 17.8784C28.545 18.453 28.9898 18.7062 29.8303 19.7189C30.6707 20.7315 30.1104 21.6048 29.8765 22.0201C29.527 20.1797 28.0771 19.5112 27.3291 19.258C26.581 19.0049 26.6504 18.6152 26.6504 18.6152C26.6504 18.6152 27.0489 17.6025 26.5088 16.8203C26.4857 16.0835 26.5781 14.9798 26.1363 14.6812C25.8561 14.7267 25.3189 14.8433 24.8972 15.7621C23.9152 15.6938 23.5889 15.6938 23.5889 15.6938C23.5889 15.6938 22.7946 14.7978 22.2574 14.7978C22.0697 14.9372 21.931 15.4662 22.0004 15.8332C22.0697 16.2001 22.1419 16.9141 22.1419 16.9141C22.1419 16.9141 21.6047 17.5826 21.9773 18.5241C22.2112 18.985 22.2343 19.2609 22.9823 19.6733C22.8899 20.0659 22.5145 20.777 22.8899 21.5138C23.2625 22.2505 23.4733 22.4582 23.5918 23.2632C23.7073 24.0682 23.5686 24.7139 23.5686 24.7139C23.5686 24.7139 22.939 24.9443 22.9852 25.4734C23.0546 25.7265 23.2423 26.0707 24.1059 25.8176" stroke="black" stroke-width="0.336377" stroke-linecap="round" stroke-linejoin="round"/>
<path d="M24.668 22.3899C24.668 22.3899 24.8326 23.5647 24.6911 24.7822C24.2925 25.2657 24.177 25.4506 24.2925 25.7266C24.4572 25.9342 24.5727 26.1419 25.5316 25.957C25.6731 25.3824 25.9533 24.9671 26.115 24.8305C26.0919 24.4636 26.0688 22.8735 27.5389 21.8153" fill="#E10098"/>
<path d="M24.668 22.3899C24.668 22.3899 24.8326 23.5647 24.6911 24.7822C24.2925 25.2657 24.177 25.4506 24.2925 25.7266C24.4572 25.9342 24.5727 26.1419 25.5316 25.957C25.6731 25.3824 25.9533 24.9671 26.115 24.8305C26.0919 24.4636 26.0688 22.8735 27.5389 21.8153" stroke="black" stroke-width="0.336377" stroke-linecap="round" stroke-linejoin="round"/>
<path d="M14.625 12.4823C14.7983 12.4083 14.9369 12.414 15.1073 12.5221C15.3384 12.6643 15.6099 12.7411 15.8525 12.8692C16.3781 13.1451 16.7478 13.5718 17.0366 14.0752C17.6634 15.1675 17.7818 15.9356 18.1053 17.1445C18.2728 17.7732 18.4692 18.3933 18.5963 19.0304C18.6829 19.46 19.1855 20.723 19.119 21.1496C19.0266 21.7555 17.984 22.7853 17.4843 23.1835C17.3428 23.2973 17.2244 23.4367 17.0944 23.5618" stroke="black" stroke-width="0.336377" stroke-linecap="round" stroke-linejoin="round"/>
<path d="M9.86133 13.2872C10.0751 13.5944 10.257 13.9244 10.5054 14.2003C11.0368 14.792 11.7213 15.1163 12.5242 15.1163C13.2203 15.1163 13.6015 14.7835 13.7055 14.2032C13.7257 14.0951 13.7055 13.9785 13.7055 13.8675" fill="white"/>
<path d="M9.86133 13.2872C10.0751 13.5944 10.257 13.9244 10.5054 14.2003C11.0368 14.792 11.7213 15.1163 12.5242 15.1163C13.2203 15.1163 13.6015 14.7835 13.7055 14.2032C13.7257 14.0951 13.7055 13.9785 13.7055 13.8675" stroke="black" stroke-width="0.336377" stroke-linecap="round" stroke-linejoin="round"/>
<path d="M13.9209 20.9762C14.0277 21.0075 14.1317 21.0558 14.2386 21.0615C14.8538 21.0928 15.4112 20.9591 15.8791 20.5296C16.139 20.2907 16.7051 19.7417 16.5 18.7034C16.4336 18.3649 16.3787 18.0548 16.1506 17.813C16.0264 17.6822 16.0148 17.5741 16.0639 17.4262C16.0928 17.3409 16.1101 17.247 16.1101 17.1588C16.1101 16.7719 16.1361 16.3766 15.9513 16.0153C15.8358 15.7877 15.7636 15.7764 15.5903 15.947C15.3043 16.2258 15.0155 16.5046 14.7527 16.8032C14.6603 16.9085 14.5736 16.9255 14.4523 16.9341C14.1924 16.954 13.9353 16.9796 13.6783 17.0223C13.3404 17.0792 13.0111 17.1332 12.7454 16.8402C12.7194 16.8118 12.6847 16.7947 12.6559 16.7719C12.4046 16.5757 12.1649 16.3566 11.8125 16.3424" fill="white"/>
<path d="M13.9209 20.9762C14.0277 21.0075 14.1317 21.0558 14.2386 21.0615C14.8538 21.0928 15.4112 20.9591 15.8791 20.5296C16.139 20.2907 16.7051 19.7417 16.5 18.7034C16.4336 18.3649 16.3787 18.0548 16.1506 17.813C16.0264 17.6822 16.0148 17.5741 16.0639 17.4262C16.0928 17.3409 16.1101 17.247 16.1101 17.1588C16.1101 16.7719 16.1361 16.3766 15.9513 16.0153C15.8358 15.7877 15.7636 15.7764 15.5903 15.947C15.3043 16.2258 15.0155 16.5046 14.7527 16.8032C14.6603 16.9085 14.5736 16.9255 14.4523 16.9341C14.1924 16.954 13.9353 16.9796 13.6783 17.0223C13.3404 17.0792 13.0111 17.1332 12.7454 16.8402C12.7194 16.8118 12.6847 16.7947 12.6559 16.7719C12.4046 16.5757 12.1649 16.3566 11.8125 16.3424" stroke="black" stroke-width="0.336377" stroke-linecap="round" stroke-linejoin="round"/>
<path d="M17.2883 21.0416C16.8002 21.1184 16.4016 21.3432 16.0781 21.7129C16.0059 21.7954 15.8991 21.8495 15.8066 21.9177" fill="white"/>
<path d="M17.2883 21.0416C16.8002 21.1184 16.4016 21.3432 16.0781 21.7129C16.0059 21.7954 15.8991 21.8495 15.8066 21.9177" stroke="black" stroke-width="0.336377" stroke-linecap="round" stroke-linejoin="round"/>
<path d="M16.0137 20.4812C16.0888 20.7344 16.1639 20.9904 16.2418 21.2435C16.2621 21.3118 16.2881 21.3772 16.3112 21.4455" fill="white"/>
<path d="M16.0137 20.4812C16.0888 20.7344 16.1639 20.9904 16.2418 21.2435C16.2621 21.3118 16.2881 21.3772 16.3112 21.4455" stroke="black" stroke-width="0.336377" stroke-linecap="round" stroke-linejoin="round"/>
<path d="M10.7793 12.0328C10.6754 12.4624 10.401 12.761 10.0515 13.0227C9.63851 13.33 9.13596 13.4352 8.67963 13.64C8.08466 13.9074 7.51279 14.1947 7.04202 14.6527C6.99003 14.7039 6.90627 14.7295 6.83984 14.7665" fill="white"/>
<path d="M10.7793 12.0328C10.6754 12.4624 10.401 12.761 10.0515 13.0227C9.63851 13.33 9.13596 13.4352 8.67963 13.64C8.08466 13.9074 7.51279 14.1947 7.04202 14.6527C6.99003 14.7039 6.90627 14.7295 6.83984 14.7665" stroke="black" stroke-width="0.336377" stroke-linecap="round" stroke-linejoin="round"/>
<path d="M34.152 12.6217C33.7737 12.5051 32.939 12.2917 32.5606 12.178C32.4104 12.1324 32.3007 12.1068 32.2112 12.3202C31.7606 13.3784 30.6486 14.2488 29.2623 14.1179C28.52 14.0468 28.0262 13.5376 28.0117 12.7952L28.3525 12.451L28.4276 12.0386" fill="white"/>
<path d="M34.152 12.6217C33.7737 12.5051 32.939 12.2917 32.5606 12.178C32.4104 12.1324 32.3007 12.1068 32.2112 12.3202C31.7606 13.3784 30.6486 14.2488 29.2623 14.1179C28.52 14.0468 28.0262 13.5376 28.0117 12.7952L28.3525 12.451L28.4276 12.0386" stroke="black" stroke-width="0.336377" stroke-linecap="round" stroke-linejoin="round"/>
<path d="M27.799 12.6443C27.721 12.596 27.5968 12.5618 27.4524 12.6671C27.2243 12.8349 26.9268 12.9117 26.6668 13.0397C26.1325 13.3043 25.5809 13.5404 25.0783 13.8533C24.44 14.2543 24.0155 14.846 23.7498 15.5458C23.7093 15.6539 23.7873 15.523 23.7324 15.6283" fill="white"/>
<path d="M27.799 12.6443C27.721 12.596 27.5968 12.5618 27.4524 12.6671C27.2243 12.8349 26.9268 12.9117 26.6668 13.0397C26.1325 13.3043 25.5809 13.5404 25.0783 13.8533C24.44 14.2543 24.0155 14.846 23.7498 15.5458C23.7093 15.6539 23.7873 15.523 23.7324 15.6283" stroke="black" stroke-width="0.336377" stroke-linecap="round" stroke-linejoin="round"/>
<path d="M37.4069 28.2611C37.4386 28.0136 37.4849 27.769 37.4935 27.5215C37.5022 27.2512 37.3376 27.1659 37.0892 27.274C36.8639 27.3707 36.6906 27.5186 36.5664 27.7234" fill="white"/>
<path d="M37.4069 28.2611C37.4386 28.0136 37.4849 27.769 37.4935 27.5215C37.5022 27.2512 37.3376 27.1659 37.0892 27.274C36.8639 27.3707 36.6906 27.5186 36.5664 27.7234" stroke="black" stroke-width="0.336377" stroke-linecap="round" stroke-linejoin="round"/>
<path d="M35.4726 32.5848C35.4495 32.6759 35.438 32.7697 35.4033 32.8522C35.2878 33.1139 35.0972 33.2675 34.791 33.2448" fill="white"/>
<path d="M35.4726 32.5848C35.4495 32.6759 35.438 32.7697 35.4033 32.8522C35.2878 33.1139 35.0972 33.2675 34.791 33.2448" stroke="black" stroke-width="0.336377" stroke-linecap="round" stroke-linejoin="round"/>
<path d="M39.4305 32.07C39.3612 32.3459 39.3814 32.619 39.4565 32.8864C39.4998 33.0514 39.6385 33.131 39.7973 33.1395C40.0457 33.1538 40.297 33.1538 40.5483 33.1395C40.7966 33.1282 40.8977 33.0457 40.9555 32.8067C41.0248 32.5251 41.0739 32.2378 41.1432 31.9562C41.1606 31.8908 41.2241 31.7912 41.2761 31.7827C41.484 31.7486 41.7007 31.7315 41.9115 31.7315C42.5729 31.74 43.2314 31.7599 43.8928 31.7713C44.1961 31.777 44.4993 31.7742 44.8026 31.7713C45.2965 31.7656 45.7875 31.7571 46.2813 31.7486L47.2084 35.5802C41.1028 35.5802 34.0672 35.5802 27.9586 35.5802C27.8142 35.5802 27.6698 35.5659 27.5254 35.5574L29.5731 31.6348C29.6569 31.6717 31.7104 31.7514 32.7039 31.7429C32.7732 31.7429 32.9408 31.6717 33.0101 31.6348" stroke="black" stroke-width="0.336377" stroke-linecap="round" stroke-linejoin="round"/>
<path d="M29.7168 29.7402C30.5804 29.7402 31.4468 29.7402 32.3104 29.7402C32.5646 29.7402 32.5934 29.7601 32.5819 30.0076C32.553 30.5708 32.6685 31.0942 33.044 31.5266C33.2115 31.7229 33.4166 31.9049 33.639 32.033C33.7632 32.1041 33.7632 32.1695 33.7689 32.269C33.7805 32.4483 33.7863 32.6303 33.818 32.8067C33.8671 33.0854 34.0693 33.222 34.4072 33.2334C34.5054 33.2362 34.6758 33.2305 34.774 33.239" stroke="black" stroke-width="0.336377" stroke-linecap="round" stroke-linejoin="round"/>
<path d="M39.3426 32.3174C39.1462 32.3686 38.9498 32.434 38.7505 32.471C38.5628 32.5051 38.3692 32.5279 38.1815 32.5108C38.0602 32.5023 38.0371 32.5535 38.0227 32.6303C38.0053 32.7327 38.0111 32.8408 37.9967 32.9432C37.9476 33.2675 37.7165 33.4467 37.3382 33.458C37.2082 33.4609 37.0782 33.4495 36.9511 33.458C36.4833 33.4922 36.4255 33.2362 36.3591 32.9403C36.3331 32.8265 36.2984 32.7156 36.2695 32.6047" fill="white"/>
<path d="M39.3426 32.3174C39.1462 32.3686 38.9498 32.434 38.7505 32.471C38.5628 32.5051 38.3692 32.5279 38.1815 32.5108C38.0602 32.5023 38.0371 32.5535 38.0227 32.6303C38.0053 32.7327 38.0111 32.8408 37.9967 32.9432C37.9476 33.2675 37.7165 33.4467 37.3382 33.458C37.2082 33.4609 37.0782 33.4495 36.9511 33.458C36.4833 33.4922 36.4255 33.2362 36.3591 32.9403C36.3331 32.8265 36.2984 32.7156 36.2695 32.6047" stroke="black" stroke-width="0.336377" stroke-linecap="round" stroke-linejoin="round"/>
<path d="M34.9961 32.3857C35.36 32.5024 35.7239 32.5991 36.1109 32.5934C36.2727 32.5934 36.3507 32.5393 36.3622 32.3857" fill="white"/>
<path d="M34.9961 32.3857C35.36 32.5024 35.7239 32.5991 36.1109 32.5934C36.2727 32.5934 36.3507 32.5393 36.3622 32.3857" stroke="black" stroke-width="0.336377" stroke-linecap="round" stroke-linejoin="round"/>
<path d="M34.2211 29.6492C33.7821 29.6805 33.7793 29.7743 33.6117 29.9023C32.9475 30.4115 33.1698 31.3019 33.8601 31.6148C34.5533 31.9305 35.3331 31.4981 35.3995 30.7472C35.4428 30.2351 35.102 29.817 34.6284 29.7004C34.5244 29.6748 34.3511 29.6662 34.2442 29.6492" fill="white"/>
<path d="M34.2211 29.6492C33.7821 29.6805 33.7793 29.7743 33.6117 29.9023C32.9475 30.4115 33.1698 31.3019 33.8601 31.6148C34.5533 31.9305 35.3331 31.4981 35.3995 30.7472C35.4428 30.2351 35.102 29.817 34.6284 29.7004C34.5244 29.6748 34.3511 29.6662 34.2442 29.6492" stroke="black" stroke-width="0.336377" stroke-linecap="round" stroke-linejoin="round"/>
<path d="M12.9166 20.0574C12.5902 20.0801 12.2638 20.1 11.9375 20.1256C11.8595 20.1313 11.331 20.2366 11.2559 20.2593" fill="white"/>
<path d="M12.9166 20.0574C12.5902 20.0801 12.2638 20.1 11.9375 20.1256C11.8595 20.1313 11.331 20.2366 11.2559 20.2593" stroke="black" stroke-width="0.336377" stroke-linecap="round" stroke-linejoin="round"/>
<path d="M10.6426 24.3157C11.0007 24.4636 11.4022 24.5176 11.6737 24.8476C11.8036 25.0069 12.1531 24.9671 12.3062 24.8334C12.3611 24.7879 12.439 24.768 12.5084 24.7424C12.6066 24.7082 12.7047 24.6599 12.8029 24.657C13.0225 24.6513 13.2535 24.6257 13.4615 24.6826C14.0073 24.8305 14.5128 25.0894 14.868 25.5331C15.1279 25.8574 15.2955 26.2414 15.333 26.671C15.3937 27.3992 15.1973 28.0989 15.0529 28.7987C14.8709 29.6634 14.6341 30.5196 14.4232 31.3787C14.2846 31.9391 14.1517 32.4994 14.0131 33.0598C13.964 33.2646 14.0131 33.3613 14.2182 33.441C14.5821 33.5889 14.9633 33.66 15.3561 33.6885C15.7431 33.7169 16.1302 33.7596 16.5172 33.7738C16.7829 33.7823 17.0515 33.7681 17.3114 33.7226C17.3923 33.7084 17.4876 33.5633 17.5107 33.4638C17.6609 32.8237 17.788 32.1809 17.9266 31.538C18.045 31.0004 18.1663 30.4628 18.2905 29.9251C18.4696 29.14 18.6429 28.3521 18.8393 27.5727C18.9924 26.9583 19.027 26.3268 18.9519 25.7152C18.897 25.2743 18.6544 24.8561 18.3136 24.5233C18.1779 24.3896 18.0537 24.2417 17.9266 24.0995" fill="white"/>
<path d="M10.6426 24.3157C11.0007 24.4636 11.4022 24.5176 11.6737 24.8476C11.8036 25.0069 12.1531 24.9671 12.3062 24.8334C12.3611 24.7879 12.439 24.768 12.5084 24.7424C12.6066 24.7082 12.7047 24.6599 12.8029 24.657C13.0225 24.6513 13.2535 24.6257 13.4615 24.6826C14.0073 24.8305 14.5128 25.0894 14.868 25.5331C15.1279 25.8574 15.2955 26.2414 15.333 26.671C15.3937 27.3992 15.1973 28.0989 15.0529 28.7987C14.8709 29.6634 14.6341 30.5196 14.4232 31.3787C14.2846 31.9391 14.1517 32.4994 14.0131 33.0598C13.964 33.2646 14.0131 33.3613 14.2182 33.441C14.5821 33.5889 14.9633 33.66 15.3561 33.6885C15.7431 33.7169 16.1302 33.7596 16.5172 33.7738C16.7829 33.7823 17.0515 33.7681 17.3114 33.7226C17.3923 33.7084 17.4876 33.5633 17.5107 33.4638C17.6609 32.8237 17.788 32.1809 17.9266 31.538C18.045 31.0004 18.1663 30.4628 18.2905 29.9251C18.4696 29.14 18.6429 28.3521 18.8393 27.5727C18.9924 26.9583 19.027 26.3268 18.9519 25.7152C18.897 25.2743 18.6544 24.8561 18.3136 24.5233C18.1779 24.3896 18.0537 24.2417 17.9266 24.0995" stroke="black" stroke-width="0.336377" stroke-linecap="round" stroke-linejoin="round"/>
<path d="M10.9629 23.8208C11.4943 24.0313 11.9651 24.33 12.329 24.7737L10.9629 23.8208Z" fill="white"/>
<path d="M10.9629 23.8208C11.4943 24.0313 11.9651 24.33 12.329 24.7737" stroke="black" stroke-width="0.336377" stroke-linecap="round" stroke-linejoin="round"/>
<path d="M12.8752 24.5831C12.6933 24.3441 12.5489 24.0568 12.3207 23.8776C11.977 23.6102 11.5698 23.4168 11.1914 23.1949" fill="white"/>
<path d="M12.8752 24.5831C12.6933 24.3441 12.5489 24.0568 12.3207 23.8776C11.977 23.6102 11.5698 23.4168 11.1914 23.1949" stroke="black" stroke-width="0.336377" stroke-linecap="round" stroke-linejoin="round"/>
<path d="M13.4863 22.6344C13.5239 22.8051 13.5816 22.9757 13.5932 23.1493C13.6047 23.3142 13.6683 23.4138 13.8271 23.4622C14.0033 23.5162 14.6907 23.8291 14.916 23.8917C14.9333 23.8974 14.9506 23.9002 14.9622 23.9031C15.1182 23.9258 15.5369 24.3297 15.6814 24.4265" fill="white"/>
<path d="M13.4863 22.6344C13.5239 22.8051 13.5816 22.9757 13.5932 23.1493C13.6047 23.3142 13.6683 23.4138 13.8271 23.4622C14.0033 23.5162 14.6907 23.8291 14.916 23.8917C14.9333 23.8974 14.9506 23.9002 14.9622 23.9031C15.1182 23.9258 15.5369 24.3297 15.6814 24.4265" stroke="black" stroke-width="0.336377" stroke-linecap="round" stroke-linejoin="round"/>
<path d="M15.6279 22.6117C15.7261 22.6345 15.8243 22.6629 15.9225 22.6771C16.5723 22.7653 16.916 23.2318 17.0546 23.7097C17.072 23.7723 17.0402 23.8548 17.0113 23.9202C16.8265 24.3326 16.3932 24.5431 15.9427 24.4464C15.7116 24.3981 15.6885 24.418 15.6914 24.6484C15.6914 24.7536 15.7203 24.8617 15.5817 24.9215C15.5441 24.9385 15.5441 25.0267 15.5094 25.0722C15.4401 25.1604 15.3679 25.2486 15.2813 25.3169C15.1773 25.3965 15.056 25.4534 14.9434 25.5217" fill="white"/>
<path d="M15.6279 22.6117C15.7261 22.6345 15.8243 22.6629 15.9225 22.6771C16.5723 22.7653 16.916 23.2318 17.0546 23.7097C17.072 23.7723 17.0402 23.8548 17.0113 23.9202C16.8265 24.3326 16.3932 24.5431 15.9427 24.4464C15.7116 24.3981 15.6885 24.418 15.6914 24.6484C15.6914 24.7536 15.7203 24.8617 15.5817 24.9215C15.5441 24.9385 15.5441 25.0267 15.5094 25.0722C15.4401 25.1604 15.3679 25.2486 15.2813 25.3169C15.1773 25.3965 15.056 25.4534 14.9434 25.5217" stroke="black" stroke-width="0.336377" stroke-linecap="round" stroke-linejoin="round"/>
<path d="M14.8496 24.7224C14.9622 24.9756 15.0807 25.0922 15.1933 25.3482L14.8496 24.7224Z" fill="white"/>
<path d="M14.8496 24.7224C14.9622 24.9756 15.0807 25.0922 15.1933 25.3482" stroke="black" stroke-width="0.336377" stroke-linecap="round" stroke-linejoin="round"/>
<path d="M15.3105 24.5603C15.3856 24.6712 15.4636 24.785 15.5387 24.896L15.3105 24.5603Z" fill="white"/>
<path d="M15.3105 24.5603C15.3856 24.6712 15.4636 24.785 15.5387 24.896" stroke="black" stroke-width="0.336377" stroke-linecap="round" stroke-linejoin="round"/>
<path d="M16.0605 23.7979C16.3118 23.8946 16.4649 24.088 16.5833 24.3127L16.0605 23.7979Z" fill="white"/>
<path d="M16.0605 23.7979C16.3118 23.8946 16.4649 24.088 16.5833 24.3127" stroke="black" stroke-width="0.336377" stroke-linecap="round" stroke-linejoin="round"/>
<path d="M16.4922 23.576C16.6135 23.7325 16.7348 23.8889 16.8561 24.0454L16.4922 23.576Z" fill="white"/>
<path d="M16.4922 23.576C16.6135 23.7325 16.7348 23.8889 16.8561 24.0454" stroke="black" stroke-width="0.336377" stroke-linecap="round" stroke-linejoin="round"/>
<path d="M37.3608 19.3378C37.3752 19.5255 37.3897 19.7104 37.407 19.8981C37.4705 20.5638 37.4099 21.2294 37.3954 21.8922C37.3897 22.2079 37.2886 22.5265 37.1961 22.8337C37.0835 23.212 36.76 23.3912 36.4279 23.5534C36.2921 23.6188 36.1535 23.6871 36.0178 23.7554C36.0178 23.7554 33.2393 24.4153 31.7923 24.1166C31.3244 24.4608 30.5302 24.7851 30.0161 24.8306C29.502 24.8761 28.8377 25.6527 28.6211 25.4137C28.7049 25.263 28.7597 25.0894 28.8781 24.97C29.1236 24.7197 29.4182 24.5319 29.759 24.4267" stroke="black" stroke-width="0.336377" stroke-linecap="round" stroke-linejoin="round"/>
<path d="M29.4433 23.9116C29.1776 24.0766 28.9061 24.2302 28.649 24.4066C28.2476 24.6825 28.0281 25.0779 27.9414 25.5472" fill="white"/>
<path d="M29.4433 23.9116C29.1776 24.0766 28.9061 24.2302 28.649 24.4066C28.2476 24.6825 28.0281 25.0779 27.9414 25.5472" stroke="black" stroke-width="0.336377" stroke-linecap="round" stroke-linejoin="round"/>
<path d="M27.1749 24.8618C27.1749 24.8618 26.8717 24.7935 26.9872 24.6086C27.1027 24.4237 27.0103 23.8036 27.897 23.32C28.7836 22.8365 29.4162 22.6288 30.0689 22.5833C30.7216 22.5378 31.0076 22.6487 31.2617 22.5236" fill="white"/>
<path d="M28.8948 23.5989C28.3662 23.7269 27.9908 24.0569 27.7164 24.4978C27.5951 24.694 27.5142 24.9131 27.416 25.1236" fill="white"/>
<path d="M28.8948 23.5989C28.3662 23.7269 27.9908 24.0569 27.7164 24.4978C27.5951 24.694 27.5142 24.9131 27.416 25.1236" stroke="black" stroke-width="0.336377" stroke-linecap="round" stroke-linejoin="round"/>
<path d="M14.6487 20.012C14.4436 20.4159 13.9266 20.487 13.6465 20.1457L14.6487 20.012Z" fill="white"/>
<path d="M14.6487 20.012C14.4436 20.4159 13.9266 20.487 13.6465 20.1457" stroke="black" stroke-width="0.336377" stroke-linecap="round" stroke-linejoin="round"/>
<path d="M15.3997 20.0347C15.1195 20.3333 14.9549 20.3561 14.6719 20.1456L15.3997 20.0347Z" fill="white"/>
<path d="M15.3997 20.0347C15.1195 20.3333 14.9549 20.3561 14.6719 20.1456" stroke="black" stroke-width="0.336377" stroke-linecap="round" stroke-linejoin="round"/>
<path d="M24.0578 18.4816C23.8441 18.8115 23.3935 18.8229 23.1855 18.5072" stroke="black" stroke-width="0.336377" stroke-linecap="round" stroke-linejoin="round"/>
<path d="M24.7018 18.5696C24.4332 18.8 24.2917 18.8057 24.0664 18.6009" stroke="black" stroke-width="0.336377" stroke-linecap="round" stroke-linejoin="round"/>
<path d="M14.2207 19.3975L14.8474 19.3378L14.6395 19.6905L14.2207 19.3975Z" fill="white" stroke="black" stroke-width="0.336377" stroke-linecap="round" stroke-linejoin="round"/>
<path d="M23.8418 17.8386L24.3906 17.924L24.1191 18.217L23.8418 17.8386Z" fill="black"/>
<path d="M13.7445 19.0618C13.8418 19.0618 13.9207 18.9841 13.9207 18.8882C13.9207 18.7924 13.8418 18.7147 13.7445 18.7147C13.6472 18.7147 13.5684 18.7924 13.5684 18.8882C13.5684 18.9841 13.6472 19.0618 13.7445 19.0618Z" fill="black"/>
<path d="M15.3344 18.9792C15.4317 18.9792 15.5106 18.9016 15.5106 18.8057C15.5106 18.7099 15.4317 18.6322 15.3344 18.6322C15.2371 18.6322 15.1582 18.7099 15.1582 18.8057C15.1582 18.9016 15.2371 18.9792 15.3344 18.9792Z" fill="black"/>
<path d="M23.3578 17.4431C23.4551 17.4431 23.534 17.3654 23.534 17.2696C23.534 17.1738 23.4551 17.0961 23.3578 17.0961C23.2605 17.0961 23.1816 17.1738 23.1816 17.2696C23.1816 17.3654 23.2605 17.4431 23.3578 17.4431Z" fill="black"/>
<path d="M24.9477 17.4603C25.045 17.4603 25.1238 17.3826 25.1238 17.2868C25.1238 17.191 25.045 17.1133 24.9477 17.1133C24.8504 17.1133 24.7715 17.191 24.7715 17.2868C24.7715 17.3826 24.8504 17.4603 24.9477 17.4603Z" fill="black"/>
<path d="M33.8266 29.1771C33.9239 29.1771 34.0028 29.0994 34.0028 29.0036C34.0028 28.9078 33.9239 28.8301 33.8266 28.8301C33.7293 28.8301 33.6504 28.9078 33.6504 29.0036C33.6504 29.0994 33.7293 29.1771 33.8266 29.1771Z" fill="black"/>
<path d="M35.4203 29.1912C35.5176 29.1912 35.5965 29.1135 35.5965 29.0176C35.5965 28.9218 35.5176 28.8441 35.4203 28.8441C35.323 28.8441 35.2441 28.9218 35.2441 29.0176C35.2441 29.1135 35.323 29.1912 35.4203 29.1912Z" fill="black"/>
<path d="M33.7708 30.7557C33.8331 30.7557 33.8835 30.706 33.8835 30.6448C33.8835 30.5835 33.8331 30.5338 33.7708 30.5338C33.7086 30.5338 33.6582 30.5835 33.6582 30.6448C33.6582 30.706 33.7086 30.7557 33.7708 30.7557Z" fill="black"/>
<path d="M34.7787 30.7642C34.8409 30.7642 34.8913 30.7146 34.8913 30.6533C34.8913 30.592 34.8409 30.5424 34.7787 30.5424C34.7164 30.5424 34.666 30.592 34.666 30.6533C34.666 30.7146 34.7164 30.7642 34.7787 30.7642Z" fill="black"/>
<path d="M25.957 18.1771L27.4589 17.8528" stroke="black" stroke-width="0.336377" stroke-linecap="round" stroke-linejoin="round"/>
<path d="M26.0332 18.5441L27.5553 18.7517" stroke="black" stroke-width="0.336377" stroke-linecap="round" stroke-linejoin="round"/>
<path d="M9.03609 21.383C9.03609 21.383 9.25848 21.4143 10.0498 21.5707C10.8412 21.7272 11.0954 21.4456 11.0318 21.164C10.9683 20.8824 11.3178 20.7885 11.3178 20.7885L11.0001 20.3817C11.0001 20.3817 10.4282 20.2566 9.82746 20.632C9.22382 21.0075 9.0332 21.383 9.0332 21.383H9.03609Z" fill="#E10098"/>
<path d="M15.634 21.4142C15.634 21.4142 14.9668 21.8522 14.9668 22.0713C14.9668 22.2903 15.0939 22.7597 15.0939 22.7597C15.0939 22.7597 15.917 22.8535 15.6975 21.9177" fill="#E10098"/>
<path d="M13.4961 17.1076C13.4961 17.1076 13.9062 17.8329 14.3308 17.7561C14.7553 17.6793 15.0962 17.2498 14.9922 17.0478C14.8882 16.8459 13.4961 17.1076 13.4961 17.1076Z" fill="#E10098"/>
<path d="M8.01393 13.9871C8.01393 13.9871 6.82688 14.2801 6.27812 15.7848C5.72647 17.2896 5.44343 17.7931 5.31924 18.4957C5.19793 19.1983 4.97266 19.5795 4.97266 19.5795" fill="white"/>
<path d="M8.01393 13.9871C8.01393 13.9871 6.82688 14.2801 6.27812 15.7848C5.72647 17.2896 5.44343 17.7931 5.31924 18.4957C5.19793 19.1983 4.97266 19.5795 4.97266 19.5795" stroke="black" stroke-width="0.336377" stroke-linecap="round" stroke-linejoin="round"/>
<path d="M10.1316 35.543C10.1316 35.543 10.8046 36.4078 11.8443 36.6268C12.8841 36.8459 13.6986 37.0677 14.2502 36.9881C14.8018 36.9084 15.29 36.9881 15.29 36.9881C15.29 36.9881 15.677 37.3892 15.4315 37.4887C15.186 37.5883 13.7794 37.7902 13.3115 37.5684C12.8437 37.3465 11.9859 37.1872 11.232 36.9852C10.4782 36.7833 9.8457 36.5045 9.8457 36.1831C9.8457 35.8616 9.98722 35.4805 9.98722 35.4805" fill="#E10098"/>
<path d="M10.6463 33.9985C10.6463 33.9985 10.629 34.8377 10.3719 35.0681C10.1149 35.2985 9.57765 36.0808 10.0918 36.4477C10.6058 36.8146 11.7958 37.1389 12.1481 37.2755C12.5005 37.412 13.8782 37.759 14.5771 37.668C15.2761 37.577 15.5129 37.577 15.536 37.2755C15.5591 36.9768 15.2327 36.607 14.6724 36.4249C14.1121 36.24 13.7193 36.1035 13.7193 36.1035C13.3467 35.9414 13.0464 35.6882 12.8095 35.3639C12.7027 35.216 12.6478 35.0624 12.6911 34.8718C12.7402 34.6585 12.7547 34.4394 12.7864 34.2233" stroke="black" stroke-width="0.336377" stroke-linecap="round" stroke-linejoin="round"/>
<path d="M27.2159 24.822C27.2159 24.822 26.9127 24.7537 27.0282 24.5688C27.1437 24.3839 27.0513 23.7638 27.938 23.2802C28.8247 22.7967 29.4572 22.589 30.1099 22.5435C30.7626 22.498 31.0486 22.6089 31.3027 22.4838" stroke="black" stroke-width="0.336377" stroke-linecap="round" stroke-linejoin="round"/>
<path d="M34.2915 21.417C34.2915 21.417 31.8278 22.4894 31.4668 22.5292" stroke="black" stroke-width="0.336377" stroke-linecap="round" stroke-linejoin="round"/>
<path d="M39.3887 8.17566C39.3887 8.17566 40.1512 8.30082 40.4833 9.74301L39.3887 8.17566Z" fill="#E10098"/>
<path d="M39.3887 8.17566C39.3887 8.17566 40.1512 8.30082 40.4833 9.74301" stroke="black" stroke-width="0.336377" stroke-linecap="round" stroke-linejoin="round"/>
<path d="M39.6945 16.4477L39.5703 15.3923C39.5934 15.6398 39.6021 15.8873 39.6425 16.1319C39.7089 16.5529 39.7927 16.9682 39.8649 17.3864C39.8996 17.594 39.9256 17.8045 39.9573 18.015" fill="white"/>
<path d="M39.6945 16.4477L39.5703 15.3923C39.5934 15.6398 39.6021 15.8873 39.6425 16.1319C39.7089 16.5529 39.7927 16.9682 39.8649 17.3864C39.8996 17.594 39.9256 17.8045 39.9573 18.015" stroke="black" stroke-width="0.336377" stroke-linecap="round" stroke-linejoin="round"/>
<path d="M16.1138 8.67906C16.1138 6.98655 14.7216 5.61548 13.0032 5.61548C11.2847 5.61548 9.89258 6.98655 9.89258 8.67906" fill="white"/>
<path d="M16.1138 8.67906C16.1138 6.98655 14.7216 5.61548 13.0032 5.61548C11.2847 5.61548 9.89258 6.98655 9.89258 8.67906" stroke="#E10098" stroke-width="0.336377" stroke-linecap="round" stroke-linejoin="round"/>
<path d="M8.86133 16.6894V8.57955C8.86133 7.86557 9.45052 7.28528 10.1755 7.28528" stroke="#E10098" stroke-width="0.336377" stroke-linecap="round" stroke-linejoin="round"/>
<path d="M11.3965 10.5166C11.3965 11.7341 12.3987 12.7212 13.6348 12.7212C14.871 12.7212 15.5006 11.8337 15.5006 10.6162C15.5006 10.4256 15.5757 9.60352 15.5266 9.42432" stroke="#081017" stroke-width="0.336377" stroke-linecap="round" stroke-linejoin="round"/>
<path d="M14.5817 10.9888L12.9961 10.9177C12.9961 10.9177 13.0134 11.626 13.8135 11.8081" stroke="#081017" stroke-width="0.336377" stroke-linecap="round" stroke-linejoin="round"/>
<path d="M13.1248 9.55242C13.2445 9.55242 13.3414 9.4569 13.3414 9.33907C13.3414 9.22125 13.2445 9.12573 13.1248 9.12573C13.0052 9.12573 12.9082 9.22125 12.9082 9.33907C12.9082 9.4569 13.0052 9.55242 13.1248 9.55242Z" fill="black"/>
<path d="M15.1072 9.46709C15.2269 9.46709 15.3239 9.37157 15.3239 9.25375C15.3239 9.13592 15.2269 9.04041 15.1072 9.04041C14.9876 9.04041 14.8906 9.13592 14.8906 9.25375C14.8906 9.37157 14.9876 9.46709 15.1072 9.46709Z" fill="black"/>
<path d="M14.3299 10.1868C14.3299 10.1868 14.1884 10.4997 13.9082 10.2607" stroke="#081017" stroke-width="0.336377" stroke-linecap="round" stroke-linejoin="round"/>
<path d="M13.052 8.69897C13.052 8.69897 12.6361 8.70751 12.5234 8.97774" stroke="#081017" stroke-width="0.336377" stroke-linecap="round" stroke-linejoin="round"/>
<path d="M15.3947 8.7617C15.3947 8.7617 15.0366 8.55405 14.7969 8.72187" stroke="#081017" stroke-width="0.336377" stroke-linecap="round" stroke-linejoin="round"/>
<path d="M10.7668 12.1182L11.1134 10.7244L10.6195 10.548C10.296 10.4314 10.1112 10.1014 10.1805 9.77145C10.2556 9.41588 10.6022 9.18547 10.9661 9.24236L11.148 9.2708C11.148 9.2708 11.5091 7.77173 12.8723 7.77173C14.2355 7.77173 15.1626 7.9424 15.2782 8.25814" stroke="#081017" stroke-width="0.336377" stroke-linecap="round" stroke-linejoin="round"/>
<path d="M26.9707 7.19423L27.0082 9.6377C27.0429 10.986 28.1635 12.0413 29.5325 12.0584C31.82 12.084 32.2041 10.5508 32.1666 9.07163H32.2417C32.5449 9.0631 32.7818 8.81562 32.776 8.51694C32.7673 8.21827 32.516 7.98501 32.2157 7.9907H32.0857C32.0857 7.9907 31.7478 7.052 31.6496 6.64807C31.6496 6.64807 28.7383 7.98501 29.1802 7.32792C29.6221 6.67083 27.1209 7.64082 27.375 7.23405C27.6292 6.82728 26.9707 7.19423 26.9707 7.19423Z" fill="white" stroke="#081017" stroke-width="0.336377" stroke-linecap="round" stroke-linejoin="round"/>
<path d="M26.9154 8.4287C26.667 8.4287 26.4648 8.22958 26.4648 7.98495V6.63379C26.4648 5.55855 27.3486 4.68811 28.4404 4.68811H31.3286C32.5041 4.68811 33.3099 6.26968 33.1221 7.41319L32.7755 9.5011C32.7322 9.75995 32.3308 10.0387 32.1113 10.1866" stroke="#E10098" stroke-width="0.336377" stroke-linecap="round" stroke-linejoin="round"/>
<path d="M28.2598 10.4512C28.2598 10.4512 29.0887 11.0116 29.8281 10.3658L28.2598 10.4512Z" fill="white"/>
<path d="M28.2598 10.4512C28.2598 10.4512 29.0887 11.0116 29.8281 10.3658" stroke="#081017" stroke-width="0.336377" stroke-linecap="round" stroke-linejoin="round"/>
<path d="M29.4165 9.66052C29.4165 9.66052 28.9717 9.35331 28.6367 9.62354L29.4165 9.66052Z" fill="white"/>
<path d="M29.4165 9.66052C29.4165 9.66052 28.9717 9.35331 28.6367 9.62354" stroke="#081017" stroke-width="0.336377" stroke-linecap="round" stroke-linejoin="round"/>
<path d="M30.0057 8.93229C30.162 8.93229 30.2887 8.80748 30.2887 8.65352C30.2887 8.49956 30.162 8.37476 30.0057 8.37476C29.8494 8.37476 29.7227 8.49956 29.7227 8.65352C29.7227 8.80748 29.8494 8.93229 30.0057 8.93229Z" fill="black"/>
<path d="M28.0565 8.84989C28.2128 8.84989 28.3395 8.72508 28.3395 8.57112C28.3395 8.41716 28.2128 8.29236 28.0565 8.29236C27.9002 8.29236 27.7734 8.41716 27.7734 8.57112C27.7734 8.72508 27.9002 8.84989 28.0565 8.84989Z" fill="black"/>
<path d="M30.6118 8.50556C30.6118 8.50556 30.5569 8.09595 30.3027 8.00208L30.6118 8.50556Z" fill="white"/>
<path d="M30.6118 8.50556C30.6118 8.50556 30.5569 8.09595 30.3027 8.00208" stroke="#081017" stroke-width="0.336377" stroke-linecap="round" stroke-linejoin="round"/>
<path d="M27.9522 7.89124C27.9522 7.89124 27.6345 8.07898 27.6172 8.28663L27.9522 7.89124Z" fill="white"/>
<path d="M27.9522 7.89124C27.9522 7.89124 27.6345 8.07898 27.6172 8.28663" stroke="#081017" stroke-width="0.336377" stroke-linecap="round" stroke-linejoin="round"/>
<path d="M31.3633 11.4668C31.3633 11.4668 31.4817 12.4083 31.6492 12.4567C31.8167 12.5051 32.0796 12.5506 32.0796 12.5506" fill="white"/>
<path d="M31.3633 11.4668C31.3633 11.4668 31.4817 12.4083 31.6492 12.4567C31.8167 12.5051 32.0796 12.5506 32.0796 12.5506" stroke="#081017" stroke-width="0.336377" stroke-linecap="round" stroke-linejoin="round"/>
<g style="mix-blend-mode:multiply">
<path d="M15.0215 12.4226L16.2721 12.4624C16.2721 12.4624 21.6961 12.2661 22.2073 12.5847C22.9265 12.9346 22.9554 13.2105 23.2297 13.0171C23.5041 12.8237 23.8218 12.4908 24.4139 12.4851C25.006 12.4795 27.3859 12.4254 27.5245 12.6075C27.071 12.909 24.255 13.6656 23.7121 15.7336C23.3539 15.452 22.7878 14.8205 22.2622 14.7978C22.0023 15.0282 21.9387 15.5914 22.0514 16.1176C22.164 16.6439 22.0629 17.0364 22.0629 17.0364C22.0629 17.0364 21.5315 18.1771 22.3488 19.1357C22.5626 19.3775 22.3431 19.7587 22.3431 19.7587L21.9272 20.9392C21.9272 20.9392 20.4831 21.2407 19.7726 21.7754C19.1141 21.9803 18.3111 21.8011 18.1321 21.5621C18.6462 20.6661 18.8195 20.1341 18.6982 19.332C18.5769 18.5298 17.5747 15.1078 17.5747 15.1078L16.3587 13.2276L15.5183 12.7013L15.0215 12.4254V12.4226Z" fill="white"/>
</g>
<g style="mix-blend-mode:multiply">
<path d="M32.0508 12.6843C32.0508 12.6843 36.0856 13.7311 36.0683 16.4448C36.0509 19.1585 35.9787 19.3548 35.9787 19.3548C35.9787 19.3548 37.9052 19.6392 37.547 18.7346C37.4199 16.9596 37.0618 15.1676 36.773 14.6726C36.4842 14.1777 35.17 12.4539 32.3425 12.1893C32.1085 12.6331 32.0537 12.6871 32.0537 12.6871L32.0508 12.6843Z" fill="#E6E6E6"/>
</g>
<g style="mix-blend-mode:multiply">
<path d="M31.0644 22.0627C31.0644 22.0627 33.1872 21.3714 33.2537 20.3702C33.3201 19.3689 33.4847 16.2029 33.4847 16.2029L33.7678 19.1982C33.7678 19.1982 33.606 19.6249 34.2559 19.477C34.2703 20.1682 34.4407 21.3743 34.2126 21.4795C33.9844 21.5848 31.6969 22.6344 31.2522 22.4723C30.9691 22.3386 30.8247 22.3955 31.0644 22.0627Z" fill="#E6E6E6"/>
</g>
<g style="mix-blend-mode:multiply">
<path d="M34.8749 23.9971C34.8749 23.9971 34.4157 26.3893 33.9824 26.3893C34.1211 26.7278 34.4561 26.944 34.4561 26.944L35.5623 26.5685C35.5623 26.5685 36.0677 25.6668 36.0215 24.5148C35.8598 23.7695 36.2728 23.522 34.8749 23.9971Z" fill="#E6E6E6"/>
</g>
<g style="mix-blend-mode:multiply">
<path d="M29.6731 30.3432L29.6529 27.0834C29.6529 27.0834 29.1561 27.5726 29.1561 28.2155C29.1561 28.8584 28.2637 34.2289 28.2637 34.2289L29.6702 31.3018V30.3461L29.6731 30.3432Z" fill="#E6E6E6"/>
</g>
<g style="mix-blend-mode:multiply">
<path d="M23.9776 26.6965L23.3711 33.9728C23.3711 33.9728 24.4397 33.9899 24.5321 33.6457C24.5697 32.7212 24.3126 26.6083 24.3126 26.6083L23.9805 26.6965H23.9776Z" fill="#E6E6E6"/>
</g>
<g style="mix-blend-mode:multiply">
<path d="M37.3973 13.1109C37.3973 13.1109 37.0536 12.4566 35.5315 12.5135C34.5351 12.4339 34.2982 12.4453 34.2982 12.4453L34.0527 12.5932L34.7575 12.9203C34.7575 12.9203 36.1178 13.5859 36.5626 14.3369C37.0074 15.0879 37.224 16.1546 37.224 16.1546L37.5908 18.6293C37.5908 18.6293 37.6947 19.221 37.4002 19.2949C37.4175 19.8553 37.4175 20.5494 37.4175 20.5494C37.4175 20.5494 38.0789 19.8553 38.4659 19.8724C38.4052 18.982 38.2175 15.8559 38.2175 15.8559C38.2175 15.8559 38.1944 13.64 37.3973 13.1109Z" fill="white"/>
</g>
<g style="mix-blend-mode:multiply">
<path d="M36.7518 25.408L36.024 25.4336C36.024 25.4336 36.0153 24.1592 35.9258 23.761C36.4543 23.5932 36.9944 23.1409 36.9944 23.1409C36.9944 23.1409 37.0666 23.8406 37.0666 24.2901C37.0666 24.7395 37.0926 25.4762 37.0926 25.4762L36.7518 25.4051V25.408Z" fill="#E6E6E6"/>
</g>
<g style="mix-blend-mode:multiply">
<path d="M20.1706 23.9545C20.1706 23.9545 19.8183 24.7509 19.8183 25.135V25.6612L18.9518 25.7096C18.9518 25.7096 18.4955 24.6542 18.2182 24.3954C17.941 24.1365 17.9034 24.037 18.0103 24.037C18.1171 24.037 20.1706 23.9573 20.1706 23.9573V23.9545Z" fill="#E6E6E6"/>
</g>
<g style="mix-blend-mode:multiply">
<path d="M39.1079 24.2531L38.9375 26.5287L39.0126 26.6396C39.0126 26.6396 41.378 27.0976 41.5658 29.6122C41.3607 30.9947 41.2105 31.5124 41.2105 31.5124C41.2105 31.5124 41.2336 31.7769 41.3896 31.7684C41.5455 31.7598 41.8517 31.6773 41.8517 31.6773L42.0337 29.5894L42.2734 25.664L42.5218 21.7499C42.5218 21.7499 42.4351 20.4727 41.225 20.4072C40.6502 20.3361 40.7109 20.3276 40.5607 20.4015C40.4105 20.4755 40.1679 20.595 39.9975 20.723C39.8271 20.851 39.3794 21.1895 39.2177 22.1737C39.131 22.9958 39.1079 24.2531 39.1079 24.2531Z" fill="#E6E6E6"/>
</g>
<g style="mix-blend-mode:multiply">
<path d="M1.19305 24.0938L1.64361 30.4997C1.64361 30.4997 1.57718 32.6019 2.98662 32.6019C4.45382 32.6787 4.79174 32.6246 4.79174 32.6246C4.79174 32.6246 5.1932 32.7697 5.18742 32.4283C5.18165 32.087 5.08345 30.0019 5.23075 29.6976C5.00258 29.3648 4.79174 29.2368 4.74264 27.7633C4.74842 27.1062 4.78597 27.0465 4.78597 27.0465C4.78597 27.0465 4.64444 27.0578 4.63289 26.1618C4.53469 24.9358 4.47982 21.8836 4.10146 21.2123C3.235 20.5296 2.59671 20.1655 1.96709 20.4215C1.33746 20.7515 0.872459 20.9876 1.08907 22.407C1.18727 23.9231 1.18438 24.0967 1.18438 24.0967L1.19305 24.0938Z" fill="#E6E6E6"/>
</g>
<g style="mix-blend-mode:multiply">
<path d="M5.18837 29.6207L7.02527 29.7516L10.6413 29.743L10.751 29.9365L10.3323 32.4397L10.2774 32.855L10.0492 32.653L6.13859 32.636L5.11328 32.6729L5.12483 30.2721L5.18837 29.6207Z" fill="#E6E6E6"/>
</g>
<g style="mix-blend-mode:multiply">
<path d="M30.5027 29.7685C30.5027 29.7685 29.6536 29.4556 29.6276 29.9193C29.6016 30.3829 29.5641 31.6545 29.7431 31.6687C29.9222 31.6829 32.9895 31.993 33.0472 31.5321C32.5071 30.7072 32.6371 29.8596 32.6371 29.8596L31.9468 29.7401L30.5056 29.7714L30.5027 29.7685Z" fill="#E6E6E6"/>
</g>
<g style="mix-blend-mode:multiply">
<path d="M8.21932 18.0092L7.03516 20.8793L7.64168 21.1268L7.83807 20.8423L8.50525 18.0717L8.21932 18.0092Z" fill="#E6E6E6"/>
</g>
<g style="mix-blend-mode:multiply">
<path d="M12.1474 24.9471C12.1474 24.9471 13.8139 24.765 14.2558 25.8459C14.7988 27.1658 12.6586 34.0468 12.6586 34.0468C12.6586 34.0468 13.6146 34.4166 13.8024 33.8334C13.9901 33.2503 14.1258 32.6387 14.1258 32.6387L15.3504 27.3336C15.3504 27.3336 15.7143 25.3168 13.8139 24.7991C13.115 24.6654 12.6817 24.5602 12.1445 24.9442L12.1474 24.9471Z" fill="#E6E6E6"/>
</g>
<g style="mix-blend-mode:multiply">
<path d="M17.1635 23.8235C17.1635 23.8235 18.1628 24.6086 18.0184 26.9696C17.874 29.3305 16.3086 33.7652 16.3086 33.7652C16.3086 33.7652 17.3541 34.2459 17.5361 33.1764C18.0502 30.1156 20.7304 24.4692 17.1664 23.8235H17.1635Z" fill="#E6E6E6"/>
</g>
<g style="mix-blend-mode:multiply">
<path d="M25.6923 30.0019L25.8569 32.5648L25.6721 32.616L24.459 32.6217L24.3926 29.7771L25.6258 29.7544L25.7154 29.834L25.6923 30.0019Z" fill="#E6E6E6"/>
</g>
<g style="mix-blend-mode:multiply">
<path d="M20.3981 29.7687L18.3215 29.7573L17.7266 32.5507L18.0212 32.6275L20.8574 32.5876L20.3981 29.7687Z" fill="#E6E6E6"/>
</g>
</svg>
