<svg width="72" height="87" viewBox="0 0 72 87" fill="none" xmlns="http://www.w3.org/2000/svg">
<path d="M61.3079 35.4459C61.2939 35.3385 61.2775 35.2339 61.2447 35.1312C61.2406 35.12 61.2365 35.1087 61.2332 35.0975C61.0691 34.6549 60.9051 34.2122 60.741 33.7696C60.7295 33.7425 60.7188 33.7164 60.7049 33.6911C60.4645 33.2448 60.1865 32.8077 59.8526 32.4454C59.8452 32.4388 59.8378 32.4314 59.8296 32.4248C59.4998 32.1353 59.1709 31.8449 58.8411 31.5554C58.8214 31.5405 58.8017 31.5246 58.7804 31.5115C58.7582 31.4984 58.7361 31.4854 58.7139 31.4723C58.6729 31.5171 58.6254 31.5554 58.5712 31.5816C56.7517 32.4482 54.7739 32.8497 52.8133 33.001C51.1201 33.1318 49.4097 33.0627 47.7313 32.7666C47.6919 32.6928 47.6386 32.6284 47.5672 32.5864C47.3162 32.4351 47.057 32.5313 46.8986 32.7862C46.8699 32.832 46.8412 32.8787 46.8133 32.9244C46.7887 32.9534 46.7641 32.9814 46.7378 33.0085C46.7305 33.016 46.7223 33.0234 46.7149 33.0309C46.5984 33.1206 46.4778 33.1981 46.3531 33.27C46.3203 33.1654 46.2629 33.0701 46.189 33.0057C46.002 32.8413 45.7173 32.8479 45.5475 33.0496C45.0373 33.6566 44.6977 34.3981 44.3868 35.1508C44.0783 35.8969 43.7576 36.6244 43.3564 37.3127C43.2588 37.4808 43.1579 37.646 43.0537 37.8104C43.002 37.8926 42.9495 37.9738 42.8962 38.0551C42.8716 38.0924 42.847 38.1307 42.8215 38.1681C42.8076 38.1896 42.7928 38.211 42.7789 38.2325C42.7764 38.2362 42.7059 38.339 42.7518 38.2727C42.7937 38.212 42.7461 38.2811 42.7354 38.296C42.7206 38.3175 42.7059 38.339 42.6919 38.3595C42.6665 38.3969 42.6403 38.4333 42.6148 38.4706C42.5558 38.5556 42.4959 38.6397 42.436 38.7228C42.3195 38.8853 42.2014 39.0459 42.0824 39.2056C41.6083 39.8416 41.1161 40.4588 40.6329 41.0855C40.1801 41.6729 39.5353 42.4125 39.5377 43.2249C39.5328 43.2268 39.5287 43.2277 39.5238 43.2296C39.4926 43.2389 39.4598 43.2445 39.4286 43.253C39.4229 43.253 39.4163 43.2548 39.4106 43.2548C39.3548 43.2595 39.2998 43.2567 39.2449 43.2539C39.2334 43.252 39.2219 43.2501 39.2129 43.2473C39.1817 43.2389 39.1514 43.2259 39.121 43.2165C39.1103 43.2109 39.1013 43.2072 39.1021 43.2072C39.0742 43.1904 39.0464 43.1726 39.0201 43.1521C39.0176 43.1502 39.0152 43.1484 39.0127 43.1465C38.9971 43.1157 38.9446 43.0774 38.9241 43.0531C38.9069 43.0326 38.8905 43.0111 38.8741 42.9887C38.8675 42.9756 38.8552 42.9616 38.8495 42.9513C38.806 42.8803 38.7674 42.8056 38.7297 42.7309C38.6542 42.5768 38.587 42.4162 38.523 42.2556C38.4902 42.1743 38.459 42.0922 38.4278 42.01C38.4262 42.0062 38.4262 42.0053 38.4254 42.0025C38.4237 41.996 38.4221 41.9913 38.4213 41.9904C38.4049 41.9455 38.3893 41.9017 38.3737 41.8568C38.3138 41.6841 38.2572 41.5104 38.2039 41.3348C38.0972 40.9837 38.0037 40.6279 37.9192 40.2693C37.5788 38.8292 37.3802 37.3519 37.0661 35.9044C36.9898 35.5533 36.9094 35.2021 36.8126 34.8575C36.6977 34.4476 36.5123 34.0488 36.1604 33.8452C35.829 33.6538 35.4492 33.6043 35.0841 33.5585C34.7781 33.5193 34.4697 33.509 34.1621 33.523C32.8282 33.5866 31.5444 34.0862 30.368 34.7838C29.7938 35.1246 29.2441 35.5159 28.7158 35.9417C28.4189 36.1818 28.1236 36.4292 27.8397 36.6926C27.5469 36.9279 27.2606 37.1735 26.9833 37.4322C26.4952 37.8851 26.0325 38.3754 25.5986 38.8984C25.3894 39.1253 25.1991 39.37 25.026 39.6296C24.3385 40.5588 23.738 41.5729 23.2467 42.6469C23.1466 42.8663 23.0514 43.0886 22.9595 43.3137C22.9087 43.3566 22.8627 43.4108 22.8266 43.4771C22.6363 43.8235 22.4936 44.1971 22.3566 44.5734C22.2934 44.7462 22.2335 44.9208 22.1728 45.0945C22.1482 45.1646 22.1269 45.2869 22.0834 45.3448C22.1088 45.2757 22.1113 45.2701 22.09 45.3271C22.0826 45.3457 22.0752 45.3653 22.0678 45.384C22.0506 45.4288 22.0334 45.4727 22.0153 45.5166C21.8808 45.8491 21.7249 46.1694 21.5477 46.4748C21.5084 46.5429 21.4682 46.6093 21.4271 46.6756C21.3993 46.7194 21.3714 46.7633 21.3435 46.8072C21.341 46.8119 21.3344 46.8212 21.3287 46.8315C21.2352 46.9819 21.1203 47.1219 21.0112 47.2573C20.9317 47.3573 20.8833 47.488 20.8734 47.6206C20.7668 47.6832 20.6601 47.7448 20.5543 47.8074C20.3271 47.9409 20.2409 48.3248 20.3788 48.5685C20.5281 48.8318 20.8037 48.9112 21.0473 48.7683C21.665 48.4041 22.2844 48.0399 22.9218 47.7233C22.9636 47.7028 23.0047 47.6804 23.0473 47.6617C23.0334 47.6683 23.0252 47.6711 23.0194 47.6739C23.0325 47.6683 23.0563 47.657 23.0744 47.6486C23.1581 47.6094 23.2426 47.5702 23.3279 47.5328C23.4919 47.46 23.6576 47.3918 23.8234 47.3265C24.1498 47.1966 24.4788 47.0752 24.8012 46.9324C25.4648 46.6391 26.0727 46.2385 26.6888 45.836C26.8537 45.7286 27.0194 45.6231 27.1867 45.5222C27.3081 45.5241 27.4296 45.5269 27.551 45.5353C27.6026 45.539 27.6543 45.5428 27.706 45.5493C27.7085 45.5493 27.7118 45.5493 27.7159 45.5502C27.7323 45.5531 27.7848 45.5605 27.7872 45.5615C27.8971 45.5829 28.0054 45.6147 28.1121 45.6539C28.1621 45.6726 28.2122 45.6941 28.2614 45.7155C28.2614 45.7155 28.263 45.7155 28.2647 45.7165C28.2556 45.7127 28.3303 45.7473 28.341 45.7529C28.4435 45.8043 28.5452 45.8594 28.6478 45.9117C28.7839 45.9808 28.9218 46.0489 29.062 46.1059C29.1867 46.2105 29.3401 46.2665 29.4927 46.2572C29.5304 46.3244 29.5829 46.3795 29.6519 46.4141C31.1063 47.1378 32.5698 47.8373 34.0431 48.5097C35.4894 49.1699 36.9447 49.8059 38.4081 50.4147C38.7773 50.5688 39.1464 50.7201 39.5164 50.8705C39.6887 50.9405 39.8601 51.0096 40.0324 51.0806C40.0422 51.0852 40.0529 51.0899 40.0603 51.0946C40.0956 51.1142 40.13 51.1347 40.1628 51.1581C40.1645 51.159 40.1719 51.1637 40.1809 51.1702C40.1817 51.1712 40.1817 51.1721 40.1833 51.173C40.1956 51.1898 40.2112 51.2076 40.226 51.2225C40.3113 51.3804 40.3737 51.5503 40.4368 51.7212C40.4401 51.7305 40.4442 51.7408 40.4475 51.7502C40.45 51.7567 40.4524 51.7632 40.4541 51.767C40.4713 51.8137 40.4885 51.8604 40.5049 51.907C40.541 52.0079 40.5763 52.1088 40.6099 52.2096C40.6427 52.3067 40.6739 52.4048 40.7034 52.5028C40.66 52.5888 40.6403 52.6822 40.6271 52.7923C40.4975 53.8999 40.4975 55.0224 40.6148 56.129C40.6116 56.6006 40.6091 57.0722 40.6034 57.5438C40.6034 57.5952 40.6017 57.6456 40.6017 57.697C40.5927 57.7437 40.5845 57.7904 40.5755 57.8361C40.5484 59.0361 40.4811 60.2352 40.3417 61.4268C40.0021 64.3227 39.185 67.0552 37.8962 69.5822C36.829 71.676 35.5525 73.6894 34.0128 75.3769C35.1514 75.3862 36.2662 75.6281 37.3975 75.7934C37.4574 75.7457 37.5337 75.7158 37.6264 75.7158C39.0021 75.7121 40.3761 75.5702 41.751 75.5851C42.7387 75.5963 43.7247 75.6607 44.7116 75.6804C44.984 75.657 45.2571 75.6439 45.5295 75.6495C45.5525 75.657 45.5754 75.6635 45.5984 75.672C45.605 75.6757 45.6123 75.6794 45.6189 75.6822C45.6673 75.6822 45.7157 75.6822 45.7649 75.6804C47.1021 75.6467 48.4392 75.5449 49.7747 75.4693C50.8002 75.4114 51.8543 75.3152 52.869 75.5403C53.358 75.5347 53.8461 75.5095 54.3333 75.4656C54.4867 75.5403 54.6803 75.5235 54.8149 75.4151C54.8329 75.4133 54.851 75.4114 54.8698 75.4086C54.997 75.3937 55.1241 75.3591 55.2152 75.2461C55.2964 75.1453 55.3744 74.9949 55.3579 74.853C55.2193 73.6268 54.9806 72.424 54.6172 71.2576C54.6147 71.2511 54.6123 71.2445 54.6098 71.238C54.6008 71.0092 54.5893 70.7813 54.5721 70.5525C54.5237 69.9268 54.4482 69.304 54.3629 68.6839C54.2005 67.5063 54.0052 66.3343 53.8214 65.1613C53.6361 63.9791 53.4515 62.7959 53.2661 61.6136C53.1078 60.6041 52.9503 59.5946 52.7919 58.5842C52.7649 58.262 52.7181 57.9426 52.6426 57.6307C52.6279 57.5709 52.6033 57.5149 52.5721 57.4645C52.5762 57.4364 52.5811 57.4084 52.5852 57.3804C52.6451 57.0041 52.7189 56.6305 52.8083 56.2616C52.851 56.0851 52.8067 55.8872 52.7042 55.7471C52.8871 54.9272 53.0733 54.1082 53.2644 53.2901C53.1906 53.193 53.1537 53.052 53.1898 52.8755C53.2767 52.4477 53.3005 52.0116 53.2973 51.5718C53.2948 51.5606 53.2915 51.5494 53.2891 51.5372C53.2546 51.3542 53.2251 51.1693 53.1988 50.9825C53.3998 50.0244 53.577 49.0606 53.6631 48.0782C53.7091 47.5581 53.7238 47.0351 53.7009 46.5131C53.7009 46.5121 53.7025 46.5112 53.7033 46.5103C53.7025 46.5093 53.7017 46.5084 53.7009 46.5075C53.6943 46.3702 53.6861 46.2329 53.6746 46.0956C53.6697 46.034 53.6574 45.9752 53.6402 45.9201C53.673 45.8734 53.7173 45.8313 53.7763 45.7977C55.7903 44.6528 57.8452 43.5284 60.0421 42.9186C60.1028 42.8196 60.1618 42.7197 60.2193 42.6179C60.3185 42.4414 60.4071 42.2584 60.4842 42.0679C60.7336 41.4562 60.9871 40.8333 61.1643 40.1862C61.2193 39.9872 61.2619 39.7837 61.2906 39.5782C61.3727 39.0011 61.4448 38.4212 61.4949 37.8394C61.5039 37.7301 61.5097 37.6208 61.5113 37.5116C61.522 36.8317 61.3874 36.0697 61.307 35.4421L61.3079 35.4459ZM26.6027 43.5901C26.6084 43.5845 26.6141 43.5779 26.6199 43.5723C26.6289 43.5761 26.6379 43.5798 26.647 43.5826C26.6322 43.5854 26.6174 43.5873 26.6027 43.5901ZM35.2424 46.838C34.6485 47.8093 33.2581 47.9512 32.4115 47.3199C32.0095 47.0201 31.747 46.3907 31.8044 45.8379C31.6994 45.7211 31.6108 45.5913 31.5501 45.4485C31.1719 44.5501 32.3836 43.1782 33.1711 43.3426C33.2712 43.3006 33.377 43.2679 33.4894 43.2473C33.5681 43.2324 33.6395 43.2408 33.7035 43.266C34.0267 43.2156 34.3729 43.2698 34.5936 43.421C35.0677 43.7442 35.5534 44.5006 35.6879 45.1104C35.8232 45.7211 35.5435 46.3468 35.2433 46.838H35.2424ZM53.1611 67.2532C53.1521 67.2317 53.143 67.2093 53.1332 67.1878C53.1299 67.1299 53.1266 67.072 53.1233 67.0141C53.1357 67.0935 53.148 67.1738 53.1611 67.2532Z" fill="#F0F0F0"/>
<path d="M38.4277 42.0065C38.4342 42.0231 38.4431 42.0462 38.4423 42.0462C38.4407 42.0462 38.4326 42.0231 38.4277 42.0065Z" fill="#E50695"/>
<path d="M38.8611 42.9699C38.8173 42.9118 38.8521 42.9552 38.8692 42.981C38.8667 42.9773 38.8635 42.9736 38.8611 42.9699Z" fill="#E50695"/>
<path d="M40.0508 51.0883C40.0714 51.0971 40.0843 51.102 40.0508 51.0883V51.0883Z" fill="#E50695"/>
<path d="M40.2031 51.1844C40.2031 51.1844 40.2082 51.1883 40.2099 51.1902C40.2099 51.1902 40.2107 51.1921 40.2116 51.1931C40.209 51.1902 40.2065 51.1873 40.2031 51.1844Z" fill="#E50695"/>
<path d="M39.285 84.4804C39.0676 84.4579 39.1521 84.4757 39.1226 84.6204C39.0463 84.993 38.856 86.6525 38.7542 86.8178C38.6361 87.0102 38.294 86.9308 38.2989 86.6731C38.2891 85.474 38.9085 83.9658 38.9265 82.8312C38.9331 82.4427 38.4081 80.8318 38.9987 80.8336C39.1685 80.8336 39.2267 81.0428 39.2637 81.1894C39.6755 82.8237 39.6952 84.8259 40.1078 86.4938C40.1554 86.787 40.0069 87.0046 39.7444 86.9009C39.5418 86.8215 39.3129 84.8502 39.285 84.4804Z" fill="#070707"/>
<path d="M15.0033 59.8272C14.6908 59.6488 14.0288 60.0392 14.425 60.3455C14.5013 60.4043 15.9787 60.5351 16.2609 60.5892C16.7769 60.6882 18.1936 60.9469 18.5521 61.3167C19.0542 61.835 18.2675 62.0376 17.918 62.0713C16.7785 62.1814 15.5825 61.8611 14.48 61.9144C14.1395 61.9312 14.215 62.3038 14.4283 62.4887C15.6924 62.6988 17.078 62.5083 18.3241 62.6297C18.7416 62.6708 19.8975 63.0182 19.3142 63.6607C18.9426 64.0697 16.7096 64.2621 16.11 64.3079C15.8409 64.3284 14.2027 64.0977 14.6284 64.7823C14.7162 64.9233 15.7162 64.8812 15.95 64.8728C16.612 64.8495 18.6637 64.3938 19.0714 64.9541C19.4693 65.5013 18.9549 65.6517 18.5751 65.8058C17.6506 66.1821 16.6711 66.226 15.7113 66.3745C15.4529 66.4146 14.8467 66.4893 15.1215 66.9301C15.3036 67.2215 17.6161 66.6472 18.0427 66.5902C18.7769 67.0861 18.1666 67.5035 17.6506 67.7417C16.6137 68.2198 15.1346 68.4654 14.2741 67.5203C12.2979 65.35 12.5071 60.9151 13.7285 58.3274L14.6744 56.6511L15.0042 59.8263L15.0033 59.8272Z" fill="#FDFDFD"/>
<path d="M25.2564 53.8507C25.4066 53.8077 25.546 53.7666 25.7035 53.7526C26.6912 53.6639 28.6805 53.6387 29.6461 53.7573C29.8101 53.7778 30.0956 53.8516 30.0956 54.0841V58.2398H33.8282C33.975 58.2398 34.0259 58.6096 34.0382 58.7478C34.121 59.6882 34.144 62.3367 34.0373 63.2406C34.0226 63.3639 33.9323 63.6562 33.8282 63.6562H30.0956V67.9053C30.0956 68.0724 29.7708 68.1303 29.6494 68.1443C28.8069 68.2405 26.4303 68.2676 25.6207 68.1434C25.5124 68.1266 25.2556 68.0239 25.2556 67.9053V63.6562H21.4411C21.2942 63.6562 21.2434 63.2864 21.231 63.1482C21.1482 62.2078 21.1252 59.5594 21.2319 58.6554C21.2466 58.5321 21.3369 58.2398 21.4411 58.2398H25.2556V53.8507H25.2564Z" fill="#E50695"/>
<path d="M41.2294 25.0149C41.852 25.0149 41.1326 26.5193 40.9234 26.8125C39.9776 28.1414 38.1228 28.3011 37.2475 26.7995C37.1097 26.5632 36.7241 25.5714 36.8578 25.3613C37.0063 25.1288 37.6093 25.3632 37.8455 25.3707C38.4033 25.3903 39.1097 25.4155 39.6568 25.3707C40.1269 25.3324 40.8742 25.0139 41.2294 25.0139V25.0149ZM40.8422 25.7414C39.8053 26.1196 38.6207 25.7759 37.6011 25.9272C37.3385 25.9665 37.6265 26.3858 37.7257 26.5342C38.6749 27.9509 40.4025 27.2701 40.8422 25.7414Z" fill="black"/>
<path d="M38.349 20.7994C38.4516 20.7593 38.5984 20.7751 38.673 20.8807C38.938 21.3177 38.0348 22.8315 38.066 23.1761C38.0955 23.5011 39.1308 23.1882 38.9495 23.8177C38.8207 24.265 37.2268 23.7878 37.5804 23.0099C37.7567 22.7447 38.2399 20.8433 38.349 20.8004V20.7994Z" fill="black"/>
<path d="M41.6474 17.7299C42.0018 17.6897 43.1954 18.0651 43.0584 18.5937C42.9427 19.041 42.3152 18.4555 42.1593 18.4069C41.7057 18.2668 41.056 18.618 40.9214 18.5087C40.4809 18.151 41.3677 17.7607 41.6466 17.7289L41.6474 17.7299Z" fill="black"/>
<path d="M35.8162 17.1703C36.178 17.0853 37.5889 17.2356 37.3904 17.9314C37.2772 18.3282 36.849 17.8865 36.6833 17.8221C35.9302 17.527 35.5209 18.0798 35.2354 17.9818C34.7178 17.8034 35.5931 17.2235 35.8162 17.1703Z" fill="black"/>
<path d="M41.8074 20.6295C42.2274 21.0787 41.8451 22.2133 41.1733 21.864C40.3776 21.4503 41.1856 19.9636 41.8074 20.6295Z" fill="black"/>
<path d="M35.8627 21.1364C35.5698 20.8665 35.6141 20.0213 35.9956 19.8981C37.2384 19.4947 36.7576 21.9628 35.8627 21.1364Z" fill="black"/>
<path d="M33.676 44.172C35.0681 44.1085 35.1329 46.3591 33.9869 46.5599C32.3184 46.854 32.3077 44.2336 33.676 44.172ZM34.2946 45.3879C34.2946 45.0405 34.0468 44.7594 33.7425 44.7594C33.4381 44.7594 33.1904 45.0414 33.1904 45.3879C33.1904 45.7343 33.4381 46.0164 33.7425 46.0164C34.0468 46.0164 34.2946 45.7343 34.2946 45.3879Z" fill="black"/>
<path d="M24.521 82.8938L25.1403 78.2244C21.8262 75.7945 18.9861 72.6073 17.22 68.5524C15.6425 68.8139 14.6999 69.0175 13.6121 67.5289C11.202 64.2305 12.3463 58.7992 14.5924 55.7632C14.5793 54.2504 14.4037 52.7366 14.4677 51.2321C16.2282 50.4682 18.101 49.9602 19.7638 48.9498C22.6621 42.5472 25.6579 33.5803 33.0213 32.8509C33.5127 32.8024 34.1977 32.9312 34.6341 32.8192C34.8671 32.7594 35.4085 32.1094 35.7317 31.9208C35.8958 31.8255 36.5971 31.5818 36.625 31.537C36.662 31.4781 36.7637 30.21 36.73 30.0979C36.7046 30.0138 36.3232 29.743 36.246 29.715C35.8096 29.5535 34.6989 29.6515 34.0976 29.546C32.8187 29.3209 31.1952 28.6018 30.073 27.8706C29.8121 27.7007 28.6415 26.8751 28.6202 26.6258C29.8958 22.5616 31.0271 18.4172 32.3937 14.3922C33.3535 11.5682 34.3609 9.7201 36.9688 8.58079C42.2985 6.25361 48.401 9.54267 49.5839 16.0246C49.862 17.5487 49.8415 19.5331 49.8718 21.1132C49.9194 23.5954 49.8423 26.0879 49.853 28.5701C49.7603 28.9184 48.0999 29.4974 47.7357 29.6151C46.8038 29.9158 45.8317 30.1324 44.8645 30.2221C44.8998 30.4303 44.8128 31.3474 44.8735 31.4277C44.8899 31.4492 45.2369 31.5202 45.3567 31.579C46.3821 32.0833 46.1401 32.2271 47.4486 32.1832C48.4674 32.1496 49.5478 32.0132 50.5667 31.904C54.6971 31.4604 58.7216 30.4434 62.7495 29.3826L60.5124 14.4184C59.2188 12.7645 57.6011 11.4235 56.2639 9.82283C55.8332 9.30734 55.5084 8.60321 56.1441 8.09052C57.1507 7.27899 58.2483 8.6583 59.2188 8.88617C58.7865 7.23136 58.0104 5.52333 57.6404 3.86666C57.5576 3.49685 57.4624 3.2251 57.5043 2.82447C57.6019 1.89901 58.5609 1.9345 59.0613 2.43505C59.1761 2.54992 59.1712 2.7535 59.3016 2.76751C58.8447 1.1734 60.2491 0.146156 61.0424 1.77108C61.0982 1.88501 61.1228 2.3538 61.2704 2.04937C61.4919 1.59177 61.624 1.33216 62.1974 1.48064C62.6986 1.61045 63.0415 2.67225 63.117 2.67318C63.1794 2.67505 63.5223 2.17544 64.0842 2.32112C64.8315 2.51443 65.2425 4.94714 65.432 5.73719C66.0341 8.24927 66.5132 10.8006 66.5583 13.4201C67.7445 18.8804 69.5739 24.3014 70.7642 29.7374C71.377 32.5381 71.2876 35.1025 69.0907 36.931C67.3311 38.3962 65.0276 39.4412 63.076 40.545C62.8709 40.7187 63.3779 41.3799 63.076 41.6647C60.067 43.1953 57.081 44.7987 54.1885 46.5871C53.7422 50.387 53.2795 54.1887 52.9826 58.0101L55.6946 75.1941C55.793 76.1037 54.8964 75.7254 54.3796 75.7964L55.405 82.8938H67.9562C68.1186 82.8938 68.1194 83.4541 67.9562 83.4541H55.446L55.8578 86.6703C55.8218 86.9859 55.5338 87.0961 55.3648 86.8384L53.7939 75.8085L33.0262 75.8151C31.4085 77.3784 29.6013 78.6634 27.7186 79.7728C27.3823 79.826 25.7162 78.4402 25.5858 78.598L24.4619 86.7954C24.3577 87.0504 23.9082 86.9635 23.973 86.6002L24.4373 83.4541H1.09869C0.936264 83.4541 0.935443 82.8938 1.09869 82.8938H24.5193H24.521ZM62.2565 6.69066L61.8037 6.59914C61.6478 5.78388 60.8447 1.89248 60.2869 1.60205C59.3549 1.11644 59.9185 3.44175 59.9997 3.89001C60.1654 4.80613 60.5953 6.0024 60.6814 6.85688C60.7118 7.15479 60.624 7.3537 60.3385 7.24257C60.1974 7.18747 59.647 4.9406 59.5075 4.54464C59.341 4.07024 58.9226 2.87583 58.4879 2.71708C58.0022 2.53964 57.9054 2.83941 58.0285 3.33436L59.7873 9.0636C60.3705 9.25691 60.9948 9.28025 61.5452 9.60337C61.7028 9.69582 62.3516 10.2337 62.4255 10.3757C62.5945 10.7016 62.4854 10.9892 62.1507 10.88C62.0243 10.8389 61.4304 10.1609 61.1088 10.0077C60.496 9.71543 59.6642 9.74345 59.0129 9.49878C58.3016 9.23263 57.1819 8.14561 56.4501 8.5313C56.2615 8.63029 56.3279 8.97862 56.4288 9.17286L60.9005 13.9804C61.7659 19.1222 62.5543 24.3434 63.2466 29.531C63.245 29.6104 63.2442 29.6945 63.204 29.7626C63.0776 29.9802 60.8947 30.3566 60.4977 30.5097C60.4156 30.5415 60.3328 30.5349 60.2926 30.6517L62.8758 40.0332C64.2515 39.2834 65.6601 38.5671 66.989 37.7117C69.989 35.7804 71.2105 34.3246 70.3384 30.1306C69.1908 24.6124 67.2171 19.0662 66.0678 13.5134C65.8348 10.4205 65.4017 6.46933 64.3713 3.58463C64.2302 3.18961 63.6888 2.44999 63.5231 3.13451C63.2729 4.17203 63.9324 5.56442 63.9045 6.55245C63.8931 6.96988 63.5075 7.03525 63.4091 6.64023C63.1958 5.78294 62.8324 2.47427 62.1539 2.08952C61.5838 1.76641 61.6601 2.76937 61.6929 3.17747C61.7331 3.67522 62.4066 6.52163 62.2573 6.69159L62.2565 6.69066ZM49.2943 19.7647C49.597 14.8591 47.6126 10.5484 43.4101 8.95434C40.2312 7.74872 36.1566 8.56212 34.0853 11.7419C33.1247 13.2165 32.548 15.6212 31.9852 17.3824C31.0172 20.4109 30.1066 23.4693 29.192 26.5193C31.0369 28.0107 33.2264 29.0118 35.5143 29.1033C32.1452 25.8684 33.4052 20.7976 33.7251 16.4682C33.7637 16.3188 33.8786 16.2646 33.9909 16.2104C34.4388 15.9975 35.1427 15.9237 35.6767 15.7015C36.8859 15.1991 38.3715 14.099 39.1574 12.9401C39.2944 12.7383 39.6242 11.967 39.753 11.9296C40.0934 11.8306 40.1738 12.5329 40.2837 12.7944C41.0171 14.5416 42.0278 15.9994 43.5799 16.8866C43.9392 17.092 45.4305 17.5739 45.5224 17.6635C45.6225 17.7607 45.8087 18.7954 46.0245 19.0111C47.2312 18.4928 48.4149 18.6403 49.2952 19.7656L49.2943 19.7647ZM45.7915 19.6424C45.5118 19.3604 45.1894 18.194 45.1114 18.1305C44.9605 18.0081 43.8456 17.6701 43.4814 17.4646C41.7357 16.485 40.5807 14.9142 39.7382 12.9475C38.8022 14.5743 37.1361 15.75 35.5307 16.3748C35.2863 16.4701 34.2543 16.6886 34.2124 16.8352C33.8703 21.1113 32.6357 25.9478 36.1771 28.9548C38.0163 30.5163 39.9745 30.5714 42.0745 29.6151C42.3321 29.4974 43.2255 28.7186 43.2074 29.3545C43.1935 29.8644 40.981 31.156 40.5192 31.2998C39.4536 31.6313 38.2042 31.4893 37.155 31.1578C37.1443 31.4623 37.1287 31.9908 37.0114 32.256C36.9294 32.4428 36.6997 32.4998 36.6751 32.6128C36.6628 32.6707 36.7382 33.6382 36.7547 33.8072C37.0278 36.7143 38.2567 39.8894 39.575 42.3632L45.1926 32.8836C45.2714 32.6539 44.7702 32.7865 44.5922 32.6585C44.5085 32.5988 44.3928 32.2514 44.378 32.1318C44.3026 31.5155 44.2804 28.5944 44.3748 28.0313C44.401 27.8725 45.0425 27.0909 45.1951 26.8172C45.6488 26.0066 45.9638 25.0261 46.1114 24.0801C46.7521 23.9942 47.25 24.0455 47.8432 23.6683C48.7447 23.0949 49.4379 21.1879 48.8399 20.142C48.3591 19.3015 47.296 19.126 46.5076 19.4397C46.241 19.5462 46.0442 19.8983 45.7915 19.6424ZM49.3772 28.3562V22.4729C49.1623 22.726 49.0843 23.0594 48.8833 23.3582C48.3148 24.2015 47.4494 24.6675 46.5093 24.6245C46.4256 25.3688 46.1311 26.1234 45.8104 26.7705C45.6512 27.0918 44.8653 28.1265 44.8653 28.2162V29.6636C46.4207 29.475 47.9301 29.0062 49.3772 28.3562ZM33.6267 75.2361H55.2016L52.5051 58.3677C52.6274 54.4035 53.3099 50.4757 53.6487 46.5264C53.6733 46.2472 53.8103 46.1295 53.9957 45.9875C55.236 45.0359 57.597 43.9106 59.0276 43.1243C60.2253 42.466 61.4542 41.8627 62.6666 41.2417L59.7938 30.69C55.5387 31.932 51.1442 32.5549 46.7513 32.7463C48.1762 34.2526 48.15 36.4108 47.8177 38.4419C49.4207 38.6791 50.7193 40.4199 50.8563 42.2213C50.9046 42.8563 50.8874 44.4056 50.7701 45.0098C50.6405 45.6775 50.6635 45.8998 50.611 46.6179C50.4764 48.4623 50.0819 51.1322 48.392 51.9362C48.1967 52.0296 47.4633 52.3173 47.2788 52.349C46.8136 52.4284 46.2542 52.3938 46.1795 51.742C46.0934 50.9856 46.6332 50.7577 47.1992 50.8688C47.6184 50.951 47.766 51.4787 47.8563 51.4945C48.1737 51.5515 48.9194 50.8231 49.1171 50.5205C50.2689 48.7518 50.0499 45.7896 50.0302 43.7155C50.0277 43.453 50.1237 43.1841 50.1221 42.8769C50.0999 38.6558 45.4535 37.9573 44.1377 41.7693C43.9014 42.4529 43.9244 43.1533 43.7456 43.7509C43.6816 43.9648 43.538 44.0741 43.4724 44.2804C43.2288 45.0537 43.0097 47.5471 43.0713 48.3754C43.1287 49.1505 43.547 50.6886 44.2895 50.9211C44.4978 50.9865 44.5224 50.7671 44.6791 50.6961C45.3838 50.3776 46.1098 50.655 45.9145 51.6355C45.762 52.406 44.7169 52.2295 44.3461 51.7999C44.2698 51.7112 44.3132 51.5795 44.2386 51.5095C44.0745 51.3554 43.7169 51.2508 43.4798 50.9912C41.9712 49.341 42.7283 45.0593 43.0844 42.9039C43.4888 40.4525 44.7603 38.5297 47.0802 38.3476C47.2287 36.7311 47.5191 35.1669 46.5035 33.8212C46.3862 33.6662 45.9359 33.1554 45.7931 33.1311C45.6816 33.1115 45.6258 33.2301 45.5602 33.3029C45.0999 33.8109 44.4289 35.1146 44.0433 35.7776C42.8834 37.7696 41.3141 41.2697 39.9449 42.8787C39.5011 43.4007 39.4601 43.3046 39.1394 42.7648C38.8342 42.2512 38.4528 41.4079 38.2058 40.8392C37.1254 38.3514 36.3502 35.6189 36.1689 32.8378C35.6554 33.0909 35.2116 33.5186 34.8712 34.021C33.6948 35.759 33.7571 38.1945 33.79 40.263C33.8039 41.1231 33.8096 41.9747 33.872 42.8302C36.9105 43.0711 36.7054 48.0458 33.6267 48.0122C34.8515 48.6733 36.1156 49.2533 37.3798 49.8098C38.3625 50.2432 39.7833 50.6279 40.6578 51.121C41.1303 51.3871 40.8539 51.7196 40.8457 52.123C40.7161 58.4256 40.0212 65.2242 37.0237 70.6508C36.0869 72.3467 34.9187 73.8829 33.6259 75.2342L33.6267 75.2361ZM34.283 33.4C26.5324 33.3029 23.4053 41.9598 20.5013 48.6201C22.9369 47.5471 25.2757 46.2089 27.6177 44.9005C27.9221 44.7931 29.4266 45.9334 29.5242 45.8195C29.5923 45.4198 29.9114 42.5846 30.0656 42.5453C30.1378 42.5267 30.2904 42.5435 30.3511 42.5911C30.6513 42.8311 29.9286 45.6261 30.0303 46.1781L32.0672 47.2184C30.9803 45.7644 31.3798 43.4558 33.0558 42.8619C33.0033 39.7353 32.5299 36.0494 34.2822 33.3991L34.283 33.4ZM35.5422 45.3936C35.5422 44.2655 34.7391 43.3513 33.7481 43.3513C32.7571 43.3513 31.954 44.2655 31.954 45.3936C31.954 46.5217 32.7571 47.436 33.7481 47.436C34.7391 47.436 35.5422 46.5217 35.5422 45.3936ZM40.342 51.6225C36.0024 50.0022 31.8359 47.8534 27.7547 45.5402C23.5423 47.7227 19.3955 50.1619 14.9222 51.6094C15.0674 53.6023 15.0559 55.6259 15.261 57.6207C15.3373 58.3677 15.4554 59.1251 15.5694 59.8657L17.5063 60.2943C17.6055 60.299 17.3291 58.6246 17.3127 58.4602C17.1773 57.0977 17.0969 55.7315 17.0551 54.3643C17.0452 54.0402 16.8492 53.6564 17.0485 53.3277C20.617 51.7747 24.1994 50.1918 27.5546 48.1018L27.8433 48.1476C31.1542 50.1068 34.6045 51.7355 38.1156 53.1755C38.4126 53.3772 38.3133 54.2363 38.301 54.6435C38.1861 58.393 37.4372 63.1855 36.1017 66.6147C34.4167 70.9385 31.3002 74.32 27.6653 76.5239C24.3257 74.5105 21.4898 71.538 19.667 67.7353C19.5038 67.3945 19.215 66.4569 19.0641 66.2663C18.9656 66.1412 18.8106 66.3046 18.6974 66.2729C19.183 67.4299 18.6006 67.9781 17.7138 68.3722C19.8442 73.1629 23.4964 76.7452 27.6661 79.1387C30.8671 77.2588 33.8367 74.7467 35.9565 71.3979C37.7801 68.516 38.8678 65.1691 39.4938 61.697C40.0836 58.4229 40.3248 54.9629 40.3428 51.6234L40.342 51.6225ZM19.1888 64.3108C19.5727 64.6872 19.7712 64.9449 19.6769 65.566C19.6514 65.7303 19.5046 65.8144 19.5284 66.0133C19.5579 66.2645 19.9484 67.0788 20.0772 67.3608C21.4751 70.4258 23.7745 73.0639 26.3003 74.9382C26.5488 75.1231 27.3634 75.7665 27.5611 75.845C27.6186 75.8683 27.6629 75.8945 27.7219 75.8534C29.9434 74.3844 32.009 72.5167 33.6251 70.2362C36.0508 66.8127 37.1189 61.922 37.5545 57.6197C37.607 57.0996 37.8916 53.8609 37.7735 53.6583C34.3363 52.2052 30.9335 50.6475 27.6809 48.7163C24.4176 50.626 21.0337 52.3257 17.5571 53.6714C17.5276 55.9014 17.804 58.1165 18.0575 60.3205C18.1469 60.6566 19.1502 60.6977 19.1953 61.555C19.2052 61.7446 19.0895 62.0658 19.142 62.1611C19.1879 62.2433 19.5021 62.3712 19.6432 62.5309C20.2273 63.1939 19.9943 64.1194 19.1896 64.3099L19.1888 64.3108ZM15.005 59.8274L14.6753 56.6522L13.7294 58.3285C12.5079 60.9163 12.2988 65.3512 14.2749 67.5215C15.1347 68.4656 16.6146 68.2209 17.6515 67.7428C18.1675 67.5046 18.7778 67.0872 18.0436 66.5913C17.617 66.6483 15.3045 67.2236 15.1224 66.9313C14.8475 66.4905 15.4538 66.4158 15.7122 66.3756C16.672 66.2271 17.6515 66.1832 18.576 65.8069C18.9558 65.6519 19.471 65.5024 19.0723 64.9552C18.6654 64.3958 16.6129 64.8506 15.9509 64.874C15.7171 64.8824 14.7163 64.9244 14.6293 64.7834C14.2036 64.0989 15.8418 64.3295 16.1109 64.309C16.7113 64.2632 18.9435 64.0708 19.3151 63.6618C19.8984 63.0193 18.7425 62.671 18.325 62.6308C17.0789 62.5094 15.6941 62.6999 14.4292 62.4898C14.2159 62.3049 14.1404 61.9323 14.4809 61.9155C15.5834 61.8623 16.7786 62.1826 17.9189 62.0724C18.2684 62.0388 19.0551 61.8352 18.553 61.3178C18.1945 60.948 16.7778 60.6893 16.2618 60.5903C15.9788 60.5362 14.5022 60.4054 14.4259 60.3466C14.0305 60.0403 14.6925 59.6499 15.0042 59.8283L15.005 59.8274Z" fill="black"/>
</svg>
