<svg width="75" height="61" viewBox="0 0 75 61" fill="none" xmlns="http://www.w3.org/2000/svg">
<path d="M27.484 10.9372L27.5423 13.7362C27.4451 17.9541 25.6569 19.0232 23.1689 19.0232C20.4476 19.0232 18.4261 18.2457 18.4261 13.9888H18.29C17.7458 13.9888 17.2987 13.5612 17.2793 13.017C17.2793 12.4727 17.7069 12.0257 18.2512 12.0062H18.4844C18.4844 12.0062 18.8343 11.0343 18.9704 10.2957C18.9704 10.2957 22.9356 8.81847 21.6333 10.043C20.1949 11.4037 25.7152 8.52691 24.8405 9.65429C23.9658 10.7817 24.7239 10.8594 26.0456 10.4707L27.3674 10.0819" fill="white"/>
<path d="M23.11 19.1398C21.3995 19.1398 20.2916 18.79 19.5141 18.0319C18.6977 17.235 18.309 15.9326 18.2895 14.1055C17.998 14.1055 17.7064 14.0083 17.4926 13.7945C17.2788 13.5807 17.1622 13.3086 17.1427 13.017C17.1233 12.7255 17.2399 12.4339 17.4537 12.2201C17.6675 12.0063 17.9397 11.8896 18.2312 11.8702H18.3867C18.4645 11.6175 18.7172 10.8595 18.8338 10.2569C18.8338 10.218 18.8727 10.1791 18.9115 10.1597C19.9612 9.77095 21.7494 9.16839 21.9632 9.5377C22.0798 9.71264 21.8855 9.92645 21.6911 10.1014C21.6133 10.1791 21.5745 10.218 21.5356 10.2569C21.8077 10.218 22.4686 9.96533 22.9545 9.79039C24.2763 9.30445 24.8205 9.11008 24.976 9.32389C25.0732 9.45995 24.9372 9.63489 24.8983 9.71264C24.4901 10.2375 24.5484 10.4124 24.5678 10.4513C24.6067 10.5096 24.8205 10.6651 25.9673 10.3346L27.2891 9.94589C27.2891 9.94589 27.4252 9.94589 27.4446 10.0236C27.4446 10.082 27.4446 10.1597 27.3668 10.1791L26.0451 10.5679C25.0927 10.8595 24.5678 10.8595 24.3735 10.5873C24.218 10.3735 24.3346 10.0431 24.7039 9.55714C24.7233 9.51827 24.7428 9.49883 24.7622 9.47939C24.5095 9.47939 23.6348 9.79039 23.0517 10.0236C21.73 10.5096 21.3801 10.6068 21.2635 10.4318C21.1857 10.2958 21.3023 10.1403 21.5162 9.92645C21.73 9.73208 21.73 9.65433 21.73 9.65433C21.555 9.55714 20.2138 9.92645 19.0282 10.3735C18.8727 11.1121 18.5617 11.9868 18.5422 12.0257C18.5422 12.0646 18.4839 12.1035 18.4256 12.1035H18.1923C17.9591 12.1035 17.7453 12.2006 17.5898 12.3756C17.4343 12.5505 17.3371 12.7643 17.3565 12.9976C17.3565 13.2308 17.4537 13.4446 17.6287 13.6001C17.8036 13.7556 17.998 13.8334 18.2507 13.8528H18.3867C18.3867 13.8528 18.445 13.8528 18.4839 13.8917C18.5033 13.9111 18.5228 13.95 18.5228 13.9889C18.5228 15.816 18.8921 17.0795 19.689 17.857C20.4082 18.5761 21.4578 18.8871 23.11 18.8871H23.1489C26.0451 18.8871 27.3085 17.3321 27.3863 13.7168L27.328 10.9178C27.328 10.9178 27.3863 10.8011 27.4446 10.8011C27.4446 10.8011 27.5612 10.8595 27.5612 10.9178L27.6195 13.7168C27.5418 17.4488 26.1617 19.1204 23.1295 19.1398H23.0906H23.11Z" fill="#081017"/>
<path d="M22.7226 13.8141C22.9481 13.8141 23.1308 13.6313 23.1308 13.4059C23.1308 13.1804 22.9481 12.9977 22.7226 12.9977C22.4972 12.9977 22.3145 13.1804 22.3145 13.4059C22.3145 13.6313 22.4972 13.8141 22.7226 13.8141Z" fill="black"/>
<path d="M25.5586 13.5808C25.784 13.5808 25.9668 13.398 25.9668 13.1726C25.9668 12.9472 25.784 12.7644 25.5586 12.7644C25.3331 12.7644 25.1504 12.9472 25.1504 13.1726C25.1504 13.398 25.3331 13.5808 25.5586 13.5808Z" fill="black"/>
<path d="M17.3171 14.9608L15.626 12.9393L15.4316 11.3649L16.1703 8.83798L17.9196 6.7776L20.7575 5.30035L22.7401 5.26147L21.9432 7.01085L19.4746 9.24616L18.0168 11.0927L17.2005 12.57L16.8117 12.8421L17.3171 14.9608Z" fill="white"/>
<path d="M18.4267 16.4185C16.5801 16.4185 15.375 13.639 15.375 11.7924C15.375 8.15759 18.2906 5.24196 22.0226 5.14478H23.3833C26.1045 5.14478 28.3204 7.36065 28.3204 10.0819V12.1423C28.3204 12.6088 27.9511 12.9781 27.4846 12.9781C27.4068 12.9781 27.3485 12.9198 27.3485 12.842C27.3485 12.7643 27.4068 12.706 27.4846 12.706C27.7956 12.706 28.0677 12.4533 28.0677 12.1228V10.0625C28.0677 7.47728 25.9684 5.37803 23.3833 5.37803H22.0226C18.4267 5.47521 15.6277 8.29365 15.6277 11.773C15.6277 13.5223 16.7356 16.1464 18.4267 16.1464C18.5044 16.1464 18.5628 16.2047 18.5628 16.2825C18.5628 16.3602 18.5044 16.4185 18.4267 16.4185Z" fill="#E10098"/>
<path d="M24.2969 15.1357C24.2969 15.1357 24.9383 14.6498 25.4437 15.0386L24.2969 15.1357Z" fill="white"/>
<path d="M24.2962 15.233C24.2962 15.233 24.2379 15.233 24.2185 15.1941C24.1796 15.1552 24.199 15.0775 24.2379 15.0386C24.2573 15.0192 24.9376 14.5138 25.5013 14.9414C25.5402 14.9803 25.5596 15.0386 25.5208 15.0969C25.4819 15.1358 25.4236 15.1552 25.3653 15.1164C24.9376 14.7859 24.3545 15.2136 24.3545 15.2136C24.3351 15.2136 24.3156 15.233 24.2962 15.233Z" fill="#081017"/>
<path d="M21.8281 13.231C21.8281 13.231 21.8864 12.609 22.2363 12.4729L21.8281 13.231Z" fill="white"/>
<path d="M21.8277 13.3476C21.7693 13.3476 21.7305 13.2893 21.7305 13.2309C21.7305 13.2115 21.7888 12.5506 22.2164 12.3757C22.2747 12.3563 22.333 12.3757 22.3525 12.434C22.3719 12.4923 22.3525 12.5506 22.2942 12.5701C22.0415 12.6673 21.9637 13.0949 21.9443 13.2504C21.9443 13.3087 21.886 13.3476 21.8277 13.3476Z" fill="#081017"/>
<path d="M25.6758 12.1425C25.6758 12.1425 26.1617 12.3951 26.2006 12.7061L25.6758 12.1425Z" fill="white"/>
<path d="M26.1813 12.8227C26.1813 12.8227 26.0841 12.7839 26.0647 12.7256C26.0452 12.5117 25.7148 12.2979 25.5982 12.2396C25.5398 12.2202 25.5204 12.1424 25.5593 12.0841C25.5787 12.0258 25.6565 12.0064 25.7148 12.0452C25.7731 12.0841 26.2396 12.3368 26.2785 12.6867C26.2785 12.745 26.2396 12.8033 26.1813 12.8033V12.8227Z" fill="#081017"/>
<path d="M23.0137 16.0493C23.0137 16.4575 23.6162 16.7879 24.0244 16.7879C24.4326 16.7879 25.0352 16.4575 25.0352 16.0493" fill="white"/>
<path d="M24.0434 16.8851C23.5963 16.8851 22.916 16.5158 22.916 16.0298C22.916 15.9715 22.9549 15.9132 23.0326 15.9132C23.1104 15.9132 23.1493 15.9521 23.1493 16.0298C23.1493 16.3797 23.713 16.6518 24.0628 16.6518C24.4127 16.6518 24.9764 16.3603 24.9764 16.0298C24.9764 15.9715 25.0153 15.9132 25.093 15.9132C25.1708 15.9132 25.2096 15.9521 25.2096 16.0298C25.2096 16.5158 24.5293 16.8851 24.0823 16.8851H24.0434Z" fill="#081017"/>
<g style="mix-blend-mode:multiply">
<path d="M41.3437 58.3258L41.6352 48.1794C41.6547 47.3048 42.1989 46.5467 42.9958 46.2163L45.9503 44.9917L43.0347 47.2659L42.471 59.2394L41.3242 58.3258H41.3437Z" fill="#E6E6E6"/>
</g>
<path d="M72.0363 29.2085L72.6972 29.3834C73.7468 29.6556 74.466 30.608 74.4466 31.6965L74.1744 46.5856C74.0967 50.4148 71.4921 53.7386 67.7795 54.7105L56.4863 57.8011" fill="white"/>
<path d="M56.4662 57.9372C56.4662 57.9372 56.369 57.8983 56.3496 57.84C56.3496 57.7817 56.369 57.704 56.4274 57.6845L67.7205 54.594C71.3748 53.6415 73.96 50.3566 74.0377 46.5857L74.3099 31.6966C74.3099 30.6664 73.649 29.7723 72.6577 29.5001L71.9968 29.3252C71.9968 29.3252 71.8996 29.2474 71.8996 29.1697C71.8996 29.1114 71.9774 29.0725 72.0551 29.0725L72.716 29.2474C73.8239 29.539 74.582 30.5498 74.5625 31.6771L74.2904 46.5663C74.2127 50.4343 71.5497 53.8359 67.7983 54.8078L56.5051 57.8983C56.5051 57.8983 56.4857 57.8983 56.4662 57.8983V57.9372Z" fill="#081017"/>
<path d="M12.5586 23.1635C14.4246 25.8847 15.377 29.1308 15.2798 32.4351L15.1632 36.9058" fill="white"/>
<path d="M15.1615 37.0224C15.1615 37.0224 15.0449 36.9641 15.0449 36.9057L15.1615 32.4351C15.2587 29.1307 14.3062 25.9624 12.4597 23.2412C12.4208 23.1829 12.4402 23.1051 12.4986 23.0662C12.5569 23.0274 12.6346 23.0468 12.6735 23.1051C14.5589 25.8652 15.5114 29.0919 15.4142 32.4351L15.2976 36.9057C15.2976 36.9057 15.2392 37.0224 15.1809 37.0224H15.1615Z" fill="#081017"/>
<path d="M14.7344 36.8279L22.4316 38.1108C22.4316 38.1108 21.071 39.899 21.4403 42.4648" fill="white"/>
<path d="M21.4401 42.6009C21.4401 42.6009 21.3235 42.562 21.3235 42.5037C21.0125 40.3267 21.9066 38.7134 22.237 38.208L14.7341 36.964C14.7341 36.964 14.6175 36.8862 14.637 36.8279C14.637 36.7696 14.7147 36.7113 14.773 36.7307L22.4703 38.0136C22.4703 38.0136 22.548 38.0525 22.5675 38.0914C22.5675 38.1302 22.5675 38.1691 22.5675 38.208C22.5675 38.208 21.2263 39.9962 21.5956 42.4842C21.5956 42.5426 21.5567 42.6203 21.4984 42.6203L21.4401 42.6009Z" fill="#081017"/>
<path d="M16.4844 42.1149L19.8859 42.4842L23.1709 42.6786C23.1709 42.6786 23.3652 42.5619 23.5207 42.1926" fill="white"/>
<path d="M23.1508 42.7953L19.8658 42.6009L16.4643 42.2316C16.4643 42.2316 16.3477 42.1538 16.3477 42.0955C16.3477 42.0372 16.4254 41.9789 16.4837 41.9789L19.8853 42.3482L23.1119 42.5426C23.1119 42.5426 23.2868 42.3871 23.384 42.1344C23.4035 42.0761 23.4812 42.0372 23.5395 42.0566C23.5978 42.0761 23.6367 42.1538 23.6173 42.2121C23.4618 42.6203 23.248 42.7369 23.2285 42.7564C23.2285 42.7564 23.1897 42.7564 23.1702 42.7564L23.1508 42.7953Z" fill="#081017"/>
<path d="M22.2148 38.4414L23.7504 38.7135C23.7504 38.7135 22.8174 40.113 23.0312 42.0568C23.0507 42.2512 23.0895 42.465 23.1478 42.6788" fill="white"/>
<path d="M23.1495 42.7954C23.1495 42.7954 23.0523 42.7565 23.0328 42.6982C22.9745 42.4844 22.9357 42.2705 22.9162 42.0762C22.7218 40.4629 23.3244 39.2383 23.5577 38.8107L22.197 38.558C22.197 38.558 22.0804 38.4802 22.0998 38.4219C22.1193 38.3636 22.1776 38.3053 22.2359 38.3247L23.7715 38.5969C23.7715 38.5969 23.8492 38.6357 23.8687 38.6746C23.8687 38.7135 23.8687 38.7524 23.8687 38.7912C23.8687 38.7912 22.9551 40.1907 23.1689 42.0567C23.1883 42.2511 23.2272 42.4649 23.2855 42.6593C23.2855 42.7176 23.2661 42.7954 23.1883 42.8148C23.1883 42.8148 23.1883 42.8148 23.1689 42.8148L23.1495 42.7954Z" fill="#081017"/>
<path d="M31.8952 41.6485L31.973 41.804C32.0702 41.9984 32.3229 42.0373 32.4978 41.9012C32.6144 41.804 32.6533 41.6291 32.595 41.493L32.1479 40.5017C32.0119 40.2101 31.798 39.9769 31.5454 39.802L29.4461 38.4802C29.4461 38.4802 28.1827 38.1886 27.133 38.4996C25.8113 38.9078 23.5371 38.6746 23.5371 38.6746" fill="white"/>
<path d="M32.2854 42.115C32.2854 42.115 32.2271 42.115 32.1882 42.115C32.0521 42.0956 31.9355 41.9984 31.8578 41.8818L31.78 41.7263C31.78 41.7263 31.78 41.5902 31.8383 41.5513C31.8966 41.5125 31.9744 41.5513 32.0133 41.6097L32.091 41.7652C32.091 41.7652 32.1688 41.8623 32.2465 41.8818C32.3048 41.8818 32.3826 41.8818 32.4214 41.8429C32.4992 41.7846 32.5186 41.668 32.4798 41.5902L32.0327 40.5989C31.9161 40.3268 31.7217 40.113 31.469 39.9575L29.3892 38.6551C29.2337 38.6163 28.1063 38.4025 27.1733 38.6746C25.8321 39.0828 23.6357 38.869 23.5385 38.8495C23.4802 38.8495 23.4219 38.7912 23.4219 38.7135C23.4219 38.6357 23.4996 38.5968 23.5579 38.5968C23.5774 38.5968 25.8127 38.8301 27.0956 38.4219C28.1646 38.0915 29.4086 38.383 29.4669 38.4025C29.4669 38.4025 29.4864 38.4025 29.5058 38.4025L31.6051 39.7242C31.8966 39.8991 32.1299 40.1713 32.2659 40.4823L32.713 41.4736C32.7908 41.668 32.7519 41.8818 32.5964 42.0178C32.5186 42.0956 32.402 42.1345 32.3048 42.1345L32.2854 42.115Z" fill="#081017"/>
<path d="M8.58984 34.787L9.11466 26.7399C9.25072 24.524 10.5336 22.522 12.4968 21.4724L17.4145 18.8289" fill="white"/>
<path d="M8.59123 34.9231C8.53292 34.9231 8.47461 34.8648 8.47461 34.7871L8.99942 26.7399C9.15492 24.4657 10.4378 22.4637 12.4399 21.3752L17.3575 18.7317C17.3575 18.7317 17.4936 18.7317 17.5325 18.79C17.5714 18.8483 17.5325 18.9261 17.4742 18.9649L12.5565 21.6084C10.6127 22.6581 9.38817 24.5824 9.23267 26.7788L8.70786 34.8259C8.70786 34.8259 8.64955 34.9426 8.59123 34.9426V34.9231Z" fill="#081017"/>
<path d="M19.0092 17.1768C17.9596 17.6433 17.2793 18.6929 17.2793 19.8397V28.3533" fill="white"/>
<path d="M17.2592 28.47C17.2592 28.47 17.1426 28.4116 17.1426 28.3533V19.8397C17.1426 18.6346 17.8618 17.5461 18.9503 17.0601C19.0086 17.0407 19.0863 17.0601 19.1058 17.1185C19.1252 17.1768 19.1058 17.2545 19.0475 17.274C18.0367 17.721 17.3758 18.7318 17.3758 19.8397V28.3533C17.3758 28.3533 17.3175 28.47 17.2592 28.47Z" fill="#081017"/>
<path d="M17.6883 30.4719C18.268 30.4719 18.7379 30.002 18.7379 29.4223C18.7379 28.8426 18.268 28.3727 17.6883 28.3727C17.1086 28.3727 16.6387 28.8426 16.6387 29.4223C16.6387 30.002 17.1086 30.4719 17.6883 30.4719Z" fill="white"/>
<path d="M17.6897 30.5885C17.0483 30.5885 16.5234 30.0637 16.5234 29.4222C16.5234 28.7808 17.0483 28.256 17.6897 28.256C18.3311 28.256 18.8559 28.7808 18.8559 29.4222C18.8559 30.0637 18.3311 30.5885 17.6897 30.5885ZM17.6897 28.5087C17.1843 28.5087 16.7761 28.9169 16.7761 29.4222C16.7761 29.9276 17.1843 30.3358 17.6897 30.3358C18.1951 30.3358 18.6033 29.9276 18.6033 29.4222C18.6033 28.9169 18.1951 28.5087 17.6897 28.5087Z" fill="#081017"/>
<path d="M17.6887 31.1522C18.4508 31.1522 19.0687 30.5343 19.0687 29.7722C19.0687 29.01 18.4508 28.3921 17.6887 28.3921C16.9265 28.3921 16.3086 29.01 16.3086 29.7722C16.3086 30.5343 16.9265 31.1522 17.6887 31.1522Z" fill="white"/>
<path d="M17.6881 31.2689C16.8523 31.2689 16.1914 30.5886 16.1914 29.7722C16.1914 28.9558 16.8717 28.2755 17.6881 28.2755C18.5045 28.2755 19.1848 28.9558 19.1848 29.7722C19.1848 30.5886 18.5045 31.2689 17.6881 31.2689ZM17.6881 28.5088C16.9883 28.5088 16.4441 29.0725 16.4441 29.7528C16.4441 30.4331 17.0078 30.9968 17.6881 30.9968C18.3684 30.9968 18.9321 30.4331 18.9321 29.7528C18.9321 29.0725 18.3684 28.5088 17.6881 28.5088Z" fill="#081017"/>
<path d="M18.7577 29.6556C18.7685 29.6556 18.7772 29.6469 18.7772 29.6361C18.7772 29.6254 18.7685 29.6167 18.7577 29.6167C18.747 29.6167 18.7383 29.6254 18.7383 29.6361C18.7383 29.6469 18.747 29.6556 18.7577 29.6556Z" fill="white"/>
<path d="M18.7572 29.7722C18.7572 29.7722 18.6211 29.7139 18.6211 29.6167C18.6211 29.5195 18.6794 29.4612 18.7572 29.4612C18.8349 29.4612 18.8932 29.5389 18.8932 29.6167C18.8932 29.6944 18.8349 29.7722 18.7572 29.7722ZM18.7572 29.5389C18.7572 29.5389 18.66 29.5778 18.66 29.6361C18.66 29.6944 18.6988 29.7333 18.7572 29.7333C18.8155 29.7333 18.8543 29.6944 18.8543 29.6361C18.8543 29.5778 18.8155 29.5389 18.7572 29.5389Z" fill="#081017"/>
<path d="M25.7363 19.373L28.4576 20.5976C30.4208 21.2196 31.9952 22.6969 32.7727 24.6017L34.7942 29.6749" fill="white"/>
<path d="M34.7931 29.7916C34.7931 29.7916 34.6959 29.7527 34.6764 29.7138L32.6549 24.6406C31.8969 22.7552 30.3613 21.3168 28.4176 20.7143L25.6769 19.4897C25.6769 19.4897 25.5797 19.3925 25.6186 19.3342C25.638 19.2759 25.7157 19.237 25.7741 19.2759L28.4953 20.5005C30.4974 21.1225 32.0912 22.6192 32.8687 24.5629L34.8902 29.6361C34.8902 29.6361 34.8902 29.7722 34.8125 29.7916H34.7736H34.7931Z" fill="#081017"/>
<path d="M30.6928 39.277C30.6928 39.277 30.5762 39.2187 30.5762 39.1604V25.9429C30.5762 25.9429 30.6345 25.8263 30.6928 25.8263C30.7511 25.8263 30.8094 25.8846 30.8094 25.9429V39.1604C30.8094 39.1604 30.7511 39.277 30.6928 39.277Z" fill="#081017"/>
<path d="M24.9962 18.9454L25.5404 25.4959L24.413 32.6489C24.277 33.543 24.1992 34.4371 24.1992 35.3312V38.7328" fill="white"/>
<path d="M24.2201 38.8883C24.2201 38.8883 24.1035 38.83 24.1035 38.7717V35.3701C24.1035 34.476 24.1813 33.5625 24.3173 32.6683L25.4447 25.5153L24.9005 18.9843C24.9005 18.9843 24.9393 18.8483 25.0171 18.8483C25.0754 18.8483 25.1531 18.8871 25.1531 18.9649L25.6974 25.5153L24.57 32.7072C24.434 33.5819 24.3562 34.4955 24.3562 35.3701V38.7717C24.3562 38.7717 24.2979 38.8883 24.2396 38.8883H24.2201Z" fill="#081017"/>
<path d="M22.8797 38.4996L22.9574 37.7804C23.3462 34.2234 22.8602 30.6469 21.5774 27.3036L19.2837 21.3363C18.8172 20.1117 18.7201 18.7705 18.9922 17.4877" fill="white"/>
<path d="M22.8772 38.6356C22.8189 38.6356 22.7606 38.5579 22.7606 38.4996L22.8383 37.7804C23.2076 34.2622 22.7411 30.6663 21.4777 27.3619L19.1841 21.3946C18.6981 20.1506 18.601 18.7899 18.8925 17.4682C18.8925 17.4099 18.9703 17.3516 19.048 17.371C19.1063 17.371 19.1646 17.4488 19.1452 17.5265C18.8731 18.7899 18.9703 20.0923 19.4368 21.2974L21.7304 27.2647C23.0133 30.6079 23.4798 34.2427 23.1105 37.7998L23.0327 38.519C23.0327 38.519 22.9744 38.6356 22.9161 38.6356H22.8772Z" fill="#081017"/>
<path d="M25.3672 18.7705L27.2526 21.9388C28.2051 23.6882 28.7104 25.6514 28.7104 27.6534V30.0637" fill="white"/>
<path d="M28.71 30.1804C28.71 30.1804 28.5933 30.122 28.5933 30.0637V27.6535C28.5933 25.6903 28.088 23.7271 27.155 21.9972L25.2695 18.8289C25.2695 18.8289 25.2695 18.6928 25.3084 18.6539C25.3667 18.615 25.4445 18.6539 25.4833 18.6928L27.3688 21.8611C28.3212 23.6299 28.8266 25.632 28.8266 27.634V30.0443C28.8266 30.0443 28.7683 30.1609 28.71 30.1609V30.1804Z" fill="#081017"/>
<path d="M24.3164 33.5623L27.9123 25.6902L26.3962 23.9991L27.6208 22.7745" fill="white"/>
<path d="M24.3159 33.6984C24.3159 33.6984 24.277 33.6984 24.2576 33.6984C24.1992 33.679 24.1604 33.6013 24.1992 33.5429L27.7563 25.7291L26.2985 24.1158C26.2985 24.1158 26.2596 23.9991 26.2985 23.9408L27.5231 22.7163C27.5231 22.7163 27.6397 22.6774 27.698 22.7163C27.7369 22.7551 27.7369 22.8329 27.698 22.8912L26.5512 24.038L27.9896 25.6319C27.9896 25.6319 28.0284 25.7291 28.009 25.7679L24.4325 33.6401C24.4325 33.6401 24.3742 33.7179 24.3159 33.7179V33.6984Z" fill="#081017"/>
<path d="M17.2793 23.6688L18.5233 24.4269L17.532 25.9819L22.9745 33.407" fill="white"/>
<path d="M22.9751 33.5431C22.9751 33.5431 22.8974 33.5431 22.8779 33.4848L17.4354 26.0402C17.4354 26.0402 17.3966 25.943 17.4354 25.9041L18.3684 24.4658L17.2216 23.766C17.2216 23.766 17.1439 23.6494 17.1828 23.5911C17.2216 23.5328 17.2994 23.5133 17.3577 23.5522L18.6211 24.3297C18.6211 24.3297 18.66 24.3686 18.6794 24.4075C18.6794 24.4463 18.6794 24.4658 18.6794 24.5046L17.727 25.9819L23.1306 33.3487C23.1306 33.3487 23.1501 33.4848 23.1112 33.5236C23.0918 33.5236 23.0723 33.5431 23.0334 33.5431H22.9751Z" fill="#081017"/>
<path d="M23.5389 22.036C23.1696 22.036 22.8197 21.9194 22.5282 21.7056L20.7205 20.4033C19.8652 19.7813 19.1849 18.9455 18.7573 17.9736C18.7379 17.9153 18.7573 17.8375 18.8156 17.8181C18.8739 17.7986 18.9517 17.8181 18.9711 17.8764C19.3793 18.8094 20.0402 19.6063 20.8565 20.2089L22.6642 21.5112C23.2085 21.9 23.986 21.8611 24.4914 21.4335L24.7246 21.2196C24.7246 21.2196 24.8801 21.103 24.9384 21.0641C25.055 20.9864 25.0939 20.967 25.0939 20.792L24.9578 19.8201C24.9578 19.8201 24.9967 19.6841 25.055 19.6841C25.1134 19.6841 25.1911 19.723 25.1911 19.7813L25.3272 20.7726C25.3272 21.103 25.23 21.1808 25.0745 21.278C25.0162 21.3168 24.9578 21.3557 24.8801 21.414L24.6469 21.6278C24.3359 21.9 23.9277 22.0555 23.5195 22.0555L23.5389 22.036Z" fill="#081017"/>
<path d="M19.3008 21.3363L22.0026 24.2131L23.1688 21.9389" fill="white"/>
<path d="M22.0038 24.3297C22.0038 24.3297 21.9455 24.3297 21.9066 24.2908L19.2048 21.4141C19.2048 21.4141 19.1659 21.278 19.2048 21.2391C19.2631 21.2002 19.3408 21.2002 19.3797 21.2391L21.9649 23.9798L23.0534 21.8611C23.0534 21.8611 23.1506 21.7834 23.2283 21.8028C23.2867 21.8417 23.3061 21.9 23.2867 21.9777L22.101 24.2519C22.101 24.2519 22.0427 24.3102 22.0038 24.3102V24.3297Z" fill="#081017"/>
<path d="M23.9492 21.8612L24.8628 24.1354L25.5431 23.3579" fill="white"/>
<path d="M24.8621 24.2713C24.8621 24.2713 24.8621 24.2713 24.8427 24.2713C24.8038 24.2713 24.7649 24.2324 24.7455 24.1936L23.8125 21.9194C23.8125 21.9194 23.8125 21.7833 23.8708 21.7639C23.9291 21.7444 24.0069 21.7639 24.0263 21.8222L24.8816 23.9214L25.4258 23.2994C25.4258 23.2994 25.5424 23.2411 25.6007 23.2994C25.6591 23.3383 25.6591 23.4161 25.6007 23.4744L24.9399 24.2519C24.9399 24.2519 24.8816 24.2908 24.8427 24.2908L24.8621 24.2713Z" fill="#081017"/>
<path d="M22.5469 23.1439L23.2466 24.0575L23.8103 24.038L24.4517 23.1439" fill="white"/>
<path d="M23.2471 24.1742C23.2471 24.1742 23.1694 24.1742 23.1499 24.1353L22.4502 23.2217C22.4502 23.2217 22.4113 23.0857 22.4696 23.0468C22.5279 23.0079 22.6057 23.0079 22.6446 23.0662L23.3054 23.9215H23.7525L24.3551 23.0662C24.3939 23.0079 24.4717 22.9885 24.53 23.0468C24.5883 23.0857 24.6078 23.1634 24.5494 23.2217L23.908 24.1159C23.908 24.1159 23.8497 24.1742 23.8108 24.1742H23.2471Z" fill="#081017"/>
<path d="M22.5873 30.7635C22.529 30.7635 22.4707 30.7052 22.4707 30.6274L23.1121 24.0381C23.1121 24.0381 23.1705 23.9215 23.2482 23.9215C23.3065 23.9215 23.3648 23.9798 23.3648 24.0576L22.7234 30.6469C22.7234 30.6469 22.6651 30.7635 22.6068 30.7635H22.5873Z" fill="#081017"/>
<path d="M24.8013 30.2192C24.8013 30.2192 24.6847 30.1804 24.6847 30.122L23.6934 24.077C23.6934 24.077 23.7322 23.9409 23.7905 23.9409C23.8489 23.9409 23.9266 23.9798 23.9266 24.0381L24.9179 30.0832C24.9179 30.0832 24.879 30.2192 24.8207 30.2192C24.8207 30.2192 24.8207 30.2192 24.8013 30.2192Z" fill="#081017"/>
<path d="M0.894531 33.9319L14.0148 35.2148L17.9607 46.5857L4.60709 44.8363L0.894531 33.9319Z" fill="#F41BA2"/>
<path d="M17.9603 46.7217L4.62616 44.9723C4.62616 44.9723 4.54841 44.9335 4.52897 44.8946L0.816406 33.9902C0.816406 33.9902 0.816406 33.9124 0.835844 33.8735C0.855281 33.8346 0.894156 33.8152 0.952469 33.8347L14.0728 35.1175C14.0728 35.1175 14.17 35.1564 14.17 35.1953L18.0963 46.5662C18.0963 46.5662 18.0963 46.644 18.0769 46.6828C18.0575 46.7023 18.0186 46.7217 17.9797 46.7217H17.9603ZM4.70391 44.7391L17.7659 46.4496L13.9173 35.3313L1.04966 34.0679L4.68447 44.7197L4.70391 44.7391Z" fill="#081017"/>
<path d="M16.8516 43.1063L24.2572 44.3309V44.9723L17.9595 46.5856" fill="#E4E4E4"/>
<path d="M17.9593 46.7217C17.9593 46.7217 17.8621 46.6828 17.8426 46.6245C17.8426 46.5662 17.8621 46.4884 17.9398 46.469L24.1598 44.8751V44.428L16.8513 43.2229C16.8513 43.2229 16.7347 43.1452 16.7541 43.0868C16.7541 43.0285 16.8319 42.9702 16.8902 42.9897L24.2959 44.2142C24.2959 44.2142 24.3931 44.2725 24.3931 44.3308V44.9723C24.3931 44.9723 24.3542 45.0695 24.2959 45.0889L17.9787 46.7217C17.9787 46.7217 17.9593 46.7217 17.9398 46.7217H17.9593Z" fill="#081017"/>
<path d="M17.7846 45.9635C17.7846 45.9635 17.6874 45.9246 17.668 45.8663C17.668 45.808 17.6874 45.7303 17.7652 45.7108L24.2573 44.1947C24.2573 44.1947 24.3933 44.2141 24.4128 44.2919C24.4128 44.3502 24.3933 44.428 24.3156 44.4474L17.8235 45.9635C17.8235 45.9635 17.8235 45.9635 17.804 45.9635H17.7846Z" fill="#081017"/>
<path d="M39.4185 49.404H4.00334C4.00334 49.404 3.88672 49.3457 3.88672 49.2874C3.88672 49.2291 3.94503 49.1708 4.00334 49.1708H39.4185C39.4185 49.1708 39.5351 49.2291 39.5351 49.2874C39.5351 49.3457 39.4768 49.404 39.4185 49.404Z" fill="#081017"/>
<path d="M48.0483 41.5318L45.3465 40.5599H32.1484" fill="white"/>
<path d="M48.0497 41.6485C48.0497 41.6485 48.0303 41.6485 48.0108 41.6485L45.3285 40.6766H32.1498C32.1498 40.6766 32.0332 40.6183 32.0332 40.56C32.0332 40.5017 32.0915 40.4434 32.1498 40.4434H45.3479C45.3479 40.4434 45.3673 40.4434 45.3868 40.4434L48.0886 41.4152C48.0886 41.4152 48.1858 41.5124 48.1663 41.5707C48.1663 41.629 48.108 41.6485 48.0497 41.6485Z" fill="#081017"/>
<path d="M30.6543 34.8648L32.6758 37.3334C33.8615 38.7718 36.1745 38.4413 36.8937 36.7114L39.8871 29.5389L39.4012 29.2863" fill="white"/>
<path d="M34.5994 38.3442C33.8219 38.3442 33.1027 37.9943 32.5974 37.3918L30.5759 34.9232C30.5759 34.9232 30.537 34.7871 30.5759 34.7483C30.6342 34.7094 30.7119 34.7094 30.7508 34.7483L32.7723 37.2168C33.2971 37.8583 34.1135 38.1693 34.9493 38.0526C35.7851 37.936 36.4654 37.3918 36.7764 36.6337L39.7309 29.5584L39.3422 29.3641C39.3422 29.3641 39.2644 29.2669 39.2839 29.1891C39.3227 29.1308 39.3811 29.1114 39.4588 29.1308L39.9447 29.3835C39.9447 29.3835 40.0225 29.4807 40.0031 29.539L37.0097 36.7114C36.6598 37.5667 35.9017 38.1498 34.9882 38.2859C34.8521 38.2859 34.7355 38.3053 34.5994 38.3053V38.3442Z" fill="#081017"/>
<path d="M33.8209 32.4739H33.782C33.7237 32.4545 33.6848 32.3767 33.7043 32.3184L35.6091 27.5757C35.6091 27.5757 35.7063 27.4785 35.7646 27.4979C35.823 27.5174 35.8618 27.5951 35.8424 27.6534L33.9375 32.3962C33.9375 32.3962 33.8792 32.4739 33.8209 32.4739Z" fill="#081017"/>
<path d="M38.6817 24.7183C38.6817 24.7183 38.8177 23.4354 38.118 22.7163C37.4182 21.9971 36.8934 21.7833 36.8934 21.7833L36.3492 20.0922C36.252 19.8201 35.9604 19.6646 35.6883 19.7618C35.4356 19.8395 35.2801 20.1116 35.3384 20.3643L35.6689 21.9388V23.2799C35.7077 23.9991 35.9799 24.66 36.388 25.2431C36.5047 25.3986 36.5824 25.593 36.6407 25.8068" fill="white"/>
<path d="M36.6391 25.9235C36.6391 25.9235 36.5225 25.8847 36.5225 25.8264C36.4836 25.6514 36.4059 25.4765 36.3087 25.321C35.8422 24.6795 35.609 23.9798 35.5895 23.28V21.9389L35.2396 20.3839C35.1813 20.0534 35.3563 19.7424 35.6673 19.6452C35.8228 19.5869 35.9977 19.6064 36.1532 19.6841C36.3087 19.7619 36.4253 19.8979 36.4836 20.0534L37.0085 21.7056C37.164 21.7834 37.611 22.0555 38.2136 22.6386C38.9522 23.3772 38.8161 24.6795 38.8161 24.7379C38.8161 24.7962 38.7384 24.8545 38.6801 24.8545C38.6218 24.8545 38.5635 24.7767 38.5635 24.7184C38.5635 24.7184 38.6995 23.4939 38.0192 22.8135C37.3389 22.1332 36.8335 21.9 36.8335 21.9C36.7946 21.9 36.7752 21.8611 36.7752 21.8222L36.231 20.1312C36.1921 20.034 36.1338 19.9562 36.0366 19.8979C35.9394 19.8396 35.8422 19.8396 35.7256 19.8785C35.5312 19.9368 35.4146 20.1312 35.4535 20.345L35.7839 21.9194L35.8228 23.28C35.8228 23.9215 36.0755 24.5824 36.5031 25.1849C36.6391 25.3793 36.7363 25.5737 36.7752 25.7875C36.7752 25.8458 36.7363 25.9235 36.678 25.9235C36.678 25.9235 36.678 25.9235 36.6586 25.9235H36.6391Z" fill="#081017"/>
<path d="M37.3398 21.2586L37.7092 20.5006L38.1562 17.1573C38.1951 16.8658 38.4672 16.6714 38.7393 16.7297C39.0115 16.7686 39.1864 17.0407 39.1475 17.3128L39.0503 17.9348" fill="white"/>
<path d="M37.3388 21.3946C37.3388 21.3946 37.2999 21.3946 37.2804 21.3946C37.2221 21.3557 37.2027 21.2974 37.2221 21.2391L37.572 20.5005L38.0191 17.1767C38.0385 17.0017 38.1357 16.8462 38.2718 16.749C38.4078 16.6519 38.5828 16.613 38.7577 16.6324C39.0881 16.6907 39.3214 17.0017 39.2631 17.3516L39.1659 17.9736C39.1659 17.9736 39.0881 18.0902 39.0298 18.0708C38.9715 18.0708 38.9132 17.993 38.9326 17.9347L39.0298 17.3127C39.0687 17.0989 38.9132 16.9045 38.7188 16.8851C38.6216 16.8851 38.505 16.8851 38.4273 16.9629C38.3495 17.0212 38.2912 17.1184 38.2718 17.2155L37.8247 20.5588C37.8247 20.5588 37.8247 20.5782 37.8247 20.5977L37.4554 21.3557C37.4554 21.3557 37.3971 21.4335 37.3388 21.4335V21.3946Z" fill="#081017"/>
<path d="M38.5449 20.6559L39.1669 16.9239C39.2058 16.6712 39.439 16.5157 39.6917 16.574C40.0222 16.6518 40.2165 16.9628 40.1582 17.2932L39.4196 21.2001" fill="white"/>
<path d="M39.419 21.3167C39.419 21.3167 39.419 21.3167 39.3996 21.3167C39.3413 21.3167 39.283 21.239 39.3024 21.1807L40.041 17.2737C40.0994 17.021 39.9244 16.7684 39.6717 16.71C39.594 16.6906 39.4968 16.71 39.4385 16.7489C39.3607 16.7878 39.3219 16.8655 39.3024 16.9627L38.6804 20.6947C38.6804 20.6947 38.6027 20.8114 38.5444 20.7919C38.486 20.7919 38.4277 20.7142 38.4472 20.6559L39.0692 16.9239C39.0886 16.7684 39.1858 16.6323 39.3024 16.5545C39.4385 16.4768 39.594 16.4379 39.73 16.4768C40.1188 16.574 40.3715 16.9433 40.2937 17.332L39.5551 21.239C39.5551 21.239 39.4968 21.3362 39.4385 21.3362L39.419 21.3167Z" fill="#081017"/>
<path d="M40.3128 22.5608L40.8764 18.8482V17.4876C40.857 17.3321 40.7598 17.2155 40.6238 17.1572C40.4294 17.0794 40.1961 17.196 40.1378 17.3904C40.0212 17.818 39.9629 18.4595 39.9629 18.4595" fill="white"/>
<path d="M40.3142 22.6969C40.2558 22.6969 40.1975 22.6386 40.1975 22.5803C40.1975 22.522 40.5474 20.2089 40.7612 18.8483V17.5071C40.7612 17.5071 40.6835 17.3322 40.5863 17.2933C40.528 17.2739 40.4502 17.2739 40.3919 17.2933C40.3336 17.3322 40.2947 17.371 40.2753 17.4488C40.1587 17.857 40.1003 18.4984 40.1003 18.4984C40.1003 18.5567 40.0226 18.615 39.9643 18.615C39.906 18.615 39.8477 18.5567 39.8477 18.479C39.8477 18.4595 39.9254 17.8181 40.0226 17.3905C40.0615 17.2544 40.1392 17.1378 40.2753 17.0795C40.3919 17.0212 40.5474 17.0017 40.664 17.0795C40.839 17.1572 40.975 17.3322 40.975 17.5265V18.8872C40.7807 20.345 40.4502 22.522 40.4308 22.6192C40.4308 22.6775 40.3725 22.7358 40.3142 22.7358V22.6969Z" fill="#081017"/>
<path d="M36.1726 25.7681L35.5117 27.2648C35.5117 27.2648 36.3864 29.3057 39.5742 29.2085C39.7297 28.6059 39.9046 27.8673 39.9046 27.8673C39.9046 27.8673 36.989 27.9451 36.192 25.7681H36.1726Z" fill="white"/>
<path d="M39.3792 29.3251C36.3081 29.3251 35.4334 27.3813 35.3945 27.3036C35.3945 27.2647 35.3945 27.2453 35.3945 27.2064L36.0554 25.7097C36.0554 25.7097 36.1137 25.632 36.172 25.632C36.2303 25.632 36.2692 25.6708 36.2887 25.7097C37.0662 27.7895 39.8652 27.7312 39.8846 27.7312C39.9235 27.7312 39.9623 27.7312 39.9818 27.7701C40.0012 27.809 40.0207 27.8478 40.0012 27.8673C40.0012 27.8673 39.8263 28.6253 39.6708 29.2085C39.6708 29.2668 39.6125 29.3056 39.5542 29.3056C39.4958 29.3056 39.4181 29.3056 39.3598 29.3056L39.3792 29.3251ZM35.6472 27.2647C35.8027 27.5757 36.7163 29.1307 39.4764 29.0918C39.5736 28.6836 39.6902 28.2171 39.7485 27.9839C39.146 27.9645 37.0078 27.7701 36.172 26.079L35.6472 27.2647Z" fill="#081017"/>
<path d="M36.1733 25.8847C36.1733 25.8847 36.0566 25.8458 36.0566 25.7875C36.0566 25.7292 36.0761 25.6514 36.1538 25.632L36.5815 25.5348C36.5815 25.5348 36.7175 25.5542 36.737 25.632C36.737 25.6903 36.7175 25.768 36.6398 25.7875L36.2121 25.8847C36.2121 25.8847 36.2121 25.8847 36.1927 25.8847H36.1733Z" fill="#081017"/>
<path d="M39.631 27.6922L39.5727 26.9536C39.5533 26.5843 39.6505 26.2344 39.8837 25.9234L40.6418 24.9127L40.9139 24.2907L41.497 23.2799" fill="white"/>
<path d="M39.6321 27.8089C39.6321 27.8089 39.5155 27.7506 39.5155 27.6923L39.4572 26.9537C39.4377 26.5649 39.5544 26.1762 39.7876 25.8457L40.5457 24.835L40.7984 24.2324L41.3815 23.2022C41.3815 23.2022 41.4981 23.1245 41.5564 23.1634C41.6147 23.2022 41.6342 23.28 41.5953 23.3383L41.0122 24.349L40.7595 24.971L39.982 26.0207C39.7876 26.2928 39.6904 26.6232 39.7099 26.9537L39.7682 27.6923C39.7682 27.6923 39.7293 27.8284 39.6515 27.8284L39.6321 27.8089Z" fill="#081017"/>
<path d="M28.2419 35.5841C27.5421 35.5841 26.959 35.0009 26.959 34.3012V32.5518C26.959 31.1912 27.6782 30.0833 28.5723 30.0833C29.4664 30.0833 30.1856 31.1912 30.1856 32.5518V34.3012C30.1856 35.0009 29.6025 35.5841 28.9027 35.5841" fill="white"/>
<path d="M28.8847 35.7006C28.8847 35.7006 28.7681 35.6423 28.7681 35.584C28.7681 35.5257 28.8264 35.4674 28.8847 35.4674C29.5261 35.4674 30.0509 34.9426 30.0509 34.3011V32.5517C30.0509 31.2689 29.3901 30.1998 28.5542 30.1998C27.7184 30.1998 27.0576 31.2494 27.0576 32.5517V34.3011C27.0576 34.9426 27.5824 35.4674 28.2238 35.4674C28.3016 35.4674 28.3599 35.5257 28.3599 35.584C28.3599 35.6423 28.3016 35.7006 28.2432 35.7006C27.4657 35.7006 26.8438 35.0786 26.8438 34.3011V32.5517C26.8438 31.1328 27.6212 29.9666 28.5737 29.9666C29.5261 29.9666 30.3036 31.1328 30.3036 32.5517V34.3011C30.3036 35.0786 29.6816 35.7006 28.9041 35.7006H28.8847Z" fill="#081017"/>
<path d="M28.2827 35.4285H28.1855V35.72H28.2827V35.4285Z" fill="white"/>
<path d="M28.2821 35.3119H28.1655C28.101 35.3119 28.0488 35.3641 28.0488 35.4285V35.7395C28.0488 35.8039 28.101 35.8561 28.1655 35.8561H28.2821C28.3465 35.8561 28.3987 35.8039 28.3987 35.7395V35.4285C28.3987 35.3641 28.3465 35.3119 28.2821 35.3119Z" fill="#081017"/>
<path d="M28.9624 35.4285H28.8652V35.72H28.9624V35.4285Z" fill="white"/>
<path d="M28.9618 35.3119H28.8451C28.7807 35.3119 28.7285 35.3641 28.7285 35.4285V35.7395C28.7285 35.8039 28.7807 35.8561 28.8451 35.8561H28.9618C29.0262 35.8561 29.0784 35.8039 29.0784 35.7395V35.4285C29.0784 35.3641 29.0262 35.3119 28.9618 35.3119Z" fill="#081017"/>
<path d="M41.9466 26.254L41.8105 23.7466H42.0827C42.1993 23.7466 42.3159 23.8243 42.3354 23.941L42.6852 26.6039C42.7047 26.7983 42.6852 27.0121 42.6269 27.2065L42.1604 28.7809C42.0827 29.0336 42.141 29.3251 42.2965 29.539L45.076 33.3681" fill="white"/>
<path d="M45.0559 33.5041C45.0559 33.5041 44.9781 33.5041 44.9587 33.4458L42.1791 29.6166C42.0042 29.3639 41.9459 29.0529 42.0236 28.7419L42.4901 27.1675C42.5484 26.9926 42.5679 26.7982 42.529 26.6233L42.1791 23.9603C42.1791 23.9603 42.1208 23.8631 42.0625 23.8631H41.9264L42.043 26.2539C42.043 26.3317 41.9847 26.3706 41.9264 26.39C41.8487 26.39 41.8098 26.3317 41.7904 26.2734L41.6543 23.7659C41.6543 23.7659 41.6543 23.7076 41.6932 23.6688C41.7126 23.6493 41.7515 23.6299 41.7709 23.6299H42.043C42.2374 23.6299 42.3929 23.7465 42.4124 23.9409L42.7622 26.6038C42.8011 26.8176 42.7622 27.0509 42.7039 27.2647L42.2374 28.8391C42.1791 29.0724 42.218 29.3056 42.354 29.5L45.1336 33.3292C45.1336 33.3292 45.153 33.4653 45.1142 33.5041C45.0947 33.5041 45.0753 33.5236 45.0364 33.5236L45.0559 33.5041Z" fill="#081017"/>
<path d="M40.5659 27.2841C40.5659 27.2841 40.5075 26.7593 40.7214 26.3317C40.9352 25.904 40.8574 24.4851 40.8574 24.4851" fill="white"/>
<path d="M40.5654 27.4007C40.5654 27.4007 40.4488 27.3618 40.4488 27.2841C40.4488 27.2647 40.371 26.7204 40.6237 26.2539C40.7987 25.9235 40.7598 24.8544 40.7403 24.4657C40.7403 24.4073 40.7792 24.3296 40.857 24.3296C40.9347 24.3296 40.993 24.3685 40.993 24.4462C40.993 24.6017 41.0902 25.9235 40.857 26.3705C40.6432 26.7593 40.7015 27.2452 40.7015 27.2452C40.7015 27.3035 40.6626 27.3813 40.6043 27.3813L40.5654 27.4007Z" fill="#081017"/>
<path d="M41.1699 23.902C41.1699 23.902 41.2865 24.0769 41.4032 24.6989C41.5198 25.3209 41.4615 26.2734 41.4615 26.2734" fill="white"/>
<path d="M41.4809 26.39C41.4226 26.39 41.3643 26.3317 41.3643 26.2539C41.3643 26.2539 41.4421 25.3209 41.306 24.7184C41.1894 24.1352 41.0727 23.9603 41.0727 23.9603C41.0339 23.902 41.0727 23.8242 41.1116 23.7854C41.1699 23.7465 41.2477 23.7659 41.2866 23.8242C41.2866 23.8437 41.4226 24.038 41.5392 24.66C41.6753 25.3015 41.5976 26.215 41.5976 26.2539C41.5976 26.3122 41.5392 26.3705 41.4809 26.3705V26.39Z" fill="#081017"/>
<path d="M41.9071 23.7271C41.9071 23.7271 41.7321 23.591 41.4989 23.4744L41.7516 19.7229C41.771 19.2953 41.7515 18.8677 41.6544 18.4595C41.6155 18.304 41.4794 18.1874 41.3239 18.1874C41.0907 18.1874 40.9157 18.3623 40.8963 18.5761L40.8574 18.9649" fill="white"/>
<path d="M41.9064 23.8438C41.9064 23.8438 41.8481 23.8438 41.8286 23.8243C41.8286 23.8243 41.6537 23.6883 41.4399 23.5716C41.401 23.5522 41.3621 23.4939 41.3816 23.455L41.6343 19.7036C41.6537 19.2954 41.6343 18.8872 41.5371 18.479C41.5176 18.3818 41.4205 18.3041 41.3233 18.3041C41.1678 18.3041 41.0317 18.4207 41.0123 18.5762L40.9734 18.965C40.9734 18.965 40.9151 19.0816 40.8373 19.0816C40.779 19.0816 40.7207 19.0233 40.7207 18.9455L40.7596 18.5568C40.779 18.2652 41.0317 18.0514 41.3038 18.0514C41.5176 18.0514 41.6926 18.2069 41.7509 18.4207C41.8481 18.8483 41.887 19.276 41.8481 19.723L41.5954 23.3967C41.7898 23.5133 41.9453 23.63 41.9453 23.63C42.0036 23.6688 42.0036 23.7466 41.9647 23.8049C41.9453 23.8438 41.9064 23.8438 41.8675 23.8438H41.9064Z" fill="#081017"/>
<path d="M44.765 36.5558C44.0264 36.5558 43.3072 36.1671 42.9379 35.4673L41.6162 32.6489C41.3635 32.1241 41.1497 31.5993 40.9747 31.055C40.4499 29.5195 40.1 28.567 40.0417 28.4504C39.8862 28.1783 39.789 27.9062 39.789 27.8867C39.789 27.8867 39.789 27.8673 39.789 27.8478C39.789 27.809 39.7502 26.9148 40.0223 26.3512C40.2555 25.8458 40.2944 25.3404 40.2944 25.321C40.2944 25.2627 40.3527 25.2043 40.4305 25.2043C40.4888 25.2043 40.5471 25.2627 40.5471 25.3404C40.5471 25.3598 40.5277 25.9041 40.2555 26.4483C40.0417 26.9148 40.0417 27.6729 40.0417 27.809C40.0612 27.8673 40.1583 28.1005 40.2555 28.3143C40.3527 28.4893 40.8387 29.8499 41.208 30.9578C41.4023 31.4827 41.6162 32.0269 41.8494 32.5323L43.1712 35.3313C43.6377 36.206 44.7262 36.5364 45.6008 36.0699L47.6418 35.0203C47.6418 35.0203 47.7778 35.0203 47.8167 35.0786C47.8556 35.1369 47.8167 35.2147 47.7584 35.2535L45.7175 36.3032C45.4259 36.4587 45.0955 36.5364 44.7845 36.5364L44.765 36.5558Z" fill="#081017"/>
<path d="M44.6467 33.6792C44.6467 33.6792 44.569 33.6792 44.5495 33.6209C44.5106 33.5626 44.5301 33.4848 44.5884 33.4459L46.0462 32.4741C46.0462 32.4741 46.1823 32.4546 46.2211 32.5129C46.26 32.5712 46.2406 32.649 46.1823 32.6879L44.7245 33.6597C44.7245 33.6597 44.6856 33.6792 44.6467 33.6792Z" fill="#081017"/>
<path d="M48.2039 35.1563L47.7763 35.5062L45.9297 32.2796L48.2428 30.0054C48.8064 29.4417 49.5062 29.0529 50.2837 28.8391L50.6141 28.7419" fill="white"/>
<path d="M47.7767 35.6229C47.7767 35.6229 47.7767 35.6229 47.7573 35.6229C47.7184 35.6229 47.699 35.6034 47.6795 35.5646L45.833 32.3379C45.833 32.3379 45.8135 32.2213 45.8524 32.1824L48.1655 29.9082C48.7486 29.3251 49.4678 28.9169 50.2453 28.7226L50.5757 28.6254C50.5757 28.6254 50.7118 28.6448 50.7312 28.7226C50.7312 28.7809 50.7118 28.8586 50.634 28.8781L50.3036 28.9752C49.565 29.1696 48.8652 29.5584 48.321 30.1026L46.0857 32.3185L47.8156 35.3313L48.1266 35.0786C48.1266 35.0786 48.2627 35.0397 48.3015 35.0786C48.3404 35.1369 48.3404 35.2147 48.3015 35.2536L47.8739 35.6034C47.8739 35.6034 47.8156 35.6229 47.7962 35.6229H47.7767Z" fill="#081017"/>
<path d="M48.496 32.2603L48.0684 34.2234L48.496 41.4348" fill="white"/>
<path d="M48.4974 41.5513C48.4974 41.5513 48.3807 41.493 48.3807 41.4347L47.9531 34.2234C47.9531 34.2234 47.9531 34.2039 47.9531 34.1845L48.3807 32.2213C48.3807 32.2213 48.4585 32.1047 48.5362 32.1241C48.5946 32.1241 48.6529 32.2019 48.6334 32.2796L48.2058 34.2234L48.6334 41.4153C48.6334 41.4153 48.5946 41.5319 48.5168 41.5513H48.4974Z" fill="#081017"/>
<path d="M53.9584 32.6489L53.0254 36.517L55.5523 37.1001C56.0771 37.2167 56.6019 37.2167 57.1073 37.1001L57.2433 37.0612L57.671 35.7201" fill="white"/>
<path d="M56.3107 37.3334C56.0386 37.3334 55.7859 37.2945 55.5332 37.2362L53.0063 36.6531C53.0063 36.6531 52.948 36.6337 52.9286 36.5948C52.9286 36.5753 52.9091 36.5365 52.9286 36.4976L53.8616 32.6295C53.8616 32.6295 53.9393 32.5323 54.0171 32.5323C54.0754 32.5323 54.1142 32.6101 54.1142 32.6878L53.2007 36.4393L55.6109 37.003C56.0969 37.1196 56.6217 37.1196 57.1271 37.003H57.1854L57.5936 35.7201C57.613 35.6618 57.6907 35.6229 57.7491 35.6423C57.8074 35.6618 57.8462 35.7395 57.8268 35.7978L57.3992 37.139C57.3992 37.139 57.3603 37.2168 57.302 37.2168L57.1659 37.2557C56.8938 37.3334 56.6022 37.3528 56.3301 37.3528L56.3107 37.3334Z" fill="#081017"/>
<path d="M41.8486 44.4281L41.7708 44.467C40.4102 45.0112 39.5161 46.3135 39.4772 47.7908L39.2051 58.151" fill="white"/>
<path d="M39.2045 58.2481C39.2045 58.2481 39.0879 58.1898 39.0879 58.1315L39.36 47.7713C39.3989 46.2552 40.3319 44.914 41.7314 44.3503L41.8091 44.3114C41.8091 44.3114 41.9452 44.3114 41.9646 44.3697C41.9841 44.428 41.9646 44.5058 41.9063 44.5252L41.8286 44.5641C40.5263 45.0889 39.6516 46.3523 39.6127 47.7713L39.3406 58.1315C39.3406 58.1315 39.2823 58.2481 39.224 58.2481H39.2045Z" fill="#081017"/>
<path d="M47.4275 44.2726L44.4341 45.9442C43.5011 46.4885 42.8985 47.4603 42.8596 48.5488L42.5098 58.4814" fill="white"/>
<path d="M42.5092 58.5981C42.5092 58.5981 42.3926 58.5398 42.3926 58.462L42.7425 48.5294C42.8008 47.4021 43.4033 46.3913 44.3752 45.8276L47.3686 44.156C47.3686 44.156 47.5046 44.156 47.5435 44.1949C47.5824 44.2532 47.5435 44.3309 47.5046 44.3698L44.5113 46.0414C43.6171 46.5663 43.034 47.4993 42.9951 48.5294L42.6453 58.462C42.6453 58.462 42.587 58.5786 42.5286 58.5786L42.5092 58.5981Z" fill="#081017"/>
<path d="M58.1375 44.6808L57.9626 45.4777C57.6905 46.644 56.7769 47.577 55.6107 47.8297L47.7774 49.6179C47.6413 49.6568 47.5441 49.754 47.5247 49.89L45.7559 59.9975" fill="white"/>
<path d="M45.7552 60.1336C45.7552 60.1336 45.7552 60.1336 45.7358 60.1336C45.6775 60.1336 45.6191 60.0559 45.6386 59.9976L47.4074 49.8901C47.4463 49.7151 47.5823 49.5596 47.7573 49.5208L55.5906 47.7325C56.718 47.4798 57.5926 46.5857 57.8453 45.4583L58.0203 44.6614C58.0203 44.6614 58.098 44.5448 58.1758 44.5642C58.2341 44.5642 58.2924 44.6419 58.273 44.7197L58.098 45.5166C57.8259 46.7218 56.854 47.6936 55.6489 47.9658L47.8156 49.754C47.8156 49.754 47.6601 49.8318 47.6601 49.9289L45.8913 60.0364C45.8913 60.0364 45.833 60.1336 45.7746 60.1336H45.7552Z" fill="#081017"/>
<path d="M53.4339 36.692L52.7341 39.5882C52.7341 39.5882 52.6564 39.7437 52.5786 39.7631L47.4666 41.843C47.1361 41.979 46.7862 42.0373 46.4169 41.9985L44.2982 41.843C44.2982 41.843 44.2205 41.843 44.2011 41.843L42.5294 42.4066C42.5294 42.4066 42.4711 42.4261 42.4517 42.4455L41.9463 42.8537C41.9463 42.8537 41.7714 43.223 41.9852 43.3008" fill="white"/>
<path d="M41.9849 43.4951H41.9461C41.8294 43.4368 41.7517 43.3396 41.7322 43.2229C41.7128 43.0869 41.7711 42.9119 41.8683 42.8342L42.3737 42.4066C42.3737 42.4066 42.4514 42.3483 42.4903 42.3288L44.1619 41.7651C44.1619 41.7651 44.2591 41.7457 44.3174 41.7457L46.4361 41.9012C46.7666 41.9206 47.1164 41.8818 47.4274 41.7457L52.5395 39.6659C52.5395 39.6659 52.6172 39.6076 52.6172 39.5687L53.317 36.6725C53.317 36.6725 53.3947 36.5753 53.4725 36.5753C53.5308 36.5753 53.5697 36.6531 53.5697 36.7308L52.8699 39.627C52.831 39.7436 52.7533 39.8408 52.6367 39.8991L47.5246 41.9789C47.1747 42.115 46.8054 42.1733 46.4361 42.1539L44.3174 41.9984C44.3174 41.9984 44.2786 41.9984 44.2591 41.9984L42.5875 42.5621C42.5875 42.5621 42.5486 42.5621 42.5486 42.5815L42.0432 43.0091C42.0432 43.0091 41.9849 43.1063 42.0044 43.1646C42.0044 43.2035 42.0238 43.2229 42.0627 43.2424C42.121 43.2618 42.1599 43.3396 42.121 43.3979C42.1016 43.4368 42.0627 43.4756 42.0044 43.4756L41.9849 43.4951Z" fill="#081017"/>
<path d="M44.2609 42.7565L42.6088 43.0869L41.9284 43.5145C41.9284 43.5145 41.6952 43.67 41.7535 43.9033C41.8118 44.1365 42.22 43.9227 42.22 43.9227" fill="white"/>
<path d="M41.9091 44.117C41.9091 44.117 41.8119 44.117 41.7536 44.0781C41.6953 44.0393 41.637 43.981 41.6175 43.9032C41.5592 43.6116 41.8314 43.3978 41.8508 43.3978L42.5505 42.9702C42.5505 42.9702 42.57 42.9702 42.5894 42.9702L44.2416 42.6398C44.2416 42.6398 44.3777 42.6592 44.3777 42.737C44.3777 42.7953 44.3388 42.873 44.2805 42.873L42.6477 43.2035L41.9869 43.6116C41.9869 43.6116 41.8314 43.7283 41.8702 43.8643C41.8897 43.8838 42.0452 43.8643 42.1618 43.806C42.2201 43.7866 42.2979 43.806 42.3173 43.8643C42.3367 43.9226 42.3173 44.0004 42.259 44.0198C42.2201 44.0198 42.0646 44.117 41.9091 44.117Z" fill="#081017"/>
<path d="M44.5295 43.2423L42.8579 43.5339L41.8471 44.117C41.8471 44.117 41.6916 44.4474 42.022 44.5057C42.3525 44.5641 42.8579 44.2531 42.8579 44.2531C42.8579 44.2531 44.0047 43.9226 44.2574 43.9032" fill="white"/>
<path d="M42.1011 44.6613C42.1011 44.6613 42.0234 44.6613 41.9845 44.6613C41.829 44.6224 41.7513 44.5446 41.7318 44.4669C41.6541 44.292 41.7318 44.117 41.7318 44.0781C41.7318 44.0587 41.7513 44.0393 41.7901 44.0198L42.8009 43.4367C42.8009 43.4367 42.8203 43.4367 42.8398 43.4367L44.5114 43.1451C44.5114 43.1451 44.6474 43.184 44.6474 43.2423C44.6474 43.3006 44.6086 43.3784 44.5503 43.3784L42.8981 43.67L41.9456 44.2336C41.9456 44.2336 41.9262 44.3308 41.9456 44.3697C41.9456 44.3697 41.9651 44.4086 42.0428 44.428C42.2566 44.4669 42.6648 44.2725 42.8009 44.1948C42.8009 44.1948 42.8203 44.1948 42.8398 44.1948C42.8786 44.1948 43.9866 43.8643 44.2587 43.8255C44.317 43.8255 44.3948 43.8643 44.3948 43.9421C44.3948 44.0004 44.3559 44.0781 44.2781 44.0781C44.0838 44.0976 43.2479 44.3308 42.9175 44.428C42.8203 44.4863 42.4316 44.7001 42.1206 44.7001L42.1011 44.6613Z" fill="#081017"/>
<path d="M47.0397 44.4669L44.8238 44.7196C44.8238 44.7196 42.8218 44.9917 42.6274 44.7779C42.433 44.5641 42.6274 44.3892 42.6274 44.3892" fill="white"/>
<path d="M43.1506 44.9918C42.8396 44.9918 42.6064 44.953 42.5286 44.8752C42.412 44.778 42.3926 44.6614 42.3926 44.5837C42.3926 44.4282 42.5092 44.3115 42.5286 44.2921C42.587 44.2532 42.6647 44.2532 42.7036 44.2921C42.7425 44.3504 42.7425 44.4282 42.7036 44.467C42.7036 44.467 42.6453 44.5253 42.6453 44.5642C42.6453 44.6031 42.6453 44.6225 42.7036 44.6614C42.8396 44.7586 43.9087 44.6614 44.8028 44.5642L47.0187 44.3115C47.0187 44.3115 47.1548 44.3504 47.1548 44.4282C47.1548 44.4865 47.1159 44.5642 47.0381 44.5642L44.8223 44.8169C44.3363 44.8752 43.656 44.953 43.1506 44.953V44.9918Z" fill="#081017"/>
<path d="M52.5766 43.2035L49.2334 43.7866C48.9029 43.8449 48.5725 43.9227 48.2421 44.0199L47.4062 44.2726" fill="white"/>
<path d="M47.4264 44.3891C47.4264 44.3891 47.3292 44.3502 47.3097 44.3114C47.2903 44.253 47.3097 44.1753 47.3875 44.1559L48.2233 43.9032C48.5537 43.806 48.8842 43.7088 49.2341 43.6699L52.5773 43.0868C52.5773 43.0868 52.7134 43.1257 52.7134 43.184C52.7134 43.2423 52.6745 43.32 52.6162 43.32L49.2729 43.9032C48.9425 43.9615 48.6121 44.0392 48.3011 44.1364L47.4652 44.3891C47.4652 44.3891 47.4458 44.3891 47.4264 44.3891Z" fill="#081017"/>
<path d="M55.4935 40.9876C55.4935 40.9876 55.474 40.9876 55.4546 40.9876C55.3963 40.9876 55.3574 40.9099 55.3574 40.8321L56.2904 37.1779C56.2904 37.1779 56.3682 37.0807 56.4459 37.0807C56.5042 37.0807 56.5431 37.1584 56.5431 37.2362L55.6101 40.8904C55.6101 40.8904 55.5518 40.9876 55.4935 40.9876Z" fill="#081017"/>
<path d="M58.1973 40.6183V33.8735C58.1973 33.8735 58.5278 30.3941 54.9707 28.3143" fill="white"/>
<path d="M58.1956 40.7349C58.1956 40.7349 58.079 40.6766 58.079 40.6183V33.8735C58.079 33.8735 58.3705 30.433 54.9107 28.4115C54.8524 28.3727 54.8329 28.2949 54.8718 28.2366C54.9107 28.1783 54.9884 28.1588 55.0467 28.1977C56.9127 29.2862 57.7097 30.7829 58.0595 31.8325C58.4288 32.9793 58.3511 33.854 58.3511 33.8735V40.6183C58.3511 40.6183 58.2928 40.7349 58.2345 40.7349H58.1956Z" fill="#081017"/>
<path d="M50.7311 29.2278L50.2646 30.1219C50.0119 30.6273 50.3229 31.2298 50.8866 31.2882C52.3833 31.4631 53.8411 30.705 54.5409 29.3833L55.0657 28.392" fill="white"/>
<path d="M51.3153 31.4438C51.1598 31.4438 51.0237 31.4438 50.8682 31.4243C50.5572 31.3855 50.3045 31.2105 50.1685 30.9384C50.0324 30.6663 50.0324 30.3553 50.1685 30.0831L50.635 29.189C50.635 29.189 50.7321 29.1113 50.8099 29.1307C50.8682 29.1696 50.8876 29.2279 50.8682 29.3056L50.4017 30.1998C50.3045 30.3941 50.3045 30.6274 50.4017 30.8218C50.4989 31.0161 50.6933 31.1522 50.9265 31.1716C52.3649 31.3466 53.7838 30.608 54.4641 29.3251L54.989 28.3338C54.989 28.3338 55.0861 28.256 55.1639 28.2755C55.2222 28.3143 55.2416 28.3726 55.2222 28.4504L54.6974 29.4417C54.0365 30.6663 52.7342 31.4438 51.3736 31.4438H51.3153Z" fill="#081017"/>
<path d="M59.4217 40.2101L58.6248 40.696L56.9726 40.5794C56.4867 40.5405 55.9813 40.6571 55.5537 40.8904L52.5214 42.562C52.3659 42.6398 52.3076 42.8341 52.3659 42.9896C52.4437 43.1646 52.6381 43.2423 52.813 43.1646L55.6897 41.94" fill="white"/>
<path d="M52.6962 43.3201C52.5213 43.3201 52.3463 43.2229 52.2686 43.048C52.1714 42.8342 52.2686 42.5815 52.463 42.4648L55.4952 40.7932C55.9423 40.5405 56.4671 40.4239 56.9919 40.4628L58.6052 40.5794L59.3633 40.1129C59.3633 40.1129 59.4993 40.1129 59.5382 40.1518C59.5771 40.1907 59.5382 40.2879 59.4993 40.3267L58.7024 40.8127C58.7024 40.8127 58.6635 40.8127 58.6247 40.8127L56.9725 40.696C56.506 40.6572 56.0395 40.7738 55.6118 40.9876L52.5796 42.6592C52.4824 42.7175 52.4435 42.8342 52.4824 42.9313C52.5213 43.048 52.6573 43.0869 52.774 43.048L55.6507 41.8234C55.6507 41.8234 55.7868 41.8234 55.8062 41.8817C55.8257 41.94 55.8062 42.0178 55.7479 42.0372L52.8712 43.2618C52.8712 43.2618 52.7545 43.3007 52.6962 43.3007V43.3201Z" fill="#081017"/>
<path d="M56.0982 42.8925L52.3079 44.1559C52.1524 44.2142 51.9774 44.1559 51.8997 44.0004C51.8025 43.8255 51.8608 43.5922 52.0552 43.5145L52.8327 43.1646" fill="white"/>
<path d="M52.2089 44.3115C52.0534 44.3115 51.8979 44.2337 51.8007 44.0782C51.723 43.9616 51.723 43.8255 51.7619 43.6895C51.8007 43.5534 51.8979 43.4562 52.0145 43.3979L52.7921 43.048C52.7921 43.048 52.9281 43.048 52.9476 43.1063C52.967 43.1647 52.9475 43.2424 52.8892 43.2618L52.1117 43.6117C52.1117 43.6117 52.0146 43.6895 51.9951 43.7478C51.9951 43.8061 51.9951 43.8644 52.0145 43.9227C52.0729 44.0199 52.1701 44.0588 52.2672 44.0199L56.0575 42.7565C56.0575 42.7565 56.1936 42.7565 56.213 42.8342C56.2325 42.912 56.213 42.9703 56.1353 42.9897L52.345 44.2532C52.345 44.2532 52.2478 44.2726 52.1895 44.2726L52.2089 44.3115Z" fill="#081017"/>
<path d="M52.812 44.0782C52.812 44.0782 52.5787 44.7973 53.1813 44.739C53.7839 44.6807 56.3691 43.806 56.3691 43.806" fill="white"/>
<path d="M53.1226 44.8557C52.9282 44.8557 52.8116 44.7779 52.7533 44.7002C52.5589 44.4669 52.6755 44.0782 52.695 44.0393C52.7144 43.981 52.7922 43.9421 52.8505 43.9615C52.9088 43.981 52.9477 44.0587 52.9282 44.117C52.9088 44.1948 52.8505 44.4475 52.9282 44.5447C52.9671 44.603 53.0449 44.603 53.1615 44.603C53.7446 44.5447 56.3104 43.6894 56.3298 43.67C56.3881 43.6505 56.4659 43.67 56.4853 43.7477C56.5047 43.806 56.4853 43.8838 56.4075 43.9032C56.3104 43.9421 53.7835 44.7779 53.1809 44.8362C53.142 44.8362 53.1226 44.8362 53.1032 44.8362L53.1226 44.8557Z" fill="#081017"/>
<path d="M54.1337 44.5834C54.1337 44.5834 53.8227 44.7972 54.017 45.1665C54.1337 45.3804 54.503 45.3415 55.0083 45.2443C55.5137 45.1471 57.2825 44.7389 57.2825 44.7389L58.0795 44.6223C58.8375 44.5057 59.5567 44.2141 60.1593 43.7476L61.0728 43.0479" fill="white"/>
<path d="M54.3858 45.4582C54.172 45.4582 53.9971 45.3999 53.8999 45.2444C53.7055 44.8556 53.8999 44.5835 54.0554 44.5058C54.1137 44.4669 54.1914 44.4863 54.2303 44.5446C54.2692 44.603 54.2498 44.6807 54.1914 44.7196C54.1526 44.739 53.9776 44.8751 54.1137 45.1472C54.1914 45.2833 54.5802 45.225 54.9689 45.1472C55.4549 45.05 57.2237 44.6418 57.2431 44.6418L58.0595 44.5252C58.7981 44.428 59.4979 44.117 60.081 43.67L60.9946 42.9702C60.9946 42.9702 61.1306 42.9313 61.1695 42.9897C61.2084 43.048 61.2084 43.1257 61.1501 43.1646L60.2365 43.8643C59.6145 44.3503 58.8759 44.6613 58.0984 44.7585L57.3014 44.8751C57.3014 44.8751 55.5326 45.2833 55.0273 45.3805C54.794 45.4193 54.5802 45.4582 54.3858 45.4582Z" fill="#081017"/>
<path d="M57.4975 19.1787C57.4975 19.1787 57.3809 19.1398 57.3809 19.0815C57.3809 19.0232 57.4197 18.9454 57.478 18.9454L60.5297 18.3623C60.5297 18.3623 60.6658 18.4012 60.6658 18.4595C60.6658 18.5178 60.6269 18.5956 60.5686 18.5956L57.5169 19.1787C57.5169 19.1787 57.5169 19.1787 57.4975 19.1787Z" fill="#081017"/>
<path d="M66.8858 18.2457L69.6459 19.8785C71.3369 20.8698 72.3283 22.7358 72.2311 24.699L71.5896 35.8561C71.4924 37.5666 70.4817 39.0827 68.9461 39.8214L63.0955 42.6787C63.0955 42.6787 63.9507 40.9682 61.4238 39.005C63.9507 37.2945 66.8469 34.9814 66.8469 34.9814L67.3134 25.01" fill="white"/>
<path d="M63.0753 42.7758C63.0753 42.7758 63.017 42.7758 62.9975 42.737C62.9586 42.6981 62.9586 42.6398 62.9781 42.6009C63.017 42.5426 63.7556 40.9487 61.3453 39.0827C61.3065 39.0633 61.287 39.0244 61.3065 38.9855C61.3065 38.9466 61.3259 38.9078 61.3648 38.8883C63.6973 37.3139 66.3796 35.1952 66.749 34.9036L67.2155 24.9905C67.2155 24.9905 67.2932 24.8739 67.3515 24.8739C67.4293 24.8739 67.4681 24.9322 67.4681 25.01L67.0016 34.9814C67.0016 34.9814 67.0016 35.0591 66.9628 35.0786C66.9433 35.098 64.1249 37.3333 61.6563 39.005C63.5029 40.5211 63.464 41.8623 63.328 42.4454L68.926 39.7241C70.4226 39.005 71.3945 37.5277 71.4917 35.8561L72.1331 24.699C72.2498 22.7746 71.2779 20.967 69.6257 19.9951L66.8656 18.3623C66.8656 18.3623 66.7878 18.2457 66.8267 18.1874C66.8656 18.1291 66.9433 18.1096 67.0016 18.1485L69.7618 19.7813C71.5111 20.8115 72.5219 22.6969 72.4053 24.7184L71.7638 35.8755C71.6666 37.6249 70.617 39.1799 69.062 39.938L63.2113 42.7953C63.2113 42.7953 63.1725 42.7953 63.153 42.7953L63.0753 42.7758Z" fill="#081017"/>
<path d="M67.3919 18.6345C67.3919 18.6345 63.621 23.144 62.7269 23.6494L61.9105 24.1159C61.444 24.388 60.8803 24.4658 60.336 24.4269L58.334 24.2908" fill="white"/>
<path d="M60.5881 24.5629C60.5881 24.5629 60.4131 24.5629 60.316 24.5629L58.3139 24.4268C58.3139 24.4268 58.1973 24.3685 58.1973 24.2907C58.1973 24.213 58.2556 24.1741 58.3333 24.1741L60.3354 24.3102C60.8991 24.349 61.4239 24.2519 61.8321 24.0186L62.6485 23.5521C63.5231 23.0662 67.2551 18.5955 67.294 18.5567C67.3329 18.4984 67.4106 18.4984 67.469 18.5567C67.5273 18.5955 67.5273 18.6733 67.469 18.7316C67.3135 18.926 63.6786 23.2606 62.7651 23.7854L61.9487 24.2519C61.5405 24.4851 61.074 24.6017 60.5686 24.6017L60.5881 24.5629Z" fill="#081017"/>
<path d="M65.0968 44.5446C64.8441 44.5446 64.5914 44.5446 64.3387 44.5251L59.7709 44.2141C59.7709 44.2141 59.6543 44.1558 59.6543 44.0781C59.6543 44.0198 59.7126 43.9615 59.7904 43.9615L64.3582 44.2725C65.4856 44.3502 66.6324 44.253 67.7403 43.9615L69.7812 43.4366L68.8094 39.8213C68.8094 39.8213 68.8288 39.6852 68.8871 39.6658C68.9454 39.6658 69.0232 39.6852 69.0426 39.7435L70.0339 43.495C70.0339 43.495 70.0339 43.5533 70.0339 43.5921C70.0339 43.6116 69.995 43.6505 69.9562 43.6505L67.7986 44.1947C66.9045 44.4085 66.0104 44.5251 65.0968 44.5251V44.5446Z" fill="#081017"/>
<path d="M67.0419 46.1191L66.0311 45.5165C65.8756 45.4193 65.7007 45.3416 65.5257 45.2833L62.7656 44.3114" fill="white"/>
<path d="M67.04 46.2357C67.04 46.2357 67.0011 46.2357 66.9817 46.2357L65.9709 45.6331C65.8154 45.5359 65.6599 45.4582 65.485 45.3999L62.7249 44.428C62.7249 44.428 62.6277 44.3308 62.6471 44.2725C62.6665 44.2142 62.7443 44.1753 62.8026 44.1948L65.5627 45.1666C65.7377 45.2249 65.932 45.3221 66.0875 45.4193L67.0983 46.0219C67.0983 46.0219 67.176 46.1385 67.1372 46.1968C67.1177 46.2357 67.0788 46.2551 67.04 46.2551V46.2357Z" fill="#081017"/>
<path d="M61.4812 39.0439L59.207 40.0741L59.2459 40.2685C59.2459 40.2685 59.7318 40.2102 60.0623 40.5212C60.3927 40.8322 61.073 41.9401 61.073 43.2036C61.2091 43.2813 61.2674 43.2036 61.2674 43.2036L63.1723 42.3872" fill="white"/>
<path d="M61.1696 43.3784C61.1696 43.3784 61.0529 43.3784 60.9946 43.3201C60.9558 43.3007 60.9363 43.2618 60.9363 43.2035C60.9363 42.0178 60.3143 40.9293 59.9644 40.6183C59.6729 40.3462 59.2453 40.3851 59.2453 40.3851C59.1869 40.3851 59.1286 40.3462 59.1092 40.2879L59.0703 40.0935C59.0703 40.0935 59.0897 39.9769 59.1481 39.9574L61.4222 38.9272C61.4222 38.9272 61.5583 38.9272 61.5778 38.9856C61.5972 39.0439 61.5777 39.1216 61.5194 39.1411L59.3424 40.1324C59.5174 40.1324 59.8672 40.1712 60.1394 40.4239C60.4504 40.7155 61.1501 41.804 61.189 43.1063C61.189 43.1063 61.189 43.1063 61.2084 43.1063L63.1133 42.2899C63.1133 42.2899 63.2494 42.2899 63.2688 42.3482C63.2883 42.4066 63.2688 42.4843 63.2105 42.5037L61.3056 43.3201C61.3056 43.3201 61.2279 43.359 61.1696 43.359V43.3784Z" fill="#081017"/>
<path d="M69.684 43.6311L70.0144 46.3912C70.0727 46.8772 70.0533 47.3631 69.995 47.849C69.6645 49.9483 67.9735 51.5422 65.8936 51.9504L53.0649 54.4772C51.8403 54.7105 50.8879 55.6435 50.5963 56.868L49.916 59.8031" fill="white"/>
<path d="M49.9349 59.9391C49.9349 59.9391 49.9349 59.9391 49.9155 59.9391C49.8571 59.9391 49.7988 59.8613 49.8183 59.7836L50.4986 56.8485C50.7901 55.5851 51.7815 54.6132 53.0449 54.3605L65.8736 51.8337C67.9535 51.4255 69.5668 49.8122 69.8778 47.8295C69.9555 47.363 69.9555 46.8771 69.8972 46.4106L69.5668 43.6505C69.5668 43.6505 69.6056 43.5144 69.6834 43.5144C69.7417 43.5144 69.8195 43.5533 69.8195 43.631L70.1499 46.3912C70.2082 46.8965 70.2082 47.3825 70.1305 47.8684C69.8 49.9677 68.109 51.6587 65.932 52.0863L53.1032 54.6132C51.937 54.8465 51.004 55.7406 50.7318 56.9068L50.0515 59.8419C50.0515 59.8419 49.9932 59.9391 49.9349 59.9391Z" fill="#081017"/>
<path d="M57.225 9.80982C59.5575 8.79907 61.404 8.31313 61.1125 9.14894C60.8209 9.98475 63.0173 10.1014 64.9805 8.46863C65.2332 10.6651 66.7688 11.3259 66.7688 11.3259H67.0409C67.6629 11.3259 68.1488 11.8313 68.1488 12.4339C68.1488 13.0559 67.6434 13.5418 67.0409 13.5418H66.8854C66.8854 16.5935 64.514 18.4789 61.4818 18.5178C58.7022 18.5567 56.4863 16.1853 56.4863 13.4058V10.2763" fill="white"/>
<path d="M61.4231 18.6344C60.1402 18.6344 58.9156 18.129 57.9826 17.196C56.9719 16.2047 56.4082 14.8247 56.4082 13.4057V10.2763C56.4082 10.2763 56.4471 10.1597 56.5248 10.1597C56.6026 10.1597 56.6415 10.1985 56.6415 10.2763V13.4057C56.6415 14.7664 57.1857 16.0881 58.1576 17.0405C59.0711 17.9347 60.2763 18.4206 61.5203 18.4206C64.6886 18.3817 66.8073 16.4185 66.8073 13.5612C66.8073 13.5029 66.8461 13.4446 66.9239 13.4446H67.0794C67.6236 13.4446 68.0901 12.9975 68.0901 12.4533C68.0901 11.909 67.6431 11.4425 67.0794 11.4425H66.8073C66.8073 11.4425 66.7878 11.4425 66.7684 11.4425C66.7101 11.4231 65.2523 10.7817 64.9413 8.68242C63.4251 9.8681 61.773 10.0819 61.2287 9.69317C61.0343 9.5571 60.976 9.34329 61.0538 9.12948C61.1121 8.97398 61.0538 8.9351 61.0538 8.91567C60.84 8.72129 59.7515 8.87679 57.3218 9.92642C57.2635 9.94585 57.2051 9.92642 57.1857 9.8681C57.1663 9.80979 57.1857 9.75148 57.244 9.73204C58.799 9.05173 60.7622 8.35198 61.2093 8.76017C61.287 8.83792 61.3648 8.97398 61.2676 9.20723C61.2287 9.34329 61.2676 9.44048 61.3648 9.51823C61.8701 9.8681 63.5223 9.59598 64.9607 8.39085C64.9996 8.37142 65.0385 8.35198 65.0773 8.39085C65.1162 8.39085 65.1356 8.44917 65.1356 8.48804C65.3495 10.4707 66.6712 11.1704 66.8461 11.2482H67.0794C67.7597 11.2482 68.304 11.7924 68.304 12.4727C68.304 13.153 67.7597 13.6973 67.0794 13.6973H67.0405C66.9822 16.574 64.7275 18.615 61.5397 18.6733C61.5203 18.6733 61.5008 18.6733 61.462 18.6733L61.4231 18.6344Z" fill="#081017"/>
<path d="M70.306 20.1118C70.306 20.1118 70.1894 20.0729 70.1894 19.9951V11.9869C70.1894 7.5357 66.574 3.92033 62.1229 3.92033H61.8313C58.0799 3.92033 55.0087 6.97201 55.0087 10.7429V12.2979C55.0087 13.6974 55.7085 14.9997 56.8553 15.7772C56.9136 15.8161 56.9136 15.8744 56.8942 15.9327C56.8553 15.991 56.797 15.991 56.7387 15.9716C55.5141 15.1552 54.7949 13.7946 54.7949 12.3173V10.7623C54.7949 6.87483 57.9438 3.72595 61.8313 3.72595H62.1229C66.6907 3.72595 70.4032 7.43851 70.4032 12.0063V20.0146C70.4032 20.0146 70.3644 20.1312 70.2866 20.1312L70.306 20.1118Z" fill="#F61BA3"/>
<path d="M58.3691 15.2913L61.4014 15.1747C61.4014 15.1747 61.3431 16.788 59.5548 17.1767" fill="white"/>
<path d="M59.5368 17.2739C59.5368 17.2739 59.4396 17.235 59.4396 17.1961C59.4396 17.1378 59.459 17.0795 59.5173 17.06C60.9557 16.749 61.2278 15.6411 61.2667 15.2718L58.3705 15.3884C58.3705 15.3884 58.2539 15.3495 58.2539 15.2912C58.2539 15.2329 58.2928 15.1746 58.3511 15.1746L61.3833 15.058C61.3833 15.058 61.4417 15.058 61.4611 15.0969C61.4805 15.1357 61.5 15.1552 61.5 15.1746C61.5 15.1746 61.4222 16.8657 59.5757 17.2739C59.5757 17.2739 59.5757 17.2739 59.5562 17.2739H59.5368Z" fill="#081017"/>
<path d="M57.943 12.1812C57.943 12.4144 57.7486 12.6283 57.4959 12.6283C57.2432 12.6283 57.0488 12.4339 57.0488 12.1812C57.0488 11.9285 57.2432 11.7341 57.4959 11.7341C57.7486 11.7341 57.943 11.9285 57.943 12.1812Z" fill="black"/>
<path d="M61.1521 12.8421C61.399 12.8421 61.5992 12.642 61.5992 12.3951C61.5992 12.1482 61.399 11.948 61.1521 11.948C60.9052 11.948 60.7051 12.1482 60.7051 12.3951C60.7051 12.642 60.9052 12.8421 61.1521 12.8421Z" fill="black"/>
<path d="M58.7802 13.3671C58.7802 13.3671 58.2943 14.4556 59.48 14.164L58.7802 13.3671Z" fill="white"/>
<path d="M59.11 14.3194C58.9156 14.3194 58.7601 14.2611 58.6823 14.1444C58.4491 13.8723 58.6629 13.3669 58.6823 13.3281C58.7018 13.2697 58.7795 13.2503 58.8184 13.2697C58.8767 13.2892 58.8962 13.3669 58.8767 13.4058C58.8184 13.5224 58.7212 13.8529 58.8378 14.0084C58.935 14.1056 59.1294 14.125 59.4404 14.0472C59.4987 14.0472 59.557 14.0667 59.5765 14.125C59.5765 14.1833 59.557 14.2416 59.4987 14.2611C59.3627 14.2999 59.2266 14.3194 59.11 14.3194Z" fill="#081017"/>
<path d="M61.1113 10.8983C61.1113 10.8983 61.85 10.8594 62.0055 11.3454L61.1113 10.8983Z" fill="white"/>
<path d="M62.0068 11.462C62.0068 11.462 61.9097 11.4231 61.9097 11.3843C61.7736 10.9761 61.1322 11.0149 61.1127 10.9955C61.0544 10.9955 60.9961 10.9566 60.9961 10.8983C60.9961 10.84 61.035 10.7817 61.0933 10.7817C61.1322 10.7817 61.9291 10.7428 62.104 11.3065C62.104 11.3648 62.104 11.4231 62.0263 11.4426C62.0263 11.4426 62.0068 11.4426 61.9874 11.4426L62.0068 11.462Z" fill="#081017"/>
<path d="M56.584 11.326C56.584 11.326 57.1282 10.8011 57.5559 11.0927L56.584 11.326Z" fill="white"/>
<path d="M56.5835 11.4232C56.5835 11.4232 56.5252 11.4232 56.5057 11.3843C56.4668 11.3455 56.4668 11.2677 56.5057 11.2288C56.5252 11.2094 57.1083 10.6651 57.6137 10.9761C57.672 11.015 57.672 11.0733 57.6525 11.1316C57.6137 11.19 57.5553 11.19 57.497 11.1705C57.1277 10.9373 56.6612 11.3843 56.6418 11.4038C56.6223 11.4232 56.6029 11.4426 56.564 11.4426L56.5835 11.4232Z" fill="#081017"/>
<g style="mix-blend-mode:multiply">
<path d="M44.2207 58.1898L45.8923 50.6286C46.0478 49.9677 46.5726 49.4429 47.253 49.3263L53.784 48.1794C53.784 48.1794 47.6223 49.5401 47.3501 50.1232C47.078 50.7063 46.2033 58.3647 46.2033 58.3647L44.2401 58.1898H44.2207Z" fill="#E6E6E6"/>
</g>
<g style="mix-blend-mode:multiply">
<path d="M56.1163 44.9916L55.5526 46.1579C55.2027 46.8771 54.6196 47.4602 53.881 47.7906L52.2871 48.5098L56.0385 47.7129C56.0385 47.7129 57.6907 47.227 58.0989 44.875L58.2933 44.5251L56.1357 44.9722L56.1163 44.9916Z" fill="#E6E6E6"/>
</g>
<g style="mix-blend-mode:multiply">
<path d="M71.103 21.2196L69.5675 37.4305L63.7168 42.387L68.9455 39.899C70.5005 39.1604 71.5307 37.6443 71.6473 35.9144L72.4248 24.1158C72.5025 22.9884 72.0166 21.8999 71.1225 21.2196H71.103Z" fill="#E6E6E6"/>
</g>
<g style="mix-blend-mode:multiply">
<path d="M67.2344 40.6183L67.8369 44.0782L68.1479 44.0005L68.5173 43.9033L69.9362 43.5534L69.1198 39.7437L67.2344 40.6183Z" fill="#E6E6E6"/>
</g>
<g style="mix-blend-mode:multiply">
<path d="M68.129 44.117L68.1873 45.5359C68.265 47.5769 67.1571 49.5012 65.3494 50.4536L63.1919 51.581L53.1621 54.5161L65.952 52.0864C68.7121 51.5616 70.5392 48.9569 70.1116 46.1968L69.7229 43.7477L68.1096 44.1364L68.129 44.117Z" fill="#E6E6E6"/>
</g>
<g style="mix-blend-mode:multiply">
<path d="M56.9715 40.56L56.8354 33.718C56.8354 32.9794 56.6799 32.2602 56.4078 31.5799L55.5137 29.2863L56.1551 29.1113C56.1551 29.1113 58.2155 31.541 58.2155 33.3487C58.2155 35.1564 58.1766 40.424 58.1766 40.424L56.952 40.56H56.9715Z" fill="#E6E6E6"/>
</g>
<g style="mix-blend-mode:multiply">
<path d="M38.4874 29.2279L37.8848 29.0918L35.0664 38.1497C35.0664 38.1497 35.9994 38.4801 37.3212 35.856C38.8373 32.4156 39.9063 29.5 39.9063 29.5C39.9063 29.5 39.1094 29.014 38.4874 29.2084V29.2279Z" fill="#E6E6E6"/>
</g>
<g style="mix-blend-mode:multiply">
<path d="M34.5583 29.1502L34.8305 29.8888L34.2085 31.4827L33.7808 32.4546L32.8867 24.9128L34.5583 29.1502Z" fill="#E6E6E6"/>
</g>
<path d="M29.332 39.5492L31.3924 40.7932L32.2282 42.3288C32.3254 42.5231 32.2477 42.7564 32.0533 42.8341C31.8978 42.9119 31.7034 42.8341 31.6062 42.7175L31.3535 42.3676" fill="white"/>
<path d="M31.9179 42.9896C31.7624 42.9896 31.6069 42.9119 31.5097 42.7758L31.257 42.426C31.257 42.426 31.2376 42.2899 31.2764 42.251C31.3347 42.2121 31.4125 42.2316 31.4514 42.2705L31.7041 42.6203C31.7041 42.6203 31.8984 42.7564 31.9956 42.6981C32.0539 42.6786 32.1122 42.6203 32.1317 42.562C32.1511 42.5037 32.1317 42.426 32.1317 42.3676L31.3153 40.871L29.2744 39.6464C29.2744 39.6464 29.1966 39.5298 29.2355 39.4715C29.2744 39.4131 29.3521 39.3937 29.4104 39.4326L31.4708 40.6766C31.4708 40.6766 31.5097 40.696 31.5097 40.7155L32.3455 42.251C32.4038 42.3676 32.4232 42.5231 32.3844 42.6398C32.3455 42.7758 32.2483 42.873 32.1122 42.9313C32.0539 42.9508 31.9762 42.9702 31.9179 42.9702V42.9896Z" fill="#081017"/>
<path d="M28.6133 40.3656L30.1488 41.2597L31.354 42.3482C31.354 42.3482 31.4512 42.5037 31.4512 42.6009C31.4123 42.8536 31.2179 43.0285 30.9652 43.0285H30.5765" fill="white"/>
<path d="M30.5752 43.1646C30.5752 43.1646 30.4585 43.1063 30.4585 43.048C30.4585 42.9702 30.5169 42.9313 30.5752 42.9313H30.9639C31.1389 42.9313 31.3138 42.7758 31.3332 42.6009C31.3332 42.5426 31.3332 42.4843 31.2749 42.4454L30.0698 41.3569L28.5537 40.4822C28.5537 40.4822 28.4759 40.3656 28.5148 40.3073C28.5537 40.249 28.6314 40.2295 28.6897 40.2684L30.2253 41.1625L31.4499 42.2705C31.547 42.3676 31.6054 42.5037 31.5859 42.6398C31.547 42.9508 31.2944 43.184 30.9834 43.184H30.5946L30.5752 43.1646Z" fill="#081017"/>
<path d="M23.1309 42.115C23.1309 42.115 24.2582 42.1733 24.6664 42.3871C25.0746 42.6009 25.8521 42.7175 25.8521 42.7175H28.4956L30.07 43.3978C30.2255 43.4756 30.4199 43.4173 30.5171 43.2812C30.6337 43.1257 30.6143 42.8925 30.4588 42.7758L29.312 41.8234C29.312 41.8234 28.0874 41.3763 28.0485 41.3763" fill="white"/>
<path d="M30.2075 43.5728C30.2075 43.5728 30.0714 43.5728 30.0131 43.5339L28.4581 42.8342H25.8535C25.8535 42.8342 25.0371 42.737 24.6095 42.5232C24.2207 42.3288 23.1323 42.251 23.1323 42.251C23.0739 42.251 23.0156 42.1927 23.0156 42.115C23.0156 42.0372 23.0739 41.9984 23.1517 41.9984C23.1906 41.9984 24.2985 42.0761 24.7261 42.2899C25.1149 42.4843 25.8729 42.6009 25.8729 42.6009L28.497 42.562C28.497 42.562 28.5359 42.562 28.5553 42.562L30.1297 43.2812C30.2269 43.3201 30.363 43.2812 30.4408 43.2035C30.5185 43.1063 30.4991 42.9508 30.4019 42.873L29.2745 41.94C28.8274 41.7846 28.1277 41.5319 28.0499 41.5124C27.9722 41.5124 27.9333 41.4541 27.9333 41.3958C27.9333 41.3375 27.9916 41.2792 28.0694 41.2792C28.0888 41.2792 28.1277 41.2792 29.3717 41.7262C29.3717 41.7262 29.3911 41.7262 29.4106 41.7457L30.5574 42.6981C30.7517 42.873 30.7906 43.1646 30.6351 43.3784C30.5379 43.5145 30.3824 43.5728 30.2269 43.5728H30.2075Z" fill="#081017"/>
<g style="mix-blend-mode:multiply">
<path d="M29.3496 38.519L30.5936 39.0827V25.8263L29.9327 28.3726C29.544 29.8499 29.3496 31.3854 29.3496 32.921V38.519Z" fill="#E6E6E6"/>
</g>
<g style="mix-blend-mode:multiply">
<path d="M21.439 37.9165L21.264 31.2494L21.8666 31.0356C21.8666 31.0356 19.087 22.658 18.9121 20.2672C22.2942 29.1113 23.441 31.5215 23.1106 36.653C23.0717 38.5385 22.819 38.5773 22.819 38.5773L22.3525 38.4024V38.1886L21.4584 37.9359L21.439 37.9165Z" fill="#E6E6E6"/>
</g>
<g style="mix-blend-mode:multiply">
<path d="M13.6063 29.7916C13.6646 30.9967 13.684 34.0095 12.5566 35.0203C13.2758 35.2535 14.0339 35.2147 14.0339 35.2147L14.5976 36.8669C14.5976 36.8669 15.103 37.1195 15.2001 36.5364C15.2973 35.9533 15.3945 31.4827 15.3945 31.4827C15.3945 31.4827 14.481 25.768 13.2953 24.2714C12.9843 25.2238 13.373 27.945 13.5285 28.9169C13.5674 29.2085 13.6063 29.4806 13.6257 29.7722L13.6063 29.7916Z" fill="#E6E6E6"/>
</g>
<path d="M24.8217 21.453C24.7634 21.453 24.7051 21.3947 24.7051 21.3169L24.8606 18.8289C24.8606 18.8289 24.9189 18.7123 24.9966 18.7123C25.055 18.7123 25.1133 18.7706 25.1133 18.8483L24.9578 21.3363C24.9578 21.3363 24.8995 21.453 24.8411 21.453H24.8217Z" fill="#081017"/>
<path d="M48.7097 1.00464H35.4922V13.6973H48.7097V1.00464Z" fill="white"/>
<path d="M48.7111 13.7946H35.4936C35.4936 13.7946 35.377 13.7557 35.377 13.678V0.985278C35.377 0.985278 35.4158 0.868652 35.4936 0.868652H48.7111C48.7111 0.868652 48.8277 0.907528 48.8277 0.985278V13.678C48.8277 13.678 48.7888 13.7946 48.7111 13.7946ZM35.6102 13.5808H48.5945V1.1019H35.6102V13.5808Z" fill="black"/>
<path d="M46.9421 4.13413H43.1518C43.1518 4.13413 43.0352 4.09525 43.0352 4.0175C43.0352 3.93975 43.074 3.90088 43.1518 3.90088H46.9421C46.9421 3.90088 47.0587 3.93975 47.0587 4.0175C47.0587 4.09525 47.0198 4.13413 46.9421 4.13413Z" fill="black"/>
<path d="M46.9421 5.74741H43.1518C43.1518 5.74741 43.0352 5.70853 43.0352 5.63078C43.0352 5.55304 43.074 5.51416 43.1518 5.51416H46.9421C46.9421 5.51416 47.0587 5.55304 47.0587 5.63078C47.0587 5.70853 47.0198 5.74741 46.9421 5.74741Z" fill="black"/>
<path d="M46.9421 7.30234H43.1518C43.1518 7.30234 43.0352 7.26347 43.0352 7.18572C43.0352 7.10797 43.074 7.06909 43.1518 7.06909H46.9421C46.9421 7.06909 47.0587 7.10797 47.0587 7.18572C47.0587 7.26347 47.0198 7.30234 46.9421 7.30234Z" fill="black"/>
<path d="M46.9425 9.28501H37.1655C37.1655 9.28501 37.0488 9.24613 37.0488 9.16838C37.0488 9.09063 37.0877 9.05176 37.1655 9.05176H46.9425C46.9425 9.05176 47.0591 9.09063 47.0591 9.16838C47.0591 9.24613 47.0203 9.28501 46.9425 9.28501Z" fill="black"/>
<path d="M46.9425 10.6262H37.1655C37.1655 10.6262 37.0488 10.5873 37.0488 10.5096C37.0488 10.4318 37.0877 10.3929 37.1655 10.3929H46.9425C46.9425 10.3929 47.0591 10.4318 47.0591 10.5096C47.0591 10.5873 47.0203 10.6262 46.9425 10.6262Z" fill="black"/>
<path d="M46.9425 12.2007H37.1655C37.1655 12.2007 37.0488 12.1618 37.0488 12.084C37.0488 12.0063 37.0877 11.9674 37.1655 11.9674H46.9425C46.9425 11.9674 47.0591 12.0063 47.0591 12.084C47.0591 12.1618 47.0203 12.2007 46.9425 12.2007Z" fill="black"/>
<path d="M41.9462 4.38685H40.4883V2.87073H38.7778V4.38685H37.2617V6.00016H38.7778V7.45798H40.4883V6.00016H41.9462V4.38685Z" fill="#E10098"/>
<path d="M48.7111 13.7946H35.4936C35.4936 13.7946 35.377 13.7557 35.377 13.678V0.985278C35.377 0.985278 35.4158 0.868652 35.4936 0.868652H48.7111C48.7111 0.868652 48.8277 0.907528 48.8277 0.985278V13.678C48.8277 13.678 48.7888 13.7946 48.7111 13.7946ZM35.6102 13.5808H48.5945V1.1019H35.6102V13.5808Z" fill="#E4E4E4"/>
<path d="M46.9421 4.13413H43.1518C43.1518 4.13413 43.0352 4.09525 43.0352 4.0175C43.0352 3.93975 43.074 3.90088 43.1518 3.90088H46.9421C46.9421 3.90088 47.0587 3.93975 47.0587 4.0175C47.0587 4.09525 47.0198 4.13413 46.9421 4.13413Z" fill="#E4E4E4"/>
<path d="M46.9421 5.74741H43.1518C43.1518 5.74741 43.0352 5.70853 43.0352 5.63078C43.0352 5.55304 43.074 5.51416 43.1518 5.51416H46.9421C46.9421 5.51416 47.0587 5.55304 47.0587 5.63078C47.0587 5.70853 47.0198 5.74741 46.9421 5.74741Z" fill="#E4E4E4"/>
<path d="M46.9421 7.30234H43.1518C43.1518 7.30234 43.0352 7.26347 43.0352 7.18572C43.0352 7.10797 43.074 7.06909 43.1518 7.06909H46.9421C46.9421 7.06909 47.0587 7.10797 47.0587 7.18572C47.0587 7.26347 47.0198 7.30234 46.9421 7.30234Z" fill="#E4E4E4"/>
<path d="M46.9425 9.28501H37.1655C37.1655 9.28501 37.0488 9.24613 37.0488 9.16838C37.0488 9.09063 37.0877 9.05176 37.1655 9.05176H46.9425C46.9425 9.05176 47.0591 9.09063 47.0591 9.16838C47.0591 9.24613 47.0203 9.28501 46.9425 9.28501Z" fill="#E4E4E4"/>
<path d="M46.9425 10.6262H37.1655C37.1655 10.6262 37.0488 10.5873 37.0488 10.5096C37.0488 10.4318 37.0877 10.3929 37.1655 10.3929H46.9425C46.9425 10.3929 47.0591 10.4318 47.0591 10.5096C47.0591 10.5873 47.0203 10.6262 46.9425 10.6262Z" fill="#E4E4E4"/>
<path d="M46.9425 12.2007H37.1655C37.1655 12.2007 37.0488 12.1618 37.0488 12.084C37.0488 12.0063 37.0877 11.9674 37.1655 11.9674H46.9425C46.9425 11.9674 47.0591 12.0063 47.0591 12.084C47.0591 12.1618 47.0203 12.2007 46.9425 12.2007Z" fill="#E4E4E4"/>
<path d="M40.4897 7.55512H38.7792C38.7792 7.55512 38.6626 7.51624 38.6626 7.43849V6.09731H37.2631C37.2631 6.09731 37.1465 6.05843 37.1465 5.98068V4.36737C37.1465 4.36737 37.1854 4.25074 37.2631 4.25074H38.6626V2.85124C38.6626 2.85124 38.7015 2.73462 38.7792 2.73462H40.4897C40.4897 2.73462 40.6064 2.77349 40.6064 2.85124V4.25074H41.9475C41.9475 4.25074 42.0642 4.28962 42.0642 4.36737V5.98068C42.0642 5.98068 42.0253 6.09731 41.9475 6.09731H40.6064V7.43849C40.6064 7.43849 40.5675 7.55512 40.4897 7.55512ZM38.8959 7.34131H40.3925V6.00012C40.3925 6.00012 40.4314 5.88349 40.5092 5.88349H41.8504V4.48399H40.5092C40.5092 4.48399 40.3925 4.44512 40.3925 4.36737V2.96787H38.8959V4.36737C38.8959 4.36737 38.857 4.48399 38.7792 4.48399H37.3797V5.88349H38.7792C38.7792 5.88349 38.8959 5.92237 38.8959 6.00012V7.34131Z" fill="#E4E4E4"/>
<path d="M58.1772 32.0853C58.1772 32.0853 58.0605 32.0464 58.0605 31.9686V26.0402C58.0605 26.0402 58.0994 25.9236 58.1772 25.9236C58.2549 25.9236 58.2938 25.9625 58.2938 26.0402V31.9686C58.2938 31.9686 58.2549 32.0853 58.1772 32.0853Z" fill="#F61BA3"/>
<path d="M52.4992 17.4877L50.5748 17.9737L49.1365 18.965L47.7953 20.8893L47.4648 23.6688L47.737 25.321L48.7866 26.7011H49.1559L48.8255 25.8847L48.6505 24.0382L48.7672 22.9108C48.7672 22.9108 48.3978 22.3665 49.7973 21.8612C51.1968 21.3558 51.9938 21.1225 52.1493 21.2197C52.3048 21.3169 52.3631 22.1139 52.7713 22.1139C53.1795 22.1139 54.9677 21.589 55.1232 21.3169C55.2787 21.0448 55.4342 21.2975 55.4731 21.7834C55.512 22.2694 56.2895 22.7747 57.5918 22.8525L57.7084 21.1808L57.1642 19.9952L52.538 17.4489L52.4992 17.4877Z" fill="white"/>
<path d="M48.7305 22.4636V24.8933C48.7305 27.0509 50.4604 28.8974 52.618 28.8586C54.9893 28.8197 56.8748 26.8954 56.8748 24.524H56.9914C57.4773 24.524 57.8467 24.1352 57.8467 23.6687C57.8467 23.1828 57.4579 22.8135 56.9914 22.8135H56.7776C56.7776 22.8135 55.5142 22.7746 55.3198 21.0447C53.8037 22.3081 52.0737 22.2304 52.307 21.5695C52.5402 20.9086 51.1018 21.2974 49.2747 22.0749" fill="white"/>
<path d="M52.5396 28.9946C51.5288 28.9946 50.5764 28.6058 49.8377 27.8672C49.0602 27.0897 48.5938 26.0207 48.5938 24.9127V22.483C48.5938 22.483 48.6326 22.3664 48.7104 22.3664C48.7881 22.3664 48.827 22.4053 48.827 22.483V24.9127C48.827 25.9623 49.2546 26.9925 49.9932 27.7117C50.693 28.4115 51.626 28.8002 52.5979 28.7808C54.8915 28.7419 56.7575 26.8565 56.7575 24.5628C56.7575 24.5045 56.7964 24.4462 56.8741 24.4462H56.9907C57.3989 24.4462 57.7488 24.1158 57.7488 23.6882C57.7488 23.2605 57.4184 22.9301 56.9907 22.9301H56.7769C56.7769 22.9301 55.5135 22.8718 55.2414 21.2585C54.0363 22.1915 52.7728 22.3081 52.3646 22.0165C52.2091 21.8999 52.1508 21.725 52.2091 21.55C52.2286 21.4723 52.2286 21.4334 52.2091 21.414C52.0536 21.2779 51.2178 21.3945 49.3324 22.1915C49.2741 22.2109 49.2157 22.1915 49.1963 22.1332C49.1769 22.0748 49.1963 22.0165 49.2546 21.9971C51.0234 21.239 52.0731 20.9863 52.3646 21.2585C52.4229 21.3168 52.5007 21.4334 52.4229 21.6278C52.3841 21.725 52.4229 21.7833 52.5007 21.8416C52.8311 22.0748 54.0751 21.9777 55.2802 20.9669C55.3191 20.9475 55.358 20.928 55.3969 20.9669C55.4358 20.9669 55.4552 21.0252 55.4552 21.0641C55.6301 22.658 56.7575 22.7357 56.8158 22.7357H57.0102C57.5544 22.7357 57.9821 23.1633 57.9821 23.7076C57.9821 24.2518 57.5544 24.6795 57.0102 24.6795C56.9519 27.0508 55.0081 28.9752 52.6367 29.014C52.6367 29.014 52.5979 29.014 52.5784 29.014L52.5396 28.9946Z" fill="#081017"/>
<path d="M48.963 26.9149C48.963 26.9149 48.9241 26.9149 48.9047 26.9149C47.9523 26.2735 47.3691 25.2044 47.3691 24.0576V22.8525C47.3691 19.8202 49.8377 17.3517 52.87 17.3517H53.1032C54.6776 17.3517 56.1743 18.1292 57.0879 19.4121C57.1268 19.4704 57.1073 19.5287 57.0685 19.5676C57.0101 19.6064 56.9518 19.587 56.913 19.5481C56.0383 18.3236 54.6193 17.5849 53.1032 17.5849H52.87C49.9543 17.5849 47.583 19.9563 47.583 22.8719V24.0771C47.583 25.1461 48.1272 26.1569 49.0213 26.7594C49.0796 26.7983 49.0796 26.8566 49.0602 26.9149C49.0408 26.9538 49.0019 26.9538 48.963 26.9538V26.9149Z" fill="#F61BA3"/>
<path d="M50.168 26.3511L52.5199 26.2539C52.5199 26.2539 52.481 27.4979 51.0815 27.8089" fill="white"/>
<path d="M51.081 27.945C51.081 27.945 50.9838 27.9061 50.9838 27.8672C50.9838 27.8089 51.0032 27.7506 51.0615 27.7312C52.1306 27.4979 52.3444 26.701 52.4027 26.39L50.1674 26.4677C50.1674 26.4677 50.0508 26.4289 50.0508 26.3706C50.0508 26.3122 50.0897 26.2539 50.148 26.2539L52.4999 26.1567C52.4999 26.1567 52.5582 26.1567 52.5777 26.1956C52.5971 26.2345 52.6165 26.2539 52.6165 26.2734C52.6165 26.2734 52.5582 27.6146 51.1004 27.945C51.1004 27.945 51.1004 27.945 51.081 27.945Z" fill="#081017"/>
<path d="M49.5061 24.3103C49.6994 24.3103 49.856 24.1537 49.856 23.9605C49.856 23.7672 49.6994 23.6106 49.5061 23.6106C49.3129 23.6106 49.1562 23.7672 49.1562 23.9605C49.1562 24.1537 49.3129 24.3103 49.5061 24.3103Z" fill="black"/>
<path d="M52.346 24.4657C52.5392 24.4657 52.6958 24.3091 52.6958 24.1159C52.6958 23.9226 52.5392 23.766 52.346 23.766C52.1527 23.766 51.9961 23.9226 51.9961 24.1159C51.9961 24.3091 52.1527 24.4657 52.346 24.4657Z" fill="black"/>
<path d="M50.4983 24.874C50.4983 24.874 50.1095 25.7098 51.0425 25.496L50.4983 24.874Z" fill="white"/>
<path d="M50.7708 25.6321C50.6153 25.6321 50.4987 25.5932 50.421 25.496C50.2266 25.2628 50.4015 24.874 50.421 24.8351C50.4404 24.7768 50.5181 24.7574 50.557 24.7768C50.6153 24.7963 50.6348 24.874 50.6153 24.9129C50.5765 24.9906 50.4987 25.2433 50.5765 25.3599C50.6348 25.4377 50.7903 25.4377 51.0235 25.3794C51.0818 25.3794 51.1401 25.3988 51.1596 25.4571C51.1596 25.5154 51.1401 25.5738 51.0818 25.5932C50.9652 25.6126 50.868 25.6321 50.7708 25.6321Z" fill="#081017"/>
<path d="M56.3133 23.4357C56.3133 23.4357 57.0908 24.1743 56.0801 24.6797L56.3133 23.4357Z" fill="white"/>
<path d="M56.0791 24.7962C56.0791 24.7962 56.0013 24.7768 55.9819 24.7379C55.9625 24.6796 55.9819 24.6213 56.0402 24.6019C56.3123 24.4658 56.4678 24.3103 56.4873 24.1159C56.5261 23.8244 56.2346 23.5328 56.2346 23.5328C56.1957 23.4939 56.1957 23.4162 56.2346 23.3773C56.2735 23.3384 56.3512 23.3384 56.3901 23.3773C56.3901 23.3773 56.7594 23.7466 56.7011 24.1548C56.6622 24.4075 56.4678 24.6213 56.1374 24.7962H56.0985H56.0791Z" fill="#081017"/>
<path d="M52.3066 22.9497C52.3066 22.9497 52.8898 22.9108 53.0064 23.2996L52.3066 22.9497Z" fill="white"/>
<path d="M53.0059 23.4162C53.0059 23.4162 52.9087 23.3773 52.9087 23.3384C52.8115 23.0274 52.3256 23.0663 52.3256 23.0663C52.2673 23.0663 52.209 23.0274 52.209 22.9691C52.209 22.9108 52.2479 22.8525 52.3062 22.8525C52.3256 22.8525 52.9671 22.8136 53.1226 23.2801C53.1226 23.3384 53.1225 23.3967 53.0448 23.4162C53.0448 23.4162 53.0254 23.4162 53.0059 23.4162Z" fill="#081017"/>
<path d="M48.7871 23.28C48.7871 23.28 49.1953 22.8718 49.5452 23.0856L48.7871 23.28Z" fill="white"/>
<path d="M48.7866 23.3772C48.7866 23.3772 48.7283 23.3772 48.7088 23.3383C48.67 23.2994 48.67 23.2217 48.7088 23.1828C48.7088 23.1828 49.1948 22.7163 49.603 22.9884C49.6613 23.0273 49.6613 23.0856 49.6418 23.1439C49.603 23.2022 49.5447 23.2022 49.4863 23.1828C49.2142 23.0079 48.8643 23.3577 48.8643 23.3577C48.8449 23.3772 48.8255 23.3966 48.7866 23.3966V23.3772Z" fill="#081017"/>
<path d="M58.1777 26.0984C58.1777 26.0984 58.0611 26.0595 58.0611 25.9818V23.105C58.0611 21.8027 57.6334 20.5198 56.8365 19.4896L56.3506 18.8482C56.3506 18.8482 56.3311 18.7316 56.37 18.6927C56.4089 18.6538 56.4866 18.6733 56.5255 18.7121L57.0114 19.3536C57.8278 20.4226 58.2749 21.7638 58.2749 23.105V25.9818C58.2749 25.9818 58.236 26.0984 58.1582 26.0984H58.1777Z" fill="#F61BA3"/>
<g style="mix-blend-mode:multiply">
<path d="M53.9591 32.5906L53.1427 36.3031C53.1427 36.3031 53.1232 36.517 53.2593 36.5753C53.3954 36.6336 52.6956 39.763 52.6956 39.763L51.1406 40.2101L52.5984 34.2428C52.8511 33.2126 52.9289 32.8627 53.9591 32.61V32.5906Z" fill="#E6E6E6"/>
</g>
<g style="mix-blend-mode:multiply">
<path d="M67.2335 25.5737C67.2335 25.5737 67.1946 24.9711 66.9808 25.01C66.767 25.0489 66.0478 26.1179 65.0954 27.7118C64.1429 29.3057 63.1322 30.2775 61.5966 30.7829C60.0611 31.2883 62.1603 33.3487 63.8125 33.6402C65.4647 33.9318 64.4151 36.6725 64.4151 36.6725L66.8448 34.9425L67.2335 25.5542V25.5737Z" fill="#E6E6E6"/>
</g>
<path d="M58.1176 21.414C58.1176 21.414 58.0593 21.414 58.0398 21.3946C57.9815 21.3557 57.9815 21.278 58.0398 21.2197L59.7309 19.1982C59.7309 19.1982 59.8475 19.1398 59.9058 19.1982C59.9641 19.237 59.9641 19.3148 59.9058 19.3731L58.2148 21.3946C58.2148 21.3946 58.1565 21.4335 58.1176 21.4335V21.414Z" fill="#081017"/>
<g style="mix-blend-mode:multiply">
<path d="M23.2875 24.1159L22.5684 30.5498C22.5684 30.5498 23.1904 34.1457 23.132 35.1953C23.0737 36.2449 22.8988 38.5386 22.9571 38.5969C23.0154 38.6552 24.3177 38.7524 24.3177 38.7524C24.3177 38.7524 24.1234 35.0398 24.24 33.9902C24.3566 32.9406 24.862 29.9861 24.862 29.9861L23.8318 23.9604" fill="#E6E6E6"/>
</g>
<g style="mix-blend-mode:multiply">
<path d="M23.1691 21.8806L22.5859 23.2413L23.2663 24.0771L23.8882 24.0188L24.4714 23.2607L24.0243 21.8612L23.1691 21.8806Z" fill="#E6E6E6"/>
</g>
</svg>
