<svg width="149" height="96" viewBox="0 0 149 96" fill="none" xmlns="http://www.w3.org/2000/svg">
<path d="M73.5157 54.0421L71.6465 61.5191L82.5115 60.935C82.5115 60.935 85.8995 59.3578 83.5045 55.5609H77.9552L73.4573 54.0421H73.5157Z" fill="#E6E6E6"/>
<mask id="mask0_1546_223943" style="mask-type:luminance" maskUnits="userSpaceOnUse" x="0" y="5" width="66" height="84">
<path d="M4.17971 83.074V72.0921L4.82227 71.508C6.45785 70.0477 8.38551 68.8794 10.43 68.0616L18.4911 64.9072L36.6578 63.038L54.0651 53.8086C55.9344 52.8156 57.862 51.9978 59.8481 51.3552C61.0164 51.0048 62.1847 50.7127 63.3529 50.5374L65.7479 50.187V5.50037H0.382812V88.9738L4.1213 83.074H4.17971Z" fill="white"/>
</mask>
<g mask="url(#mask0_1546_223943)">
<path d="M38.5852 50.2454H37.0664V70.4566H38.5852V50.2454Z" fill="#E6E6E6"/>
<path d="M22.1145 47.9671H20.5957V70.398H22.1145V47.9671Z" fill="#E6E6E6"/>
<mask id="mask1_1546_223943" style="mask-type:luminance" maskUnits="userSpaceOnUse" x="20" y="15" width="35" height="34">
<path d="M37.7097 48.9018C47.0332 48.9018 54.5913 41.3437 54.5913 32.0202C54.5913 22.6968 47.0332 15.1386 37.7097 15.1386C28.3863 15.1386 20.8281 22.6968 20.8281 32.0202C20.8281 41.3437 28.3863 48.9018 37.7097 48.9018Z" fill="white"/>
</mask>
<g mask="url(#mask1_1546_223943)">
<path d="M37.6923 6.9251L-4.27344 48.8908L37.6923 90.8565L79.658 48.8908L37.6923 6.9251Z" stroke="#F6B4DD" stroke-width="1.05938" stroke-miterlimit="10"/>
<path d="M37.692 10.3121L-0.886719 48.8908L37.7333 87.5108L76.312 48.9321L37.692 10.3121Z" stroke="#F6B4DD" stroke-width="1.05938" stroke-miterlimit="10"/>
<path d="M37.692 13.6164L2.45898 48.8494L37.692 84.0825L72.925 48.8494L37.692 13.6164Z" stroke="#F6B4DD" stroke-width="1.05938" stroke-miterlimit="10"/>
<path d="M37.692 17.0035L5.80469 48.8908L37.692 80.7781L69.5793 48.8908L37.692 17.0035Z" stroke="#F6B4DD" stroke-width="1.05938" stroke-miterlimit="10"/>
<path d="M37.6917 20.3905L9.19141 48.8908L37.6917 77.3911L66.1921 48.8908L37.6917 20.3905Z" stroke="#F6B4DD" stroke-width="1.05938" stroke-miterlimit="10"/>
<path d="M37.7347 23.7362L12.5801 48.8908L37.7347 74.0455L62.8894 48.8908L37.7347 23.7362Z" stroke="#F6B4DD" stroke-width="1.05938" stroke-miterlimit="10"/>
<path d="M37.7328 27.0405L15.9238 48.8494L37.7328 70.6584L59.5417 48.8494L37.7328 27.0405Z" stroke="#F6B4DD" stroke-width="1.05938" stroke-miterlimit="10"/>
<path d="M37.6934 30.4689L19.2715 48.8908L37.6934 67.3128L56.1154 48.8908L37.6934 30.4689Z" stroke="#F6B4DD" stroke-width="1.05938" stroke-miterlimit="10"/>
<path d="M37.7345 33.8145L22.6582 48.8908L37.7345 63.9671L52.8107 48.8908L37.7345 33.8145Z" stroke="#F6B4DD" stroke-width="1.05938" stroke-miterlimit="10"/>
<path d="M37.6912 37.1602L26.002 48.8494L37.7325 60.58L49.4218 48.8907L37.6912 37.1602Z" stroke="#F6B4DD" stroke-width="1.05938" stroke-miterlimit="10"/>
<path d="M37.6912 40.5472L29.3477 48.8908L37.6912 57.2344L46.0348 48.8908L37.6912 40.5472Z" stroke="#F6B4DD" stroke-width="1.05938" stroke-miterlimit="10"/>
<path d="M37.7323 43.8929L32.7344 48.8908L37.7323 53.8887L42.7301 48.8908L37.7323 43.8929Z" stroke="#F6B4DD" stroke-width="1.05938" stroke-miterlimit="10"/>
<path d="M37.6929 47.2385L36.082 48.8494L37.6929 50.4603L39.3038 48.8494L37.6929 47.2385Z" stroke="#F6B4DD" stroke-width="1.05938" stroke-miterlimit="10"/>
</g>
<path d="M21.2938 48.9019C27.1008 48.9019 31.8083 44.1944 31.8083 38.3874C31.8083 32.5804 27.1008 27.8729 21.2938 27.8729C15.4868 27.8729 10.7793 32.5804 10.7793 38.3874C10.7793 44.1944 15.4868 48.9019 21.2938 48.9019Z" fill="white"/>
<path d="M21.2939 50.1284C14.81 50.1284 9.55273 44.8712 9.55273 38.3872C9.55273 31.9033 14.81 26.6461 21.2939 26.6461C27.7779 26.6461 33.0351 31.9033 33.0351 38.3872C33.0351 44.8712 27.7779 50.1284 21.2939 50.1284ZM21.2939 29.1579C16.2119 29.1579 12.0645 33.3052 12.0645 38.3872C12.0645 43.4692 16.2119 47.6166 21.2939 47.6166C26.3759 47.6166 30.5233 43.4692 30.5233 38.3872C30.5233 33.3052 26.3759 29.1579 21.2939 29.1579Z" fill="white"/>
<path d="M51.4359 33.7725C54.1781 33.7725 56.4011 31.5495 56.4011 28.8073C56.4011 26.0651 54.1781 23.8421 51.4359 23.8421C48.6937 23.8421 46.4707 26.0651 46.4707 28.8073C46.4707 31.5495 48.6937 33.7725 51.4359 33.7725Z" fill="white"/>
<path d="M51.4358 35.0576C47.9894 35.0576 45.1855 32.2538 45.1855 28.8073C45.1855 25.3609 47.9894 22.5571 51.4358 22.5571C54.8822 22.5571 57.6861 25.3609 57.6861 28.8073C57.6861 32.2538 54.8822 35.0576 51.4358 35.0576ZM51.4358 25.1273C49.3913 25.1273 47.6973 26.8213 47.6973 28.8658C47.6973 30.9102 49.3913 32.6042 51.4358 32.6042C53.4803 32.6042 55.1743 30.9102 55.1743 28.8658C55.1743 26.8213 53.4803 25.1273 51.4358 25.1273Z" fill="white"/>
<mask id="mask2_1546_223943" style="mask-type:luminance" maskUnits="userSpaceOnUse" x="10" y="27" width="22" height="22">
<path d="M21.2938 48.9018C27.1008 48.9018 31.8083 44.1943 31.8083 38.3873C31.8083 32.5803 27.1008 27.8728 21.2938 27.8728C15.4868 27.8728 10.7793 32.5803 10.7793 38.3873C10.7793 44.1943 15.4868 48.9018 21.2938 48.9018Z" fill="white"/>
</mask>
<g mask="url(#mask2_1546_223943)">
<path d="M21.3341 24.6032L-2.95312 48.8904L21.2928 73.1364L45.58 48.8491L21.3341 24.6032Z" stroke="#E6E6E6" stroke-width="1.05938" stroke-miterlimit="10"/>
<path d="M21.3335 27.2468L-0.351562 48.9318L21.3335 70.6169L43.0185 48.9318L21.3335 27.2468Z" stroke="#E6E6E6" stroke-width="1.05938" stroke-miterlimit="10"/>
<path d="M21.2938 29.849L2.21094 48.9318L21.2938 68.0147L40.3766 48.9318L21.2938 29.849Z" stroke="#E6E6E6" stroke-width="1.05938" stroke-miterlimit="10"/>
<path d="M21.2931 32.4098L4.8125 48.8904L21.2931 65.3711L37.7738 48.8904L21.2931 32.4098Z" stroke="#E6E6E6" stroke-width="1.05938" stroke-miterlimit="10"/>
<path d="M21.3338 35.0121L7.41406 48.9318L21.3338 62.8515L35.2535 48.9318L21.3338 35.0121Z" stroke="#E6E6E6" stroke-width="1.05938" stroke-miterlimit="10"/>
<path d="M21.2941 37.6143L9.97656 48.9318L21.2941 60.2493L32.6116 48.9318L21.2941 37.6143Z" stroke="#E6E6E6" stroke-width="1.05938" stroke-miterlimit="10"/>
<path d="M21.3345 40.2165L12.6191 48.9318L21.3345 57.6471L30.0498 48.9318L21.3345 40.2165Z" stroke="#E6E6E6" stroke-width="1.05938" stroke-miterlimit="10"/>
<path d="M21.2928 42.8187L15.1797 48.9318L21.2928 55.0449L27.4059 48.9318L21.2928 42.8187Z" stroke="#E6E6E6" stroke-width="1.05938" stroke-miterlimit="10"/>
<path d="M21.3335 45.3382L17.7812 48.8904L21.3335 52.4427L24.8857 48.8904L21.3335 45.3382Z" stroke="#E6E6E6" stroke-width="1.05938" stroke-miterlimit="10"/>
<path d="M21.3328 47.9818L20.3828 48.9318L21.3328 49.8818L22.2828 48.9318L21.3328 47.9818Z" stroke="#E6E6E6" stroke-width="1.05938" stroke-miterlimit="10"/>
</g>
<mask id="mask3_1546_223943" style="mask-type:luminance" maskUnits="userSpaceOnUse" x="46" y="23" width="11" height="11">
<path d="M51.4359 33.7726C54.1781 33.7726 56.4011 31.5497 56.4011 28.8075C56.4011 26.0653 54.1781 23.8423 51.4359 23.8423C48.6937 23.8423 46.4707 26.0653 46.4707 28.8075C46.4707 31.5497 48.6937 33.7726 51.4359 33.7726Z" fill="white"/>
</mask>
<g mask="url(#mask3_1546_223943)">
<path d="M51.4615 22.278L39.9375 33.802L51.4615 45.326L62.9856 33.802L51.4615 22.278Z" stroke="#F6B4DD" stroke-width="1.05938" stroke-miterlimit="10"/>
<path d="M51.4623 23.8475L41.5078 33.802L51.4623 43.7565L61.4167 33.802L51.4623 23.8475Z" stroke="#F6B4DD" stroke-width="1.05938" stroke-miterlimit="10"/>
<path d="M51.4627 25.4999L43.1191 33.8434L51.4627 42.187L59.8063 33.8434L51.4627 25.4999Z" stroke="#F6B4DD" stroke-width="1.05938" stroke-miterlimit="10"/>
<path d="M51.4634 27.0695L44.6895 33.8434L51.4634 40.6174L58.2374 33.8434L51.4634 27.0695Z" stroke="#F6B4DD" stroke-width="1.05938" stroke-miterlimit="10"/>
<path d="M51.4622 28.639L46.2578 33.8434L51.4622 39.0479L56.6666 33.8434L51.4622 28.639Z" stroke="#F6B4DD" stroke-width="1.05938" stroke-miterlimit="10"/>
<path d="M51.4627 30.2085L47.8691 33.802L51.4627 37.3955L55.0562 33.802L51.4627 30.2085Z" stroke="#F6B4DD" stroke-width="1.05938" stroke-miterlimit="10"/>
<path d="M51.4614 31.7781L49.4375 33.802L51.4614 35.8259L53.4854 33.802L51.4614 31.7781Z" stroke="#F6B4DD" stroke-width="1.05938" stroke-miterlimit="10"/>
<path d="M51.4622 33.3476L51.0078 33.802L51.4622 34.2564L51.9165 33.802L51.4622 33.3476Z" stroke="#F6B4DD" stroke-width="1.05938" stroke-miterlimit="10"/>
</g>
</g>
<path d="M91.2737 42.3593C91.1569 42.3593 91.0985 42.3009 91.0985 42.184V20.2788C91.0985 20.2204 91.0401 20.162 90.9816 20.162H83.271C83.2126 20.162 83.1542 20.2204 83.1542 20.2788V21.5055C83.1542 21.6224 83.0958 21.6808 82.979 21.6808H79.7078C79.5909 21.6808 79.5325 21.6224 79.5325 21.5055V8.94655C79.5325 8.94655 79.5325 8.94655 79.5325 8.88814L75.6188 1.29434C75.6188 1.29434 75.5604 1.23592 75.502 1.23592C75.502 1.23592 75.3852 1.23593 75.3852 1.29434L71.4714 9.12179C71.4714 9.12179 71.4714 9.12179 71.4714 9.18021V34.2982C71.4714 34.415 71.413 34.4734 71.2962 34.4734H67.7329C67.6745 34.4734 67.6161 34.5318 67.6161 34.5902V37.9198C67.6161 38.0366 67.5577 38.0951 67.4409 38.0951C67.324 38.0951 67.2656 38.0366 67.2656 37.9198V34.5902C67.2656 34.2982 67.4993 34.0645 67.7914 34.0645H71.1794V9.18021C71.1794 9.12179 71.1794 9.00496 71.2378 8.94655L75.1515 1.1191C75.2683 0.943854 75.4436 0.827026 75.6188 0.827026C75.794 0.827026 76.0277 0.943854 76.0861 1.1191L79.9998 8.7129C79.9998 8.77131 80.0583 8.88813 80.0583 8.94655V21.2719H82.9205V20.2204C82.9205 19.9284 83.1542 19.6947 83.4463 19.6947H91.1569C91.449 19.6947 91.6826 19.9284 91.6826 20.2204V42.1256C91.6826 42.2424 91.6242 42.3009 91.5074 42.3009L91.2737 42.3593Z" fill="#E6E6E6"/>
<path d="M58.9135 51.6471C58.7967 51.6471 58.7383 51.5887 58.7383 51.4718V34.2982C58.7383 34.1814 58.8551 34.1229 58.9135 34.1229H59.0304V26.7044C59.0304 26.4123 59.264 26.1786 59.5561 26.1786H63.7035C63.9955 26.1786 64.2292 26.4123 64.2292 26.7044V45.8641C64.2292 45.9809 64.1708 46.0394 64.0539 46.0394C63.9371 46.0394 63.8787 45.9809 63.8787 45.8641V26.7044C63.8787 26.646 63.8203 26.5875 63.7619 26.5875H59.6145C59.5561 26.5875 59.4977 26.646 59.4977 26.7044V34.3566C59.4977 34.4734 59.3808 34.5318 59.3224 34.5318H59.2056V51.4718C59.2056 51.5887 59.0888 51.6471 59.0304 51.6471H58.9135Z" fill="#E6E6E6"/>
<path d="M96.295 45.5139H101.728C102.837 45.5139 103.714 46.3901 103.714 47.4999C103.714 48.6098 104.356 48.9019 105.116 48.9019H110.198C110.548 48.9019 110.84 48.9603 111.074 49.0771V14.8466C111.074 14.6713 110.898 14.4961 110.723 14.4961H102.779C102.604 14.4961 102.428 14.6713 102.428 14.8466V26.2957H94.7763C94.601 26.2957 94.4258 26.4709 94.4258 26.6462V45.2218C95.0099 45.3386 95.5941 45.4554 96.1782 45.4554L96.295 45.5139Z" fill="#E6E6E6"/>
<path d="M111.134 49.3106H111.075C110.842 49.1938 110.55 49.1354 110.258 49.1354H105.176C104.299 49.1354 103.599 48.4344 103.599 47.5582C103.599 46.682 102.781 45.7474 101.788 45.7474H96.3552C95.7711 45.7474 95.1285 45.689 94.5444 45.5137C94.486 45.5137 94.3691 45.3969 94.3691 45.3385V26.7629C94.3691 26.4708 94.6028 26.2372 94.8949 26.2372H102.313V14.9633C102.313 14.6712 102.547 14.4376 102.839 14.4376H110.783C111.075 14.4376 111.309 14.6712 111.309 14.9633V49.1938C111.309 49.2522 111.309 49.3106 111.192 49.369C111.192 49.369 111.134 49.369 111.075 49.369L111.134 49.3106ZM94.7196 45.1632C95.2453 45.2801 95.7711 45.3385 96.2968 45.3385H101.729C102.956 45.3385 103.891 46.3315 103.891 47.4998C103.891 48.6681 104.416 48.7265 105.117 48.7265H110.199C110.433 48.7265 110.667 48.7265 110.9 48.8433V14.9049C110.9 14.8465 110.842 14.788 110.783 14.788H102.839C102.781 14.788 102.722 14.8465 102.722 14.9049V26.354C102.722 26.4708 102.664 26.5292 102.547 26.5292H94.8949C94.8364 26.5292 94.778 26.5876 94.778 26.6461V45.1048L94.7196 45.1632Z" fill="#E6E6E6"/>
<path d="M130.526 72.267C130.409 72.267 130.351 72.2086 130.351 72.0917V20.4539C130.351 20.3955 130.292 20.3371 130.234 20.3371H122.699C122.64 20.3371 122.582 20.3955 122.582 20.4539C122.582 20.5123 122.523 20.6292 122.406 20.6292C122.29 20.6292 122.231 20.5707 122.231 20.4539V18.8183H114.696C114.637 18.8183 114.579 18.8767 114.579 18.9352V51.1212C114.579 51.238 114.521 51.2964 114.404 51.2964C114.287 51.2964 114.229 51.238 114.229 51.1212V18.9352C114.229 18.6431 114.462 18.4094 114.754 18.4094H122.465C122.582 18.4094 122.64 18.4678 122.64 18.5847V19.8698H122.757H130.292C130.584 19.8698 130.818 20.1034 130.818 20.3955V72.0333C130.818 72.1502 130.76 72.2086 130.643 72.2086L130.526 72.267Z" fill="#E6E6E6"/>
<path d="M4.88068 73.7275L5.8153 74.8958L8.15186 74.7789C8.85282 74.7789 9.49537 75.1879 9.72903 75.8304L11.0725 80.153C11.0725 80.3283 11.0725 80.5035 11.0725 80.7372C10.9557 81.1461 10.5468 81.4381 10.1379 81.4381H6.51627C5.99054 81.4381 5.58165 81.847 5.52323 82.3727L5.99054 82.1975L11.2478 82.3143L12.5329 80.9124L9.96268 73.377L4.82227 73.6691L4.88068 73.7275Z" fill="#E6E6E6"/>
<path d="M97.1749 54.626L100.154 59.0071C100.329 59.2992 100.68 59.416 101.03 59.3576L107.689 58.1309C108.449 58.0141 108.624 57.021 108.04 56.6121L105.061 54.5092C104.944 54.4508 104.827 54.3924 104.71 54.3924L98.0511 53.3994C97.3501 53.2825 96.8244 54.1003 97.2333 54.7429L97.1749 54.626Z" fill="#F41BA2"/>
<path d="M100.855 59.5328C100.504 59.5328 100.212 59.3575 100.037 59.0655L97.0581 54.6844C96.8244 54.334 96.8244 53.9251 97.0581 53.5746C97.2917 53.2241 97.7006 53.0488 98.0511 53.1073L104.71 54.1003C104.886 54.1003 105.002 54.1587 105.178 54.2755L108.157 56.3784C108.507 56.6121 108.682 57.021 108.566 57.4299C108.507 57.8388 108.157 58.1309 107.748 58.2477L101.089 59.4744C101.03 59.4744 100.972 59.4744 100.913 59.4744L100.855 59.5328ZM97.8759 53.4577C97.5838 53.4577 97.4085 53.633 97.2917 53.7498C97.1749 53.925 97.1165 54.2171 97.2917 54.5092L100.271 58.8902C100.446 59.1239 100.68 59.2407 100.972 59.1823L107.631 57.9556C107.981 57.8972 108.098 57.6635 108.157 57.4299C108.157 57.1962 108.157 56.9042 107.865 56.7289L104.886 54.626C104.827 54.5676 104.71 54.5092 104.593 54.5092L97.9343 53.5162C97.9343 53.5162 97.8758 53.5162 97.8174 53.5162L97.8759 53.4577Z" fill="white"/>
<path d="M21.1189 67.0683L19.1328 67.7109L41.1548 66.601L71.2964 65.9585L93.7273 65.3159L103.074 64.0308L115.165 63.6219L103.833 62.921L92.0333 64.4981L47.3467 65.3159L21.1189 67.0683Z" fill="#E6E6E6"/>
<path d="M97.8161 66.9517C99.6227 66.9517 101.087 66.5333 101.087 66.0171C101.087 65.5009 99.6227 65.0825 97.8161 65.0825C96.0095 65.0825 94.5449 65.5009 94.5449 66.0171C94.5449 66.5333 96.0095 66.9517 97.8161 66.9517Z" fill="#E6E6E6"/>
<path d="M66.4489 68.412C68.2555 68.412 69.7201 67.9936 69.7201 67.4774C69.7201 66.9612 68.2555 66.5428 66.4489 66.5428C64.6423 66.5428 63.1777 66.9612 63.1777 67.4774C63.1777 67.9936 64.6423 68.412 66.4489 68.412Z" fill="#E6E6E6"/>
<path d="M71.9974 56.1449V54.6262C71.9974 53.8668 71.4133 53.2827 70.6539 53.2827C69.8945 53.2827 69.3104 53.8668 69.3104 54.6262V56.1449C69.3104 56.7875 69.7777 57.3716 70.4202 57.43V57.8973H70.3034C69.7193 57.8973 69.252 58.3646 69.252 58.9488V62.1031H71.939V58.9488C71.939 58.3646 71.4717 57.8973 70.8875 57.8973H70.8291V57.43C71.4717 57.3132 71.939 56.7875 71.939 56.1449H71.9974Z" fill="#E6E6E6"/>
<path d="M42.0898 85.9358L42.2651 81.9636C42.2651 81.9636 44.6601 77.5242 50.3846 76.94C56.1092 76.3559 92.9683 76.5895 92.9683 76.5895C92.9683 76.5895 89.6387 81.8468 90.807 85.9358C65.2217 86.2278 42.0898 85.9358 42.0898 85.9358Z" fill="#E6E6E6"/>
<path d="M13.0575 68.1196L8.91016 70.3978L16.0366 69.8136L18.6653 67.9444L13.0575 68.1196Z" fill="#F41BA2"/>
<path d="M63.1182 56.8457C63.2795 56.8457 63.4103 56.715 63.4103 56.5537C63.4103 56.3924 63.2795 56.2616 63.1182 56.2616C62.9569 56.2616 62.8262 56.3924 62.8262 56.5537C62.8262 56.715 62.9569 56.8457 63.1182 56.8457Z" fill="black"/>
<path d="M53.947 62.8039C53.8302 62.8039 53.7718 62.7455 53.7718 62.6287V59.8832C53.7718 59.6496 53.5965 59.4743 53.3629 59.4743C53.1292 59.4743 52.954 59.6496 52.954 59.8832V62.6287C52.954 62.7455 52.8956 62.8039 52.7788 62.8039C52.6619 62.8039 52.6035 62.7455 52.6035 62.6287V59.8832C52.6035 59.4743 52.954 59.1238 53.3629 59.1238C53.7718 59.1238 54.1223 59.4743 54.1223 59.8832V62.6287C54.1223 62.7455 54.0639 62.8039 53.947 62.8039Z" fill="#F61BA3"/>
<path d="M66.8571 58.4808C66.7403 58.4808 66.6818 58.4224 66.6818 58.3056C66.6818 58.1888 66.7403 58.1303 66.8571 58.1303C67.3244 58.1303 67.6749 57.7799 67.6749 57.3126C67.6749 56.8452 67.3244 56.4948 66.8571 56.4948H66.2145C66.1561 56.4948 66.0977 56.4948 66.0393 56.3779V56.2027H65.2215C63.9364 56.2027 62.9434 55.1512 62.9434 53.9246C62.9434 52.6979 63.0018 53.7493 63.1186 53.7493C63.2354 53.7493 63.2938 53.8077 63.2938 53.9246C63.2938 54.976 64.17 55.8522 65.2215 55.8522H66.0977C66.1561 55.8522 66.2145 55.8522 66.2729 55.969V56.1443H66.9155C67.5581 56.1443 68.0838 56.67 68.0838 57.3126C68.0838 57.9551 67.5581 58.4808 66.9155 58.4808H66.8571Z" fill="#081017"/>
<path d="M64.3461 60.4089C62.6521 60.4089 61.3086 59.007 61.3086 57.3714C61.3086 55.7358 61.7175 55.5606 62.4769 54.9765C62.5353 54.918 62.6521 54.9765 62.7105 54.9765C62.7689 55.0349 62.7105 55.1517 62.7105 55.2101C62.068 55.7358 61.7175 56.4952 61.7175 57.313C61.7175 59.007 63.2947 60.3505 65.0471 59.9416C65.1639 59.9416 65.2223 59.9416 65.2807 60.0585C65.3392 60.1753 65.2807 60.2337 65.1639 60.2921C64.9303 60.3505 64.6966 60.4089 64.4629 60.4089H64.3461Z" fill="#081017"/>
<path d="M63.0616 59.3574C63.0032 59.3574 62.9447 59.3574 62.8863 59.2405C62.8863 59.1237 62.8863 59.0653 63.0032 59.0069C63.4705 58.8901 63.5873 58.4228 63.5873 58.1307L62.3606 58.4812C62.2438 58.4812 62.1854 58.4812 62.127 58.3643C62.127 58.2475 62.127 58.1891 62.2438 58.1307L63.6457 57.7218H63.7625C63.7625 57.7218 63.821 57.7802 63.821 57.8386C63.821 58.2475 63.7041 59.0653 63.0032 59.299L63.0616 59.3574Z" fill="#081017"/>
<path d="M66.8567 60.3507C66.7983 60.3507 66.7399 60.3507 66.6815 60.2923C66.6815 60.2339 66.6815 60.1171 66.7399 60.0586C67.9666 59.3577 69.1933 58.423 69.1933 55.6192C69.1933 52.8153 68.9596 54.3341 68.6091 53.9836C67.7329 53.1074 65.9805 53.1074 64.9875 53.1074H64.637C63.3519 53.1074 62.5925 53.5747 62.5925 54.4509C62.5925 55.3271 62.8261 55.3855 62.8261 55.4439C62.8846 55.4439 62.943 55.5608 62.8846 55.6776C62.8846 55.736 62.7093 55.7944 62.6509 55.736C62.5925 55.736 62.1836 55.4439 62.1836 54.4509C62.1836 53.4579 63.0598 52.7569 64.5786 52.7569H64.929C66.0389 52.7569 67.8497 52.7569 68.8428 53.6915C69.3101 54.1588 69.5437 54.8014 69.5437 55.6192C69.5437 58.5983 68.2586 59.5913 66.9151 60.3507H66.8567Z" fill="#F61BA3"/>
<path d="M53.9467 62.804C53.8299 62.804 53.7715 62.7456 53.7715 62.6288C53.7715 62.512 53.8299 62.4536 53.9467 62.4536L62.0662 61.6942L63.8187 61.4021L64.9285 60.8764C65.2206 60.818 67.4403 60.2922 68.1997 60.7011C68.9591 61.0516 69.4264 61.3437 69.4264 61.4021C69.4848 61.4021 69.5432 61.5774 69.4264 61.6358C69.3096 61.6942 69.2512 61.7526 69.1927 61.6358C69.1927 61.6358 68.7254 61.3437 67.9661 60.9932C67.3819 60.7011 65.6295 60.9932 64.9869 61.1685L63.8771 61.6942L62.1247 61.9863L54.0051 62.7456L53.9467 62.804Z" fill="#081017"/>
<path d="M126.264 65.0237L124.395 63.6802H115.516C114.991 63.6802 114.757 64.3811 115.224 64.6732L118.554 66.8345C119.488 67.4187 120.54 67.7107 121.591 67.7107H128.776" fill="#F41BA2"/>
<path d="M128.719 67.8863H121.534C120.424 67.8863 119.314 67.5942 118.379 66.9517L115.05 64.7903C114.758 64.6151 114.641 64.2646 114.758 63.9726C114.874 63.6805 115.108 63.4468 115.459 63.4468H124.338C124.338 63.4468 124.396 63.4468 124.454 63.4468L126.324 64.7903C126.382 64.8488 126.44 64.9656 126.324 65.024C126.265 65.0824 126.148 65.1408 126.09 65.024L124.279 63.6805H115.459C115.225 63.6805 115.108 63.7973 115.108 63.9726C115.108 64.0894 115.108 64.2646 115.283 64.3815L118.613 66.5428C119.489 67.1269 120.482 67.419 121.534 67.419H128.719C128.835 67.419 128.894 67.4774 128.894 67.5942C128.894 67.7111 128.835 67.7695 128.719 67.7695V67.8863Z" fill="white"/>
<path d="M127.201 82.6067H117.271C116.394 75.0129 112.305 71.3328 105.062 71.3328C90.9259 71.3328 91.1595 84.3591 91.1595 84.3591H89.3487L83.7994 83.1908H46.9402L43.9027 84.1839H42.0919C42.0919 84.1839 42.0919 82.1978 40.8652 78.0504C39.6385 73.903 34.8486 70.2814 25.5608 71.0992C16.273 71.9169 15.7472 83.1324 15.7472 83.1324H4.70703L8.73759 86.5788H12.2424L17.7917 88.9738V82.4314C17.7917 77.0574 22.1144 72.7347 27.4884 72.7347H29.4745C35.3159 72.7347 40.0474 77.4663 40.0474 83.3076V87.0461H92.9119V83.3076C92.9119 77.4663 97.6435 72.7347 103.485 72.7347H105.471C110.845 72.7347 115.168 77.0574 115.168 82.4314V86.1699L125.332 84.6512C126.441 84.4759 127.493 83.8334 128.077 82.8403L128.603 81.9641C128.252 82.373 127.727 82.6651 127.142 82.6651L127.201 82.6067Z" fill="#F41BA2"/>
<path d="M17.7921 89.1491C17.7921 89.1491 17.7921 89.1491 17.7337 89.1491L12.2428 86.7541H8.79639C8.79639 86.7541 8.73798 86.7541 8.67956 86.7541L4.64901 83.3077C4.64901 83.3077 4.59059 83.1908 4.64901 83.1324C4.64901 83.074 4.76584 83.0156 4.82425 83.0156H15.6892C15.6892 82.373 15.9813 79.9197 17.0912 77.4079C18.7852 73.5525 21.7643 71.3328 25.6196 70.9823C37.6528 69.9309 40.5151 76.1228 41.0993 78.0504C42.1507 81.5553 42.3259 83.4829 42.3259 84.067H43.9615L46.9991 83.1324H83.8582L89.4075 84.3007H90.9847C90.9847 83.3077 91.2767 78.4593 94.7232 75.0129C97.1765 72.5011 100.623 71.2744 105.062 71.2744C112.364 71.2744 116.512 75.0713 117.446 82.5483H127.26C127.785 82.5483 128.253 82.3146 128.545 81.9057C128.545 81.9057 128.662 81.8473 128.72 81.8473C128.778 81.8473 128.837 81.8473 128.837 81.9642C128.837 81.9642 128.837 82.081 128.837 82.1394L128.311 83.0156C127.669 84.067 126.617 84.768 125.449 84.9432L115.285 86.462H115.168C115.168 86.462 115.11 86.4036 115.11 86.3452V82.6067C115.11 77.3494 110.845 73.0852 105.588 73.0852H103.602C97.8775 73.0852 93.2044 77.7583 93.2044 83.4829V87.2214C93.2044 87.3382 93.146 87.3966 93.0292 87.3966H40.1646C40.0478 87.3966 39.9894 87.3382 39.9894 87.2214V83.4829C39.9894 77.7583 35.3163 73.0852 29.5917 73.0852H27.6057C22.3484 73.0852 18.0842 77.3494 18.0842 82.6067V89.1491C18.0842 89.2075 18.0842 89.2659 18.0258 89.2659C18.0258 89.2659 17.9674 89.2659 17.909 89.2659L17.7921 89.1491ZM8.85481 86.4036H12.3012C12.3012 86.4036 12.3012 86.4036 12.3596 86.4036L17.6753 88.7401V82.4315C17.6753 76.999 22.1147 72.5595 27.5472 72.5595H29.5333C35.4331 72.5595 40.2815 77.3495 40.2815 83.3077V86.8709H92.7955V83.3077C92.7955 77.4079 97.5854 72.5595 103.544 72.5595H105.53C110.962 72.5595 115.402 76.999 115.402 82.4315V85.9363L125.39 84.4175C126.5 84.2423 127.435 83.5997 128.019 82.6651V82.5483C127.844 82.6651 127.552 82.7235 127.26 82.7235H117.329C117.271 82.7235 117.154 82.6651 117.154 82.5483C116.278 75.0713 112.364 71.3912 105.121 71.3912C97.8775 71.3912 97.4102 72.6179 95.0736 75.0129C91.3936 78.7514 91.452 84.1839 91.452 84.2423V84.3591C91.452 84.3591 91.3936 84.3591 91.3352 84.3591H89.5243L83.975 83.1908H47.2327L44.1952 84.1255H42.3844H42.2675C42.2675 84.1255 42.2675 84.0671 42.2675 84.0086C42.2675 84.0086 42.2675 81.9641 41.0408 77.9336C40.4567 76.0643 37.6528 70.1061 25.9116 71.0992C22.1147 71.4497 19.3693 73.4941 17.6753 77.291C16.3902 80.1533 16.2734 82.8988 16.2734 82.9572C16.2734 83.074 16.215 83.1324 16.0981 83.1324H5.52522L9.14688 86.2284L8.85481 86.4036Z" fill="white"/>
<path d="M17.2062 89.1491C17.2062 89.1491 17.2062 89.1491 17.1478 89.1491L11.6569 86.7541H8.21045C8.21045 86.7541 8.15204 86.7541 8.09363 86.7541L4.06307 83.3077C4.06307 83.3077 4.00466 83.1908 4.06307 83.1324C4.06307 83.074 4.1799 83.0156 4.23831 83.0156H15.1033C15.1033 82.373 15.3954 79.9197 16.5052 77.4079C18.1992 73.5525 21.1783 71.3328 25.0336 70.9823C37.0669 69.9309 39.9292 76.1228 40.5133 78.0504C41.5648 81.5553 41.74 83.4829 41.74 84.067H43.3756L46.4131 83.1324H83.2722L88.8216 84.3007H90.3987C90.3987 83.3077 90.6908 78.4593 94.1372 75.0129C96.5906 72.5011 100.037 71.2744 104.476 71.2744C111.778 71.2744 115.926 75.0713 116.86 82.5483H126.674C127.199 82.5483 127.667 82.3146 127.959 81.9057C127.959 81.9057 128.076 81.8473 128.134 81.8473C128.193 81.8473 128.251 81.8473 128.251 81.9642C128.251 81.9642 128.251 82.081 128.251 82.1394L127.725 83.0156C127.083 84.067 126.031 84.768 124.863 84.9432L114.699 86.462H114.582C114.582 86.462 114.524 86.4036 114.524 86.3452V82.6067C114.524 77.3494 110.259 73.0852 105.002 73.0852H103.016C97.2916 73.0852 92.6185 77.7583 92.6185 83.4829V87.2214C92.6185 87.3382 92.5601 87.3966 92.4432 87.3966H39.5787C39.4619 87.3966 39.4035 87.3382 39.4035 87.2214V83.4829C39.4035 77.7583 34.7303 73.0852 29.0058 73.0852H27.0197C21.7625 73.0852 17.4983 77.3494 17.4983 82.6067V89.1491C17.4983 89.2075 17.4983 89.2659 17.4398 89.2659C17.4398 89.2659 17.3814 89.2659 17.323 89.2659L17.2062 89.1491ZM8.21045 86.4036H11.6569C11.6569 86.4036 11.6569 86.4036 11.7153 86.4036L17.0309 88.7401V82.4315C17.0309 76.999 21.4704 72.5595 26.9029 72.5595H28.889C34.7888 72.5595 39.6371 77.3495 39.6371 83.3077V86.8709H92.1512V83.3077C92.1512 77.4079 96.9411 72.5595 102.899 72.5595H104.885C110.318 72.5595 114.757 76.999 114.757 82.4315V85.9363L124.746 84.4175C125.856 84.2423 126.791 83.5997 127.375 82.6651V82.5483C127.199 82.6651 126.907 82.7235 126.615 82.7235H116.685C116.627 82.7235 116.51 82.6651 116.51 82.5483C115.634 75.0713 111.72 71.3912 104.476 71.3912C97.2332 71.3912 96.7658 72.6179 94.4293 75.0129C90.7492 78.7514 90.8076 84.1839 90.8076 84.2423C90.8076 84.3007 90.8076 84.3591 90.8076 84.3591C90.8076 84.3591 90.7492 84.3591 90.6908 84.3591H88.88L83.3307 83.1908H46.5884L43.5508 84.1255H41.74H41.6232C41.6232 84.1255 41.6232 84.0671 41.6232 84.0086C41.6232 84.0086 41.6232 81.9641 40.3965 77.9336C39.8123 76.0643 37.0085 70.1061 25.2673 71.0992C21.4704 71.4497 18.7249 73.4941 17.0309 77.291C15.7458 80.1533 15.629 82.8988 15.629 82.9572C15.629 83.074 15.5706 83.1324 15.4538 83.1324H4.88086L8.50252 86.2284L8.21045 86.4036Z" fill="#081017"/>
<path d="M92.3274 74.1947C91.7432 74.1947 90.6918 73.4937 89.8156 72.1502C88.9978 70.982 87.0117 70.8651 87.0117 70.8651H73.226C73.1092 70.8651 73.0508 70.8067 73.0508 70.6899C73.0508 70.5731 73.1092 70.5146 73.226 70.5146H87.0117C87.1285 70.5146 89.2314 70.6315 90.1076 71.975C90.9254 73.2601 91.9185 73.8442 92.3274 73.8442C92.7362 73.8442 92.5026 73.9027 92.5026 74.0195C92.5026 74.1363 92.4442 74.1947 92.3274 74.1947Z" fill="#081017"/>
<path d="M64.5784 68.3537L62.8844 67.9448C62.8844 67.9448 62.7676 67.9448 62.7676 67.8279C62.7676 67.8279 62.7676 67.7111 62.7676 67.6527L63.1181 67.0102C63.1181 67.0102 63.1181 67.0102 63.1765 66.9517C65.3378 65.7835 68.4337 66.4844 68.609 66.4844C68.7258 66.4844 68.7842 66.6013 68.7258 66.7181C68.7258 66.8349 68.609 66.8933 68.4921 66.8349C68.4921 66.8349 65.4546 66.1339 63.3517 67.2438L63.1181 67.5943L64.5784 67.9448C64.6952 67.9448 64.7537 68.0616 64.6952 68.1784C64.6952 68.2368 64.5784 68.2953 64.52 68.2953L64.5784 68.3537Z" fill="#081017"/>
<path d="M67.617 68.2366C67.5586 68.2366 67.5002 68.2366 67.4418 68.1198C67.4418 68.1198 67.3249 67.8861 66.9744 67.8861C66.4487 67.8861 65.222 67.8861 65.0468 67.9445C64.9884 67.9445 64.8716 67.9445 64.8131 67.8277C64.8131 67.7693 64.8131 67.6525 64.93 67.594C65.1636 67.4772 66.6824 67.4772 66.9744 67.5356C67.3833 67.5356 67.617 67.7693 67.6754 67.8861C67.9091 67.8861 68.5516 67.8277 68.9605 67.7109C69.2526 67.6524 69.3694 67.3604 69.4278 67.1851C69.0774 67.1851 68.2011 67.0683 67.5002 67.0683C66.5071 67.0683 63.3528 67.302 63.2944 67.302C63.1776 67.302 63.1191 67.2435 63.1191 67.1267C63.1191 67.0099 63.1776 66.9515 63.2944 66.9515C63.4112 66.9515 66.5656 66.7178 67.5002 66.7178C68.4932 66.7178 69.6615 66.8931 69.6615 66.8931C69.7783 66.8931 69.8367 67.0099 69.8367 67.0683C69.8367 67.0683 69.7783 67.8861 69.1358 68.0613C68.5516 68.2366 67.7338 68.2366 67.6754 68.2366H67.617Z" fill="#081017"/>
<path d="M95.8909 66.9516L94.1969 66.5427C94.1969 66.5427 94.0801 66.5427 94.0801 66.4259C94.0801 66.4259 94.0801 66.3091 94.0801 66.2507L94.4306 65.6081C94.4306 65.6081 94.4306 65.6081 94.489 65.5497C96.6503 64.3814 99.7462 65.0824 99.9215 65.0824C100.038 65.0824 100.097 65.1992 100.038 65.3161C100.038 65.4329 99.9215 65.4913 99.8046 65.4329C99.8046 65.4329 96.7671 64.7319 94.6642 65.8418L94.4306 66.1923L95.8909 66.5427C96.0077 66.5427 96.0662 66.6596 96.0077 66.7764C96.0077 66.8348 95.8909 66.8932 95.8325 66.8932L95.8909 66.9516Z" fill="#081017"/>
<path d="M98.9256 66.8933C98.8672 66.8933 98.8088 66.8933 98.7504 66.7765C98.7504 66.7765 98.6335 66.5428 98.2831 66.5428C97.7573 66.5428 96.5306 66.5429 96.3554 66.6013C96.297 66.6013 96.1802 66.6013 96.1217 66.4845C96.1217 66.426 96.1217 66.3092 96.2386 66.2508C96.4722 66.134 97.991 66.134 98.2831 66.1924C98.6919 66.1924 98.9256 66.426 98.984 66.5428C99.2177 66.5428 99.8602 66.4844 100.269 66.3676C100.561 66.3092 100.678 66.0171 100.736 65.8419C100.386 65.8419 99.5097 65.7251 98.8088 65.7251C97.8742 65.7251 94.6614 65.9587 94.603 65.9587C94.4862 65.9587 94.4277 65.9003 94.4277 65.7835C94.4277 65.6666 94.4862 65.6082 94.603 65.6082C94.7198 65.6082 97.7573 65.3746 98.7504 65.3746H98.8088C99.8018 65.3746 100.97 65.5498 100.97 65.5498C101.087 65.5498 101.145 65.6666 101.145 65.7251C101.145 65.7251 101.087 66.5429 100.444 66.7181C99.8602 66.8933 99.0424 66.8933 98.984 66.8933H98.9256Z" fill="#081017"/>
<path d="M70.7124 87.2212C70.5955 87.2212 70.5371 87.1628 70.5371 87.046V70.398L71.7054 61.636L72.5816 57.0213C72.5816 56.9045 72.6984 56.846 72.8152 56.9044C72.9321 56.9044 72.9905 57.0213 72.9321 57.1381L72.0559 61.6944L70.8876 70.4565V87.046C70.8876 87.1628 70.8292 87.2212 70.7124 87.2212Z" fill="#081017"/>
<path d="M28.3036 85.9359C28.852 85.9359 29.2966 85.4913 29.2966 84.9429C29.2966 84.3944 28.852 83.9498 28.3036 83.9498C27.7551 83.9498 27.3105 84.3944 27.3105 84.9429C27.3105 85.4913 27.7551 85.9359 28.3036 85.9359Z" fill="black"/>
<path d="M28.305 86.1115C27.6624 86.1115 27.1367 85.5858 27.1367 84.9432C27.1367 84.3007 27.6624 83.775 28.305 83.775C28.9475 83.775 29.4733 84.3007 29.4733 84.9432C29.4733 85.5858 28.9475 86.1115 28.305 86.1115ZM28.305 84.1839C27.8377 84.1839 27.4872 84.5343 27.4872 85.0017C27.4872 85.469 27.8377 85.8194 28.305 85.8194C28.7723 85.8194 29.1228 85.469 29.1228 85.0017C29.1228 84.5343 28.7723 84.1839 28.305 84.1839Z" fill="#081017"/>
<path d="M27.1378 77.992C27.313 77.7 27.6051 77.5247 27.9556 77.5247C28.4229 77.5247 29.1823 77.5247 29.6496 77.6415C29.8832 77.6415 30.0585 77.9336 30.0001 78.1673C29.4743 80.0365 28.6565 82.782 28.6565 82.782L29.1238 82.4899C29.1238 82.4899 29.1823 82.4315 29.2407 82.3731L30.6426 79.3356C30.7594 79.0435 30.9931 78.8682 31.2852 78.7514C31.6941 78.5762 32.1614 78.6346 32.5118 78.9266L33.2128 79.5108C33.3296 79.6276 33.3296 79.8613 33.2128 79.9781L28.4229 83.6582C27.9556 84.0087 27.2546 83.7166 27.1962 83.1325L26.8457 79.3356C26.8457 78.8682 26.8457 78.4593 27.1378 78.0504V77.992Z" fill="#E6E6E6"/>
<path d="M34.673 81.7309C35.0235 81.7893 35.2572 82.0229 35.374 82.3734C35.4908 82.8407 35.7245 83.5417 35.7829 84.0674C35.7829 84.3011 35.6076 84.5347 35.374 84.5347C33.3879 84.5347 30.5841 84.5931 30.5841 84.5931L30.993 84.9436C30.993 84.9436 31.0514 84.9436 31.1098 85.002L34.4394 85.4694C34.7314 85.4694 35.0235 85.6446 35.1987 85.8782C35.4908 86.2287 35.5492 86.696 35.374 87.1049L35.0235 87.9227C34.9651 88.098 34.7314 88.1564 34.5562 88.0396L29.6494 84.5347C29.1821 84.1842 29.2405 83.4833 29.8247 83.2496L33.3879 81.7893C33.7968 81.614 34.2641 81.614 34.673 81.6725V81.7309Z" fill="#E6E6E6"/>
<path d="M33.2719 89.967C33.2719 90.3175 33.155 90.6095 32.863 90.7848C32.4541 91.0768 31.8115 91.4273 31.3442 91.661C31.1106 91.7778 30.8769 91.661 30.7601 91.4273C30.1759 89.5581 29.2997 86.8711 29.2997 86.8711L29.0661 87.3384V87.4552L29.5918 90.7848C29.5918 91.0768 29.5918 91.3689 29.4166 91.6026C29.1829 91.9531 28.774 92.1867 28.3067 92.1283H27.4305C27.2552 92.0699 27.1384 91.8362 27.1968 91.661L29.0661 85.9364C29.2413 85.3523 30.0007 85.2355 30.3512 85.7028L32.7462 88.6819C33.0382 89.0324 33.2135 89.4413 33.2135 89.9086L33.2719 89.967Z" fill="#E6E6E6"/>
<path d="M24.9764 91.0767C24.6843 91.1935 24.3339 91.1351 24.0418 90.9015C23.6329 90.6094 23.1072 90.0837 22.7567 89.7332C22.5814 89.558 22.6399 89.2659 22.8151 89.1491C24.4507 88.0392 26.7288 86.4036 26.7288 86.4036H26.2031C26.2031 86.2868 26.0863 86.3452 26.0863 86.3452L23.0487 87.8639C22.7567 87.9808 22.4646 88.0392 22.1725 87.9224C21.7636 87.8055 21.4132 87.455 21.2963 87.0462L21.1211 86.1699C21.1211 85.9947 21.2379 85.8195 21.4132 85.8195L27.4298 85.9363C28.0139 85.9363 28.3644 86.5788 28.0139 87.1046L25.911 90.2589C25.6774 90.6094 25.3269 90.9015 24.918 91.0767H24.9764Z" fill="#E6E6E6"/>
<path d="M21.4706 83.483C21.2953 83.1909 21.2369 82.8988 21.3537 82.5484C21.529 82.081 21.8211 81.4385 22.1131 80.9712C22.23 80.7375 22.522 80.6791 22.6973 80.8543C24.216 82.081 26.4358 83.8335 26.4358 83.8335V83.3077C26.3773 83.3077 26.3189 83.1909 26.3189 83.1909L23.9824 80.7375C23.8071 80.5039 23.6903 80.2118 23.6319 79.9197C23.6319 79.4524 23.8655 79.0435 24.216 78.8683L24.9754 78.401C25.1506 78.2841 25.3259 78.401 25.3843 78.5762L27.0199 84.3592C27.1951 84.9433 26.6694 85.469 26.0853 85.2938L22.4636 84.1839C22.0547 84.0671 21.6458 83.775 21.4122 83.4246L21.4706 83.483Z" fill="#E6E6E6"/>
<path d="M28.3045 74.7206C22.6383 74.7206 18.082 79.2769 18.082 84.943C18.082 90.6091 22.6383 95.1654 28.3045 95.1654C33.9706 95.1654 38.5269 90.6091 38.5269 84.943C38.5269 79.2769 33.9706 74.7206 28.3045 74.7206ZM28.3045 92.6536C24.0402 92.6536 20.5938 89.2072 20.5938 84.943C20.5938 80.6788 24.0402 77.2324 28.3045 77.2324C32.5687 77.2324 36.0151 80.6788 36.0151 84.943C36.0151 89.2072 32.5687 92.6536 28.3045 92.6536Z" fill="#F41BA2"/>
<path d="M28.3059 95.3408C22.5813 95.3408 17.9082 90.6677 17.9082 84.9431C17.9082 79.2186 22.5813 74.5455 28.3059 74.5455C34.0304 74.5455 38.7035 79.2186 38.7035 84.9431C38.7035 90.6677 34.0304 95.3408 28.3059 95.3408ZM28.3059 74.896C22.7565 74.896 18.2587 79.3938 18.2587 84.9431C18.2587 90.4924 22.7565 94.9903 28.3059 94.9903C33.8552 94.9903 38.353 90.4924 38.353 84.9431C38.353 79.3938 33.8552 74.896 28.3059 74.896ZM28.3059 92.829C23.9832 92.829 20.42 89.3242 20.42 84.9431C20.42 80.5621 23.9248 77.0573 28.3059 77.0573C32.6869 77.0573 36.1917 80.5621 36.1917 84.9431C36.1917 89.3242 32.6869 92.829 28.3059 92.829ZM28.3059 77.4662C24.1585 77.4662 20.7705 80.8542 20.7705 85.0015C20.7705 89.1489 24.1585 92.5369 28.3059 92.5369C32.4532 92.5369 35.8413 89.1489 35.8413 85.0015C35.8413 80.8542 32.4532 77.4662 28.3059 77.4662Z" fill="#081017"/>
<path d="M39.462 87.0459V83.3074C39.462 80.1531 38.0601 77.2908 35.8987 75.3631C34.7889 74.9542 33.5622 74.7206 32.2771 74.7206C30.992 74.7206 30.9336 74.779 30.291 74.8958C35.0225 75.8305 38.5274 79.9778 38.5274 84.943C38.5274 89.9082 34.9641 94.0556 30.291 94.9902C30.9336 95.107 31.5761 95.1654 32.2771 95.1654C37.1839 95.1654 41.3312 91.6606 42.2659 87.0459H39.462Z" fill="black"/>
<path d="M32.2748 95.3407C31.6322 95.3407 30.9313 95.2823 30.2887 95.1655C30.2303 95.1655 30.1719 95.1071 30.1719 94.9902C30.1719 94.8734 30.1719 94.815 30.2887 94.815C35.0202 93.8804 38.4082 89.733 38.4082 84.943C38.4082 80.1531 35.0202 76.0057 30.2887 75.0711C30.2303 75.0711 30.1719 75.0127 30.1719 74.8959C30.1719 74.779 30.1719 74.7206 30.2887 74.7206C32.2164 74.3701 34.144 74.487 35.9548 75.1879C38.2914 77.2324 39.5765 80.1531 39.5765 83.249V86.8123H42.2051C42.2051 86.8123 42.322 86.8123 42.322 86.8707V86.9875C41.3289 91.7775 37.0647 95.2239 32.1579 95.2239L32.2748 95.3407ZM31.2233 94.9318C31.5738 94.9318 31.9243 94.9318 32.2748 94.9318C36.9479 94.9318 41.0369 91.6606 42.0883 87.1628H39.5181C39.4013 87.1628 39.3428 87.1044 39.3428 86.9875V83.249C39.3428 80.2699 38.0577 77.4661 35.838 75.48C34.3777 74.9543 32.8005 74.7206 31.2817 74.8959C35.6628 76.181 38.8171 80.2115 38.8171 84.8846C38.8171 89.5577 35.7212 93.5883 31.2817 94.8734L31.2233 94.9318Z" fill="#081017"/>
<path d="M93.1412 84.9429C93.1412 79.7441 97.055 75.4214 102.079 74.7789C101.67 74.7789 101.261 74.7205 100.793 74.7205C98.3985 74.7205 96.2372 75.5383 94.4848 76.8818C93.1412 78.6342 92.3235 80.9123 92.3235 83.3073V87.0458H90.8047C91.7977 91.6605 95.8867 95.1653 100.793 95.1653C105.7 95.1653 101.67 95.1653 102.079 95.1069C97.055 94.4644 93.1412 90.2001 93.1412 84.9429Z" fill="black"/>
<path d="M100.795 95.3409C95.8881 95.3409 91.6239 91.836 90.6309 87.1045V86.9877C90.6309 86.9877 90.6893 86.9293 90.7477 86.9293H92.0912V83.366C92.0912 80.9711 92.8506 78.6929 94.3109 76.8237C96.1802 75.3633 98.3415 74.6039 100.678 74.6039C103.015 74.6039 101.496 74.6039 101.963 74.6624C102.022 74.6624 102.138 74.7208 102.138 74.8376C102.138 74.9544 102.08 75.0128 101.963 75.0128C96.9396 75.6554 93.1427 79.9196 93.1427 85.0016C93.1427 90.0836 96.9396 94.3478 101.963 94.9904C102.022 94.9904 102.138 95.0488 102.138 95.1656C102.138 95.2824 102.08 95.3409 101.963 95.3409C101.496 95.3409 101.087 95.3993 100.678 95.3993L100.795 95.3409ZM91.0398 87.2213C92.0912 91.6608 96.0634 94.932 100.678 94.9904C96.1802 93.8221 92.9674 89.7331 92.9674 84.9432C92.9674 80.1532 96.1802 76.0643 100.678 74.896C98.4583 74.896 96.4138 75.6554 94.6614 76.9989C93.2595 78.8097 92.5585 81.0295 92.5585 83.3076V87.0461C92.5585 87.1629 92.5001 87.2213 92.3833 87.2213H91.0398Z" fill="#081017"/>
<path d="M43.0261 81.0293C43.0261 81.0293 42.9677 81.0293 42.9092 81.0293C42.8508 80.9709 42.7924 80.8541 42.9092 80.7957C43.0261 80.6204 46.2388 76.8235 50.3862 76.8235C54.5336 76.8235 82.9227 76.473 83.2148 76.473C83.3316 76.473 83.39 76.5314 83.39 76.6483C83.39 76.7651 83.3316 76.8235 83.2148 76.8235C82.9227 76.8235 54.4752 77.174 50.3862 77.174C46.2973 77.174 43.2013 80.9709 43.1429 81.0293L43.0261 81.0877V81.0293Z" fill="#081017"/>
<path d="M42.0903 83.3076C41.9735 83.3076 41.9151 83.2492 41.9151 83.1324L40.9805 66.5429C40.9805 65.9587 40.9805 65.3746 41.1557 64.8489L41.5062 63.4469C41.5062 63.3301 41.623 63.2717 41.7398 63.3301C41.8567 63.3301 41.9151 63.4469 41.8567 63.5638L41.5062 64.9657C41.3894 65.4914 41.331 66.0171 41.331 66.6013L42.2656 83.1908C42.2656 83.3076 42.2072 83.3661 42.0903 83.3661V83.3076Z" fill="#081017"/>
<path d="M49.976 63.2135C49.8592 63.2135 49.8008 63.1551 49.8008 63.0383C49.8008 62.9214 49.8592 62.863 49.976 62.863L71.4723 61.8116C71.5891 61.8116 71.6476 61.87 71.6476 61.9868C71.6476 62.1036 71.5891 62.1621 71.4723 62.1621L49.976 63.2135Z" fill="#081017"/>
<path d="M73.7495 62.1616C73.6326 62.1616 73.5742 62.1032 73.5742 61.9863C73.5742 61.8695 73.6326 61.8111 73.7495 61.8111L94.8953 60.5844L108.798 57.8974L104.183 54.451C104.008 54.451 103.19 54.1005 101.847 53.8084C101.73 53.8084 101.671 53.6916 101.73 53.5747C101.788 53.4579 101.847 53.3995 101.963 53.4579C103.482 53.8084 104.358 54.1589 104.358 54.1589L109.265 57.8974C109.265 57.8974 109.323 58.0142 109.323 58.0726C109.323 58.131 109.265 58.1894 109.207 58.1894L94.8953 60.9933L73.691 62.22L73.7495 62.1616Z" fill="#081017"/>
<path d="M97.1745 52.9322C96.6488 52.8738 96.5319 52.8738 96.2399 52.8154C96.123 52.8154 95.9478 52.8154 95.6557 52.8154C95.5389 52.8154 95.4805 52.757 95.4805 52.6401C95.4805 52.5233 95.5389 52.4649 95.6557 52.4649C95.8894 52.4649 96.0646 52.4649 96.2399 52.4649C96.5319 52.4649 96.5903 52.4649 97.1745 52.5817C97.2913 52.5817 97.3497 52.6986 97.3497 52.757C97.3497 52.8154 97.2913 52.9322 97.1745 52.9322Z" fill="#081017"/>
<path d="M48.8081 58.6566C48.8081 58.6566 48.6912 58.6566 48.6328 58.5982C48.6328 58.5398 48.6328 58.4229 48.6328 58.3645C48.6328 58.3645 53.8316 55.2102 59.2057 53.2825C61.075 52.5816 63.1779 52.1142 65.2808 51.8222L70.3044 51.3549C70.4212 51.3549 70.4796 51.4133 70.4796 51.5301C70.4796 51.6469 70.4212 51.7053 70.3044 51.7053L65.2808 52.1726C63.1779 52.4647 61.1334 52.932 59.2641 53.633C53.8901 55.5607 48.8081 58.6566 48.7496 58.715C48.7496 58.715 48.7496 58.715 48.6328 58.715L48.8081 58.6566Z" fill="#081017"/>
<path d="M99.2191 59.2993C99.1607 59.2993 99.1023 59.2993 99.0439 59.1825L95.5391 52.6986C95.5391 52.6402 95.5391 52.5233 95.5975 52.4649C95.6559 52.4649 95.7727 52.4649 95.8311 52.5233L99.336 59.0073C99.336 59.0657 99.336 59.1825 99.2775 59.2409C99.2775 59.2409 99.2776 59.2409 99.2191 59.2409V59.2993Z" fill="#081017"/>
<path d="M101.145 69.5218C101.145 69.5218 101.145 69.5218 101.087 69.5218C101.028 69.5218 100.97 69.405 100.97 69.2882C100.97 69.2882 102.605 65.2576 102.897 64.031C103.131 63.0963 101.145 61.5191 100.327 60.9934C100.269 60.9934 100.21 60.8182 100.327 60.7598C100.444 60.7014 100.502 60.6429 100.561 60.7598C100.853 60.9934 103.598 62.8043 103.248 64.2062C102.897 65.4913 101.379 69.3466 101.32 69.5218C101.32 69.5803 101.203 69.6387 101.145 69.6387V69.5218Z" fill="#081017"/>
<path d="M18.5483 67.6526C18.4315 67.6526 18.373 67.5942 18.373 67.4773C18.373 67.3605 18.4315 67.3021 18.5483 67.3021C18.7235 67.3021 36.4229 66.017 44.7761 65.4328C53.1293 64.8487 78.3057 64.5566 78.5393 64.5566C78.6561 64.5566 78.7146 64.6151 78.7146 64.7319C78.7146 64.8487 78.6561 64.9071 78.5393 64.9071C78.3057 64.9071 53.1293 65.2576 44.7761 65.7833C36.4229 66.3675 18.7235 67.6526 18.5483 67.6526Z" fill="#081017"/>
<path d="M83.8549 64.6735C83.7381 64.6735 83.6797 64.6151 83.6797 64.4983C83.6797 64.3815 83.7381 64.3231 83.8549 64.3231H92.0913L101.496 63.33C101.613 63.33 101.671 63.3884 101.671 63.5053C101.671 63.6221 101.613 63.6805 101.496 63.6805L92.0913 64.6735H83.8549Z" fill="#081017"/>
<path d="M11.5401 71.1576C11.4816 71.1576 11.4232 71.1576 11.3648 71.0408C11.3648 70.9824 11.3648 70.8655 11.4232 70.8071L11.7153 70.6319L6.34123 71.1576L5.64027 71.0408C5.58185 71.0408 5.52344 70.9824 5.52344 70.924C5.52344 70.8655 5.52344 70.8071 5.58185 70.7487C7.0422 69.5804 8.61937 68.7042 10.3718 68.0033L10.6639 67.8864L17.9072 67.4775C17.9656 67.4775 18.024 67.4775 18.0824 67.5944C18.0824 67.6528 18.0824 67.7696 18.024 67.7696L13.7014 70.8656C13.7014 70.8656 13.7014 70.8656 13.643 70.8656L11.5985 71.0992L11.5401 71.1576ZM6.10758 70.7487H6.39965L12.4163 70.223C12.5331 70.223 12.5915 70.223 12.5915 70.3398C12.5915 70.3982 12.5915 70.5151 12.5331 70.5735L12.2994 70.7487L13.5845 70.5735L17.3814 67.828L10.7807 68.1785L10.4886 68.2953C8.91144 68.8795 7.45109 69.7557 6.10758 70.7487Z" fill="#081017"/>
<path d="M11.363 82.4897H5.69688C5.58005 82.4897 5.52164 82.4312 5.52164 82.3144C5.52164 82.1976 5.58005 82.1392 5.69688 82.1392H11.3046L12.4145 80.9125L9.96109 73.6107L5.11274 73.9028C4.99591 73.9028 4.9375 73.8444 4.9375 73.7276C4.9375 73.6107 4.99591 73.5523 5.11274 73.5523L10.1363 73.2603C10.1947 73.2603 10.3116 73.2603 10.3116 73.3771L12.8818 80.9125C12.8818 80.9709 12.8818 81.0293 12.8818 81.0877L11.6551 82.4897C11.6551 82.4897 11.5967 82.5481 11.5383 82.5481L11.363 82.4897Z" fill="#081017"/>
<path d="M10.8386 76.9404H7.45063C7.3338 76.9404 7.27539 76.882 7.27539 76.7651V76.0642C7.27539 75.9473 7.3338 75.8889 7.45063 75.8889C7.56746 75.8889 7.62587 75.9473 7.62587 76.0642V76.5899H10.8386C10.9555 76.5899 11.0139 76.6483 11.0139 76.7651C11.0139 76.882 10.9555 76.9404 10.8386 76.9404Z" fill="#081017"/>
<path d="M11.6568 78.5176H8.2104C8.09357 78.5176 8.03516 78.4592 8.03516 78.3424V77.6998C8.03516 77.583 8.09357 77.5246 8.2104 77.5246C8.32723 77.5246 8.38564 77.583 8.38564 77.6998V78.1672H11.6568C11.7736 78.1672 11.8321 78.2256 11.8321 78.3424C11.8321 78.4592 11.7736 78.5176 11.6568 78.5176Z" fill="#081017"/>
<path d="M48.2238 63.33H40.5131C40.3963 63.33 40.3379 63.2715 40.3379 63.1547C40.3379 63.0379 40.3963 62.9795 40.5131 62.9795H48.0485H46.1209C45.3031 62.9795 44.6021 62.3369 44.6021 61.4607C44.6021 60.5845 45.1278 59.8251 45.8872 59.4747L46.8218 59.0657C47.8149 58.6569 48.9247 58.54 49.9762 58.8905C50.7356 59.1242 51.2613 59.8251 51.2613 60.6429V61.2271C51.2613 62.1033 50.5603 62.7458 49.6841 62.7458C48.8079 62.7458 49.5089 62.6874 49.5089 62.5706C49.5089 62.4538 49.5673 62.3953 49.6841 62.3953C50.3267 62.3953 50.9108 61.8696 50.9108 61.2271V60.6429C50.9108 60.0004 50.5019 59.4162 49.8593 59.241C48.9247 58.9489 47.8733 59.0073 46.9971 59.4162L46.0624 59.8251C45.4199 60.1172 44.9526 60.7598 44.9526 61.5191C44.9526 62.2785 45.4783 62.6874 46.1209 62.6874H48.2238C48.3406 62.6874 48.399 62.7458 48.399 62.8626V63.2716C48.399 63.3884 48.3406 63.4468 48.2238 63.4468V63.33Z" fill="#081017"/>
<path d="M127.667 67.7695H121.3C119.022 67.7695 116.86 66.8348 115.283 65.1993L114.699 64.5567C114.524 64.3815 114.465 64.0894 114.582 63.8557C114.699 63.6221 114.933 63.4468 115.166 63.4468H122.527C122.585 63.4468 122.643 63.4468 122.643 63.5053L122.877 63.8557H126.031C126.148 63.8557 126.207 63.9141 126.207 64.031C126.207 64.1478 126.148 64.2062 126.031 64.2062H122.819C122.76 64.2062 122.702 64.2062 122.702 64.1478L122.468 63.7973H115.225C115.108 63.7973 114.991 63.8557 114.933 63.9726C114.874 64.0894 114.933 64.2062 114.991 64.323L115.575 64.9656C117.094 66.4844 119.197 67.419 121.358 67.419H127.725C127.842 67.419 127.901 67.4774 127.901 67.5942C127.901 67.7111 127.842 67.7695 127.725 67.7695H127.667Z" fill="#081017"/>
<path d="M127.316 66.9514H124.045H123.928L121.708 64.6148H115.984C115.867 64.6148 115.809 64.5564 115.809 64.4396C115.809 64.3228 115.867 64.2643 115.984 64.2643H121.767H121.884L124.103 66.6009H127.316C127.433 66.6009 127.491 66.6593 127.491 66.7761C127.491 66.893 127.433 66.9514 127.316 66.9514Z" fill="#081017"/>
<path d="M90.5736 84.5343H88.7627L83.2134 83.366H46.4711L43.4336 84.3006H41.6228H41.506C41.506 84.3006 41.506 84.2422 41.506 84.1838C41.506 84.1838 41.506 82.1393 40.2793 78.1088C39.6951 76.2395 36.8913 70.2813 25.1501 71.2744C16.0959 72.0337 15.5118 83.0155 15.5118 83.1324C15.5118 83.2492 15.4534 83.3076 15.3366 83.3076H4.29633C4.17951 83.3076 4.12109 83.2492 4.12109 83.1324V72.1506C4.12109 72.1506 4.12109 72.0337 4.17951 72.0337L4.82206 71.4496C6.51606 69.9308 8.3853 68.7626 10.4882 67.9448L18.5493 64.7904L36.6576 62.9212L54.0065 53.7502C55.8758 52.7572 57.8034 51.9394 59.7895 51.2968C60.8993 50.9463 62.0676 50.6543 63.3527 50.479L65.7477 50.1285C65.8645 50.1285 65.9229 50.1285 65.9229 50.2454C65.9229 50.3622 65.9229 50.4206 65.8061 50.4206L63.4111 50.7711C62.1844 50.9463 61.0162 51.2384 59.9063 51.5889C57.9202 52.2314 55.9926 53.0492 54.1818 54.0423L36.7744 63.2717C36.7744 63.2717 36.7744 63.2717 36.716 63.2717L18.5493 65.1409L10.4882 68.2952C8.44372 69.113 6.57448 70.2813 4.93889 71.7417L4.35475 72.2674V82.9571H15.0445C15.0445 82.3146 15.3366 79.8612 16.4464 77.3494C18.1404 73.4941 21.1195 71.2743 24.9748 70.9239C37.0081 69.8724 39.8704 76.0643 40.4545 77.9919C41.506 81.4968 41.6812 83.4244 41.6812 84.0086H43.3168L46.3543 83.074H83.2134L88.7627 84.2422H90.3399C90.3399 83.2492 90.632 78.4009 94.0784 74.9544C96.5318 72.4426 99.9782 71.2159 104.418 71.2159C111.719 71.2159 115.867 75.0128 116.801 82.4898H126.615C127.55 82.4898 128.309 81.7304 128.309 80.7958V68.2368C128.309 67.8279 128.192 67.419 127.9 67.0686L126.498 65.2577C126.264 64.9657 126.206 64.6736 126.264 64.3231L126.381 63.2717C126.44 62.5707 126.089 61.8113 125.447 61.4608L114.874 55.1521C114.815 55.1521 114.757 55.0353 114.815 54.9769C114.874 54.9185 114.874 54.8601 114.932 54.8601L116.743 54.3928C117.035 54.3343 117.21 54.1007 117.269 53.8086V53.575L112.245 52.9324C112.128 52.9324 112.07 52.8156 112.07 52.7572C112.07 52.6987 112.187 52.5819 112.245 52.5819L117.444 53.2245C117.444 53.2245 117.502 53.2245 117.561 53.2829C117.561 53.2829 117.561 53.3413 117.561 53.3997V53.8086C117.444 54.2175 117.152 54.568 116.685 54.6848L115.283 55.0353L125.505 61.1103C126.264 61.5777 126.673 62.3955 126.615 63.2717L126.498 64.3231C126.498 64.5568 126.498 64.7904 126.673 64.9657L128.075 66.7765C128.367 67.1854 128.543 67.6527 128.543 68.12V80.679C128.543 81.7888 127.608 82.7235 126.498 82.7235H116.568C116.509 82.7235 116.392 82.6651 116.392 82.5482C115.516 75.0713 111.603 71.3912 104.359 71.3912C97.1159 71.3912 96.6486 72.6179 94.3121 75.0128C90.632 78.7513 90.6904 84.1838 90.6904 84.2422C90.6904 84.3006 90.6904 84.359 90.6904 84.359C90.6904 84.359 90.632 84.359 90.5736 84.359V84.5343Z" fill="#081017"/>
<path d="M103.366 85.9359C103.915 85.9359 104.359 85.4913 104.359 84.9429C104.359 84.3944 103.915 83.9498 103.366 83.9498C102.818 83.9498 102.373 84.3944 102.373 84.9429C102.373 85.4913 102.818 85.9359 103.366 85.9359Z" fill="black"/>
<path d="M103.366 86.1115C102.723 86.1115 102.197 85.5858 102.197 84.9432C102.197 84.3007 102.723 83.775 103.366 83.775C104.008 83.775 104.534 84.3007 104.534 84.9432C104.534 85.5858 104.008 86.1115 103.366 86.1115ZM103.366 84.1839C102.898 84.1839 102.548 84.5343 102.548 85.0017C102.548 85.469 102.898 85.8194 103.366 85.8194C103.833 85.8194 104.183 85.469 104.183 85.0017C104.183 84.5343 103.833 84.1839 103.366 84.1839Z" fill="#081017"/>
<path d="M102.138 77.992C102.313 77.7 102.605 77.5247 102.956 77.5247C103.423 77.5247 104.182 77.5247 104.65 77.6415C104.883 77.6415 105.058 77.9336 105 78.1673C104.474 80.0365 103.657 82.782 103.657 82.782L104.124 82.4899C104.124 82.4899 104.182 82.4315 104.241 82.3731L105.643 79.3356C105.759 79.0435 105.993 78.8682 106.285 78.7514C106.694 78.5762 107.161 78.6346 107.512 78.9266L108.213 79.5108C108.33 79.6276 108.33 79.8613 108.213 79.9781L103.423 83.6582C102.956 84.0087 102.255 83.7166 102.196 83.1325L101.846 79.3356C101.846 78.8682 101.904 78.4593 102.138 78.0504V77.992Z" fill="#E6E6E6"/>
<path d="M109.673 81.7309C110.024 81.7893 110.257 82.0229 110.316 82.3734C110.432 82.8407 110.666 83.5417 110.724 84.0674C110.724 84.3011 110.549 84.5347 110.316 84.5347C108.33 84.5347 105.526 84.5931 105.526 84.5931L105.935 84.9436C105.935 84.9436 105.993 84.9436 106.051 85.002L109.381 85.4694C109.673 85.4694 109.965 85.6446 110.14 85.8782C110.432 86.2287 110.491 86.696 110.374 87.1049L110.024 87.9227C109.965 88.098 109.731 88.1564 109.556 88.0396L104.649 84.5347C104.182 84.1842 104.241 83.4833 104.825 83.2496L108.388 81.7893C108.797 81.614 109.264 81.614 109.673 81.6725V81.7309Z" fill="#E6E6E6"/>
<path d="M108.272 89.967C108.272 90.3175 108.155 90.6095 107.863 90.7848C107.454 91.0768 106.812 91.4273 106.344 91.661C106.111 91.7778 105.877 91.661 105.76 91.4273C105.176 89.5581 104.3 86.8711 104.3 86.8711L104.066 87.3384V87.4552L104.592 90.7848C104.592 91.0768 104.592 91.3689 104.417 91.6026C104.183 91.9531 103.774 92.1867 103.307 92.1283H102.43C102.255 92.0699 102.138 91.8362 102.197 91.661L104.066 85.9364C104.241 85.3523 105.001 85.2355 105.351 85.7028L107.746 88.6819C108.038 89.0324 108.213 89.4413 108.213 89.9086L108.272 89.967Z" fill="#E6E6E6"/>
<path d="M99.9785 91.0767C99.6865 91.1935 99.336 91.1351 99.0439 90.9015C98.6934 90.6094 98.1093 90.0837 97.7588 89.7332C97.5836 89.558 97.642 89.2659 97.8172 89.1491C99.4528 88.0392 101.731 86.4036 101.731 86.4036H101.205C101.205 86.2868 101.088 86.3452 101.088 86.3452L98.0509 87.8639C97.8172 87.9808 97.4668 88.0392 97.1747 87.9224C96.7658 87.8055 96.4153 87.455 96.3569 87.0462L96.1816 86.1699C96.1816 85.9947 96.2985 85.8195 96.4737 85.8195L102.49 85.9363C103.074 85.9363 103.425 86.5788 103.074 87.1046L100.972 90.2589C100.738 90.6094 100.387 90.9015 99.9785 91.0767Z" fill="#E6E6E6"/>
<path d="M96.4729 83.483C96.2392 83.1909 96.2392 82.8988 96.356 82.5484C96.5313 82.081 96.8233 81.4385 97.1154 80.9712C97.2322 80.7375 97.5243 80.6791 97.6996 80.8543C99.2183 82.081 101.438 83.8335 101.438 83.8335V83.3077C101.38 83.3077 101.321 83.1909 101.321 83.1909L98.9847 80.7375C98.751 80.5039 98.6926 80.2118 98.6342 79.9197C98.6342 79.4524 98.8678 79.0435 99.2183 78.8683L100.036 78.401C100.211 78.2841 100.387 78.401 100.445 78.5762L102.081 84.3592C102.256 84.9433 101.73 85.469 101.146 85.2938L97.5243 84.1839C97.1154 84.0671 96.7065 83.775 96.4729 83.4246V83.483Z" fill="#E6E6E6"/>
<path d="M103.365 74.7206C97.6989 74.7206 93.1426 79.2769 93.1426 84.943C93.1426 90.6091 97.6989 95.1654 103.365 95.1654C109.031 95.1654 113.587 90.6091 113.587 84.943C113.587 79.2769 109.031 74.7206 103.365 74.7206ZM103.365 92.6536C99.1008 92.6536 95.6544 89.2072 95.6544 84.943C95.6544 80.6788 99.1008 77.2324 103.365 77.2324C107.629 77.2324 111.076 80.6788 111.076 84.943C111.076 89.2072 107.629 92.6536 103.365 92.6536Z" fill="#F41BA2"/>
<path d="M103.366 95.3408C97.6419 95.3408 92.9688 90.6677 92.9688 84.9431C92.9688 79.2186 97.6419 74.5455 103.366 74.5455C109.091 74.5455 113.764 79.2186 113.764 84.9431C113.764 90.6677 109.091 95.3408 103.366 95.3408ZM103.366 74.896C97.8171 74.896 93.3192 79.3938 93.3192 84.9431C93.3192 90.4924 97.8171 94.9903 103.366 94.9903C108.916 94.9903 113.414 90.4924 113.414 84.9431C113.414 79.3938 108.916 74.896 103.366 74.896ZM103.366 92.829C99.0438 92.829 95.4805 89.3242 95.4805 84.9431C95.4805 80.5621 98.9854 77.0573 103.366 77.0573C107.747 77.0573 111.252 80.5621 111.252 84.9431C111.252 89.3242 107.747 92.829 103.366 92.829ZM103.366 77.4662C99.219 77.4662 95.831 80.8542 95.831 85.0015C95.831 89.1489 99.219 92.5369 103.366 92.5369C107.514 92.5369 110.902 89.1489 110.902 85.0015C110.902 80.8542 107.514 77.4662 103.366 77.4662Z" fill="#081017"/>
<path d="M109.032 36.5761L103.074 35.4662C103.074 35.4662 103.074 37.9196 105.06 37.4523C103.717 38.1533 102.841 39.2047 103.542 39.7889C105.06 39.4384 109.675 38.3869 109.675 38.3869C109.675 38.3869 110.61 40.4898 113.706 40.4898C115.925 40.4898 117.561 38.679 117.561 38.679L112.128 32.5455C112.128 32.5455 110.434 31.7862 109.266 31.7277C108.098 31.6693 107.397 31.7277 107.397 31.7277C107.397 31.7277 107.105 32.3119 107.923 32.7208C108.74 33.1297 110.61 33.2465 110.668 34.1811H107.63C107.63 34.1811 107.631 35.6999 110.902 35.6999C111.719 35.6999 112.654 36.284 111.194 36.284H109.441C109.441 36.284 109.909 37.5691 112.245 37.4523" fill="white"/>
<path d="M115.573 36.3427C115.573 36.3427 113.938 35.7001 113.12 34.6486C112.302 33.5972 111.776 32.3705 110.55 32.02C109.323 31.6695 107.688 31.728 107.688 31.728C107.688 31.728 108.505 33.3051 109.849 33.2467C109.849 33.2467 110.783 33.3635 110.842 34.2398H107.804C107.804 34.2398 107.687 35.4664 109.849 35.6417C112.01 35.8169 112.069 36.1674 112.069 36.2258C112.069 36.2842 109.849 36.3427 109.849 36.3427C109.849 36.3427 110.199 37.3357 111.426 37.5693C112.653 37.803 116.683 37.5693 116.683 37.5693C116.683 37.5693 115.457 36.9268 115.69 36.4011L115.573 36.3427Z" fill="#F41BA2"/>
<path d="M119.37 35.6998C119.37 35.6998 118.728 35.8166 118.553 36.1671C118.377 36.5176 117.501 37.6858 118.611 37.9779C119.721 38.27 120.48 37.7443 120.48 37.7443L120.889 36.9849L121.707 36.868C121.707 36.868 121.999 36.1671 121.415 35.8166C120.831 35.4661 119.429 35.6998 119.429 35.6998H119.37Z" fill="#F41BA2"/>
<path d="M116.157 36.9267C116.157 36.9267 116.041 36.9267 116.041 36.8683C115.924 36.7515 115.398 35.9921 115.515 35.5248C115.515 35.408 115.632 35.2911 115.749 35.2327C115.982 35.1159 116.157 35.1159 116.333 35.2327C116.274 34.9991 116.216 34.7654 116.333 34.5902C116.449 34.4149 116.683 34.4149 116.975 34.4733C118.027 34.7654 118.611 35.5832 118.611 35.5832C118.669 35.6416 118.611 35.7585 118.611 35.8169C118.552 35.8753 118.436 35.8169 118.377 35.8169C118.377 35.8169 117.851 35.0575 116.917 34.8238C116.683 34.7654 116.683 34.8238 116.683 34.8238C116.683 34.8822 116.742 35.2911 116.975 35.6416C116.975 35.7 116.975 35.8169 116.975 35.8753C116.917 35.8753 116.8 35.8753 116.742 35.8753C116.742 35.8753 116.391 35.4664 115.982 35.6416C115.982 35.6416 115.982 35.6416 115.982 35.7C115.982 35.9337 116.216 36.4594 116.449 36.7515C116.508 36.8099 116.449 36.9267 116.449 36.9851C116.449 36.9851 116.391 36.9851 116.333 36.9851L116.157 36.9267Z" fill="#081017"/>
<path d="M114.756 36.1673C114.698 36.1673 113.237 35.8168 111.777 33.4802C110.609 31.611 108.214 31.7862 107.571 31.8446C107.571 32.1367 107.863 32.7209 109.09 32.9545C109.207 32.9545 109.265 33.0713 109.207 33.1882C109.148 33.305 109.09 33.3634 108.973 33.305C106.987 32.8961 107.162 31.7278 107.162 31.6694C107.162 31.611 107.221 31.5526 107.279 31.4942C107.279 31.4942 110.492 30.91 111.952 33.2466C113.296 35.4079 114.698 35.7584 114.756 35.7584C114.873 35.7584 114.931 35.8752 114.873 35.992C114.873 36.0504 114.756 36.1089 114.698 36.1089L114.756 36.1673Z" fill="#081017"/>
<path d="M121.767 37.1019H119.197C119.08 37.1019 119.021 37.0435 119.021 36.9266C119.021 36.8098 119.08 36.7514 119.197 36.7514H121.592C121.592 36.2841 121.416 35.992 121.124 35.8168C120.307 35.2911 118.671 36.1088 118.613 36.1088C118.554 36.1088 118.437 36.1089 118.379 36.0504C118.379 35.992 118.379 35.8752 118.437 35.8168C118.496 35.8168 120.248 34.9406 121.241 35.5247C121.65 35.7584 121.884 36.2257 121.884 36.9266V37.0435C121.884 37.0435 121.825 37.0435 121.767 37.0435V37.1019Z" fill="#081017"/>
<path d="M119.311 38.1535C118.844 38.1535 118.435 38.1535 118.435 38.0951C118.318 38.0951 118.26 37.9782 118.26 37.9198C118.26 37.8614 118.377 37.7446 118.435 37.7446C118.435 37.7446 119.779 37.9198 120.304 37.6277C120.83 37.3941 120.713 36.9268 120.713 36.9268C120.713 36.8099 120.713 36.7515 120.83 36.6931C120.947 36.6931 121.005 36.6931 121.064 36.8099C121.064 37.0436 121.064 37.5693 120.421 37.8614C120.129 38.0366 119.603 38.0366 119.194 38.0366L119.311 38.1535Z" fill="#081017"/>
<path d="M113.939 40.782C113.705 40.782 113.471 40.782 113.238 40.782C110.668 40.4899 109.791 39.2048 109.616 38.7375C108.798 38.9128 104.709 39.789 103.483 40.1395C103.424 40.1395 103.366 40.1395 103.307 40.1395C103.249 40.1395 103.015 39.789 103.074 39.3217C103.132 38.8544 103.483 38.4455 104.184 38.0366C104.242 38.0366 104.359 38.0366 104.417 38.095C104.417 38.1534 104.417 38.2702 104.359 38.3286C103.833 38.6791 103.483 39.0296 103.424 39.3801C103.424 39.5553 103.424 39.7306 103.483 39.789C104.943 39.3801 109.441 38.4455 109.675 38.387C109.733 38.387 109.85 38.387 109.908 38.5039C109.908 38.5623 110.492 40.1395 113.296 40.4315C116.158 40.782 117.502 38.7959 117.56 38.7375C117.56 38.6791 117.736 38.6207 117.794 38.7375C117.852 38.8544 117.911 38.9128 117.794 38.9712C117.794 38.9712 116.509 40.8988 113.88 40.8988L113.939 40.782Z" fill="#081017"/>
<path d="M104.359 37.6864C104.067 37.6864 103.775 37.5696 103.541 37.3944C102.957 36.9271 102.898 35.9924 102.898 35.934C102.898 35.8756 102.898 35.8172 102.957 35.8172H103.074L109.032 36.9271C109.149 36.9271 109.207 37.0439 109.149 37.1607C109.09 37.2775 109.032 37.336 108.915 37.2775L103.191 36.2261C103.191 36.5182 103.366 36.9271 103.658 37.2191C103.891 37.3944 104.125 37.4528 104.476 37.3944C104.592 37.3944 104.651 37.3944 104.709 37.5112C104.709 37.628 104.709 37.6864 104.592 37.7449C104.476 37.7449 104.359 37.7449 104.3 37.7449L104.359 37.6864Z" fill="#081017"/>
<path d="M117.501 37.1018C117.326 37.1018 117.15 36.9266 117.15 36.7514C117.15 36.5761 117.326 36.4009 117.501 36.4009C117.676 36.4009 117.851 36.5761 117.851 36.7514C117.851 36.9266 117.676 37.1018 117.501 37.1018Z" fill="#081017"/>
<path d="M82.5714 52.4063C81.0527 52.4063 78.7745 52.2895 76.7884 51.7054C75.2697 51.2381 73.8678 50.3034 72.7579 49.0183C71.1807 47.1491 70.3045 45.864 70.2461 45.2798C70.2461 45.163 70.2461 45.1046 70.3629 45.1046C70.4797 45.1046 70.5382 45.1046 70.5382 45.2214C70.5966 45.7472 71.4728 46.9739 72.9915 48.7847C74.043 50.0698 75.3865 50.946 76.9053 51.4133C80.2349 52.4063 84.2654 52.0559 84.2654 52.0559C84.3822 52.0559 84.4407 52.1143 84.4407 52.2311C84.4407 52.3479 84.3822 52.4063 84.2654 52.4063C84.2654 52.4063 83.5645 52.4648 82.5714 52.4648V52.4063Z" fill="#081017"/>
<path d="M87.8295 54.5677C87.7127 54.5677 87.6543 54.5093 87.6543 54.3925C87.6543 54.2756 87.7127 54.2172 87.8295 54.2172C88.6473 54.2172 89.2315 53.9252 89.5235 53.5163C89.9324 52.9905 89.7572 52.348 89.7572 52.2896C89.7572 52.1727 89.7572 52.1143 89.874 52.0559C89.9909 52.0559 90.0493 52.0559 90.1077 52.1727C90.1077 52.1727 90.3413 52.9905 89.8156 53.6915C89.4651 54.2172 88.7642 54.5093 87.8295 54.5093V54.5677Z" fill="#081017"/>
<path d="M84.0913 61.5772C84.0328 61.5772 83.9744 61.5773 83.916 61.5188C83.916 61.4604 83.916 61.3436 83.9744 61.2852C83.9744 61.2852 85.9605 60.1753 85.7268 58.4229C85.5516 56.6705 84.5002 56.0279 84.5002 56.0279C84.4417 56.0279 84.3833 55.8527 84.4417 55.7943C84.4417 55.7359 84.617 55.6775 84.6754 55.7359C84.6754 55.7359 85.9021 56.4952 86.0773 58.4229C86.311 60.409 84.2081 61.5773 84.1497 61.6357H84.0913V61.5772Z" fill="#081017"/>
<path d="M96.9986 60.292C96.9402 60.292 96.8233 60.2336 96.8233 60.1751C95.8303 55.0347 91.3324 52.6982 91.274 52.6982C91.2156 52.6982 91.1572 52.5813 91.2156 52.4645C91.274 52.3477 91.3908 52.3477 91.4493 52.4061C91.4493 52.4061 96.1808 54.8595 97.1738 60.1167C97.1738 60.2336 97.1738 60.292 97.057 60.3504L96.9986 60.292Z" fill="#081017"/>
<path d="M94.1374 54.8597C94.1374 54.8597 94.079 54.8597 94.0206 54.8597C93.9622 54.8597 93.9037 54.6845 94.0206 54.626C94.0206 54.626 94.6631 53.6914 96.0651 53.2825C96.1819 53.2825 96.2403 53.2825 96.2987 53.3994C96.2987 53.5162 96.2987 53.5746 96.1819 53.633C94.9552 53.9835 94.3126 54.8013 94.3126 54.8013C94.3126 54.8013 94.2542 54.8597 94.1958 54.8597H94.1374Z" fill="#081017"/>
<path d="M88.2375 47.4411L88.0038 47.3243C87.7701 47.2074 87.4781 47.2074 87.186 47.3243L86.0177 47.85C85.6672 48.0252 85.4336 48.3757 85.4336 48.7262C85.4336 49.0183 85.5504 49.2519 85.6672 49.4272L85.7841 49.6024C86.0761 49.8945 86.485 50.0113 86.8355 49.8361L88.0038 49.3687C88.2375 49.2519 88.4711 49.0767 88.5295 48.843V48.6678C88.7048 48.3757 88.7048 48.0836 88.5295 47.7916C88.4127 47.6163 88.2375 47.4411 88.0622 47.3827L88.2375 47.4411Z" fill="#F41BA2"/>
<path d="M85.4925 48.9013H84.4995C84.3826 48.9013 84.3242 48.7844 84.3242 48.726C84.3242 48.6092 84.3826 48.5508 84.4995 48.5508H85.4925C85.6093 48.5508 85.6677 48.6676 85.6677 48.726C85.6677 48.8429 85.6093 48.9013 85.4925 48.9013Z" fill="#081017"/>
<path d="M88.7036 48.142C88.7036 48.142 88.6452 48.142 88.5868 48.142C88.5284 48.0836 88.5284 47.9668 88.5868 47.9084C89.1125 47.3242 89.5214 47.4411 89.5798 47.4411C89.6966 47.4411 89.7551 47.5579 89.6966 47.6747C89.6966 47.7915 89.5798 47.8499 89.463 47.7915C89.463 47.7915 89.1709 47.7915 88.8204 48.142C88.8204 48.142 88.762 48.2004 88.7036 48.2004V48.142Z" fill="#081017"/>
<path d="M82.1633 56.7873C81.2286 56.7873 80.7029 56.6704 80.7029 56.6704C80.6445 56.6704 80.5861 56.6704 80.5861 56.5536C80.5861 56.5536 80.5861 56.4368 80.5861 56.3784C81.4039 54.918 80.002 52.231 80.002 52.1726C80.002 52.1141 80.002 51.9973 80.0604 51.9389C80.1188 51.9389 80.2356 51.9389 80.294 51.9973C80.3524 52.1141 81.696 54.6843 80.995 56.3199C81.5207 56.3783 82.9811 56.4952 85.1424 56.0863C85.2592 56.0863 85.3176 56.0863 85.376 56.2031C85.4344 56.3199 85.376 56.3784 85.2592 56.4368C83.9741 56.6704 82.9811 56.7288 82.2217 56.7288L82.1633 56.7873Z" fill="#081017"/>
<path d="M80.1187 55.9697C74.6278 55.3271 71.4735 51.9391 69.8379 49.2521C69.8379 49.1937 69.8379 49.0768 69.8963 49.0184C69.9547 49.0184 70.0715 49.0184 70.13 49.0768C71.7655 51.7055 74.8031 54.9766 80.1771 55.6192C80.294 55.6192 80.3524 55.736 80.3524 55.7944C80.3524 55.8528 80.294 55.9697 80.1771 55.9697H80.1187Z" fill="#081017"/>
<path d="M89.872 46.3314C89.6383 46.5066 89.5215 46.7987 89.5215 47.0908C89.5215 47.3828 89.6383 47.6165 89.7551 47.7917L89.872 47.967C90.164 48.259 90.5729 48.3759 90.9234 48.2006L92.0917 47.7333C92.3253 47.6165 92.559 47.4412 92.6174 47.2076V47.0323C92.7927 46.7403 92.7927 46.4482 92.6174 46.1561C92.5006 45.9809 92.3253 45.8056 92.1501 45.7472L91.9165 45.6304C91.6828 45.5136 91.3907 45.5136 91.0987 45.6304L89.9304 46.1561C89.872 46.1561 89.8136 46.2145 89.6967 46.273" fill="#F41BA2"/>
<path d="M87.8282 52.9904C85.7253 52.9904 84.0312 51.2964 84.0312 49.1935C84.0312 47.0906 84.0897 49.0182 84.2065 49.0182C84.3233 49.0182 84.3817 49.0767 84.3817 49.1935C84.3817 51.1211 85.9589 52.6399 87.8282 52.6399C89.6974 52.6399 91.2746 51.1211 91.2746 49.1935C91.2746 47.2658 91.2746 48.6093 91.1577 48.3173C91.1577 48.2005 91.1577 48.142 91.2746 48.0836C91.3914 48.0836 91.4498 48.0836 91.5082 48.2004C91.5666 48.4925 91.6251 48.843 91.6251 49.1351C91.6251 51.238 89.931 52.932 87.8282 52.932V52.9904Z" fill="#081017"/>
<path d="M88.6459 51.9974C86.8935 51.9974 86.543 50.5371 86.543 50.5371V50.4203C86.543 50.4203 86.6014 50.3618 86.6598 50.3618L88.9964 49.9529C89.1132 49.9529 89.1716 49.9529 89.23 50.0698C89.2884 50.1866 89.23 50.245 89.1132 50.3034L86.9519 50.7123C87.0687 51.0628 87.536 51.7054 88.6459 51.7054C88.7627 51.7054 88.8211 51.7638 88.8211 51.8806C88.8211 51.9974 88.7627 52.0558 88.6459 52.0558V51.9974Z" fill="#081017"/>
<path d="M84.2664 50.5954C83.3902 50.5954 82.6309 49.8944 82.6309 48.9598C82.6309 48.0251 83.3318 47.3242 84.2664 47.3242H85.0842L85.2011 46.9737C85.2011 46.9153 85.3179 46.8569 85.3763 46.8569H86.603C88.1802 46.8569 89.4653 45.5718 89.4653 43.9946C89.4653 42.4174 89.5237 43.8193 89.6405 43.8193C89.7573 43.8193 89.8158 43.8778 89.8158 43.9946C89.8158 45.747 88.4138 47.2074 86.603 47.2074H85.4931L85.3763 47.5578C85.3763 47.6163 85.2595 47.6747 85.2011 47.6747H84.2664C83.5655 47.6747 82.9813 48.2588 82.9813 48.9598C82.9813 49.6607 83.5655 50.2449 84.2664 50.2449C84.9674 50.2449 84.4417 50.3033 84.4417 50.4201C84.4417 50.5369 84.3833 50.5954 84.2664 50.5954Z" fill="#081017"/>
<path d="M110.26 53.3996H99.3954C98.5776 53.3996 97.8767 52.6987 97.8767 51.8809C97.8767 51.0631 97.2925 50.5958 96.5916 50.5958H91.1007C90.9838 50.5958 90.9254 50.5374 90.9254 50.4205C90.9254 50.3037 90.9838 50.2453 91.1007 50.2453H96.5916C97.5262 50.2453 98.2271 51.0047 98.2271 51.8809C98.2271 52.7571 98.7529 53.0491 99.3954 53.0491H110.26C111.37 53.0491 112.246 52.1729 112.246 51.0631C112.246 49.9532 111.37 49.077 110.26 49.077H105.178C104.302 49.077 103.601 48.376 103.601 47.4998C103.601 46.6236 102.783 45.689 101.79 45.689H96.3579C94.4887 45.689 92.7362 45.0465 91.2759 43.8782C90.4581 42.7099 89.0562 42.0089 87.6542 42.0089H87.4206C84.6167 42.0089 82.3386 44.2871 82.3386 47.0909V48.2592C82.3386 49.9532 83.7405 51.2967 85.3761 51.2967C87.0117 51.2967 85.5513 51.3551 85.5513 51.472C85.5513 51.5888 85.4929 51.6472 85.3761 51.6472C83.5069 51.6472 81.9297 50.1285 81.9297 48.2008V47.0325C81.9297 44.0534 84.3247 41.6 87.3622 41.6H87.5958C89.173 41.6 90.6333 42.3594 91.5096 43.5861C92.8531 44.696 94.6055 45.3385 96.3579 45.3385H101.79C102.959 45.3385 103.952 46.3316 103.952 47.4998C103.952 48.6681 104.477 48.7265 105.178 48.7265H110.26C111.546 48.7265 112.597 49.778 112.597 51.0631C112.597 52.3482 111.546 53.3996 110.26 53.3996Z" fill="#F61BA3"/>
<path d="M70.3618 45.3965C70.245 45.3965 70.1866 45.2797 70.1866 45.2213L70.4202 41.8917C70.4202 41.8333 70.3618 41.7165 70.245 41.7165H70.1282C70.1282 41.7165 70.0697 41.7749 70.0697 41.8333V42.4758C69.9529 42.7095 69.7777 42.9431 69.544 43.0016C69.4272 43.0016 69.3104 43.1184 69.3104 43.2352L69.1351 44.053C69.1351 44.1698 69.0183 44.2283 68.9015 44.1698C68.7846 44.1698 68.7262 44.053 68.7846 43.9362L68.9599 43.1184C69.0183 42.8847 69.1935 42.6511 69.4856 42.5927C69.6024 42.5927 69.6608 42.4758 69.7193 42.359V41.7165C69.8361 41.5996 69.8945 41.4244 70.0113 41.366C70.1282 41.2491 70.245 41.2491 70.4202 41.2491C70.7123 41.2491 70.8875 41.5412 70.8875 41.7749L70.6539 45.1045C70.6539 45.2213 70.5955 45.2797 70.4786 45.2797L70.3618 45.3965Z" fill="#081017"/>
<path d="M69.3707 43.1768C69.3123 43.1768 69.2539 43.1768 69.1955 43.06L68.3777 40.2561C68.3777 40.1393 68.2025 40.0808 68.0856 40.0808C67.9688 40.0808 67.852 40.2561 67.9104 40.3729L68.4361 42.7095C68.4361 42.8263 68.4361 42.8847 68.3193 42.9431C68.2025 43.0015 68.144 42.9431 68.0856 42.8263L67.5599 40.4897C67.5015 40.1393 67.6767 39.8472 68.0272 39.7888C68.3193 39.7304 68.6698 39.9056 68.7866 40.1977L69.6044 43.0015C69.6044 43.1184 69.6044 43.1768 69.4876 43.2352L69.3707 43.1768Z" fill="#081017"/>
<path d="M67.4427 43.3524C67.3843 43.3524 67.3259 43.3523 67.2675 43.2355L66.3329 40.6653C66.216 40.3732 66.3329 40.0228 66.6834 39.8475C66.8586 39.7891 67.0338 39.7891 67.1507 39.8475C67.2675 39.9059 67.4427 40.0228 67.5012 40.198L68.2605 42.3593C68.2605 42.4761 68.2605 42.5346 68.1437 42.593C68.0853 42.593 67.9685 42.593 67.91 42.4761L67.1507 40.3732C67.1507 40.3148 67.0923 40.2564 67.0338 40.2564C66.9754 40.2564 66.917 40.2564 66.8002 40.2564C66.6834 40.3148 66.6249 40.4901 66.6834 40.6069L67.618 43.1771C67.618 43.2939 67.618 43.3523 67.5012 43.4108C67.5012 43.4108 67.5011 43.4108 67.4427 43.4108V43.3524Z" fill="#081017"/>
<path d="M66.9738 44.2286C66.9154 44.2286 66.857 44.2286 66.7986 44.1118L65.8055 41.8921C65.7471 41.7752 65.7471 41.6 65.8055 41.4832C65.8055 41.3663 65.9224 41.2495 66.0976 41.1327C66.3313 41.0159 66.6817 41.1327 66.857 41.3663L67.6748 43.1188C67.6748 43.1772 67.6748 43.294 67.6164 43.3524C67.5579 43.3524 67.4411 43.3524 67.3827 43.294L66.5649 41.5416C66.5649 41.4832 66.3897 41.4247 66.3313 41.4832C66.3313 41.4832 66.2728 41.5416 66.2144 41.6C66.2144 41.6 66.2144 41.7168 66.2144 41.7752L67.2075 43.995C67.2075 44.0534 67.2075 44.1702 67.149 44.2286C67.149 44.2286 67.1491 44.2286 67.0906 44.2286H66.9738Z" fill="#081017"/>
<path d="M69.9548 49.3688C69.8963 49.3688 69.8379 49.3688 69.8379 49.3104L68.2023 46.7402C68.1439 46.7402 67.9103 46.5065 67.6766 46.3313C67.1509 45.864 66.6836 45.3382 66.3915 44.6957L65.749 43.2353C65.6321 43.0017 65.749 42.7096 65.9826 42.5344C66.041 42.5344 66.0994 42.5344 66.1579 42.5344C66.3331 42.5344 66.5083 42.8264 66.8588 43.4106L67.0925 43.8195C67.0925 43.8779 67.0925 43.9947 67.0341 44.0531C66.9756 44.1115 66.8588 44.0531 66.8004 43.9947L66.6252 43.6442C66.3915 43.1769 66.2163 43.0017 66.1579 42.9433C66.1579 42.9433 66.1579 43.0601 66.1579 43.1185L66.8004 44.6373C67.0341 45.2214 67.443 45.7471 67.9687 46.156C68.2608 46.3897 68.4944 46.5649 68.4944 46.5649L70.13 49.1935C70.13 49.252 70.13 49.3688 70.13 49.4272C70.13 49.4272 70.0716 49.4272 70.0132 49.4272L69.9548 49.3688Z" fill="#081017"/>
<path d="M139.582 73.5523H113.587C113.471 73.5523 113.412 73.4938 113.412 73.377C113.412 73.2602 113.471 73.2018 113.587 73.2018H139.582C139.698 73.2018 139.757 73.2602 139.757 73.377C139.757 73.4938 139.698 73.5523 139.582 73.5523Z" fill="#081017"/>
<path d="M148.519 76.2392H122.525C122.408 76.2392 122.35 76.1808 122.35 76.064C122.35 75.9472 122.408 75.8887 122.525 75.8887H148.519C148.636 75.8887 148.694 75.9472 148.694 76.064C148.694 76.1808 148.636 76.2392 148.519 76.2392Z" fill="#081017"/>
<path d="M98.8673 35.408H80.0581C79.9412 35.408 79.8828 35.3496 79.8828 35.2327C79.8828 35.1159 79.9412 35.0575 80.0581 35.0575H98.8673C98.9841 35.0575 99.0426 35.1159 99.0426 35.2327C99.0426 35.3496 98.9841 35.408 98.8673 35.408Z" fill="#081017"/>
<path d="M93.9617 38.1535H87.4194C87.3025 38.1535 87.2441 38.095 87.2441 37.9782C87.2441 37.8614 87.3025 37.803 87.4194 37.803H93.9617C94.0786 37.803 94.137 37.8614 94.137 37.9782C94.137 38.095 94.0786 38.1535 93.9617 38.1535Z" fill="#081017"/>
</svg>
