<svg width="71" height="63" viewBox="0 0 71 63" fill="none" xmlns="http://www.w3.org/2000/svg">
<path d="M28.3594 13.7834V26.7654C28.3594 31.9912 37.8412 36.2283 37.8412 36.2283C37.8412 36.2283 47.3229 31.9912 47.3229 26.7654V13.7834L37.8412 10.7418L28.3594 13.7834Z" fill="#E6E6E6" stroke="#E6E6E6" stroke-width="0.164859" stroke-linecap="round" stroke-linejoin="round"/>
<path d="M29.9612 25.3949L30.2018 26.2822L30.3033 26.7146L30.4161 27.1695L29.6792 26.9928L28.8559 26.2822L28.6152 25.3047L28.6679 22.6805C28.6679 22.6805 29.2657 20.2593 32.0553 19.6878C33.9088 19.5111 35.86 20.6503 36.2548 22.797C36.345 23.3798 36.2661 24.0791 36.2661 24.0039C36.2661 23.9287 36.1758 23.673 35.6946 23.485C35.2134 23.2971 33.3862 22.5075 33.514 23.0414C33.5403 23.4362 33.2621 23.4738 32.6004 23.4098C31.9387 23.3459 31.1906 22.7369 31.1906 22.7369C31.1906 22.7369 31.0628 24.0565 30.1003 24.0828C29.6567 23.9813 29.2619 24.3873 29.2882 24.7408C29.3145 25.0942 29.7582 25.425 29.9612 25.3987V25.3949Z" fill="white"/>
<path d="M20.8594 6.11162V29.3611C20.8594 38.7189 37.8416 46.3058 37.8416 46.3058C37.8416 46.3058 54.8238 38.7189 54.8238 29.3611V6.11162L37.8416 0.660156L20.8594 6.11162Z" stroke="#E10098" stroke-width="0.969759" stroke-miterlimit="10"/>
<path d="M45.7862 19.8665L46.2636 21.3026C46.2636 21.3026 46.1696 22.5696 45.1884 22.6674C44.2071 22.7651 43.0341 23.3855 43.2259 21.0883C44.756 20.8477 45.7862 19.8665 45.7862 19.8665Z" fill="white"/>
<path d="M24.6983 32.804L22.5591 35.1274L21.0778 35.0522L20.6191 32.5483L21.7358 31.067L22.8524 31.0482L23.8562 31.2851L24.6983 32.804Z" fill="white"/>
<path d="M39.9574 31.3597L39.8973 30.7168L38.5062 30.0626L37.7392 29.9498L37.0625 31.7432L37.664 31.8146L39.9574 31.3597Z" fill="white"/>
<path d="M32.7325 42.6294L32.2852 42.761L33.2213 45.904L35.6162 46.0356L34.8868 42.1782L32.7325 42.6294Z" fill="white"/>
<path d="M31.0451 27.2135L30.3082 28.958L29.748 29.7174L32.0527 31.2175L33.2821 30.7701L33.4174 27.9955L31.1203 27.2398L31.0451 27.2135Z" fill="white"/>
<path d="M54.0885 15.2593L54.5134 16.1353L54.8104 17.282L55.4758 17.7106H55.8217L55.7165 21.8236H53.4043L54.0885 15.2593Z" fill="white"/>
<path d="M54.0083 27.479L55.8204 28.5317L53.9707 29.2911L54.0083 27.479Z" fill="white"/>
<path d="M47.7461 38.8783L49.1484 40.2769L50.1936 37.194L49.8101 36.9158L47.7461 38.8783Z" fill="white"/>
<path d="M31.3379 41.6797L31.5672 42.9053L32.5071 42.7775L32.4056 41.1195L31.3379 41.6797Z" fill="white"/>
<path d="M22.6008 15.0606L19.9427 14.3575L18.5742 15.6885L18.9088 31.524L20.2736 33.9978L20.642 34.2948L21.6383 33.1482L21.8601 31.3398L21.7887 30.2345V28.2005L22.6008 15.0606Z" fill="white"/>
<path d="M62.7383 40.9661C62.7383 40.9661 67.3551 43.8835 67.8326 45.158C68.31 46.4326 67.9905 48.2898 67.3025 48.7147C66.6145 49.1395 67.0355 50.2035 64.2384 50.0832C63.6331 50.0568 66.028 46.8048 66.028 46.0604C66.028 45.316 62.7383 40.9661 62.7383 40.9661Z" fill="#E6E6E6"/>
<path d="M24.6838 20.7387L24.2327 22.8065C23.8304 24.6374 22.0295 25.8856 20.2024 25.457C18.206 24.9908 16.9465 23.002 17.3864 20.9906L17.2849 20.968C16.8788 20.8778 16.6232 20.4793 16.7134 20.077C16.8037 19.671 17.2022 19.4153 17.6045 19.5055L17.7812 19.5431C17.7812 19.5431 18.3 19.31 18.5368 18.7837C19.1121 19.1484 21.8528 20.2011 23.9695 20.0582" fill="white"/>
<path d="M24.6838 20.7387L24.2327 22.8065C23.8304 24.6374 22.0295 25.8856 20.2024 25.457C18.206 24.9908 16.9465 23.002 17.3864 20.9906L17.2849 20.968C16.8788 20.8778 16.6232 20.4793 16.7134 20.077C16.8037 19.671 17.2022 19.4153 17.6045 19.5055L17.7812 19.5431C17.7812 19.5431 18.3 19.31 18.5368 18.7837C19.1121 19.1484 21.8528 20.2011 23.9695 20.0582" stroke="#081017" stroke-width="0.219812" stroke-linecap="round" stroke-linejoin="round"/>
<path d="M46.7188 38.1532C46.7188 38.1532 50.249 34.059 50.6776 32.9349C51.1062 31.8107 50.6776 30.8483 50.6776 30.8483L50.2528 31.1002C50.2528 31.1002 46.9857 37.4502 46.7188 38.1532Z" fill="#E6E6E6"/>
<path d="M3.76488 49.0748C3.76488 49.0748 3.71224 48.5974 4.21603 47.962C4.71982 47.3266 5.9417 46.289 5.9417 46.289C5.9417 46.289 7.47939 45.0934 7.40044 45.0934C7.32149 45.0934 7.00192 44.8904 7.00192 44.8904C7.00192 44.8904 5.02435 46.4882 4.72734 46.7213C4.43033 46.9544 3.73856 47.5898 3.52802 47.9883C3.31748 48.3868 3.41899 49.1914 3.41899 49.1914L3.76864 49.0786L3.76488 49.0748Z" fill="#E10098"/>
<path d="M35.8077 23.4979C34.4204 22.9001 33.3226 22.6068 33.4993 23.1106C33.676 23.6144 32.3639 23.6746 31.2021 22.7046C31.0555 24.0129 30.0893 24.0468 30.0893 24.0468H29.9314C29.5667 24.0468 29.2734 24.34 29.2734 24.7047C29.2734 25.0694 29.5667 25.3626 29.9314 25.3626H30.0216C30.0216 27.171 31.4728 28.641 33.2774 28.6674C34.9242 28.6899 36.24 27.2838 36.24 25.6333V23.7723" fill="white"/>
<path d="M35.8077 23.4979C34.4204 22.9001 33.3226 22.6068 33.4993 23.1106C33.676 23.6144 32.3639 23.6746 31.2021 22.7046C31.0555 24.0129 30.0893 24.0468 30.0893 24.0468H29.9314C29.5667 24.0468 29.2734 24.34 29.2734 24.7047C29.2734 25.0694 29.5667 25.3626 29.9314 25.3626H30.0216C30.0216 27.171 31.4728 28.641 33.2774 28.6674C34.9242 28.6899 36.24 27.2838 36.24 25.6333V23.7723" stroke="#081017" stroke-width="0.193952" stroke-linecap="round" stroke-linejoin="round"/>
<path d="M61.6699 48.8137C61.6699 48.8137 63.1023 49.6371 64.6701 51.3101C65.1288 51.7988 66.2642 53.7764 66.2642 53.7764L66.3168 53.9869C66.3168 53.9869 66.7341 53.6486 66.4071 53.0884C66.08 52.5282 64.5122 50.6446 64.5122 50.6446C64.5122 50.6446 63.4783 49.0506 63.1324 48.919C62.7865 48.7874 62.0722 48.652 61.9369 48.6784C61.8015 48.7047 61.6699 48.8099 61.6699 48.8099V48.8137Z" fill="#E10098"/>
<path d="M50.5234 54.9152C50.5234 54.9152 51.0799 55.4904 51.9032 55.4716C53.1777 55.4453 56.5764 54.7272 57.0765 54.5167C57.8998 54.1708 58.4299 53.776 58.4299 53.776L58.351 53.1632C58.351 53.1632 55.2982 54.9941 50.5234 54.9152Z" fill="#E10098"/>
<path d="M58.5391 26.7929L58.6443 26.5109L61.1219 24.9169C61.1219 24.9169 61.0167 25.8004 61.0881 26.2252C61.1595 26.6501 61.6558 27.5712 61.6558 27.5712C61.6558 27.5712 61.4791 28.1727 60.949 28.7404C60.4189 29.3081 58.5767 27.1463 58.5428 26.7929H58.5391Z" fill="white"/>
<path d="M52.3271 24.891L55.4664 27.3723L55.5792 31.7486L52.2858 37.6023L50.6992 36.1699L52.3271 24.891Z" fill="white"/>
<path d="M54.2685 51.1965C54.2685 51.1965 53.7271 52.2003 52.8436 52.7755C51.9601 53.3508 50.3359 54.1628 50.4149 54.5087C50.4938 54.8546 50.4938 55.5125 52.306 55.4712C54.1181 55.4298 56.2761 54.8546 57.3176 54.4674C58.359 54.0801 58.4342 53.7718 58.4342 53.7718L58.3966 51.3807C58.3966 51.3807 55.5806 51.7679 54.2723 51.189L54.2685 51.1965Z" stroke="#081017" stroke-width="0.193952" stroke-linecap="round" stroke-linejoin="round"/>
<path d="M60.8636 43.29L58.8597 51.3883C58.8597 51.3883 55.3144 51.659 53.8105 50.9258C54.1564 49.1513 55.6753 40.5229 55.6753 40.5229" stroke="#081017" stroke-width="0.193952" stroke-linecap="round" stroke-linejoin="round"/>
<path d="M59.8574 47.5722L61.2447 48.9219L61.9327 48.6813C62.3914 48.6324 62.8501 48.7866 63.1847 49.1024L64.2524 50.0799C64.2524 50.0799 66.0646 50.5423 66.9894 49.2302C67.9143 47.9181 68.8016 46.3014 67.606 44.7976C66.4105 43.2937 62.8238 40.8274 62.8238 40.8274L61.9741 40.4402" stroke="#081017" stroke-width="0.193952" stroke-linecap="round" stroke-linejoin="round"/>
<path d="M63.4827 32.9224L65.3738 37.0091L70.1936 35.1594L68.1108 30.6855C68.1108 30.6855 65.5655 27.4484 61.7119 27.7154C61.5577 28.6026 60.6329 30.6065 59.2042 30.7606C58.6252 30.8396 57.0048 30.8772 57.1214 28.6778C56.659 28.4861 54.5761 28.4861 53.7302 29.7192C52.8843 30.9524 50.5684 35.4263 50.5684 35.4263L54.3844 37.4302L55.1927 36.4452L54.3844 32.5728L55.6175 38.5092" stroke="#081017" stroke-width="0.193952" stroke-linecap="round" stroke-linejoin="round"/>
<path d="M61.0957 25.21C61.0957 25.21 61.1747 25.5972 61.1747 26.289C61.1747 26.9807 61.716 27.7139 61.716 27.7139" stroke="#081017" stroke-width="0.193952" stroke-linecap="round" stroke-linejoin="round"/>
<path d="M68.228 42.6713L68.1641 45.8632" stroke="#081017" stroke-width="0.193952" stroke-linecap="round" stroke-linejoin="round"/>
<path d="M50.0449 45.2035L55.0076 44.2335" stroke="#081017" stroke-width="0.193952" stroke-linecap="round" stroke-linejoin="round"/>
<path d="M46.4101 45.8818C46.4101 45.8818 43.6393 46.8669 43.6881 48.694C43.7295 50.1415 44.0867 50.8483 44.8987 51.2731" fill="white"/>
<path d="M46.4101 45.8818C46.4101 45.8818 43.6393 46.8669 43.6881 48.694C43.7295 50.1415 44.0867 50.8483 44.8987 51.2731" stroke="#081017" stroke-width="0.193952" stroke-linecap="round" stroke-linejoin="round"/>
<path d="M47.1348 51.9667L53.3908 52.275" stroke="#081017" stroke-width="0.193952" stroke-linecap="round" stroke-linejoin="round"/>
<path d="M49.6211 46.9664L54.4221 47.3762" stroke="#081017" stroke-width="0.193952" stroke-linecap="round" stroke-linejoin="round"/>
<path d="M59.5128 49.2681C59.5128 49.2681 61.1332 49.035 61.8249 48.6891C62.4415 48.456 62.9415 48.6891 63.4829 49.3433C63.8852 49.832 65.1146 51.2757 65.7237 51.9863C66.0056 52.3171 66.235 52.6856 66.4042 53.0879C66.4869 53.2871 66.5545 53.4864 66.5696 53.6255C66.6072 54.0127 66.1823 54.3962 65.7989 54.3586C65.4154 54.321 61.2873 51.7757 61.2873 51.7757L61.0956 52.6254H58.5879" stroke="#081017" stroke-width="0.193952" stroke-linecap="round" stroke-linejoin="round"/>
<path d="M60.502 49.1406C60.502 49.1406 61.1298 49.1143 61.2877 51.7761L60.502 49.1406Z" fill="white"/>
<path d="M60.502 49.1406C60.502 49.1406 61.1298 49.1143 61.2877 51.7761" stroke="#081017" stroke-width="0.193952" stroke-linecap="round" stroke-linejoin="round"/>
<path d="M42.3173 46.3765L44.5166 40.3987L45.8664 37.7369L43.4376 36.233C43.4376 36.233 42.1255 38.8535 41.8962 39.8197C41.6668 40.7859 41.0465 43.365 41.0465 43.365C41.0465 43.365 38.2719 43.0192 38.0764 43.132C37.8809 43.2447 37.3809 43.7109 37.7681 44.1358C38.1554 44.5606 41.5841 46.4103 42.3173 46.3727V46.3765Z" fill="white" stroke="#081017" stroke-width="0.193952" stroke-linecap="round" stroke-linejoin="round"/>
<path d="M42.3911 45.891C42.3911 45.891 38.5412 43.5224 38.1916 43.4435L37.8457 43.3645" fill="white"/>
<path d="M42.3911 45.891C42.3911 45.891 38.5412 43.5224 38.1916 43.4435L37.8457 43.3645" stroke="#081017" stroke-width="0.193952" stroke-linecap="round" stroke-linejoin="round"/>
<path d="M42.9311 44.6396C42.9311 44.6396 42.5025 43.4741 41.1152 43.3575L42.9311 44.6396Z" fill="white"/>
<path d="M42.9311 44.6396C42.9311 44.6396 42.5025 43.4741 41.1152 43.3575" stroke="#081017" stroke-width="0.193952" stroke-linecap="round" stroke-linejoin="round"/>
<path d="M45.7327 32.9423L43.0859 35.9274L46.7892 38.2396C46.7892 38.2396 46.902 38.093 47.0862 37.8524C47.7704 36.9576 49.4547 34.7469 50.1841 33.807C51.109 32.6115 50.8796 31.649 50.6841 30.7241C48.6803 32.4197 43.5521 31.9949 43.5521 31.9949L44.289 34.3371" stroke="#081017" stroke-width="0.193952" stroke-linecap="round" stroke-linejoin="round"/>
<path d="M37.6621 29.6621L41.0834 26.4438L39.3577 25.0979H38.9517L36.1094 28.8763L37.6621 29.6621Z" fill="white"/>
<path d="M47.3008 38.2991L50.0265 36.3892L49.6092 34.7726" fill="white"/>
<path d="M47.3008 38.2991L50.0265 36.3892L49.6092 34.7726" stroke="#081017" stroke-width="0.193952" stroke-linecap="round" stroke-linejoin="round"/>
<path d="M48.2938 25.0126L49.8728 26.054L51.8767 23.5877C51.8767 23.5877 48.948 20.6965 46.2862 20.5424C46.4027 21.0837 46.3689 22.2718 45.444 22.6177C44.5191 22.9636 43.7033 22.8545 43.4326 22.5462C43.1619 22.238 43.1807 21.5199 43.1807 21.5199C43.1807 21.5199 41.8536 21.6402 41.1467 22.05C40.4888 22.4334 39.1541 24.1666 39 24.8208C39.5 25.3622 41.0828 26.4412 41.0828 26.4412L41.9438 25.6592" fill="white"/>
<path d="M48.2938 25.0126L49.8728 26.054L51.8767 23.5877C51.8767 23.5877 48.948 20.6965 46.2862 20.5424C46.4027 21.0837 46.3689 22.2718 45.444 22.6177C44.5191 22.9636 43.7033 22.8545 43.4326 22.5462C43.1619 22.238 43.1807 21.5199 43.1807 21.5199C43.1807 21.5199 41.8536 21.6402 41.1467 22.05C40.4888 22.4334 39.1541 24.1666 39 24.8208C39.5 25.3622 41.0828 26.4412 41.0828 26.4412L41.9438 25.6592" stroke="#081017" stroke-width="0.193952" stroke-linecap="round" stroke-linejoin="round"/>
<path d="M41.0834 26.4427L37.6621 29.661" stroke="#081017" stroke-width="0.193952" stroke-linecap="round" stroke-linejoin="round"/>
<path d="M39.079 24.9858L36.1465 28.753" stroke="#081017" stroke-width="0.193952" stroke-linecap="round" stroke-linejoin="round"/>
<path d="M53.1622 25.5188L51.5606 24.0375L50.1094 25.9135L54.151 29.1994" fill="white"/>
<path d="M53.1622 25.5188L51.5606 24.0375L50.1094 25.9135L54.151 29.1994" stroke="#081017" stroke-width="0.193952" stroke-linecap="round" stroke-linejoin="round"/>
<path d="M35.4185 32.1083H36.9223L37.772 29.8714C37.772 29.8714 37.6931 29.6796 37.0765 29.2924C36.4599 28.9051 34.7643 28.4841 34.7643 28.4841L33.5688 28.8262C33.2981 29.5969 32.986 29.8075 32.2942 29.8714C30.7152 29.9879 30.4633 28.375 30.4633 28.375C30.4633 28.375 29.17 27.5968 26.5495 30.2172L25.8164 30.9504C25.8164 30.9504 27.2037 32.4542 27.5496 33.1874C28.4369 32.7249 29.091 32.0707 29.091 32.0707" fill="white"/>
<path d="M35.4185 32.1083H36.9223L37.772 29.8714C37.772 29.8714 37.6931 29.6796 37.0765 29.2924C36.4599 28.9051 34.7643 28.4841 34.7643 28.4841L33.5688 28.8262C33.2981 29.5969 32.986 29.8075 32.2942 29.8714C30.7152 29.9879 30.4633 28.375 30.4633 28.375C30.4633 28.375 29.17 27.5968 26.5495 30.2172L25.8164 30.9504C25.8164 30.9504 27.2037 32.4542 27.5496 33.1874C28.4369 32.7249 29.091 32.0707 29.091 32.0707" stroke="#081017" stroke-width="0.193952" stroke-linecap="round" stroke-linejoin="round"/>
<path d="M46.9277 38.1434L48.8301 39.8992" stroke="#081017" stroke-width="0.193952" stroke-linecap="round" stroke-linejoin="round"/>
<path d="M49.5273 36.7365L50.0687 37.1613" stroke="#081017" stroke-width="0.193952" stroke-linecap="round" stroke-linejoin="round"/>
<path d="M35.3006 31.3379L34.6465 37.7781C34.6465 37.7781 34.0299 38.2406 31.7177 38.0488C29.4055 37.8571 27.5257 37.545 27.334 37.4285" fill="white"/>
<path d="M35.3006 31.3379L34.6465 37.7781C34.6465 37.7781 34.0299 38.2406 31.7177 38.0488C29.4055 37.8571 27.5257 37.545 27.334 37.4285" stroke="#081017" stroke-width="0.193952" stroke-linecap="round" stroke-linejoin="round"/>
<path d="M27.3984 33.1517L27.7142 33.9525" stroke="#081017" stroke-width="0.193952" stroke-linecap="round" stroke-linejoin="round"/>
<path d="M22.6616 34.5238C22.6616 34.5238 21.8269 35.0313 21.6502 35.1178C21.4209 35.2343 21.3043 35.6178 21.6126 35.6592C21.9209 35.7005 22.6164 35.3509 22.6164 35.3509C22.6164 35.3509 21.6878 35.7494 21.7743 36.0502C21.8307 36.2419 22.1352 36.3885 22.6916 36.0464C22.9135 35.9111 23.2706 35.584 23.2706 35.584C23.2706 35.584 23.045 36.1066 23.2405 36.1329C23.436 36.1592 23.6729 36.2607 23.8458 35.8923C24.0451 35.4674 24.2331 35.0426 24.4624 34.8509C24.6918 34.6591 27.2258 32.7793 27.2258 32.7793" fill="white"/>
<path d="M22.6616 34.5238C22.6616 34.5238 21.8269 35.0313 21.6502 35.1178C21.4209 35.2343 21.3043 35.6178 21.6126 35.6592C21.9209 35.7005 22.6164 35.3509 22.6164 35.3509C22.6164 35.3509 21.6878 35.7494 21.7743 36.0502C21.8307 36.2419 22.1352 36.3885 22.6916 36.0464C22.9135 35.9111 23.2706 35.584 23.2706 35.584C23.2706 35.584 23.045 36.1066 23.2405 36.1329C23.436 36.1592 23.6729 36.2607 23.8458 35.8923C24.0451 35.4674 24.2331 35.0426 24.4624 34.8509C24.6918 34.6591 27.2258 32.7793 27.2258 32.7793" stroke="#081017" stroke-width="0.193952" stroke-linecap="round" stroke-linejoin="round"/>
<path d="M34.3767 38.0865C34.5308 38.1241 35.3805 42.0981 35.3805 42.0981L31.5645 43.0229L31.0645 40.5566" fill="white"/>
<path d="M34.3767 38.0865C34.5308 38.1241 35.3805 42.0981 35.3805 42.0981L31.5645 43.0229L31.0645 40.5566" stroke="#081017" stroke-width="0.193952" stroke-linecap="round" stroke-linejoin="round"/>
<path d="M26.439 37.7175L25.9277 42.2479C25.9277 42.2479 28.4354 43.0976 29.7851 42.981C30.2099 41.5561 30.3265 40.5523 30.3265 40.5523L32.0597 40.2064" fill="white"/>
<path d="M26.439 37.7175L25.9277 42.2479C25.9277 42.2479 28.4354 43.0976 29.7851 42.981C30.2099 41.5561 30.3265 40.5523 30.3265 40.5523L32.0597 40.2064" stroke="#081017" stroke-width="0.193952" stroke-linecap="round" stroke-linejoin="round"/>
<path d="M34.9141 42.3661L35.775 47.1032" stroke="#081017" stroke-width="0.193952" stroke-linecap="round" stroke-linejoin="round"/>
<path d="M29.0934 43.1351L27.7812 47.8008" stroke="#081017" stroke-width="0.193952" stroke-linecap="round" stroke-linejoin="round"/>
<path d="M26.315 42.5989L25.7773 47.3022" stroke="#081017" stroke-width="0.193952" stroke-linecap="round" stroke-linejoin="round"/>
<path d="M26.8562 50.2319C26.8562 50.2319 27.8976 50.1943 28.0894 49.886C28.2811 49.5777 28.0179 49.2318 27.9014 48.728C27.7848 48.2242 27.8224 47.7204 27.8224 47.7204C27.8224 47.7204 26.2359 47.57 26.1193 47.4949C26.0028 47.4197 25.4238 47.1866 25.4238 47.8031C25.4238 48.4197 24.6155 49.8484 26.8487 50.2319H26.8562Z" fill="#E10098" stroke="#081017" stroke-width="0.193952" stroke-linecap="round" stroke-linejoin="round"/>
<path d="M33.7094 47.5148C33.7094 47.5148 33.5627 49.2292 33.871 49.3082C34.1793 49.3871 35.1042 49.5789 35.9915 49.4247C36.8787 49.2706 37.6495 49.0789 37.9578 48.8458C38.266 48.6127 38.6533 48.3457 38.0743 48.0374C37.4953 47.7291 36.0291 47.1502 36.0291 47.1502C36.0291 47.1502 34.6794 47.575 34.0628 47.5374C33.7169 47.4998 33.6379 47.4585 33.6379 47.4585L32.3672 42.9093" fill="#E10098"/>
<path d="M33.7094 47.5148C33.7094 47.5148 33.5627 49.2292 33.871 49.3082C34.1793 49.3871 35.1042 49.5789 35.9915 49.4247C36.8787 49.2706 37.6495 49.0789 37.9578 48.8458C38.266 48.6127 38.6533 48.3457 38.0743 48.0374C37.4953 47.7291 36.0291 47.1502 36.0291 47.1502C36.0291 47.1502 34.6794 47.575 34.0628 47.5374C33.7169 47.4998 33.6379 47.4585 33.6379 47.4585L32.3672 42.9093" stroke="#081017" stroke-width="0.193952" stroke-linecap="round" stroke-linejoin="round"/>
<path d="M37.1133 31.8412L39.9292 32.0743L41.1248 32.7285C41.1248 32.7285 41.5496 32.7661 41.5872 32.5368C41.6248 32.3074 41.0458 31.9202 41.0458 31.9202C41.0458 31.9202 41.9707 32.1909 42.0083 31.9991C42.0459 31.8074 41.7376 31.4577 41.5459 31.4201C41.3541 31.3825 42.2414 31.5743 42.3542 31.3825C42.467 31.1908 42.5459 30.8825 42.1625 30.8036C41.779 30.7246 41.3541 30.766 41.3541 30.766C41.3541 30.766 42.279 30.4201 42.2414 30.1118C42.2038 29.8035 41.6248 29.8411 41.5083 29.9576C41.3917 30.0742 40.9293 30.3035 40.9293 30.3035" fill="white"/>
<path d="M37.1133 31.8412L39.9292 32.0743L41.1248 32.7285C41.1248 32.7285 41.5496 32.7661 41.5872 32.5368C41.6248 32.3074 41.0458 31.9202 41.0458 31.9202C41.0458 31.9202 41.9707 32.1909 42.0083 31.9991C42.0459 31.8074 41.7376 31.4577 41.5459 31.4201C41.3541 31.3825 42.2414 31.5743 42.3542 31.3825C42.467 31.1908 42.5459 30.8825 42.1625 30.8036C41.779 30.7246 41.3541 30.766 41.3541 30.766C41.3541 30.766 42.279 30.4201 42.2414 30.1118C42.2038 29.8035 41.6248 29.8411 41.5083 29.9576C41.3917 30.0742 40.9293 30.3035 40.9293 30.3035" stroke="#081017" stroke-width="0.193952" stroke-linecap="round" stroke-linejoin="round"/>
<path d="M37.7676 29.8751L39.8504 30.2999C39.8504 30.2999 40.1963 30.221 40.3918 29.6834C40.6625 29.4127 40.9332 29.4503 40.8918 29.721C40.8505 29.9917 40.5459 31.2624 40.5459 31.2624" fill="white"/>
<path d="M37.7676 29.8751L39.8504 30.2999C39.8504 30.2999 40.1963 30.221 40.3918 29.6834C40.6625 29.4127 40.9332 29.4503 40.8918 29.721C40.8505 29.9917 40.5459 31.2624 40.5459 31.2624" stroke="#081017" stroke-width="0.193952" stroke-linecap="round" stroke-linejoin="round"/>
<path d="M24.34 32.3676L23.8889 31.4164C23.8889 31.4164 23.3888 28.9501 22.964 28.2921C22.5392 27.6342 21.2007 26.3597 20.2383 26.0514" fill="white"/>
<path d="M24.34 32.3676L23.8889 31.4164C23.8889 31.4164 23.3888 28.9501 22.964 28.2921C22.5392 27.6342 21.2007 26.3597 20.2383 26.0514" stroke="#081017" stroke-width="0.193952" stroke-linecap="round" stroke-linejoin="round"/>
<path d="M19.9165 27.3286C19.9165 27.3286 19.8789 25.8623 20.4579 25.4375L19.9165 27.3286Z" fill="white"/>
<path d="M19.9165 27.3286C19.9165 27.3286 19.8789 25.8623 20.4579 25.4375" stroke="#081017" stroke-width="0.193952" stroke-linecap="round" stroke-linejoin="round"/>
<path d="M20.5707 26.3533C20.5707 26.3533 21.067 28.6015 19.1458 28.6429C18.3751 28.6053 15.9351 28.2105 16.3449 25.7893" fill="white"/>
<path d="M20.5707 26.3533C20.5707 26.3533 21.067 28.6015 19.1458 28.6429C18.3751 28.6053 15.9351 28.2105 16.3449 25.7893" stroke="#081017" stroke-width="0.193952" stroke-linecap="round" stroke-linejoin="round"/>
<path d="M21.8451 29.9878C21.8451 29.9878 22.191 32.6082 21.112 33.8452C20.033 35.0783 19.6081 35.5408 19.6081 35.5408L19.4766 36.2588" fill="white"/>
<path d="M21.8451 29.9878C21.8451 29.9878 22.191 32.6082 21.112 33.8452C20.033 35.0783 19.6081 35.5408 19.6081 35.5408L19.4766 36.2588" stroke="#081017" stroke-width="0.193952" stroke-linecap="round" stroke-linejoin="round"/>
<path d="M17.7402 40.6263L21.827 43.9085C22.4435 44.4048 22.9849 44.995 23.3947 45.6718C23.6428 46.0853 23.8496 46.529 23.8496 46.8748C23.8496 47.7621 24.1203 50.0743 20.2253 50.0743" fill="white"/>
<path d="M17.7402 40.6263L21.827 43.9085C22.4435 44.4048 22.9849 44.995 23.3947 45.6718C23.6428 46.0853 23.8496 46.529 23.8496 46.8748C23.8496 47.7621 24.1203 50.0743 20.2253 50.0743" stroke="#081017" stroke-width="0.193952" stroke-linecap="round" stroke-linejoin="round"/>
<path d="M14.5964 42.4809L18.8222 46.3872C19.1267 46.6691 19.3899 46.9925 19.6004 47.3534C20.2133 48.4098 21.0441 50.5077 18.6455 51.2822C18.0628 51.4702 17.4349 51.489 16.8334 51.3762C14.2956 50.8912 8.40052 49.6355 8.40052 49.6355C8.40052 49.6355 7.77266 48.4587 8.27269 47.3797C8.77272 46.3007 9.31787 45.921 9.55096 45.921C9.78406 45.921 15.0588 48.5377 15.0588 48.5377L9.31411 45.53C9.31411 45.53 6.03571 43.0223 8.04335 39.0521" fill="white"/>
<path d="M14.5964 42.4809L18.8222 46.3872C19.1267 46.6691 19.3899 46.9925 19.6004 47.3534C20.2133 48.4098 21.0441 50.5077 18.6455 51.2822C18.0628 51.4702 17.4349 51.489 16.8334 51.3762C14.2956 50.8912 8.40052 49.6355 8.40052 49.6355C8.40052 49.6355 7.77266 48.4587 8.27269 47.3797C8.77272 46.3007 9.31787 45.921 9.55096 45.921C9.78406 45.921 15.0588 48.5377 15.0588 48.5377L9.31411 45.53C9.31411 45.53 6.03571 43.0223 8.04335 39.0521" stroke="#081017" stroke-width="0.193952" stroke-linecap="round" stroke-linejoin="round"/>
<path d="M3.4148 49.1876C3.4148 49.1876 2.91477 48.1838 4.72691 46.7213C6.53905 45.2551 7.00148 44.8904 7.00148 44.8904C7.00148 44.8904 7.96395 45.1799 8.30983 45.6799C8.65572 46.1799 8.54293 46.5672 8.54293 46.5672C8.54669 46.601 7.42632 46.5183 6.96389 47.5296C6.80974 47.8605 6.64056 48.7327 7.60678 49.3493C5.79464 49.3869 3.41856 49.1876 3.41856 49.1876H3.4148Z" stroke="#081017" stroke-width="0.193952" stroke-linecap="round" stroke-linejoin="round"/>
<path d="M0.716797 49.9997C0.716797 49.9997 4.02151 48.838 8.22477 49.4922L0.716797 49.9997Z" fill="white"/>
<path d="M0.716797 49.9997C0.716797 49.9997 4.02151 48.838 8.22477 49.4922" stroke="#081017" stroke-width="0.193952" stroke-linecap="round" stroke-linejoin="round"/>
<path d="M52.7676 40.4247C52.7676 40.4247 54.2714 41.4774 54.6737 41.6127C55.076 41.7481 55.0797 41.8045 55.0797 41.7481C55.0797 41.6917 54.0534 44.3272 54.0534 44.3272" fill="white"/>
<path d="M52.7676 40.4247C52.7676 40.4247 54.2714 41.4774 54.6737 41.6127C55.076 41.7481 55.0797 41.8045 55.0797 41.7481C55.0797 41.6917 54.0534 44.3272 54.0534 44.3272" stroke="#081017" stroke-width="0.193952" stroke-linecap="round" stroke-linejoin="round"/>
<path d="M51.4668 44.8839C51.5232 44.8651 52.3428 43.8124 52.3992 43.5041C52.4556 43.1958 52.4969 42.6544 52.4969 42.6544L51.7864 42.1093" fill="white"/>
<path d="M51.4668 44.8839C51.5232 44.8651 52.3428 43.8124 52.3992 43.5041C52.4556 43.1958 52.4969 42.6544 52.4969 42.6544L51.7864 42.1093" stroke="#081017" stroke-width="0.193952" stroke-linecap="round" stroke-linejoin="round"/>
<path d="M53.8537 41.1815C53.8537 41.1815 53.3198 42.4974 52.6055 42.6139L53.8537 41.1815Z" fill="white"/>
<path d="M53.8537 41.1815C53.8537 41.1815 53.3198 42.4974 52.6055 42.6139" stroke="#081017" stroke-width="0.193952" stroke-linecap="round" stroke-linejoin="round"/>
<path d="M8.22365 49.2974C8.22365 49.2974 7.55068 49.2072 7.49805 49.226L8.22365 49.2974Z" fill="white"/>
<path d="M8.22366 49.2974C8.22366 49.2974 7.55068 49.2072 7.49805 49.226" stroke="#081017" stroke-width="0.193952" stroke-linecap="round" stroke-linejoin="round"/>
<path d="M22.1176 23.6426L19.9258 23.2892C19.9258 23.2892 19.9145 24.2404 21.0236 24.4923" fill="white"/>
<path d="M22.1176 23.6426L19.9258 23.2892C19.9258 23.2892 19.9145 24.2404 21.0236 24.4923" stroke="#081017" stroke-width="0.200417" stroke-linecap="round" stroke-linejoin="round"/>
<path d="M21 22.4193C21 22.4193 21.5489 22.1749 21.8534 22.5396L21 22.4193Z" fill="white"/>
<path d="M21 22.4193C21 22.4193 21.5489 22.1749 21.8534 22.5396" stroke="#081017" stroke-width="0.193952" stroke-linecap="round" stroke-linejoin="round"/>
<path d="M20.5697 21.4999C20.7441 21.4999 20.8855 21.3585 20.8855 21.1841C20.8855 21.0097 20.7441 20.8683 20.5697 20.8683C20.3953 20.8683 20.2539 21.0097 20.2539 21.1841C20.2539 21.3585 20.3953 21.4999 20.5697 21.4999Z" fill="black"/>
<path d="M22.7064 21.8172C22.8808 21.8172 23.0222 21.6758 23.0222 21.5014C23.0222 21.3269 22.8808 21.1855 22.7064 21.1855C22.532 21.1855 22.3906 21.3269 22.3906 21.5014C22.3906 21.6758 22.532 21.8172 22.7064 21.8172Z" fill="black"/>
<path d="M34.4154 26.7687H32.3965C32.3965 26.7687 32.7273 27.5883 33.6447 27.7537" fill="white"/>
<path d="M34.4154 26.7687H32.3965C32.3965 26.7687 32.7273 27.5883 33.6447 27.7537" stroke="#081017" stroke-width="0.193952" stroke-linecap="round" stroke-linejoin="round"/>
<path d="M32.2748 25.2484C32.4492 25.2484 32.5906 25.107 32.5906 24.9326C32.5906 24.7582 32.4492 24.6168 32.2748 24.6168C32.1004 24.6168 31.959 24.7582 31.959 24.9326C31.959 25.107 32.1004 25.2484 32.2748 25.2484Z" fill="black"/>
<path d="M35.0482 25.2898C35.2226 25.2898 35.364 25.1484 35.364 24.974C35.364 24.7996 35.2226 24.6582 35.0482 24.6582C34.8738 24.6582 34.7324 24.7996 34.7324 24.974C34.7324 25.1484 34.8738 25.2898 35.0482 25.2898Z" fill="black"/>
<path d="M33.9321 25.5703C33.9321 25.5703 34.3908 25.9237 34.1427 25.9952L33.8945 26.0666" fill="white"/>
<path d="M33.9321 25.5703C33.9321 25.5703 34.3908 25.9237 34.1427 25.9952L33.8945 26.0666" stroke="#081017" stroke-width="0.193952" stroke-linecap="round" stroke-linejoin="round"/>
<path d="M68.9977 38.6266L59.0498 37.1604C59.0498 37.1604 57.2489 36.9423 56.5421 37.5476C55.9368 38.0664 55.0608 38.9537 55.1398 39.6116C55.1924 39.9312 55.3353 39.9312 55.5157 39.9275C55.5871 39.9275 55.6172 39.8071 55.7225 39.6718C56.0684 39.2357 56.903 38.371 57.7038 37.9424C56.9256 38.386 55.9894 39.371 55.5533 40.1154C55.4067 40.3598 55.8052 40.6869 56.027 40.5102C56.4067 40.2019 57.0045 39.5778 57.3655 39.3597C57.9444 39.0139 57.967 38.9349 58.3881 38.7469C56.8466 39.7507 56.0157 40.6192 56.0007 40.7583C55.9819 40.9162 56.1436 41.2546 56.5759 41.0215C56.7113 40.9501 57.0008 40.7959 57.1173 40.6681C57.3429 40.4162 57.7076 40.1042 58.0911 39.856C58.6024 39.5214 58.8129 39.4011 58.8129 39.4011C58.8129 39.4011 57.5422 40.0064 57.279 40.7245C57.2301 40.8598 57.3429 40.9952 57.4858 40.9914C57.7828 40.9801 58.1136 40.7884 58.3505 40.638C58.6588 40.4463 59.1588 40.138 59.1588 40.138C59.1588 40.138 60.0837 40.717 61.4334 40.2545C62.283 40.6794 68.2195 42.6833 68.2195 42.6833C68.2195 42.6833 70.7648 42.9539 70.6858 40.7546C70.6069 38.5552 69.7233 35.4347 69.7233 35.4347L65.866 36.7468L66.2119 37.98" fill="white"/>
<path d="M68.9977 38.6266L59.0498 37.1604C59.0498 37.1604 57.2489 36.9423 56.5421 37.5476C55.9368 38.0664 55.0608 38.9537 55.1398 39.6116C55.1924 39.9312 55.3353 39.9312 55.5157 39.9275C55.5871 39.9275 55.6172 39.8071 55.7225 39.6718C56.0684 39.2357 56.903 38.371 57.7038 37.9424C56.9256 38.386 55.9894 39.371 55.5533 40.1154C55.4067 40.3598 55.8052 40.6869 56.027 40.5102C56.4067 40.2019 57.0045 39.5778 57.3655 39.3597C57.9444 39.0139 57.967 38.9349 58.3881 38.7469C56.8466 39.7507 56.0157 40.6192 56.0007 40.7583C55.9819 40.9162 56.1436 41.2546 56.5759 41.0215C56.7113 40.9501 57.0008 40.7959 57.1173 40.6681C57.3429 40.4162 57.7076 40.1042 58.0911 39.856C58.6024 39.5214 58.8129 39.4011 58.8129 39.4011C58.8129 39.4011 57.5422 40.0064 57.279 40.7245C57.2301 40.8598 57.3429 40.9952 57.4858 40.9914C57.7828 40.9801 58.1136 40.7884 58.3505 40.638C58.6588 40.4463 59.1588 40.138 59.1588 40.138C59.1588 40.138 60.0837 40.717 61.4334 40.2545C62.283 40.6794 68.2195 42.6833 68.2195 42.6833C68.2195 42.6833 70.7648 42.9539 70.6858 40.7546C70.6069 38.5552 69.7233 35.4347 69.7233 35.4347L65.866 36.7468L66.2119 37.98" stroke="#081017" stroke-width="0.193952" stroke-linecap="round" stroke-linejoin="round"/>
<path d="M50.7893 35.7795L46.1725 46.517C46.1725 46.517 45.0559 47.4795 44.9017 48.6751C44.7476 49.8706 44.71 50.4496 44.8641 50.5661C45.0183 50.6827 45.2514 49.5623 45.2514 49.5623L45.5221 48.5999C45.5221 48.5999 44.8265 51.2203 44.9807 51.6076C45.022 52.2054 45.4431 51.9948 45.4431 51.9948C45.4431 51.9948 45.7514 50.2992 45.9431 49.6413C46.1349 48.9833 46.2138 48.7916 46.2138 48.7916C46.2138 48.7916 45.2213 51.9008 45.6725 52.3369C45.9206 52.4009 45.9807 52.57 46.4808 51.3745C46.9808 50.1789 47.2515 49.0999 47.2515 49.0999C47.2515 49.0999 46.1875 52.3106 46.289 52.4911C46.5071 52.8821 46.9432 52.4911 47.0974 52.0662C47.2515 51.6414 48.3305 49.0961 48.3305 49.0961L48.9095 50.8293C48.9095 50.8293 49.4246 51.4083 49.5261 50.521C49.5825 50.0473 49.5261 47.3216 49.5261 47.3216C49.5261 47.3216 49.4095 46.705 49.2178 46.5885C49.4509 46.2426 54.3459 37.5278 54.3459 37.5278" fill="white"/>
<path d="M50.7893 35.7795L46.1725 46.517C46.1725 46.517 45.0559 47.4795 44.9017 48.6751C44.7476 49.8706 44.71 50.4496 44.8641 50.5661C45.0183 50.6827 45.2514 49.5623 45.2514 49.5623L45.5221 48.5999C45.5221 48.5999 44.8265 51.2203 44.9807 51.6076C45.022 52.2054 45.4431 51.9948 45.4431 51.9948C45.4431 51.9948 45.7514 50.2992 45.9431 49.6413C46.1349 48.9833 46.2138 48.7916 46.2138 48.7916C46.2138 48.7916 45.2213 51.9008 45.6725 52.3369C45.9206 52.4009 45.9807 52.57 46.4808 51.3745C46.9808 50.1789 47.2515 49.0999 47.2515 49.0999C47.2515 49.0999 46.1875 52.3106 46.289 52.4911C46.5071 52.8821 46.9432 52.4911 47.0974 52.0662C47.2515 51.6414 48.3305 49.0961 48.3305 49.0961L48.9095 50.8293C48.9095 50.8293 49.4246 51.4083 49.5261 50.521C49.5825 50.0473 49.5261 47.3216 49.5261 47.3216C49.5261 47.3216 49.4095 46.705 49.2178 46.5885C49.4509 46.2426 54.3459 37.5278 54.3459 37.5278" stroke="#081017" stroke-width="0.193952" stroke-linecap="round" stroke-linejoin="round"/>
<path d="M26.3125 48.7634C26.3125 48.7634 26.7035 49.207 27.3013 48.7371" stroke="#081017" stroke-width="0.193952" stroke-linecap="round" stroke-linejoin="round"/>
<path d="M34.8457 48.3203C34.8457 48.3203 35.4435 48.6849 36.1992 48.0872" stroke="#081017" stroke-width="0.193952" stroke-linecap="round" stroke-linejoin="round"/>
<path d="M25.951 31.1655C25.951 31.1655 23.8117 33.0002 23.4659 33.6168C22.7327 33.8499 22.0785 33.8499 22.0785 33.8499C22.0785 33.8499 21.2665 34.0529 21.7703 34.3913C22.1274 34.6319 22.6199 34.3123 22.8869 34.4702C23.1538 34.6281 23.2328 34.8575 23.2328 34.8575" fill="white"/>
<path d="M25.951 31.1655C25.951 31.1655 23.8117 33.0002 23.4659 33.6168C22.7327 33.8499 22.0785 33.8499 22.0785 33.8499C22.0785 33.8499 21.2665 34.0529 21.7703 34.3913C22.1274 34.6319 22.6199 34.3123 22.8869 34.4702C23.1538 34.6281 23.2328 34.8575 23.2328 34.8575" stroke="#081017" stroke-width="0.193952" stroke-linecap="round" stroke-linejoin="round"/>
<path d="M49.5637 25.9799C49.5637 25.9799 50.6427 29.4877 50.6803 30.7208C48.5223 32.4954 43.5483 31.9916 43.5483 31.9916L41.582 24.0099" fill="white"/>
<path d="M49.5637 25.9799C49.5637 25.9799 50.6427 29.4877 50.6803 30.7208C48.5223 32.4954 43.5483 31.9916 43.5483 31.9916L41.582 24.0099" stroke="#081017" stroke-width="0.193952" stroke-linecap="round" stroke-linejoin="round"/>
<path d="M2.17034 42.6467C2.17034 42.6467 2.31321 41.3008 2.59518 41.2331C2.87715 41.1655 1.9598 41.8008 1.67407 42.2933C1.38834 42.7859 0.328125 41.5865 0.328125 41.5865C0.328125 41.5865 0.895829 42.4362 1.03494 42.7182" stroke="#E6E6E6" stroke-width="0.219812" stroke-linecap="round" stroke-linejoin="round"/>
<path d="M34.1938 55.4561C34.1938 55.4561 34.3366 54.1101 34.6186 54.0425C34.9006 53.9748 33.9832 54.6102 33.6975 55.1027C33.4118 55.5952 32.3516 54.3959 32.3516 54.3959C32.3516 54.3959 32.9193 55.2455 33.0584 55.5275" stroke="#E6E6E6" stroke-width="0.219812" stroke-linecap="round" stroke-linejoin="round"/>
<path d="M20.2172 58.7115C20.2172 58.7115 20.3601 57.3655 20.6421 57.2978C20.924 57.2302 20.0067 57.8655 19.7209 58.358C19.4352 58.8506 18.375 57.6512 18.375 57.6512C18.375 57.6512 18.9427 58.5009 19.0818 58.7829" stroke="#F6B4DD" stroke-width="0.193952" stroke-linecap="round" stroke-linejoin="round"/>
<path d="M9.99185 55.3402C9.99185 55.3402 10.0858 54.4567 10.2701 54.4116C10.4543 54.3665 9.85274 54.7838 9.66476 55.1071C9.47678 55.4304 8.78125 54.6409 8.78125 54.6409C8.78125 54.6409 9.15345 55.1973 9.24744 55.3853" stroke="#E6E6E6" stroke-width="0.219812" stroke-linecap="round" stroke-linejoin="round"/>
<path d="M51.1852 62.4112C51.1852 62.4112 51.2792 61.5277 51.4634 61.4826C51.6476 61.4375 51.0461 61.8548 50.8581 62.1782C50.6701 62.5015 49.9746 61.712 49.9746 61.712C49.9746 61.712 50.3468 62.2684 50.4408 62.4564" stroke="#E6E6E6" stroke-width="0.219812" stroke-linecap="round" stroke-linejoin="round"/>
<path d="M57.4821 59.6932H27.4539C26.9125 59.6932 26.4727 59.2534 26.4727 58.712C26.4727 58.1706 26.9125 57.7307 27.4539 57.7307H47.7634" stroke="#F6B4DD" stroke-width="0.193952" stroke-linecap="round" stroke-linejoin="round"/>
<path d="M17.6426 39.665L17.7216 40.5147C17.7216 40.5147 16.3343 41.5937 13.8266 41.056C11.3189 40.5184 9.85642 40.1312 9.1233 39.5898C8.39017 39.0484 7.92773 38.6649 7.92773 38.6649C7.92773 38.6649 10.0858 35.2737 10.6271 33.0368C11.1685 30.7998 11.6798 28.5252 12.2475 27.7545C13.7815 25.6641 15.1688 25.6228 15.7102 25.4686L16.2929 25.8596C16.2929 25.8596 16.0109 27.4161 17.5486 28.247" fill="white"/>
<path d="M17.6426 39.665L17.7216 40.5147C17.7216 40.5147 16.3343 41.5937 13.8266 41.056C11.3189 40.5184 9.85642 40.1312 9.1233 39.5898C8.39017 39.0484 7.92773 38.6649 7.92773 38.6649C7.92773 38.6649 10.0858 35.2737 10.6271 33.0368C11.1685 30.7998 11.6798 28.5252 12.2475 27.7545C13.7815 25.6641 15.1688 25.6228 15.7102 25.4686L16.2929 25.8596C16.2929 25.8596 16.0109 27.4161 17.5486 28.247" stroke="#081017" stroke-width="0.193952" stroke-linecap="round" stroke-linejoin="round"/>
<path d="M13.3711 34.3828C13.3711 34.3828 14.608 37.086 15.1344 38.0071C15.5291 38.6988 16.3186 39.5636 17.6871 39.5297C19.691 39.4846 22.7702 38.5861 22.7702 38.5861L24.5033 38.086C24.5033 38.086 25.0447 37.9695 25.5824 37.9319C26.12 37.8943 28.0487 37.007 28.0487 37.007C28.0487 37.007 29.1314 36.7777 29.5826 36.616C30.0338 36.4543 30.2857 36.0596 29.2066 36.1573C28.4359 36.2288 27.5486 36.3115 27.5486 36.3115C27.5486 36.3115 29.5901 36.0295 29.8608 35.9656C30.1804 35.8866 30.2744 35.5031 30.1541 35.3828C29.9698 35.1986 29.9661 35.2926 29.0788 35.3678C28.1915 35.443 27.5486 35.6159 27.5486 35.6159C27.5486 35.6159 29.9022 35.1761 30.0939 35.037C30.5 34.7437 30.015 34.3828 29.3608 34.4956C28.7066 34.6084 27.278 34.9956 27.278 34.9956C27.278 34.9956 29.7067 34.4956 29.7443 34.3001C29.7819 34.1046 29.4397 33.9316 28.6653 33.9128C26.9433 33.8752 24.8492 35.725 24.5785 35.8791C24.3078 36.0333 23.3454 36.2664 21.3415 36.3416C19.3376 36.4167 17.7548 36.0333 17.7548 36.0333L15.8261 29.593" fill="white"/>
<path d="M13.3711 34.3828C13.3711 34.3828 14.608 37.086 15.1344 38.0071C15.5291 38.6988 16.3186 39.5636 17.6871 39.5297C19.691 39.4846 22.7702 38.586 22.7702 38.586L24.5033 38.086C24.5033 38.086 25.0447 37.9695 25.5824 37.9319C26.12 37.8943 28.0487 37.007 28.0487 37.007C28.0487 37.007 29.1314 36.7777 29.5826 36.616C30.0338 36.4543 30.2857 36.0596 29.2066 36.1573C28.4359 36.2288 27.5486 36.3115 27.5486 36.3115C27.5486 36.3115 29.5901 36.0295 29.8608 35.9656C30.1804 35.8866 30.2744 35.5031 30.1541 35.3828C29.9698 35.1986 29.9661 35.2926 29.0788 35.3678C28.1915 35.443 27.5486 35.6159 27.5486 35.6159C27.5486 35.6159 29.9022 35.1761 30.0939 35.037C30.5 34.7437 30.015 34.3828 29.3608 34.4956C28.7066 34.6084 27.278 34.9956 27.278 34.9956C27.278 34.9956 29.7067 34.4956 29.7443 34.3001C29.7819 34.1046 29.4397 33.9316 28.6653 33.9128C26.9433 33.8752 24.8492 35.725 24.5785 35.8791C24.3078 36.0333 23.3454 36.2664 21.3415 36.3416C19.3376 36.4167 17.7548 36.0333 17.7548 36.0333L15.8261 29.593" stroke="#081017" stroke-width="0.193952" stroke-linecap="round" stroke-linejoin="round"/>
<path d="M49.5084 34.8605L49.8919 36.338L48.0723 37.6313L49.5084 34.8605Z" fill="#E6E6E6"/>
<path d="M31.5098 24.2328C31.5098 24.2328 31.8932 23.8606 32.2128 24.0599L31.5098 24.2328Z" fill="white"/>
<path d="M31.5098 24.2328C31.5098 24.2328 31.8932 23.8606 32.2128 24.0599" stroke="#081017" stroke-width="0.193952" stroke-linecap="round" stroke-linejoin="round"/>
<path d="M34.6875 23.9772C34.6875 23.9772 35.2176 23.9095 35.3529 24.2592L34.6875 23.9772Z" fill="white"/>
<path d="M34.6875 23.9772C34.6875 23.9772 35.2176 23.9095 35.3529 24.2592" stroke="#081017" stroke-width="0.193952" stroke-linecap="round" stroke-linejoin="round"/>
<path d="M19.9414 20.8932C19.9414 20.8932 20.088 20.4533 20.3813 20.4044L19.9414 20.8932Z" fill="white"/>
<path d="M19.9414 20.8932C19.9414 20.8932 20.088 20.4533 20.3813 20.4044" stroke="#081017" stroke-width="0.193952" stroke-linecap="round" stroke-linejoin="round"/>
<path d="M22.9648 20.7734C22.9648 20.7734 23.2694 21.0479 23.2468 21.281L22.9648 20.7734Z" fill="white"/>
<path d="M22.9648 20.7734C22.9648 20.7734 23.2694 21.0479 23.2468 21.281" stroke="#081017" stroke-width="0.193952" stroke-linecap="round" stroke-linejoin="round"/>
<path d="M42.4296 45.7848L42.5762 45.375L39.0346 43.2245C39.0346 43.2245 38.3842 43.1306 38.0383 43.2396C37.9293 43.2734 38.5233 43.4764 39.2715 43.9013C40.5761 44.6494 42.4296 45.7848 42.4296 45.7848Z" fill="#E10098"/>
<path d="M12.0879 31.3379C12.0879 31.3379 13.0128 34.4208 13.1293 34.4208C13.2459 34.4208 16.8213 33.0184 16.8213 33.0184" fill="white"/>
<path d="M12.0879 31.3379C12.0879 31.3379 13.0128 34.4208 13.1293 34.4208C13.2459 34.4208 16.8213 33.0184 16.8213 33.0184" stroke="#081017" stroke-width="0.193952" stroke-linecap="round" stroke-linejoin="round"/>
<path d="M15.4841 26.0445C13.5366 25.2775 12.6493 23.018 13.5554 21.1306L15.6646 17.168C16.6984 15.0175 19.1648 13.9573 21.4356 14.6904L21.7175 14.7806C23.8493 15.4686 25.2178 17.5402 25.011 19.7697" stroke="#E10098" stroke-width="0.193952" stroke-linecap="round" stroke-linejoin="round"/>
<path d="M36.3223 23.5206C36.3223 21.3701 34.5628 19.6332 32.4048 19.667C30.2768 19.7008 28.6113 21.5318 28.6113 23.6597V25.3027C28.6113 26.3478 29.4572 27.1938 30.5024 27.1938" stroke="#E10098" stroke-width="0.200417" stroke-linecap="round" stroke-linejoin="round"/>
<path d="M43.0823 10.9952L41.304 11.4389L39.9693 12.3487L38.7362 14.127L38.4316 16.6911L38.6723 18.2062L39.6422 19.477H39.9844L39.6798 18.7288L39.5182 17.0332L39.6197 16.0031C39.6197 16.0031 39.2776 15.4993 40.5709 15.0331C41.8642 14.5669 42.5898 14.3451 42.7327 14.4466C42.8755 14.5481 42.9357 15.2737 43.2966 15.2737C43.6575 15.2737 45.3155 14.7887 45.4584 14.5481C45.6013 14.3075 45.7404 14.5293 45.7817 14.9729C45.8231 15.4166 46.5299 15.8828 47.7405 15.9617L47.842 14.4278L47.3382 13.3375L43.0748 10.9952H43.0823Z" fill="white"/>
<path d="M39.5977 15.594V17.8385C39.5977 19.8273 41.1842 21.5267 43.1731 21.5003C45.3499 21.4665 47.1019 19.6957 47.1019 17.5114H47.2147C47.6545 17.5114 48.0079 17.1542 48.0079 16.7181C48.0079 16.2782 47.6508 15.9248 47.2147 15.9248H47.0229C47.0229 15.9248 45.8537 15.8797 45.677 14.3007C44.2746 15.4699 42.6881 15.4022 42.9024 14.7894C43.1167 14.1766 41.7933 14.5375 40.1165 15.2556" fill="white"/>
<path d="M39.5977 15.594V17.8385C39.5977 19.8273 41.1842 21.5267 43.1731 21.5003C45.3499 21.4665 47.1019 19.6957 47.1019 17.5114H47.2147C47.6545 17.5114 48.0079 17.1542 48.0079 16.7181C48.0079 16.2782 47.6508 15.9248 47.2147 15.9248H47.0229C47.0229 15.9248 45.8537 15.8797 45.677 14.3007C44.2746 15.4699 42.6881 15.4022 42.9024 14.7894C43.1167 14.1766 41.7933 14.5375 40.1165 15.2556" stroke="#081017" stroke-width="0.193952" stroke-linecap="round" stroke-linejoin="round"/>
<path d="M39.8159 19.5933C38.9926 19.0406 38.4512 18.1044 38.4512 17.0367V15.9201C38.4512 13.1793 40.6731 10.9574 43.4139 10.9574H43.6244C45.0832 10.9574 46.4103 11.6755 47.2149 12.8147C47.8314 13.4388 47.9442 14.5065 49.6586 14.5065H52.6325C53.6739 14.5065 54.5161 15.3486 54.5161 16.3901C54.5161 17.1269 55.1138 17.721 55.847 17.721H58.4298C59.5652 17.721 60.4863 18.6421 60.4863 19.7775C60.4863 20.9129 59.5652 21.834 58.4298 21.834H52.5911C51.8881 21.834 51.3166 21.2625 51.3166 20.5595C51.3166 19.7812 50.6888 19.1534 49.9105 19.1534H48.3803H46.9442" stroke="#F61BA3" stroke-width="0.193952" stroke-linecap="round" stroke-linejoin="round"/>
<path d="M40.9336 19.1719L43.0991 19.0854C43.0991 19.0854 43.0615 20.2359 41.7757 20.5216" fill="white"/>
<path d="M40.9336 19.1719L43.0991 19.0854C43.0991 19.0854 43.0615 20.2359 41.7757 20.5216" stroke="#081017" stroke-width="0.193952" stroke-linecap="round" stroke-linejoin="round"/>
<path d="M40.3158 17.2721C40.4902 17.2721 40.6316 17.1307 40.6316 16.9563C40.6316 16.7819 40.4902 16.6405 40.3158 16.6405C40.1414 16.6405 40 16.7819 40 16.9563C40 17.1307 40.1414 17.2721 40.3158 17.2721Z" fill="black"/>
<path d="M42.9369 17.4118C43.1113 17.4118 43.2527 17.2704 43.2527 17.096C43.2527 16.9215 43.1113 16.7802 42.9369 16.7802C42.7625 16.7802 42.6211 16.9215 42.6211 17.096C42.6211 17.2704 42.7625 17.4118 42.9369 17.4118Z" fill="black"/>
<path d="M41.2369 17.8077C41.2369 17.8077 40.8835 18.586 41.7332 18.3754L41.2369 17.8077Z" fill="white"/>
<path d="M41.2369 17.8077C41.2369 17.8077 40.8835 18.586 41.7332 18.3754" stroke="#081017" stroke-width="0.193952" stroke-linecap="round" stroke-linejoin="round"/>
<path d="M46.5797 16.4835C46.5797 16.4835 47.3015 17.1678 46.3691 17.6302L46.5797 16.4835Z" fill="white"/>
<path d="M46.5797 16.4835C46.5797 16.4835 47.3015 17.1678 46.3691 17.6302" stroke="#081017" stroke-width="0.193952" stroke-linecap="round" stroke-linejoin="round"/>
<path d="M42.9062 16.0309C42.9062 16.0309 43.4401 15.997 43.5491 16.358L42.9062 16.0309Z" fill="white"/>
<path d="M42.9062 16.0309C42.9062 16.0309 43.4401 15.997 43.5491 16.358" stroke="#081017" stroke-width="0.193952" stroke-linecap="round" stroke-linejoin="round"/>
<path d="M39.6504 16.3342C39.6504 16.3342 40.0339 15.9619 40.3534 16.1612L39.6504 16.3342Z" fill="white"/>
<path d="M39.6504 16.3342C39.6504 16.3342 40.0339 15.9619 40.3534 16.1612" stroke="#081017" stroke-width="0.193952" stroke-linecap="round" stroke-linejoin="round"/>
<path d="M55.3509 21.9836C57.0277 21.2618 58.351 20.9046 58.1367 21.5174C57.9224 22.1303 59.5053 22.1979 60.9114 21.0287C61.0881 22.6077 62.2573 22.6528 62.2573 22.6528H62.449C62.8889 22.6528 63.2423 23.01 63.2423 23.4461C63.2423 23.886 62.8852 24.2394 62.449 24.2394H62.3362C62.3362 26.4238 60.5805 28.1983 58.4074 28.2284C56.4186 28.2585 54.832 26.5553 54.832 24.5665V22.322" fill="white"/>
<path d="M55.3509 21.9836C57.0277 21.2618 58.351 20.9046 58.1367 21.5174C57.9224 22.1303 59.5053 22.1979 60.9114 21.0287C61.0881 22.6077 62.2573 22.6528 62.2573 22.6528H62.449C62.8889 22.6528 63.2423 23.01 63.2423 23.4461C63.2423 23.886 62.8852 24.2394 62.449 24.2394H62.3362C62.3362 26.4238 60.5805 28.1983 58.4074 28.2284C56.4186 28.2585 54.832 26.5553 54.832 24.5665V22.322" stroke="#081017" stroke-width="0.193952" stroke-linecap="round" stroke-linejoin="round"/>
<path d="M58.0205 23.4757L58.1859 23.3028C58.3513 23.1298 58.5844 23.0321 58.825 23.0396L59.9304 23.0734C60.2575 23.0847 60.5507 23.2802 60.6823 23.581L60.7011 23.6261C60.7876 23.8253 60.7951 24.0472 60.7199 24.2502L60.6597 24.4194C60.5432 24.7465 60.2349 24.9683 59.889 24.9796L58.7724 25.0134C58.5431 25.0209 58.3212 24.9344 58.1558 24.7728L58.0468 24.6675C57.8588 24.4833 57.7686 24.2239 57.7987 23.9645C57.8212 23.784 57.9002 23.6111 58.028 23.4795L58.0205 23.4757Z" fill="#F41BA2"/>
<path d="M60.6738 23.582L62.3093 22.5443" stroke="#081017" stroke-width="0.193952" stroke-linecap="round" stroke-linejoin="round"/>
<path d="M57.0605 24.0063C57.0605 24.0063 57.32 23.8032 57.8463 24.0626" stroke="#081017" stroke-width="0.193952" stroke-linecap="round" stroke-linejoin="round"/>
<path d="M56.3578 23.1566C56.5985 23.2243 56.8015 23.3972 56.903 23.6341L56.9218 23.6792C57.0083 23.8785 57.0158 24.1003 56.9406 24.3033L56.8804 24.4725C56.7639 24.7996 56.4556 25.0214 56.1097 25.0327L54.9931 25.0665C54.7638 25.074 54.5419 24.9876 54.3765 24.8259L54.2675 24.7206C54.0795 24.5364 53.9893 24.277 54.0194 24.0176C54.0419 23.8371 54.1209 23.6642 54.2487 23.5326L54.4141 23.3597C54.5795 23.1867 54.8126 23.089 55.0533 23.0965L56.1586 23.1303C56.23 23.1303 56.2977 23.1416 56.3654 23.1604" fill="#F41BA2"/>
<path d="M56.543 25.7859L59.2649 25.831C59.2649 25.831 59.1747 27.0378 57.7573 27.2484" stroke="#081017" stroke-width="0.193952" stroke-linecap="round" stroke-linejoin="round"/>
<path d="M34.8639 31.6155H30.623V33.9051H34.8639V31.6155Z" fill="white"/>
<path d="M47.8016 24.2253H45.6699V26.5225H47.8016V24.2253Z" fill="white"/>
</svg>
