<svg width="71" height="50" viewBox="0 0 71 50" fill="none" xmlns="http://www.w3.org/2000/svg">
<path d="M16.0273 23.1925V31.7204" stroke="#E6E6E6" stroke-width="0.631428" stroke-miterlimit="10"/>
<path d="M23.0762 22.2374V31.7202" stroke="#E6E6E6" stroke-width="0.631428" stroke-miterlimit="10"/>
<mask id="mask0_1546_224268" style="mask-type:luminance" maskUnits="userSpaceOnUse" x="8" y="8" width="16" height="15">
<path d="M15.9746 22.6302C19.9171 22.6302 23.1132 19.4341 23.1132 15.4915C23.1132 11.549 19.9171 8.35291 15.9746 8.35291C12.032 8.35291 8.83594 11.549 8.83594 15.4915C8.83594 19.4341 12.032 22.6302 15.9746 22.6302Z" fill="white"/>
</mask>
<g mask="url(#mask0_1546_224268)">
<path d="M15.9757 4.9059L-1.75 22.6316L15.9757 40.3573L33.7014 22.6316L15.9757 4.9059Z" stroke="#F6B4DD" stroke-width="0.145714" stroke-miterlimit="10"/>
<path d="M15.9753 6.32619L-0.330078 22.6316L15.9753 38.937L32.2807 22.6316L15.9753 6.32619Z" stroke="#F6B4DD" stroke-width="0.145714" stroke-miterlimit="10"/>
<path d="M15.975 7.74648L1.08984 22.6316L15.975 37.5167L30.8601 22.6316L15.975 7.74648Z" stroke="#F6B4DD" stroke-width="0.145714" stroke-miterlimit="10"/>
<path d="M15.9765 9.16677L2.51172 22.6316L15.9765 36.0964L29.4414 22.6316L15.9765 9.16677Z" stroke="#F6B4DD" stroke-width="0.145714" stroke-miterlimit="10"/>
<path d="M15.9742 10.5871L3.92969 22.6316L15.9742 34.6761L28.0188 22.6316L15.9742 10.5871Z" stroke="#F6B4DD" stroke-width="0.145714" stroke-miterlimit="10"/>
<path d="M15.9756 12.0056L5.34961 22.6316L15.9756 33.2576L26.6016 22.6316L15.9756 12.0056Z" stroke="#F6B4DD" stroke-width="0.145714" stroke-miterlimit="10"/>
<path d="M15.9733 13.4259L6.76758 22.6316L15.9733 31.8373L25.179 22.6316L15.9733 13.4259Z" stroke="#F6B4DD" stroke-width="0.145714" stroke-miterlimit="10"/>
<path d="M15.9749 14.8462L8.18945 22.6316L15.9749 30.417L23.7603 22.6316L15.9749 14.8462Z" stroke="#F6B4DD" stroke-width="0.145714" stroke-miterlimit="10"/>
<path d="M15.9745 16.2665L9.60938 22.6316L15.9745 28.9967L22.3396 22.6316L15.9745 16.2665Z" stroke="#F6B4DD" stroke-width="0.145714" stroke-miterlimit="10"/>
<path d="M15.9759 17.685L11.0293 22.6316L15.9759 27.5782L20.9225 22.6316L15.9759 17.685Z" stroke="#F6B4DD" stroke-width="0.145714" stroke-miterlimit="10"/>
<path d="M15.9755 19.1053L12.4492 22.6316L15.9755 26.1579L19.5018 22.6316L15.9755 19.1053Z" stroke="#F6B4DD" stroke-width="0.145714" stroke-miterlimit="10"/>
<path d="M15.9751 20.5256L13.8691 22.6316L15.9751 24.7376L18.0812 22.6316L15.9751 20.5256Z" stroke="#F6B4DD" stroke-width="0.145714" stroke-miterlimit="10"/>
<path d="M15.9748 21.9459L15.2891 22.6316L15.9748 23.3173L16.6605 22.6316L15.9748 21.9459Z" stroke="#F6B4DD" stroke-width="0.145714" stroke-miterlimit="10"/>
</g>
<path d="M23.3536 22.626C25.8012 22.626 27.7853 20.6419 27.7853 18.1943C27.7853 15.7467 25.8012 13.7626 23.3536 13.7626C20.906 13.7626 18.9219 15.7467 18.9219 18.1943C18.9219 20.6419 20.906 22.626 23.3536 22.626Z" fill="white" stroke="white" stroke-width="1.04429" stroke-miterlimit="10"/>
<mask id="mask1_1546_224268" style="mask-type:luminance" maskUnits="userSpaceOnUse" x="18" y="13" width="10" height="10">
<path d="M23.3502 22.6302C25.7992 22.6302 27.7844 20.645 27.7844 18.196C27.7844 15.7471 25.7992 13.7618 23.3502 13.7618C20.9013 13.7618 18.916 15.7471 18.916 18.196C18.916 20.645 20.9013 22.6302 23.3502 22.6302Z" fill="white"/>
</mask>
<g mask="url(#mask1_1546_224268)">
<path d="M23.3524 12.3798L13.1016 22.6306L23.3524 32.8815L33.6033 22.6306L23.3524 12.3798Z" stroke="#E6E6E6" stroke-width="0.145714" stroke-miterlimit="10"/>
<path d="M23.3504 13.4755L14.1953 22.6306L23.3504 31.7857L32.5055 22.6306L23.3504 13.4755Z" stroke="#E6E6E6" stroke-width="0.145714" stroke-miterlimit="10"/>
<path d="M23.3502 14.5695L15.2891 22.6306L23.3502 30.6917L31.4113 22.6306L23.3502 14.5695Z" stroke="#E6E6E6" stroke-width="0.145714" stroke-miterlimit="10"/>
<path d="M23.3501 15.6653L16.3848 22.6306L23.3501 29.596L30.3155 22.6306L23.3501 15.6653Z" stroke="#E6E6E6" stroke-width="0.145714" stroke-miterlimit="10"/>
<path d="M23.3518 16.7593L17.4805 22.6306L23.3518 28.502L29.2231 22.6306L23.3518 16.7593Z" stroke="#E6E6E6" stroke-width="0.145714" stroke-miterlimit="10"/>
<path d="M23.3518 17.855L18.5762 22.6306L23.3518 27.4062L28.1274 22.6306L23.3518 17.855Z" stroke="#E6E6E6" stroke-width="0.145714" stroke-miterlimit="10"/>
<path d="M23.3515 18.949L19.6699 22.6306L23.3515 26.3122L27.0331 22.6306L23.3515 18.949Z" stroke="#E6E6E6" stroke-width="0.145714" stroke-miterlimit="10"/>
<path d="M23.3495 20.0448L20.7637 22.6306L23.3495 25.2164L25.9353 22.6306L23.3495 20.0448Z" stroke="#E6E6E6" stroke-width="0.145714" stroke-miterlimit="10"/>
<path d="M23.3532 21.1388L21.8613 22.6306L23.3532 24.1224L24.845 22.6306L23.3532 21.1388Z" stroke="#E6E6E6" stroke-width="0.145714" stroke-miterlimit="10"/>
<path d="M23.3512 22.2345L22.9551 22.6306L23.3512 23.0267L23.7472 22.6306L23.3512 22.2345Z" stroke="#E6E6E6" stroke-width="0.145714" stroke-miterlimit="10"/>
</g>
<path d="M9.42123 13.1921C10.5837 13.1921 11.5261 12.2497 11.5261 11.0872C11.5261 9.92478 10.5837 8.98242 9.42123 8.98242C8.25877 8.98242 7.31641 9.92478 7.31641 11.0872C7.31641 12.2497 8.25877 13.1921 9.42123 13.1921Z" fill="white" stroke="white" stroke-width="1.04429" stroke-miterlimit="10"/>
<mask id="mask2_1546_224268" style="mask-type:luminance" maskUnits="userSpaceOnUse" x="7" y="8" width="5" height="6">
<path d="M9.42123 13.1933C10.5837 13.1933 11.5261 12.2509 11.5261 11.0885C11.5261 9.926 10.5837 8.98364 9.42123 8.98364C8.25877 8.98364 7.31641 9.926 7.31641 11.0885C7.31641 12.2509 8.25877 13.1933 9.42123 13.1933Z" fill="white"/>
</mask>
<g mask="url(#mask2_1546_224268)">
<path d="M9.42101 8.3268L4.55469 13.1931L9.42101 18.0594L14.2873 13.1931L9.42101 8.3268Z" stroke="#F6B4DD" stroke-width="0.145714" stroke-miterlimit="10"/>
<path d="M9.42071 8.99372L5.22266 13.1918L9.42071 17.3898L13.6188 13.1918L9.42071 8.99372Z" stroke="#F6B4DD" stroke-width="0.145714" stroke-miterlimit="10"/>
<path d="M9.42236 9.66333L5.89258 13.1931L9.42236 16.7229L12.9521 13.1931L9.42236 9.66333Z" stroke="#F6B4DD" stroke-width="0.145714" stroke-miterlimit="10"/>
<path d="M9.42011 10.3303L6.55859 13.1918L9.42011 16.0533L12.2816 13.1918L9.42011 10.3303Z" stroke="#F6B4DD" stroke-width="0.145714" stroke-miterlimit="10"/>
<path d="M9.42176 10.9999L7.22852 13.1931L9.42176 15.3864L11.615 13.1931L9.42176 10.9999Z" stroke="#F6B4DD" stroke-width="0.145714" stroke-miterlimit="10"/>
<path d="M9.42146 11.6668L7.89648 13.1918L9.42146 14.7168L10.9464 13.1918L9.42146 11.6668Z" stroke="#F6B4DD" stroke-width="0.145714" stroke-miterlimit="10"/>
<path d="M9.41921 12.3351L8.5625 13.1918L9.41921 14.0485L10.2759 13.1918L9.41921 12.3351Z" stroke="#F6B4DD" stroke-width="0.145714" stroke-miterlimit="10"/>
<path d="M9.42086 13.0033L9.23242 13.1918L9.42086 13.3802L9.6093 13.1918L9.42086 13.0033Z" stroke="#F6B4DD" stroke-width="0.145714" stroke-miterlimit="10"/>
</g>
<path d="M55.8223 20.0869V29.1231" stroke="#E6E6E6" stroke-width="0.631428" stroke-miterlimit="10"/>
<path d="M55.931 22.1377C59.2044 22.1377 61.858 19.4841 61.858 16.2106C61.858 12.9372 59.2044 10.2836 55.931 10.2836C52.6575 10.2836 50.0039 12.9372 50.0039 16.2106C50.0039 19.4841 52.6575 22.1377 55.931 22.1377Z" fill="white" stroke="white" stroke-width="1.04429" stroke-miterlimit="10"/>
<mask id="mask3_1546_224268" style="mask-type:luminance" maskUnits="userSpaceOnUse" x="50" y="10" width="12" height="13">
<path d="M55.9334 22.1426C59.2082 22.1426 61.863 19.4879 61.863 16.2131C61.863 12.9383 59.2082 10.2836 55.9334 10.2836C52.6587 10.2836 50.0039 12.9383 50.0039 16.2131C50.0039 19.4879 52.6587 22.1426 55.9334 22.1426Z" fill="white"/>
</mask>
<g mask="url(#mask3_1546_224268)">
<path d="M55.9357 8.43092L42.2266 22.14L55.9357 35.8491L69.6448 22.14L55.9357 8.43092Z" stroke="#E6E6E6" stroke-width="0.145714" stroke-miterlimit="10"/>
<path d="M55.9375 9.44466L43.2422 22.14L55.9375 34.8354L68.6329 22.14L55.9375 9.44466Z" stroke="#E6E6E6" stroke-width="0.145714" stroke-miterlimit="10"/>
<path d="M55.9355 10.4584L44.2539 22.14L55.9355 33.8216L67.6171 22.14L55.9355 10.4584Z" stroke="#E6E6E6" stroke-width="0.145714" stroke-miterlimit="10"/>
<path d="M55.9354 11.4751L45.2676 22.1429L55.9354 32.8108L66.6033 22.1429L55.9354 11.4751Z" stroke="#E6E6E6" stroke-width="0.145714" stroke-miterlimit="10"/>
<path d="M55.9354 12.4859L46.2812 22.14L55.9354 31.7941L65.5895 22.14L55.9354 12.4859Z" stroke="#E6E6E6" stroke-width="0.145714" stroke-miterlimit="10"/>
<path d="M55.9353 13.5026L47.2949 22.1429L55.9353 30.7833L64.5757 22.1429L55.9353 13.5026Z" stroke="#E6E6E6" stroke-width="0.145714" stroke-miterlimit="10"/>
<path d="M55.9352 14.5134L48.3086 22.14L55.9352 29.7666L63.5619 22.14L55.9352 14.5134Z" stroke="#E6E6E6" stroke-width="0.145714" stroke-miterlimit="10"/>
<path d="M55.9352 15.5301L49.3223 22.1429L55.9352 28.7558L62.5481 22.1429L55.9352 15.5301Z" stroke="#E6E6E6" stroke-width="0.145714" stroke-miterlimit="10"/>
<path d="M55.9351 16.5409L50.3359 22.14L55.9351 27.7392L61.5342 22.14L55.9351 16.5409Z" stroke="#E6E6E6" stroke-width="0.145714" stroke-miterlimit="10"/>
<path d="M55.935 17.5575L51.3496 22.1429L55.935 26.7283L60.5204 22.1429L55.935 17.5575Z" stroke="#E6E6E6" stroke-width="0.145714" stroke-miterlimit="10"/>
<path d="M55.9349 18.5684L52.3633 22.14L55.9349 25.7117L59.5066 22.14L55.9349 18.5684Z" stroke="#E6E6E6" stroke-width="0.145714" stroke-miterlimit="10"/>
<path d="M55.9349 19.585L53.377 22.1429L55.9349 24.7009L58.4928 22.1429L55.9349 19.585Z" stroke="#E6E6E6" stroke-width="0.145714" stroke-miterlimit="10"/>
<path d="M55.9348 20.5958L54.3906 22.14L55.9348 23.6842L57.479 22.14L55.9348 20.5958Z" stroke="#E6E6E6" stroke-width="0.145714" stroke-miterlimit="10"/>
<path d="M55.9347 21.6125L55.4043 22.1429L55.9347 22.6734L56.4652 22.1429L55.9347 21.6125Z" stroke="#E6E6E6" stroke-width="0.145714" stroke-miterlimit="10"/>
</g>
<path d="M45.8574 41.6698H56.8381" stroke="#081017" stroke-width="0.145714" stroke-linecap="round" stroke-linejoin="round"/>
<path d="M49.6328 42.824H60.6134" stroke="#081017" stroke-width="0.145714" stroke-linecap="round" stroke-linejoin="round"/>
<path d="M9.34961 42.4375H20.3302" stroke="#F6B4DD" stroke-width="0.145714" stroke-linecap="round" stroke-linejoin="round"/>
<path d="M9.34961 42.4375H20.3302" stroke="#E10098" stroke-width="0.145714" stroke-linecap="round" stroke-linejoin="round"/>
<path d="M20.6037 1.98023C20.7789 1.01048 21.6277 0.275146 22.6468 0.275146C23.4266 0.275146 24.1076 0.704503 24.4629 1.34113C24.5987 1.31646 24.7368 1.30412 24.8775 1.30412C26.1507 1.30412 27.1871 2.30841 27.2414 3.56934C27.498 3.32752 27.8435 3.17699 28.2235 3.17699C29.0131 3.17699 29.6522 3.81609 29.6522 4.60571C29.6522 5.39533 29.0131 6.03442 28.2235 6.03442H21.2378C20.0904 6.03442 19.1602 5.10415 19.1602 3.95674C19.1602 3.02894 19.7672 2.24426 20.6061 1.97776L20.6037 1.98023Z" fill="#E6E6E6" stroke="#E6E6E6" stroke-width="0.165143" stroke-linecap="round" stroke-linejoin="round"/>
<path d="M59.406 29.1287C59.3888 29.1287 59.374 29.1287 59.3567 29.1287V29.1237C59.3567 27.2657 57.8515 25.7605 55.9934 25.7605C55.1273 25.7605 54.3377 26.0886 53.7405 26.6266C53.0768 25.7925 52.0552 25.2595 50.9078 25.2595C49.2002 25.2595 47.7666 26.444 47.3866 28.0356C47.0263 27.8209 46.6068 27.6926 46.1553 27.6926C45.9258 27.6926 45.7037 27.7271 45.494 27.7863C44.9782 26.5945 43.7913 25.758 42.4095 25.758C41.5434 25.758 40.7538 26.0862 40.1566 26.6241C39.4929 25.7901 38.4713 25.2571 37.3239 25.2571C35.6163 25.2571 34.1827 26.4415 33.8027 28.0331C33.4424 27.8184 33.0229 27.6901 32.5714 27.6901C31.2438 27.6901 30.168 28.7659 30.168 30.0935C30.168 31.421 31.0415 32.6968 32.3666 32.6252C33.1858 32.5833 45.8197 33.0126 45.8197 33.0126C46.2515 33.0126 46.6488 32.8695 46.972 32.6326C50.1552 32.6968 59.406 33.0126 59.406 33.0126C60.4794 33.0126 61.3505 32.1416 61.3505 31.0682C61.3505 29.9948 60.4794 29.1237 59.406 29.1237V29.1287Z" fill="white" stroke="#E6E6E6" stroke-width="0.165143" stroke-linecap="round" stroke-linejoin="round"/>
<path d="M34.0213 30.7224C34.0213 30.7224 33.9991 30.7224 33.9867 30.7224C33.9867 30.7224 33.9867 30.7199 33.9867 30.7174C33.9867 29.3677 32.8911 28.2721 31.5414 28.2721C30.9121 28.2721 30.3372 28.5114 29.9029 28.9013C29.4193 28.2943 28.6765 27.9069 27.8425 27.9069C26.5989 27.9069 25.5575 28.7681 25.2812 29.9253C25.0196 29.7674 24.7136 29.6761 24.3855 29.6761C24.2177 29.6761 24.0573 29.7008 23.9043 29.7452C23.5292 28.8766 22.6656 28.2696 21.6588 28.2696C21.0296 28.2696 20.4546 28.509 20.0203 28.8988C19.5367 28.2918 18.794 27.9044 17.9599 27.9044C16.7163 27.9044 15.675 28.7656 15.3986 29.9229C15.1371 29.765 14.8311 29.6737 14.5029 29.6737C13.5381 29.6737 12.7559 30.4559 12.7559 31.4207C12.7559 32.3855 13.39 33.3133 14.3548 33.2639C14.9495 33.2319 24.1412 33.5452 24.1412 33.5452C24.4545 33.5452 24.7432 33.4416 24.9777 33.2689C27.2922 33.3158 34.0213 33.5452 34.0213 33.5452C34.8035 33.5452 35.4376 32.9111 35.4376 32.1289C35.4376 31.3467 34.8035 30.7125 34.0213 30.7125V30.7224Z" fill="white" stroke="#E6E6E6" stroke-width="0.165143" stroke-linecap="round" stroke-linejoin="round"/>
<path d="M35.7595 31.3154C35.7595 31.3154 35.7768 31.3154 35.7842 31.3154C35.7842 31.3154 35.7842 31.3154 35.7842 31.313C35.7842 30.3679 36.5516 29.6005 37.4967 29.6005C37.9384 29.6005 38.3406 29.7683 38.6441 30.0422C38.9822 29.6177 39.5028 29.3463 40.0876 29.3463C40.9587 29.3463 41.6866 29.9484 41.8815 30.7602C42.0641 30.6492 42.2788 30.585 42.5083 30.585C42.6243 30.585 42.7378 30.6023 42.8464 30.6344C43.1104 30.0274 43.7149 29.6005 44.4182 29.6005C44.8599 29.6005 45.2621 29.7683 45.5656 30.0422C45.9037 29.6177 46.4243 29.3463 47.0091 29.3463C47.8802 29.3463 48.6081 29.9484 48.803 30.7602C48.9856 30.6492 49.2003 30.585 49.4298 30.585C50.1059 30.585 50.6537 31.1328 50.6537 31.8089C50.6537 32.485 50.2095 33.134 49.5334 33.0995C49.1164 33.0773 42.681 33.2969 42.681 33.2969C42.4614 33.2969 42.2591 33.2253 42.0938 33.1044C40.4726 33.1365 35.7595 33.2969 35.7595 33.2969C35.2117 33.2969 34.7676 32.8527 34.7676 32.3049C34.7676 31.7571 35.2117 31.313 35.7595 31.313V31.3154Z" fill="white" stroke="#E6E6E6" stroke-width="0.165143" stroke-linecap="round" stroke-linejoin="round"/>
<path d="M41.2451 14.1816C41.32 14.1816 41.3808 14.1208 41.3808 14.0459C41.3808 13.9709 41.32 13.9102 41.2451 13.9102C41.1701 13.9102 41.1094 13.9709 41.1094 14.0459C41.1094 14.1208 41.1701 14.1816 41.2451 14.1816Z" fill="black"/>
<path d="M42.0542 39.3874L42.0023 45.3564L27.16 47.4884L25.6474 47.3848C24.1052 47.1651 24.2187 44.9172 24.2187 44.9172V8.32334C24.2187 6.04578 26.0545 5.82617 26.0545 5.82617L28.8133 6.06059L40.9734 7.00319" fill="white"/>
<path d="M42.0542 39.3874L42.0023 45.3564L27.16 47.4884L25.6474 47.3848C24.1052 47.1651 24.2187 44.9172 24.2187 44.9172V8.32334C24.2187 6.04578 26.0545 5.82617 26.0545 5.82617L28.8133 6.06059L40.9734 7.00319" stroke="#081017" stroke-width="0.145714" stroke-linecap="round" stroke-linejoin="round"/>
<path d="M25.4721 46.17C25.3142 45.8122 25.25 45.4199 25.25 45.0276V7.95498C25.25 7.95498 25.25 5.89704 26.8662 5.97107C28.4825 6.04509 40.9757 7.00004 40.9757 7.00004C40.9757 7.00004 42.0047 6.92601 42.0787 7.73537C42.1528 8.54473 42.1528 11.4096 42.1528 11.4096L42.0047 45.3582L27.1624 47.4902C27.1624 47.4902 26.0297 47.4359 25.4745 46.1725L25.4721 46.17Z" fill="#E10098" stroke="#081017" stroke-width="0.145714" stroke-linecap="round" stroke-linejoin="round"/>
<path d="M24.7527 14.7159H24.7206C24.6484 14.7159 24.5898 14.7745 24.5898 14.8467V19.0687C24.5898 19.1409 24.6484 19.1995 24.7206 19.1995H24.7527C24.8249 19.1995 24.8835 19.1409 24.8835 19.0687V14.8467C24.8835 14.7745 24.8249 14.7159 24.7527 14.7159Z" fill="#E6E6E6"/>
<path d="M36.3272 7.09576L32.5318 6.86362C32.4053 6.85588 32.2965 6.95216 32.2887 7.07867L32.2854 7.13285C32.2777 7.25935 32.374 7.36818 32.5005 7.37591L36.2959 7.60805C36.4224 7.61579 36.5312 7.51951 36.5389 7.39301L36.5422 7.33882C36.55 7.21232 36.4537 7.10349 36.3272 7.09576Z" fill="#E6E6E6"/>
<path d="M37.2105 44.1926L33.4459 44.7284C33.3205 44.7463 33.2332 44.8625 33.2511 44.9879L33.2587 45.0417C33.2766 45.1672 33.3928 45.2544 33.5183 45.2365L37.2828 44.7008C37.4083 44.6829 37.4955 44.5667 37.4777 44.4412L37.47 44.3875C37.4522 44.262 37.336 44.1748 37.2105 44.1926Z" fill="#E6E6E6"/>
<path d="M27.3456 44.4761L41.381 42.6402L41.7487 10.0142C41.7487 10.0142 42.0423 8.32387 40.4261 8.32387C38.8098 8.32387 27.4936 7.58854 27.4936 7.58854C27.4936 7.58854 26.3906 7.44049 26.3906 9.27882V43.5211C26.3906 43.5211 26.3906 44.4761 27.3456 44.4761Z" fill="#F2F2F2" stroke="#081017" stroke-width="0.145714" stroke-linecap="round" stroke-linejoin="round"/>
<path d="M39.0949 12.345L38.2411 13.1519L38.1152 17.2653L38.9049 16.8606C38.9049 16.8606 39.5069 18.6718 40.679 19.4318C40.869 19.6687 40.758 19.8414 40.9801 19.6144C41.2021 19.3874 40.9949 16.9963 40.9949 16.9963C40.9949 16.9963 39.6969 16.6163 39.6969 15.1925C39.4132 16.3325 39.2059 16.1253 39.2059 16.1253L39.4823 15.1284C39.4823 15.1284 38.399 14.9384 38.8407 14.0846C39.1097 13.8156 39.5119 13.9069 39.5119 13.9069L40.0572 12.567L39.0924 12.345H39.0949Z" fill="white"/>
<path d="M29.1348 15.4192H33.8404" stroke="#081017" stroke-width="0.145714" stroke-linecap="round" stroke-linejoin="round"/>
<path d="M30.7539 16.347H35.4595" stroke="#081017" stroke-width="0.145714" stroke-linecap="round" stroke-linejoin="round"/>
<path d="M43.32 13.5545C43.32 13.5545 43.6161 13.6902 43.4434 14.5021C43.2706 15.3139 42.7179 17.1966 41.4002 16.6538C40.0825 16.1109 39.6532 13.6508 40.7488 13.1844C41.8444 12.718 43.32 13.5545 43.32 13.5545Z" fill="white"/>
<path d="M38.2188 13.3471C38.2188 11.8222 39.455 10.5859 40.9799 10.5859C42.5049 10.5859 43.7411 11.8222 43.7411 13.3471" fill="white"/>
<path d="M38.2188 13.3471C38.2188 11.8222 39.455 10.5859 40.9799 10.5859C42.5049 10.5859 43.7411 11.8222 43.7411 13.3471" stroke="#E10098" stroke-width="0.145714" stroke-linecap="round" stroke-linejoin="round"/>
<path d="M36.2955 25.2887C36.2955 25.2887 36.7076 26.0438 37.512 26.2116C38.3165 26.3794 38.504 26.5842 38.504 26.5842C38.504 26.5842 38.5756 27.3442 39.0493 27.4602L39.3775 27.3294L38.8569 29.0468L36.8236 26.8581C36.8236 26.8581 36.1351 25.5824 36.2931 25.2863L36.2955 25.2887Z" fill="white"/>
<path d="M34.2578 20.1398V18.6963C34.2578 18.072 34.7637 17.5662 35.388 17.5662C36.4761 17.5662 37.3595 16.6828 37.3595 15.5946V13.322C37.3595 12.7223 37.8456 12.2338 38.4477 12.2338" stroke="#E10098" stroke-width="0.145714" stroke-linecap="round" stroke-linejoin="round"/>
<path d="M40.8379 32.5623C42.0766 29.9368 41.9286 26.8647 41.9286 26.8647C41.9286 26.8647 41.4671 26.5266 41.3388 26.3169" fill="white"/>
<path d="M40.8379 32.5623C42.0766 29.9368 41.9286 26.8647 41.9286 26.8647C41.9286 26.8647 41.4671 26.5266 41.3388 26.3169" stroke="#081017" stroke-width="0.145714" stroke-linecap="round" stroke-linejoin="round"/>
<path d="M43.611 22.5073L45.1952 23.7461C45.1952 23.7461 45.6813 24.5653 46.276 24.5653C46.8706 24.5653 47.87 24.3901 48.8595 23.8448C49.8514 23.2994 51.3863 22.0607 51.3863 22.0607C51.3863 22.0607 51.7342 21.8633 52.3264 21.814C52.9186 21.7646 54.4065 21.2686 54.4065 21.2686C54.4065 21.2686 55.0753 20.9479 55.1666 20.9084C55.6625 20.6863 55.364 20.4815 55.2529 20.4815C55.1419 20.4815 53.9797 20.8417 53.9797 20.8417C53.9797 20.8417 55.475 20.2816 55.5836 20.2199C56.0302 19.9658 55.6872 19.8449 55.5021 19.8745C55.3738 19.8942 53.9599 20.4124 53.9599 20.4124C53.9599 20.4124 55.5268 19.7091 55.6699 19.6129C56.124 19.3119 55.702 19.2206 55.4972 19.2773C55.2924 19.3341 54.409 19.6252 54.409 19.6252L53.8119 19.9288C53.8119 19.9288 55.1592 19.2897 55.2973 19.0873C55.6255 18.6086 54.5694 19.0256 54.5694 19.0256L53.5528 19.4797C53.4343 19.5413 53.3085 19.5833 53.1777 19.608L52.4745 19.7338C52.4745 19.7338 52.8199 19.2378 52.9704 18.9911C53.3899 18.2977 52.8224 18.5321 52.8224 18.5321C52.8224 18.5321 52.4251 18.7937 52.1759 19.2378C51.2851 19.6845 51.1346 20.674 51.1346 20.674C51.1346 20.674 48.7065 21.7646 47.6183 22.1594C47.0236 21.5154 46.4783 21.466 46.4783 21.466L45.9823 20.9207C45.9823 20.9207 44.4475 18.9393 43.8035 18.2952C43.1594 17.6512 42.6141 17.6512 42.1675 17.3551C41.7208 17.059 41.5234 17.3057 41.5234 17.3057C41.5234 17.3057 41.7702 17.6537 41.8195 18.2459C41.8689 18.8381 41.1755 19.4846 41.1755 19.4846L40.9707 19.6104C40.9707 19.6104 41.4889 20.5604 41.4889 21.4192" fill="white"/>
<path d="M43.611 22.5073L45.1952 23.7461C45.1952 23.7461 45.6813 24.5653 46.276 24.5653C46.8706 24.5653 47.87 24.3901 48.8595 23.8448C49.8514 23.2994 51.3863 22.0607 51.3863 22.0607C51.3863 22.0607 51.7342 21.8633 52.3264 21.814C52.9186 21.7646 54.4065 21.2686 54.4065 21.2686C54.4065 21.2686 55.0753 20.9479 55.1666 20.9084C55.6625 20.6863 55.364 20.4815 55.2529 20.4815C55.1419 20.4815 53.9797 20.8417 53.9797 20.8417C53.9797 20.8417 55.475 20.2816 55.5836 20.2199C56.0302 19.9658 55.6872 19.8449 55.5021 19.8745C55.3738 19.8942 53.9599 20.4124 53.9599 20.4124C53.9599 20.4124 55.5268 19.7091 55.6699 19.6129C56.124 19.3119 55.702 19.2206 55.4972 19.2773C55.2924 19.3341 54.409 19.6252 54.409 19.6252L53.8119 19.9288C53.8119 19.9288 55.1592 19.2897 55.2973 19.0873C55.6255 18.6086 54.5694 19.0256 54.5694 19.0256L53.5528 19.4797C53.4343 19.5413 53.3085 19.5833 53.1777 19.608L52.4745 19.7338C52.4745 19.7338 52.8199 19.2378 52.9704 18.9911C53.3899 18.2977 52.8224 18.5321 52.8224 18.5321C52.8224 18.5321 52.4251 18.7937 52.1759 19.2378C51.2851 19.6845 51.1346 20.674 51.1346 20.674C51.1346 20.674 48.7065 21.7646 47.6183 22.1594C47.0236 21.5154 46.4783 21.466 46.4783 21.466L45.9823 20.9207C45.9823 20.9207 44.4475 18.9393 43.8035 18.2952C43.1594 17.6512 42.6141 17.6512 42.1675 17.3551C41.7208 17.059 41.5234 17.3057 41.5234 17.3057C41.5234 17.3057 41.7702 17.6537 41.8195 18.2459C41.8689 18.8381 41.1755 19.4846 41.1755 19.4846L40.9707 19.6104C40.9707 19.6104 41.4889 20.5604 41.4889 21.4192" stroke="#081017" stroke-width="0.145714" stroke-linecap="round" stroke-linejoin="round"/>
<path d="M30.7852 39.989C30.7852 39.989 29.8031 40.3443 29.5045 40.5664C29.4305 40.6207 29.2578 40.6602 29.1838 40.7169C28.9617 40.8897 28.7643 41.0797 28.7371 41.3314C28.7001 41.667 28.5817 41.8866 29.1048 42.7922C29.3984 43.3005 29.5934 44.5959 29.7242 44.855C29.9068 45.2202 30.1881 45.8248 31.1159 45.8618C32.0437 45.8988 32.3817 45.5361 32.4163 45.2671C32.4928 44.6724 31.9696 44.0037 31.7846 43.8187C31.7846 43.4831 31.7476 42.5183 31.7476 42.5183C31.7476 42.5183 31.8956 42.2073 31.8586 41.9112C31.8216 41.6151 31.8586 41.3659 31.8586 41.3659" fill="white"/>
<path d="M30.7852 39.989C30.7852 39.989 29.8031 40.3443 29.5045 40.5664C29.4305 40.6207 29.2578 40.6602 29.1838 40.7169C28.9617 40.8897 28.7643 41.0797 28.7371 41.3314C28.7001 41.667 28.5817 41.8866 29.1048 42.7922C29.3984 43.3005 29.5934 44.5959 29.7242 44.855C29.9068 45.2202 30.1881 45.8248 31.1159 45.8618C32.0437 45.8988 32.3817 45.5361 32.4163 45.2671C32.4928 44.6724 31.9696 44.0037 31.7846 43.8187C31.7846 43.4831 31.7476 42.5183 31.7476 42.5183C31.7476 42.5183 31.8956 42.2073 31.8586 41.9112C31.8216 41.6151 31.8586 41.3659 31.8586 41.3659" stroke="#081017" stroke-width="0.145714" stroke-linecap="round" stroke-linejoin="round"/>
<path d="M31.3507 22.8534C31.3507 22.8534 30.0627 24.3635 29.4433 25.2321C28.8239 26.0982 28.3033 26.8928 27.9825 27.0408C27.6617 27.1889 26.4724 27.3616 26.2231 27.4875C25.9739 27.6133 25.1892 27.9884 25.1448 28.2598C25.0979 28.5609 25.5791 28.3116 25.5791 28.3116C25.5791 28.3116 26.5785 27.8083 26.7759 27.7836C25.5692 28.551 25.2583 28.8224 25.1078 28.9902C24.903 29.2172 25.1498 29.5306 25.3718 29.3579C25.5939 29.1851 26.2108 28.7632 26.9412 28.3807C26.0257 28.926 25.2411 29.5232 25.3249 29.6515C25.5692 30.0192 25.9418 29.6935 26.154 29.5281C26.4082 29.3307 27.7826 28.6768 27.9332 28.7533C27.9578 28.852 27.5852 29.422 27.5606 29.5701C27.5359 29.7181 27.3977 30.15 27.6346 30.1401C27.8147 30.1327 28.402 29.3974 28.7252 28.704C29.0485 28.0106 29.1719 27.6133 29.1719 27.6133L32.6388 24.0724" fill="white"/>
<path d="M31.3507 22.8534C31.3507 22.8534 30.0627 24.3635 29.4433 25.2321C28.8239 26.0982 28.3033 26.8928 27.9825 27.0408C27.6617 27.1889 26.4724 27.3616 26.2231 27.4875C25.9739 27.6133 25.1892 27.9884 25.1448 28.2598C25.0979 28.5609 25.5791 28.3116 25.5791 28.3116C25.5791 28.3116 26.5785 27.8083 26.7759 27.7836C25.5692 28.551 25.2583 28.8224 25.1078 28.9902C24.903 29.2172 25.1498 29.5306 25.3718 29.3579C25.5939 29.1851 26.2108 28.7632 26.9412 28.3807C26.0257 28.926 25.2411 29.5232 25.3249 29.6515C25.5692 30.0192 25.9418 29.6935 26.154 29.5281C26.4082 29.3307 27.7826 28.6768 27.9332 28.7533C27.9578 28.852 27.5852 29.422 27.5606 29.5701C27.5359 29.7181 27.3977 30.15 27.6346 30.1401C27.8147 30.1327 28.402 29.3974 28.7252 28.704C29.0485 28.0106 29.1719 27.6133 29.1719 27.6133L32.6388 24.0724" stroke="#081017" stroke-width="0.145714" stroke-linecap="round" stroke-linejoin="round"/>
<path d="M36.2376 25.2015C36.2376 25.2015 33.6047 28.2539 34.646 30.4328C35.6873 32.6116 38.9075 37.2704 38.9075 37.2704C38.9075 37.2704 39.0556 37.9144 39.1049 38.4597C39.1543 39.0051 40.1462 42.6718 40.4917 43.7107C40.8396 44.752 41.0716 45.2307 41.0716 45.2307C41.0716 45.2307 40.8865 45.5441 41.1851 45.8895C41.4836 46.235 41.5725 46.0228 41.5725 46.0228C41.5725 46.0228 42.1227 45.3442 42.6582 45.1961C43.3417 45.0061 43.8105 45.0481 43.8105 45.0481C43.8105 45.0481 44.1066 44.752 43.9092 44.4534C43.7118 44.1548 42.2733 36.3278 42.2733 36.3278C42.2733 36.3278 40.7384 32.2662 40.4399 31.6715C40.1413 31.0768 39.6478 29.6407 39.0037 29.194" fill="white"/>
<path d="M36.2376 25.2015C36.2376 25.2015 33.6047 28.2539 34.646 30.4328C35.6873 32.6116 38.9075 37.2704 38.9075 37.2704C38.9075 37.2704 39.0556 37.9144 39.1049 38.4597C39.1543 39.0051 40.1462 42.6718 40.4917 43.7107C40.8396 44.752 41.0716 45.2307 41.0716 45.2307C41.0716 45.2307 40.8865 45.5441 41.1851 45.8895C41.4836 46.235 41.5725 46.0228 41.5725 46.0228C41.5725 46.0228 42.1227 45.3442 42.6582 45.1961C43.3417 45.0061 43.8105 45.0481 43.8105 45.0481C43.8105 45.0481 44.1066 44.752 43.9092 44.4534C43.7118 44.1548 42.2733 36.3277 42.2733 36.3277C42.2733 36.3277 40.7384 32.2662 40.4399 31.6715C40.1413 31.0768 39.6478 29.6407 39.0037 29.194" stroke="#081017" stroke-width="0.145714" stroke-linecap="round" stroke-linejoin="round"/>
<path d="M39.94 26.7788C38.9012 26.4333 38.8568 26.1742 38.0129 25.925C37.169 25.6758 35.834 25.281 36.0314 24.5382C36.3275 23.9929 36.478 23.5463 36.2782 22.6061L36.0808 21.666L34.2967 23.2008C34.2967 23.2008 33.6033 24.1928 33.3566 24.1928C33.1098 24.1928 32.4362 24.2939 31.7971 23.5487C31.2912 22.9615 31.1777 22.3594 31.3258 22.0633C31.4738 21.7672 32.2659 21.3205 32.2659 21.3205C32.2659 21.3205 32.3153 21.3008 32.3868 21.2712C32.4757 21.2342 32.6015 21.1774 32.7126 21.1231C32.91 21.0244 35.5848 18.3003 35.5848 18.3003C35.5848 18.3003 35.9821 17.903 36.7742 17.7056C37.5662 17.5082 38.6076 17.0615 38.7556 16.9628L38.9037 16.8641C38.9037 16.8641 39.3503 18.0535 39.8438 18.5988C40.3373 19.1442 41.1393 19.8474 41.2306 20.1336C42.2694 23.3661 41.0825 24.7406 41.0825 24.7406C41.0825 24.7406 41.1269 26.4851 39.9376 26.7837L39.94 26.7788Z" fill="white" stroke="#081017" stroke-width="0.145714" stroke-linecap="round" stroke-linejoin="round"/>
<path d="M33.9468 23.1996C33.9468 23.1996 32.2862 23.0762 32.5848 21.4402L33.9468 23.1996Z" fill="white"/>
<path d="M33.9468 23.1996C33.9468 23.1996 32.2862 23.0762 32.5848 21.4402" stroke="#081017" stroke-width="0.145714" stroke-linecap="round" stroke-linejoin="round"/>
<path d="M43.8661 44.2977C43.8661 44.2977 41.8131 43.745 41.1074 45.1762L43.8661 44.2977Z" fill="white"/>
<path d="M43.8661 44.2977C43.8661 44.2977 41.8131 43.745 41.1074 45.1762" stroke="#081017" stroke-width="0.145714" stroke-linecap="round" stroke-linejoin="round"/>
<path d="M36.089 33.0133L35.3141 35.6462C35.3141 35.6462 34.2728 36.2409 32.8244 37.7263C31.3759 39.2118 30.7812 39.4364 30.7812 39.6955C30.7812 39.9545 30.9293 41.4425 32.4913 41.3685C32.7874 41.1094 33.123 40.6627 34.0878 40.031C35.0526 39.3993 36.6146 38.247 36.6146 38.247C36.6146 38.247 38.0556 37.3587 38.3887 36.653" stroke="#081017" stroke-width="0.145714" stroke-linecap="round" stroke-linejoin="round"/>
<path d="M29.1853 40.7164C28.9262 40.9953 29.2198 41.701 29.4444 42.2587C29.6689 42.8163 29.6665 43.5813 30.1871 44.4869C31.1346 46.1352 32.3635 45.0815 32.3635 45.0815" fill="white"/>
<path d="M29.1853 40.7164C28.9262 40.9953 29.2198 41.701 29.4444 42.2587C29.6689 42.8163 29.6665 43.5813 30.1871 44.4869C31.1346 46.1352 32.3635 45.0815 32.3635 45.0815" stroke="#081017" stroke-width="0.145714" stroke-linecap="round" stroke-linejoin="round"/>
<path d="M30.5062 40.0935C30.5062 40.0935 30.1311 40.6635 30.2718 41.1743C30.4198 41.7147 30.8048 41.7468 31.0219 41.7887C31.5154 41.88 31.7869 41.5839 31.7869 41.5839" stroke="#081017" stroke-width="0.145714" stroke-linecap="round" stroke-linejoin="round"/>
<path d="M30.7598 42.2614C30.7598 42.2614 31.2434 42.6339 31.7641 42.3724L30.7598 42.2614Z" fill="white"/>
<path d="M30.7598 42.2614C30.7598 42.2614 31.2434 42.6339 31.7641 42.3724" stroke="#081017" stroke-width="0.145714" stroke-linecap="round" stroke-linejoin="round"/>
<path d="M30.7539 42.917C30.7539 42.917 31.2375 43.2896 31.7582 43.028L30.7539 42.917Z" fill="white"/>
<path d="M30.7539 42.917C30.7539 42.917 31.2375 43.2896 31.7582 43.028" stroke="#081017" stroke-width="0.145714" stroke-linecap="round" stroke-linejoin="round"/>
<path d="M30.7773 43.5898C30.7773 43.5898 31.261 43.9624 31.7816 43.7009L30.7773 43.5898Z" fill="white"/>
<path d="M30.7773 43.5898C30.7773 43.5898 31.261 43.9624 31.7816 43.7009" stroke="#081017" stroke-width="0.145714" stroke-linecap="round" stroke-linejoin="round"/>
<path d="M41.8477 45.7277L42.1882 46.9392C42.1882 46.9392 42.1561 46.9812 42.1142 47.0503C42.0204 47.2033 41.9513 47.8769 42.0031 48.1089C42.0771 48.4444 42.0771 49.0219 42.1512 49.1699C42.2252 49.318 42.3831 49.4882 42.7286 49.4191C42.884 49.387 46.2942 47.7511 46.5755 47.6425C47.1973 47.4007 47.5798 47.2452 47.7994 47.1588C48.1103 47.0379 48.3003 46.9861 47.9104 46.6061C47.5206 46.2261 46.7581 46.2335 46.3139 46.2705C45.8698 46.3075 45.7933 46.4186 45.2356 46.1965C44.6779 45.9744 44.4411 45.8461 44.1425 45.8831C43.8439 45.9201 43.3825 45.9349 43.2665 46.4581C43.2246 46.6431 43.2665 47.0527 43.0074 47.1268C43.0074 47.1268 42.5065 47.487 42.161 47.1095" stroke="#081017" stroke-width="0.145714" stroke-linecap="round" stroke-linejoin="round"/>
<path d="M48.0731 46.8C47.1256 46.8 42.2793 49.2824 42.2793 49.2824L48.0731 46.8Z" fill="white"/>
<path d="M48.0731 46.8C47.1256 46.8 42.2793 49.2824 42.2793 49.2824" stroke="#081017" stroke-width="0.145714" stroke-linecap="round" stroke-linejoin="round"/>
<path d="M48.1319 46.8674C48.1319 46.8674 48.5045 47.6176 46.9795 48.2048C45.3485 48.8341 44.623 49.3868 42.5527 49.4189" stroke="#081017" stroke-width="0.145714" stroke-linecap="round" stroke-linejoin="round"/>
<path d="M45.5734 46.3505C45.5734 46.3505 45.2057 46.6441 45.1465 46.955L45.5734 46.3505Z" fill="white"/>
<path d="M45.5734 46.3505C45.5734 46.3505 45.2057 46.6441 45.1465 46.955" stroke="#081017" stroke-width="0.145714" stroke-linecap="round" stroke-linejoin="round"/>
<path d="M45.1727 46.213C45.1727 46.213 44.7088 46.5856 44.6348 46.9755L45.1727 46.213Z" fill="white"/>
<path d="M45.1727 46.213C45.1727 46.213 44.7088 46.5856 44.6348 46.9755" stroke="#081017" stroke-width="0.145714" stroke-linecap="round" stroke-linejoin="round"/>
<path d="M44.7235 46.0526C44.7235 46.0526 44.2596 46.4252 44.1855 46.8151L44.7235 46.0526Z" fill="white"/>
<path d="M44.7235 46.0526C44.7235 46.0526 44.2596 46.4252 44.1855 46.8151" stroke="#081017" stroke-width="0.145714" stroke-linecap="round" stroke-linejoin="round"/>
<path d="M43.4863 45.0576L43.7109 45.9385" stroke="#081017" stroke-width="0.145714" stroke-linecap="round" stroke-linejoin="round"/>
<path d="M43.5613 19.7062C43.5613 19.7062 44.008 21.2657 43.5613 22.27C43.1147 23.2743 42.5151 25.9269 41.6218 26.6351C41.6218 26.6351 40.2005 26.8522 39.9784 26.7881C39.9143 26.7683 41.5108 21.352 41.5108 21.352" fill="white"/>
<path d="M43.5613 19.7062C43.5613 19.7062 44.008 21.2657 43.5613 22.27C43.1147 23.2743 42.5151 25.9269 41.6218 26.6351C41.6218 26.6351 40.2005 26.8522 39.9784 26.7881C39.9143 26.7683 41.5108 21.352 41.5108 21.352" stroke="#081017" stroke-width="0.145714" stroke-linecap="round" stroke-linejoin="round"/>
<path d="M41.3594 19.8574C41.3594 19.8574 41.9294 19.6107 42.0528 19.0654L42.5981 19.2381C42.5981 19.2381 42.6721 18.0981 42.1761 17.3553" stroke="#081017" stroke-width="0.145714" stroke-linecap="round" stroke-linejoin="round"/>
<path d="M51.959 20.7836C51.959 20.7836 52.4426 20.4875 53.0743 20.7095L51.959 20.7836Z" fill="white"/>
<path d="M51.959 20.7836C51.959 20.7836 52.4426 20.4875 53.0743 20.7095" stroke="#081017" stroke-width="0.145714" stroke-linecap="round" stroke-linejoin="round"/>
<path d="M47.6244 22.1604C46.3363 22.6317 46.1636 23.7692 46.6843 24.5638C45.8182 24.6378 45.5443 24.4651 45.3715 23.747C45.0754 22.1382 46.5412 21.5016 46.5412 21.5016C46.1932 21.4769 47.279 21.2943 47.6244 22.1604Z" fill="white" stroke="#081017" stroke-width="0.145714" stroke-linecap="round" stroke-linejoin="round"/>
<path d="M39.7168 14.9495C39.7168 15.9711 40.5459 16.8002 41.5675 16.8002C42.589 16.8002 43.4181 15.9711 43.4181 14.9495C43.4181 14.7891 43.3984 14.6337 43.3589 14.4832" stroke="#081017" stroke-width="0.145714" stroke-linecap="round" stroke-linejoin="round"/>
<path d="M41.5195 16.8671V17.9997" stroke="#081017" stroke-width="0.145714" stroke-linecap="round" stroke-linejoin="round"/>
<path d="M39.4336 29.5002C39.5076 29.2534 39.9691 26.7908 39.9691 26.7908L39.4336 29.5002Z" fill="white"/>
<path d="M39.4336 29.5002C39.5076 29.2534 39.9691 26.7908 39.9691 26.7908" stroke="#081017" stroke-width="0.145714" stroke-linecap="round" stroke-linejoin="round"/>
<path d="M36.539 21.121L36.0801 21.6638" stroke="#081017" stroke-width="0.145714" stroke-linecap="round" stroke-linejoin="round"/>
<path d="M32.8309 40.9808C31.3084 40.9068 31.2812 39.1943 31.2812 39.1943L32.8309 40.9808Z" fill="white"/>
<path d="M32.8309 40.9808C31.3084 40.9068 31.2812 39.1943 31.2812 39.1943" stroke="#081017" stroke-width="0.145714" stroke-linecap="round" stroke-linejoin="round"/>
<path d="M42.2645 15.3055L41.1097 15.1747C41.1097 15.1747 41.0752 15.7472 41.6995 15.947" stroke="#081017" stroke-width="0.145714" stroke-linecap="round" stroke-linejoin="round"/>
<path d="M41.1469 14.1418C41.2464 14.1418 41.3271 14.0611 41.3271 13.9616C41.3271 13.8621 41.2464 13.7815 41.1469 13.7815C41.0474 13.7815 40.9668 13.8621 40.9668 13.9616C40.9668 14.0611 41.0474 14.1418 41.1469 14.1418Z" fill="black"/>
<path d="M42.7876 14.0702C42.887 14.0702 42.9677 13.9896 42.9677 13.8901C42.9677 13.7906 42.887 13.71 42.7876 13.71C42.6881 13.71 42.6074 13.7906 42.6074 13.8901C42.6074 13.9896 42.6881 14.0702 42.7876 14.0702Z" fill="black"/>
<path d="M41.8125 14.7072C41.8125 14.7072 42.1259 14.569 42.3011 14.7763" stroke="#081017" stroke-width="0.145714" stroke-linecap="round" stroke-linejoin="round"/>
<path d="M41.0852 13.4236C41.0852 13.4236 40.7422 13.431 40.6484 13.658" stroke="#081017" stroke-width="0.145714" stroke-linecap="round" stroke-linejoin="round"/>
<path d="M32.3369 44.9664V45.0355C32.3369 45.0355 31.8262 45.3711 31.4313 45.3489C31.0365 45.3267 30.77 45.1293 30.6072 44.9664C30.4443 44.8035 29.9928 44.0732 29.9459 43.8634C29.899 43.6537 29.5511 42.4692 29.5511 42.4692L29.1439 41.2626L29.1094 40.8801C29.1094 40.8801 29.4844 40.5445 29.4252 40.7469C29.3389 41.0479 29.7682 42.7555 29.9311 43.1503C30.0939 43.5451 30.1556 44.352 30.9329 45.0256C31.3919 45.4229 32.3369 44.9664 32.3369 44.9664Z" fill="#E10098"/>
<path d="M39.1974 16.2946L39.4836 15.125L39.0764 14.9769C38.8099 14.8807 38.6545 14.6018 38.7137 14.323C38.7779 14.0244 39.0641 13.8295 39.3627 13.8789L39.5132 13.9035C39.5132 13.9035 39.7994 12.724 40.9394 12.7438C42.0795 12.7635 43.3725 13.5038 43.106 12.8153" stroke="#081017" stroke-width="0.145714" stroke-linecap="round" stroke-linejoin="round"/>
<path d="M42.2214 49.2279C42.2214 49.2279 43.475 48.6011 45.3922 47.6955C47.3095 46.7899 48.0967 46.7307 48.0967 46.7307C48.0967 46.7307 48.0449 46.3951 47.5859 46.4173C47.1269 46.4395 42.1523 48.8799 42.1523 48.8799L42.2214 49.2279Z" fill="#E10098"/>
<g style="mix-blend-mode:multiply">
<path d="M43.1944 44.1333C43.4733 44.1382 43.6855 43.8841 43.6312 43.6102L42.3629 37.3154L42.1803 36.1976C42.1753 36.1655 42.1655 36.1335 42.1531 36.1039C42.1531 36.1039 41.4079 34.2088 40.7516 32.6049C40.2679 31.418 39.8213 30.3939 39.8164 30.3841L39.3599 29.6438C38.9502 29.1725 38.8096 29.1651 38.7405 29.1305C38.4271 28.9677 37.7732 28.642 37.3118 28.642C37.0083 28.642 40.4703 34.4062 40.8626 35.0601C40.8873 35.102 40.9046 35.144 40.9144 35.1909L42.7774 43.7878C42.8194 43.9852 42.9921 44.1284 43.1944 44.1308V44.1333Z" fill="#E6E6E6"/>
</g>
<path d="M39.007 29.1929C38.3629 28.7463 36.8281 28.4502 36.8281 28.4502L39.007 29.1929Z" fill="white"/>
<path d="M39.007 29.1929C38.3629 28.7463 36.8281 28.4502 36.8281 28.4502" stroke="#081017" stroke-width="0.145714" stroke-linecap="round" stroke-linejoin="round"/>
<path d="M32.862 40.901C32.862 40.901 34.8484 39.4254 35.4283 39.0083C36.0081 38.5913 37.3801 37.6388 37.3801 37.6388C37.3801 37.6388 38.0315 37.0812 38.1919 36.827L38.3548 36.5704L37.6589 35.5834C37.6589 35.5834 37.0198 36.7555 36.3709 37.3131C35.7219 37.8708 31.9688 40.5752 31.9688 40.5752C31.9688 40.5752 32.3858 41.0169 32.862 40.901Z" fill="#E6E6E6"/>
<path d="M40.8284 32.3671C40.8284 32.3671 41.2356 31.5651 41.433 30.7409C41.6304 29.9168 41.7463 29.2431 41.734 29.1148C41.7217 28.9865 41.9536 27.3258 41.85 26.8743C41.5884 26.7484 41.1344 26.9532 41.0752 26.8743C41.0159 26.7953 41.0135 30.7656 40.4336 31.4392L40.8284 32.3671Z" fill="#E6E6E6"/>
<path d="M38.5063 17.1304C38.5063 17.1304 38.3878 17.3302 38.4865 18.0236C38.5852 18.717 38.8838 19.3364 38.8838 19.3364C38.8838 19.3364 39.2564 19.0649 39.6019 18.8897C39.7746 19.361 40.4927 19.931 40.4927 19.931" fill="white"/>
<path d="M38.5063 17.1304C38.5063 17.1304 38.3878 17.3302 38.4865 18.0236C38.5852 18.717 38.8838 19.3364 38.8838 19.3364C38.8838 19.3364 39.2564 19.0649 39.6019 18.8897C39.7746 19.361 40.4927 19.931 40.4927 19.931" stroke="#081017" stroke-width="0.145714" stroke-linecap="round" stroke-linejoin="round"/>
<path d="M32.6102 35.2306H12.9018C12.5465 35.2306 12.2578 34.9419 12.2578 34.5865C12.2578 34.2312 12.5465 33.9425 12.9018 33.9425H26.2316" stroke="#E10098" stroke-width="0.145714" stroke-linecap="round" stroke-linejoin="round"/>
</svg>
