<svg width="104" height="94" viewBox="0 0 104 94" fill="none" xmlns="http://www.w3.org/2000/svg">
<path d="M62.6508 60.8869C62.16 60.8536 61.699 60.6854 61.2221 60.5825C60.7057 60.4711 60.2192 60.5054 59.8393 60.9093C59.6003 61.1644 59.4339 61.3915 59.1416 61.5223C59.1362 61.5383 59.1298 61.5555 59.1256 61.5715C59.0338 61.8919 59.2376 62.2798 59.5694 62.3559C59.9076 62.433 60.2523 62.2541 60.3504 61.9101C60.3568 61.8866 60.3771 61.8437 60.3835 61.8137C60.3984 61.7858 60.4123 61.758 60.4294 61.7312L60.4507 61.6969C60.456 61.6905 60.4582 61.6862 60.4614 61.6819C60.4656 61.6766 60.4699 61.6723 60.4742 61.6669C60.4966 61.6423 60.5201 61.6176 60.5446 61.5951C60.5478 61.5919 60.5723 61.5726 60.5926 61.5555C60.6022 61.549 60.6129 61.5415 60.6225 61.5362C60.647 61.5212 60.6737 61.5083 60.6993 61.4933C60.7025 61.4912 60.7036 61.4901 60.7057 61.489C60.7057 61.489 60.7068 61.489 60.7078 61.489C60.7228 61.4848 60.7943 61.458 60.8497 61.4419C60.8572 61.4419 60.8732 61.4419 60.9031 61.4419C60.9394 61.4397 60.9756 61.4397 61.013 61.4419C61.0333 61.4419 61.0546 61.444 61.0749 61.4462C61.1005 61.4537 61.125 61.4633 61.1325 61.4644C61.3299 61.5169 61.5177 61.5748 61.7257 61.5833C61.9466 61.5919 62.1706 61.5265 62.3637 61.4205C62.5942 61.2919 62.7628 61.1011 62.894 60.8826C62.8151 60.8901 62.735 60.8944 62.6508 60.8879V60.8869Z" fill="#E50695"/>
<path d="M59.5367 59.7747C59.8728 59.5679 60.2761 59.4575 60.6688 59.4457C61.1574 59.4318 61.6343 59.585 62.1017 59.7039C62.3759 59.7736 62.5839 59.8025 62.7856 59.779C62.8901 59.1521 62.9328 58.5081 62.9659 57.8738C63.0022 57.1741 63.0054 56.4733 62.9766 55.7736C62.9659 55.5026 62.7877 55.2218 62.5103 55.1586C62.2094 55.09 61.9736 55.2165 61.7933 55.4522C61.8947 55.3193 61.7634 55.4897 61.7442 55.5143C61.7037 55.5647 61.6642 55.6151 61.6237 55.6654C61.5522 55.7533 61.4807 55.8401 61.4092 55.9279C61.2545 56.1144 61.0987 56.2998 60.9451 56.4873C60.6165 56.8891 60.2911 57.2995 60.0158 57.7409C59.5815 58.4363 59.2508 59.2528 59.207 60.0833C59.3137 59.9611 59.4215 59.8454 59.5367 59.7747Z" fill="#E50695"/>
<path d="M61.9793 59.3136C61.9782 59.3069 61.9749 59.3002 61.9727 59.2936C61.976 59.3013 61.9793 59.3102 61.9815 59.318C61.9815 59.3169 61.9804 59.3158 61.9793 59.3147V59.3136Z" fill="#E50695"/>
<path d="M60.3707 61.8375C60.374 61.8321 60.3772 61.8267 60.3793 61.8213C60.3653 61.8559 60.3384 61.8981 60.3707 61.8375Z" fill="#E50695"/>
<path d="M61.0176 61.4365C61.0229 61.4312 61.0431 61.4365 61.0655 61.4419C61.0527 61.4408 61.0367 61.4387 61.0176 61.4365Z" fill="#E50695"/>
<path d="M101.624 61.5225C101.063 61.0157 100.341 60.8099 99.6386 60.5806C99.246 60.4531 98.8566 60.3117 98.4735 60.1585C98.3796 60.121 98.2857 60.0824 98.1929 60.0438C98.1887 60.0417 98.1855 60.0406 98.1823 60.0395C98.1759 60.0363 98.1684 60.0331 98.1588 60.0288C98.1129 60.0085 98.066 59.9881 98.0201 59.9677C97.8195 59.8788 97.62 59.7866 97.4226 59.6924C97.1238 59.5488 96.7227 59.5991 96.553 59.9217C96.4036 60.2067 96.4613 60.6406 96.7814 60.7949C97.3927 61.0896 98.019 61.3553 98.657 61.5889C98.8886 61.6736 99.1222 61.7518 99.357 61.8279C99.3858 62.0186 99.4285 62.1836 99.5298 62.3593C99.6141 62.5061 99.7272 62.6379 99.8414 62.7622C99.9224 62.8501 100.004 62.9369 100.082 63.0258C100.096 63.0494 100.121 63.0773 100.133 63.0965C100.137 63.104 100.151 63.1351 100.163 63.1598C100.168 63.1758 100.172 63.1908 100.176 63.2069C100.219 63.3676 100.227 63.5359 100.273 63.6955C100.376 64.0416 100.681 64.2838 101.043 64.2838C101.466 64.2838 101.873 63.9752 102.064 63.6077C102.437 62.8897 102.211 62.0497 101.625 61.5214L101.624 61.5225ZM100.908 63.0355C100.913 63.0258 100.924 63.0108 100.947 62.9948C100.946 62.9969 100.945 62.999 100.944 63.0012C100.933 63.0108 100.922 63.0215 100.914 63.0312C100.912 63.0323 100.909 63.0333 100.907 63.0344L100.908 63.0355ZM100.653 61.7604C100.653 61.7604 100.651 61.7572 100.65 61.755C100.669 61.7743 100.68 61.7882 100.685 61.7957C100.675 61.7839 100.664 61.7722 100.653 61.7604ZM100.906 63.0451C100.906 63.0451 100.912 63.0408 100.915 63.0387C100.918 63.0376 100.922 63.0355 100.925 63.0344C100.915 63.0473 100.908 63.0494 100.906 63.0451Z" fill="#E50695"/>
<path d="M79.6721 93.4652H53.9746V94.001H79.6721V93.4652Z" fill="#080808"/>
<path d="M89.1607 8.68414C91.5571 8.86844 92.1812 11.9115 90.3834 13.3924C89.0636 14.4799 87.2775 14.1521 86.2277 12.8641L82.2767 15.6393C84.0564 20.0625 77.3528 21.913 77.0967 17.0484C74.3632 16.3358 74.4037 12.5051 77.0871 11.7122C77.9972 11.4433 78.5083 11.799 79.3522 11.8505L83.7118 8.99059C82.7387 6.23252 85.8169 3.80769 88.1898 5.75034C88.99 6.40503 89.4765 7.67692 89.1586 8.68414H89.1607ZM77.7465 16.503C77.086 20.1932 82.409 20.2136 81.9001 16.5619C81.8446 16.1676 81.404 15.6575 81.5299 15.4282L86.1807 12.1633C86.5829 11.9662 86.68 12.4891 86.9169 12.7044C88.6912 14.316 91.3021 12.892 90.6875 10.525C90.3418 9.19418 88.6998 9.30454 88.5675 9.12132C88.4352 8.93809 88.6518 8.09052 88.5995 7.69621C88.1962 4.64883 83.4386 5.24673 84.2613 8.62628C84.3157 8.84915 84.6294 9.06238 84.3616 9.2724L79.3768 12.6262C78.8284 12.7612 78.2799 11.8526 76.9665 12.4451C74.9137 13.372 75.4461 16.4515 77.7475 16.504L77.7465 16.503Z" fill="#E4E4E4"/>
<path d="M93.4942 32.7319C93.2392 32.988 92.7644 33.2462 92.4037 33.2955C90.1589 33.5998 90.0895 31.5789 88.5617 30.7496C87.7038 30.2845 86.6273 30.1142 86.049 29.2045C85.2712 27.9819 85.6606 26.7164 86.9186 26.0756C87.7092 25.6728 88.4955 25.7113 89.3373 25.5067C90.4982 25.2259 91.0391 24.6687 92.3835 25.092C94.4096 25.7306 94.0234 27.7472 94.0618 29.4016C94.0895 30.5685 94.4726 31.7482 93.4952 32.7308L93.4942 32.7319ZM86.7457 29.1991C87.3656 29.8281 88.6822 30.0617 89.4707 30.6917C90.4 31.4332 90.75 32.9247 92.2 32.7737C93.189 32.6708 93.6019 31.6807 93.6414 30.7956C93.6926 29.6716 93.4131 28.343 93.5027 27.1793C93.4131 26.3071 92.5019 25.5624 91.6643 25.4906C90.8801 25.4242 90.1087 25.8753 89.3555 26.0628C88.5232 26.2707 87.6707 26.1978 86.9271 26.7293C86.018 27.3786 85.9722 28.4158 86.7446 29.2002L86.7457 29.1991Z" fill="#E50695"/>
<path d="M98.8172 25.661C98.5206 26.0307 97.6137 26.6243 97.1592 26.7229C94.2507 27.355 94.1504 24.028 96.1648 22.62C98.7009 20.8456 100.63 23.3969 98.8172 25.6621V25.661ZM97.4494 22.6265C94.8695 23.0658 94.4481 27.3497 97.411 26.0124C99.2216 25.1949 99.7231 22.2397 97.4494 22.6265Z" fill="#E50695"/>
<path d="M94.2224 19.0498C94.5585 19.1313 94.8647 19.3059 95.0845 19.5984C96.4246 21.3814 94.0431 24.9828 91.9668 23.9059C90.1477 22.963 91.2477 19.9531 92.7222 19.2341C93.1714 19.0155 93.7305 18.9309 94.2234 19.0488L94.2224 19.0498ZM93.2888 19.5192C92.0789 19.7967 90.8914 22.6169 92.177 23.3734C94.4123 24.6903 96.3915 18.8077 93.2888 19.5192Z" fill="#E50695"/>
<path d="M88.1749 19.7335C90.5489 19.3852 90.7996 23.0637 89.2109 24.3099C87.8548 25.3728 86.5094 23.9509 86.391 22.5462C86.2928 21.3911 86.9106 19.9188 88.176 19.7335H88.1749ZM88.2827 20.2649C86.4315 20.4739 86.5777 24.1095 88.2539 24.1084C89.9407 24.1084 90.3899 20.026 88.2827 20.2649Z" fill="#E50695"/>
<path d="M98.0701 27.4751C98.7625 27.5297 99.3974 27.8426 99.6353 28.5177C100.402 30.6939 97.1568 32.1844 95.5659 30.9971C94.8628 30.4721 94.8906 29.6213 95.3163 28.9238C95.5435 28.5509 95.8519 28.2101 96.204 27.953C96.6692 27.6133 97.3968 27.4215 98.0701 27.4751ZM98.8329 28.3077C98.5246 28.0333 97.8193 28.0076 97.4235 28.058C96.3683 28.1909 94.7134 29.901 96.0535 30.6157C97.8332 31.565 100.176 29.5013 98.8329 28.3077Z" fill="#E50695"/>
<path d="M63.5021 8.72257C63.7241 8.49327 64.2597 8.13003 64.5616 8.02073C66.3904 7.35211 67.4029 8.83937 68.5808 9.9173C69.6264 10.8752 70.7574 11.2556 70.3221 13.0536C69.7747 15.3113 67.0327 14.1916 65.4931 14.6287C64.791 14.828 64.2138 15.2974 63.405 15.3241C62.0223 15.3713 61.0161 14.198 61.2509 12.8307C61.3362 12.3325 63.1255 9.11046 63.5021 8.72257ZM68.5509 14.0169C68.5509 14.0169 68.5584 14.0148 68.5616 14.0137C69.4664 13.7833 70.1876 12.6293 69.7246 11.7432C69.4333 11.186 68.8219 10.8581 68.3674 10.452C66.9238 9.15868 65.4952 7.14102 63.6803 9.38262C63.3015 9.8498 62.4384 11.4946 62.13 12.1075C61.2872 13.779 62.162 15.1473 64.0207 14.647C64.7014 14.4637 65.3384 14.1487 66.0223 13.9773C66.4138 13.8787 66.8011 13.8197 67.1991 13.8958C67.6579 13.9826 68.0804 14.1326 68.5509 14.0169Z" fill="#E50695"/>
<path d="M61.1975 2.60865C62.8908 2.17469 64.0377 3.92125 64.1092 5.41708C64.2746 8.90057 60.1957 7.88906 60.0474 4.77954C60.0111 4.02305 60.3802 2.81867 61.1975 2.60865ZM61.2999 3.1412C60.0623 3.50765 60.6022 6.77362 62.2645 7.0565C64.4987 7.43688 63.595 2.46186 61.2999 3.1412Z" fill="#E50695"/>
<path d="M66.8258 1.80594C67.1864 1.84023 67.5342 1.97524 67.7924 2.20669C68.0101 2.4017 68.1797 2.64494 68.3035 2.90853C68.5574 3.44964 68.6193 4.07647 68.551 4.6658C68.4337 5.68267 67.8116 6.98884 66.622 6.96098C64.55 6.91276 64.232 3.56643 65.4483 2.26991C65.7876 1.90774 66.319 1.75665 66.8258 1.80487V1.80594ZM67.4798 2.61922C65.8783 1.09017 64.3067 4.76224 65.9658 6.11985C67.0221 6.98456 67.9621 5.55944 68.0474 4.56294C68.0986 3.96075 67.9333 3.05318 67.4798 2.62029V2.61922Z" fill="#E50695"/>
<path d="M57.954 7.2192C60.2053 5.30548 63.2525 10.3362 60.7185 11.2245C58.5963 11.9681 56.3376 8.59395 57.954 7.2192ZM58.7435 7.42172C58.0554 7.57494 57.9593 8.35393 58.0372 8.94326C58.2581 10.603 61.0706 11.5899 61.1239 9.80476C61.158 8.64431 59.9801 7.14634 58.7435 7.42172Z" fill="#E50695"/>
<path d="M69.0463 9.18352C68.4008 8.53204 68.4915 7.35016 68.7283 6.54546C68.8617 6.09435 69.073 5.6411 69.408 5.30465C70.4419 4.26314 72.229 5.00998 72.4125 6.39223C72.5288 7.27302 72.0999 8.34453 71.4661 8.95529C70.8911 9.50926 69.6534 9.79535 69.0463 9.18352ZM70.3672 5.39144C69.026 5.66682 68.5715 8.80099 69.8166 8.99922C71.9932 9.34532 72.7518 4.90069 70.3672 5.39144Z" fill="#E50695"/>
<path d="M53.6953 56.3705C52.369 57.1024 51.6094 56.0716 50.3685 56.0234C49.9065 56.0052 49.436 56.152 48.9111 56.1048C47.5656 55.9827 46.6609 54.9465 47.2861 53.6189C47.5304 53.0992 49.4584 51.2026 49.9929 50.8769C50.8678 50.3454 51.8654 50.4129 52.639 51.0762C53.0241 51.4062 54.4645 53.8879 54.5659 54.385C54.7537 55.298 54.4741 55.9387 53.6931 56.3695L53.6953 56.3705ZM50.7473 51.2069C50.2309 51.3152 48.2762 53.1742 47.9583 53.6511C47.6403 54.1279 47.5422 54.6101 47.9124 55.074C48.4192 55.7116 50.0346 55.3837 50.8188 55.4748C51.7118 55.5787 52.5878 56.3941 53.4819 55.8766C53.9652 55.5969 54.042 54.9744 53.9513 54.4708C53.898 54.175 52.5045 51.7631 52.2751 51.5509C51.8665 51.1737 51.284 51.0934 50.7483 51.2059L50.7473 51.2069Z" fill="#E50695"/>
<path d="M54.0139 46.2073C54.4578 46.2352 54.8792 46.4184 55.1502 46.7902C55.465 47.2231 55.4447 47.8092 55.3284 48.3064C55.1204 49.1957 54.4791 50.2983 53.4858 50.4237C52.3804 50.5566 51.8043 49.7133 51.831 48.6846C51.8448 48.1574 51.9942 47.6003 52.2321 47.1309C52.5437 46.5148 53.3087 46.1634 54.015 46.2073H54.0139ZM53.7355 46.7066C52.6845 46.9102 51.9878 48.8882 52.6888 49.6361C53.0217 49.9919 53.2617 49.8879 53.6533 49.7347C55.1673 49.14 55.2004 46.4237 53.7355 46.7066Z" fill="#E50695"/>
<path d="M49.6868 45.7433C50.4987 45.6318 51.0738 46.2447 51.316 46.9476C51.5689 47.6806 51.4814 48.4242 51.2627 49.1528C51.0077 50.0025 50.0175 50.2704 49.2931 49.8354C47.8324 48.9599 47.8708 45.9929 49.6868 45.7433ZM49.5748 46.3851C49.0552 46.5415 48.718 47.2852 48.7532 47.7952C48.7959 48.4145 49.4638 49.5728 50.1851 49.471C51.1901 49.3296 51.188 45.8986 49.5748 46.3851Z" fill="#E50695"/>
<path d="M46.589 48.315C48.9683 47.8296 49.4175 52.7082 47.1215 52.2282C45.3973 51.8671 44.6792 48.705 46.589 48.315ZM47.5408 49.1851C46.9017 48.57 46.0758 49.0619 46.0001 49.8698C45.935 50.5705 47.003 52.0846 47.7947 51.5606C48.2524 51.2585 47.9718 49.6008 47.5397 49.1851H47.5408Z" fill="#E50695"/>
<path d="M55.7555 49.6564C56.2154 49.4679 56.7126 49.4636 57.1521 49.7925C57.42 49.9929 57.5853 50.3765 57.644 50.6969C57.724 51.1319 57.6131 51.5798 57.4007 51.9613C56.9388 52.7906 55.971 53.3607 55.015 53.1892C54.0687 53.0199 54.0239 51.9773 54.2746 51.2294C54.4784 50.6219 55.0748 49.9361 55.7566 49.6564H55.7555ZM56.0831 50.1311C54.7366 50.3926 53.8606 53.4228 56.1097 52.4134C57.3357 51.8627 57.3805 49.8793 56.0831 50.1311Z" fill="#E50695"/>
<path d="M86.2391 61.292C87.4042 62.191 88.437 63.1886 89.7835 63.8004C91.0179 64.3608 92.3986 64.754 93.7461 64.8848C93.5146 65.3177 93.7237 66.2863 93.1647 66.2809C91.4234 66.2638 88.421 64.7712 86.9635 63.7715C86.747 63.6225 85.1455 62.3089 85.1348 62.1556C85.1305 62.0935 85.696 61.1098 85.7483 61.0777C85.9222 60.9705 86.1164 61.1988 86.238 61.2931L86.2391 61.292Z" fill="#E50695"/>
<path d="M94.8868 55.3795C95.7105 55.1898 96.8938 56.1338 96.467 56.751C96.0903 57.2964 95.798 55.8574 95.2005 55.9131C94.6297 55.9667 94.4953 57.111 94.061 56.8046C93.6268 56.4981 94.4633 55.477 94.8868 55.3784V55.3795Z" fill="#080808"/>
<path d="M12.8707 89.1835C12.4279 89.1096 11.728 88.5277 11.3748 88.2234C9.28678 86.419 7.43135 84.0253 5.3476 82.178C5.04245 81.8201 5.67302 81.2468 5.93869 80.9393C7.13901 79.5496 8.5047 78.2884 9.67835 76.8697C9.79678 76.6372 9.28998 76.3661 9.67835 75.6996L18.9864 64.5988L23.3033 53.3008C23.3662 53.1582 23.3822 53.0211 23.3566 52.8668C23.2916 52.4843 22.6044 51.3603 22.4135 50.8074C21.562 48.3461 21.784 46.007 22.6279 43.5811C22.2086 43.5929 21.561 43.6507 21.5556 43.1043L24.1195 31.698L20.7063 34.859C20.3436 35.1065 20.0768 34.3361 19.8176 34.3822C19.4356 34.4507 17.3721 36.5155 17.0392 36.9516C14.6141 40.1362 12.4535 43.5532 10.103 46.7945C9.99843 48.0793 10.2353 52.8229 8.58152 53.1925C7.16781 53.5086 7.27878 51.3828 7.22009 50.5373C6.91495 50.8352 6.63541 51.1717 6.37614 51.5092C5.61967 52.4928 4.32119 55.2648 2.79652 54.1194C2.65248 54.0112 2.59273 53.7551 2.50951 53.7401C2.13395 53.6704 1.84374 54.0315 1.27612 53.5365C0.78959 53.1122 1.03179 52.5239 0.962436 52.3803C0.951766 52.3578 0.793855 52.3514 0.73624 52.225C-0.125856 50.3391 1.51832 47.8778 2.73997 46.4688C3.18596 45.9545 3.90188 45.4434 4.26998 44.9001C4.86214 44.0258 5.41588 42.7496 5.97496 41.7949C8.57512 37.361 10.8947 32.641 14.4775 28.9142C14.534 28.7867 14.1905 28.6485 14.3623 28.2746C18.0443 24.7375 21.3433 20.4354 26.7453 19.7218C27.4633 19.6264 31.0493 19.5471 31.3204 19.2835C31.4292 19.1774 31.6234 18.2484 31.5828 18.2109C30.7655 18.3095 26.2001 18.0395 25.9461 17.283C25.896 17.1341 25.9141 16.9605 25.9867 16.8201C28.7351 14.1928 27.3524 10.1853 28.3297 6.86255C29.8309 1.76216 36.6338 -0.989481 40.8599 2.6333C43.3374 4.75703 43.4281 7.91799 43.5284 10.9793C43.6554 14.8528 43.3491 18.872 39.0899 20.2393C39.0579 20.28 39.2083 20.7643 39.2478 20.8201C39.2979 20.894 40.6359 21.2712 40.9304 21.4019C44.6615 23.0563 46.5116 25.9376 48.8365 29.0943C49.9504 30.6072 51.045 32.147 52.064 33.7253C52.1461 33.7821 52.3222 33.6567 52.4107 33.6064C55.3054 31.9541 58.1637 29.1725 61.0616 27.412C62.3323 25.5786 63.3907 23.636 65.8746 23.3585C67.5508 23.1709 69.833 24.1503 70.4475 25.8122C70.5713 26.1465 70.4923 26.3094 70.5382 26.4873C70.6609 26.962 71.0109 27.0959 70.774 27.8502C70.6652 28.1974 70.2331 28.296 70.2 28.4428C70.1552 28.6389 70.4006 28.9517 70.2075 29.4232C70.0303 29.8593 69.3752 30.0608 69.3454 30.109C69.1875 30.3672 69.4745 30.8505 68.7991 31.3273C68.4065 31.6048 68.1365 31.5202 67.7599 31.6755C67.2637 31.8791 66.8167 32.2724 66.2374 32.2349C66.6108 34.6222 67.2125 36.9816 67.889 39.2983C69.9653 46.4088 73.2237 53.8676 79.6798 57.9693C80.3392 58.3883 84.9036 60.9181 85.3005 60.6888C86.5702 59.1512 87.0034 57.0532 88.2912 55.5006C86.4144 52.4886 85.6174 49.7798 89.1287 47.67C89.7358 47.3046 91.2883 46.4881 91.763 47.2306L92.3584 49.0394C92.7959 47.7878 94.4742 46.2599 95.826 46.2491C97.0743 46.2395 97.0231 48.0707 96.9324 48.974C96.8695 49.5998 95.9658 52.1864 96.1407 52.4671C96.177 52.525 97.0476 52.9847 97.2664 53.1604C97.7209 53.5258 98.5766 54.7612 98.8316 54.907C99.4728 55.2734 102.124 54.893 103.07 55.0409C104.093 55.2016 103.773 56.7639 103.615 57.5022C103.259 59.163 102.086 60.0684 100.464 60.3877L101.367 61.0317C102.665 61.7078 102.88 64.632 101.151 64.6738C99.9423 64.7027 100.101 63.404 99.9263 63.2787C99.8644 63.2347 98.8241 63.5701 98.52 63.568C97.5256 63.5605 96.0927 62.6068 95.3661 62.8126C94.1584 63.1533 94.3237 64.8891 94.1381 65.8653C93.8831 67.209 93.5918 68.7005 93.2674 70.0217C93.0316 70.9828 92.7052 71.9108 92.3808 72.843C92.4032 72.9576 93.8383 74.2606 94.0634 74.4642C96.2218 76.4143 98.4272 77.3605 99.0268 80.5075C99.2039 81.4376 99.5507 84.1313 98.4315 84.5203C97.053 84.9982 96.2688 83.227 95.8217 82.2273C95.5785 81.684 95.1218 79.9707 94.9244 79.7028C94.6054 79.271 91.9114 78.357 91.2957 77.9948C91.842 80.1946 92.48 82.3698 93.2002 84.516C94.1957 84.6328 95.0823 84.8096 95.7204 85.6475C96.1045 86.1522 96.6294 87.4605 95.7225 87.5816C95.0482 87.6716 92.8972 87.6555 92.225 87.5505C90.6107 87.2998 89.1981 84.6349 88.4651 83.2966C87.221 81.024 86.0954 78.5638 85.1128 76.1668C83.8911 76.2836 82.6598 76.4154 81.4254 76.3415C80.1909 76.2675 79.0503 75.8968 77.8671 75.8121C77.5043 77.4344 76.352 78.6773 75.3128 79.9042L77.69 83.9438C78.8252 84.2278 79.8815 84.2321 80.6284 85.2757C80.9026 85.6582 81.3091 86.7415 80.9517 87.0984C80.5195 87.5291 77.2504 87.3834 76.5708 87.2076C75.7332 86.9912 74.4038 85.2382 73.8074 84.5224C72.3659 82.7962 70.2651 80.5053 70.4454 78.1544C69.9333 78.4373 69.3987 78.7041 68.8503 78.9077C67.8431 79.2806 65.7722 79.5121 65.1672 80.2418C64.4097 81.1558 64.4491 83.0566 64.4161 84.1924C65.4126 84.4742 66.2811 84.8685 66.6673 85.9111C66.9511 86.6762 67.0397 87.3684 66.0752 87.468C64.957 87.5837 63.076 87.5623 62.2928 86.6633C60.9047 85.0689 60.9101 78.9956 61.8885 77.1633C62.0698 76.8226 62.5457 76.5033 62.805 76.1572C64.1109 74.4138 63.6052 72.5162 63.9189 70.5317C64.0938 69.4227 64.511 68.4626 64.9549 67.4522C59.1869 67.1875 57.0082 59.8434 60.9581 55.8917C61.3038 55.5456 62.6054 54.3391 63.0344 54.7698C63.4419 55.178 63.0525 57.125 63.0333 57.7604C62.9533 60.3342 63.4804 63.0954 66.056 64.2612C67.7514 65.0295 67.8452 64.4723 69.3283 64.0791C73.4926 62.9754 81.0562 65.426 84.368 62.0507C84.4587 61.9586 84.9708 61.3232 84.8962 61.2439C80.097 59.5027 75.7567 56.4253 72.8866 52.1585C68.9442 46.2984 67.0109 39.2157 65.5865 32.3516L64 32.3967L55.6255 40.4737C50.8445 44.2615 48.112 40.4791 45.2344 36.7791C44.7981 36.4963 44.4844 37.6192 43.9232 37.4638C43.5796 37.3685 42.6332 35.8298 42.248 35.5533L40.5953 45.723C40.3446 46.0166 39.4452 45.5934 39.0483 45.723C38.884 47.6764 38.2 49.5848 37.9205 51.5038L51.9754 78.2948C52.4278 78.9656 51.2691 79.0192 51.2286 79.2785C51.1966 79.4906 51.7012 80.4507 52.0053 80.5118C53.3347 80.7764 56.1632 79.1895 57.9738 79.3385C59.9722 79.5024 60.9976 81.8019 59.4633 83.1873L49.6036 89.8275H59.4665C59.6777 89.8275 59.6777 90.4693 59.4665 90.4693H33.45C33.2387 90.4693 33.2387 89.8275 33.45 89.8275H48.2176L44.2742 83.3448C44.0533 83.2152 42.8872 84.4721 42.6236 83.8281C39.6202 78.5381 36.8952 73.0712 33.8416 67.8112C33.5919 67.3826 31.8688 64.4563 31.6372 64.4595C30.55 66.4386 29.8096 68.4069 28.4279 70.2263C25.912 73.5395 22.4807 76.8086 19.6938 79.9771C19.2766 80.4518 17.099 83.3009 16.7095 83.3009C16.3126 83.2077 15.4409 81.9551 15.2019 81.9133C15.1283 81.9005 14.4497 82.4437 14.4273 82.5134C14.3388 82.7823 15.3108 85.0571 15.2574 85.5886C17.4607 85.8115 19.2297 87.6598 18.0411 89.8275H23.2126C23.4239 89.8275 23.4239 90.4693 23.2126 90.4693H5.29959C5.08833 90.4693 5.08833 89.8275 5.29959 89.8275H17.0286C17.1075 89.8275 17.8277 89.4128 17.7221 89.1857H12.8707V89.1835ZM42.6716 7.50653C42.0432 1.71501 35.5871 -0.119414 31.3204 3.44229C29.0019 5.37744 28.382 8.22123 28.4929 11.1465L29.291 10.1832C29.6762 9.89921 30.2001 9.79742 30.6716 9.87028C31.0077 9.92279 31.3982 10.3439 31.585 10.2464C32.1312 9.96136 32.1878 8.29516 32.3233 8.19658C34.2907 8.16015 36.2251 7.46796 37.8021 6.31072C38.056 6.12428 39.0387 5.18885 39.123 5.16742C39.6724 5.02598 42.0144 7.25151 42.6716 7.50867V7.50653ZM42.6524 8.16979C41.9472 8.07979 39.6735 5.79961 39.2286 5.91319C39.1133 5.94212 37.706 7.1165 37.3326 7.3383C35.9754 8.14193 34.3484 8.7527 32.7565 8.79234C32.8802 9.39667 32.0139 11.214 31.3396 11.0254C31.1283 10.9664 30.9885 10.5957 30.7613 10.5282C29.4959 10.1499 28.7405 11.5622 28.9645 12.653C29.115 13.3848 29.9899 14.2506 30.6994 14.4424C30.9 14.4971 31.2563 14.4178 31.3556 14.4788C31.4025 14.5078 31.5551 15.3275 31.6372 15.5343C32.0384 16.5415 32.4364 16.5394 32.3158 17.8241C32.287 18.1338 31.9584 19.6039 31.7951 19.7635C31.4196 20.13 31.156 19.6875 31.5988 20.7108C32.5708 22.9599 36.2625 24.221 38.0923 22.3373C38.5063 21.9119 38.9245 20.9529 38.4604 20.4536C38.3665 20.3518 37.3614 20.4793 37.0765 20.4568C36.6892 20.4268 36.0555 20.2725 35.6852 20.1418C35.3662 20.0293 34.1712 19.5439 34.5105 19.0606C34.7463 18.7252 35.3353 19.306 35.6383 19.4399C37.7626 20.3786 40.4225 19.5042 41.738 17.6462C43.5017 15.156 42.8306 11.0457 42.6535 8.16872L42.6524 8.16979ZM30.9256 15.126C30.9 15.096 30.4551 15.0157 30.3057 14.945C29.6399 14.631 29.2409 14.2699 28.765 13.7084L28.3862 12.9669C28.1675 14.4499 27.7237 15.92 26.6791 17.0323C28.2902 17.5669 30.008 17.5927 31.6906 17.5691C31.7429 16.8747 31.2894 16.3133 31.044 15.7014C30.9789 15.5407 30.9651 15.171 30.9256 15.126ZM30.8328 20.1429C29.2003 20.1611 27.5337 20.1996 25.9301 20.5104C21.2633 21.4158 18.3249 25.4629 14.9512 28.4342L20.5474 34.1593C22.6749 32.2059 24.7949 30.1818 26.9309 28.2799C27.187 28.4524 27.3001 28.5842 27.1112 28.8671C26.7314 29.435 25.083 30.6147 24.9176 31.0551L22.2001 42.9382L40.1131 45.1873L42.725 29.1285C43.1774 28.8146 43.219 29.2378 43.2136 29.6129C43.1923 31.1751 42.4646 33.0235 42.4636 34.634C42.5404 35.1933 43.777 36.1094 43.9552 36.7298L49.8084 31.4473C46.853 27.6445 44.3702 22.797 39.3278 21.5369C38.2694 23.876 35.9477 24.355 33.6783 23.441C32.3307 22.8988 30.9917 21.6483 30.8328 20.1429ZM63.8378 31.6991H65.4905C65.3187 30.9126 65.3432 30.574 64.8652 29.9161C64.782 29.8025 64.7575 29.57 64.7426 29.5582C64.6988 29.525 63.7183 30.1154 63.905 29.4136C63.9583 29.2132 65.0402 28.7321 65.3806 28.3238C65.7209 27.9156 65.9706 26.9384 66.0346 26.8934C66.3547 26.6684 67.4729 27.562 67.9466 26.7273C68.4523 25.8369 66.8412 25.4254 66.1936 25.4961C65.993 25.5186 65.8138 25.6451 65.6239 25.6794C64.7233 25.8412 64.909 25.239 65.5929 25.0064C67.0504 24.5103 68.3862 25.6654 69.7519 25.974C68.7351 23.7999 65.7348 23.4056 63.8986 24.805C62.7634 25.6697 62.3344 26.9748 61.3806 27.9499L52.3467 34.4014C52.1867 34.485 52.0096 34.5354 51.8421 34.4314C51.5422 34.245 50.4465 32.1888 50.1776 32.132L45.5556 36.2487C47.5423 38.4175 49.4137 42.1142 52.9303 41.302C54.7282 40.8862 57.1384 38.2696 58.5094 36.9474C60.304 35.219 61.9813 33.3664 63.8378 31.6991ZM68.2635 27.4163C68.8407 27.3938 69.6815 28.2499 70.1242 27.7334C70.774 26.977 69.2141 26.3833 68.6903 26.2398C68.765 26.7241 68.368 26.9973 68.2635 27.4163ZM66.1307 28.4867C66.9202 28.5135 68.7874 29.7179 69.4371 29.3975C69.7039 29.2657 69.7177 28.8735 69.5502 28.641C69.276 28.2617 66.6951 27.4773 66.4646 27.6434C66.4283 27.6702 66.1018 28.4535 66.1317 28.4867H66.1307ZM65.5673 28.9314C65.3368 28.9946 65.2312 29.2582 65.292 29.4821C65.3859 29.8197 67.3363 30.8494 67.7001 30.9265C68.5206 31.1012 69.0925 30.4111 68.3595 29.944C68.144 29.8068 66.0581 28.971 65.8362 28.9346C65.738 28.9185 65.6697 28.9035 65.5673 28.9314ZM1.30066 51.7171C1.33907 51.6796 1.67516 50.9434 1.79145 50.7634C2.05072 50.3616 2.81573 49.1144 3.10807 48.8743C3.40041 48.6343 3.68956 48.6761 3.65008 49.0886C3.62661 49.3297 2.55112 50.7077 2.32493 51.0849C2.11154 51.4385 1.4639 52.4296 1.56099 52.7918C1.63568 53.0693 1.86614 53.2675 2.15849 53.1743C2.67596 53.0093 4.05019 50.5095 4.56339 49.9073C4.87921 49.5376 5.21316 49.1765 5.31346 49.8998C5.01791 50.4998 3.07499 52.9075 3.1102 53.3715C3.13261 53.6608 3.42282 53.7915 3.69276 53.7529C4.32973 53.6619 5.78612 51.222 6.31746 50.5973C6.64074 50.2169 7.53911 48.9622 7.78344 49.9759C7.888 50.4077 7.75677 53.5247 8.70955 52.3568C9.70395 51.1384 9.22916 48.0846 9.4895 46.6102C11.9723 43.3346 14.1809 39.5286 16.7661 36.3602C17.5055 35.4547 18.4785 34.665 19.4292 33.9996L14.8979 29.3493C13.0531 31.1998 11.6981 33.2646 10.3484 35.4837C8.5047 38.5128 6.68448 42.5621 4.69782 45.333C3.43029 47.1021 1.46923 48.2143 1.11714 50.7302C1.1022 50.8363 0.982707 52.0364 1.30172 51.7192L1.30066 51.7171ZM67.0898 31.3766C67.1731 31.2641 65.9749 30.6715 65.9183 30.7358L66.025 31.6991L67.0898 31.3766ZM38.5159 45.617L23.3289 43.7032C21.9408 46.741 22.3377 49.7337 23.9296 52.6053C26.4092 57.0778 30.4529 61.2857 33.2707 65.5996L43.0461 83.2934L51.3 78.3345L35.474 48.1864L35.4238 47.6485L35.9018 47.7568L37.4478 50.5373L38.5159 45.6148V45.617ZM95.5582 52.2528C95.6734 50.7473 96.9111 48.5025 96.208 47.0517C95.8772 46.3692 94.5339 47.2982 94.1167 47.6475C93.6014 48.0782 92.4854 49.5023 92.4587 50.1677C92.4374 50.6938 92.7073 51.476 92.6806 52.0385C93.6494 51.9967 94.6065 52.0835 95.5582 52.2539V52.2528ZM103.023 57.3907H101.37C101.022 57.3907 100.627 56.0181 100.784 55.6774C100.317 55.6463 99.8068 55.7224 99.3459 55.6774C98.0783 55.5509 97.9642 54.6144 97.1085 53.8558C95.6243 52.54 94.1157 52.6932 92.2464 52.6353C91.921 51.3881 91.9679 50.0777 91.6713 48.824C91.6137 48.5808 91.4109 47.7589 91.3064 47.6068C90.9735 47.1256 88.7372 48.6011 88.3659 48.9386C86.0975 50.997 87.7556 53.4486 89.0381 55.4995C87.8569 56.9643 87.2157 58.7494 86.3248 60.3899C86.2608 60.6545 86.6716 60.9535 86.8722 61.1367C88.5867 62.7076 91.252 64.018 93.5715 64.2312C93.946 63.6055 94.0218 62.9465 94.7142 62.4847C96.3381 61.4003 98.01 63.8155 99.6094 62.5843C98.9991 62.0775 98.0815 62.0989 97.404 61.6971C96.8577 61.3725 95.9892 60.302 95.9017 59.6666C95.7289 58.4065 97.037 59.4084 97.5886 59.5852C99.6361 60.2388 102.486 59.8113 103.024 57.3929L103.023 57.3907ZM23.8016 53.6447L19.5178 64.9202C16.3756 68.6234 13.2249 72.3169 10.1606 76.0854L16.7095 82.5444L28.0032 69.7988C29.3518 68.0222 30.1435 65.9264 31.1422 63.9473L23.8016 53.6447ZM62.6119 55.4641C62.4571 55.2873 60.9901 56.7896 60.8514 56.961C58.025 60.4756 60.1003 66.4557 64.7031 66.9036C65.7455 67.0054 65.4009 66.7814 65.9695 66.1664C66.2918 65.8181 66.6737 65.5567 66.9831 65.2052C64.9261 64.8131 63.3224 63.1404 62.7484 61.1603C62.1957 59.2562 62.4209 57.4014 62.6119 55.4641ZM96.6262 59.853C97.0114 61.3371 98.4507 61.2814 99.5294 61.8086C100.608 62.3357 100.453 63.7598 100.78 63.9784C101.666 64.572 102.353 62.7847 101.247 61.6907C100.204 60.6578 99.03 60.6224 97.7518 60.2752C97.5609 60.2238 96.6742 59.8059 96.6273 59.853H96.6262ZM86.2384 61.2921C86.1167 61.1978 85.9226 60.9706 85.7487 61.0767C85.6964 61.1089 85.1309 62.0936 85.1352 62.1546C85.1458 62.3068 86.7473 63.6215 86.9639 63.7705C88.4214 64.7702 91.4238 66.2628 93.165 66.28C93.7241 66.2853 93.515 65.3167 93.7465 64.8838C92.3979 64.7531 91.0172 64.3598 89.7839 63.7994C88.4374 63.1876 87.4035 62.19 86.2394 61.291L86.2384 61.2921ZM92.6273 87.0426C93.1725 87.1101 93.8276 86.9933 94.3867 87.0426C94.3056 86.7673 93.452 85.9197 94.1221 85.8575C94.7366 85.8008 94.7729 87.1026 95.5048 87.0459C95.6606 87.0341 95.6969 87.0898 95.6542 86.8958C95.3192 85.3764 94.0026 85.2779 92.7318 85.011C91.523 81.6454 90.6545 78.1716 89.9172 74.671C89.9354 74.3613 90.4838 74.1856 90.7057 73.9809C92.5131 72.319 92.8353 69.1323 93.2141 66.8104C90.0229 66.5093 86.9127 64.7123 84.6305 62.5308C80.9655 65.7956 75.3438 64.1209 70.8722 64.452C67.4633 64.7038 65.1299 67.2454 64.5633 70.536C64.2144 72.5622 64.7159 74.327 63.5102 76.2225C63.1933 76.7208 62.7036 77.0422 62.4475 77.5105C61.5428 79.1606 61.7167 82.1544 61.9877 83.9781C62.2694 85.8693 62.7538 87.0866 64.9591 86.8283C65.02 86.7833 64.0832 85.5382 64.8002 85.5404C65.3817 85.5425 65.3315 87.258 66.2395 86.8294C66.2128 85.9465 65.7348 85.3036 64.9282 84.9875C64.6593 84.8825 63.9946 84.8793 63.9082 84.6199C63.7353 84.1046 63.937 81.9133 64.0928 81.3026C64.6967 78.9249 65.8906 79.2099 67.8132 78.6152C72.161 77.2694 73.4649 74.5713 74.2107 70.2649L74.6086 70.0238C74.822 70.1728 74.7815 70.3817 74.7612 70.5982C74.6577 71.7468 74.0271 73.053 73.8106 74.1974C75.57 74.1663 77.2195 74.9624 78.9276 75.3235C80.4587 75.6471 82.0005 75.795 83.571 75.7018C83.8111 75.6878 84.8567 75.5839 84.8823 75.4328C84.942 75.0749 84.0501 73.2705 84.4694 72.963H84.798C85.2749 74.3613 85.6003 75.7875 86.1605 77.1612C86.949 79.0931 88.1344 81.4279 89.1469 83.2623C89.8415 84.5203 91.0877 86.853 92.6305 87.0437L92.6273 87.0426ZM98.4368 83.8313C98.7889 83.4799 98.6182 81.6476 98.5318 81.115C98.3344 79.8828 97.8052 78.3966 96.8396 77.5683L91.9903 73.4484C91.6051 73.9991 91.1346 74.476 90.5435 74.7953L91.1357 77.1922L95.4216 79.257C95.9882 80.8397 96.3787 82.8048 97.69 83.9374C97.6547 83.572 97.0188 82.0537 97.8415 82.3408C98.0783 82.4233 98.1402 83.3974 98.2213 83.6749C98.2554 83.7927 98.2618 84.0049 98.4368 83.8302V83.8313ZM77.0594 86.7212C77.7198 86.8144 78.5617 86.6526 79.2456 86.7212C79.2381 86.3612 78.5403 85.8983 78.7633 85.5414C79.204 84.8353 79.9146 87.2751 80.527 86.6665C80.4256 85.9261 79.9989 85.2918 79.3192 84.9885C78.7527 84.7367 78.184 84.7903 77.6644 84.6167C77.1074 84.4303 76.3627 82.9634 76.0287 82.4051C75.8271 82.0676 74.6865 80.1035 74.6588 79.916C74.5905 79.4413 75.4142 78.9077 75.7236 78.5295C76.431 77.6648 77.0626 76.575 77.3261 75.4821C76.0778 75.2903 74.9426 74.6774 73.6431 74.8317C73.595 74.8274 73.546 74.8317 73.5043 74.8574C73.4403 74.8981 72.925 75.9321 72.7383 76.1754C72.0874 77.0272 71.1827 77.3305 71.0471 78.5445C70.8775 80.0596 72.7703 82.2819 73.7039 83.4541C74.2886 84.1892 75.57 85.8458 76.2571 86.3504C76.4651 86.5037 76.8161 86.688 77.0594 86.7223V86.7212ZM10.2044 77.2137L8.66688 78.8681C9.84266 80.3125 11.8144 82.928 13.9579 82.0322C14.1158 81.9658 14.7698 81.5672 14.6866 81.369L10.2033 77.2137H10.2044ZM12.8707 88.5417H17.8288C17.7189 87.4637 17.2313 86.8219 16.2273 86.4565C15.8944 86.3354 14.8264 86.2004 14.6845 85.9711C14.5532 85.76 14.4679 84.531 14.4124 84.4785C14.0678 84.4303 12.51 84.8085 12.3916 84.4185C12.1579 83.6545 14.1702 84.1292 14.199 83.7788C14.2033 83.7263 13.8576 82.8595 13.7797 82.8123C13.5674 82.6837 12.7298 82.7845 12.366 82.733C11.665 82.6334 10.8957 82.0858 10.3644 81.6379C9.99736 81.3283 8.42041 79.4767 8.27211 79.4499C8.09819 79.4199 6.2257 81.6036 6.00164 81.9433C7.90401 83.7092 9.6538 85.8768 11.5893 87.5805C11.824 87.7873 12.6359 88.4935 12.8717 88.5406L12.8707 88.5417ZM44.8055 82.8691C44.7511 82.9441 45.5631 84.3606 45.6719 84.5139C45.7412 84.6124 45.7562 84.6885 45.9056 84.6746C46.2459 84.6424 48.7618 82.9602 49.211 82.6344C49.5225 82.4083 51.3331 81.039 51.2958 80.8011C51.2734 80.6596 50.6887 79.8164 50.6172 79.5528L44.8055 82.8702V82.8691ZM52.8013 81.0475C52.5036 81.2372 52.1376 81.0797 51.8442 81.2093C51.6319 81.3036 50.3355 82.5637 49.9589 82.8498C48.7863 83.7392 47.4974 84.4646 46.2363 85.22L47.8965 88.0681L58.9746 80.9811C59.4302 79.8978 57.7391 79.9289 57.0434 80.0071C56.5292 80.065 54.1211 80.6564 53.7658 80.8911C53.2174 81.2533 53.0402 82.7052 52.7372 82.7555C51.937 82.8873 52.8994 81.1804 52.8013 81.0486V81.0475ZM59.6255 81.2618L48.2198 88.7013C48.8557 89.7439 48.7788 89.5693 49.7018 89.0131C52.8482 87.1198 55.873 84.7828 58.9778 82.8048C59.5241 82.4266 59.7012 81.9197 59.6255 81.2618Z" fill="#080808"/>
<path d="M11.2188 50.0035C11.1911 49.7839 11.238 49.621 11.3383 49.4292C11.5506 49.0231 12.4437 48.1787 12.7979 47.6826C13.4519 46.7665 14.1604 45.5364 14.4933 44.4606C14.6587 43.9259 14.6981 43.148 14.871 42.699C15.03 42.2886 15.3234 42.2886 15.381 42.773C15.5773 44.437 13.9673 47.194 12.9665 48.4948C12.7211 48.8141 12.0628 49.681 11.8035 49.8964C11.6136 50.0528 11.4386 50.0121 11.2188 50.0046V50.0035Z" fill="#080808"/>
<path d="M35.9157 15.008C36.1643 14.9276 37.3881 15.6145 37.8501 15.7195C38.1083 15.7773 38.5159 15.848 38.7751 15.8598C39.586 15.8963 41.0147 15.3412 40.0053 16.7653C38.8946 18.3318 36.9283 18.1786 36.0139 16.491C35.857 16.2027 35.4815 15.1473 35.9147 15.008H35.9157ZM39.3662 16.4995C38.3068 16.5788 37.3614 16.147 36.3809 15.8577C36.9389 17.2239 38.3622 17.8207 39.3662 16.4995Z" fill="#080808"/>
<path d="M38.4221 14.4498C38.0018 14.1798 38.7038 13.6001 39.1519 13.8219C39.1605 13.389 38.4819 11.4999 38.6313 11.2674C38.6483 11.2417 38.9151 11.156 38.9769 11.1667C39.2352 11.2138 39.3707 11.9318 39.4421 12.1943C39.5371 12.5457 39.8166 13.8069 39.7686 14.0791C39.7121 14.3952 38.611 14.5709 38.4232 14.4498H38.4221Z" fill="#080808"/>
<path d="M35.2873 8.70868C35.8154 8.59939 36.9709 8.68083 37.0222 9.37731C36.6295 9.79305 36.1643 9.19408 35.6309 9.26694C35.235 9.32159 34.3996 10.2549 34.2662 9.57875C34.1947 9.21872 34.9918 8.76976 35.2862 8.70868H35.2873Z" fill="#080808"/>
<path d="M40.7292 8.59931C41.1912 8.55859 42.4641 9.10506 42.0885 9.65153C41.8538 9.99227 41.3054 9.24865 40.9053 9.22293C40.5596 9.20043 40.1083 9.59367 39.9013 9.49402C39.1448 9.12649 40.3462 8.6336 40.7303 8.59931H40.7292Z" fill="#080808"/>
<path d="M41.4755 11.7624C40.8097 12.431 39.9604 11.0531 40.7542 10.663C41.4499 10.3212 41.8852 11.3499 41.4755 11.7624Z" fill="#080808"/>
<path d="M35.7107 11.0596C36.6603 10.7638 36.7126 12.1397 36.0927 12.3079C35.4514 12.4825 35.0353 11.2696 35.7107 11.0596Z" fill="#080808"/>
</svg>
