<svg width="80" height="80" viewBox="0 0 80 80" fill="none" xmlns="http://www.w3.org/2000/svg">
<path d="M36.666 23.3334H43.3327V30.0001H36.666V23.3334ZM36.666 36.6667H43.3327V56.6668H36.666V36.6667ZM39.9994 6.66675C21.5993 6.66675 6.66602 21.6001 6.66602 40.0001C6.66602 58.4001 21.5993 73.3334 39.9994 73.3334C58.3994 73.3334 73.3327 58.4001 73.3327 40.0001C73.3327 21.6001 58.3994 6.66675 39.9994 6.66675ZM39.9994 66.6668C25.2994 66.6668 13.3327 54.7001 13.3327 40.0001C13.3327 25.3001 25.2994 13.3334 39.9994 13.3334C54.6994 13.3334 66.666 25.3001 66.666 40.0001C66.666 54.7001 54.6994 66.6668 39.9994 66.6668Z" fill="#E10098"/>
</svg>
