<svg width="54" height="54" viewBox="0 0 54 54" fill="none" xmlns="http://www.w3.org/2000/svg">
<path d="M37.4572 21.6803C37.4486 21.6144 37.4385 21.5502 37.4183 21.4872C37.4158 21.4803 37.4132 21.4734 37.4112 21.4665C37.3101 21.1948 37.2089 20.9231 37.1078 20.6514C37.1007 20.6348 37.0941 20.6188 37.0855 20.6033C36.9373 20.3293 36.7659 20.0611 36.5601 19.8387C36.5555 19.8347 36.551 19.8301 36.5459 19.8261C36.3426 19.6484 36.1398 19.4701 35.9365 19.2924C35.9244 19.2833 35.9122 19.2735 35.8991 19.2655C35.8854 19.2575 35.8718 19.2494 35.8581 19.2414C35.8328 19.2689 35.8035 19.2924 35.7701 19.3085C34.6484 19.8404 33.429 20.0869 32.2203 20.1797C31.1765 20.26 30.122 20.2175 29.0873 20.0358C29.063 19.9906 29.0301 19.951 28.9861 19.9252C28.8314 19.8324 28.6716 19.8914 28.574 20.0479C28.5562 20.076 28.5385 20.1046 28.5214 20.1327C28.5062 20.1505 28.491 20.1677 28.4748 20.1843C28.4703 20.1889 28.4652 20.1935 28.4607 20.1981C28.3889 20.2531 28.3145 20.3007 28.2376 20.3448C28.2174 20.2806 28.182 20.2221 28.1365 20.1826C28.0212 20.0817 27.8457 20.0857 27.741 20.2095C27.4264 20.5821 27.2171 21.0372 27.0254 21.4992C26.8352 21.9572 26.6375 22.4037 26.3902 22.8261C26.33 22.9293 26.2678 23.0307 26.2036 23.1316C26.1717 23.1821 26.1393 23.2319 26.1065 23.2818C26.0913 23.3047 26.0761 23.3282 26.0604 23.3512C26.0518 23.3643 26.0427 23.3775 26.0341 23.3907C26.0326 23.393 25.9891 23.4561 26.0174 23.4154C26.0432 23.3781 26.0139 23.4205 26.0073 23.4297C25.9982 23.4429 25.9891 23.456 25.9805 23.4687C25.9648 23.4916 25.9487 23.5139 25.933 23.5369C25.8966 23.589 25.8597 23.6406 25.8227 23.6916C25.7509 23.7914 25.6781 23.89 25.6048 23.988C25.3124 24.3783 25.009 24.7572 24.7111 25.1418C24.432 25.5023 24.0344 25.9563 24.036 26.455C24.0329 26.4561 24.0304 26.4567 24.0274 26.4578C24.0081 26.4636 23.9879 26.467 23.9687 26.4722C23.9652 26.4722 23.9611 26.4733 23.9576 26.4733C23.9232 26.4762 23.8893 26.4745 23.8554 26.4727C23.8483 26.4716 23.8413 26.4704 23.8357 26.4687C23.8165 26.4636 23.7978 26.4555 23.779 26.4498C23.7725 26.4464 23.7669 26.4441 23.7674 26.4441C23.7502 26.4338 23.733 26.4229 23.7168 26.4103C23.7153 26.4091 23.7138 26.408 23.7123 26.4068C23.7027 26.3879 23.6703 26.3644 23.6577 26.3495C23.647 26.3369 23.6369 26.3237 23.6268 26.3099C23.6228 26.3019 23.6152 26.2933 23.6116 26.287C23.5848 26.2435 23.5611 26.1976 23.5378 26.1517C23.4913 26.0572 23.4498 25.9586 23.4104 25.86C23.3901 25.8101 23.3709 25.7597 23.3517 25.7092C23.3507 25.707 23.3507 25.7064 23.3502 25.7047C23.3492 25.7006 23.3482 25.6978 23.3476 25.6972C23.3375 25.6697 23.3279 25.6428 23.3183 25.6152C23.2814 25.5092 23.2465 25.4026 23.2136 25.2948C23.1479 25.0793 23.0902 24.8609 23.0381 24.6408C22.8283 23.757 22.7059 22.8502 22.5122 21.9618C22.4651 21.7462 22.4156 21.5307 22.3559 21.3192C22.2851 21.0676 22.1708 20.8228 21.9538 20.6979C21.7495 20.5804 21.5154 20.55 21.2903 20.5219C21.1017 20.4978 20.9115 20.4915 20.7219 20.5001C19.8995 20.5391 19.108 20.8458 18.3828 21.2739C18.0288 21.4831 17.69 21.7233 17.3643 21.9847C17.1812 22.132 16.9991 22.2839 16.8241 22.4455C16.6436 22.59 16.4671 22.7407 16.2961 22.8995C15.9952 23.1775 15.71 23.4784 15.4425 23.7994C15.3135 23.9387 15.1962 24.0888 15.0894 24.2482C14.6656 24.8185 14.2954 25.441 13.9925 26.1002C13.9308 26.2349 13.8721 26.3713 13.8155 26.5094C13.7841 26.5358 13.7558 26.569 13.7336 26.6097C13.6162 26.8224 13.5282 27.0516 13.4438 27.2826C13.4048 27.3887 13.3679 27.4959 13.3305 27.6025C13.3153 27.6455 13.3022 27.7206 13.2754 27.7561C13.291 27.7137 13.2926 27.7102 13.2794 27.7452C13.2749 27.7567 13.2703 27.7687 13.2658 27.7802C13.2551 27.8077 13.2445 27.8346 13.2334 27.8616C13.1504 28.0656 13.0544 28.2622 12.9451 28.4497C12.9208 28.4915 12.8961 28.5322 12.8708 28.5729C12.8536 28.5998 12.8364 28.6268 12.8192 28.6537C12.8177 28.6566 12.8136 28.6623 12.8101 28.6686C12.7524 28.7609 12.6816 28.8469 12.6144 28.93C12.5653 28.9913 12.5355 29.0716 12.5294 29.153C12.4637 29.1914 12.3979 29.2292 12.3327 29.2676C12.1926 29.3496 12.1395 29.5851 12.2244 29.7347C12.3165 29.8964 12.4864 29.9451 12.6366 29.8574C13.0174 29.6339 13.3993 29.4103 13.7922 29.216C13.818 29.2034 13.8433 29.1896 13.8696 29.1782C13.861 29.1822 13.856 29.1839 13.8524 29.1856C13.8605 29.1822 13.8752 29.1753 13.8863 29.1701C13.9379 29.1461 13.99 29.122 14.0426 29.0991C14.1437 29.0544 14.2459 29.0125 14.348 28.9724C14.5493 28.8927 14.7521 28.8182 14.9509 28.7305C15.36 28.5505 15.7348 28.3046 16.1146 28.0576C16.2162 27.9917 16.3184 27.9269 16.4216 27.865C16.4964 27.8661 16.5713 27.8679 16.6461 27.873C16.678 27.8753 16.7098 27.8776 16.7417 27.8816C16.7432 27.8816 16.7452 27.8816 16.7478 27.8822C16.7579 27.8839 16.7902 27.8885 16.7918 27.8891C16.8595 27.9023 16.9263 27.9217 16.992 27.9458C17.0229 27.9573 17.0537 27.9705 17.0841 27.9837C17.0841 27.9837 17.0851 27.9837 17.0861 27.9842C17.0805 27.9819 17.1266 28.0031 17.1331 28.0066C17.1964 28.0381 17.2591 28.0719 17.3223 28.104C17.4062 28.1464 17.4912 28.1883 17.5777 28.2232C17.6546 28.2874 17.7491 28.3218 17.8432 28.3161C17.8665 28.3574 17.8988 28.3912 17.9413 28.4124C18.838 28.8566 19.7402 29.2859 20.6485 29.6986C21.5401 30.1039 22.4373 30.4942 23.3396 30.8679C23.5671 30.9625 23.7947 31.0554 24.0228 31.1476C24.129 31.1906 24.2347 31.233 24.3409 31.2766C24.347 31.2795 24.3536 31.2823 24.3581 31.2852C24.3799 31.2972 24.4011 31.3099 24.4213 31.3242C24.4223 31.3248 24.4269 31.3276 24.4325 31.3316C24.433 31.3322 24.433 31.3328 24.434 31.3334C24.4416 31.3437 24.4512 31.3546 24.4603 31.3637C24.5129 31.4606 24.5513 31.5649 24.5902 31.6698C24.5923 31.6755 24.5948 31.6818 24.5968 31.6876C24.5983 31.6916 24.5999 31.6956 24.6009 31.6979C24.6115 31.7266 24.6221 31.7552 24.6322 31.7839C24.6545 31.8458 24.6762 31.9077 24.697 31.9696C24.7172 32.0292 24.7364 32.0894 24.7546 32.1496C24.7278 32.2023 24.7157 32.2596 24.7076 32.3273C24.6277 33.0071 24.6277 33.696 24.7 34.3753C24.698 34.6647 24.6965 34.9542 24.6929 35.2436C24.6929 35.2752 24.6919 35.3061 24.6919 35.3376C24.6863 35.3663 24.6813 35.395 24.6757 35.423C24.659 36.1596 24.6176 36.8956 24.5316 37.6269C24.3222 39.4044 23.8185 41.0815 23.024 42.6326C22.366 43.9177 21.5791 45.1535 20.6298 46.1892C21.3318 46.1949 22.0191 46.3434 22.7165 46.4448C22.7534 46.4156 22.8004 46.3973 22.8576 46.3973C23.7057 46.395 24.5528 46.3079 25.4004 46.317C26.0094 46.3239 26.6172 46.3634 27.2257 46.3755C27.3936 46.3612 27.562 46.3531 27.7299 46.3566C27.744 46.3612 27.7582 46.3652 27.7724 46.3703C27.7764 46.3726 27.781 46.3749 27.785 46.3766C27.8148 46.3766 27.8447 46.3766 27.875 46.3755C28.6994 46.3549 29.5237 46.2924 30.3471 46.2459C30.9792 46.2104 31.6291 46.1514 32.2547 46.2895C32.5561 46.2861 32.857 46.2706 33.1575 46.2437C33.252 46.2895 33.3714 46.2792 33.4543 46.2127C33.4655 46.2116 33.4766 46.2104 33.4882 46.2087C33.5666 46.1995 33.645 46.1783 33.7011 46.109C33.7512 46.0471 33.7992 45.9548 33.7891 45.8676C33.7037 45.115 33.5565 44.3768 33.3324 43.6609C33.3309 43.6569 33.3294 43.6528 33.3279 43.6488C33.3223 43.5084 33.3152 43.3686 33.3046 43.2281C33.2748 42.8441 33.2283 42.4618 33.1757 42.0812C33.0755 41.3584 32.9552 40.639 32.8419 39.9191C32.7276 39.1935 32.6138 38.4672 32.4995 37.7416C32.4019 37.122 32.3048 36.5023 32.2072 35.8822C32.1905 35.6844 32.1617 35.4884 32.1151 35.2969C32.106 35.2603 32.0909 35.2259 32.0716 35.1949C32.0742 35.1777 32.0772 35.1605 32.0797 35.1433C32.1166 34.9123 32.1622 34.6831 32.2173 34.4566C32.2436 34.3483 32.2163 34.2268 32.1531 34.1408C32.2658 33.6376 32.3806 33.1349 32.4985 32.6328C32.453 32.5732 32.4302 32.4866 32.4525 32.3783C32.5061 32.1158 32.5207 31.8481 32.5187 31.5781C32.5172 31.5712 32.5152 31.5643 32.5137 31.5569C32.4924 31.4446 32.4742 31.3311 32.458 31.2164C32.5819 30.6283 32.6912 30.0368 32.7443 29.4338C32.7726 29.1145 32.7817 28.7936 32.7675 28.4732C32.7675 28.4726 32.7685 28.472 32.769 28.4714C32.7685 28.4709 32.768 28.4703 32.7675 28.4697C32.7635 28.3855 32.7584 28.3012 32.7513 28.2169C32.7483 28.1791 32.7407 28.143 32.7301 28.1092C32.7503 28.0805 32.7776 28.0547 32.8141 28.0341C34.0556 27.3314 35.3225 26.6412 36.6769 26.267C36.7143 26.2062 36.7507 26.1449 36.7861 26.0824C36.8473 25.9741 36.9019 25.8617 36.9495 25.7448C37.1032 25.3693 37.2595 24.987 37.3687 24.5898C37.4026 24.4677 37.4289 24.3428 37.4466 24.2167C37.4972 23.8624 37.5417 23.5065 37.5725 23.1494C37.5781 23.0823 37.5817 23.0153 37.5827 22.9482C37.5892 22.5309 37.5063 22.0632 37.4567 21.678L37.4572 21.6803ZM16.0615 26.6791C16.065 26.6756 16.0686 26.6716 16.0721 26.6682C16.0777 26.6705 16.0832 26.6728 16.0888 26.6745C16.0797 26.6762 16.0706 26.6774 16.0615 26.6791ZM21.3879 28.6726C21.0218 29.2687 20.1645 29.3559 19.6426 28.9684C19.3948 28.7844 19.233 28.3981 19.2684 28.0587C19.2036 27.9871 19.149 27.9074 19.1116 27.8197C18.8784 27.2683 19.6254 26.4263 20.1109 26.5272C20.1726 26.5014 20.2379 26.4813 20.3072 26.4687C20.3557 26.4595 20.3997 26.4647 20.4391 26.4802C20.6384 26.4492 20.8518 26.4825 20.9879 26.5753C21.2802 26.7737 21.5796 27.2379 21.6625 27.6122C21.746 27.9871 21.5735 28.3711 21.3884 28.6726H21.3879ZM32.4348 41.2031C32.4292 41.1899 32.4236 41.1761 32.4176 41.1629C32.4155 41.1274 32.4135 41.0919 32.4115 41.0563C32.4191 41.105 32.4267 41.1543 32.4348 41.2031Z" fill="#F0F0F0"/>
<path d="M23.3516 25.707C23.3556 25.7172 23.3611 25.7314 23.3606 25.7314C23.3596 25.7314 23.3546 25.7172 23.3516 25.707Z" fill="#E50695"/>
<path d="M23.6186 26.2984C23.5915 26.2626 23.613 26.2893 23.6236 26.3052C23.6221 26.3029 23.6201 26.3006 23.6186 26.2984Z" fill="#E50695"/>
<path d="M24.3516 31.2812C24.3638 31.2864 24.3714 31.2893 24.3516 31.2812V31.2812Z" fill="#E50695"/>
<path d="M24.4453 31.3403C24.4453 31.3403 24.4483 31.3426 24.4493 31.3437C24.4493 31.3437 24.4498 31.3448 24.4503 31.3454C24.4488 31.3437 24.4473 31.342 24.4453 31.3403Z" fill="#E50695"/>
<path d="M23.8775 51.7767C23.7435 51.763 23.7956 51.7739 23.7774 51.8627C23.7303 52.0914 23.613 53.11 23.5503 53.2114C23.4775 53.3295 23.2666 53.2808 23.2696 53.1226C23.2635 52.3866 23.6454 51.4609 23.6565 50.7645C23.6605 50.526 23.3369 49.5373 23.701 49.5384C23.8057 49.5384 23.8416 49.6668 23.8644 49.7568C24.1182 50.7599 24.1304 51.9888 24.3848 53.0125C24.4141 53.1925 24.3226 53.3261 24.1607 53.2624C24.0358 53.2137 23.8947 52.0037 23.8775 51.7767Z" fill="#070707"/>
<path d="M43.1714 31.4751L34.1133 41.7448L34.3451 42.0074L43.4032 31.7377L43.1714 31.4751Z" fill="#F6B4DD"/>
<path d="M42.6172 29.7638L33.9883 39.5401L34.2371 39.8222L42.866 30.046L42.6172 29.7638Z" fill="#F6B4DD"/>
<path d="M43.3488 33.7454L34.6953 43.5529L34.927 43.8156L43.5805 34.008L43.3488 33.7454Z" fill="#F6B4DD"/>
<path d="M43.9922 35.3128L36.7188 43.5563L36.9516 43.8202L44.225 35.5767L43.9922 35.3128Z" fill="#F6B4DD"/>
<path d="M40.5467 29.7698L34.0156 37.2211L34.2474 37.4821L40.7785 30.0307L40.5467 29.7698Z" fill="#F6B4DD"/>
<path d="M44.8402 36.6977L38.793 43.5514L39.0004 43.7865L45.0476 36.9328L44.8402 36.6977Z" fill="#F6B4DD"/>
<path d="M46.3289 37.5668C46.3542 37.5874 46.3997 37.7858 46.338 37.8207L41.2028 43.6403L40.9727 43.6947L40.9828 43.4488L46.1029 37.6161C46.1504 37.5662 46.2849 37.5301 46.3289 37.5662V37.5668Z" fill="#F6B4DD"/>
<path d="M38.4933 29.7893L34.0117 34.8685L34.2191 35.1036L38.7007 30.0243L38.4933 29.7893Z" fill="#F6B4DD"/>
<path d="M46.3333 39.7129L42.9414 43.5572L43.1488 43.7923L46.5408 39.948L46.3333 39.7129Z" fill="#F6B4DD"/>
<path d="M36.3661 29.7846L33.9844 32.4839L34.1918 32.719L36.5735 30.0196L36.3661 29.7846Z" fill="#F6B4DD"/>
<path d="M46.4318 42.091C46.4763 42.1265 46.4844 42.3248 46.4363 42.408C46.3554 42.549 45.4825 43.5251 45.3449 43.6374C45.0845 43.8507 44.9302 43.6323 45.0961 43.4128C45.5113 43.1422 45.8856 42.4148 46.2532 42.1449C46.3003 42.1105 46.3878 42.0554 46.4323 42.091H46.4318Z" fill="#F6B4DD"/>
<path d="M48.0518 36.8744C45.1195 36.9907 42.5675 33.3607 44.0979 30.265C42.5124 28.3987 43.0359 24.8466 45.3714 24.207C45.0295 22.7941 45.5559 21.2871 46.6706 20.55C49.0041 19.0059 51.6612 21.3794 51.0402 24.2832C52.1498 24.9532 53.0358 26.075 53.2462 27.5188C53.4424 28.8641 53.0373 29.9658 52.2727 30.9643C53.1794 33.86 51.026 36.7483 48.4559 36.8171C48.2991 36.84 48.3603 36.6589 48.3547 36.5305C50.5269 36.3321 52.3414 34.522 52.1467 31.9175C52.1285 31.6721 51.9207 30.9717 51.9525 30.8399C51.9707 30.7631 52.2711 30.4197 52.3414 30.3017C53.4692 28.417 53.0348 25.9598 51.2637 24.8363C50.9921 24.6638 50.6462 24.7119 50.6836 24.2992C50.7347 23.7306 50.889 23.4635 50.7777 22.8078C50.2143 19.4879 45.8619 19.7573 45.5792 23.0394C45.5352 23.5478 45.6783 23.9404 45.7183 24.4294C43.8921 24.8088 43.0227 27.0861 43.7166 28.9764C43.8228 29.2653 44.4014 30.0982 44.4099 30.2008C44.4196 30.3171 44.0696 31.0915 44.019 31.3598C43.4981 34.1168 45.6768 36.5878 48.0508 36.531C48.0513 36.6457 48.0508 36.7603 48.0508 36.875L48.0518 36.8744Z" fill="#F6B4DD"/>
<path d="M48.0529 36.5304C48.0494 35.8667 48.0651 35.1995 48.0418 34.5363C47.5604 34.1162 47.1532 33.5734 46.7137 33.0902C46.607 32.9727 46.1797 32.6494 46.1797 32.4901C46.1797 32.3869 46.2894 32.2625 46.382 32.3158C46.9009 32.6144 47.526 33.7356 48.0524 34.1236V27.618C48.0524 27.6031 48.1708 27.4615 48.2224 27.4793C48.2492 27.4844 48.3559 27.6076 48.3559 27.618V31.8309L50.3505 29.478C50.44 29.3794 50.6352 29.4006 50.6337 29.5668C50.6322 29.7537 48.6133 31.9381 48.3554 32.2734C48.4034 33.6777 48.2927 35.1336 48.3554 36.531C48.3609 36.6594 48.2997 36.8405 48.4565 36.8176L48.3503 36.958L48.3296 43.6385C48.2578 43.7761 48.1703 43.7537 48.0585 43.6878C48.0393 41.4203 48.06 39.1453 48.0514 36.8755C48.0514 36.7609 48.0519 36.6462 48.0514 36.5316L48.0529 36.5304Z" fill="#E4E4E4"/>
<path d="M11.791 22.3154V26.3564C11.791 26.4292 11.6327 26.4922 11.566 26.5026C11.1088 26.5725 9.91929 26.5478 9.43732 26.5026C9.15562 26.4756 9.13236 26.4492 9.10859 26.13C9.04285 25.2438 9.03121 23.4457 9.10758 22.5705C9.12174 22.4094 9.11719 22.2971 9.28914 22.2604C9.49902 22.3051 11.791 22.1738 11.791 22.316V22.3154ZM9.46463 22.602V26.0985H11.4876V22.602H9.46463Z" fill="#E6E6E6"/>
<path d="M8.90986 36.6451C8.71718 36.5356 8.30904 36.7752 8.55332 36.9632C8.60035 36.9993 9.51119 37.0796 9.68516 37.1128C10.0033 37.1736 10.8767 37.3323 11.0977 37.5593C11.4072 37.8774 10.9222 38.0018 10.7067 38.0225C10.0043 38.0901 9.26691 37.8935 8.5872 37.9262C8.37732 37.9365 8.42385 38.1652 8.55534 38.2787C9.33468 38.4076 10.1889 38.2907 10.9571 38.3652C11.2145 38.3904 11.9271 38.6037 11.5675 38.998C11.3384 39.2491 9.9618 39.3672 9.5921 39.3952C9.42622 39.4079 8.41626 39.2663 8.67874 39.6864C8.73285 39.773 9.34935 39.7472 9.49348 39.742C9.90161 39.7277 11.1665 39.448 11.4178 39.7919C11.6631 40.1278 11.346 40.2201 11.1118 40.3146C10.5419 40.5456 9.93803 40.5726 9.34631 40.6637C9.18701 40.6884 8.81327 40.7342 8.98269 41.0047C9.09496 41.1836 10.5206 40.8311 10.7836 40.7961C11.2363 41.1005 10.86 41.3567 10.5419 41.5028C9.90263 41.7963 8.99078 41.9471 8.46026 41.367C7.24194 40.0349 7.3709 37.3129 8.12395 35.7246L8.70706 34.6957L8.91037 36.6445L8.90986 36.6451Z" fill="#FDFDFD"/>
<path d="M15.2324 32.9768C15.3249 32.9504 15.4109 32.9252 15.508 32.9166C16.1169 32.8621 17.3433 32.8467 17.9386 32.9195C18.0397 32.9321 18.2157 32.9774 18.2157 33.1201V35.6708H20.5169C20.6074 35.6708 20.6387 35.8977 20.6463 35.9826C20.6974 36.5598 20.7116 38.1853 20.6458 38.7402C20.6367 38.8158 20.5811 38.9952 20.5169 38.9952H18.2157V41.6032C18.2157 41.7058 18.0155 41.7414 17.9406 41.75C17.4212 41.809 15.9561 41.8256 15.4569 41.7494C15.3902 41.7391 15.2319 41.676 15.2319 41.6032V38.9952H12.8802C12.7897 38.9952 12.7583 38.7683 12.7507 38.6834C12.6997 38.1062 12.6855 36.4807 12.7512 35.9258C12.7603 35.8502 12.816 35.6708 12.8802 35.6708H15.2319V32.9768H15.2324Z" fill="#E50695"/>
<path d="M25.0794 15.2779C25.4632 15.2779 25.0197 16.2013 24.8907 16.3813C24.3076 17.197 23.1641 17.295 22.6245 16.3733C22.5396 16.2283 22.3019 15.6195 22.3843 15.4906C22.4758 15.3479 22.8476 15.4917 22.9932 15.4963C23.3371 15.5083 23.7725 15.5238 24.1099 15.4963C24.3997 15.4728 24.8604 15.2774 25.0794 15.2774V15.2779ZM24.8407 15.7239C24.2014 15.956 23.4711 15.7451 22.8425 15.8379C22.6807 15.862 22.8582 16.1194 22.9194 16.2105C23.5045 17.08 24.5696 16.6622 24.8407 15.7239Z" fill="black"/>
<path d="M23.3022 12.6906C23.3654 12.6659 23.456 12.6757 23.502 12.7405C23.6654 13.0087 23.1085 13.9378 23.1278 14.1494C23.146 14.3488 23.7842 14.1568 23.6724 14.5431C23.593 14.8177 22.6104 14.5248 22.8284 14.0473C22.9371 13.8845 23.235 12.7175 23.3022 12.6912V12.6906Z" fill="black"/>
<path d="M25.3345 10.8065C25.5529 10.7818 26.2888 11.0123 26.2043 11.3367C26.133 11.6112 25.7461 11.2519 25.65 11.2221C25.3704 11.1361 24.9698 11.3516 24.8869 11.2845C24.6153 11.065 25.162 10.8254 25.334 10.8059L25.3345 10.8065Z" fill="black"/>
<path d="M21.7426 10.4631C21.9656 10.4109 22.8355 10.5032 22.7131 10.9302C22.6433 11.1738 22.3793 10.9027 22.2771 10.8632C21.8129 10.682 21.5605 11.0214 21.3845 10.9612C21.0654 10.8517 21.605 10.4958 21.7426 10.4631Z" fill="black"/>
<path d="M25.4351 12.5862C25.6941 12.862 25.4584 13.5584 25.0442 13.344C24.5536 13.0901 25.0518 12.1776 25.4351 12.5862Z" fill="black"/>
<path d="M21.77 12.8974C21.5894 12.7317 21.6167 12.213 21.8519 12.1373C22.6181 11.8897 22.3217 13.4047 21.77 12.8974Z" fill="black"/>
<path d="M20.4207 27.0362C21.279 26.9972 21.3189 28.3786 20.6124 28.5018C19.5837 28.6824 19.5772 27.074 20.4207 27.0362ZM20.8021 27.7825C20.8021 27.5693 20.6493 27.3967 20.4617 27.3967C20.2741 27.3967 20.1213 27.5698 20.1213 27.7825C20.1213 27.9951 20.2741 28.1683 20.4617 28.1683C20.6493 28.1683 20.8021 27.9951 20.8021 27.7825Z" fill="black"/>
<path d="M14.7769 50.8029L15.1587 47.9369C13.1155 46.4455 11.3646 44.4892 10.2758 42.0004C9.30325 42.1609 8.72215 42.2859 8.05154 41.3722C6.56568 39.3477 7.27119 36.0141 8.6559 34.1506C8.64781 33.2221 8.53958 32.2929 8.57903 31.3695C9.66434 30.9007 10.8189 30.5889 11.8441 29.9687C13.6308 26.0389 15.4778 20.5352 20.0173 20.0875C20.3202 20.0577 20.7425 20.1368 21.0116 20.068C21.1552 20.0313 21.489 19.6324 21.6883 19.5166C21.7894 19.4582 22.2218 19.3086 22.239 19.281C22.2618 19.2449 22.3245 18.4665 22.3038 18.3978C22.2881 18.3462 22.0529 18.1799 22.0054 18.1628C21.7363 18.0636 21.0515 18.1238 20.6808 18.059C19.8924 17.9209 18.8915 17.4795 18.1997 17.0307C18.0389 16.9264 17.3172 16.4197 17.304 16.2667C18.0904 13.7721 18.7879 11.2283 19.6304 8.75791C20.2221 7.02459 20.8432 5.89026 22.4509 5.19097C25.7367 3.76259 29.4989 5.78135 30.2282 9.75984C30.3996 10.6953 30.387 11.9133 30.4057 12.8831C30.435 14.4067 30.3875 15.9365 30.3941 17.46C30.3369 17.6738 29.3133 18.0292 29.0887 18.1014C28.5142 18.286 27.9149 18.419 27.3187 18.474C27.3404 18.6018 27.2868 19.1647 27.3242 19.214C27.3343 19.2272 27.5483 19.2707 27.6221 19.3068C28.2543 19.6164 28.1051 19.7046 28.9117 19.6777C29.5399 19.657 30.2059 19.5734 30.834 19.5063C33.3804 19.234 35.8616 18.6098 38.3448 17.9587L36.9656 8.77396C36.1681 7.75884 35.1708 6.93575 34.3464 5.95331C34.0809 5.63691 33.8806 5.20472 34.2726 4.89004C34.8931 4.39195 35.5698 5.23854 36.1681 5.3784C35.9015 4.36271 35.4231 3.31436 35.195 2.29752C35.144 2.07054 35.0853 1.90374 35.1111 1.65785C35.1713 1.08982 35.7625 1.1116 36.071 1.41883C36.1418 1.48933 36.1387 1.61428 36.2191 1.62288C35.9375 0.644452 36.8033 0.0139472 37.2923 1.01129C37.3267 1.08122 37.3419 1.36896 37.4329 1.1821C37.5695 0.90124 37.6509 0.741894 38.0044 0.833031C38.3134 0.912704 38.5248 1.56442 38.5713 1.56499C38.6098 1.56614 38.8212 1.25948 39.1676 1.3489C39.6283 1.46755 39.8817 2.9607 39.9985 3.44562C40.3697 4.98749 40.6651 6.55343 40.6929 8.16122C41.4242 11.5126 42.552 14.84 43.2858 18.1765C43.6636 19.8955 43.6085 21.4695 42.2541 22.5918C41.1693 23.4911 39.7492 24.1325 38.5461 24.81C38.4196 24.9166 38.7322 25.3224 38.5461 25.4972C36.691 26.4367 34.8501 27.4209 33.0669 28.5185C32.7918 30.8508 32.5065 33.1843 32.3234 35.5297L33.9954 46.0769C34.0561 46.6352 33.5033 46.4031 33.1847 46.4466L33.8169 50.8029H41.5547C41.6548 50.8029 41.6553 51.1468 41.5547 51.1468H33.8422L34.0961 53.1208C34.0738 53.3146 33.8963 53.3822 33.7921 53.224L32.8236 46.4541L20.0203 46.4581C19.023 47.4176 17.9089 48.2063 16.7482 48.8873C16.5409 48.9199 15.5137 48.0693 15.4333 48.1662L14.7404 53.1976C14.6762 53.3541 14.3991 53.3008 14.439 53.0778L14.7253 51.1468H0.337011C0.236874 51.1468 0.236369 50.8029 0.337011 50.8029H14.7758H14.7769ZM38.0408 4.03084L37.7617 3.97467C37.6656 3.47427 37.1704 1.08581 36.8265 0.907545C36.252 0.609488 36.5995 2.03672 36.6495 2.31185C36.7517 2.87415 37.0167 3.6084 37.0698 4.13287C37.0885 4.31571 37.0344 4.4378 36.8584 4.36959C36.7714 4.33577 36.4321 2.95669 36.3461 2.71366C36.2434 2.42248 35.9855 1.68937 35.7175 1.59193C35.4181 1.48302 35.3584 1.66702 35.4342 1.97081L36.5185 5.48731C36.8781 5.60595 37.263 5.62028 37.6023 5.81861C37.6994 5.87535 38.0995 6.20551 38.145 6.29263C38.2492 6.49267 38.1819 6.66922 37.9756 6.60215C37.8977 6.57693 37.5315 6.1608 37.3333 6.0668C36.9555 5.88739 36.4427 5.90458 36.0411 5.75441C35.6027 5.59105 34.9123 4.92386 34.4612 5.16059C34.3449 5.22135 34.3858 5.43514 34.4481 5.55437L37.2048 8.50513C37.7384 11.6611 38.2244 14.8658 38.6512 18.0498C38.6502 18.0986 38.6497 18.1501 38.6249 18.192C38.5471 18.3255 37.2013 18.5565 36.9565 18.6505C36.9059 18.67 36.8549 18.666 36.8301 18.7377L38.4226 24.4959C39.2708 24.0356 40.1391 23.596 40.9584 23.0709C42.8079 21.8856 43.5609 20.992 43.0233 18.4178C42.3158 15.0309 41.099 11.6267 40.3905 8.21854C40.2468 6.32015 39.9798 3.89499 39.3446 2.12442C39.2576 1.88196 38.9238 1.428 38.8217 1.84814C38.6674 2.48495 39.074 3.33958 39.0568 3.94601C39.0498 4.20222 38.8121 4.24234 38.7514 3.99989C38.6199 3.4737 38.3958 1.4429 37.9776 1.20675C37.6261 1.00843 37.6731 1.62403 37.6934 1.87451C37.7182 2.18002 38.1334 3.92709 38.0413 4.03141L38.0408 4.03084ZM30.0496 12.0555C30.2363 9.0445 29.0129 6.39867 26.422 5.42024C24.4622 4.68026 21.9502 5.1795 20.6733 7.1312C20.081 8.03627 19.7255 9.51222 19.3786 10.5933C18.7818 12.4521 18.2204 14.3293 17.6565 16.2013C18.7939 17.1167 20.1437 17.7311 21.5543 17.7873C19.4772 15.8018 20.254 12.6894 20.4512 10.0321C20.475 9.94039 20.5458 9.90715 20.6151 9.8739C20.8912 9.74322 21.3252 9.69793 21.6544 9.56152C22.3998 9.25314 23.3157 8.57793 23.8002 7.8666C23.8847 7.74279 24.088 7.26934 24.1674 7.24642C24.3773 7.18566 24.4268 7.61669 24.4946 7.77718C24.9467 8.84962 25.5698 9.74436 26.5267 10.2889C26.7482 10.415 27.6676 10.7108 27.7243 10.7658C27.786 10.8254 27.9008 11.4605 28.0338 11.5929C28.7777 11.2748 29.5075 11.3653 30.0501 12.056L30.0496 12.0555ZM27.8901 11.9804C27.7177 11.8073 27.5189 11.0914 27.4709 11.0524C27.3778 10.9773 26.6905 10.7698 26.466 10.6437C25.3898 10.0424 24.6777 9.07832 24.1583 7.87119C23.5812 8.86968 22.5541 9.59132 21.5644 9.97478C21.4137 10.0332 20.7774 10.1674 20.7516 10.2574C20.5408 12.882 19.7796 15.8505 21.9629 17.6962C23.0968 18.6545 24.3039 18.6884 25.5986 18.1014C25.7574 18.0292 26.3082 17.5512 26.2971 17.9415C26.2885 18.2545 24.9245 19.0472 24.6398 19.1355C23.9828 19.3389 23.2126 19.2518 22.5657 19.0483C22.5592 19.2352 22.5495 19.5596 22.4772 19.7224C22.4267 19.837 22.285 19.872 22.2699 19.9413C22.2623 19.9769 22.3088 20.5707 22.3189 20.6745C22.4873 22.4588 23.2449 24.4076 24.0577 25.926L27.521 20.1076C27.5695 19.9666 27.2605 20.048 27.1508 19.9694C27.0992 19.9328 27.0279 19.7195 27.0188 19.6462C26.9722 19.2679 26.9586 17.4749 27.0167 17.1293C27.0329 17.0319 27.4284 16.5521 27.5225 16.3842C27.8021 15.8866 27.9963 15.2848 28.0874 14.7041C28.4824 14.6514 28.7893 14.6829 29.155 14.4514C29.7108 14.0994 30.1381 12.929 29.7695 12.287C29.4731 11.7711 28.8177 11.6634 28.3317 11.856C28.1673 11.9213 28.0459 12.1374 27.8901 11.9804ZM30.1007 17.3288V13.7177C29.9682 13.873 29.9202 14.0777 29.7963 14.2611C29.4458 14.7787 28.9122 15.0647 28.3327 15.0383C28.2811 15.4951 28.0995 15.9583 27.9018 16.3555C27.8037 16.5527 27.3192 17.1878 27.3192 17.2428V18.1312C28.278 18.0154 29.2086 17.7277 30.1007 17.3288ZM20.3905 46.1027H33.6915L32.0291 35.7493C32.1045 33.3161 32.5252 30.9053 32.7341 28.4813C32.7493 28.3099 32.8337 28.2377 32.948 28.1505C33.7127 27.5665 35.1682 26.8758 36.0502 26.3931C36.7886 25.989 37.5462 25.6188 38.2937 25.2376L36.5226 18.7612C33.8993 19.5235 31.1901 19.9058 28.4819 20.0233C29.3603 20.9479 29.3441 22.2725 29.1393 23.5192C30.1275 23.6648 30.9281 24.7332 31.0126 25.8389C31.0424 26.2286 31.0318 27.1795 30.9595 27.5504C30.8796 27.9602 30.8937 28.0966 30.8614 28.5374C30.7784 29.6695 30.5352 31.3082 29.4933 31.8017C29.373 31.859 28.9208 32.0356 28.807 32.0551C28.5203 32.1038 28.1754 32.0826 28.1294 31.6825C28.0763 31.2182 28.409 31.0784 28.758 31.1466C29.0164 31.197 29.1075 31.5209 29.1631 31.5306C29.3588 31.5656 29.8185 31.1185 29.9404 30.9328C30.6505 29.8472 30.5154 28.029 30.5033 26.756C30.5018 26.5949 30.5609 26.4298 30.5599 26.2412C30.5463 23.6504 27.6818 23.2217 26.8706 25.5614C26.7249 25.981 26.7391 26.4109 26.6288 26.7777C26.5894 26.909 26.5009 26.9761 26.4604 27.1027C26.3102 27.5773 26.1752 29.1077 26.2131 29.6162C26.2485 30.0919 26.5064 31.0359 26.9641 31.1787C27.0926 31.2188 27.1078 31.0841 27.2044 31.0405C27.6388 30.8451 28.0864 31.0153 27.966 31.6172C27.8719 32.09 27.2276 31.9817 26.999 31.718C26.952 31.6636 26.9788 31.5828 26.9328 31.5398C26.8316 31.4452 26.6111 31.381 26.465 31.2217C25.5349 30.2088 26.0017 27.5808 26.2212 26.2579C26.4705 24.7533 27.2544 23.5731 28.6847 23.4613C28.7762 22.4691 28.9552 21.509 28.3291 20.6831C28.2568 20.5879 27.9792 20.2744 27.8912 20.2595C27.8224 20.2474 27.788 20.3202 27.7475 20.3649C27.4638 20.6767 27.0501 21.4769 26.8124 21.8839C26.0973 23.1065 25.1298 25.2548 24.2857 26.2424C24.0121 26.5628 23.9869 26.5038 23.7891 26.1725C23.601 25.8572 23.3658 25.3396 23.2136 24.9906C22.5475 23.4636 22.0696 21.7864 21.9578 20.0795C21.6412 20.2348 21.3676 20.4973 21.1578 20.8057C20.4325 21.8724 20.471 23.3673 20.4912 24.6369C20.4998 25.1648 20.5033 25.6875 20.5418 26.2126C22.415 26.3605 22.2886 29.4138 20.3905 29.3932C21.1456 29.799 21.925 30.155 22.7043 30.4966C23.3102 30.7625 24.1861 30.9987 24.7252 31.3013C25.0165 31.4647 24.8461 31.6687 24.841 31.9164C24.7611 35.7848 24.3328 39.9576 22.4848 43.2884C21.9073 44.3293 21.1871 45.2722 20.39 46.1016L20.3905 46.1027ZM20.7951 20.4245C16.0169 20.3649 14.089 25.6784 12.2987 29.7663C13.8003 29.1077 15.2421 28.2864 16.686 27.4833C16.8736 27.4174 17.8012 28.1173 17.8613 28.0474C17.9033 27.802 18.1001 26.0618 18.1951 26.0378C18.2396 26.0263 18.3337 26.0366 18.3711 26.0658C18.5562 26.2132 18.1107 27.9287 18.1734 28.2675L19.4291 28.906C18.759 28.0135 19.0053 26.5966 20.0386 26.2321C20.0062 24.313 19.7144 22.0507 20.7946 20.424L20.7951 20.4245ZM21.5714 27.786C21.5714 27.0936 21.0763 26.5324 20.4654 26.5324C19.8545 26.5324 19.3593 27.0936 19.3593 27.786C19.3593 28.4784 19.8545 29.0395 20.4654 29.0395C21.0763 29.0395 21.5714 28.4784 21.5714 27.786ZM24.5305 31.6091C21.8552 30.6147 19.2865 29.2958 16.7705 27.876C14.1735 29.2155 11.617 30.7127 8.85921 31.6011C8.94872 32.8243 8.94164 34.0664 9.06808 35.2907C9.11511 35.7493 9.18794 36.2141 9.25823 36.6687L10.4523 36.9317C10.5135 36.9346 10.343 35.9069 10.3329 35.806C10.2495 34.9697 10.1999 34.1312 10.1741 33.292C10.1681 33.0931 10.0472 32.8575 10.1701 32.6558C12.37 31.7026 14.5786 30.731 16.6471 29.4482L16.8251 29.4763C18.8663 30.6789 20.9934 31.6785 23.1579 32.5623C23.341 32.6862 23.2798 33.2135 23.2722 33.4634C23.2014 35.7647 22.7397 38.7063 21.9164 40.8111C20.8776 43.4649 18.9563 45.5404 16.7153 46.8932C14.6565 45.6574 12.9081 43.8329 11.7844 41.4989C11.6838 41.2897 11.5057 40.7142 11.4127 40.5973C11.352 40.5205 11.2564 40.6208 11.1866 40.6013C11.486 41.3115 11.1269 41.6479 10.5802 41.8898C11.8936 44.8303 14.1452 47.029 16.7159 48.4981C18.6892 47.3443 20.52 45.8024 21.8268 43.7469C22.9511 41.9781 23.6217 39.9238 24.0076 37.7927C24.3712 35.7831 24.5199 33.6594 24.531 31.6097L24.5305 31.6091ZM11.4896 39.397C11.7262 39.628 11.8486 39.7862 11.7905 40.1674C11.7748 40.2683 11.6843 40.3199 11.6989 40.4419C11.7171 40.5961 11.9579 41.0959 12.0373 41.2691C12.899 43.1502 14.3166 44.7695 15.8738 45.9199C16.027 46.0334 16.5292 46.4283 16.6511 46.4764C16.6865 46.4908 16.7138 46.5068 16.7502 46.4816C18.1198 45.58 19.3932 44.4336 20.3895 43.0339C21.885 40.9326 22.5435 37.9308 22.812 35.2901C22.8444 34.9709 23.0199 32.9831 22.9471 32.8587C20.828 31.9668 18.7302 31.0107 16.725 29.8254C14.7131 30.9975 12.627 32.0407 10.4836 32.8667C10.4654 34.2355 10.6359 35.5951 10.7921 36.9478C10.8473 37.1541 11.4658 37.1794 11.4936 37.7055C11.4997 37.8219 11.4284 38.0191 11.4607 38.0775C11.489 38.128 11.6827 38.2065 11.7697 38.3045C12.1298 38.7115 11.9862 39.2795 11.4901 39.3965L11.4896 39.397ZM8.91029 36.6452L8.70698 34.6963L8.12386 35.7252C7.37082 37.3135 7.24186 40.0356 8.46018 41.3676C8.99019 41.9471 9.90255 41.797 10.5418 41.5035C10.8599 41.3573 11.2362 41.1011 10.7835 40.7967C10.5206 40.8317 9.09488 41.1848 8.98261 41.0054C8.81318 40.7348 9.18692 40.689 9.34623 40.6643C9.93795 40.5732 10.5418 40.5463 11.1118 40.3153C11.3459 40.2201 11.6635 40.1284 11.4177 39.7925C11.1669 39.4492 9.90153 39.7283 9.4934 39.7427C9.34927 39.7478 8.73227 39.7736 8.67866 39.6871C8.41618 39.2669 9.42614 39.4085 9.59202 39.3959C9.96222 39.3678 11.3383 39.2497 11.5674 38.9987C11.927 38.6043 11.2144 38.3905 10.957 38.3659C10.1888 38.2913 9.33511 38.4083 8.55526 38.2793C8.42377 38.1658 8.37724 37.9371 8.58712 37.9268C9.26683 37.8941 10.0037 38.0907 10.7067 38.0231C10.9221 38.0025 11.4071 37.8775 11.0976 37.56C10.8766 37.333 10.0032 37.1742 9.68508 37.1134C9.5106 37.0802 8.60027 37 8.55324 36.9638C8.30947 36.7758 8.7176 36.5362 8.90978 36.6457L8.91029 36.6452Z" fill="black"/>
</svg>
