<svg width="37" height="51" viewBox="0 0 37 51" fill="none" xmlns="http://www.w3.org/2000/svg">
<path d="M20.1931 9.78993C20.2781 9.78993 20.3471 9.72098 20.3471 9.63593C20.3471 9.55088 20.2781 9.48193 20.1931 9.48193C20.108 9.48193 20.0391 9.55088 20.0391 9.63593C20.0391 9.72098 20.108 9.78993 20.1931 9.78993Z" fill="black"/>
<path d="M21.1164 38.6019L21.0604 45.4199L4.09244 47.8559L2.37044 47.7439C0.606438 47.4919 0.732437 44.9159 0.732437 44.9159V3.09794C0.732437 0.493944 2.83244 0.241943 2.83244 0.241943L5.98244 0.507943L19.8844 1.58594" fill="white"/>
<path d="M4.10778 47.94L2.35778 47.828C0.537783 47.562 0.649783 44.944 0.649783 44.916V3.09796C0.649783 0.451959 2.80578 0.157959 2.81978 0.157959L5.98378 0.423959L19.8858 1.50196C19.8858 1.50196 19.9698 1.54396 19.9698 1.58596C19.9698 1.62796 19.9278 1.66996 19.8858 1.66996L5.98378 0.591959L2.83378 0.325959C2.83378 0.325959 0.831783 0.605959 0.831783 3.09796V44.93C0.831783 44.93 0.719784 47.436 2.38578 47.674L4.10778 47.786L20.9778 45.364L21.0338 38.616C21.0338 38.616 21.0618 38.532 21.1178 38.532C21.1598 38.532 21.2018 38.574 21.2018 38.616L21.1458 45.434C21.1458 45.434 21.1178 45.518 21.0758 45.518L4.10778 47.954V47.94Z" fill="#081017"/>
<path d="M2.17388 46.358C1.99188 45.952 1.92188 45.504 1.92188 45.056V2.67803C1.92188 2.67803 1.92188 0.326035 3.76988 0.410035C5.61788 0.494035 19.8979 1.58603 19.8979 1.58603C19.8979 1.58603 21.0739 1.50203 21.1579 2.42603C21.2419 3.35003 21.2419 6.62603 21.2419 6.62603L21.0739 45.434L4.10588 47.87C4.10588 47.87 2.80388 47.814 2.17388 46.358Z" fill="#E10098"/>
<path d="M4.10622 47.94C4.10622 47.94 2.73422 47.856 2.09022 46.386C1.92222 45.994 1.82422 45.546 1.82422 45.042V2.67801C1.82422 2.67801 1.82422 1.41801 2.53822 0.74601C2.86022 0.43801 3.26622 0.29801 3.77022 0.32601C5.60422 0.41001 19.7582 1.48801 19.8982 1.50201C20.3182 1.47401 21.1582 1.62801 21.2422 2.41201C21.3262 3.33601 21.3262 6.58401 21.3262 6.62601L21.1582 45.434C21.1582 45.434 21.1302 45.518 21.0882 45.518L4.12022 47.954L4.10622 47.94ZM2.24422 46.316C2.84622 47.688 4.05022 47.772 4.10622 47.772L20.9902 45.35L21.1582 6.61201C21.1582 6.61201 21.1582 3.33601 21.0742 2.42601C21.0042 1.60001 19.9542 1.65601 19.8982 1.65601C19.7442 1.65601 5.59022 0.56401 3.75622 0.48001C3.30822 0.46601 2.94422 0.59201 2.65022 0.85801C2.00622 1.47401 1.99222 2.65001 1.99222 2.66401V45.042C1.99222 45.518 2.07622 45.938 2.24422 46.316Z" fill="#081017"/>
<path d="M1.33434 10.406H1.30634C1.22129 10.406 1.15234 10.475 1.15234 10.56V15.376C1.15234 15.4611 1.22129 15.53 1.30634 15.53H1.33434C1.4194 15.53 1.48834 15.4611 1.48834 15.376V10.56C1.48834 10.475 1.4194 10.406 1.33434 10.406Z" fill="#E6E6E6"/>
<path d="M14.5701 1.69342L10.2382 1.42847C10.0915 1.4195 9.96539 1.5311 9.95642 1.67774L9.953 1.73363C9.94403 1.88026 10.0556 2.0064 10.2023 2.01537L14.5342 2.28032C14.6808 2.28929 14.8069 2.17769 14.8159 2.03106L14.8193 1.97516C14.8283 1.82853 14.7167 1.70239 14.5701 1.69342Z" fill="#E6E6E6"/>
<path d="M15.5757 44.0953L11.279 44.7068C11.1335 44.7275 11.0324 44.8622 11.0531 45.0076L11.061 45.063C11.0817 45.2085 11.2164 45.3096 11.3618 45.2889L15.6585 44.6774C15.804 44.6567 15.9051 44.522 15.8844 44.3766L15.8765 44.3211C15.8558 44.1757 15.7211 44.0746 15.5757 44.0953Z" fill="#E6E6E6"/>
<path d="M4.31856 44.412L20.3626 42.312L20.7826 5.01604C20.7826 5.01604 21.1186 3.08404 19.2706 3.08404C17.4226 3.08404 4.48656 2.24404 4.48656 2.24404C4.48656 2.24404 3.22656 2.07604 3.22656 4.17604V43.32C3.22656 43.32 3.22656 44.412 4.31856 44.412Z" fill="#F2F2F2"/>
<path d="M4.31662 44.496C3.15462 44.496 3.14062 43.334 3.14062 43.32V4.19002C3.14062 3.36402 3.33662 2.77602 3.71462 2.44002C4.07862 2.11802 4.48462 2.17402 4.49862 2.17402C4.62462 2.17402 17.4486 3.01402 19.2686 3.01402C19.8146 3.01402 20.2486 3.18202 20.5146 3.51802C21.0186 4.12002 20.8646 5.01602 20.8646 5.05802L20.4446 42.34C20.4446 42.34 20.4166 42.424 20.3746 42.424L4.33062 44.524L4.31662 44.496ZM4.41462 2.32802C4.30262 2.32802 4.05062 2.35602 3.81262 2.56602C3.47662 2.86002 3.30862 3.40602 3.30862 4.17602V43.32C3.30862 43.32 3.32262 44.328 4.31662 44.328L20.2766 42.242L20.6966 5.01602C20.6966 5.01602 20.8366 4.13402 20.3886 3.60202C20.1506 3.30802 19.7726 3.16802 19.2686 3.16802C17.4346 3.16802 4.61063 2.34202 4.48462 2.32802C4.48462 2.32802 4.45663 2.32802 4.42863 2.32802H4.41462Z" fill="#081017"/>
<path d="M17.745 7.68994L16.765 8.61394L16.625 13.3179L17.521 12.8559C17.521 12.8559 18.207 14.9279 19.551 15.7959C19.761 16.0619 19.635 16.2579 19.901 16.0059C20.167 15.7539 19.915 13.0099 19.915 13.0099C19.915 13.0099 18.431 12.5759 18.431 10.9519C18.109 12.2539 17.871 12.0159 17.871 12.0159L18.193 10.8819C18.193 10.8819 16.947 10.6719 17.465 9.69194C17.773 9.38394 18.235 9.48194 18.235 9.48194L18.865 7.95594L17.759 7.70394L17.745 7.68994Z" fill="white"/>
<path d="M11.7373 11.288H6.36134C6.36134 11.288 6.27734 11.246 6.27734 11.204C6.27734 11.162 6.31934 11.12 6.36134 11.12H11.7373C11.7373 11.12 11.8213 11.162 11.8213 11.204C11.8213 11.246 11.7793 11.288 11.7373 11.288Z" fill="#081017"/>
<path d="M13.585 12.352H8.209C8.209 12.352 8.125 12.31 8.125 12.268C8.125 12.226 8.167 12.184 8.209 12.184H13.585C13.585 12.184 13.669 12.226 13.669 12.268C13.669 12.31 13.627 12.352 13.585 12.352Z" fill="#081017"/>
<path d="M22.5729 9.07597C22.5729 9.07597 22.9089 9.22997 22.7129 10.154C22.5169 11.078 21.8869 13.234 20.3749 12.618C18.8629 12.002 18.3729 9.18797 19.6329 8.65597C20.8929 8.12397 22.5729 9.07597 22.5729 9.07597Z" fill="white"/>
<path d="M16.7344 8.83799C16.7344 7.08799 18.1484 5.68799 19.8844 5.68799C21.6204 5.68799 23.0344 7.10199 23.0344 8.83799" fill="white"/>
<path d="M23.0481 8.92197C23.0481 8.92197 22.9641 8.87997 22.9641 8.83797C22.9641 7.14397 21.5921 5.77197 19.8981 5.77197C18.2041 5.77197 16.8321 7.14397 16.8321 8.83797C16.8321 8.87997 16.7901 8.92197 16.7481 8.92197C16.7061 8.92197 16.6641 8.87997 16.6641 8.83797C16.6641 7.04597 18.1201 5.58997 19.9121 5.58997C21.7041 5.58997 23.1601 7.04597 23.1601 8.83797C23.1601 8.87997 23.1181 8.92197 23.0761 8.92197H23.0481Z" fill="#E10098"/>
<path d="M14.5368 22.488C14.5368 22.488 15.0128 23.356 15.9228 23.538C16.8328 23.72 17.0568 23.958 17.0568 23.958C17.0568 23.958 17.1408 24.826 17.6868 24.966L18.0648 24.812L17.4768 26.772L15.1528 24.266C15.1528 24.266 14.3688 22.81 14.5508 22.474L14.5368 22.488Z" fill="white"/>
<path d="M12.2129 16.692C12.2129 16.692 12.1289 16.65 12.1289 16.608V14.956C12.1289 14.2 12.7449 13.584 13.5009 13.584C14.6909 13.584 15.6709 12.618 15.6709 11.414V8.80998C15.6709 8.08198 16.2729 7.47998 17.0009 7.47998C17.0429 7.47998 17.0849 7.52198 17.0849 7.56398C17.0849 7.60598 17.0429 7.64798 17.0009 7.64798C16.3569 7.64798 15.8389 8.16598 15.8389 8.80998V11.414C15.8389 12.702 14.7889 13.752 13.5009 13.752C12.8289 13.752 12.2969 14.298 12.2969 14.956V16.608C12.2969 16.608 12.2549 16.692 12.2129 16.692Z" fill="#E10098"/>
<path d="M19.7305 30.8039C21.1445 27.8079 20.9765 24.2939 20.9765 24.2939C20.9765 24.2939 20.4445 23.9019 20.3045 23.6639" fill="white"/>
<path d="M19.7299 30.8879C19.7299 30.8879 19.7019 30.8879 19.6879 30.8879C19.6459 30.8739 19.6319 30.8179 19.6459 30.7759C20.9619 28.0039 20.8919 24.7419 20.8919 24.3499C20.7659 24.2659 20.3599 23.9439 20.2339 23.7199C20.2059 23.6779 20.2339 23.6219 20.2619 23.6079C20.3039 23.5799 20.3599 23.6079 20.3739 23.6359C20.5139 23.8599 21.0179 24.2379 21.0319 24.2379C21.0459 24.2519 21.0599 24.2799 21.0599 24.3079C21.0599 24.3499 21.2139 27.8779 19.7999 30.8599C19.7859 30.8879 19.7579 30.9019 19.7299 30.9019V30.8879Z" fill="#081017"/>
<path d="M22.913 19.31L24.719 20.724C24.719 20.724 25.279 21.662 25.951 21.662C26.623 21.662 27.771 21.466 28.905 20.836C30.039 20.206 31.789 18.792 31.789 18.792C31.789 18.792 32.181 18.568 32.867 18.512C33.553 18.456 35.247 17.896 35.247 17.896C35.247 17.896 36.017 17.532 36.115 17.49C36.689 17.238 36.339 17 36.213 17C36.087 17 34.757 17.406 34.757 17.406C34.757 17.406 36.465 16.762 36.591 16.692C37.095 16.398 36.717 16.258 36.493 16.3C36.353 16.328 34.729 16.916 34.729 16.916C34.729 16.916 36.521 16.118 36.689 16.006C37.207 15.656 36.731 15.558 36.493 15.628C36.255 15.698 35.247 16.02 35.247 16.02L34.561 16.37C34.561 16.37 36.101 15.642 36.255 15.404C36.633 14.858 35.429 15.334 35.429 15.334L34.267 15.852C34.127 15.922 33.987 15.964 33.833 15.992L33.035 16.132C33.035 16.132 33.427 15.572 33.595 15.278C34.071 14.48 33.427 14.76 33.427 14.76C33.427 14.76 32.965 15.054 32.685 15.572C31.663 16.076 31.495 17.21 31.495 17.21C31.495 17.21 28.723 18.456 27.477 18.904C26.791 18.162 26.175 18.106 26.175 18.106L25.615 17.49C25.615 17.49 23.865 15.222 23.123 14.494C22.381 13.766 21.765 13.752 21.261 13.416C20.757 13.08 20.519 13.36 20.519 13.36C20.519 13.36 20.799 13.752 20.855 14.438C20.911 15.124 20.113 15.852 20.113 15.852L19.875 15.992C19.875 15.992 20.463 17.07 20.463 18.064" fill="white"/>
<path d="M25.9496 21.746C25.2636 21.746 24.7316 20.906 24.6476 20.78L22.8416 19.38C22.8416 19.38 22.7996 19.296 22.8276 19.268C22.8556 19.226 22.9116 19.226 22.9396 19.254L24.7456 20.668C24.7456 20.668 24.7596 20.682 24.7596 20.696C24.7596 20.71 25.3056 21.592 25.9216 21.592C26.6216 21.592 27.7416 21.382 28.8336 20.78C29.9396 20.164 31.6896 18.764 31.7036 18.75C31.7316 18.736 32.1376 18.512 32.8236 18.442C33.4816 18.386 35.1616 17.826 35.1756 17.826C35.1756 17.826 35.9316 17.462 36.0296 17.42C36.2396 17.322 36.3096 17.238 36.2956 17.196C36.2956 17.14 36.1976 17.098 36.1696 17.098C36.0856 17.098 35.3716 17.308 34.7416 17.504C34.6996 17.504 34.6576 17.504 34.6296 17.448C34.6156 17.406 34.6296 17.364 34.6856 17.336C35.3716 17.084 36.4216 16.678 36.5056 16.636C36.7156 16.524 36.7156 16.454 36.7156 16.454C36.7156 16.426 36.5896 16.384 36.4636 16.398C36.3656 16.412 35.3436 16.776 34.7136 17.014C34.6716 17.028 34.6296 17.014 34.6016 16.972C34.5876 16.93 34.6016 16.888 34.6436 16.86C35.1336 16.636 36.4496 16.034 36.5896 15.95C36.7716 15.838 36.7856 15.768 36.7856 15.754C36.7716 15.712 36.5896 15.684 36.4636 15.712C36.2676 15.768 35.5116 16.02 35.2876 16.09C34.9656 16.258 34.6716 16.398 34.5596 16.454C34.5176 16.468 34.4616 16.454 34.4476 16.412C34.4336 16.37 34.4476 16.314 34.4896 16.3L35.1756 15.95C35.1756 15.95 35.2036 15.95 35.2316 15.936C35.6796 15.698 36.0996 15.46 36.1696 15.362C36.2256 15.264 36.2256 15.236 36.2256 15.236C36.1696 15.194 35.7916 15.278 35.4416 15.418L34.2796 15.936C34.1396 16.006 33.9856 16.062 33.8316 16.09L33.0336 16.23C33.0336 16.23 32.9636 16.23 32.9496 16.188C32.9356 16.146 32.9356 16.118 32.9496 16.09C32.9496 16.09 33.3416 15.516 33.5096 15.25C33.7196 14.9 33.6636 14.816 33.6636 14.816C33.6496 14.788 33.5376 14.816 33.4396 14.844C33.4396 14.844 33.0056 15.138 32.7396 15.614C32.7396 15.628 32.7256 15.642 32.6976 15.642C31.7316 16.118 31.5496 17.21 31.5496 17.224C31.5496 17.252 31.5216 17.28 31.4936 17.294C31.4656 17.294 28.7076 18.54 27.4616 19.002C27.4336 19.002 27.3916 19.002 27.3636 18.974C26.7196 18.274 26.1176 18.204 26.1176 18.204C26.1036 18.204 26.0756 18.204 26.0616 18.176L25.5016 17.56C25.5016 17.56 23.7376 15.292 23.0096 14.564C22.5476 14.102 22.1276 13.934 21.7636 13.794C21.5536 13.71 21.3436 13.626 21.1616 13.5C20.8396 13.29 20.6576 13.346 20.5876 13.388C20.6716 13.528 20.8536 13.892 20.8956 14.438C20.9516 15.152 20.1676 15.894 20.1396 15.922L19.9576 16.034C20.0836 16.3 20.5176 17.21 20.5176 18.078C20.5176 18.12 20.4756 18.162 20.4336 18.162C20.3916 18.162 20.3496 18.12 20.3496 18.078C20.3496 17.126 19.7756 16.062 19.7616 16.048C19.7336 16.006 19.7616 15.964 19.7896 15.936L20.0276 15.796C20.0276 15.796 20.7696 15.082 20.7276 14.466C20.6716 13.822 20.4056 13.43 20.4056 13.43C20.3776 13.402 20.3916 13.36 20.4056 13.332C20.4056 13.318 20.6856 12.996 21.2596 13.374C21.4276 13.486 21.6236 13.57 21.8336 13.654C22.2256 13.808 22.6596 13.976 23.1356 14.466C23.8636 15.194 25.6136 17.448 25.6276 17.476L26.1736 18.064C26.3136 18.092 26.8596 18.218 27.4616 18.834C28.6236 18.4 31.0456 17.322 31.3816 17.182C31.4236 16.958 31.6616 16.006 32.5856 15.53C32.8796 15.026 33.3136 14.732 33.3416 14.718C33.3976 14.69 33.6496 14.592 33.7616 14.718C33.8596 14.83 33.8176 15.026 33.6216 15.348C33.5096 15.53 33.2996 15.838 33.1736 16.034L33.7756 15.922C33.9156 15.894 34.0556 15.852 34.1816 15.782L35.3436 15.264C35.6516 15.138 36.1976 14.97 36.3376 15.138C36.4216 15.25 36.3236 15.404 36.2816 15.46C36.2396 15.516 36.1556 15.586 36.0296 15.67C36.1976 15.614 36.3516 15.572 36.4216 15.544C36.5756 15.502 36.8696 15.516 36.9396 15.67C36.9956 15.796 36.9116 15.922 36.6876 16.076C36.6456 16.104 36.5336 16.16 36.3796 16.23C36.4076 16.23 36.4216 16.23 36.4356 16.216C36.5896 16.188 36.8136 16.23 36.8696 16.384C36.9116 16.51 36.8136 16.636 36.5896 16.762C36.5616 16.776 36.4216 16.832 36.2256 16.916C36.3236 16.944 36.4356 17.028 36.4636 17.14C36.4916 17.252 36.4356 17.406 36.0996 17.56C36.0016 17.602 35.2316 17.966 35.2316 17.966C35.1476 17.994 33.5096 18.54 32.8236 18.596C32.1796 18.652 31.7876 18.862 31.7876 18.862C31.7876 18.862 30.0236 20.276 28.9036 20.906C27.7836 21.522 26.6216 21.746 25.9076 21.746H25.9496Z" fill="#081017"/>
<path d="M8.24007 39.288C8.24007 39.288 7.12007 39.694 6.77007 39.946C6.68607 40.002 6.49007 40.058 6.40607 40.114C6.15407 40.31 5.93007 40.534 5.88807 40.814C5.84607 41.192 5.70607 41.444 6.30807 42.48C6.64407 43.068 6.86807 44.538 7.00807 44.846C7.21807 45.266 7.54007 45.952 8.60407 45.994C9.66807 46.036 10.0461 45.616 10.0881 45.308C10.1721 44.622 9.58407 43.866 9.36007 43.656C9.36007 43.278 9.31807 42.172 9.31807 42.172C9.31807 42.172 9.48607 41.822 9.44407 41.472C9.40207 41.122 9.44407 40.856 9.44407 40.856" fill="white"/>
<path d="M8.77041 46.0919C8.77041 46.0919 8.67241 46.0919 8.61641 46.0919C7.52441 46.0499 7.17441 45.3499 6.96441 44.9159V44.8879C6.89441 44.7619 6.82441 44.4819 6.74041 44.1179C6.61441 43.5719 6.4464 42.8859 6.25041 42.5359C5.70441 41.5979 5.76041 41.2759 5.80241 40.9399C5.80241 40.8979 5.80241 40.8559 5.81641 40.8139C5.85841 40.4919 6.0964 40.2539 6.3624 40.0579C6.4184 40.0159 6.48841 39.9879 6.57241 39.9599C6.62841 39.9319 6.69841 39.9039 6.72641 39.8899C7.07641 39.6239 8.16841 39.2319 8.21041 39.2179C8.25241 39.2039 8.30841 39.2179 8.32241 39.2739C8.33641 39.3159 8.32241 39.3719 8.26641 39.3859C8.26641 39.3859 7.1464 39.7919 6.8244 40.0299C6.7684 40.0719 6.69841 40.0999 6.62841 40.1279C6.57241 40.1559 6.50241 40.1839 6.46041 40.1979C6.22241 40.3799 6.01241 40.5759 5.98441 40.8419C5.98441 40.8839 5.98441 40.9259 5.97041 40.9679C5.92841 41.2759 5.88641 41.5699 6.39041 42.4519C6.60041 42.8159 6.76841 43.5159 6.89441 44.0759C6.9784 44.4119 7.04841 44.7059 7.09041 44.8179V44.8459C7.31441 45.2519 7.62241 45.8819 8.61641 45.9239C9.65241 45.9659 9.98841 45.5599 10.0164 45.3219C10.1004 44.6779 9.52641 43.9499 9.31641 43.7399C9.30241 43.7259 9.2884 43.6979 9.2884 43.6839C9.2884 43.3059 9.24641 42.2139 9.24641 42.1999C9.24641 42.1999 9.24641 42.1719 9.24641 42.1579C9.24641 42.1579 9.40041 41.8219 9.35841 41.5139C9.31641 41.1639 9.35841 40.8839 9.35841 40.8699C9.35841 40.8279 9.4144 40.7859 9.4564 40.7999C9.4984 40.7999 9.54041 40.8559 9.52641 40.8979C9.52641 40.8979 9.48441 41.1779 9.52641 41.4999C9.56841 41.8219 9.4424 42.1439 9.4004 42.2279C9.4004 42.3679 9.44241 43.2919 9.44241 43.6699C9.69441 43.9359 10.2544 44.6779 10.1704 45.3779C10.1284 45.7279 9.72241 46.1339 8.74241 46.1339L8.77041 46.0919Z" fill="#081017"/>
<path d="M8.89795 19.7019C8.89795 19.7019 7.42795 21.4239 6.71395 22.4179C5.99995 23.4119 5.41195 24.3219 5.04795 24.4899C4.68395 24.6579 3.32595 24.8539 3.03195 24.9939C2.73795 25.1339 1.84195 25.5679 1.79995 25.8759C1.74395 26.2259 2.28995 25.9319 2.28995 25.9319C2.28995 25.9319 3.43795 25.3579 3.66195 25.3299C2.27595 26.2119 1.92595 26.5199 1.75795 26.7159C1.51995 26.9679 1.79995 27.3319 2.06595 27.1359C2.33195 26.9399 3.01795 26.4639 3.85795 26.0159C2.80795 26.6319 1.91195 27.3179 2.00995 27.4719C2.28995 27.8919 2.70995 27.5139 2.96195 27.3319C3.25595 27.1079 4.82395 26.3659 4.99195 26.4499C5.01995 26.5619 4.59995 27.2199 4.57195 27.3879C4.54395 27.5559 4.38995 28.0459 4.65595 28.0459C4.86595 28.0459 5.53795 27.1919 5.90195 26.4079C6.26595 25.6239 6.40595 25.1619 6.40595 25.1619L10.368 21.1159" fill="white"/>
<path d="M4.62691 28.116C4.54291 28.116 4.48691 28.074 4.45891 28.046C4.34691 27.92 4.40291 27.654 4.45891 27.458C4.45891 27.416 4.47292 27.388 4.47292 27.36C4.48692 27.276 4.55691 27.122 4.68291 26.898C4.73891 26.786 4.83692 26.618 4.87892 26.52C4.54292 26.59 3.26891 27.192 3.00291 27.388L2.96092 27.416C2.76492 27.57 2.51291 27.766 2.24691 27.724C2.12091 27.71 2.00891 27.626 1.92491 27.5C1.91091 27.472 1.89692 27.444 1.91092 27.388C1.91092 27.346 1.95291 27.304 1.99491 27.248C1.86891 27.29 1.75691 27.248 1.67291 27.164C1.56091 27.038 1.53291 26.828 1.67291 26.646C1.81291 26.492 2.06491 26.268 2.83491 25.75C2.65291 25.834 2.45691 25.932 2.30291 26.002C2.21891 26.044 1.91091 26.184 1.75691 26.086C1.71491 26.058 1.65892 25.988 1.68692 25.862C1.72892 25.568 2.33091 25.232 2.91891 24.938L2.96092 24.91C3.11492 24.84 3.47891 24.756 3.91291 24.672C4.31891 24.588 4.79491 24.49 4.96291 24.406C5.25691 24.266 5.73291 23.594 6.27891 22.81C6.37691 22.67 6.48891 22.516 6.60091 22.362C7.30091 21.382 8.77092 19.66 8.78492 19.632C8.81292 19.59 8.86892 19.59 8.91092 19.632C8.95292 19.66 8.95292 19.716 8.91092 19.758C8.89692 19.772 7.42692 21.494 6.74092 22.474C6.62892 22.628 6.53091 22.782 6.41891 22.922C5.83091 23.762 5.36891 24.42 5.03291 24.574C4.83691 24.672 4.37491 24.756 3.94091 24.854C3.54891 24.938 3.15692 25.022 3.03092 25.078L2.98891 25.106C2.26091 25.47 1.88292 25.736 1.85492 25.904C1.85492 25.946 1.85492 25.96 1.85492 25.974C1.89692 26.002 2.09291 25.946 2.21891 25.876C2.34491 25.82 3.38091 25.288 3.61891 25.26C3.66091 25.26 3.68891 25.274 3.70291 25.316C3.70291 25.358 3.70291 25.4 3.67491 25.414C2.31691 26.282 1.95291 26.59 1.78491 26.772C1.68691 26.884 1.71491 26.996 1.77091 27.066C1.78491 27.094 1.86891 27.15 1.96691 27.066C2.24691 26.842 2.96091 26.366 3.77292 25.946C3.81491 25.918 3.85691 25.946 3.88491 25.974C3.91291 26.016 3.88491 26.058 3.85691 26.086C2.75091 26.744 2.09291 27.29 2.05091 27.43C2.10691 27.514 2.17691 27.556 2.24691 27.57C2.42891 27.598 2.66691 27.416 2.82091 27.29L2.86291 27.262C3.08691 27.08 4.73891 26.24 4.99092 26.366C5.01891 26.366 5.03291 26.394 5.03291 26.422C5.06091 26.506 4.97691 26.646 4.80891 26.982C4.72491 27.136 4.62691 27.332 4.61291 27.388C4.61291 27.416 4.61292 27.444 4.58491 27.486C4.55692 27.612 4.50091 27.85 4.55691 27.92C4.55691 27.92 4.55692 27.934 4.59892 27.92C4.73892 27.92 5.39691 27.15 5.77491 26.324C6.13891 25.54 6.27891 25.092 6.27891 25.092C6.27891 25.092 6.27892 25.064 6.29292 25.064L10.2549 21.018C10.2549 21.018 10.3389 20.99 10.3809 21.018C10.4089 21.046 10.4089 21.102 10.3809 21.144L6.43291 25.176C6.40491 25.274 6.25092 25.708 5.92892 26.408C5.59292 27.136 4.89291 28.088 4.61291 28.102L4.62691 28.116Z" fill="#081017"/>
<path d="M14.4695 22.39C14.4695 22.39 11.4595 25.876 12.6495 28.368C13.8395 30.86 17.5215 36.18 17.5215 36.18C17.5215 36.18 17.6895 36.922 17.7455 37.538C17.8015 38.154 18.9355 42.354 19.3275 43.544C19.7195 44.734 19.9855 45.28 19.9855 45.28C19.9855 45.28 19.7755 45.644 20.1115 46.036C20.4475 46.428 20.5595 46.19 20.5595 46.19C20.5595 46.19 21.1895 45.42 21.8055 45.238C22.5895 45.028 23.1215 45.07 23.1215 45.07C23.1215 45.07 23.4575 44.734 23.2335 44.384C23.0095 44.034 21.3715 35.102 21.3715 35.102C21.3715 35.102 19.6215 30.454 19.2715 29.782C18.9215 29.11 18.3615 27.458 17.6335 26.954" fill="white"/>
<path d="M20.4607 46.344C20.3487 46.344 20.2227 46.26 20.0687 46.092C19.7607 45.728 19.8587 45.392 19.9147 45.28C19.8447 45.14 19.6067 44.594 19.2707 43.572C18.8787 42.41 17.7447 38.21 17.6747 37.552C17.6187 36.992 17.4787 36.334 17.4507 36.222C17.2407 35.914 13.7267 30.818 12.5787 28.41C12.0747 27.36 12.2427 25.988 13.0407 24.406C13.6427 23.23 14.3987 22.348 14.4127 22.334C14.4407 22.292 14.4967 22.292 14.5387 22.334C14.5807 22.362 14.5807 22.418 14.5387 22.46C14.5107 22.488 11.5847 25.932 12.7327 28.354C13.9087 30.818 17.5627 36.11 17.5907 36.152C17.5907 36.152 17.5907 36.166 17.5907 36.18C17.5907 36.18 17.7587 36.922 17.8147 37.552C17.8707 38.14 18.9767 42.298 19.3967 43.53C19.7887 44.692 20.0547 45.252 20.0547 45.252C20.0547 45.28 20.0547 45.308 20.0547 45.336C20.0547 45.336 19.8867 45.644 20.1807 45.994C20.3487 46.19 20.4327 46.19 20.4467 46.19C20.4747 46.19 20.4747 46.176 20.4747 46.162C20.4747 46.162 20.4747 46.162 20.4747 46.148C20.5027 46.12 21.1327 45.35 21.7627 45.168C22.4347 44.986 22.9247 44.986 23.0647 45C23.1347 44.916 23.3027 44.692 23.1487 44.454C22.9247 44.104 21.4407 36.054 21.2727 35.13C21.2727 35.102 19.5227 30.496 19.1867 29.824C19.1027 29.67 19.0187 29.474 18.9207 29.236C18.5847 28.466 18.1227 27.402 17.5767 27.024C17.5347 26.996 17.5347 26.94 17.5487 26.912C17.5767 26.87 17.6327 26.87 17.6607 26.884C18.2487 27.29 18.7247 28.382 19.0747 29.166C19.1727 29.39 19.2567 29.6 19.3407 29.74C19.6767 30.412 21.3707 34.878 21.4407 35.074C22.0987 38.672 23.1347 44.09 23.3027 44.342C23.5127 44.65 23.3027 45 23.1767 45.126C23.1627 45.14 23.1347 45.154 23.1067 45.154C23.1067 45.154 22.5747 45.112 21.8187 45.322C21.2727 45.476 20.6847 46.162 20.6287 46.232C20.6147 46.26 20.5727 46.33 20.4747 46.344H20.4467H20.4607Z" fill="#081017"/>
<path d="M18.7098 24.182C17.5198 23.79 17.4638 23.496 16.5118 23.202C15.5598 22.908 14.0198 22.46 14.2438 21.62C14.5798 21.004 14.7478 20.486 14.5238 19.408L14.2998 18.33L12.2558 20.08C12.2558 20.08 11.4578 21.214 11.1778 21.214C10.8978 21.214 10.1278 21.326 9.39976 20.472C8.82576 19.8 8.68576 19.114 8.86776 18.778C9.04976 18.442 9.94576 17.924 9.94576 17.924C9.94576 17.924 10.0018 17.896 10.0858 17.868C10.1838 17.826 10.3378 17.756 10.4638 17.7C10.6878 17.588 13.7538 14.466 13.7538 14.466C13.7538 14.466 14.2018 14.018 15.1118 13.78C16.0218 13.542 17.2118 13.038 17.3798 12.926L17.5478 12.814C17.5478 12.814 18.0518 14.172 18.6258 14.802C19.1998 15.432 20.1098 16.23 20.2078 16.552C21.3978 20.248 20.0398 21.816 20.0398 21.816C20.0398 21.816 20.0958 23.804 18.7378 24.154L18.7098 24.182Z" fill="white"/>
<path d="M18.7107 24.28C18.7107 24.28 18.6967 24.28 18.6827 24.28C18.0807 24.084 17.7587 23.902 17.4787 23.734C17.1987 23.58 16.9607 23.44 16.4847 23.3C15.5187 23.02 13.9087 22.544 14.1607 21.606C14.5247 20.934 14.6507 20.444 14.4407 19.436L14.2447 18.498L12.3127 20.164C12.1307 20.416 11.4867 21.312 11.1787 21.312C11.1507 21.312 11.1227 21.312 11.0947 21.312C10.7447 21.312 10.0307 21.34 9.33068 20.542C8.70068 19.814 8.60268 19.1 8.78468 18.75C8.96668 18.386 9.86268 17.882 9.89068 17.868C9.89068 17.868 9.96068 17.84 10.0307 17.812C10.1287 17.77 10.2687 17.714 10.3947 17.644C10.5627 17.56 12.4387 15.67 13.6567 14.438C13.6707 14.424 14.1327 13.962 15.0567 13.738C15.9527 13.514 17.1427 13.01 17.2967 12.898L17.4647 12.786C17.4647 12.786 17.5067 12.772 17.5347 12.786C17.5627 12.786 17.5767 12.814 17.5907 12.842C17.5907 12.842 18.0947 14.2 18.6547 14.802C18.8367 15.012 19.0747 15.236 19.2847 15.46C19.7607 15.936 20.1807 16.356 20.2507 16.594C21.3707 20.08 20.2507 21.69 20.0827 21.914C20.0827 22.18 20.0407 23.972 18.7107 24.294C18.7107 24.294 18.7107 24.294 18.6967 24.294L18.7107 24.28ZM14.3007 18.26C14.3007 18.26 14.3147 18.26 14.3287 18.26C14.3567 18.26 14.3847 18.288 14.3847 18.316L14.6087 19.394C14.8327 20.444 14.6787 20.99 14.3147 21.662C14.1187 22.418 15.6307 22.866 16.5267 23.132C17.0167 23.272 17.2687 23.426 17.5487 23.58C17.8287 23.734 18.1227 23.902 18.7107 24.098C19.9567 23.762 19.9287 21.872 19.9287 21.858C19.9287 21.844 19.9287 21.816 19.9427 21.802C19.9427 21.788 21.2447 20.22 20.0967 16.622C20.0267 16.426 19.5927 15.978 19.1727 15.558C18.9487 15.334 18.7247 15.11 18.5287 14.9C18.0387 14.368 17.6047 13.318 17.4787 12.996L17.3947 13.052C17.1987 13.178 15.9947 13.696 15.0987 13.92C14.2307 14.144 13.7827 14.578 13.7827 14.578C13.4747 14.9 10.7027 17.7 10.4787 17.826C10.3527 17.896 10.2127 17.952 10.1007 17.994C10.0167 18.036 9.96068 18.05 9.96068 18.05C9.72268 18.19 9.06468 18.596 8.92468 18.862C8.77068 19.17 8.89668 19.828 9.45668 20.472C10.1007 21.214 10.7587 21.186 11.0807 21.186C11.1227 21.186 11.1507 21.186 11.1787 21.186C11.3327 21.186 11.8227 20.612 12.1867 20.094L14.2447 18.316C14.2447 18.316 14.2867 18.302 14.3007 18.302V18.26Z" fill="#081017"/>
<path d="M11.8509 20.0939C11.8509 20.0939 9.94686 19.9539 10.2969 18.0779L11.8509 20.0939Z" fill="white"/>
<path d="M11.8513 20.1779C11.8093 20.1779 10.9693 20.1079 10.4793 19.4919C10.1993 19.1279 10.1013 18.6519 10.2133 18.0779C10.2133 18.0359 10.2693 18.0079 10.3113 18.0079C10.3533 18.0079 10.3813 18.0639 10.3813 18.1059C10.2833 18.6379 10.3673 19.0579 10.6193 19.3939C11.0533 19.9539 11.8513 20.0239 11.8653 20.0239C11.9073 20.0239 11.9493 20.0659 11.9493 20.1079C11.9493 20.1499 11.9073 20.1919 11.8653 20.1919L11.8513 20.1779Z" fill="#081017"/>
<path d="M23.1891 44.216C23.1891 44.216 20.8371 43.586 20.0391 45.224L23.1891 44.216Z" fill="white"/>
<path d="M20.0385 45.308C20.0385 45.308 20.0105 45.308 19.9965 45.308C19.9545 45.294 19.9405 45.238 19.9545 45.196C20.7805 43.516 23.1885 44.146 23.2025 44.146C23.2445 44.146 23.2725 44.202 23.2585 44.244C23.2585 44.286 23.2025 44.314 23.1605 44.3C23.1325 44.3 20.8785 43.712 20.1085 45.266C20.0945 45.294 20.0665 45.308 20.0385 45.308Z" fill="#081017"/>
<path d="M10.0586 40.954C9.52662 40.954 9.09262 40.8 8.77062 40.478C8.15462 39.89 8.14062 38.98 8.14062 38.952C8.14062 38.77 8.30862 38.616 8.70062 38.308C9.07862 37.986 9.66662 37.51 10.5066 36.642C12.0046 35.102 13.1386 34.388 13.3346 34.262L14.2166 31.28C14.2166 31.28 14.2726 31.21 14.3286 31.224C14.3706 31.224 14.3986 31.28 14.3846 31.336L13.5026 34.346C13.5026 34.346 13.4886 34.388 13.4606 34.402C13.4606 34.402 12.2566 35.102 10.6326 36.768C9.77862 37.636 9.20462 38.126 8.81262 38.448C8.49062 38.714 8.32263 38.854 8.32263 38.966C8.32263 38.966 8.32262 39.834 8.89662 40.38C9.20463 40.674 9.63862 40.814 10.1566 40.8C10.2266 40.73 10.3106 40.646 10.4086 40.562C10.7166 40.254 11.1366 39.834 11.9766 39.288C13.0686 38.574 14.8466 37.272 14.8606 37.258C14.8886 37.244 16.4986 36.236 16.8626 35.466C16.8766 35.424 16.9326 35.41 16.9746 35.424C17.0166 35.438 17.0306 35.494 17.0166 35.536C16.6246 36.362 15.0286 37.356 14.9586 37.398C14.9586 37.398 13.1666 38.714 12.0746 39.442C11.2486 39.974 10.8426 40.394 10.5346 40.702C10.4366 40.8 10.3386 40.898 10.2546 40.968C10.2406 40.968 10.2266 40.982 10.1986 40.982C10.1566 40.982 10.1146 40.982 10.0726 40.982L10.0586 40.954Z" fill="#081017"/>
<path d="M6.41916 40.1279C6.12516 40.4499 6.46116 41.2479 6.71316 41.8919C6.96516 42.5359 6.96516 43.4039 7.56716 44.4399C8.64516 46.3299 10.0592 45.1119 10.0592 45.1119" fill="white"/>
<path d="M9.02282 45.5739C8.95282 45.5739 8.86882 45.5739 8.78482 45.5599C8.28082 45.4759 7.84682 45.1119 7.48282 44.4819C7.09082 43.8099 6.95082 43.2079 6.83882 42.6759C6.76882 42.3959 6.71282 42.1439 6.62882 41.9199L6.60082 41.8639C6.33482 41.1779 6.02682 40.4079 6.34882 40.0719C6.37682 40.0439 6.43282 40.0299 6.47482 40.0719C6.50282 40.0999 6.51682 40.1559 6.47482 40.1979C6.22282 40.4639 6.53082 41.2479 6.76882 41.8219L6.79682 41.8779C6.89482 42.1159 6.95082 42.3819 7.02082 42.6619C7.13282 43.1799 7.27282 43.7679 7.65082 44.4259C7.98682 45.0139 8.39282 45.3499 8.84082 45.4199C9.47082 45.5319 10.0028 45.0839 10.0168 45.0839C10.0588 45.0559 10.1008 45.0559 10.1428 45.0839C10.1708 45.1259 10.1708 45.1679 10.1428 45.2099C10.1148 45.2239 9.66682 45.6159 9.06482 45.6159L9.02282 45.5739Z" fill="#081017"/>
<path d="M8.72794 41.444C8.65794 41.444 8.57394 41.444 8.48994 41.416H8.44794C8.18194 41.36 7.74794 41.29 7.56594 40.66C7.39794 40.044 7.83194 39.386 7.84594 39.358C7.87394 39.316 7.92994 39.302 7.95794 39.33C7.99994 39.358 8.01394 39.414 7.98594 39.442C7.98594 39.442 7.57994 40.072 7.73394 40.604C7.87394 41.136 8.22394 41.192 8.47594 41.234H8.53194C9.03594 41.332 9.31594 41.052 9.32994 41.038C9.35794 41.01 9.41394 40.996 9.45594 41.038C9.48394 41.066 9.49794 41.122 9.45594 41.164C9.45594 41.164 9.18994 41.444 8.74194 41.444H8.72794Z" fill="#081017"/>
<path d="M8.21094 41.892C8.21094 41.892 8.75694 42.312 9.35894 42.018L8.21094 41.892Z" fill="white"/>
<path d="M8.91061 42.2C8.49061 42.2 8.18261 41.962 8.15461 41.948C8.11261 41.92 8.11261 41.864 8.14061 41.836C8.16861 41.794 8.22461 41.794 8.25261 41.822C8.26661 41.836 8.77061 42.214 9.31661 41.934C9.35861 41.92 9.41461 41.934 9.42861 41.976C9.44261 42.018 9.42861 42.074 9.38661 42.088C9.21861 42.172 9.05061 42.2 8.89661 42.2H8.91061Z" fill="#081017"/>
<path d="M8.21094 42.634C8.21094 42.634 8.75694 43.054 9.35894 42.76L8.21094 42.634Z" fill="white"/>
<path d="M8.91061 42.956C8.49061 42.956 8.18261 42.718 8.15461 42.704C8.11261 42.676 8.11261 42.62 8.14061 42.592C8.16861 42.55 8.22461 42.55 8.25261 42.578C8.26661 42.592 8.77061 42.97 9.31661 42.69C9.35861 42.676 9.41461 42.69 9.42861 42.732C9.44261 42.774 9.42861 42.83 9.38661 42.844C9.21861 42.928 9.05061 42.956 8.89661 42.956H8.91061Z" fill="#081017"/>
<path d="M8.23828 43.4039C8.23828 43.4039 8.78428 43.8239 9.38628 43.5299L8.23828 43.4039Z" fill="white"/>
<path d="M8.93795 43.7259C8.51795 43.7259 8.20995 43.4879 8.18195 43.4739C8.13995 43.4459 8.13995 43.3899 8.16795 43.3619C8.19595 43.3339 8.25195 43.3199 8.27995 43.3479C8.29395 43.3619 8.79795 43.7399 9.34395 43.4599C9.38595 43.4459 9.44195 43.4599 9.45595 43.5019C9.46995 43.5439 9.45595 43.5999 9.41395 43.6139C9.24595 43.6979 9.07795 43.7259 8.92395 43.7259H8.93795Z" fill="#081017"/>
<path d="M21.7186 50.1799C21.4106 50.1799 21.2426 49.9979 21.1586 49.8299C21.1026 49.7319 21.0886 49.5359 21.0606 49.2139C21.0466 48.9899 21.0186 48.7659 20.9766 48.5979C20.9206 48.3319 20.9766 47.5339 21.1166 47.3239C21.1446 47.2819 21.1586 47.2539 21.1866 47.2259L20.8086 45.8819C20.8086 45.8819 20.8086 45.7839 20.8646 45.7839C20.9066 45.7839 20.9626 45.7839 20.9626 45.8399L21.3546 47.2259C21.3546 47.2259 21.3546 47.2819 21.3546 47.2959C21.3546 47.2959 21.3406 47.3239 21.2986 47.3659C21.6346 47.7439 22.1386 47.3939 22.1526 47.3659C22.1526 47.3659 22.1666 47.3659 22.1806 47.3659C22.3346 47.3239 22.3626 47.1139 22.3906 46.8619C22.3906 46.7919 22.3906 46.7219 22.4186 46.6659C22.5586 46.0499 23.0766 45.9939 23.4126 45.9519H23.4826C23.7906 45.9099 24.0426 46.0079 24.5046 46.1899C24.5886 46.2179 24.6866 46.2599 24.7846 46.3019C25.2466 46.4839 25.3866 46.4559 25.6666 46.4279C25.7506 46.4139 25.8626 46.3999 25.9886 46.3859C26.4926 46.3439 27.4166 46.3439 27.8786 46.7919C28.0886 47.0019 28.1726 47.1419 28.1446 47.2679C28.1166 47.4079 27.9626 47.4779 27.7526 47.5479H27.7106C27.6126 47.6039 27.4866 47.6459 27.3326 47.7159C27.0806 47.8139 26.7446 47.9539 26.3106 48.1219C26.1706 48.1779 25.3726 48.5559 24.5326 48.9479C23.0206 49.6619 22.0126 50.1379 21.9006 50.1519C21.8306 50.1519 21.7746 50.1659 21.7046 50.1659L21.7186 50.1799ZM21.2146 47.5199C21.1446 47.7859 21.1026 48.3459 21.1446 48.5419C21.1866 48.7239 21.2006 48.9619 21.2286 49.1859C21.2426 49.4239 21.2706 49.6619 21.3126 49.7319C21.4246 49.9419 21.6066 50.0259 21.8726 49.9699C21.9846 49.9419 23.4126 49.2699 24.4626 48.7799C25.3446 48.3599 26.1146 47.9959 26.2546 47.9399C26.6886 47.7719 27.0246 47.6319 27.2766 47.5339C27.4306 47.4779 27.5566 47.4219 27.6546 47.3799H27.6966C27.8226 47.3099 27.9626 47.2539 27.9766 47.2119C27.9766 47.1839 27.9766 47.0999 27.7526 46.8899C27.3186 46.4699 26.3806 46.4979 25.9886 46.5259C25.8626 46.5259 25.7646 46.5539 25.6806 46.5679C25.4006 46.6099 25.2186 46.6379 24.7146 46.4419C24.6166 46.3999 24.5186 46.3579 24.4346 46.3299C23.9866 46.1479 23.7626 46.0639 23.5106 46.0919H23.4406C23.1046 46.1339 22.6986 46.1899 22.5866 46.6799C22.5866 46.7219 22.5726 46.7919 22.5586 46.8479C22.5306 47.0859 22.5026 47.4079 22.2366 47.4919C22.0266 47.6459 21.5506 47.8139 21.2146 47.4919V47.5199Z" fill="#081017"/>
<path d="M28.0048 47.0719C26.9268 47.0719 21.3828 49.9139 21.3828 49.9139L28.0048 47.0719Z" fill="white"/>
<path d="M21.3821 49.998C21.3821 49.998 21.3261 49.984 21.3121 49.956C21.2841 49.914 21.3121 49.858 21.3541 49.844C21.5781 49.732 26.9261 47.002 28.0181 47.002C28.0601 47.002 28.1021 47.044 28.1021 47.086C28.1021 47.128 28.0601 47.17 28.0181 47.17C26.9681 47.17 21.4941 49.97 21.4381 49.998C21.4381 49.998 21.4101 49.998 21.3961 49.998H21.3821Z" fill="#081017"/>
<path d="M21.6934 50.1519C21.6934 50.1519 21.6094 50.1099 21.6094 50.0679C21.6094 50.0259 21.6514 49.9839 21.6934 49.9839C23.5134 49.9559 24.3954 49.5779 25.5994 49.0599C25.9494 48.9059 26.2994 48.7659 26.7194 48.5979C27.5734 48.2619 27.8814 47.8979 27.9794 47.6459C28.0914 47.3799 27.9934 47.1979 27.9794 47.1839C27.9654 47.1419 27.9794 47.0859 28.0214 47.0719C28.0634 47.0579 28.1194 47.0719 28.1334 47.1139C28.1334 47.1139 28.2594 47.3659 28.1334 47.7019C27.9794 48.1219 27.5174 48.4719 26.7754 48.7519C26.3694 48.9059 26.0054 49.0599 25.6694 49.2139C24.4794 49.7179 23.5554 50.1239 21.6934 50.1519Z" fill="#081017"/>
<path d="M25.1502 46.554C25.1502 46.554 24.7302 46.89 24.6602 47.24L25.1502 46.554Z" fill="white"/>
<path d="M24.6582 47.3379C24.6582 47.3379 24.6582 47.3379 24.6442 47.3379C24.6022 47.3379 24.5742 47.2819 24.5742 47.2399C24.6442 46.8619 25.0782 46.5119 25.0922 46.4979C25.1342 46.4699 25.1762 46.4699 25.2042 46.4979C25.2322 46.5399 25.2322 46.5819 25.2042 46.6099C25.2042 46.6099 24.8122 46.9319 24.7422 47.2539C24.7422 47.2959 24.7002 47.3239 24.6582 47.3239V47.3379Z" fill="#081017"/>
<path d="M24.6902 46.3999C24.6902 46.3999 24.1582 46.8199 24.0742 47.2679L24.6902 46.3999Z" fill="white"/>
<path d="M24.0723 47.352C24.0723 47.352 24.0723 47.352 24.0583 47.352C24.0163 47.352 23.9883 47.296 23.9883 47.254C24.0723 46.778 24.6183 46.358 24.6323 46.33C24.6743 46.302 24.7163 46.302 24.7443 46.33C24.7723 46.372 24.7723 46.414 24.7443 46.442C24.7443 46.442 24.2403 46.848 24.1563 47.268C24.1563 47.31 24.1143 47.338 24.0723 47.338V47.352Z" fill="#081017"/>
<path d="M24.1707 46.2179C24.1707 46.2179 23.6387 46.6379 23.5547 47.0859L24.1707 46.2179Z" fill="white"/>
<path d="M23.5527 47.17C23.5527 47.17 23.5527 47.17 23.5387 47.17C23.4967 47.17 23.4688 47.114 23.4688 47.072C23.5527 46.596 24.0987 46.176 24.1127 46.148C24.1547 46.12 24.1967 46.12 24.2247 46.148C24.2527 46.19 24.2527 46.232 24.2247 46.26C24.2247 46.26 23.7207 46.666 23.6367 47.086C23.6367 47.128 23.5947 47.156 23.5527 47.156V47.17Z" fill="#081017"/>
<path d="M23.0235 46.176C23.0235 46.176 22.9535 46.148 22.9395 46.106L22.6875 45.098C22.6875 45.098 22.7015 45 22.7435 45C22.7855 45 22.8415 45.014 22.8415 45.056L23.0935 46.064C23.0935 46.064 23.0795 46.162 23.0375 46.162H23.0235V46.176Z" fill="#081017"/>
<path d="M22.8556 16.1039C22.8556 16.1039 23.3596 17.8819 22.8556 19.0299C22.3516 20.1779 21.6656 23.2159 20.6436 24.0139C20.6436 24.0139 19.0196 24.2659 18.7676 24.1819C18.6976 24.1539 20.5176 17.9659 20.5176 17.9659" fill="white"/>
<path d="M18.9201 24.2939C18.8361 24.2939 18.7661 24.2939 18.7241 24.2799C18.6121 24.2519 18.5701 24.2379 20.4181 17.9659C20.4181 17.9239 20.4741 17.8959 20.5301 17.9099C20.5721 17.9099 20.6001 17.9659 20.5861 18.0219C19.9281 20.2619 18.9621 23.6079 18.8501 24.1399C19.1441 24.1539 20.0401 24.0419 20.6001 23.9579C21.2861 23.3979 21.8321 21.7459 22.2661 20.4159C22.4481 19.8419 22.6161 19.3519 22.7701 19.0019C23.2601 17.8959 22.7701 16.1459 22.7701 16.1319C22.7701 16.0899 22.7701 16.0339 22.8261 16.0339C22.8681 16.0339 22.9241 16.0339 22.9241 16.0899C22.9521 16.1599 23.4421 17.9099 22.9241 19.0719C22.7701 19.4079 22.6161 19.8979 22.4201 20.4579C21.9721 21.8159 21.4121 23.4959 20.6701 24.0839C20.6701 24.0839 20.6421 24.0979 20.6281 24.0979C20.4881 24.1259 19.3821 24.2799 18.9061 24.2799L18.9201 24.2939Z" fill="#081017"/>
<path d="M20.3353 16.356C20.3353 16.356 20.2653 16.342 20.2513 16.3C20.2373 16.258 20.2513 16.202 20.2933 16.188C20.2933 16.188 20.9093 15.908 21.0353 15.334C21.0353 15.306 21.0493 15.292 21.0773 15.278C21.0913 15.278 21.1193 15.264 21.1473 15.278L21.6653 15.446C21.6653 15.124 21.6513 14.13 21.1893 13.458C21.1613 13.416 21.1753 13.36 21.2173 13.346C21.2593 13.318 21.3153 13.332 21.3293 13.374C21.9033 14.242 21.8333 15.53 21.8193 15.572C21.8193 15.6 21.8053 15.628 21.7773 15.642C21.7493 15.656 21.7353 15.656 21.7073 15.642L21.1753 15.474C20.9933 16.076 20.3913 16.342 20.3633 16.356H20.3353Z" fill="#081017"/>
<path d="M32.4453 17.3359C32.4453 17.3359 32.9913 16.9999 33.7193 17.2519L32.4453 17.3359Z" fill="white"/>
<path d="M32.4449 17.42C32.4449 17.42 32.3889 17.406 32.3749 17.378C32.3469 17.336 32.3749 17.28 32.4029 17.266C32.4309 17.252 32.9909 16.902 33.7469 17.168C33.7889 17.182 33.8169 17.238 33.8029 17.28C33.7889 17.322 33.7329 17.35 33.6909 17.336C33.0189 17.098 32.5009 17.406 32.4869 17.42C32.4869 17.42 32.4589 17.42 32.4449 17.42Z" fill="#081017"/>
<path d="M20.573 12.8699C19.355 12.8699 18.375 11.8759 18.375 10.6719C18.375 10.6299 18.417 10.5879 18.459 10.5879C18.501 10.5879 18.543 10.6299 18.543 10.6719C18.543 11.7919 19.453 12.7019 20.573 12.7019C21.693 12.7019 22.603 11.7919 22.603 10.6719C22.603 10.5039 22.575 10.3219 22.533 10.1679C22.533 10.1259 22.547 10.0699 22.589 10.0699C22.631 10.0699 22.687 10.0839 22.687 10.1259C22.729 10.3079 22.757 10.4899 22.757 10.6859C22.757 11.9039 21.763 12.8839 20.559 12.8839L20.573 12.8699Z" fill="#081017"/>
<path d="M20.5176 14.242C20.5176 14.242 20.4336 14.2 20.4336 14.158V12.856C20.4336 12.856 20.4756 12.772 20.5176 12.772C20.5596 12.772 20.6016 12.814 20.6016 12.856V14.158C20.6016 14.158 20.5596 14.242 20.5176 14.242Z" fill="#081017"/>
<path d="M18.1211 27.304C18.2051 27.024 18.7371 24.21 18.7371 24.21L18.1211 27.304Z" fill="white"/>
<path d="M18.1228 27.3879C18.1228 27.3879 18.1088 27.3879 18.0948 27.3879C18.0528 27.3879 18.0248 27.3319 18.0388 27.2759C18.1228 26.9959 18.6408 24.2099 18.6408 24.1819C18.6408 24.1399 18.6968 24.1119 18.7388 24.1119C18.7808 24.1119 18.8088 24.1679 18.8088 24.2099C18.7808 24.3219 18.2768 27.0239 18.1928 27.3179C18.1928 27.3599 18.1508 27.3739 18.1088 27.3739L18.1228 27.3879Z" fill="#081017"/>
<path d="M14.2984 18.428C14.2984 18.428 14.2564 18.428 14.2424 18.414C14.2004 18.386 14.2004 18.33 14.2424 18.288L14.7604 17.672C14.7604 17.672 14.8444 17.63 14.8864 17.672C14.9284 17.7 14.9284 17.756 14.8864 17.798L14.3684 18.414C14.3684 18.414 14.3264 18.442 14.2984 18.442V18.428Z" fill="#081017"/>
<path d="M10.5749 40.4219C8.83887 40.3379 8.79688 38.3779 8.79688 38.3779L10.5749 40.4219Z" fill="white"/>
<path d="M10.5746 40.5059C8.76856 40.4219 8.72656 38.4059 8.72656 38.3779C8.72656 38.3359 8.76856 38.2939 8.81056 38.2939C8.85256 38.2939 8.89456 38.3359 8.89456 38.3779C8.89456 38.4479 8.95056 40.2539 10.5886 40.3379C10.6306 40.3379 10.6726 40.3799 10.6726 40.4219C10.6726 40.4639 10.6306 40.5059 10.5886 40.5059H10.5746Z" fill="#081017"/>
<path d="M20.7134 11.8899C20.7134 11.8899 20.6994 11.8899 20.6854 11.8899C19.9154 11.6379 19.9574 10.9239 19.9574 10.9239C19.9574 10.8959 19.9574 10.8819 19.9854 10.8679C19.9994 10.8539 20.0274 10.8399 20.0554 10.8539L21.3714 11.0079C21.3714 11.0079 21.4554 11.0499 21.4414 11.1059C21.4414 11.1479 21.3994 11.1899 21.3434 11.1759L20.1254 11.0359C20.1394 11.2039 20.2374 11.5819 20.7414 11.7499C20.7834 11.7639 20.8114 11.8059 20.7974 11.8619C20.7974 11.9039 20.7554 11.9179 20.7134 11.9179V11.8899Z" fill="#081017"/>
<path d="M20.0811 9.748C20.1971 9.748 20.2911 9.65398 20.2911 9.538C20.2911 9.42202 20.1971 9.328 20.0811 9.328C19.9651 9.328 19.8711 9.42202 19.8711 9.538C19.8711 9.65398 19.9651 9.748 20.0811 9.748Z" fill="black"/>
<path d="M21.9561 9.66402C22.0721 9.66402 22.1661 9.57 22.1661 9.45402C22.1661 9.33804 22.0721 9.24402 21.9561 9.24402C21.8401 9.24402 21.7461 9.33804 21.7461 9.45402C21.7461 9.57 21.8401 9.66402 21.9561 9.66402Z" fill="black"/>
<path d="M21.411 10.5599C21.411 10.5599 21.369 10.5599 21.341 10.5319C21.187 10.3499 20.879 10.4759 20.879 10.4759C20.837 10.4899 20.781 10.4759 20.767 10.4339C20.753 10.3919 20.767 10.3359 20.809 10.3219C20.823 10.3219 21.229 10.1399 21.467 10.4199C21.495 10.4619 21.495 10.5039 21.467 10.5459C21.453 10.5459 21.439 10.5599 21.411 10.5599Z" fill="#081017"/>
<path d="M19.5227 9.27201H19.4947C19.4527 9.25801 19.4247 9.20201 19.4527 9.16001C19.5787 8.85201 20.0127 8.83801 20.0267 8.83801C20.0827 8.83801 20.1107 8.88001 20.1107 8.92201C20.1107 8.96401 20.0687 9.00601 20.0267 9.00601C20.0267 9.00601 19.6907 9.00601 19.6067 9.21601C19.6067 9.24401 19.5647 9.27201 19.5227 9.27201Z" fill="#081017"/>
<path d="M10.014 44.986V45.0699C10.014 45.0699 9.42603 45.448 8.97803 45.434C8.53003 45.42 8.22203 45.1819 8.04003 44.9999C7.85803 44.8179 7.34003 43.9779 7.28403 43.7399C7.22803 43.5019 6.83603 42.1439 6.83603 42.1439L6.37403 40.7579L6.33203 40.3239C6.33203 40.3239 6.76603 39.9459 6.69603 40.1699C6.59803 40.5199 7.08803 42.4659 7.27003 42.9139C7.45203 43.3619 7.52203 44.2859 8.41803 45.0559C8.93603 45.5039 10.028 44.986 10.028 44.986H10.014Z" fill="#E10098"/>
<path d="M17.8572 12.2959C17.8572 12.2959 17.8572 12.2959 17.8432 12.2959C17.8012 12.2959 17.7732 12.2399 17.7872 12.1979L18.0952 10.9379L17.7032 10.7979C17.3672 10.6719 17.1572 10.3079 17.2412 9.95791C17.3252 9.56591 17.6892 9.31391 18.0812 9.38391H18.1792C18.2772 9.10391 18.6972 8.08191 19.8312 8.08191H19.8592C20.3912 8.08191 20.9512 8.23591 21.3852 8.34791C21.7632 8.44591 22.1972 8.55791 22.2672 8.47391C22.2952 8.44591 22.2672 8.37591 22.2392 8.29191C22.2252 8.24991 22.2392 8.19391 22.2812 8.17991C22.3232 8.16591 22.3792 8.17991 22.3932 8.22191C22.4212 8.27791 22.4912 8.47391 22.3932 8.58591C22.2532 8.75391 21.8892 8.65591 21.3432 8.51591C20.9092 8.40391 20.3632 8.26391 19.8452 8.24991H19.8172C18.6272 8.24991 18.3192 9.45391 18.3052 9.50991C18.3052 9.55191 18.2492 9.57991 18.2072 9.57991L18.0392 9.55191C17.7452 9.50991 17.4512 9.69191 17.3952 9.99991C17.3392 10.2799 17.4932 10.5599 17.7592 10.6439L18.2212 10.8119C18.2212 10.8119 18.2912 10.8679 18.2772 10.9099L17.9552 12.2539C17.9552 12.2539 17.9132 12.3239 17.8712 12.3239L17.8572 12.2959Z" fill="#081017"/>
<path d="M21.3145 49.858C21.3145 49.858 22.7425 49.144 24.9405 48.108C27.1385 47.072 28.0345 47.002 28.0345 47.002C28.0345 47.002 27.9785 46.624 27.4465 46.638C26.9145 46.652 21.2305 49.452 21.2305 49.452L21.3145 49.844V49.858Z" fill="#E10098"/>
<g style="mix-blend-mode:multiply">
<path d="M22.4193 44.0199C22.7413 44.0199 22.9793 43.7399 22.9233 43.4179L21.4673 36.2219L21.2573 34.9479C21.2573 34.9479 21.2433 34.8779 21.2293 34.8359C21.2293 34.8359 20.3753 32.6659 19.6333 30.8319C19.0733 29.4739 18.5693 28.3119 18.5693 28.2979L18.0513 27.4439C17.5893 26.9119 17.4213 26.8979 17.3513 26.8559C16.9873 26.6739 16.2453 26.2959 15.7133 26.2959C15.3633 26.2959 19.3253 32.8899 19.7733 33.6319C19.8013 33.6739 19.8153 33.7299 19.8293 33.7859L21.9573 43.6139C21.9993 43.8379 22.2093 44.0059 22.4333 44.0059L22.4193 44.0199Z" fill="#E6E6E6"/>
</g>
<path d="M17.6326 26.954C16.8906 26.45 15.1406 26.1 15.1406 26.1L17.6326 26.954Z" fill="white"/>
<path d="M17.6307 27.038C17.6307 27.038 17.6027 27.038 17.5887 27.024C16.8747 26.534 15.1527 26.198 15.1247 26.184C15.0827 26.184 15.0547 26.128 15.0547 26.086C15.0547 26.044 15.1107 26.016 15.1527 26.016C15.2227 26.03 16.9307 26.366 17.6727 26.884C17.7147 26.912 17.7147 26.968 17.7007 26.996C17.6867 27.024 17.6587 27.038 17.6307 27.038Z" fill="#081017"/>
<path d="M10.6197 40.3379C10.6197 40.3379 12.8877 38.6579 13.5597 38.1679C14.2317 37.6779 15.7857 36.5999 15.7857 36.5999C15.7857 36.5999 16.5277 35.9559 16.7097 35.6759L16.8917 35.3819L16.0937 34.2479C16.0937 34.2479 15.3657 35.5919 14.6237 36.2219C13.8817 36.8519 9.59766 39.9459 9.59766 39.9459C9.59766 39.9459 10.0737 40.4499 10.6197 40.3239V40.3379Z" fill="#E6E6E6"/>
<path d="M19.7175 30.58C19.7175 30.58 20.1795 29.67 20.4035 28.718C20.6275 27.766 20.7675 27.01 20.7535 26.856C20.7395 26.702 21.0055 24.812 20.8795 24.294C20.5855 24.154 20.0675 24.392 19.9975 24.294C19.9275 24.196 19.9275 28.746 19.2695 29.516L19.7175 30.58Z" fill="#E6E6E6"/>
<path d="M17.0714 13.1639C17.0714 13.1639 16.9314 13.3879 17.0434 14.1859C17.1554 14.9839 17.4914 15.6839 17.4914 15.6839C17.4914 15.6839 17.9114 15.3759 18.3174 15.1799C18.5134 15.7119 19.3394 16.3699 19.3394 16.3699" fill="white"/>
<path d="M19.3401 16.44C19.3401 16.44 19.2981 16.44 19.2841 16.426C19.2561 16.398 18.5281 15.824 18.2761 15.292C17.9121 15.488 17.5481 15.754 17.5481 15.754C17.5341 15.768 17.5061 15.768 17.4781 15.754C17.4501 15.754 17.4361 15.726 17.4221 15.712C17.4081 15.684 17.0721 14.984 16.9601 14.186C16.8481 13.388 16.9741 13.136 16.9881 13.108C17.0161 13.066 17.0581 13.052 17.1001 13.08C17.1421 13.108 17.1561 13.15 17.1281 13.192C17.1281 13.192 17.0161 13.43 17.1281 14.158C17.2121 14.76 17.4361 15.32 17.5341 15.544C17.6741 15.446 17.9821 15.236 18.2761 15.082C18.3041 15.082 18.3181 15.082 18.3461 15.082C18.3741 15.082 18.3881 15.11 18.3881 15.138C18.5701 15.642 19.3681 16.286 19.3821 16.286C19.4241 16.314 19.4241 16.37 19.3821 16.398C19.3681 16.426 19.3401 16.426 19.3121 16.426L19.3401 16.44Z" fill="#081017"/>
</svg>
