<svg width="25" height="25" viewBox="0 0 25 25" fill="none" xmlns="http://www.w3.org/2000/svg">
<mask id="mask0_5247_171583" style="mask-type:alpha" maskUnits="userSpaceOnUse" x="0" y="0" width="25" height="25">
<rect x="0.5" y="0.5" width="24" height="24" fill="#D9D9D9"/>
</mask>
<g mask="url(#mask0_5247_171583)">
<mask id="mask1_5247_171583" style="mask-type:alpha" maskUnits="userSpaceOnUse" x="1" y="0" width="23" height="24">
<rect x="1.5" y="0.75" width="22.5" height="22.5" fill="#D9D9D9"/>
</mask>
<g mask="url(#mask1_5247_171583)">
<path d="M2.4375 14.8125C2.4375 13.1094 3.14844 11.7461 4.57031 10.7227C5.99219 9.69922 7.625 9.1875 9.46875 9.1875C11.3125 9.1875 12.9453 9.69922 14.3672 10.7227C15.7891 11.7461 16.5 13.1094 16.5 14.8125H2.4375ZM2.4375 18.5625V16.6875H16.5V18.5625H2.4375ZM3.375 22.3125C3.10938 22.3125 2.88672 22.2227 2.70703 22.043C2.52734 21.8633 2.4375 21.6406 2.4375 21.375V20.4375H16.5V21.375C16.5 21.6406 16.4102 21.8633 16.2305 22.043C16.0508 22.2227 15.8281 22.3125 15.5625 22.3125H3.375ZM18.375 22.3125V14.8125C18.375 13.0312 17.7656 11.4922 16.5469 10.1953C15.3281 8.89844 13.8359 8.03125 12.0703 7.59375L11.8125 5.4375H16.5V1.6875H18.375V5.4375H23.0625L21.5391 20.625C21.4922 21.1094 21.293 21.5117 20.9414 21.832C20.5898 22.1523 20.1719 22.3125 19.6875 22.3125H18.375Z" fill="#FD8755"/>
</g>
</g>
</svg>
