<svg width="25" height="25" viewBox="0 0 25 25" fill="none" xmlns="http://www.w3.org/2000/svg">
<mask id="mask0_5247_171568" style="mask-type:alpha" maskUnits="userSpaceOnUse" x="0" y="0" width="25" height="25">
<rect x="0.5" y="0.5" width="24" height="24" fill="#D9D9D9"/>
</mask>
<g mask="url(#mask0_5247_171568)">
<path d="M9.7 16.5L12.5 14.4L15.25 16.5L14.2 13.1L17 10.9H13.6L12.5 7.5L11.4 10.9H8L10.75 13.1L9.7 16.5ZM4.5 20.5C3.95 20.5 3.47917 20.3042 3.0875 19.9125C2.69583 19.5208 2.5 19.05 2.5 18.5V15.125C2.5 14.9417 2.55833 14.7833 2.675 14.65C2.79167 14.5167 2.94167 14.4333 3.125 14.4C3.525 14.2667 3.85417 14.025 4.1125 13.675C4.37083 13.325 4.5 12.9333 4.5 12.5C4.5 12.0667 4.37083 11.675 4.1125 11.325C3.85417 10.975 3.525 10.7333 3.125 10.6C2.94167 10.5667 2.79167 10.4833 2.675 10.35C2.55833 10.2167 2.5 10.0583 2.5 9.875V6.5C2.5 5.95 2.69583 5.47917 3.0875 5.0875C3.47917 4.69583 3.95 4.5 4.5 4.5H20.5C21.05 4.5 21.5208 4.69583 21.9125 5.0875C22.3042 5.47917 22.5 5.95 22.5 6.5V9.875C22.5 10.0583 22.4417 10.2167 22.325 10.35C22.2083 10.4833 22.0583 10.5667 21.875 10.6C21.475 10.7333 21.1458 10.975 20.8875 11.325C20.6292 11.675 20.5 12.0667 20.5 12.5C20.5 12.9333 20.6292 13.325 20.8875 13.675C21.1458 14.025 21.475 14.2667 21.875 14.4C22.0583 14.4333 22.2083 14.5167 22.325 14.65C22.4417 14.7833 22.5 14.9417 22.5 15.125V18.5C22.5 19.05 22.3042 19.5208 21.9125 19.9125C21.5208 20.3042 21.05 20.5 20.5 20.5H4.5Z" fill="#5BD37E"/>
</g>
</svg>
