<svg width="85" height="91" viewBox="0 0 85 91" fill="none" xmlns="http://www.w3.org/2000/svg">
<path d="M72.6527 36.4863C72.6359 36.3727 72.6161 36.262 72.5766 36.1534C72.5717 36.1415 72.5667 36.1297 72.5628 36.1178C72.3652 35.6496 72.1677 35.1814 71.9701 34.7132C71.9563 34.6845 71.9434 34.6569 71.9266 34.6302C71.6372 34.158 71.3024 33.6957 70.9003 33.3125C70.8914 33.3056 70.8826 33.2977 70.8727 33.2907C70.4756 32.9845 70.0795 32.6773 69.6824 32.3711C69.6587 32.3553 69.635 32.3385 69.6093 32.3247C69.5826 32.3109 69.556 32.297 69.5293 32.2832C69.4799 32.3306 69.4226 32.3711 69.3574 32.3988C67.1665 33.3154 64.7849 33.7402 62.4241 33.9002C60.3853 34.0385 58.3258 33.9654 56.3047 33.6523C56.2573 33.5742 56.1931 33.5061 56.1072 33.4616C55.8049 33.3016 55.4928 33.4034 55.3021 33.673C55.2676 33.7214 55.233 33.7708 55.1994 33.8192C55.1698 33.8498 55.1401 33.8795 55.1085 33.9081C55.0996 33.916 55.0898 33.9239 55.0809 33.9318C54.9406 34.0267 54.7954 34.1086 54.6453 34.1847C54.6057 34.0741 54.5366 33.9733 54.4477 33.9052C54.2225 33.7313 53.8797 33.7382 53.6752 33.9516C53.0608 34.5936 52.6519 35.3779 52.2775 36.1741C51.9061 36.9634 51.5199 37.7328 51.0369 38.4608C50.9193 38.6386 50.7978 38.8135 50.6724 38.9873C50.6101 39.0743 50.5469 39.1602 50.4827 39.2461C50.4531 39.2856 50.4234 39.3261 50.3928 39.3657C50.376 39.3884 50.3582 39.4111 50.3414 39.4338C50.3385 39.4378 50.2535 39.5464 50.3088 39.4763C50.3592 39.4121 50.3019 39.4852 50.2891 39.501C50.2713 39.5237 50.2535 39.5464 50.2367 39.5682C50.2061 39.6077 50.1745 39.6462 50.1439 39.6857C50.0728 39.7756 50.0007 39.8645 49.9286 39.9524C49.7883 40.1243 49.646 40.2942 49.5028 40.4631C48.9319 41.1358 48.3392 41.7887 47.7574 42.4515C47.2121 43.0728 46.4357 43.8552 46.4387 44.7145C46.4328 44.7165 46.4278 44.7175 46.4219 44.7195C46.3844 44.7294 46.3449 44.7353 46.3073 44.7442C46.3004 44.7442 46.2925 44.7462 46.2856 44.7462C46.2184 44.7511 46.1522 44.7481 46.086 44.7452C46.0722 44.7432 46.0584 44.7412 46.0475 44.7383C46.01 44.7294 45.9734 44.7155 45.9369 44.7057C45.9241 44.6997 45.9132 44.6958 45.9142 44.6958C45.8806 44.678 45.847 44.6592 45.8154 44.6375C45.8124 44.6355 45.8095 44.6335 45.8065 44.6316C45.7877 44.599 45.7245 44.5585 45.6998 44.5328C45.6791 44.5111 45.6593 44.4883 45.6396 44.4646C45.6317 44.4508 45.6168 44.436 45.6099 44.4251C45.5576 44.3501 45.5112 44.271 45.4657 44.192C45.3748 44.029 45.2938 43.8591 45.2168 43.6892C45.1773 43.6033 45.1397 43.5164 45.1022 43.4294C45.1002 43.4255 45.1002 43.4245 45.0992 43.4215C45.0973 43.4146 45.0953 43.4097 45.0943 43.4087C45.0746 43.3613 45.0558 43.3148 45.037 43.2674C44.9649 43.0847 44.8968 42.901 44.8325 42.7153C44.7041 42.3439 44.5915 41.9675 44.4898 41.5882C44.0798 40.065 43.8408 38.5023 43.4625 36.9713C43.3706 36.5998 43.2738 36.2284 43.1573 35.8639C43.019 35.4303 42.7957 35.0085 42.372 34.7932C41.9729 34.5907 41.5155 34.5383 41.076 34.4899C40.7075 34.4484 40.3361 34.4376 39.9657 34.4524C38.3596 34.5196 36.8137 35.048 35.3972 35.7859C34.7057 36.1465 34.0439 36.5603 33.4078 37.0108C33.0502 37.2646 32.6946 37.5264 32.3528 37.805C32.0002 38.0539 31.6554 38.3137 31.3215 38.5873C30.7338 39.0664 30.1767 39.5849 29.6542 40.1381C29.4023 40.3781 29.1731 40.6369 28.9647 40.9116C28.1369 41.8944 27.4138 42.9671 26.8222 44.1031C26.7016 44.3352 26.5871 44.5703 26.4764 44.8084C26.4152 44.8538 26.3599 44.9111 26.3164 44.9813C26.0872 45.3477 25.9154 45.7428 25.7504 46.1409C25.6743 46.3237 25.6022 46.5084 25.5291 46.6921C25.4995 46.7662 25.4738 46.8956 25.4215 46.9568C25.4521 46.8837 25.4551 46.8778 25.4294 46.9381C25.4205 46.9578 25.4116 46.9786 25.4027 46.9983C25.382 47.0457 25.3612 47.0922 25.3395 47.1386C25.1775 47.4902 24.9898 47.829 24.7764 48.1521C24.729 48.2242 24.6806 48.2943 24.6312 48.3644C24.5977 48.4109 24.5641 48.4573 24.5305 48.5037C24.5275 48.5086 24.5196 48.5185 24.5127 48.5294C24.4001 48.6884 24.2618 48.8366 24.1304 48.9798C24.0346 49.0855 23.9763 49.2238 23.9645 49.3641C23.8361 49.4303 23.7077 49.4955 23.5802 49.5616C23.3066 49.7029 23.2029 50.1089 23.3688 50.3667C23.5486 50.6452 23.8805 50.7292 24.1739 50.5781C24.9177 50.1928 25.6635 49.8076 26.431 49.4727C26.4814 49.451 26.5308 49.4273 26.5821 49.4075C26.5653 49.4145 26.5555 49.4174 26.5485 49.4204C26.5643 49.4145 26.593 49.4026 26.6147 49.3937C26.7155 49.3522 26.8172 49.3107 26.9199 49.2712C27.1175 49.1942 27.317 49.1221 27.5166 49.0529C27.9097 48.9156 28.3058 48.7872 28.694 48.6361C29.4931 48.3259 30.2251 47.9021 30.9669 47.4764C31.1655 47.3628 31.365 47.2512 31.5665 47.1445C31.7127 47.1465 31.8589 47.1494 32.0051 47.1583C32.0673 47.1623 32.1296 47.1662 32.1918 47.1732C32.1947 47.1732 32.1987 47.1732 32.2036 47.1741C32.2234 47.1771 32.2866 47.185 32.2896 47.186C32.4219 47.2087 32.5523 47.2423 32.6807 47.2838C32.741 47.3035 32.8013 47.3263 32.8605 47.349C32.8605 47.349 32.8625 47.349 32.8645 47.35C32.8536 47.346 32.9435 47.3826 32.9563 47.3885C33.0798 47.4428 33.2023 47.5011 33.3258 47.5564C33.4897 47.6295 33.6557 47.7016 33.8246 47.7619C33.9748 47.8725 34.1595 47.9318 34.3432 47.9219C34.3886 47.993 34.4519 48.0513 34.5348 48.0878C36.2862 48.8534 38.0484 49.5932 39.8225 50.3044C41.5639 51.0028 43.3163 51.6755 45.0785 52.3195C45.523 52.4825 45.9675 52.6426 46.413 52.8016C46.6204 52.8757 46.8269 52.9488 47.0343 53.0238C47.0462 53.0288 47.059 53.0337 47.0679 53.0387C47.1104 53.0594 47.1519 53.0811 47.1914 53.1058C47.1934 53.1068 47.2023 53.1118 47.2131 53.1187C47.2141 53.1197 47.2141 53.1206 47.2161 53.1216C47.2309 53.1394 47.2497 53.1582 47.2674 53.174C47.3702 53.3409 47.4452 53.5207 47.5213 53.7015C47.5253 53.7113 47.5302 53.7222 47.5341 53.7321C47.5371 53.739 47.5401 53.7459 47.5421 53.7499C47.5628 53.7993 47.5835 53.8486 47.6033 53.898C47.6468 54.0047 47.6892 54.1114 47.7297 54.2181C47.7692 54.3208 47.8068 54.4245 47.8423 54.5282C47.79 54.6191 47.7663 54.7179 47.7505 54.8345C47.5944 56.006 47.5944 57.1933 47.7357 58.3638C47.7317 58.8627 47.7287 59.3615 47.7218 59.8603C47.7218 59.9147 47.7199 59.968 47.7199 60.0223C47.709 60.0717 47.6991 60.1211 47.6882 60.1695C47.6556 61.4388 47.5747 62.7071 47.4067 63.9676C46.9978 67.0307 46.0139 69.921 44.4621 72.5939C43.177 74.8086 41.64 76.9382 39.7859 78.7232C41.157 78.7331 42.4994 78.9889 43.8615 79.1637C43.9337 79.1134 44.0255 79.0817 44.1371 79.0817C45.7937 79.0778 47.4482 78.9277 49.1038 78.9435C50.2931 78.9553 51.4804 79.0235 52.6687 79.0442C52.9966 79.0195 53.3256 79.0057 53.6535 79.0116C53.6812 79.0195 53.7088 79.0264 53.7365 79.0353C53.7444 79.0393 53.7533 79.0432 53.7612 79.0462C53.8195 79.0462 53.8777 79.0462 53.937 79.0442C55.5471 79.0087 57.1572 78.901 58.7653 78.821C60.0001 78.7597 61.2694 78.658 62.4913 78.896C63.08 78.8901 63.6677 78.8634 64.2545 78.817C64.4392 78.896 64.6723 78.8783 64.8343 78.7637C64.856 78.7617 64.8778 78.7597 64.9005 78.7568C65.0536 78.741 65.2067 78.7044 65.3164 78.5849C65.4141 78.4782 65.508 78.3192 65.4882 78.169C65.3213 76.8721 65.0338 75.5998 64.5963 74.366C64.5933 74.3591 64.5903 74.3522 64.5874 74.3453C64.5765 74.1033 64.5627 73.8623 64.5419 73.6203C64.4836 72.9584 64.3928 72.2996 64.29 71.6437C64.0945 70.3981 63.8594 69.1584 63.6381 67.9177C63.4149 66.6672 63.1926 65.4157 62.9694 64.1651C62.7787 63.0973 62.5891 62.0295 62.3984 60.9607C62.3658 60.6199 62.3095 60.2821 62.2186 59.9522C62.2009 59.889 62.1712 59.8297 62.1337 59.7764C62.1386 59.7467 62.1446 59.7171 62.1495 59.6875C62.2216 59.2894 62.3105 58.8943 62.4182 58.5041C62.4695 58.3174 62.4162 58.108 62.2927 57.9598C62.513 57.0925 62.7372 56.2263 62.9674 55.3609C62.8785 55.2582 62.834 55.1091 62.8775 54.9224C62.9822 54.47 63.0109 54.0087 63.0069 53.5434C63.0039 53.5316 63 53.5197 62.997 53.5069C62.9555 53.3133 62.92 53.1177 62.8884 52.9201C63.1304 51.9066 63.3437 50.8872 63.4475 49.8481C63.5028 49.2979 63.5205 48.7447 63.4929 48.1926C63.4929 48.1916 63.4949 48.1906 63.4959 48.1896C63.4949 48.1886 63.4939 48.1876 63.4929 48.1866C63.485 48.0414 63.4751 47.8962 63.4613 47.751C63.4554 47.6858 63.4405 47.6236 63.4198 47.5653C63.4593 47.5159 63.5126 47.4715 63.5838 47.4359C66.0088 46.2249 68.4832 45.0356 71.1285 44.3905C71.2016 44.2858 71.2727 44.1802 71.3419 44.0725C71.4614 43.8858 71.5681 43.6922 71.6609 43.4907C71.9612 42.8437 72.2665 42.1848 72.4798 41.5003C72.546 41.2899 72.5974 41.0745 72.6319 40.8572C72.7307 40.2468 72.8176 39.6334 72.8779 39.018C72.8888 38.9024 72.8957 38.7868 72.8976 38.6712C72.9105 37.9521 72.7485 37.1461 72.6517 36.4823L72.6527 36.4863ZM30.8632 45.1008C30.8701 45.0948 30.877 45.0879 30.884 45.082C30.8948 45.086 30.9057 45.0899 30.9166 45.0929C30.8988 45.0958 30.881 45.0978 30.8632 45.1008ZM41.2666 48.5363C40.5515 49.5636 38.8772 49.7138 37.8578 49.046C37.3737 48.7289 37.0576 48.0632 37.1268 47.4784C37.0004 47.3549 36.8937 47.2176 36.8206 47.0665C36.3652 46.1162 37.8242 44.6652 38.7724 44.839C38.893 44.7946 39.0204 44.76 39.1557 44.7383C39.2505 44.7224 39.3365 44.7313 39.4135 44.758C39.8027 44.7047 40.2196 44.762 40.4853 44.922C41.0562 45.2638 41.641 46.0639 41.803 46.7089C41.966 47.3549 41.6291 48.0167 41.2676 48.5363H41.2666ZM62.8429 70.1304C62.8321 70.1077 62.8212 70.084 62.8093 70.0612C62.8054 70 62.8014 69.9388 62.7975 69.8775C62.8123 69.9615 62.8271 70.0464 62.8429 70.1304Z" fill="#F0F0F0"/>
<path d="M45.0977 43.4302C45.1059 43.4487 45.1172 43.4744 45.1162 43.4744C45.1141 43.4744 45.1038 43.4487 45.0977 43.4302Z" fill="#E50695"/>
<path d="M45.6199 44.4453C45.566 44.3824 45.6089 44.4293 45.6298 44.4573C45.6268 44.4533 45.6229 44.4493 45.6199 44.4453Z" fill="#E50695"/>
<path d="M47.0508 53.0347C47.0761 53.0442 47.092 53.0495 47.0508 53.0347V53.0347Z" fill="#E50695"/>
<path d="M47.2383 53.1372C47.2383 53.1372 47.2448 53.1415 47.2469 53.1437C47.2469 53.1437 47.248 53.1459 47.2491 53.1469C47.2459 53.1437 47.2426 53.1405 47.2383 53.1372Z" fill="#E50695"/>
<path d="M46.1289 88.3564C45.8671 88.3326 45.9689 88.3514 45.9333 88.5045C45.8414 88.8986 45.6123 90.6539 45.4898 90.8288C45.3475 91.0323 44.9356 90.9483 44.9415 90.6757C44.9297 89.4074 45.6755 87.8121 45.6972 86.6119C45.7051 86.201 45.0729 84.497 45.7841 84.499C45.9886 84.499 46.0587 84.7203 46.1032 84.8754C46.5991 86.604 46.6228 88.7218 47.1196 90.486C47.1769 90.7962 46.9981 91.0263 46.682 90.9167C46.4381 90.8327 46.1625 88.7475 46.1289 88.3564Z" fill="#070707"/>
<path d="M16.8928 62.2794C16.5164 62.0907 15.7193 62.5036 16.1964 62.8276C16.2883 62.8899 18.0673 63.0281 18.4071 63.0854C19.0284 63.1901 20.7343 63.4638 21.166 63.8549C21.7705 64.4031 20.8232 64.6175 20.4024 64.6531C19.0304 64.7696 17.5902 64.4308 16.2626 64.4871C15.8526 64.5049 15.9435 64.899 16.2003 65.0946C17.7225 65.3168 19.3909 65.1153 20.8914 65.2438C21.3941 65.2872 22.7859 65.6547 22.0836 66.3343C21.6362 66.7669 18.9474 66.9704 18.2253 67.0188C17.9013 67.0405 15.9287 66.7966 16.4414 67.5206C16.5471 67.6698 17.7512 67.6253 18.0327 67.6164C18.8298 67.5917 21.3003 67.1097 21.7912 67.7024C22.2703 68.2812 21.651 68.4402 21.1936 68.6032C20.0804 69.0013 18.901 69.0477 17.7453 69.2048C17.4341 69.2473 16.7041 69.3263 17.035 69.7925C17.2543 70.1007 20.0389 69.4932 20.5526 69.433C21.4366 69.9575 20.7017 70.399 20.0804 70.6509C18.8318 71.1567 17.0508 71.4165 16.0146 70.4168C13.6351 68.1212 13.8869 63.4302 15.3578 60.693L16.4967 58.9199L16.8938 62.2784L16.8928 62.2794Z" fill="#FDFDFD"/>
<path d="M29.241 55.9547C29.4218 55.9092 29.5897 55.8658 29.7794 55.851C30.9687 55.7571 33.3641 55.7304 34.5267 55.8559C34.7243 55.8776 35.068 55.9557 35.068 56.2016V60.5973H39.5625C39.7393 60.5973 39.8005 60.9885 39.8153 61.1347C39.9151 62.1294 39.9428 64.9307 39.8144 65.8869C39.7966 66.0173 39.6879 66.3265 39.5625 66.3265H35.068V70.8209C35.068 70.9977 34.6769 71.059 34.5307 71.0738C33.5162 71.1755 30.6546 71.2042 29.6796 71.0728C29.5492 71.055 29.2401 70.9464 29.2401 70.8209V66.3265H24.6468C24.47 66.3265 24.4088 65.9353 24.394 65.7891C24.2942 64.7944 24.2665 61.993 24.3949 61.0369C24.4127 60.9065 24.5214 60.5973 24.6468 60.5973H29.2401V55.9547H29.241Z" fill="#E50695"/>
<path d="M48.4731 25.4566C49.2229 25.4566 48.3566 27.0479 48.1047 27.3581C46.9658 28.7637 44.7324 28.9326 43.6784 27.3442C43.5125 27.0943 43.0482 26.0453 43.2092 25.823C43.388 25.5771 44.114 25.825 44.3985 25.8329C45.0702 25.8536 45.9207 25.8803 46.5795 25.8329C47.1455 25.7924 48.0454 25.4556 48.4731 25.4556V25.4566ZM48.0069 26.2251C46.7583 26.6251 45.332 26.2616 44.1041 26.4216C43.788 26.4631 44.1348 26.9066 44.2543 27.0637C45.3972 28.5622 47.4774 27.8421 48.0069 26.2251Z" fill="black"/>
<path d="M45.0027 20.9941C45.1261 20.9516 45.303 20.9684 45.3928 21.08C45.7119 21.5423 44.6243 23.1435 44.6619 23.508C44.6974 23.8517 45.944 23.5208 45.7257 24.1866C45.5706 24.6598 43.6514 24.155 44.0771 23.3322C44.2895 23.0516 44.8713 21.0405 45.0027 20.9951V20.9941Z" fill="black"/>
<path d="M48.9765 17.7497C49.4032 17.7072 50.8405 18.1043 50.6755 18.6634C50.5362 19.1366 49.7806 18.5172 49.5929 18.4658C49.0466 18.3177 48.2643 18.6891 48.1023 18.5735C47.5719 18.1952 48.6397 17.7823 48.9755 17.7487L48.9765 17.7497Z" fill="black"/>
<path d="M41.9559 17.157C42.3915 17.0671 44.0905 17.2261 43.8515 17.962C43.7152 18.3818 43.1996 17.9146 43 17.8464C42.0932 17.5343 41.6003 18.1191 41.2566 18.0154C40.6333 17.8267 41.6872 17.2133 41.9559 17.157Z" fill="black"/>
<path d="M49.1666 20.8156C49.6724 21.2908 49.2121 22.4909 48.4031 22.1215C47.4449 21.6839 48.4179 20.1113 49.1666 20.8156Z" fill="black"/>
<path d="M42.011 21.3515C41.6583 21.066 41.7117 20.1721 42.171 20.0417C43.6675 19.6149 43.0887 22.2257 42.011 21.3515Z" fill="black"/>
<path d="M39.3794 45.7187C41.0557 45.6515 41.1337 48.0321 39.7537 48.2445C37.7446 48.5556 37.7317 45.7839 39.3794 45.7187ZM40.1242 47.0048C40.1242 46.6373 39.8259 46.34 39.4594 46.34C39.0929 46.34 38.7946 46.6383 38.7946 47.0048C38.7946 47.3712 39.0929 47.6696 39.4594 47.6696C39.8259 47.6696 40.1242 47.3712 40.1242 47.0048Z" fill="black"/>
<path d="M28.3504 86.6759L29.0962 81.737C25.1056 79.1667 21.6858 75.7954 19.5591 71.5064C17.6596 71.783 16.5246 71.9984 15.2148 70.4238C12.3127 66.9349 13.6906 61.1899 16.3952 57.9786C16.3794 56.3784 16.168 54.7772 16.2451 53.1859C18.3649 52.3779 20.62 51.8405 22.6223 50.7717C26.1121 43.9994 29.7195 34.5147 38.5859 33.7432C39.1776 33.6918 40.0024 33.8281 40.5279 33.7096C40.8085 33.6464 41.4604 32.9589 41.8496 32.7594C42.0472 32.6586 42.8917 32.4008 42.9253 32.3534C42.9697 32.2911 43.0922 30.9497 43.0517 30.8312C43.0211 30.7423 42.5618 30.4558 42.4689 30.4262C41.9434 30.2553 40.606 30.359 39.8819 30.2474C38.3419 30.0093 36.3871 29.2488 35.0358 28.4753C34.7217 28.2955 33.3121 27.4223 33.2864 27.1586C34.8224 22.8597 36.1846 18.4759 37.8303 14.2185C38.986 11.2315 40.199 9.27662 43.3392 8.07151C49.7569 5.60994 57.105 9.08894 58.5294 15.9452C58.8643 17.5573 58.8396 19.6563 58.8761 21.3277C58.9334 23.9532 58.8406 26.5896 58.8534 29.2152C58.7418 29.5836 56.7425 30.196 56.3039 30.3205C55.1818 30.6386 54.0113 30.8677 52.8467 30.9626C52.8891 31.1828 52.7844 32.1529 52.8575 32.2378C52.8773 32.2605 53.2951 32.3356 53.4393 32.3978C54.6741 32.9312 54.3827 33.0834 55.9582 33.0369C57.185 33.0014 58.486 32.8572 59.7128 32.7416C64.6863 32.2724 69.5324 31.1967 74.3825 30.0745L71.6888 14.2462C70.131 12.4968 68.1831 11.0783 66.573 9.38527C66.0544 8.84001 65.6633 8.09522 66.4288 7.55292C67.6408 6.69453 68.9625 8.1535 70.131 8.39452C69.6105 6.64415 68.676 4.83749 68.2305 3.08514C68.1308 2.69398 68.0162 2.40653 68.0665 1.98277C68.1841 1.00387 69.3388 1.04141 69.9414 1.57086C70.0797 1.69236 70.0737 1.9077 70.2308 1.92251C69.6806 0.236356 71.3717 -0.850213 72.3269 0.868543C72.3941 0.989053 72.4237 1.48492 72.6015 1.1629C72.8682 0.678886 73.0272 0.404281 73.7177 0.56134C74.3212 0.698643 74.7341 1.82176 74.825 1.82275C74.9001 1.82472 75.313 1.29626 75.9896 1.45035C76.8895 1.65482 77.3844 4.22802 77.6126 5.06369C78.3376 7.72085 78.9145 10.4195 78.9688 13.1902C80.3971 18.9659 82.5999 24.7 84.0332 30.4499C84.7711 33.4123 84.6634 36.1248 82.0181 38.0589C79.8993 39.6087 77.1256 40.714 74.7756 41.8816C74.5287 42.0653 75.1391 42.7647 74.7756 43.066C71.1524 44.685 67.5568 46.381 64.0739 48.2726C63.5365 52.2919 62.9794 56.3132 62.6218 60.3553L65.8875 78.5316C66.006 79.4937 64.9264 79.0937 64.304 79.1687L65.5388 86.6759H80.652C80.8476 86.6759 80.8486 87.2686 80.652 87.2686H65.5882L66.084 90.6706C66.0406 91.0044 65.6939 91.121 65.4904 90.8484L63.5988 79.1816L38.5919 79.1885C36.6439 80.842 34.4678 82.2012 32.2009 83.3747C31.7959 83.431 29.7897 81.9651 29.6326 82.1321L28.2793 90.8029C28.1539 91.0726 27.6126 90.9807 27.6906 90.5965L28.2497 87.2686H0.147058C-0.048525 87.2686 -0.0495128 86.6759 0.147058 86.6759H28.3485H28.3504ZM73.7888 6.07222L73.2436 5.97542C73.0559 5.11308 72.0888 0.996956 71.4171 0.689753C70.295 0.176102 70.9736 2.6357 71.0714 3.10984C71.2709 4.07886 71.7885 5.34422 71.8923 6.24805C71.9288 6.56316 71.8231 6.77355 71.4794 6.65601C71.3095 6.59773 70.6467 4.2211 70.4787 3.80228C70.2782 3.30048 69.7744 2.0371 69.2509 1.86917C68.6661 1.68149 68.5496 1.99857 68.6977 2.5221L70.8156 8.5822C71.5179 8.78667 72.2696 8.81137 72.9324 9.15314C73.1221 9.25093 73.9034 9.8199 73.9923 9.97004C74.1958 10.3148 74.0644 10.619 73.6614 10.5035C73.5093 10.46 72.7941 9.74285 72.4069 9.58085C71.669 9.27168 70.6674 9.30131 69.8831 9.04251C69.0267 8.76099 67.6783 7.6112 66.7972 8.01916C66.57 8.12386 66.6501 8.49231 66.7716 8.69777L72.156 13.7829C73.1981 19.2217 74.1474 24.7444 74.9811 30.2316C74.9791 30.3156 74.9781 30.4045 74.9297 30.4766C74.7776 30.7067 72.1491 31.1048 71.671 31.2668C71.5722 31.3004 71.4724 31.2935 71.424 31.417L74.5346 41.3403C76.1911 40.5471 77.8872 39.7895 79.4874 38.8846C83.0997 36.8419 84.5705 35.3019 83.5205 30.8658C82.1386 25.0289 79.762 19.1624 78.3781 13.289C78.0976 10.0175 77.576 5.83812 76.3353 2.78683C76.1654 2.369 75.5135 1.58667 75.314 2.31072C75.0127 3.40815 75.8069 4.88095 75.7733 5.92603C75.7595 6.36757 75.2952 6.43672 75.1767 6.01888C74.9198 5.11209 74.4822 1.61235 73.6653 1.20538C72.9788 0.863603 73.0707 1.92449 73.1102 2.35615C73.1586 2.88265 73.9696 5.89343 73.7898 6.07321L73.7888 6.07222ZM58.1807 19.9013C58.5452 14.7124 56.1558 10.1528 51.0953 8.46663C47.2676 7.19139 42.3613 8.05176 39.8671 11.4152C38.7104 12.9749 38.016 15.5185 37.3384 17.3814C36.1728 20.5848 35.0763 23.8199 33.9749 27.046C36.1965 28.6235 38.8329 29.6824 41.5878 29.7792C37.531 26.3575 39.0482 20.9938 39.4335 16.4144C39.4799 16.2563 39.6182 16.1991 39.7535 16.1418C40.2928 15.9165 41.1404 15.8385 41.7834 15.6034C43.2394 15.072 45.0283 13.9084 45.9746 12.6825C46.1396 12.4692 46.5367 11.6532 46.6917 11.6137C47.1017 11.509 47.1985 12.2518 47.3308 12.5284C48.2139 14.3766 49.4309 15.9185 51.2998 16.8569C51.7324 17.0742 53.5282 17.5839 53.6389 17.6788C53.7594 17.7815 53.9836 18.876 54.2434 19.1041C55.6964 18.5559 57.1218 18.712 58.1817 19.9023L58.1807 19.9013ZM53.9629 19.7719C53.626 19.4736 53.2378 18.2398 53.144 18.1727C52.9622 18.0433 51.6198 17.6857 51.1813 17.4684C49.0792 16.4322 47.6884 14.7707 46.674 12.6904C45.5469 14.4112 43.5407 15.6548 41.6076 16.3156C41.3132 16.4164 40.0706 16.6475 40.0202 16.8026C39.6083 21.3257 38.1217 26.4415 42.386 29.6221C44.6006 31.2737 46.9584 31.332 49.4872 30.3205C49.7974 30.196 50.8731 29.3722 50.8513 30.0449C50.8345 30.5842 48.1705 31.9504 47.6143 32.1025C46.3312 32.4531 44.8268 32.303 43.5634 31.9523C43.5506 32.2744 43.5318 32.8334 43.3906 33.114C43.2918 33.3115 43.0152 33.3718 42.9856 33.4913C42.9707 33.5526 43.0616 34.5759 43.0814 34.7547C43.4103 37.8297 44.89 41.1882 46.4774 43.8048L53.2418 33.7778C53.3366 33.5348 52.7331 33.675 52.5187 33.5397C52.418 33.4765 52.2787 33.109 52.2609 32.9826C52.17 32.3307 52.1434 29.2408 52.257 28.6452C52.2886 28.4773 53.061 27.6505 53.2447 27.3611C53.791 26.5037 54.1703 25.4665 54.3481 24.4659C55.1196 24.375 55.7192 24.4293 56.4333 24.0303C57.5189 23.4237 58.3536 21.4067 57.6335 20.3004C57.0547 19.4113 55.7745 19.2256 54.8252 19.5575C54.5042 19.6701 54.2671 20.0425 53.9629 19.7719ZM58.2805 28.989V22.7659C58.0217 23.0336 57.9279 23.3862 57.6858 23.7023C57.0013 24.5943 55.9592 25.0872 54.8272 25.0418C54.7264 25.829 54.3718 26.6272 53.9856 27.3117C53.794 27.6515 52.8477 28.746 52.8477 28.8408V30.3719C54.7205 30.1723 56.538 29.6765 58.2805 28.989ZM39.3149 78.576H65.2938L62.0469 60.7336C62.1941 56.5404 63.016 52.3858 63.4239 48.2084C63.4536 47.9131 63.6185 47.7886 63.8418 47.6385C65.3353 46.6319 68.1782 45.4416 69.9009 44.6099C71.343 43.9135 72.8227 43.2754 74.2827 42.6185L70.8235 31.4575C65.6998 32.7712 60.4082 33.4301 55.1186 33.6326C56.8344 35.2259 56.8028 37.5087 56.4027 39.6571C58.3329 39.908 59.8965 41.7492 60.0615 43.6547C60.1198 44.3264 60.099 45.9651 59.9578 46.6042C59.8017 47.3105 59.8294 47.5456 59.7661 48.3052C59.6041 50.2561 59.129 53.0802 57.0942 53.9307C56.8591 54.0294 55.976 54.3337 55.7537 54.3673C55.1937 54.4512 54.52 54.4147 54.4301 53.7252C54.3264 52.9251 54.9763 52.6841 55.6579 52.8016C56.1627 52.8886 56.3405 53.4467 56.4491 53.4634C56.8314 53.5237 57.7293 52.7532 57.9674 52.4332C59.3542 50.5623 59.0905 47.429 59.0668 45.2352C59.0638 44.9576 59.1794 44.6731 59.1774 44.3481C59.1507 39.8833 53.5559 39.1444 51.9715 43.1766C51.687 43.8997 51.7147 44.6405 51.4993 45.2727C51.4223 45.4989 51.2494 45.6145 51.1704 45.8328C50.877 46.6507 50.6133 49.2881 50.6874 50.1642C50.7565 50.9841 51.2603 52.611 52.1542 52.8569C52.4051 52.9261 52.4348 52.694 52.6234 52.6189C53.4719 52.2821 54.3461 52.5754 54.111 53.6126C53.9273 54.4275 52.6689 54.2408 52.2224 53.7865C52.1305 53.6926 52.1829 53.5533 52.093 53.4793C51.8954 53.3163 51.4647 53.2056 51.1793 52.931C49.3627 51.1856 50.2745 46.6566 50.7032 44.3768C51.1901 41.7838 52.7212 39.75 55.5147 39.5573C55.6935 37.8475 56.0432 36.1929 54.8203 34.7695C54.679 34.6055 54.1367 34.0652 53.9648 34.0395C53.8305 34.0188 53.7633 34.1442 53.6843 34.2213C53.1302 34.7586 52.3221 36.1376 51.8579 36.8389C50.4612 38.9459 48.5715 42.6481 46.9229 44.3501C46.3885 44.9023 46.3391 44.8005 45.9529 44.2296C45.5854 43.6863 45.1261 42.7943 44.8288 42.1928C43.5279 39.5613 42.5944 36.671 42.3761 33.7294C41.7577 33.9971 41.2233 34.4495 40.8134 34.9809C39.3969 36.8192 39.472 39.3953 39.5115 41.5833C39.5283 42.493 39.5352 43.3939 39.6103 44.2987C43.2691 44.5536 43.0221 49.8155 39.3149 49.78C40.7897 50.4793 42.3119 51.0928 43.8341 51.6815C45.0174 52.1398 46.7283 52.5468 47.7813 53.0683C48.3503 53.3499 48.0174 53.7015 48.0075 54.1282C47.8514 60.7948 47.0148 67.9859 43.4054 73.726C42.2773 75.5198 40.8707 77.1447 39.3139 78.5741L39.3149 78.576ZM40.1052 34.324C30.7725 34.2213 27.0071 43.3781 23.5103 50.423C26.443 49.2881 29.2592 47.8726 32.0794 46.4887C32.4458 46.3751 34.2574 47.5812 34.375 47.4606C34.457 47.0379 34.8412 44.0389 35.0269 43.9975C35.1139 43.9777 35.2976 43.9955 35.3707 44.0458C35.7322 44.2997 34.862 47.2562 34.9845 47.84L37.4371 48.9404C36.1283 47.4024 36.6094 44.9605 38.6274 44.3323C38.5642 41.0252 37.9942 37.1264 40.1042 34.323L40.1052 34.324ZM41.6214 47.0102C41.6214 45.817 40.6544 44.8499 39.4611 44.8499C38.2679 44.8499 37.3008 45.817 37.3008 47.0102C37.3008 48.2035 38.2679 49.1705 39.4611 49.1705C40.6544 49.1705 41.6214 48.2035 41.6214 47.0102ZM47.401 53.5988C42.1756 51.885 37.1586 49.612 32.2443 47.1653C27.172 49.4738 22.1787 52.0539 16.7923 53.5849C16.9672 55.6929 16.9533 57.8334 17.2003 59.9434C17.2921 60.7336 17.4344 61.5347 17.5717 62.318L19.9039 62.7714C20.0234 62.7763 19.6905 61.0052 19.6707 60.8314C19.5078 59.3902 19.4109 57.9451 19.3606 56.4989C19.3487 56.1562 19.1126 55.7502 19.3527 55.4025C23.6496 53.7598 27.9632 52.0855 32.0033 49.8748L32.351 49.9232C36.3377 51.9956 40.4924 53.7183 44.7201 55.2415C45.0777 55.4548 44.9582 56.3636 44.9434 56.7943C44.8051 60.7603 43.9032 65.8296 42.2951 69.4568C40.2662 74.0302 36.5136 77.607 32.1367 79.9382C28.1154 77.8085 24.7006 74.6644 22.5057 70.6421C22.3091 70.2816 21.9614 69.2898 21.7797 69.0883C21.6611 68.956 21.4744 69.1288 21.3381 69.0952C21.9229 70.3191 21.2216 70.8989 20.1538 71.3158C22.7191 76.3832 27.1167 80.1723 32.1376 82.704C35.992 80.7156 39.5678 78.0584 42.1203 74.5162C44.3161 71.4679 45.6259 67.9277 46.3796 64.2551C47.0898 60.7919 47.3802 57.1321 47.402 53.5998L47.401 53.5988ZM21.9298 67.0199C22.3921 67.418 22.6311 67.6906 22.5176 68.3475C22.4869 68.5213 22.3101 68.6102 22.3388 68.8206C22.3743 69.0863 22.8445 69.9477 22.9996 70.246C24.6828 73.4879 27.4516 76.2785 30.493 78.2609C30.7923 78.4565 31.7731 79.1371 32.0112 79.2201C32.0803 79.2448 32.1337 79.2724 32.2048 79.229C34.8797 77.6752 37.367 75.6996 39.3129 73.2874C42.2338 69.6662 43.52 64.4931 44.0445 59.9424C44.1077 59.3922 44.4504 55.9665 44.3082 55.7522C40.1694 54.2152 36.072 52.5675 32.1554 50.5248C28.226 52.5448 24.1514 54.3426 19.9651 55.766C19.9295 58.1248 20.2624 60.4679 20.5677 62.7991C20.6753 63.1547 21.8834 63.1981 21.9377 64.1049C21.9496 64.3054 21.8103 64.6452 21.8735 64.746C21.9288 64.8329 22.3071 64.9682 22.477 65.1372C23.1804 65.8385 22.8998 66.8174 21.9308 67.0189L21.9298 67.0199ZM16.8921 62.2775L16.495 58.919L15.3561 60.6921C13.8852 63.4293 13.6334 68.1203 16.0129 70.4159C17.0482 71.4146 18.8301 71.1558 20.0787 70.65C20.7 70.3981 21.4349 69.9566 20.5509 69.4321C20.0372 69.4923 17.2526 70.1008 17.0333 69.7916C16.7024 69.3254 17.4324 69.2464 17.7436 69.2039C18.8993 69.0468 20.0787 69.0004 21.1919 68.6023C21.6493 68.4384 22.2696 68.2803 21.7895 67.7015C21.2996 67.1098 18.8281 67.5908 18.031 67.6155C17.7495 67.6244 16.5444 67.6689 16.4397 67.5197C15.927 66.7957 17.8996 67.0396 18.2236 67.0179C18.9467 66.9695 21.6345 66.766 22.0819 66.3334C22.7843 65.6538 21.3925 65.2853 20.8897 65.2429C19.3892 65.1144 17.7218 65.3159 16.1987 65.0937C15.9418 64.8981 15.8509 64.504 16.2609 64.4862C17.5885 64.4299 19.0277 64.7687 20.4007 64.6522C20.8215 64.6166 21.7688 64.4013 21.1643 63.854C20.7326 63.4629 19.0267 63.1892 18.4054 63.0845C18.0646 63.0272 16.2866 62.8889 16.1947 62.8267C15.7186 62.5027 16.5157 62.0898 16.8911 62.2785L16.8921 62.2775Z" fill="black"/>
</svg>
