<svg width="18" height="22" viewBox="0 0 18 22" fill="none" xmlns="http://www.w3.org/2000/svg">
<path d="M11.9622 18.519C12.9518 18.0452 13.7872 17.306 14.3736 16.3856C14.96 15.4651 15.2737 14.4002 15.2792 13.312V12.6185C15.2756 11.7148 15.059 10.8245 14.6467 10.0183C14.2343 9.21206 13.6377 8.5122 12.9041 7.97437C12.8913 7.96487 12.8767 7.95798 12.8612 7.95409C12.827 7.9451 12.7952 7.92866 12.7681 7.90596C12.7411 7.88326 12.7195 7.85487 12.705 7.82287C12.4987 7.37413 12.1378 7.01276 11.6868 6.80352C11.6566 6.78958 11.6296 6.76956 11.6077 6.74474C11.5857 6.71992 11.5692 6.69084 11.5592 6.65935C11.5492 6.62786 11.5459 6.59466 11.5496 6.56186C11.5533 6.52905 11.5638 6.49737 11.5805 6.46881L12.0019 5.74614C12.0043 5.74248 12.0064 5.73867 12.0083 5.73473L12.3976 5.0596C12.4842 4.91094 12.5077 4.73433 12.463 4.56854C12.4182 4.40274 12.3088 4.26131 12.1588 4.17528L11.8764 4.01427L12.3566 3.19017C12.3878 3.13701 12.4386 3.09788 12.4983 3.08098C12.558 3.06407 12.622 3.07072 12.6768 3.09952C12.8036 3.16879 12.9526 3.18652 13.0924 3.14897C13.1647 3.12994 13.2324 3.09696 13.2918 3.05192C13.3511 3.00688 13.4009 2.95067 13.4382 2.88652L13.5387 2.7141C13.5762 2.6501 13.6005 2.57941 13.6103 2.50609C13.62 2.43277 13.6151 2.35826 13.5957 2.28683C13.5767 2.21528 13.5435 2.14821 13.498 2.08953C13.4524 2.03086 13.3955 1.98178 13.3306 1.94515L10.7615 0.475086C10.6309 0.400613 10.4757 0.380481 10.3301 0.419104C10.1845 0.457727 10.0603 0.551953 9.98477 0.68111L9.88423 0.853537C9.81087 0.980363 9.78989 1.13036 9.8257 1.27215C9.8615 1.41393 9.95132 1.53651 10.0763 1.61424C10.1297 1.64659 10.1682 1.69834 10.1835 1.7584C10.1988 1.81847 10.1898 1.88209 10.1583 1.93564L9.67676 2.75974L9.468 2.63993C9.31781 2.55443 9.13951 2.53137 8.97217 2.57582C8.80484 2.62026 8.66214 2.72857 8.57535 2.87701L4.81584 9.33414C4.7729 9.40772 4.74504 9.48895 4.73384 9.5732C4.72264 9.65744 4.72832 9.74305 4.75056 9.82512C4.7728 9.90719 4.81117 9.98412 4.86346 10.0515C4.91576 10.1189 4.98095 10.1754 5.05533 10.2178L7.38749 11.5491L7.39646 11.5535L7.74161 11.7506C7.81598 11.7932 7.89809 11.8208 7.98324 11.8319C8.06839 11.843 8.15492 11.8373 8.23787 11.8153C8.32083 11.7933 8.39859 11.7553 8.46671 11.7035C8.53484 11.6518 8.59199 11.5872 8.6349 11.5136L9.2791 10.4086C9.31608 10.3581 9.37173 10.324 9.43395 10.3138C9.49617 10.3035 9.55995 10.318 9.61144 10.3541C9.96135 10.5987 10.3793 10.7298 10.8076 10.7294C10.8505 10.7294 10.8928 10.7294 10.9357 10.725C10.9975 10.7217 11.0581 10.7419 11.1054 10.7814C11.8239 11.3849 12.2362 12.2337 12.2362 13.1085V13.5104C12.2362 14.77 11.4038 15.9161 10.1116 16.4296C10.059 16.4504 10.0008 16.4525 9.94699 16.4353C9.65758 16.3416 9.35499 16.2939 9.05049 16.294C7.55847 16.294 6.33539 17.4027 6.26752 18.8176C6.26488 18.8654 6.24794 18.9113 6.21885 18.9495H4.35478C4.1991 18.9496 4.04984 19.0109 3.93975 19.1199C3.82967 19.2289 3.76775 19.3766 3.76758 19.5308V20.9019C3.76775 21.0561 3.82967 21.2038 3.93975 21.3128C4.04984 21.4218 4.1991 21.4831 4.35478 21.4832H13.9069C14.0626 21.4831 14.2119 21.4218 14.322 21.3128C14.432 21.2038 14.494 21.0561 14.4941 20.9019V19.5333C14.494 19.3792 14.432 19.2314 14.322 19.1224C14.2119 19.0135 14.0626 18.9522 13.9069 18.952H11.8809C11.8515 18.9142 11.8345 18.8684 11.8322 18.8208C11.8322 18.8081 11.8322 18.7948 11.8322 18.7821V18.7517C11.8278 18.7045 11.8378 18.657 11.861 18.6155C11.8842 18.5741 11.9194 18.5404 11.9622 18.519ZM8.05602 6.76485L6.43529 9.45331C6.41263 9.49456 6.38179 9.53084 6.34462 9.56C6.30745 9.58915 6.26471 9.61057 6.21897 9.62298C6.17323 9.63538 6.12543 9.63852 6.07844 9.63219C6.03145 9.62586 5.98623 9.61021 5.9455 9.58616C5.90477 9.56211 5.86937 9.53017 5.84141 9.49225C5.81345 9.45432 5.79352 9.4112 5.78281 9.36547C5.7721 9.31973 5.77083 9.27233 5.77907 9.2261C5.78732 9.17986 5.80491 9.13575 5.8308 9.09642L7.44961 6.40605C7.49753 6.32684 7.57523 6.26967 7.66567 6.24709C7.75611 6.22452 7.8519 6.23838 7.93203 6.28564C8.01216 6.3329 8.07008 6.4097 8.09309 6.49918C8.11609 6.58866 8.1023 6.68352 8.05474 6.76295L8.05602 6.76485ZM10.8576 9.40894C10.7099 9.40906 10.5654 9.36582 10.4426 9.28468C10.3197 9.20354 10.2239 9.08814 10.1673 8.95309C10.1107 8.81804 10.0958 8.6694 10.1245 8.52597C10.1533 8.38255 10.2243 8.25079 10.3287 8.14735C10.4331 8.04392 10.5662 7.97346 10.711 7.94488C10.8559 7.91631 11.006 7.93091 11.1425 7.98684C11.279 8.04277 11.3956 8.1375 11.4777 8.25907C11.5598 8.38064 11.6036 8.52357 11.6036 8.66979C11.6036 8.76691 11.5842 8.86308 11.5467 8.9528C11.5091 9.04251 11.4541 9.12403 11.3847 9.19267C11.3153 9.26132 11.2329 9.31575 11.1422 9.35286C11.0516 9.38997 10.9544 9.40902 10.8563 9.40894H10.8576Z" fill="#E10098"/>
</svg>
