<svg width="60" height="60" viewBox="0 0 60 60" fill="none" xmlns="http://www.w3.org/2000/svg">
<path d="M60 45.8879H0V45.9179H60V45.8879Z" fill="#EBEBEB"/>
<path d="M16.5174 46.7052H12.543V46.7352H16.5174V46.7052Z" fill="#EBEBEB"/>
<path d="M25.4252 47.8043H20.5352V47.8343H25.4252V47.8043Z" fill="#EBEBEB"/>
<path d="M12.4265 47.4288H6.29688V47.4588H12.4265V47.4288Z" fill="#EBEBEB"/>
<path d="M53.9893 46.9067H42.8125V46.9367H53.9893V46.9067Z" fill="#EBEBEB"/>
<path d="M41.744 46.9067H40.9844V46.9367H41.744V46.9067Z" fill="#EBEBEB"/>
<path d="M38.3332 47.4132H33.2656V47.4432H38.3332V47.4132Z" fill="#EBEBEB"/>
<path d="M28.4407 40.536H5.26994C5.08842 40.5357 4.91444 40.4633 4.7862 40.3349C4.65796 40.2064 4.58594 40.0323 4.58594 39.8508V7.27918C4.58752 7.0987 4.66024 6.92613 4.78831 6.79896C4.91638 6.67179 5.08945 6.60028 5.26994 6.59998H28.4407C28.6225 6.59998 28.7967 6.67217 28.9252 6.80067C29.0537 6.92917 29.1259 7.10345 29.1259 7.28518V39.8508C29.1259 40.0325 29.0537 40.2068 28.9252 40.3353C28.7967 40.4638 28.6225 40.536 28.4407 40.536ZM5.26994 6.62398C5.09638 6.62429 4.93003 6.69346 4.80742 6.8163C4.6848 6.93914 4.61594 7.10561 4.61594 7.27918V39.8508C4.61594 40.0243 4.6848 40.1908 4.80742 40.3136C4.93003 40.4365 5.09638 40.5057 5.26994 40.506H28.4407C28.6143 40.5053 28.7806 40.4361 28.9033 40.3134C29.0261 40.1906 29.0953 40.0243 29.0959 39.8508V7.27918C29.0953 7.1056 29.0261 6.93931 28.9033 6.81658C28.7806 6.69384 28.6143 6.62461 28.4407 6.62398H5.26994Z" fill="#EBEBEB"/>
<path d="M54.3963 40.536H31.2243C31.0427 40.5353 30.8688 40.4629 30.7405 40.3346C30.6121 40.2062 30.5397 40.0323 30.5391 39.8508V7.27918C30.541 7.09859 30.6139 6.92602 30.7422 6.79889C30.8705 6.67175 31.0437 6.60028 31.2243 6.59998H54.3963C54.5765 6.6006 54.7493 6.67225 54.8771 6.79938C55.0049 6.92652 55.0775 7.09891 55.0791 7.27918V39.8508C55.0792 39.9406 55.0617 40.0296 55.0275 40.1126C54.9932 40.1957 54.943 40.2712 54.8796 40.3348C54.8162 40.3984 54.7409 40.4489 54.6579 40.4834C54.575 40.518 54.4861 40.5358 54.3963 40.536ZM31.2243 6.62398C31.0507 6.62461 30.8844 6.69384 30.7617 6.81658C30.6389 6.93931 30.5697 7.1056 30.5691 7.27918V39.8508C30.5697 40.0243 30.6389 40.1906 30.7617 40.3134C30.8844 40.4361 31.0507 40.5053 31.2243 40.506H54.3963C54.5698 40.5053 54.7361 40.4361 54.8589 40.3134C54.9816 40.1906 55.0508 40.0243 55.0515 39.8508V7.27918C55.0508 7.1056 54.9816 6.93931 54.8589 6.81658C54.7361 6.69384 54.5698 6.62461 54.3963 6.62398H31.2243Z" fill="#EBEBEB"/>
<path d="M8.48047 20.532H18.8917C18.8917 20.532 18.3313 19.2288 16.4593 19.6344C16.4593 19.6344 16.0657 18.1524 14.6377 18.3576C14.6377 18.3576 13.4557 17.076 11.7313 17.5728C10.0069 18.0696 10.1557 19.6344 10.1557 19.6344C10.1557 19.6344 8.88007 19.3008 8.48047 20.532Z" fill="#FAFAFA"/>
<path d="M36.3475 12.5928H25.9375C25.9375 12.5928 26.4967 11.2884 28.3687 11.694C28.3687 11.694 28.7623 10.212 30.1915 10.4172C30.1915 10.4172 31.3735 9.13677 33.0967 9.63357C34.8199 10.1304 34.6735 11.694 34.6735 11.694C34.6735 11.694 35.9539 11.3616 36.3475 12.5928Z" fill="#FAFAFA"/>
<path d="M44.0234 12.2532H51.9878C51.9878 12.2532 51.683 11.16 50.531 11.52C50.531 11.52 50.771 10.0488 49.9214 9.87837C49.0718 9.70797 48.8018 10.8276 48.8018 10.8276C48.6074 10.6072 48.3554 10.4456 48.074 10.3607C47.7927 10.2759 47.4932 10.2714 47.2094 10.3476C46.9304 10.4202 46.6761 10.5668 46.4733 10.7719C46.2706 10.9769 46.1269 11.2329 46.0574 11.5128C46.0574 11.5128 44.639 10.7004 44.0234 12.2532Z" fill="#FAFAFA"/>
<path d="M15.2044 26.6604H5.51562V45.8568H15.2044V26.6604Z" fill="#E6E6E6"/>
<path d="M13.4428 26.6604H5.51562V45.8568H13.4428V26.6604Z" fill="#F0F0F0"/>
<path d="M15.3163 26.6604H5.30469V26.9736H15.3163V26.6604Z" fill="#E0E0E0"/>
<path d="M15.3163 26.0339H5.30469V26.3471H15.3163V26.0339Z" fill="#E0E0E0"/>
<path d="M15.1084 26.3472H5.51562V26.6604H15.1084V26.3472Z" fill="#F0F0F0"/>
<path d="M7.75873 27.7896H6.26953V29.3015H7.75873V27.7896Z" fill="#E6E6E6"/>
<path d="M7.75564 27.7896H6.39844V29.3015H7.75564V27.7896Z" fill="#F5F5F5"/>
<path d="M10.0126 27.7896H8.52344V29.3015H10.0126V27.7896Z" fill="#E6E6E6"/>
<path d="M10.0095 27.7896H8.65234V29.3015H10.0095V27.7896Z" fill="#F5F5F5"/>
<path d="M12.2665 27.7896H10.7773V29.3015H12.2665V27.7896Z" fill="#E6E6E6"/>
<path d="M12.2634 27.7896H10.9062V29.3015H12.2634V27.7896Z" fill="#F5F5F5"/>
<path d="M7.75873 30.0156H6.26953V31.5276H7.75873V30.0156Z" fill="#E6E6E6"/>
<path d="M7.75564 30.0156H6.39844V31.5276H7.75564V30.0156Z" fill="#F5F5F5"/>
<path d="M10.0126 30.0156H8.52344V31.5276H10.0126V30.0156Z" fill="#E6E6E6"/>
<path d="M10.0095 30.0156H8.65234V31.5276H10.0095V30.0156Z" fill="#F5F5F5"/>
<path d="M12.2665 30.0156H10.7773V31.5276H12.2665V30.0156Z" fill="#E6E6E6"/>
<path d="M12.2634 30.0156H10.9062V31.5276H12.2634V30.0156Z" fill="#F5F5F5"/>
<path d="M7.75873 34.0919H6.26953V35.6039H7.75873V34.0919Z" fill="#E6E6E6"/>
<path d="M7.75564 34.0919H6.39844V35.6039H7.75564V34.0919Z" fill="#F5F5F5"/>
<path d="M10.0126 34.0919H8.52344V35.6039H10.0126V34.0919Z" fill="#E6E6E6"/>
<path d="M10.0095 34.0919H8.65234V35.6039H10.0095V34.0919Z" fill="#F5F5F5"/>
<path d="M12.2665 34.0919H10.7773V35.6039H12.2665V34.0919Z" fill="#E6E6E6"/>
<path d="M12.2634 34.0919H10.9062V35.6039H12.2634V34.0919Z" fill="#F5F5F5"/>
<path d="M7.75873 36.318H6.26953V37.83H7.75873V36.318Z" fill="#E6E6E6"/>
<path d="M7.75564 36.318H6.39844V37.83H7.75564V36.318Z" fill="#F5F5F5"/>
<path d="M10.0126 36.318H8.52344V37.83H10.0126V36.318Z" fill="#E6E6E6"/>
<path d="M10.0095 36.318H8.65234V37.83H10.0095V36.318Z" fill="#F5F5F5"/>
<path d="M12.2665 36.318H10.7773V37.83H12.2665V36.318Z" fill="#E6E6E6"/>
<path d="M12.2634 36.318H10.9062V37.83H12.2634V36.318Z" fill="#F5F5F5"/>
<path d="M7.75873 40.848H6.26953V42.36H7.75873V40.848Z" fill="#E6E6E6"/>
<path d="M7.75564 40.848H6.39844V42.36H7.75564V40.848Z" fill="#F5F5F5"/>
<path d="M10.0126 40.848H8.52344V42.36H10.0126V40.848Z" fill="#E6E6E6"/>
<path d="M10.0095 40.848H8.65234V42.36H10.0095V40.848Z" fill="#F5F5F5"/>
<path d="M12.2665 40.848H10.7773V42.36H12.2665V40.848Z" fill="#E6E6E6"/>
<path d="M12.2634 40.848H10.9062V42.36H12.2634V40.848Z" fill="#F5F5F5"/>
<path d="M7.75873 43.074H6.26953V44.586H7.75873V43.074Z" fill="#E6E6E6"/>
<path d="M7.75564 43.074H6.39844V44.586H7.75564V43.074Z" fill="#F5F5F5"/>
<path d="M10.0126 43.074H8.52344V44.586H10.0126V43.074Z" fill="#E6E6E6"/>
<path d="M10.0095 43.074H8.65234V44.586H10.0095V43.074Z" fill="#F5F5F5"/>
<path d="M12.2665 43.074H10.7773V44.586H12.2665V43.074Z" fill="#E6E6E6"/>
<path d="M12.2634 43.074H10.9062V44.586H12.2634V43.074Z" fill="#F5F5F5"/>
<path d="M15.2044 32.5908H5.51562V32.7312H15.2044V32.5908Z" fill="#E0E0E0"/>
<path d="M15.2044 39.558H5.51562V39.6984H15.2044V39.558Z" fill="#E0E0E0"/>
<path d="M53.3029 22.6992H43.7305V45.9924H53.3029V22.6992Z" fill="#E0E0E0"/>
<path d="M50.5765 22.6992H43.7305V45.9924H50.5765V22.6992Z" fill="#F0F0F0"/>
<path d="M46.9851 24.6132H44.4375V25.8504H46.9851V24.6132Z" fill="#E6E6E6"/>
<path d="M46.9839 24.6132H44.6055V25.8504H46.9839V24.6132Z" fill="#F5F5F5"/>
<path d="M49.9304 24.6132H47.3828V25.8504H49.9304V24.6132Z" fill="#E6E6E6"/>
<path d="M49.9331 24.6132H47.5547V25.8504H49.9331V24.6132Z" fill="#F5F5F5"/>
<path d="M46.9851 26.9412H44.4375V28.1784H46.9851V26.9412Z" fill="#E6E6E6"/>
<path d="M46.9839 26.9412H44.6055V28.1784H46.9839V26.9412Z" fill="#F5F5F5"/>
<path d="M49.9304 26.9412H47.3828V28.1784H49.9304V26.9412Z" fill="#E6E6E6"/>
<path d="M49.9331 26.9412H47.5547V28.1784H49.9331V26.9412Z" fill="#F5F5F5"/>
<path d="M46.9851 29.916H44.4375V31.1532H46.9851V29.916Z" fill="#E6E6E6"/>
<path d="M46.9839 29.916H44.6055V31.1532H46.9839V29.916Z" fill="#F5F5F5"/>
<path d="M49.9304 29.916H47.3828V31.1532H49.9304V29.916Z" fill="#E6E6E6"/>
<path d="M49.9331 29.916H47.5547V31.1532H49.9331V29.916Z" fill="#F5F5F5"/>
<path d="M46.9851 31.626H44.4375V32.8632H46.9851V31.626Z" fill="#E6E6E6"/>
<path d="M46.9839 31.626H44.6055V32.8632H46.9839V31.626Z" fill="#F5F5F5"/>
<path d="M49.9304 31.626H47.3828V32.8632H49.9304V31.626Z" fill="#E6E6E6"/>
<path d="M49.9331 31.626H47.5547V32.8632H49.9331V31.626Z" fill="#F5F5F5"/>
<path d="M46.9851 34.4352H44.4375V35.6724H46.9851V34.4352Z" fill="#E6E6E6"/>
<path d="M46.9839 34.4352H44.6055V35.6724H46.9839V34.4352Z" fill="#F5F5F5"/>
<path d="M49.9304 34.4352H47.3828V35.6724H49.9304V34.4352Z" fill="#E6E6E6"/>
<path d="M49.9331 34.4352H47.5547V35.6724H49.9331V34.4352Z" fill="#F5F5F5"/>
<path d="M46.9851 36.1439H44.4375V37.3811H46.9851V36.1439Z" fill="#E6E6E6"/>
<path d="M46.9839 36.1439H44.6055V37.3811H46.9839V36.1439Z" fill="#F5F5F5"/>
<path d="M49.9304 36.1439H47.3828V37.3811H49.9304V36.1439Z" fill="#E6E6E6"/>
<path d="M49.9331 36.1439H47.5547V37.3811H49.9331V36.1439Z" fill="#F5F5F5"/>
<path d="M46.9851 39.2015H44.4375V40.4387H46.9851V39.2015Z" fill="#E6E6E6"/>
<path d="M46.9839 39.2015H44.6055V40.4387H46.9839V39.2015Z" fill="#F5F5F5"/>
<path d="M49.9304 39.2015H47.3828V40.4387H49.9304V39.2015Z" fill="#E6E6E6"/>
<path d="M49.9331 39.2015H47.5547V40.4387H49.9331V39.2015Z" fill="#F5F5F5"/>
<path d="M46.9851 41.4587H44.4375V42.6959H46.9851V41.4587Z" fill="#E6E6E6"/>
<path d="M46.9839 41.4587H44.6055V42.6959H46.9839V41.4587Z" fill="#F5F5F5"/>
<path d="M49.9304 41.4587H47.3828V42.6959H49.9304V41.4587Z" fill="#E6E6E6"/>
<path d="M49.9331 41.4587H47.5547V42.6959H49.9331V41.4587Z" fill="#F5F5F5"/>
<path opacity="0.05" d="M53.3029 28.9404H43.7305V29.1528H53.3029V28.9404Z" fill="black"/>
<path opacity="0.05" d="M53.3029 33.5424H43.7305V33.7548H53.3029V33.5424Z" fill="black"/>
<path opacity="0.05" d="M53.3029 38.1852H43.7305V38.3976H53.3029V38.1852Z" fill="black"/>
<path d="M53.3048 22.0104H43.2812V22.7544H53.3048V22.0104Z" fill="#E0E0E0"/>
<path opacity="0.05" d="M53.3025 22.0104H51.0117V22.7544H53.3025V22.0104Z" fill="black"/>
<path d="M30.0989 17.4696H19.2773V45.5952H30.0989V17.4696Z" fill="#E6E6E6"/>
<path d="M26.0923 17.4696H15.2695V45.5952H26.0923V17.4696Z" fill="#F0F0F0"/>
<path d="M25.1488 19.3788H16.2148V20.8116H25.1488V19.3788Z" fill="#E6E6E6"/>
<path d="M25.1497 19.3788H16.5625V20.8116H25.1497V19.3788Z" fill="#F5F5F5"/>
<path d="M25.1488 21.7908H16.2148V23.2236H25.1488V21.7908Z" fill="#E6E6E6"/>
<path d="M25.1497 21.7908H16.5625V23.2236H25.1497V21.7908Z" fill="#F5F5F5"/>
<path d="M25.1488 24.2964H16.2148V25.7292H25.1488V24.2964Z" fill="#E6E6E6"/>
<path d="M25.1497 24.2964H16.5625V25.7292H25.1497V24.2964Z" fill="#F5F5F5"/>
<path d="M25.1488 26.8032H16.2148V28.236H25.1488V26.8032Z" fill="#E6E6E6"/>
<path d="M25.1497 26.8032H16.5625V28.236H25.1497V26.8032Z" fill="#F5F5F5"/>
<path d="M25.1488 29.3088H16.2148V30.7416H25.1488V29.3088Z" fill="#E6E6E6"/>
<path d="M25.1497 29.3088H16.5625V30.7416H25.1497V29.3088Z" fill="#F5F5F5"/>
<path d="M25.1488 31.8156H16.2148V33.2484H25.1488V31.8156Z" fill="#E6E6E6"/>
<path d="M25.1497 31.8156H16.5625V33.2484H25.1497V31.8156Z" fill="#F5F5F5"/>
<path d="M25.1488 34.578H16.2148V36.0108H25.1488V34.578Z" fill="#E6E6E6"/>
<path d="M25.1497 34.578H16.5625V36.0108H25.1497V34.578Z" fill="#F5F5F5"/>
<path d="M25.1488 37.3392H16.2148V38.772H25.1488V37.3392Z" fill="#E6E6E6"/>
<path d="M25.1497 37.3392H16.5625V38.772H25.1497V37.3392Z" fill="#F5F5F5"/>
<path d="M25.1488 40.1016H16.2148V41.5344H25.1488V40.1016Z" fill="#E6E6E6"/>
<path d="M25.1497 40.1016H16.5625V41.5344H25.1497V40.1016Z" fill="#F5F5F5"/>
<path d="M25.1488 42.864H16.2148V44.2968H25.1488V42.864Z" fill="#E6E6E6"/>
<path d="M25.1497 42.864H16.5625V44.2968H25.1497V42.864Z" fill="#F5F5F5"/>
<path d="M30.38 17.1864H14.9648V17.8728H30.38V17.1864Z" fill="#F5F5F5"/>
<path d="M30.38 15.948H14.9648V16.6344H30.38V15.948Z" fill="#F5F5F5"/>
<path d="M29.8663 16.5H15.2695V17.1864H29.8663V16.5Z" fill="#F0F0F0"/>
<path d="M30.1015 19.3788H27.0859V20.8116H30.1015V19.3788Z" fill="#E0E0E0"/>
<path d="M30.1015 21.7368H27.0859V23.1696H30.1015V21.7368Z" fill="#E0E0E0"/>
<path d="M30.1015 24.0947H27.0859V25.5275H30.1015V24.0947Z" fill="#E0E0E0"/>
<path d="M30.1015 26.802H27.0859V28.2348H30.1015V26.802Z" fill="#E0E0E0"/>
<path d="M30.1015 29.3088H27.0859V30.7416H30.1015V29.3088Z" fill="#E0E0E0"/>
<path d="M30.1015 31.8156H27.0859V33.2484H30.1015V31.8156Z" fill="#E0E0E0"/>
<path d="M30.1015 34.5768H27.0859V36.0096H30.1015V34.5768Z" fill="#E0E0E0"/>
<path d="M30.1015 37.3392H27.0859V38.772H30.1015V37.3392Z" fill="#E0E0E0"/>
<path d="M30.1015 40.1016H27.0859V41.5344H30.1015V40.1016Z" fill="#E0E0E0"/>
<path d="M30.1015 42.864H27.0859V44.2968H30.1015V42.864Z" fill="#E0E0E0"/>
<path d="M44.0107 27.2988H42.8203V29.1612H44.0107V27.2988Z" fill="#E0E0E0"/>
<path d="M44.0107 30.3468H42.8203V32.2092H44.0107V30.3468Z" fill="#E0E0E0"/>
<path d="M44.0107 33.3096H42.8203V35.172H44.0107V33.3096Z" fill="#E0E0E0"/>
<path d="M44.0107 36.4415H42.8203V38.3039H44.0107V36.4415Z" fill="#E0E0E0"/>
<path d="M44.0107 39.4896H42.8203V41.352H44.0107V39.4896Z" fill="#E0E0E0"/>
<path d="M44.0112 25.4268H31.4844V44.478H44.0112V25.4268Z" fill="#E6E6E6"/>
<path d="M41.8944 25.4268H31.4844V44.478H41.8944V25.4268Z" fill="#F0F0F0"/>
<path d="M40.8867 27.2999H32.4219V29.1623H40.8867V27.2999Z" fill="#EBEBEB"/>
<path d="M40.8867 30.3468H32.4219V32.2092H40.8867V30.3468Z" fill="#EBEBEB"/>
<path d="M40.8867 33.3948H32.4219V35.2572H40.8867V33.3948Z" fill="#EBEBEB"/>
<path d="M40.8867 36.4415H32.4219V38.3039H40.8867V36.4415Z" fill="#EBEBEB"/>
<path d="M40.8867 39.4896H32.4219V41.352H40.8867V39.4896Z" fill="#EBEBEB"/>
<path d="M40.8833 27.2999H32.7305V29.1623H40.8833V27.2999Z" fill="#F5F5F5"/>
<path d="M40.8833 30.3468H32.7305V32.2092H40.8833V30.3468Z" fill="#F5F5F5"/>
<path d="M40.8833 33.3948H32.7305V35.2572H40.8833V33.3948Z" fill="#F5F5F5"/>
<path d="M40.8833 36.4415H32.7305V38.3039H40.8833V36.4415Z" fill="#F5F5F5"/>
<path d="M40.8833 39.4896H32.7305V41.352H40.8833V39.4896Z" fill="#F5F5F5"/>
<path d="M30.0012 51.3073C42.8511 51.3073 53.268 50.6991 53.268 49.9489C53.268 49.1986 42.8511 48.5905 30.0012 48.5905C17.1513 48.5905 6.73438 49.1986 6.73438 49.9489C6.73438 50.6991 17.1513 51.3073 30.0012 51.3073Z" fill="#F5F5F5"/>
<path d="M16.7652 49.9489H16.2852" stroke="#552166" stroke-linecap="round" stroke-linejoin="round"/>
<path d="M15.3791 49.9489H3.12109" stroke="#552166" stroke-linecap="round" stroke-linejoin="round" stroke-dasharray="7.57 7.57"/>
<path d="M2.6675 49.9489H2.1875" stroke="#552166" stroke-linecap="round" stroke-linejoin="round"/>
<path d="M45.3305 21.2245L31.4844 21.4541L31.6501 31.4499L45.4962 31.2203L45.3305 21.2245Z" fill="#552166"/>
<path opacity="0.3" d="M39.8439 21.3143L31.4727 21.4531L31.6384 31.449L40.0097 31.3101L39.8439 21.3143Z" fill="white"/>
<path opacity="0.3" d="M41.1061 21.9878L38.6953 22.036L38.7088 22.708L41.1196 22.6598L41.1061 21.9878Z" fill="white"/>
<path opacity="0.3" d="M41.1761 29.7607L38.7656 29.8007L38.7768 30.4726L41.1872 30.4326L41.1761 29.7607Z" fill="white"/>
<path d="M42.782 27.6227C43.5634 27.6227 44.1968 26.906 44.1968 26.0219C44.1968 25.1378 43.5634 24.4211 42.782 24.4211C42.0006 24.4211 41.3672 25.1378 41.3672 26.0219C41.3672 26.906 42.0006 27.6227 42.782 27.6227Z" stroke="white" stroke-miterlimit="10"/>
<path d="M42.8438 24.6648V24.9336" stroke="white" stroke-linecap="round" stroke-linejoin="round"/>
<path d="M42.9023 27.1272V27.396" stroke="white" stroke-linecap="round" stroke-linejoin="round"/>
<path d="M41.5898 25.9692H41.8598" stroke="white" stroke-linecap="round" stroke-linejoin="round"/>
<path d="M43.7578 25.9705H44.0278" stroke="white" stroke-linecap="round" stroke-linejoin="round"/>
<path d="M42.8398 25.9692L42.841 25.1412" stroke="white" stroke-width="0.5" stroke-linecap="round" stroke-linejoin="round"/>
<path d="M42.8945 26.0232L43.4801 26.6088" stroke="white" stroke-width="0.5" stroke-linecap="round" stroke-linejoin="round"/>
<path d="M42.9725 25.9704C42.9725 25.9963 42.9649 26.0216 42.9505 26.0431C42.9361 26.0646 42.9157 26.0813 42.8918 26.0912C42.8679 26.1011 42.8416 26.1037 42.8162 26.0987C42.7908 26.0936 42.7675 26.0812 42.7492 26.0629C42.731 26.0446 42.7185 26.0213 42.7135 25.9959C42.7084 25.9705 42.711 25.9442 42.7209 25.9203C42.7308 25.8964 42.7476 25.876 42.7691 25.8616C42.7906 25.8473 42.8159 25.8396 42.8417 25.8396C42.859 25.8394 42.876 25.8427 42.892 25.8492C42.9079 25.8558 42.9224 25.8654 42.9346 25.8776C42.9468 25.8897 42.9564 25.9042 42.9629 25.9202C42.9694 25.9361 42.9727 25.9532 42.9725 25.9704Z" fill="white"/>
<path opacity="0.3" d="M42.7834 28.0464C43.8179 28.0464 44.6566 27.14 44.6566 26.022C44.6566 24.9039 43.8179 23.9976 42.7834 23.9976C41.7488 23.9976 40.9102 24.9039 40.9102 26.022C40.9102 27.14 41.7488 28.0464 42.7834 28.0464Z" fill="white"/>
<path d="M27.2266 43.578C27.4354 43.7376 31.627 43.2864 30.5434 35.85C30.5434 35.85 32.5318 36.3552 32.7454 36.3216C32.7454 36.3216 35.6626 40.794 33.5386 43.0092C31.4146 45.2244 28.249 45.36 28.249 45.36L27.2266 43.578Z" fill="#552166"/>
<path opacity="0.3" d="M27.2266 43.578C27.4354 43.7376 31.627 43.2864 30.5434 35.85C30.5434 35.85 32.5318 36.3552 32.7454 36.3216C32.7454 36.3216 35.6626 40.794 33.5386 43.0092C31.4146 45.2244 28.249 45.36 28.249 45.36L27.2266 43.578Z" fill="black"/>
<path d="M31.8713 37.0009C31.8821 37.0009 30.7001 37.0237 30.3041 36.5317C29.9081 36.0397 29.6405 35.1601 30.3605 34.5601C31.0805 33.9601 35.3081 31.3681 37.2989 31.1641C39.2897 30.9601 41.4209 32.2441 41.4209 32.2441L38.8145 34.1713L33.2021 35.5297L31.8713 37.0009Z" fill="#263238"/>
<path d="M28.0508 42.4068L28.16 43.482L29.4512 43.3728L29.2568 42.2676L28.0508 42.4068Z" fill="#FFC3BD"/>
<path d="M27.7988 43.404L29.672 43.3776L29.8052 44.3232C29.8052 44.3232 28.0508 44.3472 27.3296 44.2512C26.6084 44.1552 26.7212 43.7796 26.7212 43.7796C26.7212 43.7796 27.566 43.8 27.7988 43.404Z" fill="#263238"/>
<path d="M44.1474 46.1256C44.4271 43.3769 42.7676 40.9566 40.4408 40.7198C38.114 40.4831 36.001 42.5195 35.7213 45.2683C35.4416 48.017 37.1011 50.4373 39.4279 50.674C41.7547 50.9108 43.8677 48.8744 44.1474 46.1256Z" fill="#263238"/>
<path d="M36.9902 30.3948C36.9902 30.3948 37.1846 34.8552 34.5902 34.9824C31.9958 35.1096 29.2082 34.8252 29.2082 34.8252L30.0254 42.84L27.593 42.99C27.593 42.99 25.847 36.1908 25.5722 34.482C25.2974 32.7732 25.5362 31.5648 27.3398 30.8064C29.1434 30.048 36.9902 30.3948 36.9902 30.3948Z" fill="#552166"/>
<path d="M22.4705 44.5464L25.7021 35.16L30.0221 30.3912C30.0221 30.3912 26.2517 30.4056 24.4397 31.4472C22.6277 32.4888 22.5605 33.7404 22.2281 35.2296C21.8957 36.7188 20.5625 43.7676 20.5625 43.7676L22.4705 44.5464Z" fill="#552166"/>
<path opacity="0.7" d="M36.9893 30.3948C36.9893 30.3948 32.9741 30.216 30.0293 30.3948C30.0293 30.3948 26.2589 30.4092 24.4469 31.4508C22.6349 32.4924 22.5605 33.7404 22.2281 35.2296C21.8957 36.7188 20.5625 43.7676 20.5625 43.7676L22.4705 44.5464L25.7021 35.16C26.2457 37.7616 27.5921 42.9852 27.5921 42.9852L30.0245 42.84L29.2061 34.83C29.2061 34.83 31.9925 35.1144 34.5881 34.9872C37.1837 34.86 36.9893 30.3948 36.9893 30.3948Z" fill="black"/>
<path d="M30.3605 23.16L28.8689 23.3412C28.8689 23.3412 28.6097 26.0832 28.3685 26.616C28.3685 26.616 23.7809 27.246 21.9017 27.192L20.9477 27.84L20.9141 28.9668L21.8489 28.9944L22.1501 28.2804C22.1501 28.2804 22.7813 28.2528 22.9277 27.8976C22.9277 27.8976 27.8021 29.0748 29.5973 27.7308C29.5997 27.732 30.6821 26.142 30.3605 23.16Z" fill="#FFC3BD"/>
<path d="M34.6368 15.8173C34.6368 15.8173 35.1036 16.4173 34.926 16.9369C34.877 17.085 34.7906 17.2181 34.6752 17.3232C34.5598 17.4283 34.4193 17.5019 34.2672 17.5369C34.2672 17.5369 34.1796 18.3685 33.6888 18.3925C33.198 18.4165 33.3624 16.5601 33.3624 16.5601L34.6368 15.8173Z" fill="#263238"/>
<path d="M30.8565 30.4152L30.5289 25.0548L28.4961 23.7036C28.4961 23.7036 29.1609 21.36 30.4329 20.9628C31.7049 20.5656 34.4793 19.6548 36.1617 20.1072C37.8441 20.5596 37.6509 22.5444 37.3617 24.0168L37.0377 24.0936C37.0377 24.0936 36.9873 29.8956 36.9849 30.3948L30.8565 30.4152Z" fill="#263238"/>
<path d="M34.5124 20.4384C33.8464 21.0828 32.488 21.4668 32.1124 21.1464C31.7368 20.826 32.2108 20.532 32.5636 20.1696C32.7544 19.9704 32.7484 19.5972 32.704 19.2996C32.6807 19.1497 32.6462 19.0017 32.6008 18.8568C31.354 18.7884 30.8368 18.2052 30.7852 17.1768C30.7336 16.1484 31.1992 14.9544 31.1992 14.9544L32.08 14.2032C32.08 14.2032 33.28 14.3832 34.24 15.0432C34.8112 15.432 34.642 16.1976 34.4056 16.7628C34.3055 17.0034 34.1851 17.2351 34.0456 17.4552C33.9112 18.8628 34.5124 20.4384 34.5124 20.4384Z" fill="#FFC3BD"/>
<path d="M31.4805 17.46C31.4805 17.46 31.9605 17.4828 32.1705 17.1852" stroke="#263238" stroke-linecap="round" stroke-linejoin="round"/>
<path d="M32.2449 16.2457C32.2449 16.3369 32.1897 16.4089 32.1249 16.4077C32.0601 16.4065 32.0133 16.3309 32.0157 16.2397C32.0181 16.1485 32.0709 16.0765 32.1357 16.0777C32.2005 16.0789 32.2485 16.1545 32.2449 16.2457Z" fill="#263238"/>
<path d="M31.1512 16.2745C31.1512 16.3657 31.096 16.4377 31.0312 16.4365C30.9664 16.4353 30.9196 16.3597 30.922 16.2685C30.9244 16.1773 30.9772 16.1053 31.042 16.1065C31.1068 16.1077 31.1548 16.1845 31.1512 16.2745Z" fill="#263238"/>
<path d="M31.5297 17.0197L31.4805 16.2841L31.1289 16.9825C31.1838 17.0291 31.2517 17.0577 31.3234 17.0644C31.3951 17.071 31.4672 17.0554 31.5297 17.0197Z" fill="#ED847E"/>
<path d="M32.1875 15.6696C32.2795 15.6443 32.3776 15.6525 32.4642 15.6927C32.5507 15.7329 32.6202 15.8025 32.6603 15.8892" stroke="#263238" stroke-linecap="round" stroke-linejoin="round"/>
<path d="M30.8125 15.8052C30.8125 15.8052 31.0333 15.5652 31.2925 15.6264" stroke="#263238" stroke-linecap="round" stroke-linejoin="round"/>
<path d="M34.417 16.7628C33.0442 16.812 32.8738 15.2556 32.8738 15.2556C32.1946 15.6156 31.207 14.9556 31.207 14.9556L32.0878 14.202C32.0878 14.202 33.2878 14.3844 34.2478 15.042C34.8226 15.432 34.6534 16.2 34.417 16.7628Z" fill="#263238"/>
<path d="M30.7639 15.4116C30.7639 15.4116 30.0535 14.9388 30.3667 14.598C30.6799 14.2572 32.5987 14.9052 34.0327 15.6996C34.0327 15.6996 30.7483 13.5024 29.8555 14.1972C29.1175 14.772 30.7543 15.57 30.7051 15.5688L30.7639 15.4116Z" fill="#552166"/>
<path d="M34.7711 15.2508C34.769 15.4996 34.7219 15.746 34.6319 15.978L31.4062 14.418C31.5399 14.2637 31.7 14.1345 31.8791 14.0364C32.07 13.9272 32.2775 13.8502 32.4934 13.8084C32.7224 13.7646 32.9568 13.7565 33.1883 13.7844C34.3679 13.92 34.7771 14.8272 34.7711 15.2508Z" fill="#552166"/>
<path d="M27.3628 29.5992C27.1528 29.8188 24.4372 29.256 23.9632 29.508C23.7628 29.6136 23.6752 29.988 23.4736 30.3984C23.1988 30.9564 22.7104 31.5684 21.4336 31.6092C19.216 31.68 19.4836 29.43 19.3084 28.6992C19.3084 28.6992 17.2084 28.3164 17.098 27.948C16.9876 27.5796 17.1232 27.5244 17.1232 27.5244C17.1232 27.5244 19.714 28.0044 20.2156 27.3492C20.3127 27.2543 20.4267 27.1782 20.5516 27.1248C20.8395 26.9982 21.1492 26.9285 21.4636 26.9196C22.3768 26.8716 23.4904 27.1284 23.8024 27.7068C24.436 28.8864 27.1528 28.6212 27.4024 28.9308C27.652 29.2404 27.5728 29.3796 27.3628 29.5992Z" fill="#552166"/>
<path d="M20.4843 31.1364C20.4843 31.1364 16.8411 36.1764 19.8411 43.9344" stroke="#263238" stroke-linecap="round" stroke-linejoin="round"/>
<path d="M25.2955 33.7548C25.2955 33.7548 25.2955 33.7644 25.2955 33.7836C25.2955 33.8028 25.2955 33.8136 25.2955 33.8352V33.8472C25.2521 34.3326 25.1719 34.8139 25.0555 35.2872C24.8899 35.9868 24.6703 36.6528 24.4891 37.188C23.7211 39.462 23.8099 41.9124 23.8099 41.9124C23.5555 41.5956 23.0899 41.37 22.5079 41.2116C20.3887 40.6296 16.7911 40.9416 16.7911 40.9416C16.0855 38.466 16.3375 34.5912 17.0395 32.4216C17.7415 30.252 19.6879 30.7416 19.6879 30.7416C19.6879 30.7416 21.7423 30.8016 22.0003 30.774C22.4725 30.7167 22.9504 30.7264 23.4199 30.8028C25.0063 31.0932 25.3879 32.3472 25.2955 33.7548Z" fill="#552166"/>
<path d="M41.1107 43.2C37.5107 46.4496 30.5615 46.7904 25.3907 46.4304L22.4939 41.2188L21.3203 39.108L25.0907 34.026L25.2899 33.7584C25.2899 33.7584 25.2899 33.768 25.2899 33.7872C25.2899 33.8064 25.2899 33.8172 25.2899 33.8388V33.8508C25.2383 34.7568 24.9047 42.0276 27.5699 43.8108L27.5915 43.8264C27.9522 44.0595 28.3706 44.1875 28.7999 44.196C33.6899 44.3376 33.5531 37.956 32.3099 36.5892L40.7951 34.884C40.7951 34.884 42.4703 39.102 41.1107 43.2Z" fill="#552166"/>
<path d="M31.6747 35.2056C31.6747 35.2056 30.8791 35.8656 31.2895 36.7512C31.6999 37.6368 35.6563 35.9172 37.2139 35.604C38.7715 35.2908 40.5739 34.9848 41.3491 34.8252C42.1243 34.6656 42.0571 32.442 41.4235 32.2452C40.7899 32.0484 34.5835 33.1452 33.5539 33.7476C32.874 34.1605 32.2435 34.6497 31.6747 35.2056Z" fill="#263238"/>
<path d="M33.6667 17.3124C33.5909 17.2309 33.5451 17.1261 33.5366 17.0152C33.5281 16.9043 33.5574 16.7937 33.6199 16.7016C33.8119 16.4136 34.1995 15.9564 34.5715 16.2984C35.0923 16.7784 34.2031 17.6508 33.8347 17.4396C33.7729 17.4053 33.7164 17.3625 33.6667 17.3124Z" fill="#FFC3BD"/>
<path opacity="0.2" d="M30.765 15.4116C30.765 15.4116 30.0546 14.9388 30.3678 14.598C30.507 14.4468 30.9234 14.478 31.4862 14.6388C31.8481 14.7362 32.2026 14.8594 32.547 15.0072C33.0414 15.222 33.567 15.4968 34.0338 15.6996C34.0338 15.6996 30.7494 13.5024 29.8566 14.1972C29.1186 14.772 30.6534 15.5172 30.7074 15.5676L30.7338 15.4704L30.765 15.4116Z" fill="black"/>
<path d="M31.1011 15.2064C31.1011 15.2064 30.3811 15.3264 30.8779 16.1016L31.1011 15.2064Z" fill="#263238"/>
<path d="M31.791 14.7336C31.791 14.7336 30.705 14.352 30.4026 14.568C30.1002 14.784 30.417 15.1956 30.7626 15.408L31.0398 15.444L31.203 14.952L31.6254 14.9004L31.791 14.7336Z" fill="#263238"/>
<path opacity="0.3" d="M33.2709 14.1468L33.0105 14.532L31.8789 14.04C32.0698 13.9308 32.2774 13.8538 32.4933 13.812L33.2709 14.1468Z" fill="white"/>
<path opacity="0.1" d="M33.0189 18.7512C32.944 18.9504 32.8365 19.1357 32.7009 19.2996C32.6775 19.1497 32.643 19.0017 32.5977 18.8568C32.7432 18.8467 32.8858 18.8109 33.0189 18.7512Z" fill="black"/>
<path d="M22.2616 29.304C22.2136 30.1356 21.8536 30.8161 21.412 30.9841C21.3356 31.0135 21.2537 31.0262 21.172 31.0213C20.6272 30.9901 20.2312 30.1728 20.2864 29.1972C20.3416 28.2216 20.8288 27.456 21.3736 27.4872C21.5956 27.4992 21.7912 27.642 21.9436 27.8712C22.168 28.2 22.294 28.7256 22.2616 29.304Z" fill="#F5F5F5"/>
<path d="M22.2627 29.304C22.2147 30.1356 21.8547 30.816 21.4131 30.984C20.9091 30.9552 20.5431 30.2004 20.5947 29.304C20.6463 28.4076 21.0951 27.696 21.5991 27.7248C21.729 27.7345 21.8519 27.7873 21.9483 27.8748C22.1691 28.2 22.2951 28.7256 22.2627 29.304Z" fill="white"/>
<path d="M41.7108 41.0916C40.7832 40.44 37.194 39.8004 37.194 39.8004C35.0136 39.8004 33.0996 41.7624 32.8356 44.3676C32.6196 46.4868 33.5556 48.4104 35.064 49.2876C35.064 49.2876 35.19 49.3404 35.4012 49.4232C36.2004 49.7388 38.2284 50.5032 39.4272 50.6712" fill="#263238"/>
<path opacity="0.3" d="M44.1474 46.1256C44.4271 43.3769 42.7676 40.9566 40.4408 40.7198C38.114 40.4831 36.001 42.5195 35.7213 45.2683C35.4416 48.017 37.1011 50.4373 39.4279 50.674C41.7547 50.9108 43.8677 48.8744 44.1474 46.1256Z" fill="black"/>
<path d="M25.4911 45.9656C25.7708 43.2168 24.1113 40.7966 21.7845 40.5598C19.4577 40.3231 17.3447 42.3594 17.065 45.1082C16.7853 47.857 18.4448 50.2773 20.7716 50.514C23.0984 50.7508 25.2114 48.7144 25.4911 45.9656Z" fill="#263238"/>
<path d="M23.8683 41.4768L21.7227 50.4852C21.4097 50.5359 21.0913 50.5452 20.7759 50.5128H20.7519C20.3403 50.4072 20.5239 50.5212 20.1111 50.3844C19.0611 50.0376 17.5359 49.4244 17.5359 49.4244C15.9195 48.6384 15.0063 46.7268 15.2283 44.5428C15.4971 41.8968 17.3955 39.9204 19.6299 40.0824C19.6299 40.0824 20.6907 40.278 21.7827 40.5624C22.2627 40.6824 22.7427 40.8252 23.1375 40.974C23.3989 41.1142 23.644 41.2828 23.8683 41.4768Z" fill="#263238"/>
<path opacity="0.3" d="M25.4923 45.96C25.2523 48.33 23.6479 50.1696 21.7195 50.4804C21.4064 50.5311 21.0881 50.5404 20.7727 50.508H20.7487C20.3093 50.4605 19.8823 50.3333 19.4887 50.1324C17.8675 49.3104 16.8415 47.3136 17.0659 45.1056C17.3455 42.3588 19.4539 40.3248 21.7795 40.5576H21.7855C22.2576 40.6053 22.7159 40.7451 23.1343 40.9692C23.3957 41.1097 23.6408 41.2787 23.8651 41.4732C25.0135 42.4716 25.6819 44.1468 25.4923 45.96Z" fill="black"/>
<path d="M24.907 42.804C24.8366 42.6917 24.7563 42.5861 24.667 42.4884C24.1306 41.7564 22.9042 41.4828 22.1014 41.5476C21.4859 41.6076 20.8951 41.8196 20.3818 42.1644C19.7962 42.5436 19.3774 43.1244 18.7966 43.5228C17.695 44.2836 16.0234 44.262 14.917 43.4784C14.8546 43.434 14.7952 43.3855 14.7394 43.3332C14.6266 43.2158 14.5514 43.0675 14.5234 42.9072C14.481 42.707 14.4964 42.4989 14.5678 42.3072C14.8078 41.6328 15.6082 41.04 16.1134 40.6788C17.1376 39.9561 18.3423 39.532 19.5934 39.4536C23.161 39.2076 24.6826 42.2544 24.907 42.804Z" fill="#552166"/>
<path opacity="0.3" d="M24.6589 42.9C23.8921 41.7936 22.9081 41.4828 22.1053 41.5476C21.4899 41.6076 20.899 41.8196 20.3857 42.1644C19.8001 42.5436 19.3813 43.1244 18.8005 43.5228C17.6989 44.2836 16.0273 44.262 14.9209 43.4784C14.8585 43.434 14.7991 43.3855 14.7433 43.3332C14.6305 43.2158 14.5553 43.0675 14.5273 42.9072C14.4849 42.707 14.5003 42.4989 14.5717 42.3072C14.9425 42.7356 16.0225 43.7676 17.4853 43.2672C19.3093 42.6372 19.7545 40.7652 21.7045 40.782C23.2537 40.8 24.2077 42 24.6589 42.9Z" fill="black"/>
<g opacity="0.3">
<path d="M16.6367 40.3488C17.1571 39.979 17.7425 39.7107 18.3623 39.558C18.9827 39.4001 19.6253 39.3474 20.2631 39.402C20.9 39.4633 21.5236 39.6219 22.1123 39.8724L22.3307 39.9684L22.5443 40.0752C22.6883 40.1424 22.8239 40.2264 22.9631 40.3032C23.1023 40.38 23.2307 40.4748 23.3639 40.56C23.4971 40.6452 23.6219 40.7448 23.7491 40.8396C23.2258 40.489 22.6671 40.1941 22.0823 39.96C21.4986 39.7258 20.8836 39.5791 20.2571 39.5244C19.6319 39.4646 19.0012 39.5051 18.3887 39.6444C18.0813 39.7126 17.7799 39.8057 17.4875 39.9228C17.1908 40.037 16.9059 40.1797 16.6367 40.3488Z" fill="black"/>
</g>
<g opacity="0.3">
<path d="M20.5201 39.4908C20.3704 38.9904 20.2806 38.474 20.2525 37.9524C20.2129 37.4328 20.2045 36.9108 20.2153 36.3924C20.2261 35.874 20.2621 35.3508 20.3101 34.8324L20.3977 34.0572C20.4361 33.7992 20.4697 33.5412 20.5177 33.2844L20.4085 34.8444L20.3653 35.622C20.3581 35.8812 20.3425 36.1404 20.3413 36.3996C20.3209 36.918 20.3305 37.4364 20.3497 37.9596C20.3581 38.2188 20.3785 38.4768 20.4049 38.7348C20.4259 38.9892 20.4644 39.2418 20.5201 39.4908Z" fill="black"/>
</g>
<path opacity="0.3" d="M27.5663 43.8C25.0607 42.1884 24.9611 38.0304 25.0463 35.2872C25.0619 34.8156 25.0811 34.3872 25.0955 34.0188C25.1218 33.6501 25.1218 33.2799 25.0955 32.9112C24.8423 31.0272 23.4023 30.8004 23.4023 30.8004H23.4083C25.0031 31.0932 25.3847 32.3472 25.2923 33.7548C25.2923 33.7548 25.2923 33.7644 25.2923 33.7836C25.2923 33.8028 25.2923 33.8136 25.2923 33.8352V33.8472C25.2383 34.7532 24.9047 42.024 27.5663 43.8Z" fill="black"/>
<path opacity="0.2" d="M27.3605 29.5992C27.1505 29.8188 24.4349 29.256 23.9609 29.508C23.7605 29.6136 23.6729 29.988 23.4713 30.3984C22.9049 31.2984 22.1081 31.44 22.0589 31.4472C23.0093 30.7272 23.2745 28.9944 22.8029 27.8988C22.3313 26.8032 20.6429 27.0876 20.5469 27.12C20.8348 26.9935 21.1445 26.9238 21.4589 26.9148C22.3721 26.8668 23.4857 27.1236 23.7977 27.702C24.4313 28.8816 27.1481 28.6164 27.3977 28.926C27.6473 29.2356 27.5705 29.3796 27.3605 29.5992Z" fill="black"/>
<path d="M25.2361 28.5516C25.0711 28.8563 25.0052 29.2049 25.0477 29.5488L27.3481 29.808C27.4657 29.6719 27.5527 29.5121 27.603 29.3394C27.6533 29.1667 27.6658 28.9852 27.6397 28.8072C27.6397 28.8072 25.3609 28.578 25.2361 28.5516Z" fill="#263238"/>
<path d="M18.2475 28.4664C18.2475 28.4664 18.0183 27.9792 18.2931 27.6708C17.6787 27.6156 17.2983 27.5508 16.9023 27.4932C16.8435 27.672 16.8147 27.8436 17.0223 28.116C17.2299 28.3884 18.2475 28.4664 18.2475 28.4664Z" fill="#263238"/>
<path d="M16.9723 31.5156C16.5739 32.1648 16.2331 33.204 16.2031 34.8636" stroke="#552166" stroke-linecap="round" stroke-linejoin="round"/>
<path d="M18.2833 30.4452C17.9935 30.5124 17.727 30.6562 17.5117 30.8616" stroke="#552166" stroke-linecap="round" stroke-linejoin="round"/>
<path d="M36.1775 24.1896L34.6631 24.3744C34.6631 24.3744 34.3991 27.1572 34.1543 27.6984C34.1543 27.6984 29.4971 28.3392 27.5879 28.2828L26.6195 28.9404L26.5859 30.0852L27.5351 30.1128L27.8411 29.3928C27.8411 29.3928 28.4819 29.3652 28.6295 29.004C28.6295 29.004 33.5783 30.204 35.4011 28.836C35.3999 28.8312 36.5003 27.2172 36.1775 24.1896Z" fill="#FFC3BD"/>
<path opacity="0.2" d="M23.8474 45.6001C23.8042 47.1097 22.8154 48.3049 21.6382 48.2713C21.48 48.2665 21.3232 48.2395 21.1726 48.1909C20.2294 47.8909 19.5502 46.7785 19.5874 45.4765C19.6246 44.2165 20.3194 43.1749 21.2326 42.8857C21.4151 42.827 21.6062 42.7998 21.7978 42.8053C22.975 42.8401 23.8918 44.0953 23.8474 45.6001Z" fill="#FAFAFA"/>
<path d="M22.7638 45.6C22.7266 46.8888 22.0438 47.9484 21.1726 48.1944C20.2294 47.8944 19.5502 46.782 19.5874 45.48C19.6246 44.22 20.3194 43.1784 21.2326 42.8892C22.1398 43.1352 22.801 44.2656 22.7638 45.6Z" fill="#263238"/>
<path opacity="0.2" d="M42.3358 45.7201C42.2914 47.2297 41.3026 48.4261 40.1266 48.3913C39.9683 48.3872 39.8115 48.3601 39.661 48.3109C38.7166 48.0109 38.0374 46.8997 38.0758 45.5965C38.1118 44.3377 38.8066 43.2949 39.7198 43.0057C39.9022 42.947 40.0934 42.9198 40.285 42.9252C41.4622 42.96 42.379 44.2129 42.3358 45.7201Z" fill="#FAFAFA"/>
<path d="M41.2522 45.7201C41.2138 47.0077 40.5322 48.0673 39.661 48.3133C38.7166 48.0133 38.0374 46.9021 38.0758 45.5989C38.1118 44.3401 38.8066 43.2973 39.7198 43.0081C40.6282 43.2541 41.2906 44.3845 41.2522 45.7201Z" fill="#263238"/>
<path d="M44.1911 41.7432C44.2115 43.2276 41.9519 44.2104 38.1707 44.8296C37.1515 45.0088 36.1099 45.021 35.0867 44.8656C33.4067 44.5884 32.5859 43.878 32.5859 43.878C32.5859 43.878 33.0131 38.748 37.2407 38.0976C40.1207 37.656 42.2879 38.8176 43.3871 40.0692C43.9043 40.6572 44.1851 41.268 44.1911 41.7432Z" fill="#552166"/>
<path opacity="0.3" d="M44.1903 41.7431C44.2107 43.2275 41.9511 44.2103 38.1699 44.8295C37.1507 45.0088 36.1091 45.0209 35.0859 44.8656C35.2671 43.4724 36.0807 39.8184 39.6171 39.4392C41.2215 39.2664 42.4599 39.5904 43.3863 40.0692C43.9035 40.6572 44.1843 41.2679 44.1903 41.7431Z" fill="black"/>
<g opacity="0.3">
<path d="M32.832 43.9008C32.9098 43.2025 33.0764 42.5169 33.3276 41.8608C33.5747 41.1978 33.9158 40.5739 34.3404 40.008C34.555 39.7267 34.7961 39.4667 35.0604 39.2316C35.3224 38.9926 35.6111 38.7849 35.9208 38.6124C36.5372 38.2648 37.2202 38.0517 37.9248 37.9872C37.5795 38.045 37.2399 38.1326 36.9096 38.2488C36.7428 38.2992 36.5856 38.3772 36.4296 38.4432C36.2731 38.5181 36.1205 38.6011 35.9724 38.6916C35.8212 38.778 35.682 38.8824 35.5392 38.9796C35.3964 39.0768 35.2644 39.192 35.1384 39.3132C34.8822 39.546 34.6487 39.8028 34.4412 40.08C34.0197 40.635 33.6761 41.245 33.42 41.8932C33.2871 42.216 33.1725 42.5462 33.0768 42.882C32.975 43.2164 32.8933 43.5566 32.832 43.9008Z" fill="black"/>
</g>
<path d="M27.1562 42.2064L27.4059 43.0536L30.023 42.8352L30.0579 41.6508L27.1562 42.2064Z" fill="#552166"/>
<path d="M42.7383 36.4285L48.4971 36.1945" stroke="#552166" stroke-linecap="round" stroke-linejoin="round"/>
<path d="M50.3984 35.1456L51.254 35.1108" stroke="#552166" stroke-linecap="round" stroke-linejoin="round"/>
<path d="M45.5 35.3448L49.7456 35.172" stroke="#552166" stroke-linecap="round" stroke-linejoin="round"/>
<path d="M48.4688 38.3256L52.0267 38.1816" stroke="#552166" stroke-linecap="round" stroke-linejoin="round"/>
<path d="M46.2695 38.4157L47.8199 38.3521" stroke="#552166" stroke-linecap="round" stroke-linejoin="round"/>
</svg>
