<svg width="30" height="25" viewBox="0 0 30 25" fill="none" xmlns="http://www.w3.org/2000/svg">
<g clip-path="url(#clip0_4315_253186)">
<path d="M17.0442 5.10016C17.0611 5.11994 17.0827 5.13492 17.1068 5.14368C17.1309 5.15245 17.1568 5.1547 17.182 5.15024L18.6898 4.86843L17.0166 9.56894C17.0046 9.60335 17.0049 9.64109 17.0174 9.67531C17.03 9.70953 17.054 9.73798 17.0851 9.7555C17.1068 9.76709 17.1309 9.77314 17.1554 9.77318C17.1782 9.77326 17.2008 9.76779 17.2213 9.75722C17.2417 9.74664 17.2595 9.73126 17.2732 9.7123L22.0493 3.09506C22.0664 3.07165 22.0766 3.04362 22.0787 3.01434C22.0808 2.98507 22.0746 2.9558 22.0609 2.93007C22.0473 2.90433 22.0267 2.88323 22.0017 2.86929C21.9767 2.85536 21.9484 2.84919 21.9201 2.85154L20.2878 2.76709L21.5115 0.219958C21.5226 0.196672 21.5278 0.170849 21.5266 0.144914C21.5255 0.118979 21.5179 0.0937836 21.5047 0.0716945C21.4915 0.0496053 21.4731 0.0313467 21.4512 0.0186348C21.4293 0.00592295 21.4046 -0.000825207 21.3795 -0.000976562H18.705C18.6739 -0.000897838 18.6437 0.00930156 18.6187 0.0281686C18.5936 0.0470356 18.5749 0.0736058 18.5653 0.104089L17.0157 4.95287C17.0079 4.9779 17.0064 5.00457 17.0114 5.03035C17.0164 5.05613 17.0277 5.08016 17.0442 5.10016Z" fill="currentColor"/>
<path d="M28.8294 12.8092C28.0465 11.8676 27.372 11.57 27.372 11.57H27.428L26.4599 9.00229C25.278 6.37661 23.7768 3.02429 22.7317 2.877C22.7481 2.98696 22.7433 3.09919 22.7175 3.20721C22.6917 3.31523 22.6456 3.41692 22.5816 3.50642L21.5071 5.0019C21.6749 5.13169 21.809 5.30238 21.8975 5.49876C22.6804 7.17885 23.4291 8.87661 24.2633 10.7256L20.9056 10.6971C20.9056 10.7069 10.8632 10.6402 5.73744 10.5989C6.60582 8.68022 7.36495 6.86757 8.33404 5.1649C8.59056 4.71518 9.07036 4.60029 9.56916 4.60618L12.4755 4.64055C12.5591 4.62484 14.408 4.64055 16.4174 4.65332L17.0312 2.72578C13.0284 2.70123 8.29034 2.75131 7.28229 2.87602C6.30845 2.9968 4.93271 5.93965 3.78975 8.47303L2.61164 11.5907C2.61164 11.5907 1.99313 11.8656 1.25301 12.715C0.94922 13.1477 0.720639 13.6319 0.577495 14.1457L0.256364 15.7217C-0.001111 17.8034 0.256364 20.1845 0.818818 21.3432C0.793637 21.3818 0.780082 21.4273 0.779863 21.4738V23.8089C0.780367 24.1248 0.902078 24.4276 1.1183 24.6509C1.33453 24.8741 1.62761 24.9997 1.93327 24.9999H4.91751C5.19469 24.9999 5.46051 24.8861 5.65651 24.6836C5.8525 24.481 5.96261 24.2063 5.96261 23.9198V22.6246C7.15213 22.712 8.49365 22.7798 9.91594 22.821L10.9249 22.8505C15.3704 22.9624 20.4163 22.8839 24.0457 22.6138V23.855C24.0459 24.1581 24.1625 24.4486 24.3699 24.6629C24.5772 24.8772 24.8584 24.9977 25.1516 24.998H28.0104C28.3329 24.9977 28.6421 24.8652 28.8701 24.6296C29.0981 24.3939 29.2263 24.0744 29.2265 23.7411V21.4738C29.2257 21.4236 29.2098 21.3749 29.1809 21.3344C30.0474 19.5414 30.1956 14.8212 28.8294 12.8092ZM4.66764 18.4809C4.29048 18.4799 3.92206 18.3634 3.60893 18.1461C3.2958 17.9289 3.05202 17.6205 2.90838 17.2601C2.76474 16.8997 2.72769 16.5033 2.80191 16.1211C2.87614 15.739 3.0583 15.3881 3.32539 15.1129C3.59249 14.8377 3.93252 14.6504 4.30252 14.5749C4.67253 14.4993 5.05591 14.5388 5.40422 14.6883C5.75252 14.8378 6.05013 15.0907 6.25944 15.415C6.46875 15.7392 6.58036 16.1203 6.58017 16.5102C6.58005 16.7694 6.53045 17.0261 6.43422 17.2655C6.338 17.505 6.19702 17.7224 6.01938 17.9055C5.84173 18.0885 5.6309 18.2336 5.39895 18.3323C5.167 18.431 4.91849 18.4815 4.66764 18.4809ZM25.3274 18.4809C24.95 18.4811 24.581 18.3656 24.2671 18.149C23.9532 17.9324 23.7086 17.6245 23.564 17.2642C23.4195 16.9038 23.3817 16.5073 23.4552 16.1247C23.5288 15.7422 23.7106 15.3908 23.9774 15.115C24.2443 14.8391 24.5843 14.6513 24.9545 14.5753C25.3246 14.4992 25.7083 14.5384 26.0569 14.6877C26.4056 14.8371 26.7035 15.09 26.9131 15.4143C27.1226 15.7387 27.2344 16.1201 27.2342 16.5102C27.234 17.0327 27.033 17.5339 26.6754 17.9034C26.3179 18.2729 25.833 18.4806 25.3274 18.4809Z" fill="currentColor"/>
</g>
<defs>
<clipPath id="clip0_4315_253186">
<rect width="29.6875" height="25" fill="white" transform="translate(0.15625)"/>
</clipPath>
</defs>
</svg>
