<svg width="24" height="24" viewBox="0 0 24 24" fill="none" xmlns="http://www.w3.org/2000/svg">
<path d="M9.09961 9.27051L15.2598 11.5703C16.3798 11.9903 17.1299 13.0705 17.1299 14.2705H19.1299C20.7899 14.2705 22.1299 15.6105 22.1299 17.2705V18.2705L14.1299 20.7705L7.12988 18.8301V20.2705H1.12988V9.27051H9.09961ZM7.12988 11.2705V16.75L14.0996 18.6797L20.0303 16.8398C19.8703 16.5098 19.5199 16.2803 19.1299 16.2803H13.7803C13.2404 16.2803 12.7101 16.1904 12.2002 16.0205L9.82031 15.2305L10.4502 13.3301L12.8301 14.1201C13.1408 14.2201 15.1299 14.2705 15.1299 14.2705C15.1299 13.9005 14.8996 13.5704 14.5596 13.4404L8.74023 11.2705H7.12988ZM3.12988 11.2705V18.2705H5.12988V11.2705H3.12988ZM18.7441 2.22266C19.7047 2.58321 20.3165 3.41842 20.3604 4.46484L18.3691 4.5C18.3516 4.17473 18.2724 3.8584 17.5479 3.8584C17.1201 3.85844 16.6224 3.99029 16.6221 4.35059C16.6221 4.45613 16.6227 4.70291 17.8018 5.01074C18.6055 5.22189 20.5 5.71486 20.5 7.66699C20.4999 8.70465 19.8444 9.48712 18.7354 9.8125V11H16.3516V9.79492C15.2425 9.44316 14.5613 8.61674 14.5 7.53516L16.4824 7.47363L16.4912 7.48242C16.5087 7.66743 16.5532 8.14156 17.5566 8.1416C18.1328 8.1416 18.4734 7.96583 18.4736 7.67578C18.4736 7.50868 18.4738 7.16523 17.2949 6.88379C16.6312 6.72548 14.5957 6.23273 14.5957 4.35938C14.5959 3.3481 15.26 2.53926 16.3604 2.1875V1H18.7441V2.22266Z" fill="currentColor"/>
</svg>
