<svg width="57" height="52" viewBox="0 0 57 52" fill="none" xmlns="http://www.w3.org/2000/svg">
<path d="M34.3401 33.6089C34.0709 33.5906 33.8181 33.498 33.5565 33.4414C33.2733 33.3801 33.0064 33.399 32.7981 33.6213C32.667 33.7616 32.5757 33.8866 32.4154 33.9585C32.4125 33.9673 32.409 33.9768 32.4066 33.9856C32.3563 34.1619 32.4681 34.3753 32.6501 34.4172C32.8356 34.4596 33.0246 34.3612 33.0784 34.1719C33.0819 34.159 33.093 34.1354 33.0966 34.1189C33.1047 34.1035 33.1124 34.0882 33.1217 34.0735L33.1334 34.0546C33.1363 34.0511 33.1375 34.0487 33.1393 34.0463C33.1416 34.0434 33.144 34.041 33.1463 34.0381C33.1586 34.0245 33.1715 34.011 33.1849 33.9986C33.1867 33.9968 33.2001 33.9862 33.2112 33.9768C33.2165 33.9732 33.2224 33.9691 33.2276 33.9662C33.2411 33.9579 33.2557 33.9508 33.2698 33.9426C33.2715 33.9414 33.2721 33.9408 33.2733 33.9402C33.2733 33.9402 33.2739 33.9402 33.2744 33.9402C33.2826 33.9379 33.3219 33.9231 33.3523 33.9143C33.3564 33.9143 33.3652 33.9143 33.3815 33.9143C33.4014 33.9131 33.4213 33.9131 33.4418 33.9143C33.4529 33.9143 33.4646 33.9155 33.4758 33.9166C33.4898 33.9208 33.5033 33.9261 33.5074 33.9267C33.6156 33.9555 33.7186 33.9874 33.8327 33.9921C33.9538 33.9968 34.0767 33.9609 34.1827 33.9025C34.3091 33.8317 34.4015 33.7268 34.4735 33.6065C34.4302 33.6106 34.3863 33.613 34.3401 33.6095V33.6089Z" fill="#E50695"/>
<path d="M32.6339 32.9969C32.8183 32.8831 33.0395 32.8223 33.2548 32.8159C33.5228 32.8082 33.7844 32.8925 34.0407 32.9579C34.1911 32.9963 34.3052 33.0122 34.4158 32.9992C34.4732 32.6543 34.4966 32.3 34.5147 31.9509C34.5346 31.5659 34.5364 31.1804 34.5206 30.7954C34.5147 30.6462 34.417 30.4917 34.2649 30.4569C34.0998 30.4192 33.9705 30.4888 33.8716 30.6185C33.9272 30.5454 33.8552 30.6391 33.8447 30.6527C33.8225 30.6804 33.8008 30.7081 33.7786 30.7358C33.7394 30.7842 33.7002 30.8319 33.661 30.8803C33.5761 30.9829 33.4907 31.0848 33.4064 31.188C33.2262 31.4091 33.0477 31.6349 32.8967 31.8778C32.6585 32.2605 32.4771 32.7097 32.4531 33.1667C32.5116 33.0994 32.5707 33.0358 32.6339 32.9969Z" fill="#E50695"/>
<path d="M33.9724 32.7431C33.9718 32.7395 33.97 32.7358 33.9688 32.7321C33.9706 32.7364 33.9724 32.7413 33.9736 32.7456C33.9736 32.745 33.973 32.7444 33.9724 32.7437V32.7431Z" fill="#E50695"/>
<path d="M33.0904 34.132C33.0922 34.129 33.0939 34.126 33.0951 34.123C33.0874 34.1421 33.0727 34.1653 33.0904 34.132Z" fill="#E50695"/>
<path d="M33.4453 33.9113C33.4482 33.9084 33.4593 33.9113 33.4716 33.9142C33.4646 33.9137 33.4558 33.9125 33.4453 33.9113Z" fill="#E50695"/>
<path d="M55.715 33.9586C55.4072 33.6797 55.011 33.5665 54.626 33.4403C54.4106 33.3702 54.197 33.2923 53.987 33.208C53.9355 33.1874 53.884 33.1662 53.8331 33.1449C53.8307 33.1438 53.829 33.1432 53.8272 33.1426C53.8237 33.1408 53.8196 33.139 53.8143 33.1367C53.7892 33.1255 53.7634 33.1143 53.7383 33.1031C53.6282 33.0541 53.5188 33.0034 53.4106 32.9516C53.2467 32.8726 53.0267 32.9003 52.9336 33.0777C52.8517 33.2346 52.8833 33.4733 53.0589 33.5582C53.3942 33.7204 53.7377 33.8666 54.0876 33.9951C54.2146 34.0417 54.3428 34.0847 54.4715 34.1266C54.4873 34.2315 54.5107 34.3223 54.5663 34.419C54.6125 34.4998 54.6746 34.5723 54.7372 34.6407C54.7816 34.6891 54.8261 34.7368 54.8694 34.7857C54.877 34.7987 54.8905 34.814 54.8969 34.8247C54.8993 34.8288 54.9069 34.8459 54.9133 34.8594C54.9162 34.8683 54.9186 34.8765 54.9209 34.8854C54.9443 34.9738 54.9484 35.0664 54.9742 35.1542C55.0304 35.3447 55.1977 35.4779 55.3961 35.4779C55.6284 35.4779 55.8514 35.3081 55.9561 35.1059C56.1609 34.7109 56.0369 34.2486 55.7156 33.958L55.715 33.9586ZM55.3224 34.7911C55.3247 34.7857 55.3311 34.7775 55.3434 34.7687C55.3428 34.7698 55.3423 34.771 55.3417 34.7722C55.3358 34.7775 55.33 34.7834 55.3253 34.7887C55.3241 34.7893 55.3229 34.7899 55.3218 34.7905L55.3224 34.7911ZM55.1825 34.0895C55.1825 34.0895 55.1813 34.0877 55.1807 34.0865C55.1913 34.0971 55.1971 34.1048 55.2001 34.1089C55.1942 34.1024 55.1883 34.0959 55.1825 34.0895ZM55.3212 34.7964C55.3212 34.7964 55.3241 34.794 55.3259 34.7928C55.3276 34.7922 55.33 34.7911 55.3317 34.7905C55.3259 34.7975 55.3224 34.7987 55.3212 34.7964Z" fill="#E50695"/>
<path d="M43.6762 51.5345H29.582V51.8293H43.6762V51.5345Z" fill="#080808"/>
<path d="M48.8819 4.88509C50.1962 4.9865 50.5386 6.66091 49.5525 7.47571C48.8286 8.07414 47.849 7.89372 47.2732 7.18505L45.1063 8.71206C46.0824 11.1459 42.4056 12.1641 42.2652 9.48736C40.766 9.09529 40.7882 6.98754 42.2599 6.55125C42.7591 6.40326 43.0394 6.599 43.5023 6.6273L45.8934 5.05371C45.3597 3.53612 47.0479 2.2019 48.3494 3.27081C48.7883 3.63105 49.0551 4.33088 48.8807 4.88509H48.8819ZM42.6216 9.18726C42.2593 11.2178 45.1788 11.229 44.8997 9.21969C44.8693 9.00273 44.6276 8.72208 44.6966 8.59591L47.2475 6.79946C47.4681 6.69098 47.5213 6.97869 47.6512 7.0972C48.6244 7.98393 50.0564 7.20038 49.7193 5.89799C49.5297 5.16573 48.6291 5.22646 48.5565 5.12564C48.484 5.02482 48.6028 4.55846 48.5741 4.34149C48.3529 2.66472 45.7435 2.99371 46.1947 4.85325C46.2246 4.97588 46.3966 5.09321 46.2497 5.20877L43.5157 7.05416C43.215 7.12845 42.9142 6.62848 42.1938 6.95452C41.0679 7.46451 41.3599 9.15897 42.6222 9.18786L42.6216 9.18726Z" fill="#E4E4E4"/>
<path d="M51.2601 18.117C51.1203 18.2579 50.8599 18.4 50.6621 18.4271C49.4309 18.5945 49.3928 17.4826 48.5548 17.0263C48.0843 16.7704 47.4939 16.6766 47.1767 16.1761C46.7501 15.5034 46.9637 14.8071 47.6536 14.4545C48.0873 14.2328 48.5186 14.254 48.9803 14.1414C49.6169 13.987 49.9136 13.6804 50.651 13.9133C51.7622 14.2647 51.5504 15.3743 51.5715 16.2846C51.5867 16.9266 51.7968 17.5758 51.2607 18.1164L51.2601 18.117ZM47.5588 16.1731C47.8988 16.5192 48.621 16.6477 49.0534 16.9944C49.5631 17.4024 49.755 18.2231 50.5503 18.14C51.0928 18.0834 51.3193 17.5386 51.3409 17.0516C51.369 16.4331 51.2157 15.7021 51.2648 15.0618C51.2157 14.5819 50.7159 14.1721 50.2566 14.1326C49.8264 14.096 49.4033 14.3443 48.9902 14.4474C48.5338 14.5618 48.0662 14.5217 47.6583 14.8141C47.1597 15.1714 47.1346 15.7422 47.5583 16.1737L47.5588 16.1731Z" fill="#E50695"/>
<path d="M54.1798 14.2263C54.0172 14.4297 53.5197 14.7564 53.2705 14.8106C51.6752 15.1584 51.6202 13.3278 52.7251 12.5531C54.116 11.5767 55.1741 12.9805 54.1798 14.2269V14.2263ZM53.4296 12.5566C52.0146 12.7984 51.7835 15.1555 53.4086 14.4197C54.4016 13.9699 54.6767 12.3438 53.4296 12.5566Z" fill="#E50695"/>
<path d="M51.6562 10.5887C51.8405 10.6335 52.0084 10.7296 52.129 10.8905C52.864 11.8716 51.5578 13.8532 50.4191 13.2607C49.4213 12.7418 50.0247 11.0857 50.8334 10.6901C51.0798 10.5698 51.3864 10.5232 51.6567 10.5881L51.6562 10.5887ZM51.1441 10.8469C50.4805 10.9996 49.8292 12.5514 50.5344 12.9676C51.7603 13.6922 52.8458 10.4554 51.1441 10.8469Z" fill="#E50695"/>
<path d="M48.3434 10.9648C49.6454 10.7732 49.7829 12.7972 48.9116 13.4829C48.1678 14.0678 47.4299 13.2854 47.3649 12.5125C47.3111 11.8769 47.6499 11.0668 48.3439 10.9648H48.3434ZM48.4025 11.2573C47.3872 11.3722 47.4673 13.3727 48.3867 13.3721C49.3118 13.3721 49.5582 11.1258 48.4025 11.2573Z" fill="#E50695"/>
<path d="M53.7662 15.2245C54.146 15.2546 54.4942 15.4267 54.6246 15.7982C55.0454 16.9956 53.2653 17.8157 52.3927 17.1625C52.0071 16.8736 52.0223 16.4054 52.2558 16.0216C52.3805 15.8164 52.5496 15.6289 52.7427 15.4874C52.9978 15.3006 53.3969 15.195 53.7662 15.2245ZM54.1846 15.6826C54.0155 15.5317 53.6287 15.5175 53.4116 15.5452C52.8328 15.6183 51.9252 16.5593 52.6602 16.9526C53.6363 17.4749 54.9213 16.3394 54.1846 15.6826Z" fill="#E50695"/>
<path d="M34.8081 4.90624C34.9298 4.78007 35.2236 4.58021 35.3892 4.52007C36.3922 4.15217 36.9476 4.97051 37.5936 5.56363C38.1671 6.09071 38.7874 6.30002 38.5486 7.28933C38.2484 8.53158 36.7445 7.91547 35.9001 8.15602C35.515 8.26568 35.1984 8.52392 34.7549 8.53866C33.9965 8.5646 33.4446 7.91901 33.5734 7.1667C33.6202 6.89255 34.6015 5.11967 34.8081 4.90624ZM37.5772 7.81937C37.5772 7.81937 37.5813 7.81819 37.5831 7.8176C38.0793 7.69084 38.4749 7.05586 38.2209 6.56828C38.0612 6.26169 37.7259 6.08128 37.4766 5.85783C36.6848 5.1462 35.9012 4.03602 34.9058 5.26943C34.6981 5.52648 34.2247 6.43149 34.0556 6.76873C33.5933 7.68848 34.0731 8.44138 35.0925 8.16604C35.4659 8.06522 35.8152 7.89189 36.1903 7.79755C36.4051 7.74331 36.6175 7.71088 36.8358 7.75275C37.0874 7.8005 37.3192 7.88304 37.5772 7.81937Z" fill="#E50695"/>
<path d="M33.5462 1.54215C34.4749 1.30337 35.104 2.26439 35.1432 3.08744C35.2339 5.00417 32.9967 4.44761 32.9154 2.73664C32.8955 2.3204 33.098 1.65771 33.5462 1.54215ZM33.6024 1.83517C32.9236 2.03681 33.2197 3.83385 34.1314 3.9895C35.3568 4.1988 34.8611 1.46138 33.6024 1.83517Z" fill="#E50695"/>
<path d="M36.6332 1.1005C36.831 1.11937 37.0218 1.19365 37.1634 1.321C37.2828 1.42831 37.3758 1.56214 37.4437 1.70718C37.583 2.00492 37.6169 2.34982 37.5794 2.67409C37.5151 3.23361 37.1739 3.95231 36.5214 3.93698C35.385 3.91045 35.2106 2.06918 35.8777 1.35579C36.0638 1.15651 36.3552 1.07338 36.6332 1.09991V1.1005ZM36.9919 1.54799C36.1136 0.706659 35.2516 2.72716 36.1615 3.47416C36.7409 3.94995 37.2564 3.1658 37.3032 2.61749C37.3313 2.28615 37.2406 1.78677 36.9919 1.54858V1.54799Z" fill="#E50695"/>
<path d="M31.7663 4.07905C33.0011 3.02605 34.6724 5.79414 33.2826 6.2829C32.1186 6.69207 30.8798 4.83548 31.7663 4.07905ZM32.1994 4.19048C31.8219 4.27479 31.7693 4.70341 31.812 5.02768C31.9331 5.94095 33.4757 6.48395 33.5049 5.50171C33.5237 4.86319 32.8776 4.03896 32.1994 4.19048Z" fill="#E50695"/>
<path d="M37.8499 5.15985C37.4959 4.80138 37.5456 4.15107 37.6755 3.70829C37.7487 3.46008 37.8645 3.21069 38.0483 3.02556C38.6153 2.45249 39.5955 2.86342 39.6962 3.62398C39.76 4.10862 39.5247 4.6982 39.1771 5.03426C38.8617 5.33908 38.1829 5.4965 37.8499 5.15985ZM38.5744 3.07332C37.8388 3.22484 37.5895 4.94936 38.2724 5.05844C39.4662 5.24887 39.8823 2.80329 38.5744 3.07332Z" fill="#E50695"/>
<path d="M29.4307 31.1238C28.7034 31.5264 28.2867 30.9593 27.6061 30.9327C27.3528 30.9227 27.0947 31.0035 26.8068 30.9775C26.0689 30.9103 25.5726 30.3402 25.9155 29.6097C26.0495 29.3238 27.107 28.2802 27.4002 28.101C27.88 27.8085 28.4272 27.8457 28.8514 28.2106C29.0627 28.3922 29.8527 29.7577 29.9083 30.0313C30.0113 30.5336 29.8579 30.8861 29.4296 31.1232L29.4307 31.1238ZM27.8139 28.2826C27.5307 28.3421 26.4586 29.365 26.2842 29.6274C26.1098 29.8898 26.056 30.1551 26.259 30.4104C26.537 30.7612 27.423 30.5807 27.8531 30.6309C28.3429 30.6881 28.8233 31.1367 29.3137 30.852C29.5788 30.6981 29.6209 30.3555 29.5712 30.0784C29.5419 29.9157 28.7777 28.5886 28.6519 28.4718C28.4277 28.2643 28.1082 28.2201 27.8145 28.282L27.8139 28.2826Z" fill="#E50695"/>
<path d="M29.604 25.5316C29.8475 25.5469 30.0786 25.6477 30.2272 25.8523C30.3999 26.0905 30.3888 26.413 30.325 26.6866C30.2109 27.1759 29.8592 27.7826 29.3144 27.8516C28.7081 27.9247 28.3921 27.4607 28.4067 26.8947C28.4143 26.6046 28.4963 26.298 28.6268 26.0398C28.7976 25.7008 29.2172 25.5074 29.6046 25.5316H29.604ZM29.4513 25.8063C28.8749 25.9184 28.4928 27.0067 28.8772 27.4183C29.0598 27.614 29.1915 27.5568 29.4062 27.4725C30.2366 27.1453 30.2548 25.6507 29.4513 25.8063Z" fill="#E50695"/>
<path d="M27.2301 25.2763C27.6755 25.215 27.9909 25.5522 28.1237 25.939C28.2624 26.3422 28.2144 26.7514 28.0944 27.1523C27.9546 27.6199 27.4115 27.7673 27.0142 27.5279C26.2131 27.0462 26.2341 25.4137 27.2301 25.2763ZM27.1687 25.6294C26.8837 25.7155 26.6988 26.1247 26.7181 26.4053C26.7415 26.7461 27.1078 27.3834 27.5034 27.3274C28.0547 27.2496 28.0535 25.3618 27.1687 25.6294Z" fill="#E50695"/>
<path d="M25.5332 26.6913C26.8381 26.4242 27.0845 29.1086 25.8252 28.8445C24.8795 28.6458 24.4857 26.9059 25.5332 26.6913ZM26.0552 27.1701C25.7046 26.8316 25.2517 27.1023 25.2101 27.5468C25.1744 27.9324 25.7602 28.7655 26.1944 28.4772C26.4455 28.3109 26.2916 27.3988 26.0546 27.1701H26.0552Z" fill="#E50695"/>
<path d="M30.5593 27.4295C30.8116 27.3257 31.0843 27.3234 31.3254 27.5044C31.4722 27.6146 31.5629 27.8257 31.5951 28.002C31.639 28.2414 31.5782 28.4878 31.4617 28.6977C31.2083 29.154 30.6776 29.4677 30.1532 29.3734C29.6342 29.2802 29.6096 28.7065 29.7471 28.295C29.8589 27.9607 30.186 27.5834 30.5599 27.4295H30.5593ZM30.739 27.6907C30.0005 27.8345 29.5201 29.5019 30.7536 28.9465C31.426 28.6435 31.4506 27.5521 30.739 27.6907Z" fill="#E50695"/>
<path d="M47.2776 33.8317C47.9166 34.3264 48.483 34.8753 49.2215 35.2119C49.8986 35.5203 50.6558 35.7367 51.3949 35.8086C51.2679 36.0468 51.3826 36.5798 51.076 36.5768C50.121 36.5674 48.4743 35.7461 47.6749 35.196C47.5561 35.1141 46.6777 34.3912 46.6719 34.3069C46.6695 34.2727 46.9797 33.7315 47.0084 33.7138C47.1038 33.6549 47.2103 33.7804 47.277 33.8323L47.2776 33.8317Z" fill="#E50695"/>
<path d="M52.0235 30.5784C52.4753 30.4741 53.1242 30.9935 52.8902 31.3331C52.6836 31.6332 52.5233 30.8414 52.1956 30.8721C51.8825 30.9015 51.8088 31.5312 51.5706 31.3626C51.3324 31.194 51.7912 30.6321 52.0235 30.5779V30.5784Z" fill="#080808"/>
<path d="M7.04094 49.1786C6.79808 49.1379 6.4142 48.8178 6.22051 48.6503C5.0753 47.6575 4.05766 46.3404 2.91479 45.3239C2.74743 45.127 3.09327 44.8116 3.23898 44.6424C3.89732 43.8777 4.64636 43.1837 5.29006 42.4031C5.35502 42.2752 5.07705 42.126 5.29006 41.7593L10.3952 35.6512L12.7629 29.4347C12.7974 29.3563 12.8062 29.2808 12.7921 29.1959C12.7564 28.9854 12.3796 28.367 12.2748 28.0627C11.8079 26.7085 11.9296 25.4214 12.3925 24.0866C12.1625 24.0931 11.8073 24.1249 11.8043 23.8242L13.2106 17.5481L11.3385 19.2874C11.1396 19.4236 10.9933 18.9997 10.8511 19.025C10.6416 19.0628 9.50984 20.1989 9.32726 20.4388C7.99713 22.1911 6.81213 24.0713 5.52296 25.8547C5.46562 26.5616 5.59553 29.1717 4.68849 29.3751C3.91312 29.5491 3.97398 28.3793 3.94179 27.9142C3.77443 28.0781 3.62111 28.2632 3.47891 28.4489C3.06401 28.9901 2.35184 30.5154 1.51561 29.8851C1.43661 29.8256 1.40384 29.6847 1.3582 29.6764C1.15221 29.6381 0.993043 29.8368 0.681724 29.5644C0.414879 29.3309 0.547716 29.0072 0.509679 28.9282C0.503827 28.9158 0.417218 28.9123 0.385618 28.8427C-0.0872119 27.8051 0.814561 26.4508 1.4846 25.6755C1.72921 25.3925 2.12187 25.1113 2.32376 24.8124C2.64853 24.3313 2.95224 23.6291 3.25888 23.1038C4.68498 20.6641 5.95717 18.067 7.92223 16.0164C7.95324 15.9462 7.76481 15.8702 7.85903 15.6644C9.8785 13.7182 11.6879 11.351 14.6507 10.9584C15.0445 10.9059 17.0113 10.8623 17.16 10.7172C17.2197 10.6589 17.3262 10.1477 17.3039 10.1271C16.8557 10.1813 14.3517 10.0327 14.2124 9.61648C14.1849 9.53453 14.1948 9.43902 14.2346 9.36178C15.7421 7.91613 14.9837 5.71109 15.5197 3.8828C16.3431 1.07639 20.0742 -0.437658 22.3921 1.55572C23.7509 2.72427 23.8007 4.46354 23.8557 6.14797C23.9253 8.27931 23.7574 10.4908 21.4213 11.2431C21.4037 11.2655 21.4862 11.532 21.5079 11.5627C21.5354 11.6034 22.2692 11.8109 22.4307 11.8828C24.4771 12.7931 25.4918 14.3785 26.767 16.1154C27.3779 16.9479 27.9783 17.7952 28.5372 18.6636C28.5822 18.6949 28.6788 18.6259 28.7273 18.5982C30.3149 17.689 31.8827 16.1585 33.472 15.1898C34.169 14.181 34.7495 13.1121 36.1118 12.9594C37.0311 12.8562 38.2828 13.3951 38.6199 14.3096C38.6878 14.4935 38.6445 14.5831 38.6696 14.681C38.7369 14.9422 38.9289 15.0159 38.799 15.4309C38.7393 15.622 38.5023 15.6762 38.4841 15.757C38.4596 15.8649 38.5942 16.037 38.4882 16.2964C38.3911 16.5364 38.0318 16.6472 38.0154 16.6738C37.9288 16.8159 38.0862 17.0818 37.7158 17.3441C37.5004 17.4968 37.3524 17.4503 37.1458 17.5357C36.8737 17.6478 36.6285 17.8641 36.3108 17.8435C36.5156 19.1571 36.8456 20.4554 37.2166 21.73C38.3554 25.6425 40.1426 29.7466 43.6835 32.0035C44.0452 32.234 46.5486 33.626 46.7663 33.4998C47.4626 32.6538 47.7002 31.4994 48.4066 30.6451C47.3772 28.9878 46.9401 27.4973 48.8659 26.3364C49.1989 26.1354 50.0503 25.6861 50.3107 26.0947L50.6373 27.0899C50.8772 26.4013 51.7977 25.5605 52.5391 25.5546C53.2238 25.5493 53.1957 26.5569 53.146 27.054C53.1114 27.3983 52.6158 28.8215 52.7118 28.976C52.7317 29.0078 53.2092 29.2608 53.3291 29.3574C53.5784 29.5585 54.0477 30.2383 54.1876 30.3185C54.5393 30.5201 55.9935 30.3108 56.512 30.3922C57.0732 30.4806 56.8976 31.3402 56.811 31.7464C56.6161 32.6603 55.9724 33.1585 55.0829 33.3342L55.578 33.6885C56.2902 34.0605 56.4078 35.6695 55.4598 35.6925C54.7968 35.7084 54.884 34.9939 54.788 34.9249C54.7541 34.9007 54.1835 35.0852 54.0167 35.0841C53.4713 35.0799 52.6854 34.5552 52.2869 34.6684C51.6245 34.8559 51.7152 35.811 51.6134 36.3481C51.4735 37.0875 51.3138 37.9082 51.1359 38.6351C51.0065 39.164 50.8275 39.6745 50.6496 40.1875C50.6619 40.2506 51.4489 40.9675 51.5724 41.0795C52.7562 42.1525 53.9658 42.6732 54.2947 44.4048C54.3918 44.9165 54.582 46.3987 53.9682 46.6127C53.2121 46.8757 52.782 45.9011 52.5368 45.351C52.4034 45.0521 52.1529 44.1094 52.0447 43.962C51.8697 43.7244 50.3921 43.2215 50.0544 43.0222C50.3541 44.2326 50.704 45.4294 51.099 46.6104C51.645 46.6746 52.1313 46.7719 52.4812 47.233C52.6919 47.5107 52.9798 48.2306 52.4824 48.2972C52.1125 48.3467 50.9328 48.3379 50.5641 48.2801C49.6787 48.1421 48.904 46.6758 48.5019 45.9394C47.8196 44.6889 47.2022 43.3353 46.6633 42.0164C45.9933 42.0806 45.3179 42.1531 44.6409 42.1125C43.9638 42.0718 43.3383 41.8678 42.6893 41.8212C42.4903 42.7138 41.8583 43.3977 41.2883 44.0728L42.5921 46.2955C43.2148 46.4518 43.7941 46.4541 44.2038 47.0284C44.3541 47.2389 44.5771 47.8349 44.3811 48.0313C44.1441 48.2683 42.3511 48.1881 41.9783 48.0914C41.5189 47.9723 40.7898 47.0078 40.4627 46.6139C39.6721 45.6641 38.5198 44.4036 38.6187 43.11C38.3378 43.2657 38.0447 43.4125 37.7439 43.5245C37.1915 43.7297 36.0556 43.857 35.7238 44.2585C35.3083 44.7615 35.33 45.8074 35.3119 46.4323C35.8584 46.5874 36.3348 46.8044 36.5466 47.378C36.7023 47.799 36.7508 48.1798 36.2218 48.2347C35.6085 48.2984 34.5769 48.2866 34.1473 47.7919C33.386 46.9146 33.3889 43.5729 33.9255 42.5647C34.025 42.3772 34.286 42.2015 34.4282 42.0111C35.1445 41.0518 34.8671 40.0077 35.0392 38.9157C35.1351 38.3055 35.3639 37.7773 35.6074 37.2213C32.4439 37.0757 31.2489 33.0347 33.4153 30.8603C33.6049 30.6699 34.3188 30.006 34.554 30.243C34.7776 30.4676 34.564 31.5389 34.5534 31.8885C34.5096 33.3047 34.7986 34.8241 36.2113 35.4655C37.1411 35.8882 37.1926 35.5817 38.006 35.3653C40.29 34.758 44.4384 36.1064 46.2548 34.2492C46.3046 34.1985 46.5855 33.8489 46.5445 33.8053C43.9123 32.8472 41.5318 31.1539 39.9576 28.8062C37.7954 25.5818 36.735 21.6846 35.9538 17.9078L35.0836 17.9325L30.4905 22.3768C27.8683 24.461 26.3696 22.3797 24.7914 20.3439C24.552 20.1883 24.38 20.8062 24.0722 20.7207C23.8838 20.6682 23.3647 19.8216 23.1534 19.6694L22.247 25.2652C22.1095 25.4267 21.6162 25.1938 21.3985 25.2652C21.3084 26.34 20.9332 27.39 20.7799 28.446L28.4886 43.1873C28.7367 43.5563 28.1012 43.5858 28.079 43.7285C28.0614 43.8452 28.3382 44.3735 28.505 44.4071C29.2341 44.5527 30.7854 43.6796 31.7785 43.7615C32.8746 43.8517 33.4369 45.117 32.5954 45.8793L27.1877 49.5329H32.5972C32.713 49.5329 32.713 49.8861 32.5972 49.8861H18.328C18.2121 49.8861 18.2121 49.5329 18.328 49.5329H26.4276L24.2647 45.966C24.1436 45.8946 23.504 46.5862 23.3594 46.2319C21.7121 43.3211 20.2176 40.3131 18.5428 37.4188C18.4058 37.183 17.4608 35.5728 17.3338 35.5746C16.7375 36.6635 16.3313 37.7466 15.5735 38.7477C14.1937 40.5707 12.3117 42.3695 10.7832 44.1129C10.5544 44.3741 9.36003 45.9418 9.14644 45.9418C8.92875 45.8905 8.45065 45.2013 8.31957 45.1783C8.27919 45.1712 7.90701 45.4701 7.89472 45.5084C7.84615 45.6564 8.37926 46.9081 8.35 47.2006C9.55841 47.3232 10.5286 48.3402 9.87675 49.5329H12.7131C12.829 49.5329 12.829 49.8861 12.7131 49.8861H2.88846C2.77259 49.8861 2.77259 49.5329 2.88846 49.5329H9.32141C9.36471 49.5329 9.75971 49.3048 9.70178 49.1798H7.04094V49.1786ZM23.3858 4.23714C23.0411 1.05045 19.5001 0.0410823 17.16 2.00085C15.8884 3.06564 15.5484 4.63039 15.6092 6.23994L16.0469 5.70991C16.2582 5.55367 16.5455 5.49766 16.8042 5.53775C16.9885 5.56664 17.2027 5.79835 17.3051 5.7447C17.6047 5.58787 17.6357 4.67107 17.71 4.61683C18.7891 4.59678 19.8501 4.21591 20.715 3.57916C20.8542 3.47658 21.3932 2.96187 21.4394 2.95008C21.7408 2.87225 23.0253 4.09682 23.3858 4.23832V4.23714ZM23.3752 4.60209C22.9884 4.55256 21.7414 3.29793 21.4974 3.36043C21.4342 3.37635 20.6623 4.02253 20.4575 4.14457C19.7131 4.58676 18.8207 4.92282 17.9476 4.94463C18.0155 5.27716 17.5403 6.27709 17.1705 6.17332C17.0546 6.1409 16.978 5.9369 16.8533 5.89976C16.1593 5.69163 15.745 6.4687 15.8679 7.0689C15.9504 7.47158 16.4302 7.94796 16.8194 8.0535C16.9294 8.08357 17.1249 8.03994 17.1793 8.07354C17.205 8.08946 17.2887 8.54049 17.3338 8.65428C17.5538 9.20849 17.7721 9.20731 17.7059 9.91422C17.6901 10.0846 17.5099 10.8935 17.4204 10.9814C17.2144 11.183 17.0699 10.9395 17.3127 11.5026C17.8458 12.7401 19.8706 13.434 20.8741 12.3975C21.1012 12.1635 21.3306 11.6358 21.076 11.3611C21.0245 11.305 20.4733 11.3752 20.317 11.3628C20.1046 11.3463 19.757 11.2614 19.554 11.1895C19.379 11.1276 18.7236 10.8605 18.9097 10.5946C19.039 10.4101 19.362 10.7296 19.5282 10.8033C20.6933 11.3198 22.1522 10.8387 22.8737 9.81635C23.841 8.44616 23.473 6.18452 23.3758 4.6015L23.3752 4.60209ZM16.9435 8.42965C16.9294 8.41314 16.6854 8.36893 16.6035 8.33001C16.2383 8.15727 16.0194 7.95858 15.7584 7.64964L15.5507 7.24164C15.4307 8.05763 15.1873 8.86653 14.6144 9.47852C15.498 9.77272 16.4402 9.78687 17.363 9.7739C17.3917 9.39185 17.143 9.08291 17.0084 8.74626C16.9727 8.65782 16.9651 8.45441 16.9435 8.42965ZM16.8925 11.1901C15.9972 11.2001 15.0831 11.2213 14.2036 11.3923C11.644 11.8905 10.0324 14.1173 8.18205 15.7523L11.2513 18.9024C12.4182 17.8276 13.581 16.7139 14.7525 15.6674C14.893 15.7623 14.955 15.8348 14.8514 15.9904C14.6431 16.3029 13.739 16.9521 13.6483 17.1944L12.1578 23.7328L21.9825 24.9704L23.415 16.1343C23.6631 15.9616 23.686 16.1944 23.683 16.4008C23.6713 17.2604 23.2722 18.2774 23.2717 19.1636C23.3138 19.4713 23.992 19.9754 24.0897 20.3168L27.3001 17.4102C25.6791 15.3177 24.3174 12.6505 21.5518 11.9571C20.9713 13.2442 19.6979 13.5077 18.4532 13.0048C17.7141 12.7065 16.9797 12.0184 16.8925 11.1901ZM34.9947 17.5487H35.9011C35.8069 17.116 35.8204 16.9297 35.5582 16.5676C35.5126 16.5052 35.4991 16.3772 35.4909 16.3707C35.4669 16.3525 34.9291 16.6773 35.0315 16.2911C35.0608 16.1809 35.6542 15.9162 35.8409 15.6915C36.0275 15.4669 36.1645 14.9292 36.1996 14.9044C36.3751 14.7806 36.9884 15.2723 37.2482 14.8131C37.5256 14.3231 36.642 14.0967 36.2868 14.1356C36.1768 14.148 36.0784 14.2176 35.9743 14.2364C35.4804 14.3255 35.5822 13.9941 35.9573 13.8662C36.7567 13.5932 37.4893 14.2288 38.2384 14.3986C37.6807 13.2023 36.0351 12.9854 35.028 13.7553C34.4054 14.2311 34.1702 14.9492 33.647 15.4858L28.6922 19.0356C28.6045 19.0816 28.5073 19.1093 28.4154 19.0521C28.251 18.9496 27.65 17.8182 27.5025 17.7869L24.9675 20.0521C26.0571 21.2454 27.0835 23.2794 29.0123 22.8325C29.9984 22.6038 31.3203 21.164 32.0723 20.4365C33.0565 19.4855 33.9765 18.4661 34.9947 17.5487ZM37.422 15.1922C37.7386 15.1798 38.1997 15.6509 38.4426 15.3667C38.799 14.9504 37.9434 14.6238 37.6561 14.5448C37.6971 14.8113 37.4794 14.9616 37.422 15.1922ZM36.2522 15.7811C36.6853 15.7959 37.7094 16.4586 38.0657 16.2823C38.212 16.2098 38.2196 15.994 38.1278 15.866C37.9774 15.6573 36.5618 15.2258 36.4354 15.3171C36.4155 15.3319 36.2364 15.7629 36.2528 15.7811H36.2522ZM35.9433 16.0258C35.8169 16.0606 35.7589 16.2056 35.7923 16.3289C35.8438 16.5146 36.9135 17.0812 37.1131 17.1236C37.5631 17.2197 37.8767 16.84 37.4747 16.583C37.3565 16.5075 36.2125 16.0476 36.0907 16.0276C36.0369 16.0187 35.9994 16.0105 35.9433 16.0258ZM0.695182 28.5633C0.716249 28.5426 0.900583 28.1376 0.964368 28.0386C1.10657 27.8175 1.52615 27.1312 1.68649 26.9991C1.84683 26.8671 2.00541 26.89 1.98376 27.117C1.97089 27.2497 1.38102 28.0079 1.25696 28.2154C1.13992 28.41 0.784716 28.9554 0.837967 29.1546C0.878931 29.3073 1.00533 29.4164 1.16567 29.3651C1.44949 29.2743 2.20321 27.8988 2.48468 27.5675C2.6579 27.3641 2.84106 27.1654 2.89607 27.5633C2.73397 27.8935 1.66835 29.2183 1.68766 29.4736C1.69995 29.6328 1.85912 29.7047 2.00717 29.6835C2.35653 29.6334 3.1553 28.2909 3.44673 27.9472C3.62404 27.7379 4.11676 27.0475 4.25077 27.6052C4.30812 27.8428 4.23614 29.5579 4.75871 28.9153C5.30411 28.2449 5.0437 26.5646 5.18648 25.7533C6.54821 23.951 7.75954 21.8568 9.17745 20.1134C9.58298 19.6152 10.1167 19.1807 10.6381 18.8145L8.15279 16.2558C7.141 17.274 6.39782 18.4101 5.65756 19.6311C4.64636 21.2979 3.64803 23.5259 2.55841 25.0506C1.86321 26.024 0.787641 26.6359 0.59453 28.0203C0.586337 28.0786 0.520797 28.739 0.695768 28.5645L0.695182 28.5633ZM36.7783 17.3713C36.824 17.3093 36.1668 16.9833 36.1358 17.0187L36.1943 17.5487L36.7783 17.3713ZM21.1065 25.2068L12.7769 24.1538C12.0156 25.8253 12.2333 27.472 13.1064 29.052C14.4664 31.513 16.6842 33.8282 18.2297 36.2019L23.5912 45.9377L28.1182 43.2091L19.4381 26.6206L19.4106 26.3246L19.6728 26.3842L20.5207 27.9142L21.1065 25.2056V25.2068ZM52.3923 28.8581C52.4555 28.0297 53.1343 26.7945 52.7486 25.9962C52.5672 25.6207 51.8305 26.1318 51.6017 26.324C51.319 26.5611 50.7069 27.3446 50.6923 27.7107C50.6806 28.0002 50.8286 28.4306 50.814 28.7402C51.3454 28.7172 51.8703 28.7649 52.3923 28.8587V28.8581ZM56.4862 31.6851H55.5798C55.389 31.6851 55.1725 30.9299 55.2585 30.7424C55.0022 30.7253 54.7225 30.7671 54.4697 30.7424C53.7745 30.6728 53.7118 30.1575 53.2425 29.7401C52.4285 29.0161 51.6011 29.1004 50.5758 29.0686C50.3974 28.3823 50.4231 27.6612 50.2604 26.9714C50.2288 26.8376 50.1176 26.3854 50.0603 26.3016C49.8777 26.0369 48.6512 26.8488 48.4475 27.0345C47.2034 28.1671 48.1128 29.516 48.8162 30.6445C48.1684 31.4505 47.8167 32.4327 47.3281 33.3354C47.2929 33.481 47.5182 33.6455 47.6283 33.7463C48.5687 34.6106 50.0304 35.3317 51.3026 35.449C51.508 35.1047 51.5496 34.7421 51.9294 34.488C52.82 33.8913 53.737 35.2202 54.6142 34.5428C54.2795 34.2639 53.7762 34.2757 53.4046 34.0546C53.105 33.876 52.6287 33.287 52.5807 32.9374C52.4859 32.244 53.2033 32.7953 53.5059 32.8926C54.6288 33.2522 56.1919 33.017 56.4868 31.6863L56.4862 31.6851ZM13.0362 29.6239L10.6866 35.8281C8.96327 37.8657 7.23522 39.898 5.55457 41.9715L9.14644 45.5256L15.3406 38.5125C16.0803 37.5349 16.5145 36.3817 17.0622 35.2928L13.0362 29.6239ZM34.3223 30.625C34.2374 30.5278 33.4328 31.3544 33.3567 31.4487C31.8066 33.3825 32.9448 36.673 35.4693 36.9194C36.041 36.9754 35.852 36.8522 36.1639 36.5138C36.3406 36.3222 36.5501 36.1783 36.7198 35.9849C35.5916 35.7691 34.712 34.8488 34.3972 33.7593C34.0941 32.7116 34.2176 31.691 34.3223 30.625ZM52.978 33.04C53.1893 33.8565 53.9787 33.8259 54.5703 34.116C55.1619 34.406 55.0771 35.1896 55.2562 35.3099C55.7424 35.6365 56.1187 34.6531 55.5125 34.0511C54.9402 33.4828 54.2964 33.4633 53.5954 33.2723C53.4907 33.244 53.0044 33.014 52.9786 33.04H52.978ZM47.2807 33.8318C47.2139 33.7799 47.1074 33.6549 47.0121 33.7133C46.9834 33.731 46.6732 34.2728 46.6756 34.3064C46.6814 34.3901 47.5598 35.1135 47.6786 35.1955C48.4779 35.7456 50.1247 36.5669 51.0797 36.5763C51.3863 36.5792 51.2716 36.0463 51.3986 35.8081C50.6589 35.7361 49.9017 35.5198 49.2252 35.2114C48.4867 34.8748 47.9197 34.3259 47.2812 33.8312L47.2807 33.8318ZM50.7847 48.0006C51.0838 48.0378 51.4431 47.9735 51.7497 48.0006C51.7052 47.8491 51.2371 47.3827 51.6046 47.3485C51.9417 47.3173 51.9616 48.0336 52.363 48.0024C52.4484 47.9959 52.4683 48.0266 52.4449 47.9198C52.2612 47.0838 51.5391 47.0296 50.8421 46.8828C50.1791 45.0309 49.7027 43.1195 49.2984 41.1933C49.3083 41.0229 49.6091 40.9262 49.7308 40.8136C50.7221 39.8992 50.8989 38.1458 51.1066 36.8681C49.3563 36.7025 47.6505 35.7137 46.3988 34.5133C44.3887 36.3098 41.3053 35.3883 38.8528 35.5705C36.9831 35.709 35.7033 37.1075 35.3926 38.9181C35.2013 40.033 35.4763 41.004 34.815 42.047C34.6412 42.3212 34.3726 42.498 34.2322 42.7557C33.7359 43.6636 33.8313 45.3109 33.98 46.3144C34.1345 47.355 34.4001 48.0248 35.6097 47.8827C35.6431 47.8579 35.1293 47.1728 35.5225 47.174C35.8414 47.1752 35.8139 48.1191 36.3119 47.8833C36.2973 47.3975 36.0351 47.0437 35.5927 46.8698C35.4453 46.812 35.0807 46.8102 35.0333 46.6676C34.9385 46.384 35.0491 45.1783 35.1345 44.8422C35.4658 43.5339 36.1206 43.6908 37.1751 43.3636C39.5597 42.623 40.2748 41.1385 40.6839 38.7689L40.9021 38.6363C41.0192 38.7182 40.9969 38.8332 40.9858 38.9523C40.9291 39.5843 40.5832 40.303 40.4644 40.9327C41.4294 40.9156 42.3341 41.3537 43.271 41.5524C44.1107 41.7304 44.9563 41.8118 45.8177 41.7605C45.9494 41.7528 46.5228 41.6956 46.5369 41.6125C46.5697 41.4156 46.0804 40.4227 46.3104 40.2535H46.4907C46.7522 41.0229 46.9307 41.8076 47.2379 42.5635C47.6704 43.6265 48.3205 44.9112 48.8759 45.9206C49.2568 46.6127 49.9403 47.8963 50.7865 48.0012L50.7847 48.0006ZM53.9711 46.2336C54.1642 46.0403 54.0706 45.0321 54.0232 44.739C53.9149 44.061 53.6247 43.2433 53.0951 42.7875L50.4354 40.5206C50.2241 40.8236 49.9661 41.086 49.6419 41.2617L49.9667 42.5806L52.3174 43.7167C52.6281 44.5875 52.8423 45.6688 53.5615 46.292C53.5421 46.091 53.1934 45.2555 53.6446 45.4135C53.7745 45.4589 53.8084 45.9949 53.8529 46.1476C53.8716 46.2124 53.8751 46.3292 53.9711 46.233V46.2336ZM42.2463 47.8237C42.6085 47.875 43.0702 47.786 43.4453 47.8237C43.4412 47.6256 43.0585 47.3709 43.1808 47.1746C43.4225 46.7861 43.8123 48.1286 44.1482 47.7937C44.0926 47.3863 43.8585 47.0372 43.4857 46.8704C43.175 46.7318 42.8631 46.7613 42.5781 46.6658C42.2726 46.5632 41.8642 45.7561 41.681 45.4489C41.5704 45.2632 40.9448 44.1825 40.9296 44.0793C40.8922 43.8181 41.3439 43.5245 41.5137 43.3164C41.9016 42.8406 42.2481 42.241 42.3926 41.6396C41.7079 41.5341 41.0853 41.1968 40.3725 41.2817C40.3462 41.2794 40.3193 41.2817 40.2965 41.2959C40.2614 41.3183 39.9787 41.8872 39.8763 42.0211C39.5193 42.4898 39.0231 42.6566 38.9488 43.3246C38.8557 44.1583 39.8939 45.3811 40.4059 46.0261C40.7266 46.4306 41.4294 47.342 41.8062 47.6197C41.9204 47.7041 42.1129 47.8055 42.2463 47.8243V47.8237ZM5.57856 42.5924L4.73531 43.5027C5.38018 44.2975 6.4616 45.7366 7.63724 45.2437C7.72385 45.2072 8.08257 44.9879 8.03692 44.8788L5.57797 42.5924H5.57856ZM7.04094 48.8254H9.7603C9.70002 48.2323 9.43259 47.8792 8.88193 47.6781C8.69935 47.6115 8.11358 47.5372 8.03575 47.411C7.96378 47.2949 7.91696 46.6186 7.88653 46.5897C7.69752 46.5632 6.84314 46.7713 6.77819 46.5567C6.65003 46.1364 7.75369 46.3975 7.76949 46.2047C7.77184 46.1759 7.58223 45.6989 7.53951 45.6729C7.42306 45.6022 6.96369 45.6576 6.76414 45.6293C6.37968 45.5745 5.95776 45.2732 5.66634 45.0268C5.46503 44.8564 4.60013 43.8376 4.51879 43.8228C4.4234 43.8063 3.3964 45.0079 3.27351 45.1948C4.3169 46.1664 5.2766 47.3591 6.33813 48.2966C6.46687 48.4104 6.9122 48.7989 7.04152 48.8248L7.04094 48.8254ZM24.5561 45.7042C24.5263 45.7455 24.9716 46.5249 25.0313 46.6092C25.0693 46.6634 25.0775 46.7053 25.1595 46.6976C25.3461 46.68 26.726 45.7543 26.9724 45.5751C27.1432 45.4507 28.1363 44.6972 28.1158 44.5663C28.1035 44.4885 27.7828 44.0245 27.7436 43.8794L24.5561 45.7048V45.7042ZM28.9415 44.7019C28.7782 44.8063 28.5775 44.7196 28.4166 44.7909C28.3002 44.8428 27.5892 45.5362 27.3826 45.6936C26.7395 46.1829 26.0326 46.5821 25.3409 46.9977L26.2514 48.5648L32.3274 44.6653C32.5773 44.0693 31.6498 44.0864 31.2682 44.1294C30.9862 44.1613 29.6654 44.4867 29.4705 44.6158C29.1697 44.8151 29.0726 45.614 28.9064 45.6417C28.4675 45.7142 28.9954 44.775 28.9415 44.7025V44.7019ZM32.6844 44.8198L26.4287 48.9133C26.7775 49.4869 26.7354 49.3908 27.2416 49.0849C28.9673 48.0431 30.6263 46.7572 32.3292 45.6688C32.6288 45.4607 32.7259 45.1818 32.6844 44.8198Z" fill="#080808"/>
<path d="M6.13322 27.6205C6.11801 27.4996 6.14376 27.41 6.19876 27.3044C6.31522 27.081 6.80502 26.6164 6.9993 26.3434C7.35802 25.8393 7.74658 25.1625 7.92916 24.5705C8.01986 24.2763 8.04151 23.8483 8.13631 23.6013C8.22351 23.3755 8.38443 23.3755 8.41603 23.642C8.52371 24.5576 7.64066 26.0746 7.09176 26.7903C6.95716 26.966 6.59611 27.443 6.45391 27.5615C6.34974 27.6476 6.25377 27.6252 6.13322 27.621V27.6205Z" fill="#080808"/>
<path d="M19.6777 8.36471C19.814 8.32049 20.4852 8.69841 20.7386 8.75619C20.8802 8.78803 21.1037 8.82694 21.2459 8.83343C21.6907 8.85347 22.4743 8.54807 21.9207 9.33162C21.3115 10.1936 20.233 10.1093 19.7315 9.18069C19.6455 9.02209 19.4395 8.44136 19.6771 8.36471H19.6777ZM21.5701 9.18541C20.9891 9.22904 20.4706 8.99144 19.9328 8.83225C20.2388 9.58397 21.0195 9.91236 21.5701 9.18541Z" fill="#080808"/>
<path d="M21.0552 8.05756C20.8247 7.90898 21.2097 7.59002 21.4555 7.71206C21.4602 7.47387 21.088 6.43444 21.1699 6.3065C21.1793 6.29235 21.3256 6.24518 21.3595 6.25108C21.5011 6.27702 21.5755 6.67204 21.6147 6.81649C21.6667 7.00987 21.8201 7.70381 21.7937 7.85356C21.7627 8.02749 21.1588 8.12418 21.0558 8.05756H21.0552Z" fill="#080808"/>
<path d="M19.332 4.89863C19.6217 4.8385 20.2555 4.8833 20.2835 5.26653C20.0682 5.49529 19.8131 5.16571 19.5205 5.20581C19.3034 5.23587 18.8452 5.7494 18.772 5.37737C18.7328 5.17927 19.1699 4.93224 19.3314 4.89863H19.332Z" fill="#080808"/>
<path d="M22.319 4.83844C22.5723 4.81603 23.2705 5.11672 23.0645 5.41741C22.9357 5.60489 22.635 5.19572 22.4155 5.18157C22.2259 5.16919 21.9784 5.38557 21.8649 5.33074C21.45 5.12851 22.1089 4.8573 22.3195 4.83844H22.319Z" fill="#080808"/>
<path d="M22.7277 6.57888C22.3625 6.94677 21.8967 6.18857 22.3321 5.97397C22.7136 5.78589 22.9524 6.35189 22.7277 6.57888Z" fill="#080808"/>
<path d="M19.5645 6.19216C20.0853 6.02944 20.114 6.78646 19.774 6.87903C19.4223 6.97513 19.1941 6.30772 19.5645 6.19216Z" fill="#080808"/>
</svg>
