<svg width="29" height="28" viewBox="0 0 29 28" fill="none" xmlns="http://www.w3.org/2000/svg">
<path d="M18.1667 12.25C18.1667 11.6083 18.6917 11.0833 19.3333 11.0833C19.975 11.0833 20.5 11.6083 20.5 12.25C20.5 12.8916 19.975 13.4166 19.3333 13.4166C18.6917 13.4166 18.1667 12.8916 18.1667 12.25ZM10 11.0833H15.8333V8.74996H10V11.0833ZM26.3333 9.33329V17.465L23.0433 18.5616L21.0833 25.0833H14.6667V22.75H12.3333V25.0833H5.91667C5.91667 25.0833 3 15.2133 3 11.6666C3 8.11996 5.87 5.24996 9.41667 5.24996H15.25C16.3117 3.83829 18.0033 2.91663 19.9167 2.91663C20.885 2.91663 21.6667 3.69829 21.6667 4.66663C21.6667 4.91163 21.62 5.13329 21.5267 5.34329C21.3633 5.73996 21.2233 6.19496 21.1533 6.68496L23.8017 9.33329H26.3333ZM24 11.6666H22.8333L18.75 7.58329C18.75 6.82496 18.855 6.07829 19.0533 5.35496C17.9217 5.64663 17 6.48663 16.615 7.58329H9.41667C7.165 7.58329 5.33333 9.41496 5.33333 11.6666C5.33333 13.86 6.75667 19.425 7.67833 22.75H10V20.4166H17V22.75H19.345L21.1533 16.7416L24 15.785V11.6666Z" fill="currentColor"/>
</svg>
