<svg width="25" height="25" viewBox="0 0 25 25" fill="none" xmlns="http://www.w3.org/2000/svg">
<path d="M16.1836 14.7559H15.3936L15.1136 14.4859C16.0936 13.3459 16.6836 11.8659 16.6836 10.2559C16.6836 6.66586 13.7736 3.75586 10.1836 3.75586C6.59359 3.75586 3.68359 6.66586 3.68359 10.2559C3.68359 13.8459 6.59359 16.7559 10.1836 16.7559C11.7936 16.7559 13.2736 16.1659 14.4136 15.1859L14.6836 15.4659V16.2559L19.6836 21.2459L21.1736 19.7559L16.1836 14.7559ZM10.1836 14.7559C7.69359 14.7559 5.68359 12.7459 5.68359 10.2559C5.68359 7.76586 7.69359 5.75586 10.1836 5.75586C12.6736 5.75586 14.6836 7.76586 14.6836 10.2559C14.6836 12.7459 12.6736 14.7559 10.1836 14.7559Z" fill="#E50695"/>
</svg>
