<svg width="28" height="28" viewBox="0 0 28 28" fill="none" xmlns="http://www.w3.org/2000/svg">
<path d="M13.59 2.26709C7.33267 2.26709 2.26562 7.34547 2.26562 13.6028C2.26562 19.8601 7.33267 24.9384 13.59 24.9384C19.8586 24.9384 24.937 19.8601 24.937 13.6028C24.937 7.34547 19.8586 2.26709 13.59 2.26709ZM22.069 10.3834L16.3899 9.896L14.1227 4.5569C17.7615 4.77227 20.8221 7.13009 22.069 10.3834ZM16.3219 17.4796L13.6013 15.8472L10.8921 17.4796L11.6062 14.3963L9.21439 12.3218L12.3657 12.0498L13.6013 9.13651L14.8369 12.0384L17.9882 12.3105L15.5964 14.3849L16.3219 17.4796ZM13.0799 4.5569L10.8127 9.90733L5.12222 10.3948C6.36914 7.13009 9.42977 4.76094 13.0799 4.5569ZM4.53276 13.6028C4.53276 12.8773 4.62345 12.1745 4.79348 11.4943L9.0897 15.2124L7.83144 20.5969C5.81369 18.9305 4.53276 16.414 4.53276 13.6028ZM8.88566 21.3337L13.6013 18.4884L18.3169 21.3224C16.934 22.1725 15.3243 22.6713 13.59 22.6713C11.8669 22.6713 10.2573 22.1725 8.88566 21.3337ZM19.3712 20.5969L18.1129 15.2124L22.4091 11.4943C22.5678 12.1631 22.6698 12.8773 22.6698 13.6028C22.6698 16.414 21.3776 18.9305 19.3712 20.5969Z" fill="#E10098"/>
</svg>
