<svg width="18" height="18" viewBox="0 0 18 18" fill="none" xmlns="http://www.w3.org/2000/svg">
<path d="M9 5.7225L10.08 8.2725L10.98 8.3475L12.8325 8.505L10.74 10.32L10.9425 11.205L11.3625 13.0125L9.7725 12.0525L9 11.5725L8.2275 12.0375L6.6375 12.9975L7.0575 11.19L7.26 10.305L5.1675 8.49L7.02 8.3325L7.92 8.2575L8.2725 7.425L9 5.7225ZM9 1.875L6.8925 6.8475L1.5 7.305L5.595 10.8525L4.365 16.125L9 13.3275L13.635 16.125L12.405 10.8525L16.5 7.305L11.1075 6.8475L9 1.875Z" fill="currentColor"/>
</svg>
