<svg width="16" height="16" viewBox="0 0 16 16" fill="none" xmlns="http://www.w3.org/2000/svg">
<g clip-path="url(#clip0_1003_48058)">
<path d="M4.16667 13.9998H6.83333C6.83333 14.7332 6.23333 15.3332 5.5 15.3332C4.76667 15.3332 4.16667 14.7332 4.16667 13.9998ZM2.83333 13.3332H8.16667V11.9998H2.83333V13.3332ZM10.5 6.99984C10.5 9.5465 8.72667 10.9065 7.98667 11.3332H3.01333C2.27333 10.9065 0.5 9.5465 0.5 6.99984C0.5 4.23984 2.74 1.99984 5.5 1.99984C8.26 1.99984 10.5 4.23984 10.5 6.99984ZM9.16667 6.99984C9.16667 4.97984 7.52 3.33317 5.5 3.33317C3.48 3.33317 1.83333 4.97984 1.83333 6.99984C1.83333 8.6465 2.82667 9.59317 3.4 9.99984H7.6C8.17333 9.59317 9.16667 8.6465 9.16667 6.99984ZM13.7467 5.57984L12.8333 5.99984L13.7467 6.41984L14.1667 7.33317L14.5867 6.41984L15.5 5.99984L14.5867 5.57984L14.1667 4.6665L13.7467 5.57984ZM12.1667 4.6665L12.7933 3.29317L14.1667 2.6665L12.7933 2.03984L12.1667 0.666504L11.54 2.03984L10.1667 2.6665L11.54 3.29317L12.1667 4.6665Z" fill="currentColor"/>
</g>
<defs>
<clipPath id="clip0_1003_48058">
<rect width="16" height="16" fill="white"/>
</clipPath>
</defs>
</svg>
