<svg width="94" height="100" viewBox="0 0 94 100" fill="none" xmlns="http://www.w3.org/2000/svg">
<g clip-path="url(#clip0_4257_45756)">
<path d="M67.2272 81.1675H18.1083C16.2719 81.1675 14.7832 79.6875 14.7832 77.8617V11.3058C14.7832 9.47999 16.2719 8 18.1083 8H67.2249C69.0614 8 70.5501 9.47999 70.5501 11.3058V77.8617C70.5524 79.6875 69.0637 81.1675 67.2272 81.1675Z" fill="white"/>
<path d="M80.4728 91.3384C82.0218 91.3384 83.4386 91.3384 84.8553 91.3384C85.0014 91.3384 85.1684 91.3061 85.289 91.3637C85.3933 91.4145 85.4907 91.5689 85.5 91.6842C85.5069 91.7741 85.3956 91.9147 85.3006 91.9608C85.1939 92.0138 85.0478 91.9908 84.918 91.9908C66.3607 91.9908 47.8057 91.9885 29.2485 91.9862C22.568 91.9862 15.8899 91.9885 9.20951 91.9885C8.92893 91.9885 8.51387 92.0738 8.50228 91.6819C8.48836 91.2323 8.92661 91.3384 9.21646 91.3384C14.7885 91.3338 20.3606 91.3338 25.9349 91.3338C26.0903 91.3338 26.2456 91.3338 26.5378 91.3338C25.6938 90.5361 25.7262 89.6094 25.7378 88.6827C25.7494 87.8597 25.7401 87.039 25.7401 86.1607C24.7639 86.1607 23.8387 86.1676 22.9159 86.1584C22.1205 86.1515 21.3553 85.9694 20.9008 85.2755C20.6133 84.8352 20.3977 84.2888 20.342 83.7701C20.2516 82.9241 20.3165 82.0619 20.3165 81.1513C19.2962 81.1513 18.32 81.1075 17.3485 81.1606C15.4888 81.262 14.6192 79.8673 14.6216 78.4196C14.6471 55.8047 14.6401 33.1899 14.6401 10.5727C14.6401 8.96592 15.6024 7.99079 17.2093 7.99079C34.206 7.98848 51.2004 7.99079 68.1972 7.99079C69.6974 7.99079 70.7246 9.07427 70.7316 10.6626C70.7362 11.8106 70.7316 12.9587 70.7316 14.1736C71.6035 14.1736 72.4452 14.1759 73.2869 14.1736C73.9292 14.1713 74.5553 14.2197 75.077 14.6623C75.6103 15.1164 75.9396 15.6766 75.9535 16.3797C75.9721 17.318 75.9582 18.2562 75.9582 19.2775C76.3755 19.2775 76.7581 19.2705 77.1407 19.2798C77.8735 19.2936 78.6108 19.259 79.3343 19.3512C80.5123 19.5034 81.2543 20.4347 81.245 21.6104C81.2334 23.1342 81.2218 24.6557 81.2218 26.1795C81.2195 47.1299 81.2195 68.0827 81.2241 89.0331C81.2241 89.8561 81.1314 90.6191 80.4728 91.3384ZM69.9734 44.6102C69.9734 33.3351 69.9618 22.0622 69.9919 10.7871C69.9942 9.65751 69.2592 8.72617 67.905 8.73539C62.1544 8.77689 56.4038 8.75384 50.6532 8.75153C39.4952 8.74922 28.3349 8.74692 17.1769 8.74C16.2888 8.74 15.6441 9.20798 15.4331 10.0609C15.3682 10.3237 15.3473 10.605 15.3473 10.877C15.345 17.484 15.3497 24.0932 15.3497 30.7002C15.352 40.8388 15.352 50.9774 15.352 61.1161C15.352 66.8978 15.3497 72.6794 15.352 78.4634C15.352 79.7013 16.0638 80.4275 17.2696 80.4275C34.1805 80.4275 51.0938 80.4275 68.0047 80.4275C69.2661 80.4275 69.9734 79.7244 69.9734 78.4795C69.9734 67.1905 69.9734 55.9015 69.9734 44.6102ZM26.4868 86.163C26.4868 86.4051 26.4868 86.5664 26.4868 86.7278C26.4868 87.5208 26.5239 88.3162 26.4798 89.1092C26.4056 90.4347 27.2984 91.3568 28.736 91.3522C40.5317 91.3246 52.3274 91.3384 64.1231 91.3384C68.9624 91.3384 73.7994 91.3384 78.6387 91.3246C79.6868 91.3223 80.3778 90.6606 80.4798 89.6256C80.5076 89.3512 80.496 89.0746 80.496 88.8003C80.5076 70.932 80.5169 53.0637 80.5262 35.1978C80.5285 30.744 80.5262 26.2878 80.5215 21.834C80.5215 20.9304 80.067 20.2042 79.2508 20.1258C78.1772 20.0221 77.0874 20.1005 75.9837 20.1005C75.9837 20.2618 75.9837 20.3909 75.9837 20.5177C75.9837 26.2994 75.986 32.0833 75.986 37.865C75.9883 50.0945 75.9906 62.3241 75.9883 74.5536C75.9883 77.6473 75.9906 80.741 75.9442 83.8324C75.9234 85.2017 74.8428 86.1653 73.4562 86.1653C59.3464 86.1653 45.2388 86.163 31.129 86.163C29.6033 86.163 28.0752 86.163 26.4868 86.163ZM21.0794 81.1675C21.0794 82.002 21.0655 82.7927 21.0817 83.5811C21.1049 84.7199 21.7913 85.3815 22.9321 85.3838C25.6033 85.3861 28.2769 85.3861 30.9481 85.3861C45.058 85.3861 59.1678 85.3884 73.2776 85.3884C74.5715 85.3884 75.2416 84.7683 75.2416 83.5696C75.2416 77.011 75.2393 70.4502 75.2393 63.8917C75.2393 51.5492 75.2393 39.209 75.2393 26.8665C75.2393 23.4662 75.2416 20.0636 75.2393 16.6633C75.2393 15.8288 74.699 15.0265 73.9292 14.9597C72.8858 14.8698 71.8261 14.9366 70.7154 14.9366C70.7154 15.1718 70.7154 15.3631 70.7154 15.5544C70.7177 30.2783 70.72 45.0044 70.72 59.7283C70.72 65.9157 70.7107 72.1054 70.7293 78.2928C70.7339 79.9918 69.7206 81.2182 67.8308 81.179C65.2106 81.1214 62.5857 81.1675 59.9631 81.1698C48.186 81.1698 36.4089 81.1698 24.6318 81.1698C23.4701 81.1675 22.3014 81.1675 21.0794 81.1675Z" fill="black"/>
<path d="M26.4874 86.163C28.0758 86.163 29.6039 86.163 31.132 86.163C45.2418 86.163 59.3493 86.1653 73.4591 86.1653C74.8458 86.1653 75.9263 85.2017 75.9472 83.8324C75.9913 80.7387 75.9889 77.645 75.9913 74.5536C75.9936 62.3241 75.9913 50.0945 75.9889 37.865C75.9889 32.0833 75.9866 26.2994 75.9866 20.5177C75.9866 20.3909 75.9866 20.2618 75.9866 20.1005C77.0904 20.1005 78.1825 20.0221 79.2538 20.1258C80.0677 20.2042 80.5222 20.9304 80.5245 21.834C80.5291 26.2878 80.5315 30.744 80.5291 35.1978C80.5199 53.066 80.5106 70.9343 80.499 88.8003C80.499 89.0746 80.5083 89.3535 80.4828 89.6256C80.3807 90.6606 79.692 91.3223 78.6416 91.3246C73.8023 91.3384 68.9653 91.3384 64.126 91.3384C52.3303 91.3384 40.5347 91.3246 28.739 91.3522C27.3013 91.3545 26.4086 90.4347 26.4828 89.1092C26.5269 88.3185 26.4898 87.5231 26.4898 86.7278C26.4874 86.5665 26.4874 86.4051 26.4874 86.163Z" fill="white"/>
<path d="M21.0803 81.1675C22.3023 81.1675 23.471 81.1675 24.6397 81.1675C36.4168 81.1675 48.1939 81.1675 59.971 81.1675C62.5936 81.1675 65.2161 81.1214 67.8387 81.1767C69.7262 81.2182 70.7418 79.9895 70.7372 78.2905C70.7186 72.1031 70.7279 65.9134 70.7279 59.726C70.7256 45.0021 70.7232 30.276 70.7232 15.5521C70.7232 15.3608 70.7232 15.1717 70.7232 14.9343C71.8339 14.9343 72.8913 14.8674 73.9371 14.9574C74.7046 15.0242 75.2449 15.8264 75.2472 16.661C75.2495 20.0613 75.2472 23.4639 75.2472 26.8642C75.2472 39.2067 75.2472 51.5468 75.2472 63.8893C75.2472 70.4479 75.2495 77.0087 75.2495 83.5673C75.2495 84.766 74.5771 85.3861 73.2855 85.3861C59.1757 85.3861 45.0659 85.3861 30.956 85.3838C28.2848 85.3838 25.6112 85.3838 22.94 85.3815C21.7991 85.3792 21.1128 84.7176 21.0896 83.5788C21.0664 82.7927 21.0803 82.002 21.0803 81.1675Z" fill="white"/>
<path d="M29.8822 25.3496C29.8822 24.877 29.8891 24.4736 29.8798 24.0701C29.8659 23.4477 29.9077 23.3878 30.5476 23.3255C32.136 23.1711 33.6989 23.3348 35.2409 23.7082C38.1533 24.4136 40.6831 25.8014 42.7816 27.9384C43.0645 28.2266 43.2337 28.1759 43.4888 27.9177C45.9861 25.368 49.0446 23.9019 52.5645 23.4177C53.6497 23.2679 54.7697 23.3555 55.8735 23.3417C56.2839 23.3371 56.4439 23.5561 56.423 23.9618C56.3998 24.4113 56.4184 24.8655 56.4184 25.3934C56.7801 25.3749 57.0978 25.3519 57.4131 25.3404C58.1783 25.315 58.2873 25.428 58.2896 26.1864C58.2989 31.0621 58.3082 35.9354 58.3244 40.8111C58.3267 41.3114 58.3754 41.8139 58.3777 42.3142C58.3824 42.8006 58.1598 42.955 57.6705 42.9205C55.9708 42.8029 54.2712 42.6162 52.5715 42.6162C49.6777 42.6139 46.9137 43.3562 44.2424 44.4051C43.4447 44.7186 42.7677 44.7324 41.9677 44.4074C39.8576 43.5521 37.6547 42.9573 35.3893 42.7084C33.2861 42.4755 31.1691 42.5124 29.0706 42.8651C28.9593 42.8836 28.8433 42.8882 28.7297 42.8928C28.1268 42.9182 28.0016 42.8052 28.0039 42.2127C28.0086 40.5783 28.0225 38.9415 28.0225 37.3071C28.0248 33.6486 28.0225 29.9878 28.0179 26.3293C28.0179 25.3865 28.0503 25.345 29.001 25.3473C29.2746 25.3496 29.5483 25.3496 29.8822 25.3496ZM43.5027 43.6535C43.7531 43.4876 43.9271 43.3838 44.0871 43.264C45.9444 41.8531 47.9919 40.825 50.2527 40.2394C51.8504 39.8268 53.4735 39.6216 55.1314 39.8106C55.4213 39.8429 55.7343 39.9213 55.732 39.3934C55.7111 34.4555 55.7158 29.5175 55.7111 24.5796C55.7111 24.4067 55.6926 24.2361 55.6764 23.9503C54.4799 24.0263 53.3181 24.001 52.1912 24.1877C48.9194 24.7271 46.116 26.1956 43.8088 28.5862C43.5584 28.8444 43.4563 29.0911 43.4587 29.4368C43.4679 33.9713 43.4656 38.5058 43.4656 43.0403C43.4656 43.2086 43.4865 43.3792 43.5027 43.6535ZM30.5824 24.0148C30.5685 24.2062 30.55 24.3491 30.55 24.4897C30.5476 29.3954 30.5453 34.3033 30.5453 39.209C30.5453 39.8106 30.5987 39.8175 31.1784 39.8129C32.1824 39.8037 33.198 39.7553 34.1881 39.8844C36.7574 40.221 39.1109 41.1615 41.2558 42.6069C41.7312 42.9274 42.2042 43.2547 42.7352 43.619C42.7607 43.4184 42.7885 43.2985 42.7885 43.1764C42.7908 38.545 42.7932 33.9137 42.7816 29.2824C42.7816 29.0934 42.6935 28.8582 42.5636 28.7245C39.308 25.3795 35.3267 23.8212 30.5824 24.0148Z" fill="#DF0881"/>
<path d="M56.9142 70.8052C56.425 71.1441 55.9543 71.5129 55.4395 71.808C55.0221 72.0477 54.5676 72.2552 54.1016 72.3751C53.4361 72.5457 52.7497 72.216 52.7451 71.476C52.7427 71.1971 52.8262 70.9274 52.9097 70.6623C53.3665 69.2099 54.1989 67.5225 54.0737 65.971C54.0668 65.8811 54.0505 65.7843 53.9833 65.7267C53.8836 65.6391 53.7282 65.6829 53.6053 65.7313C52.0749 66.356 50.9016 67.6377 49.8373 68.8549C48.6709 70.1851 47.7713 71.6374 46.9203 73.1773C46.8484 73.3087 46.758 73.454 46.6095 73.4885C46.4843 73.5185 46.3522 73.454 46.2733 73.3525C46.06 73.0759 46.22 72.7509 46.3661 72.4881C47.224 70.9458 48.3046 69.4635 49.5057 68.1357C50.6234 66.9024 51.8361 65.5584 53.4453 64.9751C54.09 64.7423 54.7299 65.0858 54.7856 65.7543C54.8412 66.4321 54.7786 67.1467 54.6117 67.806C54.2963 69.0486 53.6517 70.1436 53.5775 71.4461C53.5752 71.4853 53.5752 71.5291 53.603 71.5544C53.6308 71.5821 53.6772 71.5798 53.7166 71.5775C54.9201 71.4645 55.7548 70.6945 56.6615 69.9776C57.6678 69.1823 58.1641 68.848 59.2098 67.9789C59.6666 67.4441 61.2712 65.8765 62.0759 66.2476C62.2799 66.3422 62.2776 66.5312 62.1292 66.6603C61.0927 67.5801 60.0098 68.4653 59.0777 69.4935C58.7646 69.8393 58.4168 70.1528 58.1131 70.5101C57.851 70.8167 57.4313 71.317 57.4986 71.7573C57.5102 71.8287 57.5519 71.9002 57.6192 71.9256C57.6655 71.944 57.7165 71.9371 57.7652 71.9302C58.3565 71.8426 58.9339 71.5198 59.4324 71.2086C60.4388 70.5816 61.5333 70.3741 62.695 70.3926C63.1726 70.3995 63.4625 70.8674 62.9222 71.1049C62.4144 71.3285 61.6538 71.1925 61.095 71.3354C60.0446 71.6051 59.2284 72.4212 58.1965 72.6609C57.2203 72.8869 56.4574 72.2598 56.7774 71.257C56.8215 71.121 56.905 70.9965 56.9699 70.8674C56.9467 70.8467 56.9305 70.8259 56.9142 70.8052Z" fill="#DF0881"/>
<path d="M43.503 43.6535C43.4868 43.3792 43.4659 43.2086 43.4659 43.038C43.4636 38.5035 43.4659 33.969 43.459 29.4345C43.459 29.0888 43.561 28.8421 43.8091 28.5839C46.1163 26.1933 48.9197 24.7248 52.1915 24.1854C53.3185 23.9987 54.4802 24.024 55.6767 23.948C55.6929 24.2338 55.7115 24.4044 55.7115 24.5773C55.7161 29.5152 55.7115 34.4532 55.7323 39.3911C55.7347 39.9213 55.4216 39.8429 55.1318 39.8083C53.4738 39.6216 51.853 39.8245 50.253 40.2371C47.9922 40.8227 45.9424 41.8508 44.0874 43.2617C43.9274 43.3838 43.7535 43.4876 43.503 43.6535Z" fill="white"/>
<path d="M30.5813 24.0148C35.3255 23.8212 39.3069 25.3796 42.5671 28.7291C42.697 28.8628 42.7828 29.098 42.7851 29.287C42.7967 33.9183 42.7943 38.5497 42.792 43.181C42.792 43.3008 42.7642 43.423 42.7387 43.6236C42.2077 43.2594 41.7347 42.932 41.2593 42.6116C39.1144 41.1638 36.7585 40.2233 34.1916 39.889C33.2015 39.7599 32.1859 39.8083 31.1819 39.8176C30.5998 39.8222 30.5488 39.8153 30.5488 39.2136C30.5488 34.3079 30.5511 29.4 30.5535 24.4943C30.5511 24.3491 30.5697 24.2062 30.5813 24.0148Z" fill="white"/>
<path d="M62.1076 48.4439H23.4325C23.1774 48.4439 22.9688 48.2365 22.9688 47.9829C22.9688 47.7293 23.1774 47.5218 23.4325 47.5218H62.1076C62.3626 47.5218 62.5713 47.7293 62.5713 47.9829C62.5713 48.2365 62.3626 48.4439 62.1076 48.4439Z" fill="black"/>
<path d="M62.1076 53.119H23.4325C23.1774 53.119 22.9688 52.9116 22.9688 52.658C22.9688 52.4044 23.1774 52.1969 23.4325 52.1969H62.1076C62.3626 52.1969 62.5713 52.4044 62.5713 52.658C62.5713 52.9116 62.3626 53.119 62.1076 53.119Z" fill="black"/>
<path d="M62.1076 57.7942H23.4325C23.1774 57.7942 22.9688 57.5867 22.9688 57.3331C22.9688 57.0795 23.1774 56.8721 23.4325 56.8721H62.1076C62.3626 56.8721 62.5713 57.0795 62.5713 57.3331C62.5713 57.5867 62.3626 57.7942 62.1076 57.7942Z" fill="black"/>
<path d="M42.7944 62.4693H23.4325C23.1774 62.4693 22.9688 62.2618 22.9688 62.0082C22.9688 61.7547 23.1774 61.5472 23.4325 61.5472H42.7944C43.0495 61.5472 43.2581 61.7547 43.2581 62.0082C43.2581 62.2618 43.0495 62.4693 42.7944 62.4693Z" fill="black"/>
</g>
<defs>
<clipPath id="clip0_4257_45756">
<rect width="77" height="84" fill="white" transform="translate(8.5 8)"/>
</clipPath>
</defs>
</svg>
