<svg width="44" height="51" viewBox="0 0 44 51" fill="none" xmlns="http://www.w3.org/2000/svg">
<path d="M24.8423 45.835L25.0823 45.76C25.0823 45.76 24.9623 46.525 24.9173 46.555C25.4273 46.315 25.4573 46.45 25.5923 46.69C25.7273 46.93 26.4773 47.59 27.9173 48.25C28.4723 48.655 28.5923 48.805 28.4873 49.195C27.9773 49.555 26.0873 49.57 24.5723 49.48C23.0573 49.39 21.9023 48.7 21.9023 48.7C21.9023 48.7 22.0073 47.02 22.2623 46.945C22.3523 46.585 22.2623 45.625 22.2623 45.625C22.2623 45.625 24.2123 45.82 24.8273 45.835H24.8423Z" fill="white"/>
<path d="M25.8936 34.735C25.7286 40.555 25.7286 45.55 25.7286 45.55C25.7286 45.55 24.9336 46.225 21.7536 45.55C21.5886 43.39 21.0336 33.985 21.2886 32.665" fill="white"/>
<path d="M24.1825 45.955C23.5825 45.955 22.7875 45.88 21.7225 45.655C21.6775 45.655 21.6325 45.61 21.6325 45.55C21.4675 43.465 20.9125 33.985 21.1675 32.635C21.1675 32.575 21.2425 32.545 21.3025 32.545C21.3625 32.545 21.4075 32.62 21.3925 32.68C21.1525 33.925 21.6625 43 21.8575 45.445C24.4825 45.985 25.4125 45.58 25.6075 45.475C25.6075 44.89 25.6075 40.15 25.7725 34.72C25.7725 34.66 25.8325 34.6 25.8925 34.615C25.9525 34.615 25.9975 34.675 25.9975 34.735C25.8325 40.495 25.8325 45.49 25.8325 45.535C25.8325 45.565 25.8325 45.595 25.7875 45.625C25.7575 45.64 25.3825 45.955 24.1825 45.955Z" fill="black"/>
<path d="M33.8752 47.2L35.9602 48.415C35.9602 48.415 36.5152 48.805 35.9902 49.045C35.4652 49.285 30.8902 48.88 30.8902 48.88C30.8902 48.88 28.7902 48.94 28.8652 48.085C28.9402 47.23 28.9702 46.705 29.3152 46.735C29.6602 46.765 31.1002 46.855 31.2652 46.78C31.4302 46.705 32.1952 46.105 32.6002 46.195C33.0052 46.285 33.3802 47.095 33.8902 47.2H33.8752Z" fill="white"/>
<path d="M24.1825 45.955C23.5825 45.955 22.7875 45.88 21.7225 45.655C21.6775 45.655 21.6325 45.61 21.6325 45.55C21.4675 43.465 20.9125 33.985 21.1675 32.635C21.1675 32.575 21.2425 32.545 21.3025 32.545C21.3625 32.545 21.4075 32.62 21.3925 32.68C21.1525 33.925 21.6625 43 21.8575 45.445C24.4825 45.985 25.4125 45.58 25.6075 45.475C25.6075 44.89 25.6075 40.15 25.7725 34.72C25.8175 33.145 25.6225 31.855 25.1875 30.88C25.1575 30.82 25.1875 30.76 25.2475 30.73C25.3075 30.7 25.3675 30.73 25.3975 30.79C25.8475 31.795 26.0575 33.115 25.9975 34.72C25.8325 40.48 25.8325 45.475 25.8325 45.52C25.8325 45.55 25.8325 45.58 25.7875 45.61C25.7575 45.625 25.3825 45.94 24.1825 45.94V45.955Z" fill="black"/>
<path d="M28.5506 48.805C28.5506 48.805 28.6256 49.645 28.4456 49.765C28.2656 49.885 26.8106 50.53 23.4956 49.69C22.3556 49.54 21.9956 49.405 21.9956 49.405L21.8906 48.595L26.0456 49.42C26.0456 49.42 28.2206 49.675 28.5506 48.805Z" fill="#E10098"/>
<path d="M35.5386 49.57C35.5386 49.57 36.4386 49.045 36.1836 49C35.7036 49.06 28.9086 48.37 28.9086 48.37C28.9086 48.37 28.4736 49.27 30.0936 49.3C31.7136 49.33 35.4636 49.69 35.5386 49.57Z" fill="#E10098"/>
<path d="M29.3125 46.81L29.4175 45.655C29.4175 45.655 31.4875 45.625 31.9075 45.565C32.3275 45.505 31.8025 46.675 31.8025 46.675L29.3125 46.81Z" fill="white"/>
<path d="M12.0055 35.305C11.7055 35.305 11.4805 35.2 11.3755 34.99C11.1955 34.675 11.1805 34.3 11.3005 33.865C11.4055 33.49 11.7505 33.43 12.0205 33.385C12.0055 33.385 11.9755 33.355 11.9605 33.355C11.4205 33.04 11.3005 32.515 11.2555 32.095L11.1055 30.82C11.1055 30.82 11.1355 30.7 11.1955 30.7C11.2555 30.7 11.3155 30.73 11.3155 30.79L11.4655 32.065C11.5255 32.62 11.7055 32.95 12.0505 33.16C12.1105 33.19 12.2605 33.265 12.2605 33.4C12.2605 33.49 12.1855 33.55 12.0655 33.595C11.7505 33.655 11.5555 33.7 11.4955 33.925C11.3905 34.3 11.4055 34.615 11.5555 34.885C11.6305 35.02 11.7655 35.08 12.0055 35.08C13.5505 35.08 15.1105 35.08 16.6555 35.08H18.6505C19.4455 35.08 20.2405 35.08 21.0355 35.08C21.0955 35.08 21.1405 35.125 21.1405 35.185C21.1405 35.245 21.0955 35.29 21.0355 35.29C20.2405 35.29 19.4455 35.29 18.6505 35.29H16.6555C15.1105 35.29 13.5505 35.29 12.0055 35.29V35.305Z" fill="black"/>
<path d="M12.4103 35.26C12.3203 35.755 12.2153 36.265 12.1403 36.76C12.0353 37.345 11.9603 37.945 11.8553 38.545C11.7203 39.355 11.5703 40.165 11.4203 40.975C11.3303 41.5 11.2103 42.025 11.1203 42.535C10.9703 43.375 10.8053 44.215 10.6553 45.055C10.6553 45.055 10.1153 48.13 10.0703 48.43C10.0703 48.49 10.1003 48.61 10.1303 48.61C10.4453 48.61 10.7603 48.61 11.0753 48.58C11.1053 48.58 11.1203 48.49 11.1353 48.43C11.1953 48.175 11.5253 46.195 11.5253 46.195C11.6903 45.445 12.2303 42.46 12.3653 41.71C12.5153 40.855 12.6803 40.015 12.8303 39.16C12.9653 38.41 13.1003 37.66 13.2353 36.925C13.3253 36.37 13.4153 35.815 13.5053 35.26" fill="white"/>
<path d="M10.1889 48.715C10.1889 48.715 10.0689 48.715 10.0389 48.67C9.99388 48.625 9.94888 48.49 9.96388 48.415C10.0089 48.115 10.5189 45.16 10.5489 45.04L10.6389 44.56C10.7589 43.885 10.8789 43.195 11.0139 42.52C11.0589 42.28 11.1039 42.04 11.1639 41.785C11.2239 41.5 11.2689 41.23 11.3289 40.945C11.4789 40.135 11.6139 39.325 11.7639 38.515C11.8089 38.215 11.8689 37.9 11.9139 37.6C11.9589 37.315 12.0039 37.015 12.0489 36.73C12.1089 36.385 12.1689 36.025 12.2439 35.68L12.3339 35.23C12.3339 35.23 12.4089 35.125 12.4689 35.14C12.5289 35.14 12.5739 35.215 12.5589 35.275L12.4689 35.725C12.4089 36.07 12.3339 36.415 12.2739 36.775C12.2289 37.06 12.1839 37.345 12.1389 37.645C12.0939 37.945 12.0489 38.26 11.9889 38.56C11.8539 39.37 11.7039 40.18 11.5539 40.99C11.5089 41.275 11.4489 41.545 11.3889 41.83C11.3439 42.07 11.2989 42.31 11.2539 42.55C11.1339 43.225 10.9989 43.915 10.8789 44.59L10.7889 45.07C10.7889 45.07 10.2489 48.145 10.2039 48.445C10.2039 48.445 10.2039 48.475 10.2039 48.49C10.4739 48.49 10.7439 48.49 11.0289 48.46C11.0289 48.445 11.0289 48.415 11.0439 48.4C11.1039 48.145 11.4339 46.18 11.4339 46.165C11.5989 45.43 12.1089 42.55 12.2739 41.68L12.7689 38.965C12.8889 38.275 13.0239 37.585 13.1439 36.88C13.2039 36.505 13.2789 36.115 13.3389 35.74L13.4289 35.23C13.4289 35.23 13.5039 35.125 13.5489 35.14C13.6089 35.14 13.6539 35.2 13.6389 35.26L13.5489 35.77C13.4889 36.145 13.4289 36.535 13.3539 36.91C13.2339 37.6 13.1139 38.29 12.9789 38.995L12.4839 41.71C12.3339 42.58 11.8089 45.46 11.6439 46.195C11.6439 46.27 11.2989 48.175 11.2539 48.43C11.2239 48.55 11.1939 48.655 11.0889 48.67C10.7889 48.685 10.4739 48.7 10.1889 48.7V48.715Z" fill="black"/>
<path d="M19.5358 35.26C19.5958 36.535 19.6558 37.795 19.7158 39.07C19.7308 39.505 19.7608 39.955 19.7758 40.39C19.8208 41.485 19.8508 42.58 19.8958 43.675C19.9408 44.62 20.0008 45.58 20.0458 46.525C20.0758 47.32 20.1058 48.1 20.1508 48.895C20.1508 49.105 20.0608 49.165 19.8958 49.165C19.6858 49.165 19.4608 49.15 19.2508 49.135C19.0708 49.135 19.1008 49 19.1008 48.895C19.0858 48.295 18.7558 41.815 18.7258 41.245C18.6658 40.225 18.6058 39.205 18.5458 38.17C18.5158 37.735 18.5008 37.315 18.4858 36.88C18.4558 36.34 18.4408 35.8 18.4258 35.26" fill="white"/>
<path d="M19.8203 49.27C19.7003 49.27 19.5953 49.27 19.4753 49.27C19.4003 49.27 19.3253 49.27 19.2353 49.27C18.9803 49.27 18.9803 49.045 18.9803 48.955V48.91C18.9653 48.31 18.6353 41.83 18.6053 41.275C18.5753 40.66 18.5303 40.045 18.5003 39.445C18.4703 39.04 18.4553 38.62 18.4253 38.215C18.3953 37.78 18.3803 37.36 18.3653 36.925C18.3503 36.55 18.3353 36.175 18.3203 35.8V35.29C18.3203 35.29 18.3503 35.17 18.4103 35.17C18.4853 35.17 18.5153 35.215 18.5303 35.275V35.785C18.5603 36.16 18.5753 36.535 18.5903 36.91C18.6053 37.345 18.6203 37.765 18.6503 38.2C18.6803 38.605 18.6953 39.025 18.7253 39.43C18.7553 40.045 18.8003 40.66 18.8303 41.26C18.8603 41.83 19.1753 48.31 19.2053 48.91V48.955C19.2053 48.955 19.2053 49.03 19.2053 49.045C19.2053 49.045 19.2053 49.045 19.2503 49.045C19.3253 49.045 19.4153 49.045 19.4903 49.045C19.6253 49.045 19.7603 49.06 19.8953 49.045C19.9553 49.045 20.0003 49.045 20.0153 49.015C20.0453 48.985 20.0453 48.94 20.0453 48.895C20.0153 48.445 20.0003 48.01 19.9853 47.56C19.9853 47.215 19.9553 46.87 19.9403 46.525C19.9253 46.09 19.8953 45.64 19.8653 45.205C19.8353 44.695 19.8053 44.185 19.7903 43.66C19.7603 42.97 19.7303 42.28 19.7153 41.59C19.7153 41.185 19.6853 40.78 19.6703 40.375C19.6703 40.03 19.6403 39.7 19.6253 39.355L19.4303 35.26C19.4303 35.26 19.4753 35.14 19.5353 35.14C19.5953 35.14 19.6553 35.185 19.6553 35.245L19.8503 39.34C19.8653 39.685 19.8803 40.03 19.8953 40.36C19.9103 40.765 19.9253 41.17 19.9403 41.575C19.9703 42.265 19.9853 42.955 20.0153 43.645C20.0453 44.155 20.0603 44.665 20.0903 45.175C20.1203 45.61 20.1353 46.06 20.1653 46.495C20.1803 46.84 20.1953 47.185 20.2103 47.53C20.2253 47.98 20.2403 48.415 20.2703 48.865C20.2703 48.985 20.2553 49.075 20.1953 49.15C20.1353 49.21 20.0453 49.255 19.9253 49.255C19.8953 49.255 19.8803 49.255 19.8503 49.255L19.8203 49.27Z" fill="black"/>
<path d="M33.2156 30.79C33.3056 30.985 33.3356 31.21 33.3206 31.435C33.2006 33.295 32.7656 45.37 32.7656 45.37C32.7656 45.37 30.4406 45.925 28.7606 45.37C28.6856 43.57 28.6556 37.06 28.6406 34.6C28.6406 34.06 28.2056 33.64 27.6656 33.64H26.0156" fill="white"/>
<path d="M30.5608 45.73C29.9608 45.73 29.3158 45.67 28.7308 45.475C28.6858 45.475 28.6558 45.415 28.6558 45.37C28.5958 43.585 28.5508 37.24 28.5358 34.585C28.5358 34.12 28.1458 33.73 27.6808 33.73H26.0308C26.0308 33.73 25.9258 33.685 25.9258 33.625C25.9258 33.565 25.9708 33.52 26.0308 33.52H27.6808C28.2658 33.52 28.7608 34 28.7608 34.585C28.7608 37.195 28.8208 43.405 28.8808 45.28C30.3358 45.715 32.2558 45.355 32.6758 45.28C32.7208 44.185 33.0958 33.19 33.2158 31.435C33.2158 31.225 33.2008 31.03 33.1108 30.835C33.0808 30.775 33.1108 30.715 33.1708 30.685C33.2308 30.655 33.2908 30.685 33.3208 30.745C33.4108 30.97 33.4558 31.21 33.4408 31.45C33.3208 33.28 32.9008 45.265 32.8858 45.385C32.8858 45.43 32.8558 45.475 32.7958 45.49C32.7358 45.505 31.7158 45.745 30.5608 45.745V45.73Z" fill="black"/>
<path d="M35.1956 49.75C34.9706 49.75 30.0656 49.495 29.2556 49.33C29.1056 49.3 29.0006 49.21 28.9106 49.075C28.5356 48.445 28.9856 46.81 29.0006 46.735C29.0006 46.69 29.0606 46.66 29.1056 46.66C29.1956 46.66 29.4506 46.675 29.7656 46.69C30.2306 46.72 31.0106 46.765 31.1156 46.75C31.1756 46.75 31.2206 46.705 31.3106 46.63C31.4156 46.54 31.5656 46.42 31.8506 46.255C32.3606 45.955 32.5856 46.09 32.7506 46.18L32.8106 46.21C32.9756 46.3 33.3956 46.765 33.5006 46.9C33.6956 47.005 35.3306 47.815 36.2756 48.415C36.3056 48.43 36.3206 48.46 36.3206 48.49C36.3956 48.82 36.3506 49.105 36.1856 49.33C35.8706 49.75 35.2256 49.765 35.2106 49.765L35.1956 49.75ZM29.1956 46.885C29.0606 47.395 28.8506 48.535 29.1056 48.97C29.1506 49.045 29.2256 49.105 29.3006 49.12C30.0806 49.285 35.1506 49.54 35.1956 49.54C35.1956 49.54 35.7506 49.51 36.0056 49.18C36.1256 49.03 36.1556 48.82 36.1106 48.58C35.1056 47.965 33.3956 47.095 33.3656 47.095C33.3656 47.095 33.3356 47.08 33.3356 47.065C33.1256 46.825 32.7956 46.465 32.6906 46.42C32.6756 46.42 32.6456 46.405 32.6306 46.39C32.4956 46.315 32.3456 46.24 31.9556 46.465C31.7006 46.615 31.5506 46.735 31.4456 46.81C31.3406 46.885 31.2656 46.96 31.1606 46.975C31.0556 47.005 30.6206 46.975 29.7506 46.93C29.5256 46.93 29.3156 46.9 29.1956 46.9V46.885Z" fill="black"/>
<path d="M26.6894 50.215C25.6844 50.215 24.1994 50.035 21.9944 49.495C21.9494 49.495 21.9194 49.45 21.9194 49.42C21.6944 48.565 21.9644 47.38 22.0544 46.99C22.0544 46.945 22.0694 46.9 22.0844 46.885C22.0844 46.855 22.1144 46.825 22.1294 46.81C22.1594 46.795 22.1894 46.795 22.2194 46.81C22.7294 46.96 23.7194 47.035 23.9594 47.05C24.1094 46.9 24.6194 46.405 25.3844 46.3C25.4294 46.3 25.4744 46.3 25.4894 46.345C25.4894 46.345 26.1194 47.29 26.7044 47.575C26.7944 47.62 26.8844 47.665 26.9894 47.71C27.8594 48.1 28.5494 48.445 28.6544 48.79C28.7894 49.195 28.6994 49.63 28.6994 49.645C28.6544 49.75 28.3544 50.245 26.6744 50.245L26.6894 50.215ZM22.0994 49.3C27.5144 50.62 28.4144 49.675 28.4894 49.555C28.4894 49.465 28.5494 49.135 28.4444 48.835C28.3544 48.55 27.4394 48.145 26.8994 47.89C26.7944 47.845 26.7044 47.8 26.6144 47.755C26.0444 47.485 25.4894 46.735 25.3394 46.51C24.5894 46.645 24.0794 47.215 24.0794 47.215C24.0494 47.245 24.0194 47.26 23.9894 47.245C23.9444 47.245 22.8794 47.17 22.2644 47.02C22.1744 47.395 21.9194 48.49 22.0994 49.285V49.3Z" fill="black"/>
<path d="M22.3823 47.005C22.3823 47.005 22.2773 46.96 22.2773 46.9V45.73C22.2773 45.73 22.3223 45.625 22.3823 45.625C22.3823 45.625 22.4873 45.67 22.4873 45.73V46.9C22.4873 46.9 22.4423 47.005 22.3823 47.005Z" fill="black"/>
<path d="M25.0855 46.57C25.0855 46.57 24.9805 46.525 24.9805 46.465V45.94C24.9805 45.94 25.0405 45.835 25.1005 45.835C25.1005 45.835 25.2055 45.88 25.2055 45.94V46.465C25.2055 46.465 25.1455 46.57 25.0855 46.57Z" fill="black"/>
<path d="M29.2691 46.765C29.2691 46.765 29.1641 46.72 29.1641 46.66V45.52C29.1641 45.52 29.2241 45.415 29.2841 45.415C29.2841 45.415 29.3891 45.46 29.3891 45.52V46.66C29.3891 46.66 29.3291 46.765 29.2691 46.765Z" fill="black"/>
<path d="M32.0894 46.285C32.0894 46.285 31.9844 46.24 31.9844 46.18V45.52C31.9844 45.52 32.0444 45.4 32.1044 45.415C32.1644 45.415 32.2094 45.46 32.2094 45.52V46.18C32.2094 46.18 32.1494 46.285 32.0894 46.285Z" fill="black"/>
<path d="M28.4734 35.44H25.8784C25.8784 35.44 25.7734 35.395 25.7734 35.335C25.7734 35.275 25.8184 35.23 25.8784 35.23H28.4734C28.4734 35.23 28.5784 35.275 28.5784 35.335C28.5784 35.395 28.5334 35.44 28.4734 35.44Z" fill="black"/>
<g style="mix-blend-mode:multiply">
<path d="M22.6372 34.765C22.6372 34.195 22.1422 33.73 21.5572 33.73H20.8672H21.1522C21.1522 33.73 21.7522 44.845 21.7972 45.4C21.8722 45.655 23.1472 45.685 23.1472 45.685C23.1472 45.685 22.6822 36.565 22.6372 34.765Z" fill="#E6E6E6"/>
</g>
<path d="M9.58766 16.945L8.97266 11.215L13.1277 10.96L14.6427 10.855L14.9277 10.12L17.6277 9.31L27.3177 10.24L28.4277 12.16L26.5977 12.43L26.8977 13.075V14.17L20.3727 14.455L9.58766 16.945Z" fill="white"/>
<path d="M38.2826 20.125H40.9676C41.6876 20.125 42.2876 19.585 42.3776 18.88L43.7576 8.03501C43.8326 7.48001 43.3826 7.00001 42.8276 7.01501H28.6976C27.9776 7.01501 27.3626 7.55501 27.2876 8.27501L26.1176 18.565C26.0276 19.405 26.6876 20.155 27.5276 20.155H35.3126" fill="white"/>
<path d="M15.245 18.82L10.625 17.53L12.365 12.565C12.815 11.305 13.835 10.315 15.125 9.925L18.185 8.995V9.145C18.185 9.625 18.875 11.2 20.405 11.23C21.425 11.23 22.085 11.05 22.325 10.66C22.535 10.315 22.325 9.91 22.325 9.895L22.52 9.79C22.52 9.79 22.805 10.315 22.52 10.765C22.25 11.23 21.545 11.455 20.405 11.44C18.83 11.41 18.08 9.925 17.975 9.28L15.185 10.12C13.97 10.495 12.995 11.425 12.575 12.625L10.91 17.365L15.08 18.535L16.31 14.38L16.52 14.44L15.23 18.805L15.245 18.82Z" fill="#081017"/>
<path d="M17.1488 23.98C16.9838 23.98 16.8338 23.95 16.7288 23.89C16.4888 23.755 15.9788 23.8 15.7988 23.845L11.8688 23.92C11.8688 23.92 11.8388 23.92 11.8238 23.92C11.1788 23.92 10.5938 23.62 10.2038 23.11C9.81379 22.585 9.69379 21.91 9.88879 21.28L11.0438 17.62L11.2538 17.68L10.0988 21.34C9.91879 21.895 10.0238 22.495 10.3688 22.975C10.7288 23.455 11.2688 23.725 11.8538 23.695L15.7688 23.62C15.7688 23.62 16.4738 23.485 16.8338 23.695C17.1038 23.86 18.0338 23.65 18.3188 23.41L18.4538 23.59C18.2138 23.785 17.5988 23.98 17.1338 23.98H17.1488Z" fill="#081017"/>
<path d="M14.5026 18.4771L13.8672 20.5258L14.0821 20.5925L14.7175 18.5437L14.5026 18.4771Z" fill="#081017"/>
<path d="M21.8306 23.215C21.7256 23.215 21.6206 23.185 21.5606 23.095L21.7406 22.96C21.8156 23.05 22.0556 22.96 22.2506 22.87L20.9456 21.595C20.3456 21.01 19.4306 20.905 18.7256 21.355C18.1856 21.7 17.5406 21.775 16.9256 21.58L12.5156 20.11L12.5906 19.9L17.0006 21.37C17.5406 21.55 18.1256 21.475 18.6056 21.175C19.4006 20.665 20.4206 20.785 21.0956 21.445L22.6106 22.93L22.4906 23.005C22.4156 23.05 22.1006 23.245 21.8456 23.245L21.8306 23.215Z" fill="#081017"/>
<path d="M21.4688 23.785C21.4688 23.785 21.3188 23.77 21.2288 23.725L21.3187 23.515C21.3937 23.545 21.4988 23.575 21.5438 23.515C21.6488 23.38 21.5438 22.96 21.3788 22.72C21.1088 22.36 19.9688 21.595 19.9688 21.595L20.0887 21.415C20.0887 21.415 21.2588 22.21 21.5588 22.6C21.7538 22.87 21.9188 23.41 21.7238 23.665C21.6788 23.71 21.6038 23.785 21.4688 23.785Z" fill="#081017"/>
<path d="M21.2433 24.205H21.0183C21.1083 23.125 19.5033 22.15 19.4883 22.135L19.6083 21.94C19.6083 21.94 21.3483 23.005 21.2433 24.205Z" fill="#081017"/>
<path d="M20.3452 24.235C20.3002 23.635 19.2052 23.035 18.7852 22.855L18.8752 22.645C18.8752 22.645 20.5102 23.35 20.5702 24.205H20.3452V24.235Z" fill="#081017"/>
<path d="M19.982 24.415C19.757 24.415 19.112 23.92 18.917 23.77L17.957 23.305L18.047 23.11L19.022 23.59C19.412 23.89 19.862 24.19 19.967 24.19V24.415H19.982Z" fill="#081017"/>
<path d="M18.3783 24.355C18.3783 24.355 18.2133 24.325 17.9883 23.68L18.1983 23.605C18.2733 23.83 18.3933 24.1 18.4383 24.145C18.4383 24.145 18.4383 24.145 18.4083 24.145L18.3783 24.37V24.355Z" fill="#081017"/>
<path d="M22.5093 22.8317L22.3125 22.9408L23.0397 24.2527L23.2365 24.1436L22.5093 22.8317Z" fill="#081017"/>
<path d="M10.2353 23.995L10.0703 23.05L10.2953 23.02L10.4603 23.95L10.2353 23.995Z" fill="#081017"/>
<path d="M9.94906 20.965L9.19906 14.215C9.10906 13.435 9.33406 12.67 9.84406 12.055C10.3391 11.44 11.0591 11.08 11.8391 11.005L13.4291 10.87V11.095L11.8541 11.23C11.1341 11.29 10.4741 11.635 10.0091 12.19C9.54406 12.76 9.33406 13.465 9.40906 14.185L10.1591 20.935L9.93406 20.965H9.94906Z" fill="#081017"/>
<path d="M25.2172 23.35H24.9922L25.0972 14.335H25.3072L25.2172 23.35Z" fill="#081017"/>
<path d="M28.5048 24.31L26.7048 23.47L24.9648 20.95L25.1448 20.815L26.8398 23.29L28.5948 24.115L28.5048 24.31Z" fill="#081017"/>
<path d="M26.7336 12.835C26.7336 12.835 25.3386 10.285 22.3086 9.76L22.3536 9.535C25.5036 10.075 26.9286 12.7 26.9436 12.715L26.7486 12.82L26.7336 12.835Z" fill="#081017"/>
<path d="M38.2826 20.125H40.9676C41.6876 20.125 42.2876 19.585 42.3776 18.88L43.7576 8.03501C43.8326 7.48001 43.3826 7.00001 42.8276 7.01501H28.6976C27.9776 7.01501 27.3626 7.55501 27.2876 8.27501L26.1176 18.565C26.0276 19.405 26.6876 20.155 27.5276 20.155H35.3126" fill="#F41BA2"/>
<path d="M35.3287 20.26H27.5437C27.1087 20.26 26.6887 20.08 26.4037 19.75C26.1187 19.42 25.9687 18.985 26.0287 18.55L27.1987 8.26C27.2887 7.48 27.9487 6.895 28.7287 6.895H42.8587C43.1587 6.895 43.4437 7.015 43.6387 7.225C43.8337 7.45 43.9387 7.75 43.8937 8.035L42.5137 18.88C42.4087 19.645 41.7637 20.215 40.9987 20.215H38.3137V19.99H40.9987C41.6587 19.99 42.2137 19.495 42.3037 18.85L43.6837 8.005C43.7137 7.78 43.6387 7.54 43.4887 7.375C43.3387 7.195 43.0987 7.105 42.8737 7.12H28.7437C28.0687 7.12 27.5137 7.615 27.4387 8.29L26.2687 18.58C26.2237 18.955 26.3437 19.33 26.5987 19.6C26.8537 19.885 27.1987 20.035 27.5737 20.035H35.3587V20.26H35.3287Z" fill="#081017"/>
<path d="M31.8032 20.26H28.5632C28.1282 20.26 27.7082 20.08 27.4232 19.75C27.1382 19.42 26.9882 18.985 27.0482 18.55L28.2182 8.26C28.3082 7.48 28.9682 6.895 29.7482 6.895H39.3182V7.12H29.7482C29.0732 7.12 28.5182 7.615 28.4432 8.29L27.2732 18.58C27.2282 18.955 27.3482 19.33 27.6032 19.6C27.8582 19.885 28.2032 20.035 28.5782 20.035H31.8182V20.26H31.8032Z" fill="#081017"/>
<path d="M28.1294 21.355L27.8594 20.185L28.0694 20.125L28.3394 21.295L28.1294 21.355Z" fill="#081017"/>
<path d="M33.2003 23.395C32.1203 22.84 29.1953 21.4 28.7003 21.34C28.1453 21.28 27.8903 21.745 27.8903 21.775L27.6953 21.67C27.6953 21.67 28.0253 21.04 28.7303 21.13C29.3753 21.205 33.1553 23.125 33.3053 23.2L33.2003 23.395Z" fill="#081017"/>
<path d="M43.8039 30.955H0.753906V24.04H43.8039V30.955ZM0.978906 30.745H43.5939V24.28H0.978906V30.745Z" fill="#081017"/>
<path d="M31.1016 24.19C31.1016 23.755 31.4616 23.395 31.8966 23.395H34.5966C35.2566 23.395 35.7666 22.81 35.6766 22.15L34.5966 15.07C34.5366 14.68 34.8366 14.335 35.2266 14.32L36.6666 14.29C36.9816 14.29 37.2516 14.515 37.3116 14.815L38.8116 22.915C38.9316 23.56 38.4366 24.145 37.7766 24.145" fill="white"/>
<path d="M37.7755 24.265V24.04C38.0605 24.04 38.3155 23.92 38.4955 23.71C38.6755 23.5 38.7505 23.215 38.6905 22.945L37.1905 14.845C37.1455 14.59 36.9205 14.41 36.6505 14.41L35.2105 14.44C35.0605 14.44 34.9105 14.515 34.8055 14.635C34.7005 14.755 34.6555 14.905 34.6855 15.07L35.7655 22.15C35.8255 22.495 35.7205 22.84 35.4955 23.11C35.2705 23.38 34.9405 23.53 34.5805 23.53H31.8805C31.5055 23.53 31.2055 23.83 31.2055 24.205H30.9805C30.9805 23.71 31.3855 23.305 31.8805 23.305H34.5805C34.8655 23.305 35.1355 23.185 35.3155 22.96C35.4955 22.75 35.5855 22.465 35.5405 22.18L34.4605 15.1C34.4305 14.89 34.4905 14.665 34.6255 14.5C34.7605 14.335 34.9705 14.23 35.1955 14.23L36.6355 14.2C37.0105 14.2 37.3255 14.455 37.4005 14.815L38.9005 22.915C38.9605 23.26 38.8705 23.605 38.6455 23.86C38.4205 24.13 38.1055 24.28 37.7605 24.28L37.7755 24.265Z" fill="#081017"/>
<g style="mix-blend-mode:multiply">
<path d="M16.5953 33.595C16.5953 33.595 14.4653 34.33 13.7003 31.81C13.6253 31.42 13.5653 31.075 13.5203 30.775H11.1953V30.82C11.1953 30.82 11.4803 33.085 11.8103 33.22C12.1403 33.355 12.2453 33.565 11.7503 33.655C11.2553 33.745 11.2403 34.51 11.3153 34.795C11.3903 35.08 12.1553 35.2 12.7103 35.2H21.2303V33.715L16.5953 33.595Z" fill="#E6E6E6"/>
</g>
<path d="M23.5675 3.625C22.0825 2.98 20.8975 2.665 21.0925 3.205C21.2875 3.745 19.8775 3.805 18.6325 2.77C18.4825 4.18 17.4325 4.21 17.4325 4.21H17.2675C16.8775 4.21 16.5625 4.525 16.5625 4.915C16.5625 5.305 16.8775 5.62 17.2675 5.62L17.3725 6.295C17.3725 8.245 18.9325 9.82 20.8675 9.85C22.6375 9.88 24.0475 8.365 24.0475 6.595V3.925" fill="white"/>
<path d="M21.198 4.94501L21.048 4.79501C20.898 4.64501 20.688 4.55501 20.478 4.55501L19.503 4.58501C19.218 4.58501 18.948 4.76501 18.828 5.03501V5.08001C18.738 5.26001 18.723 5.45501 18.798 5.63501L18.858 5.78501C18.963 6.07001 19.233 6.28001 19.548 6.28001L20.538 6.31001C20.748 6.31001 20.943 6.23501 21.093 6.10001L21.183 6.01001C21.348 5.84501 21.438 5.62001 21.408 5.38001C21.393 5.21501 21.318 5.06501 21.198 4.94501Z" fill="#F41BA2"/>
<path d="M18.8268 5.155C18.8268 5.155 18.7818 5.155 18.7668 5.14L17.3118 4.21C17.3118 4.21 17.2518 4.105 17.2818 4.06C17.3118 4.015 17.3868 4 17.4318 4.03L18.8868 4.96C18.8868 4.96 18.9468 5.065 18.9168 5.11C18.9018 5.14 18.8568 5.155 18.8268 5.155Z" fill="#081017"/>
<path d="M21.3475 5.57501C21.3475 5.57501 21.2725 5.54501 21.2425 5.51501C21.2125 5.45501 21.2425 5.39501 21.2875 5.36501C21.8125 5.11001 22.0975 5.32001 22.0975 5.33501C22.1425 5.38001 22.1575 5.44 22.1125 5.485C22.0825 5.53 22.0075 5.54501 21.9625 5.50001C21.9625 5.50001 21.7675 5.36501 21.3775 5.56001C21.3625 5.56001 21.3475 5.56001 21.3325 5.56001L21.3475 5.57501Z" fill="#081017"/>
<path d="M22.6674 4.66001C22.4574 4.72001 22.2774 4.87001 22.1874 5.08001V5.12501C22.0974 5.30501 22.0824 5.50001 22.1574 5.68001L22.2174 5.83001C22.3224 6.11501 22.5924 6.32501 22.9074 6.32501L23.8974 6.35501C24.1074 6.35501 24.3024 6.28001 24.4524 6.14501L24.5424 6.05501C24.7074 5.89001 24.7974 5.66501 24.7674 5.42501C24.7524 5.26001 24.6774 5.11001 24.5724 4.99001L24.4224 4.84001C24.2724 4.69001 24.0624 4.60001 23.8524 4.60001L22.8774 4.63001C22.8774 4.63001 22.7574 4.63001 22.6974 4.66001" fill="#F41BA2"/>
<path d="M21.4238 8.905C21.4238 8.905 21.4238 8.905 21.4088 8.905C20.0738 8.71 19.9688 7.555 19.9688 7.54C19.9688 7.51 19.9688 7.48 19.9988 7.45C20.0138 7.42 20.0437 7.42 20.0737 7.42L22.4888 7.375C22.4888 7.375 22.5938 7.42 22.5938 7.48C22.5938 7.54 22.5488 7.585 22.4888 7.585L20.1937 7.615C20.2537 7.885 20.4938 8.515 21.4238 8.65C21.4838 8.65 21.5288 8.71 21.5138 8.77C21.5138 8.83 21.4538 8.86 21.4088 8.86L21.4238 8.905Z" fill="#081017"/>
<path d="M21.198 4.945L21.048 4.795C20.898 4.645 20.688 4.555 20.478 4.555L19.503 4.585C19.218 4.585 18.948 4.765 18.828 5.035V5.08C18.738 5.26 18.723 5.455 18.798 5.635L18.858 5.785C18.963 6.07 19.233 6.28 19.548 6.28L20.538 6.31C20.748 6.31 20.943 6.235 21.093 6.1L21.183 6.01C21.348 5.845 21.438 5.62 21.408 5.38C21.393 5.215 21.318 5.065 21.198 4.945Z" fill="white"/>
<path d="M22.037 5.425C22.037 5.425 21.812 5.245 21.332 5.47L22.037 5.425Z" fill="white"/>
<path d="M22.6674 4.66001C22.4574 4.72001 22.2774 4.87001 22.1874 5.08001V5.12501C22.0974 5.30501 22.0824 5.50001 22.1574 5.68001L22.2174 5.83001C22.3224 6.11501 22.5924 6.32501 22.9074 6.32501L23.8974 6.35501C24.1074 6.35501 24.3024 6.28001 24.4524 6.14501L24.5424 6.05501C24.7074 5.89001 24.7974 5.66501 24.7674 5.42501C24.7524 5.26001 24.6774 5.11001 24.5724 4.99001L24.4224 4.84001C24.2724 4.69001 24.0624 4.60001 23.8524 4.60001L22.8774 4.63001C22.8774 4.63001 22.7574 4.63001 22.6974 4.66001" fill="white"/>
<path d="M22.5009 7.495L20.0859 7.54C20.0859 7.54 20.1609 8.62 21.4209 8.8" fill="white"/>
<path d="M21.3203 6.88001C21.3203 6.88001 21.7403 6.50501 22.2653 6.92501L21.3203 6.88001Z" fill="white"/>
<path d="M24.6635 5.57501C25.0235 5.57501 25.3085 5.29 25.3085 4.93V4.72001C25.3085 2.185 23.2535 0.130005 20.7185 0.130005H20.2985C17.5835 0.130005 15.8585 2.56001 16.2935 5.23001L16.6085 7.12C16.6685 7.495 17.2385 7.9 17.5535 8.11" fill="white"/>
<path d="M23.5675 3.625C22.0825 2.98 20.8975 2.665 21.0925 3.205C21.2875 3.745 19.8775 3.805 18.6325 2.77C18.4825 4.18 17.4325 4.21 17.4325 4.21H17.2675C16.8775 4.21 16.5625 4.525 16.5625 4.915C16.5625 5.305 16.8775 5.62 17.2675 5.62L17.3725 6.295C17.3725 8.245 18.9325 9.82 20.8675 9.85C22.6375 9.88 24.0475 8.365 24.0475 6.595V3.925" fill="white"/>
<path d="M20.8964 9.955C20.8964 9.955 20.8664 9.955 20.8514 9.955C18.8564 9.925 17.2514 8.29 17.2514 6.295L17.1614 5.725C16.7564 5.68 16.4414 5.335 16.4414 4.915C16.4414 4.465 16.8014 4.09 17.2664 4.09H17.4314C17.4314 4.09 18.3764 4.03 18.5114 2.74C18.5114 2.695 18.5414 2.665 18.5864 2.65C18.6314 2.635 18.6614 2.65 18.6914 2.665C19.6664 3.475 20.6714 3.565 20.9414 3.385C21.0014 3.34 21.0164 3.295 20.9864 3.235C20.9264 3.055 20.9864 2.965 21.0314 2.905C21.2714 2.68 22.1414 2.875 23.6114 3.52C23.6714 3.55 23.6864 3.61 23.6714 3.67C23.6414 3.73 23.5814 3.745 23.5214 3.73C21.8864 3.025 21.2864 2.995 21.1814 3.085C21.1664 3.1 21.1814 3.16 21.1814 3.175C21.2414 3.34 21.1814 3.49 21.0464 3.58C20.7014 3.82 19.6814 3.73 18.6914 2.98C18.4514 4.27 17.4314 4.33 17.4164 4.33H17.2364C16.9064 4.33 16.6364 4.6 16.6364 4.93C16.6364 5.26 16.9064 5.53 17.2364 5.53C17.2964 5.53 17.3414 5.575 17.3414 5.62L17.4464 6.295C17.4464 8.185 18.9614 9.73 20.8364 9.745C20.8364 9.745 20.8664 9.745 20.8814 9.745C21.6464 9.745 22.3814 9.445 22.9514 8.89C23.5514 8.29 23.9114 7.465 23.9114 6.61V3.94C23.9114 3.94 23.9564 3.835 24.0164 3.835C24.0764 3.835 24.1214 3.88 24.1214 3.94V6.61C24.1214 7.525 23.7464 8.41 23.1014 9.055C22.5014 9.655 21.7064 9.985 20.8814 9.985L20.8964 9.955Z" fill="#081017"/>
<path d="M21.198 4.94501L21.048 4.79501C20.898 4.64501 20.688 4.55501 20.478 4.55501L19.503 4.58501C19.218 4.58501 18.948 4.76501 18.828 5.03501V5.08001C18.738 5.26001 18.723 5.45501 18.798 5.63501L18.858 5.78501C18.963 6.07001 19.233 6.28001 19.548 6.28001L20.538 6.31001C20.748 6.31001 20.943 6.23501 21.093 6.10001L21.183 6.01001C21.348 5.84501 21.438 5.62001 21.408 5.38001C21.393 5.21501 21.318 5.06501 21.198 4.94501Z" fill="#F41BA2"/>
<path d="M18.8268 5.155C18.8268 5.155 18.7818 5.155 18.7668 5.14L17.3118 4.21C17.3118 4.21 17.2518 4.105 17.2818 4.06C17.3118 4.015 17.3868 4 17.4318 4.03L18.8868 4.96C18.8868 4.96 18.9468 5.065 18.9168 5.11C18.9018 5.14 18.8568 5.155 18.8268 5.155Z" fill="#081017"/>
<path d="M21.3475 5.57501C21.3475 5.57501 21.2725 5.54501 21.2425 5.51501C21.2125 5.45501 21.2425 5.39501 21.2875 5.36501C21.8125 5.11001 22.0975 5.32001 22.0975 5.33501C22.1425 5.38001 22.1575 5.44 22.1125 5.485C22.0825 5.53 22.0075 5.54501 21.9625 5.50001C21.9625 5.50001 21.7675 5.36501 21.3775 5.56001C21.3625 5.56001 21.3475 5.56001 21.3325 5.56001L21.3475 5.57501Z" fill="#081017"/>
<path d="M22.6674 4.66001C22.4574 4.72001 22.2774 4.87001 22.1874 5.08001V5.12501C22.0974 5.30501 22.0824 5.50001 22.1574 5.68001L22.2174 5.83001C22.3224 6.11501 22.5924 6.32501 22.9074 6.32501L23.8974 6.35501C24.1074 6.35501 24.3024 6.28001 24.4524 6.14501L24.5424 6.05501C24.7074 5.89001 24.7974 5.66501 24.7674 5.42501C24.7524 5.26001 24.6774 5.11001 24.5724 4.99001L24.4224 4.84001C24.2724 4.69001 24.0624 4.60001 23.8524 4.60001L22.8774 4.63001C22.8774 4.63001 22.7574 4.63001 22.6974 4.66001" fill="#F41BA2"/>
<path d="M21.1056 8.665C21.1056 8.665 21.1056 8.665 21.0906 8.665C19.9656 8.5 19.8906 7.525 19.8906 7.525C19.8906 7.495 19.8906 7.465 19.9206 7.435C19.9356 7.405 19.9656 7.405 19.9956 7.405L22.2006 7.375C22.2006 7.375 22.3056 7.42 22.3056 7.48C22.3056 7.54 22.2606 7.585 22.2006 7.585L20.1306 7.615C20.1906 7.84 20.4006 8.335 21.1206 8.44C21.1806 8.44 21.2256 8.5 21.2106 8.56C21.2106 8.62 21.1506 8.65 21.1056 8.65V8.665Z" fill="#081017"/>
<path d="M21.198 4.945L21.048 4.795C20.898 4.645 20.688 4.555 20.478 4.555L19.503 4.585C19.218 4.585 18.948 4.765 18.828 5.035V5.08C18.738 5.26 18.723 5.455 18.798 5.635L18.858 5.785C18.963 6.07 19.233 6.28 19.548 6.28L20.538 6.31C20.748 6.31 20.943 6.235 21.093 6.1L21.183 6.01C21.348 5.845 21.438 5.62 21.408 5.38C21.393 5.215 21.318 5.065 21.198 4.945Z" fill="white"/>
<path d="M22.037 5.425C22.037 5.425 21.812 5.245 21.332 5.47L22.037 5.425Z" fill="white"/>
<path d="M22.6674 4.66001C22.4574 4.72001 22.2774 4.87001 22.1874 5.08001V5.12501C22.0974 5.30501 22.0824 5.50001 22.1574 5.68001L22.2174 5.83001C22.3224 6.11501 22.5924 6.32501 22.9074 6.32501L23.8974 6.35501C24.1074 6.35501 24.3024 6.28001 24.4524 6.14501L24.5424 6.05501C24.7074 5.89001 24.7974 5.66501 24.7674 5.42501C24.7524 5.26001 24.6774 5.11001 24.5724 4.99001L24.4224 4.84001C24.2724 4.69001 24.0624 4.60001 23.8524 4.60001L22.8774 4.63001C22.8774 4.63001 22.7574 4.63001 22.6974 4.66001" fill="white"/>
<path d="M22.2011 7.48L19.9961 7.51C19.9961 7.51 20.0561 8.395 21.1061 8.56" fill="white"/>
<path d="M20.5499 6.43C20.5499 6.43 20.5349 6.43 20.5199 6.43L19.5299 6.4C19.1699 6.4 18.8699 6.16 18.7499 5.83L18.6899 5.68C18.6149 5.47 18.6299 5.245 18.7049 5.05V5.005C18.8549 4.705 19.1549 4.495 19.4849 4.48L20.4599 4.45C20.6999 4.45 20.9399 4.54 21.1049 4.72L21.2549 4.87C21.3899 5.005 21.4649 5.185 21.4799 5.365C21.5099 5.635 21.4199 5.89 21.2249 6.085L21.1349 6.175C20.9699 6.34 20.7599 6.415 20.5349 6.415L20.5499 6.43ZM20.5049 4.675C20.5049 4.675 20.5049 4.675 20.4899 4.675L19.5149 4.705C19.2599 4.705 19.0499 4.87 18.9449 5.095V5.14C18.8549 5.29 18.8549 5.455 18.9149 5.62L18.9749 5.77C19.0649 6.025 19.2899 6.19 19.5599 6.19L20.5499 6.22C20.7149 6.22 20.8949 6.16 21.0149 6.04L21.1049 5.95C21.2399 5.815 21.3149 5.62 21.2999 5.41C21.2849 5.275 21.2249 5.14 21.1199 5.035L20.9699 4.885C20.8499 4.765 20.6849 4.69 20.5049 4.69V4.675Z" fill="#081017"/>
<path d="M18.8268 5.155C18.8268 5.155 18.7818 5.155 18.7668 5.14L17.3118 4.21C17.3118 4.21 17.2518 4.105 17.2818 4.06C17.3118 4.015 17.3868 4 17.4318 4.03L18.8868 4.96C18.8868 4.96 18.9468 5.065 18.9168 5.11C18.9018 5.14 18.8568 5.155 18.8268 5.155Z" fill="#081017"/>
<path d="M21.3475 5.57501C21.3475 5.57501 21.2725 5.54501 21.2425 5.51501C21.2125 5.45501 21.2425 5.39501 21.2875 5.36501C21.8125 5.11001 22.0975 5.32001 22.0975 5.33501C22.1425 5.38001 22.1575 5.44 22.1125 5.485C22.0825 5.53 22.0075 5.54501 21.9625 5.50001C21.9625 5.50001 21.7675 5.36501 21.3775 5.56001C21.3625 5.56001 21.3475 5.56001 21.3325 5.56001L21.3475 5.57501Z" fill="#081017"/>
<path d="M23.9132 6.475C23.9132 6.475 23.8982 6.475 23.8832 6.475L22.8932 6.445C22.5332 6.445 22.2332 6.205 22.1132 5.875L22.0532 5.725C21.9782 5.515 21.9932 5.29 22.0682 5.095V5.05C22.1882 4.81 22.3982 4.63 22.6382 4.57C22.6382 4.57 22.7732 4.54 22.8482 4.54L23.8232 4.51C24.0632 4.51 24.3032 4.6 24.4682 4.78L24.6182 4.93C24.7532 5.065 24.8282 5.245 24.8432 5.425C24.8732 5.695 24.7832 5.95 24.5882 6.145L24.4982 6.235C24.3332 6.4 24.1232 6.475 23.8982 6.475H23.9132ZM22.6982 4.765C22.5182 4.825 22.3682 4.945 22.2782 5.125V5.17C22.1882 5.32 22.1882 5.485 22.2482 5.65L22.3082 5.8C22.3982 6.055 22.6232 6.22 22.8932 6.22L23.8832 6.25C24.0632 6.25 24.2282 6.19 24.3482 6.07L24.4382 5.98C24.5732 5.845 24.6482 5.65 24.6332 5.44C24.6182 5.305 24.5582 5.17 24.4532 5.065L24.3032 4.915C24.1832 4.78 24.0032 4.72 23.8232 4.72L22.8482 4.75C22.8482 4.75 22.7432 4.75 22.6982 4.78V4.765Z" fill="#081017"/>
<path d="M21.1056 8.665C21.1056 8.665 21.1056 8.665 21.0906 8.665C19.9656 8.5 19.8906 7.525 19.8906 7.525C19.8906 7.495 19.8906 7.465 19.9206 7.435C19.9356 7.405 19.9656 7.405 19.9956 7.405L22.2006 7.375C22.2006 7.375 22.3056 7.42 22.3056 7.48C22.3056 7.54 22.2606 7.585 22.2006 7.585L20.1306 7.615C20.1906 7.84 20.4006 8.335 21.1206 8.44C21.1806 8.44 21.2256 8.5 21.2106 8.56C21.2106 8.62 21.1506 8.65 21.1056 8.65V8.665Z" fill="#081017"/>
<path d="M21.3008 6.67C21.3008 6.67 21.7208 6.295 22.2458 6.715L21.3008 6.67Z" fill="white"/>
<path d="M22.2476 6.82C22.2476 6.82 22.2026 6.82 22.1726 6.79C21.7376 6.43 21.3926 6.73 21.3776 6.745C21.3326 6.79 21.2576 6.775 21.2276 6.745C21.1826 6.7 21.1976 6.625 21.2276 6.595C21.3926 6.445 21.8426 6.25 22.3076 6.64C22.3526 6.685 22.3676 6.745 22.3076 6.79C22.2926 6.82 22.2476 6.835 22.2176 6.835L22.2476 6.82Z" fill="#081017"/>
<path d="M17.5524 8.245C17.5524 8.245 17.5074 8.245 17.4924 8.23C17.0574 7.945 16.5624 7.555 16.4874 7.165L16.1724 5.275C15.9474 3.865 16.2924 2.47 17.1624 1.465C17.9424 0.550001 19.0524 0.0400009 20.2974 0.0400009H20.7174C23.3124 0.0400009 25.4124 2.155 25.4124 4.735V4.945C25.4124 5.365 25.0674 5.695 24.6624 5.695C24.6024 5.695 24.5574 5.65 24.5574 5.59C24.5574 5.53 24.6024 5.485 24.6624 5.485C24.9624 5.485 25.2024 5.245 25.2024 4.945V4.735C25.2024 2.26 23.1924 0.250001 20.7174 0.250001H20.2974C19.1274 0.250001 18.0624 0.730001 17.3274 1.585C16.5174 2.545 16.1724 3.865 16.3974 5.215L16.7124 7.105C16.7724 7.45 17.4024 7.885 17.6124 8.02C17.6574 8.05 17.6724 8.125 17.6424 8.17C17.6274 8.2 17.5824 8.215 17.5524 8.215V8.245Z" fill="#E10098"/>
<path d="M22.8345 5.77C23.0085 5.77 23.1495 5.62897 23.1495 5.455C23.1495 5.28103 23.0085 5.14 22.8345 5.14C22.6606 5.14 22.5195 5.28103 22.5195 5.455C22.5195 5.62897 22.6606 5.77 22.8345 5.77Z" fill="black"/>
<path d="M20.0298 5.8C20.2038 5.8 20.3448 5.65897 20.3448 5.485C20.3448 5.31103 20.2038 5.17 20.0298 5.17C19.8559 5.17 19.7148 5.31103 19.7148 5.485C19.7148 5.65897 19.8559 5.8 20.0298 5.8Z" fill="black"/>
<path d="M13.5195 30.775C13.5195 30.775 13.5195 33.7 16.1295 33.7H19.8195" fill="white"/>
<path d="M19.8347 33.805H16.1447C15.3947 33.805 14.7647 33.565 14.3147 33.1C13.4297 32.215 13.4297 30.82 13.4297 30.775C13.4297 30.715 13.4747 30.67 13.5347 30.67C13.5347 30.67 13.6397 30.715 13.6397 30.775C13.6397 30.775 13.6397 32.125 14.4647 32.95C14.8847 33.37 15.4547 33.58 16.1447 33.58H19.8347C19.8347 33.58 19.9397 33.625 19.9397 33.685C19.9397 33.745 19.8947 33.79 19.8347 33.79V33.805Z" fill="#081017"/>
<g style="mix-blend-mode:multiply">
<path d="M14.3895 11.185L12.2145 16.495C12.0495 16.915 12.2295 17.395 12.6495 17.575L14.9595 18.595L11.2845 17.44L10.0695 20.965L9.27447 14.365C9.07947 12.715 10.2945 11.23 11.9445 11.11L13.5495 10.99" fill="#E6E6E6"/>
</g>
<g style="mix-blend-mode:multiply">
<path d="M16.6703 14.71L15.6053 19.66C15.6053 19.66 16.8653 21.19 17.4353 21.49C15.1103 20.89 13.8203 20.38 13.8203 20.38C13.8203 20.38 14.0603 20.455 14.0603 20.185C14.0603 19.915 14.6903 18.535 14.6903 18.535L15.1703 18.685L16.4303 14.56L16.6703 14.695V14.71Z" fill="#E6E6E6"/>
</g>
<g style="mix-blend-mode:multiply">
<path d="M25.7578 32.575L28.1878 32.65C29.0878 32.68 29.8078 33.4 29.8528 34.3L30.2878 45.445L28.7578 45.37L28.5328 34.48C28.5328 33.925 28.0378 33.49 27.4828 33.535L25.9078 33.67L25.7578 32.575Z" fill="#E6E6E6"/>
</g>
<g style="mix-blend-mode:multiply">
<path d="M25.1602 14.455L25.6702 15.265L26.2402 22.57L25.2802 21.175L25.1602 14.455Z" fill="#E6E6E6"/>
</g>
<path d="M43.6844 24.04H0.859375V24.265H43.6844V24.04Z" fill="#081017"/>
<g style="mix-blend-mode:multiply">
<path d="M35.3888 14.275L36.9938 24.19H31.0988C31.0988 24.19 30.9938 23.065 32.7938 23.455C33.5888 23.41 34.2488 23.41 34.7588 23.395C35.4038 23.395 35.8988 22.81 35.7788 22.18L34.5938 15.205C34.5188 14.725 34.8788 14.29 35.3588 14.275H35.3738H35.3888Z" fill="#E6E6E6"/>
</g>
<path d="M3.98125 30.85L1.65625 50.32H2.51125L5.49625 30.85H3.98125Z" fill="white"/>
<path d="M2.60016 50.425H1.53516L3.89016 30.73H5.61516L2.60016 50.425ZM1.77516 50.215H2.40516L5.36016 30.97H4.08516L1.79016 50.215H1.77516Z" fill="#081017"/>
<path d="M39.9486 30.85L42.2736 50.32H41.4186L38.4336 30.85H39.9486Z" fill="white"/>
<path d="M42.3925 50.425H41.3275L38.3125 30.73H40.0375L42.3925 50.425ZM41.5225 50.215H42.1525L39.8575 30.97H38.5825L41.5375 50.215H41.5225Z" fill="#081017"/>
</svg>
