<svg width="42" height="42" viewBox="0 0 42 42" fill="none" xmlns="http://www.w3.org/2000/svg">
<path d="M20.9999 5.50065C23.8416 5.50065 26.1666 7.82565 26.1666 10.6673C26.1666 13.509 23.8416 15.834 20.9999 15.834C18.1583 15.834 15.8333 13.509 15.8333 10.6673C15.8333 7.82565 18.1583 5.50065 20.9999 5.50065ZM20.9999 31.334C27.9749 31.334 35.9832 34.6665 36.4999 36.5006H5.49992C6.09409 34.6407 14.0508 31.334 20.9999 31.334ZM20.9999 0.333984C15.2908 0.333984 10.6666 4.95815 10.6666 10.6673C10.6666 16.3765 15.2908 21.0007 20.9999 21.0007C26.7091 21.0007 31.3333 16.3765 31.3333 10.6673C31.3333 4.95815 26.7091 0.333984 20.9999 0.333984ZM20.9999 26.1673C14.1024 26.1673 0.333252 29.629 0.333252 36.5006V41.6673H41.6666V36.5006C41.6666 29.629 27.8974 26.1673 20.9999 26.1673Z" fill="currentColor"/>
</svg>
