<svg width="20" height="20" viewBox="0 0 20 20" fill="none" xmlns="http://www.w3.org/2000/svg">
<path d="M10 0C8.19945 0.000258795 6.43235 0.486594 4.8852 1.40768C3.33806 2.32876 2.06826 3.65043 1.20983 5.23319C0.351392 6.81596 -0.0638391 8.60111 0.00795525 10.4002C0.0797496 12.1994 0.635907 13.9458 1.61773 15.4551C1.69343 15.5712 1.7969 15.6666 1.91876 15.7327C2.04062 15.7987 2.17704 15.8333 2.31565 15.8333H17.6843C17.8229 15.8333 17.9593 15.7987 18.0812 15.7327C18.203 15.6666 18.3065 15.5712 18.3822 15.4551C19.364 13.9458 19.9202 12.1994 19.992 10.4003C20.0638 8.60115 19.6486 6.816 18.7901 5.23324C17.9317 3.65048 16.6619 2.32881 15.1148 1.40772C13.5677 0.486626 11.8006 0.000277545 10 0ZM17.2188 14.1667H2.78127C2.19025 13.1447 1.82444 12.0082 1.70836 10.8333H3.33336V9.16667H1.70836C1.79805 8.27138 2.03333 7.39675 2.40492 6.57729L3.80971 7.38833L4.64304 5.945L3.24044 5.13542C3.76665 4.40643 4.40645 3.76663 5.13544 3.24042L5.94533 4.64313L7.38867 3.80979L6.57731 2.405C7.39676 2.03338 8.2714 1.79806 9.16669 1.70833V3.33333H10.8334V1.70833C11.7286 1.79803 12.6033 2.03331 13.4227 2.4049L12.6117 3.80969L14.055 4.64302L14.8646 3.24042C15.5936 3.76663 16.2334 4.40643 16.7596 5.13542L15.3569 5.94531L16.1902 7.38865L17.595 6.5776C17.9666 7.39696 18.2019 8.27148 18.2917 9.16667H16.6667V10.8333H18.2917C18.1756 12.0082 17.8098 13.1447 17.2188 14.1667Z" fill="currentColor"/>
<path d="M11.7851 6.23804L10.4981 8.38387C9.91919 8.2655 9.31711 8.35562 8.79827 8.6383C8.27944 8.92098 7.87727 9.37801 7.66287 9.92859C7.44847 10.4792 7.43566 11.0878 7.62669 11.6469C7.81772 12.206 8.2003 12.6796 8.70677 12.9839C9.21325 13.2881 9.811 13.4035 10.3943 13.3096C10.9777 13.2157 11.509 12.9186 11.8944 12.4707C12.2798 12.0229 12.4945 11.4532 12.5004 10.8624C12.5063 10.2716 12.3031 9.69768 11.9268 9.2422L13.2143 7.09554L11.7851 6.23804ZM9.99972 11.6668C9.8349 11.6668 9.67378 11.6179 9.53674 11.5263C9.3997 11.4348 9.29289 11.3046 9.22982 11.1524C9.16675 11.0001 9.15024 10.8325 9.1824 10.6709C9.21455 10.5092 9.29392 10.3607 9.41046 10.2442C9.52701 10.1277 9.67549 10.0483 9.83714 10.0161C9.99879 9.98398 10.1663 10.0005 10.3186 10.0636C10.4709 10.1266 10.601 10.2334 10.6926 10.3705C10.7842 10.5075 10.8331 10.6686 10.8331 10.8335C10.8328 11.0544 10.7449 11.2662 10.5887 11.4224C10.4325 11.5787 10.2207 11.6665 9.99972 11.6668Z" fill="currentColor"/>
</svg>
