<svg width="28" height="28" viewBox="0 0 28 28" fill="none" xmlns="http://www.w3.org/2000/svg">
<path d="M22.2628 5.56582C20.1431 3.43471 17.3205 2.26714 14.3165 2.26714C8.12725 2.26714 3.08287 7.31151 3.08287 13.5008C3.08287 15.4845 3.60431 17.4116 4.57918 19.1119L2.99219 24.9385L8.94342 23.3742C10.5871 24.2697 12.4348 24.7458 14.3165 24.7458C20.5058 24.7458 25.5502 19.7014 25.5502 13.5121C25.5502 10.5082 24.3826 7.68559 22.2628 5.56582ZM14.3165 22.8414C12.6388 22.8414 10.9952 22.388 9.55554 21.5378L9.21547 21.3337L5.67874 22.2633L6.6196 18.8172L6.39289 18.4658C5.46336 16.9808 4.96459 15.2578 4.96459 13.5008C4.96459 8.35439 9.15879 4.16019 14.3052 4.16019C16.799 4.16019 19.1455 5.13506 20.9026 6.90343C22.6709 8.67179 23.6345 11.0183 23.6345 13.5121C23.6571 18.6585 19.4629 22.8414 14.3165 22.8414ZM19.4403 15.8586C19.1569 15.7226 17.7739 15.0424 17.5245 14.9404C17.2638 14.8497 17.0824 14.8044 16.8897 15.0764C16.697 15.3598 16.1642 15.9946 16.0055 16.176C15.8468 16.3687 15.6768 16.3914 15.3934 16.244C15.11 16.108 14.2032 15.8019 13.1376 14.8497C12.2988 14.1016 11.7433 13.1834 11.5733 12.9C11.4146 12.6166 11.5506 12.4692 11.698 12.3219C11.8227 12.1972 11.9814 11.9931 12.1174 11.8344C12.2534 11.6757 12.3101 11.5511 12.4008 11.3697C12.4915 11.177 12.4461 11.0183 12.3781 10.8822C12.3101 10.7462 11.7433 9.36327 11.5166 8.79648C11.2899 8.25237 11.0519 8.32039 10.8818 8.30905C10.7118 8.30905 10.5304 8.30905 10.3377 8.30905C10.145 8.30905 9.85027 8.37706 9.58955 8.66046C9.34016 8.94385 8.61468 9.62399 8.61468 11.0069C8.61468 12.3899 9.62356 13.7275 9.75959 13.9089C9.89561 14.1016 11.7433 16.9355 14.5546 18.1484C15.2234 18.4431 15.7448 18.6132 16.1529 18.7379C16.8217 18.9532 17.4338 18.9192 17.9213 18.8512C18.4654 18.7719 19.5876 18.1711 19.8143 17.5136C20.0524 16.8561 20.0524 16.3007 19.973 16.176C19.8937 16.0513 19.7236 15.9946 19.4403 15.8586Z" fill="currentColor"/>
</svg>
