<svg width="24" height="25" viewBox="0 0 24 25" fill="none" xmlns="http://www.w3.org/2000/svg">
<path d="M19.0503 5.31088C17.1803 3.43088 14.6903 2.40088 12.0403 2.40088C6.58029 2.40088 2.13029 6.85088 2.13029 12.3109C2.13029 14.0609 2.59029 15.7609 3.45029 17.2609L2.05029 22.4009L7.30029 21.0209C8.75029 21.8109 10.3803 22.2309 12.0403 22.2309C17.5003 22.2309 21.9503 17.7809 21.9503 12.3209C21.9503 9.67088 20.9203 7.18088 19.0503 5.31088ZM12.0403 20.5509C10.5603 20.5509 9.11029 20.1509 7.84029 19.4009L7.54029 19.2209L4.42029 20.0409L5.25029 17.0009L5.05029 16.6909C4.23029 15.3809 3.79029 13.8609 3.79029 12.3109C3.79029 7.77088 7.49029 4.07088 12.0303 4.07088C14.2303 4.07088 16.3003 4.93088 17.8503 6.49088C19.4103 8.05088 20.2603 10.1209 20.2603 12.3209C20.2803 16.8609 16.5803 20.5509 12.0403 20.5509ZM16.5603 14.3909C16.3103 14.2709 15.0903 13.6709 14.8703 13.5809C14.6403 13.5009 14.4803 13.4609 14.3103 13.7009C14.1403 13.9509 13.6703 14.5109 13.5303 14.6709C13.3903 14.8409 13.2403 14.8609 12.9903 14.7309C12.7403 14.6109 11.9403 14.3409 11.0003 13.5009C10.2603 12.8409 9.77029 12.0309 9.62029 11.7809C9.48029 11.5309 9.60029 11.4009 9.73029 11.2709C9.84029 11.1609 9.98029 10.9809 10.1003 10.8409C10.2203 10.7009 10.2703 10.5909 10.3503 10.4309C10.4303 10.2609 10.3903 10.1209 10.3303 10.0009C10.2703 9.88088 9.77029 8.66088 9.57029 8.16088C9.37029 7.68088 9.16029 7.74088 9.01029 7.73088C8.86029 7.73088 8.70029 7.73088 8.53029 7.73088C8.36029 7.73088 8.10029 7.79088 7.87029 8.04088C7.65029 8.29088 7.01029 8.89088 7.01029 10.1109C7.01029 11.3309 7.90029 12.5109 8.02029 12.6709C8.14029 12.8409 9.77029 15.3409 12.2503 16.4109C12.8403 16.6709 13.3003 16.8209 13.6603 16.9309C14.2503 17.1209 14.7903 17.0909 15.2203 17.0309C15.7003 16.9609 16.6903 16.4309 16.8903 15.8509C17.1003 15.2709 17.1003 14.7809 17.0303 14.6709C16.9603 14.5609 16.8103 14.5109 16.5603 14.3909Z" fill="#3C68B0"/>
</svg>
